<svg width="21" height="20" viewBox="0 0 21 20" fill="none" xmlns="http://www.w3.org/2000/svg">
<path d="M7.75 10H12.75M10.25 7.5V12.5M2.75 10C2.75 10.9849 2.94399 11.9602 3.3209 12.8701C3.69781 13.7801 4.25026 14.6069 4.9467 15.3033C5.64314 15.9997 6.46993 16.5522 7.37987 16.9291C8.28982 17.306 9.26509 17.5 10.25 17.5C11.2349 17.5 12.2102 17.306 13.1201 16.9291C14.0301 16.5522 14.8569 15.9997 15.5533 15.3033C16.2497 14.6069 16.8022 13.7801 17.1791 12.8701C17.556 11.9602 17.75 10.9849 17.75 10C17.75 9.01509 17.556 8.03982 17.1791 7.12987C16.8022 6.21993 16.2497 5.39314 15.5533 4.6967C14.8569 4.00026 14.0301 3.44781 13.1201 3.0709C12.2102 2.69399 11.2349 2.5 10.25 2.5C9.26509 2.5 8.28982 2.69399 7.37987 3.0709C6.46993 3.44781 5.64314 4.00026 4.9467 4.6967C4.25026 5.39314 3.69781 6.21993 3.3209 7.12987C2.94399 8.03982 2.75 9.01509 2.75 10Z" stroke="#212121" stroke-width="1.66667" stroke-linecap="round" stroke-linejoin="round"/>
</svg>
