<svg width="275" height="275" viewBox="0 0 275 275" fill="none" xmlns="http://www.w3.org/2000/svg">
<path d="M124 197.781C124 197.781 131.265 194.337 133.977 191.941C136.689 189.546 140.061 183.594 140.061 183.594C140.061 183.594 177.099 210.546 201.25 206.702C206.814 205.816 217.656 202.089 218.348 195.523C220.236 177.592 194.114 173.011 199.82 163.918C203.303 158.368 214.123 166.628 214.123 166.628L259 188.87C259 188.87 243.496 227.378 205.872 228.921C159.589 230.82 124 197.781 124 197.781Z" fill="white"/>
<path fill-rule="evenodd" clip-rule="evenodd" d="M87.8515 47.4771C87.4294 47.3107 85.1621 44.5282 82.2841 44.0218C80.9765 43.7916 82.1631 45.4608 80.7241 45.4761C76.4372 45.5207 69.4704 44.7133 68.1798 45.4761C67.2206 46.0411 69.3329 48.0145 68.1798 48.1051C57.299 48.9603 40.6996 59.8503 37.0985 65.1337C35.952 66.8151 45.2218 63.9625 43.7448 64.7936C42.0871 65.7267 40.2485 71.8359 39.1496 76.5537C38.3886 79.8029 37.9093 83.9842 37.7403 88.5331C37.5993 92.4602 37.6556 93.1101 38.2197 95.2572C38.8676 97.6586 39.3749 98.365 40.2485 98.0258C40.559 97.9129 40.6996 97.4892 40.6996 96.698C40.6996 96.0765 41.0379 94.2117 41.4605 92.5447L42.1936 89.5502L42.5036 90.7932C42.8983 92.2339 45.2092 96.698 47.2948 99.9471C47.4074 100.12 47.8912 99.9003 48.3278 98.8429C48.7255 97.8792 48.564 96.34 49.2398 94.69C50.7784 90.9319 53.8001 86.046 57.299 82.1347C62.47 76.3546 64.1854 69.6647 69.0329 64.2947C78.0788 54.2733 89.4316 48.099 87.8515 47.4771Z" fill="white"/>
<path fill-rule="evenodd" clip-rule="evenodd" d="M44.1407 66.0357C42.5535 67.2242 40.1981 76.8633 40.1575 77.0243C39.3253 80.3254 38.5231 91.7884 39.343 93.9588C40.1633 96.1291 42.4595 88.306 42.4595 88.306C42.4595 88.306 45.9298 96.6983 48.9967 98.9993C49.1275 99.0976 45.3516 88.6159 44.1407 82.4971C42.5421 74.42 45.0436 65.3594 44.1407 66.0357Z" fill="#212121"/>
<path fill-rule="evenodd" clip-rule="evenodd" d="M97.9548 232.309C100.657 231.718 105.216 229.66 106.962 228.956C108.708 228.252 114.027 220.743 115.941 212.272C117.321 206.025 118.024 197.132 117.236 195.64C117.12 195.429 116.694 191.385 117.827 192.705C120.347 195.64 123.337 200.248 132.774 191.991C135.344 189.742 138.75 186.84 137.853 184.275C135.344 177.096 124.465 162.64 122.806 161.545C120.824 160.235 110.801 161.348 95.8858 156.947C78.9708 151.955 71.9272 137.257 65.3078 139.171C59.9546 140.718 47.1288 150.226 43.91 156.248C28.7139 184.676 47.1288 204.596 51.323 210.317L55.3946 212.075L55.5355 215.705L55.7326 217.985C56.0984 222.347 56.2392 222.741 58.2096 224.204C63.1355 227.947 72.8463 231.436 81.6289 232.675C85.7101 233.238 94.5768 233.041 97.9548 232.309Z" fill="white"/>
<path fill-rule="evenodd" clip-rule="evenodd" d="M57.6084 213.881L57.8048 216.137C58.1696 220.455 58.3094 220.845 60.2721 222.293C63.1669 224.479 67.7203 226.577 72.7636 228.183C76.2694 229.298 80.0124 230.176 83.5995 230.678C87.6651 231.235 96.4966 231.04 99.8613 230.316C101.524 229.958 87.8449 219.281 79.7861 222.293C73.5975 224.607 59.0113 206.959 64.9419 202.348C71.5948 197.175 59.4039 176.775 59.0113 172.346C58.6187 167.917 57.0729 166.859 57.0278 167.014C56.9826 167.17 56.9826 167.7 57.1038 168.976C57.6271 174.48 57.6084 213.881 57.6084 213.881Z" fill="#212121"/>
<path fill-rule="evenodd" clip-rule="evenodd" d="M55.8886 171.02C56.4836 170.907 57.0598 171.286 57.1757 171.866C59.3153 182.582 68.366 189.837 84.5494 193.631C100.83 197.447 111.919 197.241 117.761 193.168C118.254 192.824 117.887 195.768 117.525 195.994C113.715 198.376 100.758 201.931 85.2964 198.718C65.5268 194.611 56.2443 178.405 55.0203 172.275C54.9048 171.695 55.2931 171.133 55.8886 171.02Z" fill="#F15929"/>
<path fill-rule="evenodd" clip-rule="evenodd" d="M47.5506 151.003C48.0744 150.706 67.6252 172.929 94.4554 177.96C121.285 182.99 127.782 179.791 128.826 172.929C128.916 172.337 129.473 171.93 130.07 172.019C130.667 172.108 131.078 172.661 130.988 173.253C129.664 181.949 117.249 184.017 94.0877 180.097C71.2168 176.226 55.5363 167.029 47.1444 152.483C46.8448 151.963 47.0263 151.3 47.5506 151.003Z" fill="#F15929"/>
<path fill-rule="evenodd" clip-rule="evenodd" d="M160.439 150.043C159.706 149.788 158.917 149.223 158.409 148.572L157.564 147.526L160.552 144.557C165.147 140.032 168.671 135.394 171.715 129.88C172.73 128.042 175.295 121.905 175.295 121.312C175.295 121.114 175.606 120.322 175.972 119.502C176.536 118.314 176.959 117.862 178.171 117.183C179.608 116.335 181.244 116.052 181.948 116.533C183.301 117.438 183.301 120.294 181.948 125.214C180.454 130.615 178.453 134.489 174.309 140.061C173.66 140.909 172.448 142.577 171.574 143.737C169.234 146.847 167.712 148.346 165.655 149.505C163.625 150.637 162.441 150.778 160.439 150.043ZM180.68 147.498L182.709 148.403C183.13 148.597 187.773 150.835 193.35 153.524C202.342 157.858 213.762 163.362 213.831 163.362C213.944 163.362 214.473 162.135 214.593 160.704C214.875 157.622 215.917 153.436 217.13 150.524C217.693 149.223 218.145 147.597 218.145 147.456C218.145 147.391 217.686 147.206 216.936 146.902C216.043 146.541 214.736 146.012 213.296 145.32C206.192 141.899 192.294 134.914 190.574 133.867C188.883 132.878 188.545 132.793 188.545 133.443C188.545 134.292 186.825 138.222 185.5 140.343C184.796 141.503 183.414 143.595 182.428 144.981L180.68 147.498ZM213.352 158.272C214.161 158.742 212.76 159.431 212.422 159.544C210.43 159.714 208.085 159.338 206.164 158.215C205.159 157.501 197.249 153.092 192.001 150.168C189.603 148.831 187.76 147.805 187.389 147.583C186.205 146.876 185.077 146.112 184.88 145.886C184.288 145.122 184.852 144.783 186.515 144.924C187.515 145.009 211.606 157.257 213.352 158.272ZM98.7587 232.306C100.933 231.828 104.309 230.399 106.458 229.489C106.984 229.267 107.436 229.076 107.78 228.937C109.528 228.229 114.855 220.683 116.772 212.171C118.154 205.893 118.858 196.957 118.069 195.458C117.593 194.591 120.42 197.502 122.526 199.671C123.165 200.328 123.737 200.917 124.13 201.312C136.421 213.557 154.716 223.398 173.717 228.007C183.189 230.326 189.926 231.146 198.975 231.146C214.17 231.146 226.151 228.149 237.032 221.56C237.549 221.247 238.033 220.959 238.495 220.685C242.288 218.432 244.548 217.09 250.733 210.107C257.67 202.274 263.841 184.09 265.899 177.813C266.801 174.984 269 163.737 269 160.93C269 157.607 267.844 156.038 266.265 154.426C263.475 151.683 259.697 150.693 256.568 151.881L255.102 152.447L254.651 150.948C254.002 148.685 252.65 146.876 250.564 145.518C247.463 143.454 247.012 143.313 244.221 143.313C242.05 143.313 241.458 143.426 240.077 144.076L238.47 144.811L238.132 143.793C237.483 141.701 235.308 138.784 233.621 137.94C232.125 137.191 229.534 137.123 227.729 137.459C223.783 138.194 220.964 140.032 219.808 142.606C219.469 143.397 219.047 144.02 218.878 144.02C218.737 144.02 213.183 142.464 206.558 139.523C205.441 139.025 204.391 138.558 203.405 138.12C191.509 132.83 188.931 131.684 189.165 130.248C189.362 129.032 189.306 128.353 188.968 127.307C188.376 125.554 187.699 125.073 185.782 125.073C184.26 125.073 184.26 125.073 184.429 124.309C185.331 119.983 185.303 117.494 184.345 115.911C183.696 114.864 182.935 114.44 181.187 114.186C180.172 114.044 179.693 114.129 178.566 114.751C177.804 115.147 177.156 115.43 177.1 115.373C177.043 115.317 177.241 113.762 177.551 111.923C179.862 98.3209 178.076 86.6017 172.185 74.1592C172.128 74.04 172.063 73.8994 171.988 73.7382C170.197 69.8807 162.995 54.3696 142.398 46.5429C141.465 46.1885 140.583 45.8459 139.735 45.5169C132.719 42.7927 128.055 40.9813 116.801 41.0001C104.187 41.0212 99.9146 42.8102 91.5984 46.6278C90.4429 47.1649 89.428 47.4759 89.3433 47.3629C89.2586 47.2214 88.7232 46.8823 88.1874 46.5994C87.652 46.3168 86.4961 45.6098 85.6503 45.0443C83.2258 43.4038 81.7319 42.7252 80.9707 42.8947C80.0969 43.1212 80.0969 43.8563 80.9707 44.1958C81.3371 44.3372 81.7603 44.8178 81.9293 45.2988C82.2957 46.3168 82.7184 46.4298 82.9721 45.5813C83.0852 45.2703 83.2542 45.0443 83.3389 45.1008C83.3708 45.1166 83.4782 45.1674 83.642 45.244C84.0542 45.4376 84.8232 45.799 85.6503 46.2034C86.8062 46.7689 88.0747 47.3629 88.4132 47.5044C89.0333 47.7304 88.8359 47.9004 86.1577 49.484C75.6991 55.6487 67.1859 65.2351 62.4217 76.1506C61.6885 77.7906 61.0404 78.8087 60.3636 79.3746C58.6439 80.8167 55.2613 84.9169 54.4718 86.5289C54.0491 87.4055 53.1469 88.763 52.4421 89.5546C51.7657 90.3466 51.0325 91.3646 50.7788 91.7887C50.5534 92.2412 50.3281 92.5522 50.2434 92.4957C50.1871 92.4107 50.2713 91.0251 50.4687 89.4135C50.8919 85.6524 50.8919 84.6624 50.5534 84.5778C50.046 84.4364 49.3132 86.4159 49.0028 88.876C48.7774 90.3746 48.7211 92.6372 48.8622 94.9558L49.0312 98.6324L47.0298 95.3803C46.3416 94.2926 45.6639 93.2053 45.1822 92.4331V92.4326H45.1818V92.4322L45.1809 92.4304L45.18 92.4295V92.4291L45.1796 92.4287L45.1787 92.4274C44.8735 91.9372 44.6473 91.5749 44.549 91.4211C43.8158 90.3466 43.3931 88.7346 43.7032 88.1975C43.8722 87.8865 43.8442 87.745 43.5621 87.745C42.9704 87.745 41.8145 89.6396 41.0534 91.8171C40.687 92.8352 40.3202 93.6833 40.2075 93.6833C39.7848 93.6833 39.9822 83.5598 40.4333 80.3077C41.3634 73.8884 43.8158 65.9702 44.9154 65.9702C45.1407 65.9702 45.3381 65.8571 45.3381 65.6876C45.3381 65.1786 44.6053 65.3766 44.0132 66.0271C42.6883 67.4692 40.9407 71.9089 39.8411 76.6315C39.08 79.8837 38.6009 84.0688 38.4315 88.6215C38.2909 92.5522 38.3472 93.2027 38.911 95.3518C39.5594 97.7554 40.0669 98.4624 40.9407 98.1234C41.2507 98.0099 41.3918 97.5859 41.3918 96.7939C41.3918 96.1719 41.7298 94.3057 42.1529 92.6372L42.8857 89.6396L43.1957 90.8837C43.5905 92.3262 45.9019 96.7943 47.9879 100.046C49.4259 102.252 49.4539 102.393 49.9333 105.843C50.1871 107.794 50.9761 112.541 52.8085 119.841C54.4277 126.292 63.5291 132.691 65.8021 134.289L65.8034 134.29C66.102 134.499 66.2824 134.627 66.3117 134.659C66.5938 134.97 66.9885 135.14 67.2139 135.055C67.4676 134.97 67.6086 135.083 67.6086 135.394C67.6086 135.677 67.806 136.045 68.0313 136.214C68.3134 136.412 68.5108 137.176 68.5671 138.505C68.7082 141.163 70.6811 146.253 72.2034 147.922C73.1903 148.996 75.248 149.449 77.5314 149.053C79.0258 148.827 79.4485 148.657 79.3074 148.318C79.2231 148.092 79.7585 148.374 80.4917 148.94C89.0612 155.501 97.7438 159.431 107.498 161.128C111.275 161.778 117.534 162.146 120.944 161.891C123.961 161.694 123.961 161.694 123.82 162.287C123.623 163.079 123.876 163.56 128.02 170.601C131.318 176.173 131.6 176.54 135.265 180.301C143.046 188.361 151.531 194.61 161.144 199.446C170.193 203.97 184.64 207.731 197.848 208.919C211.055 210.107 220.541 197.947 220.513 194.836C220.456 190.566 219.864 187.767 218.427 185.052C217.017 182.422 216.087 181.517 211.858 178.689C207.151 175.55 204.247 172.977 202.33 170.234C201.118 168.509 200.667 166.558 200.667 165.511C200.667 164.833 201.54 163.306 202.837 162.994C204.021 162.683 204.247 162.712 205.572 163.362C206.361 163.73 208.419 164.691 210.11 165.511C211.83 166.303 213.493 167.095 213.831 167.265C214.829 167.542 215.251 169.501 215.479 170.562C215.53 170.799 215.572 170.992 215.607 171.11C216.002 172.581 217.87 174.48 219.075 175.126C221.191 176.261 226.405 176.413 227.842 174.858C228.209 174.462 229.424 173.975 229.674 174.122C229.925 174.27 230.83 175.494 230.83 176.484C230.859 178.18 231.732 179.736 233.593 181.291C237.117 184.232 239.851 184.939 242.614 183.638C244.051 182.959 245.23 182.694 245.23 182.694C245.23 182.694 246.405 184.199 246.476 184.712C247.029 188.73 252.959 190.415 254.538 190.585C254.9 190.621 255.604 190.465 256.319 190.308C257.275 190.097 258.251 189.881 258.457 190.114C258.859 190.57 251.719 202.415 250.733 203.914C241.345 218.053 223.078 226.707 200.723 227.612C186.205 228.205 168.361 224.133 152.884 216.724C142.989 211.945 134.222 206.091 124.835 197.89C123.2 196.476 121.311 194.865 120.634 194.299C119.958 193.762 118.351 191.924 117.111 190.227C115.025 187.399 113.84 186.381 113.84 187.342C113.84 187.767 115.194 190.368 116.744 192.942C117.365 193.96 117.759 194.667 117.618 194.554C117.477 194.44 117.026 196.476 116.603 199.078C115.222 207.42 112.939 215.65 110.627 220.768C109.358 223.539 106.926 225.609 106.193 226.174C103.487 228.239 99.4356 229.167 93.8255 229.732C86.7215 230.439 76.2628 228.856 68.285 225.858C66.1711 225.066 60.73 222.776 60.3636 222.521C60.3417 222.499 60.2168 221.686 60.0426 220.55C59.9933 220.23 59.9404 219.884 59.8845 219.524C58.8697 212.539 57.4601 185.646 57.4601 173.203C57.4601 168.056 57.4037 166.925 57.0653 166.925C56.3605 166.925 56.0788 167.604 55.7688 170.036C55.064 175.579 55.205 204.508 55.9662 210.587L56.1351 211.973L55.1766 211.436C53.7107 210.587 48.129 204.904 46.184 202.274C44.5372 200.025 43.5586 197.146 42.8263 194.991C42.656 194.49 42.4992 194.029 42.3499 193.623C38.2625 182.255 39.7001 169.499 45.3381 158.017C50.1307 148.233 56.0225 142.804 64.6488 140.174C66.0579 139.75 67.2986 139.297 67.4396 139.184C67.975 138.675 64.5357 138.93 62.647 139.523C56.5015 141.418 50.0744 146.593 45.7049 153.21C39.5594 162.485 36.7965 176.173 38.7415 187.851C39.1926 190.623 41.025 196.618 41.5324 197.042C41.5774 197.087 41.8093 197.575 42.1599 198.313C43.1298 200.354 45.0075 204.305 46.353 206.091C47.9879 208.325 52.9216 213.189 54.9792 214.688L56.2762 215.621L56.4736 217.912C56.84 222.295 56.981 222.691 58.9539 224.161C63.8876 227.923 73.613 231.429 82.4083 232.673C86.4961 233.239 95.3761 233.041 98.7587 232.306ZM194.042 205.752C177.663 204.31 157.874 196.476 143.553 184.373C137.521 179.254 129.683 169.301 126.583 163.787C125.934 162.655 125.455 162.118 124.891 161.976C124.299 161.807 124.807 161.637 127.231 161.241C137.464 159.488 147.415 155.218 155.45 149.138L156.633 148.261L156.972 149.081C157.733 150.92 160.665 152.786 162.835 152.786C163.709 152.786 166.641 151.457 168.417 150.241L169.629 149.421L170.616 150.41C171.518 151.316 171.687 151.372 173.379 151.372C175.324 151.372 177.663 150.495 178.96 149.251L179.665 148.6L181.666 149.93C182.738 150.693 185.726 152.362 188.291 153.691C192.125 155.67 196.184 157.961 200.047 160.336L200.667 160.732L200.074 161.524C199.454 162.372 198.299 163.984 198.299 166.445C198.299 169.216 201.172 174.195 206.671 177.615C210.992 180.301 218.427 185.585 218.145 193.309C218.11 194.242 217.073 196.561 215.692 198.654C214.79 199.983 212.281 201.963 209.998 203.122C206.107 205.073 199.257 206.204 194.042 205.752ZM43.7315 78.8087C44.4927 78.9786 45.0001 79.2331 44.887 79.3462C44.5206 79.7137 42.5756 79.5442 42.1245 79.0917C41.4197 78.4131 41.5887 77.9321 42.5756 77.7341C43.0831 77.6496 43.8442 77.2251 44.2669 76.8011C44.6901 76.377 45.0564 76.179 45.0564 76.3205C45.0564 76.688 43.6468 77.9886 42.942 78.2716C42.4909 78.4696 42.632 78.5542 43.7315 78.8087ZM54.9513 79.2612C55.7688 78.8087 55.5993 78.4976 54.6412 78.6391C53.6827 78.7806 53.6264 78.6676 54.2465 77.7061C54.5002 77.3386 54.6412 76.8011 54.5845 76.5181C54.5002 76.1506 54.3028 76.3205 53.8517 77.2251C53.5133 77.8756 53.0342 78.4131 52.8085 78.4131C52.1041 78.4131 52.0473 78.9786 52.7242 79.2331C53.598 79.6007 54.2744 79.6007 54.9513 79.2612ZM45.1975 63.8211C44.5206 63.9341 42.4066 64.7826 40.5459 65.7156C38.6573 66.6207 37.0503 67.3842 36.9376 67.3562C34.062 67.0451 38.0651 62.2375 45.3381 57.3173C52.3011 52.5946 57.009 50.106 61.3784 48.8334C64.1129 48.0414 67.1859 47.9284 68.0597 48.5789C68.5388 48.9465 68.3698 48.9749 66.2837 49.003C61.7732 49.003 56.5579 51.322 48.0726 57.0058C43.6752 59.9469 38.5725 64.1605 38.5725 64.8391C38.5725 64.9806 39.39 64.6976 40.4049 64.2455C42.5756 63.2555 44.8027 62.7465 45.7892 62.973C46.8324 63.2555 46.6067 63.6231 45.1975 63.8211ZM56.1068 66.2531C58.757 65.7156 58.8697 65.6876 58.8697 65.4046C58.8697 65.2636 57.8548 65.1221 56.5862 65.0656L54.3028 64.9806L56.4168 62.577C57.5727 61.2479 58.926 59.9189 59.405 59.6078C60.4483 58.9289 60.5046 58.4483 59.6588 58.1653L59.0107 57.9673L59.7151 57.7128C60.1099 57.5718 60.8431 57.5148 61.3505 57.5998C62.1116 57.7128 62.2806 57.6563 62.1959 57.2603C62.1116 56.8647 61.8016 56.7798 60.4199 56.8082C56.3889 56.8647 54.6692 57.9393 57.8264 58.4483C58.7002 58.5898 59.4334 58.8158 59.4334 58.9573C59.4334 59.0703 59.2924 59.1834 59.1234 59.1834C58.5876 59.1834 54.0491 63.793 53.4853 64.9241C52.6115 66.5926 53.0906 66.8471 56.1068 66.2531ZM74.7126 55.2812C73.8951 55.3377 73.6978 55.4787 73.7541 55.8747L73.7628 55.9326C73.7943 56.1415 73.8126 56.262 73.7659 56.2983C73.7026 56.3474 73.5213 56.2445 73.0951 56.0018L73.0209 55.9597C72.4855 55.6767 72.4292 55.5357 72.7392 55.3092C72.9366 55.1397 73.472 54.8852 73.8951 54.8002L74.6842 54.6022L74.0925 53.9801C73.782 53.6126 73.613 53.2731 73.6978 53.1601C73.9231 52.9341 76.686 53.2451 77.0803 53.5561C77.2498 53.6972 77.5035 53.6691 77.6725 53.4996C78.0672 53.1036 78.6026 53.4146 78.6026 54.0367C78.6026 54.3762 78.5183 54.4042 78.2646 54.1497C78.0388 53.9236 77.8415 53.9236 77.5877 54.1216C77.3624 54.3196 77.1934 54.3196 77.0524 54.0932C76.9677 53.9517 76.4323 53.8106 75.8685 53.8106C75.348 53.8106 75.1021 53.8106 75.0519 53.9101C75.0069 53.999 75.1196 54.1681 75.3327 54.4892C75.7825 55.194 75.7559 55.1962 74.7222 55.2803L74.7126 55.2812ZM70.4274 47.7589C70.4274 47.3914 70.0894 46.7409 69.6663 46.3168L68.8772 45.5248L73.1056 45.6943C75.4454 45.8078 78.0952 46.0623 79.0258 46.3168C79.9559 46.5429 81.0271 46.7124 81.4218 46.7124C82.014 46.7124 81.9009 46.5994 80.8018 46.0054C78.8847 45.0158 76.4323 44.5352 71.7244 44.1958C66.0863 43.7998 63.2391 44.3372 63.7745 45.7509C63.8592 46.0338 64.3103 46.1753 64.9868 46.1753C66.368 46.1753 68.6235 46.9954 69.3846 47.7589C70.2021 48.5789 70.4274 48.5789 70.4274 47.7589ZM56.6705 122.641C58.954 125.582 61.9706 128.919 63.3802 130.05C64.2256 130.729 64.9588 131.294 65.0151 131.294C65.0431 131.294 64.423 129.993 63.6339 128.41C60.4483 122.047 58.5876 115.713 57.7138 108.417C57.5164 106.805 57.2063 105.447 56.8679 104.882C56.1915 103.751 56.1915 102.28 56.8963 100.895C57.2627 100.159 57.4601 99.226 57.4601 98.2079V96.6528L56.1068 98.0664C54.7819 99.4524 53.5133 100.018 53.5133 99.1695C53.5133 98.5474 55.5993 95.5498 56.6989 94.6168C57.5727 93.8813 57.6854 93.6268 57.9675 91.4211C58.1649 90.0921 58.616 87.745 58.9823 86.1895C59.3771 84.6344 59.6024 83.3053 59.5461 83.2488C59.3487 83.0508 52.7242 90.683 51.822 93.1177C51.6237 93.6526 51.0893 94.5883 50.6661 95.1538L49.9333 96.0978C49.9333 96.0978 50.1609 97.4199 50.4124 99.081C50.6665 100.76 50.7858 101.913 50.8923 102.941C51.0342 104.316 51.153 105.465 51.5399 107.342C51.991 109.661 52.4421 111.668 52.5548 111.81C52.6395 111.98 53.0059 113.281 53.3727 114.723C54.1618 117.918 55.4867 121.085 56.6705 122.641ZM171.067 149.392L170.475 148.798C170.475 148.798 180.3 136.276 182.061 131.662C183.404 128.141 184.195 127.142 185.262 127.142C185.859 127.142 186.346 127.279 186.571 127.618C186.966 128.212 187.346 128.947 186.839 131.464C185.994 135.536 184.697 138.222 180.806 144.02C179.904 145.349 178.749 146.819 178.241 147.328C177.057 148.431 174.393 149.562 172.843 149.816C171.856 149.958 171.574 149.901 171.067 149.392Z" fill="#212121"/>
<path d="M248.741 176.369C252.247 166.833 251.716 164.801 251.108 164.602C251.108 164.602 249.769 165.362 249.177 166.965C248.078 169.976 244.316 177.853 242.907 179.26C241.244 180.92 241.244 180.92 239.553 180.92C237.862 180.92 232.985 178.378 232.321 175.872C231.259 171.862 235.833 157.934 235.946 157.147L235.185 156.612C234.677 157.09 228.079 177.066 219.402 171.861C218.409 171.265 216.302 168.457 216.133 166.965C215.194 162.633 219.503 147.482 220.236 144.371C220.891 141.585 224.306 139 228.505 139C234.959 139 234.092 144.632 236.983 146.616C238.264 147.495 240.369 145.901 241.019 145.78C244.654 145.105 246.047 145.891 248.712 148.003C250.77 149.633 252.292 152.859 253.967 153.995C254.898 154.627 255.885 153.764 256.209 153.602C257.535 152.937 260.38 153.433 261.169 153.995C262.326 154.499 265.161 157.219 265.609 158.801C267.638 165.972 261.229 181.87 258.81 184.852C254.804 189.789 245.235 185.906 248.741 176.369Z" fill="white"/>
<path fill-rule="evenodd" clip-rule="evenodd" d="M86.7359 150.846C94.4842 155.724 102.473 158.909 111.578 159.783C118.761 160.46 128.445 159.53 135.401 157.274C141.254 155.385 149.172 150.152 154.46 145.725C164.725 137.153 171.2 123.764 174.028 109.554C174.423 107.551 175.027 102.519 174.999 97.5286C174.999 91.7199 172.435 75.8474 164.668 66.6951C148.648 47.8185 122.313 39.3153 100.181 46.5811C92.1977 49.2018 83.6972 53.9504 77.2783 60.1535C69.191 68.0203 63.2246 78.7349 60.8491 89.6749C58.3607 101.236 61.5977 115.052 67.2247 126.387C71.7211 135.409 79.1295 146.024 86.7359 150.846ZM162.236 116.772C156.92 132.702 143.064 144.601 125.645 148.211C122.987 148.746 121.149 148.943 117.417 149C114.787 149.085 112.157 149.056 111.62 149C99.4326 147.534 90.1578 143.05 81.6179 134.535C77.8855 130.785 76.302 128.755 73.983 124.751C70.3356 118.407 68.3841 111.922 67.7906 104.111C65.7546 77.3534 84.9548 55.0502 111.987 52.7379C122.591 51.8355 134.355 55.0782 143.29 61.394C146.599 63.7342 152.593 69.6556 154.46 72.4187C155.223 73.5185 162.632 84.3178 163.933 90.5209C165.601 98.5852 164.951 108.679 162.236 116.772Z" fill="white"/>
<path fill-rule="evenodd" clip-rule="evenodd" d="M175 97.0105C175 115.85 165.941 136.448 154.25 145.244C148.673 149.441 141.384 154.522 135.037 156.486C125.734 159.363 111 158.984 111 158.984C111 158.984 126.032 157.006 131.602 154.801C147.576 148.477 156.296 138.768 161.681 129.454C172.309 111.067 175 96.5531 175 97.0105Z" fill="#212121"/>
<path fill-rule="evenodd" clip-rule="evenodd" d="M111.962 144.892C104.392 143.933 96.8784 141.255 90.8114 137.281C87.2104 134.942 81.7667 129.446 79.1302 125.528C75.3593 119.891 72.8642 113.859 71.645 107.376C70.7662 102.669 70.7947 95.4256 71.6736 91.2258C72.5809 86.9417 73.743 83.6719 75.813 79.5288C78.2228 74.737 80.7745 71.2139 84.6021 67.4088C91.1232 60.9259 98.6931 56.8108 107.709 54.8378C110.63 54.2178 121.205 53.7104 121.573 54.1898C121.659 54.3304 122.226 54.6972 122.821 55.0072C123.416 55.3451 125.004 56.5292 126.308 57.6845C128.264 59.3759 129.143 60.447 130.844 63.0964C132.007 64.9005 132.942 66.5351 132.942 66.6762C132.942 66.9862 133.85 67.5498 134.36 67.5498C135.069 67.5498 135.551 65.4357 135.692 61.7153C135.778 59.6576 135.948 57.9666 136.061 57.9666C136.458 57.9666 140.824 60.3623 142.866 61.7153C146.863 64.3647 150.861 68.0851 153.81 71.9749C155.142 73.7223 155.341 74.1733 155.341 75.2443C155.341 76.2311 155.624 76.9921 156.503 78.5141C158.715 82.3472 160.444 87.167 161.493 92.4941C162.174 96.074 162.174 102.838 161.465 106.587C159.537 116.903 153.81 127.163 146.353 133.674C140.03 139.17 133.311 142.552 125.372 144.215C122.651 144.807 114.485 145.202 111.962 144.892ZM91.6902 125.612C91.9454 125.331 92.1153 124.908 92.0301 124.711C92.0047 124.651 91.6498 124.485 91.1302 124.243C89.9189 123.676 87.813 122.692 86.9004 121.667C83.2713 117.552 81.9384 114.479 81.1162 108.137C80.3226 101.965 80.9893 97.7916 82.4206 91.0847C83.1185 87.8132 84.9741 85.1105 86.1287 83.4296C86.9135 82.2861 87.3747 81.615 86.9272 81.5582C85.8213 81.3888 85.6513 81.4735 84.4888 82.5729C81.9937 84.9403 80.8597 86.8286 79.6686 90.4648C77.8258 96.1582 77.4696 111.545 81.1162 118.482C84.7628 125.418 91.038 126.345 91.6902 125.612ZM132.007 101.936C131.525 106.315 129.484 112.647 127.102 115.409C125.996 116.706 121.937 118.933 118.511 118.482C115.202 118.046 112.614 116.508 110.402 113.211C108.503 110.364 107.522 106.909 106.859 102.556C105.713 95.0414 110.714 86.2933 112.869 84.1229C115.052 81.8962 116.612 81.1072 118.596 81.0788C120.524 81.0788 121.772 81.5019 123.728 82.8829C127.3 85.3633 132.942 93.4281 132.007 101.936ZM93.7882 78.6268C94.3552 77.9784 94.4404 77.6684 94.27 76.4564C94.1567 75.329 93.9301 74.878 93.3345 74.399C92.2853 73.5533 90.9814 73.5533 90.0173 74.4554C89.337 75.1037 89.2518 75.329 89.337 76.879C89.4218 78.5421 89.4784 78.6547 90.4143 79.1621C91.6617 79.8388 92.8809 79.6415 93.7882 78.6268ZM111.48 61.2359C106.376 64.8721 104.165 66.3657 101.869 67.7751C100.054 68.9025 99.4868 68.9309 99.4868 67.9162C99.4868 67.3804 99.8838 66.7888 100.904 65.8584L102.322 64.5621L99.572 64.1958C96.4818 63.801 93.4764 62.9553 92.8242 62.307C91.7469 61.208 92.6823 60.9543 95.7444 61.518C97.1055 61.7433 99.7419 62.0253 101.613 62.0817L105.016 62.2227L107.482 60.447C112.897 56.5572 118.511 54.3588 121.205 55.0351C122.877 55.4298 122.679 55.8808 120.779 56.1061C118.596 56.3598 117.264 57.0929 111.48 61.2359Z" fill="white"/>
<path d="M120 114.703C120 114.335 120.715 114 121.517 114C122.146 114.033 122.146 114.033 121.602 114.502C120.973 115.071 120 115.172 120 114.703Z" fill="white"/>
<path d="M116.249 113.75C116.18 113.617 116.088 113.383 116.019 113.25C115.95 113.083 116.065 113 116.364 113C116.617 113 116.823 113.1 116.823 113.233C116.823 113.367 116.892 113.583 116.961 113.733C117.053 113.917 116.984 114 116.731 114C116.525 114 116.295 113.883 116.249 113.75Z" fill="white"/>
<path d="M117.033 113.143C116.889 112.286 117.206 112 118.243 112C118.56 112 118.819 112.286 118.934 112.771C119.165 113.6 118.79 114 117.782 114C117.321 114 117.119 113.8 117.033 113.143Z" fill="white"/>
<path d="M114.368 113.526C113.869 113 113.869 113 114.421 113C114.763 113 115 113.211 115 113.526C115 114.158 115 114.158 114.368 113.526Z" fill="white"/>
<path d="M120.206 112.963C119.828 112.766 120.002 112.174 120.467 112.083C121.309 111.916 121.687 111.992 121.861 112.387C121.977 112.614 122.035 112.812 121.977 112.827C121.745 112.963 120.38 113.054 120.206 112.963Z" fill="white"/>
<path d="M122.226 112.922C122.113 112.824 122 112.401 122 112.01C122 111.456 122.302 111.228 123.206 111.065C123.997 110.935 124.487 111 124.712 111.26C125.089 111.782 125.089 112.433 124.75 112.596C124.072 112.922 122.49 113.118 122.226 112.922Z" fill="white"/>
<path d="M113 111.633C113 111.373 113.343 111.157 113.84 111.092C114.832 110.94 114.794 110.919 114.985 111.482C115.061 111.807 114.87 111.937 114.069 111.98C113.229 112.045 113 111.958 113 111.633Z" fill="white"/>
<path d="M115.167 111.923C114.824 111.601 115.044 111 115.51 111C115.828 111 116 111.15 116 111.408C116 111.816 115.436 112.159 115.167 111.923Z" fill="white"/>
<path d="M117.059 111.346C116.817 110.571 117.332 110 118.333 110C118.788 110 119 110.245 119 110.775C119 111.223 118.727 111.631 118.333 111.794C117.332 112.12 117.272 112.12 117.059 111.346Z" fill="white"/>
<path d="M119.081 110.679C118.835 110.296 119.142 110.105 120.123 110.009C120.675 109.971 120.921 110.048 120.982 110.315C121.197 110.947 119.448 111.292 119.081 110.679Z" fill="white"/>
<path d="M113.087 110.347C112.925 109.112 112.961 109 113.429 109C113.681 109 113.879 109.15 113.879 109.337C113.879 109.524 113.933 109.936 113.987 110.235C114.041 110.609 113.933 110.834 113.627 110.946C113.285 111.096 113.159 110.946 113.087 110.347Z" fill="white"/>
<path d="M122 109.567C122 109.256 122.2 109.117 122.743 109.031C123.543 108.909 124 109.152 124 109.706C124 109.931 123.772 110 123 110C122.114 110 122 109.948 122 109.567Z" fill="white"/>
<path d="M115.142 109.886C114.863 109.645 115.022 109.126 115.381 109.033C115.6 108.978 115.819 108.996 115.879 109.052C116.118 109.256 115.978 109.794 115.679 109.905C115.301 110.035 115.301 110.035 115.142 109.886Z" fill="white"/>
<path d="M125.067 109.594C124.884 108.752 125.084 108.114 125.55 108.027C125.9 107.94 126 108.056 126 108.52C126 109.478 125.817 110 125.484 110C125.301 110 125.117 109.826 125.067 109.594Z" fill="white"/>
<path d="M117.105 109.853C116.923 109.323 116.983 108.359 117.242 108.07C117.531 107.732 118.139 108.697 117.971 109.227C117.759 109.805 117.212 110.239 117.105 109.853Z" fill="white"/>
<path d="M119.047 108.866C118.774 108.547 119.744 108 120.533 108C120.896 108 121.048 108.137 120.987 108.387C120.866 108.843 119.32 109.207 119.047 108.866Z" fill="white"/>
<path d="M111.347 108.731C111.347 108.519 111.211 108.055 111.074 107.675C110.938 107.296 110.984 107 111.256 107C111.846 107 112.301 108.604 111.755 108.942C111.528 109.069 111.347 108.984 111.347 108.731Z" fill="white"/>
<path d="M112.06 108.254C111.825 107.528 112.295 107 113.198 107C113.707 107 114.217 108.287 113.904 108.716C113.472 109.277 112.256 108.947 112.06 108.254Z" fill="white"/>
<path d="M114.249 107.905C113.75 107.407 114.05 106.209 114.715 106.043C115.214 105.91 115.481 106.076 115.747 106.675C115.946 107.107 116.046 107.539 115.98 107.606C115.647 107.905 114.449 108.138 114.249 107.905Z" fill="white"/>
<path d="M122.192 107.83C121.807 107.54 121.985 107.361 122.873 107.115C123.613 106.937 123.82 106.959 123.968 107.227C124.235 107.763 122.754 108.276 122.192 107.83Z" fill="white"/>
<path d="M124.105 107.764C123.782 107.357 124.233 107 125.071 107C126.07 107 126.361 107.662 125.458 107.866C124.491 108.07 124.33 108.045 124.105 107.764Z" fill="white"/>
<path d="M127 106.642C127 106.259 127.646 105.85 127.932 106.054C128.183 106.233 127.681 107 127.323 107C127.143 107 127 106.846 127 106.642Z" fill="white"/>
<path d="M112.089 106.286C111.933 105.101 111.951 105 112.399 105C112.9 105 113.211 106.252 112.831 106.726C112.434 107.199 112.209 107.064 112.089 106.286Z" fill="white"/>
<path d="M121 106.971C121 106.885 121.151 106.422 121.331 105.901C121.753 104.744 122.687 104.686 122.898 105.814C122.989 106.248 123.019 106.625 122.989 106.653C122.838 106.827 121 107.087 121 106.971Z" fill="white"/>
<path d="M113.233 105.849C113.1 105.784 113 105.526 113 105.29C113 104.946 113.1 104.924 113.5 105.139C113.767 105.29 114 105.548 114 105.698C114 106.021 113.6 106.107 113.233 105.849Z" fill="white"/>
<path d="M124.024 105.235C123.923 104.316 124.142 103.901 124.663 104.02C124.916 104.079 125 104.346 125 104.998C125 105.74 124.933 105.917 124.562 105.977C124.192 106.066 124.108 105.917 124.024 105.235Z" fill="white"/>
<path d="M126.274 105.773C125.776 104.505 125.929 104.125 126.965 104.03C127.885 103.935 128 104.03 128 104.854C128 105.551 127.77 105.836 127.195 105.963C126.773 106.058 126.351 105.963 126.274 105.773Z" fill="white"/>
<path d="M111.283 103.791C110.764 103.433 111.003 102.269 111.642 102.09C112.561 101.821 113 102.15 113 103.135C113 103.761 112.8 104 112.281 104C111.882 104 111.403 103.91 111.283 103.791Z" fill="white"/>
<path d="M122 103.413C122 103.106 122.249 102.938 122.5 103.022C122.8 103.106 123 103.385 123 103.609C123 103.832 122.8 104 122.5 104C122.249 104 122 103.748 122 103.413Z" fill="white"/>
<path d="M123.183 103.93C122.769 103.372 123.095 102.367 123.775 102.143C124.632 101.883 124.662 101.883 124.928 102.962C125.105 103.632 124.987 103.781 124.218 103.93C123.745 104.041 123.272 104.004 123.183 103.93Z" fill="white"/>
<path d="M125.64 102.799C125.343 102.513 125.424 101.568 125.721 101.568C125.883 101.568 125.991 101.454 125.991 101.281C125.991 101.139 125.829 100.995 125.613 100.995C125.155 100.995 124.777 99.5921 125.155 99.1911C125.64 98.6756 126.18 99.2195 126.504 100.623C126.692 101.367 126.881 102.227 126.962 102.513C127.07 102.885 126.962 103 126.449 103C126.099 103 125.721 102.914 125.64 102.799Z" fill="white"/>
<path d="M127.526 101.456C127.334 100.614 126.84 98.93 126.484 97.6946C125.935 95.8984 125.88 95.4492 126.182 95.2526C126.374 95.1122 126.621 95 126.703 95C127.005 95 128.102 100.755 127.992 101.877L127.91 103L127.526 101.456Z" fill="white"/>
<path d="M110 101.456C110 101.024 110.307 100.862 110.77 101.132C111.077 101.375 111.077 101.754 110.77 101.943C110.307 102.105 110 101.916 110 101.456Z" fill="white"/>
<path d="M111.024 101.113C111.11 99.8617 111.734 99.5753 111.906 100.72C112.057 101.649 112.1 101.542 111.454 101.899C111.002 102.114 110.959 102.043 111.024 101.113Z" fill="white"/>
<path d="M123.059 101.25C122.82 100.399 123.327 99.8996 124.283 100.017C125 100.105 125.269 101.368 124.671 101.75C123.925 102.219 123.238 102.014 123.059 101.25Z" fill="white"/>
<path d="M111 99.5496C111 99.1568 111.156 99 111.547 99C111.911 99 112.041 99.1309 111.989 99.445C111.859 100.125 111 100.204 111 99.5496Z" fill="white"/>
<path d="M112.078 99.4283C111.935 98.5388 111.935 98.5387 112.549 98.143C112.918 97.8467 113 97.9952 113 98.7363C113 99.9221 112.263 100.515 112.078 99.4283Z" fill="white"/>
<path d="M122.056 98.6696C121.84 98.229 122.241 98 123.321 98C123.846 98 124 98.1056 124 98.4405C124 98.7048 123.815 98.8811 123.568 98.8811C123.321 98.8811 122.92 98.9341 122.673 98.9867C122.396 99.0397 122.18 98.9341 122.056 98.6696Z" fill="white"/>
<path d="M125.051 98.4003C124.886 97.5998 125.134 97 125.608 97C125.897 97 126 97.2801 126 98C126 98.72 125.897 99 125.587 99C125.361 99 125.113 98.72 125.051 98.4003Z" fill="white"/>
<path d="M110 97.6594C110 97.2827 110.575 96.8523 110.825 97.0496C110.925 97.1035 111 97.3543 111 97.5877C111 97.8744 110.85 98 110.5 98C110.175 98 110 97.8744 110 97.6594Z" fill="white"/>
<path d="M112.081 97.3391C111.844 96.5294 112.111 96.1725 113.12 96.0108C114.04 95.8808 114.336 96.9506 113.535 97.5987C112.763 98.2141 112.289 98.1172 112.081 97.3391Z" fill="white"/>
<path d="M122.211 96.9029C122.006 96.8081 121.919 96.2228 122.094 96.2228C122.123 96.2228 122.562 96.1596 123.088 96.0805C123.965 95.9381 124.024 95.954 123.994 96.3811C123.965 96.6974 123.79 96.8556 123.351 96.9188C122.562 97.0296 122.445 97.0296 122.211 96.9029Z" fill="white"/>
<path d="M124.023 96.379C124.131 95.7196 125.241 94.7494 125.492 95.0596C125.599 95.1762 125.778 95.6414 125.885 96.1464C126.136 96.9224 126.028 97 125.026 97C124.166 97 123.916 96.8449 124.023 96.379Z" fill="white"/>
<path d="M111 95.5982C111 94.9902 111.944 94.7948 112.663 95.2508C113.112 95.5763 113.112 95.6849 112.663 95.8369C111.719 96.1191 111 96.0323 111 95.5982Z" fill="white"/>
<path d="M120.275 95.4611C119.912 94.9549 119.912 94.9298 120.255 95.0815C120.456 95.1827 120.718 95.2587 120.819 95.2587C120.919 95.2587 121 95.436 121 95.6383C121 96.1699 120.718 96.1194 120.275 95.4611Z" fill="white"/>
<path d="M113.953 94.7609C112.811 93.9095 112.652 92 113.714 92C114.431 92 115.095 93.0836 114.989 94.0901C114.909 95.0191 114.591 95.2254 113.953 94.7609Z" fill="white"/>
<path d="M126.061 94.5999C126.17 94.3749 126.278 94.1499 126.278 94.0999C126.278 94.05 126.458 94 126.639 94C126.856 94 127 94.225 127 94.5C127 94.7998 126.747 95 126.422 95C126.025 95 125.917 94.8749 126.061 94.5999Z" fill="white"/>
<path d="M111 93.7779C111 93.1079 111.488 92 111.766 92C112.254 92 111.905 93.8655 111.395 93.982C111.186 94.0403 111 93.9531 111 93.7779Z" fill="white"/>
<path d="M117.8 93.6762L117 93.4057L117.72 93.1352C118.467 92.8263 119 93.058 119 93.7151C119 94.1012 118.974 94.1012 117.8 93.6762Z" fill="white"/>
<path d="M117 92.5753C117 91.896 117.417 91.7967 117.798 92.3931C118.052 92.7906 118.07 92.8735 117.834 92.8735C117.689 92.8735 117.453 92.9233 117.29 92.9728C117.073 93.0557 117 92.9564 117 92.5753Z" fill="white"/>
<path d="M121.242 92.7333C119.879 92.1859 119 90.7353 119 89.0109C119 87.7791 119.121 87.4781 119.939 86.7937C120.454 86.3557 120.97 86 121.121 86C121.788 86 124.242 88.1077 125.061 89.4213L126 90.927L125 91.8848C123.848 92.9796 122.576 93.2807 121.242 92.7333Z" fill="white"/>
<path d="M112.053 91.6073C112.116 91.3795 112.179 91.1517 112.179 91.1011C112.179 91.0506 112.367 91 112.597 91C113.12 91 113.141 91.405 112.618 91.7594C112.053 92.1134 111.907 92.0883 112.053 91.6073Z" fill="white"/>
<path d="M113.861 90.9563C112.997 90.885 112.734 90.5747 113.298 90.3599C113.448 90.2882 114.124 90.1687 114.799 90.0733C115.813 89.9302 116 89.9779 116 90.3836C116 90.885 115.212 91.0998 113.861 90.9563Z" fill="white"/>
<path d="M116 90.4407C116 90.1358 116.037 89.9578 116.11 90.0086C116.146 90.0594 116.44 90.3135 116.696 90.5679C117.135 90.924 117.099 91 116.586 91C116.22 91 116 90.7968 116 90.4407Z" fill="white"/>
<path d="M113.024 89.7407C112.72 89.2513 115.421 88.713 115.877 89.1778C116.22 89.5694 115.877 89.7407 114.432 89.9367C113.557 90.0588 113.176 90.0099 113.024 89.7407Z" fill="white"/>
<path d="M114.035 88.7332C114.216 88.0755 114.744 87 114.879 87C115.03 87 115.045 88.4041 114.894 88.5837C114.819 88.6434 114.578 88.7929 114.352 88.9123C114.02 89.0617 113.945 89.0317 114.035 88.7332Z" fill="white"/>
<path d="M116.127 87.6004C115.875 86.6299 115.99 86.2088 116.54 86.0795C117.113 85.9176 117.113 85.9176 116.746 86.9212C116.288 88.2155 116.311 88.2155 116.127 87.6004Z" fill="white"/>
<path d="M116 85.9126C116 85.8767 116.497 85.6273 117.118 85.3776C117.863 85.0567 118.385 84.9498 118.758 85.0211C119.205 85.128 119.08 85.1992 117.987 85.5737C116.77 85.9659 116 86.1087 116 85.9126Z" fill="white"/>
<path d="M131.623 60.9716C130.809 59.8571 129.089 58.057 127.852 56.9713C126.615 55.8856 125.801 55 126.042 55C126.706 55 131.774 56.3141 133.041 56.8284C134.097 57.2568 134.127 57.3144 133.856 58.2C133.705 58.7143 133.584 60.0001 133.584 61.057C133.584 62.1427 133.494 63 133.373 63C133.222 63 132.468 62.0856 131.623 60.9716Z" fill="white"/>
<path d="M73.6661 146.417C72.4687 145.855 72.2059 145.534 70.6875 142.78C68.4977 138.877 68.4389 137.968 70.5124 140.187C71.3298 141.069 73.2282 142.887 74.7173 144.224C77.2576 146.47 77.3743 146.631 76.5275 146.524C75.9146 146.443 75.6808 146.497 75.8269 146.711C76.1774 147.192 75.0674 147.059 73.6661 146.417Z" fill="white"/>
<path fill-rule="evenodd" clip-rule="evenodd" d="M121.087 198.296C120.851 197.711 121.114 197.037 121.675 196.791L122.289 196.519C128.254 193.859 131.677 192.261 134.003 189.723C136.33 187.185 136.608 183.458 137.045 181.19C137.165 180.568 138.517 181.661 139.114 181.786C139.711 181.911 140.098 182.517 139.978 183.14C139.453 185.866 138.038 188.466 135.759 190.934C133.489 193.393 129.093 196.03 122.531 198.91C121.97 199.156 121.323 198.881 121.087 198.296Z" fill="#212121"/>
<path fill-rule="evenodd" clip-rule="evenodd" d="M147.822 85.155C148.335 84.8442 148.999 85.0156 149.304 85.5369C152.362 90.7581 154 96.7269 154 102.937C154 121.749 138.995 137 120.485 137C115.567 137 110.797 135.922 106.428 133.867C105.886 133.613 103.839 131.584 105.901 132.409C107.963 133.234 115.94 135.086 120.543 135.086C137.858 135.086 150.108 120.535 150.108 102.937C150.108 97.1251 147.822 91.9672 147.446 86.6612C147.403 86.0459 147.309 85.4653 147.822 85.155Z" fill="#212121"/>
<path fill-rule="evenodd" clip-rule="evenodd" d="M40.2507 168.048C40.6335 167.609 41.316 166.72 41.7755 167.086C43.6601 168.589 45.6716 170.33 47.823 170.666C50.0615 171.016 52.7174 171.016 55.7869 170.66C56.3806 170.591 56.9202 170.996 56.992 171.564C57.0639 172.133 56.6408 172.649 56.0471 172.718C52.7875 173.095 49.9311 173.095 47.474 172.712C44.9298 172.314 42.564 171.241 40.3897 169.508C39.9302 169.142 39.8683 168.488 40.2507 168.048Z" fill="#212121"/>
<path d="M63.3731 129.757C61.9712 128.627 58.9716 125.294 56.7007 122.356C55.5233 120.802 54.2057 117.638 53.4205 114.446C53.0561 113.005 52.6917 111.706 52.6075 111.536C52.4954 111.395 52.0468 109.389 51.5982 107.073C50.9255 103.796 51.0675 102.74 50.4768 98.8202C50.2267 97.1603 50 95.8401 50 95.8401L50.7292 94.897C51.1496 94.3321 51.6816 93.3969 51.8783 92.863C52.7755 90.4304 59.3642 82.806 59.5605 83.0038C59.6165 83.0602 59.392 84.3879 58.9994 85.9419C58.635 87.4954 58.1864 89.8401 57.9901 91.1678C57.7099 93.3715 57.5979 93.6258 56.7285 94.3601C55.6353 95.2926 53.5607 98.2867 53.5607 98.9086C53.5607 99.7558 54.8224 99.1908 56.14 97.8067L57.4854 96.3941V97.948C57.4854 98.965 57.2896 99.8971 56.9248 100.631C56.2238 102.016 56.2238 103.485 56.897 104.615C57.2331 105.18 57.5419 106.536 57.7377 108.146C58.6072 115.434 60.4573 121.763 63.6254 128.119C64.4106 129.701 65.0273 131 64.9991 131C64.943 131 64.2143 130.435 63.3731 129.757Z" fill="white"/>
<path fill-rule="evenodd" clip-rule="evenodd" d="M180 147.312L182.059 148.207C182.486 148.399 187.195 150.612 192.852 153.271C201.972 157.557 213.555 163 213.625 163C213.74 163 214.276 161.787 214.397 160.371C214.683 157.323 215.741 153.184 216.971 150.304C217.542 149.018 218 147.41 218 147.27C218 147.206 217.535 147.023 216.774 146.723C215.868 146.365 214.543 145.842 213.082 145.158C205.877 141.775 191.78 134.867 190.036 133.833C188.321 132.854 187.977 132.77 187.977 133.413C187.977 134.252 186.234 138.139 184.889 140.237C184.175 141.383 182.774 143.453 181.773 144.823L180 147.312ZM213.139 157.966C213.959 158.431 212.539 159.113 212.196 159.225C210.175 159.393 207.797 159.021 205.848 157.91C204.829 157.204 196.806 152.844 191.484 149.952C189.051 148.631 187.182 147.615 186.805 147.396C185.604 146.697 184.461 145.942 184.26 145.718C183.66 144.963 184.232 144.627 185.919 144.767C186.933 144.851 211.368 156.963 213.139 157.966Z" fill="white"/>
<path d="M159.944 149.548C159.193 149.295 158.385 148.733 157.866 148.086L157 147.046L160.059 144.094C164.762 139.596 168.225 134.679 171.342 129.197C172.381 127.37 175.468 120 175.843 119.184C176.421 118.004 176.854 117.554 178.094 116.879C179.566 116.036 181.24 115.754 181.961 116.232C183.346 117.132 183.346 119.972 181.961 124.863C180.432 130.233 178.383 134.085 174.141 139.624C173.477 140.467 172.236 142.126 171.342 143.279C168.947 146.371 167.389 147.861 165.282 149.014C163.204 150.138 161.992 150.279 159.944 149.548Z" fill="white"/>
<path d="M170.606 149.503L170 148.903C170 148.903 180.058 136.238 181.859 131.571C183.235 128.01 184.044 127 185.136 127C185.747 127 186.246 127.138 186.476 127.482C186.88 128.082 187.27 128.826 186.75 131.371C185.884 135.489 184.557 138.206 180.575 144.069C179.652 145.414 178.469 146.901 177.95 147.416C176.737 148.531 174.011 149.675 172.424 149.933C171.414 150.075 171.125 150.018 170.606 149.503Z" fill="white"/>
<path fill-rule="evenodd" clip-rule="evenodd" d="M187.009 136.174C187.585 134.909 187.996 133.805 187.996 133.405C187.996 132.774 188.338 132.857 190.053 133.817C191.796 134.832 205.884 141.608 213.085 144.927C215.771 146.161 218 146.861 218 146.999C218 147.135 186.398 137.516 187.009 136.174Z" fill="#212121"/>
<path fill-rule="evenodd" clip-rule="evenodd" d="M90.6926 137.803C87.1133 135.451 81.7021 129.925 79.0814 125.986C75.3331 120.319 72.853 114.255 71.6412 107.737C70.7676 103.004 70.796 95.722 71.6695 91.4996C72.5715 87.192 73.7266 83.9051 75.7841 79.7393C78.1795 74.9221 80.7159 71.3801 84.5205 67.5545C88.2514 63.8031 71.6695 79.317 75.7841 107.075C79.0814 130.335 93.2522 139.499 90.6926 137.803Z" fill="#212121"/>
</svg>
