<svg width="97" height="50" viewBox="0 0 97 50" fill="none" xmlns="http://www.w3.org/2000/svg">
<path d="M90.7107 17.8198C90.7967 17.9619 90.8152 18.1344 90.8198 18.301C90.8634 19.8205 89.8654 21.3149 88.4457 21.8562C88.1119 21.9838 87.7464 22.0704 87.486 22.3142C87.2256 22.5588 87.141 23.0386 87.4272 23.2515C87.6168 23.3923 87.8792 23.3605 88.1126 23.3222C88.9645 23.1814 89.8171 23.0406 90.6691 22.8998C90.8396 23.6778 90.3836 24.5456 89.646 24.8457C89.3373 24.9713 88.9936 25.0063 88.6988 25.1623C88.404 25.3182 88.1635 25.6686 88.2917 25.9766C88.408 26.2568 88.792 26.424 88.7649 26.7267C88.7391 27.0195 88.369 27.1107 88.0934 27.2105C86.6677 27.7248 86.7213 29.7955 85.7589 30.966C85.1343 31.7255 84.131 32.0368 83.1865 32.3111C82.3716 32.5477 81.5183 32.7863 80.6855 32.6244C79.3193 32.3593 78.3094 30.8907 78.5513 29.5206C78.7925 28.1524 80.0087 27.2112 81.0748 26.3209C83.3088 24.4557 85.0967 22.7227 85.6155 19.8443C85.7887 18.8839 86.0682 18.2355 86.9361 17.6975C87.8079 17.1569 90.03 16.6929 90.7107 17.8198Z" fill="#F44E4E"/>
<path d="M77.819 28.3038C78.4694 27.4578 79.1204 26.6118 79.7708 25.7658C81.6942 23.2654 83.6446 20.7168 84.7524 17.763C85.1906 16.5952 85.4933 15.3506 85.3915 14.108C85.371 13.8522 85.3214 13.5759 85.1311 13.4041C84.8072 13.112 84.2956 13.2838 83.909 13.4841C82.7477 14.0855 81.6591 14.8265 80.6743 15.687C80.6433 12.9599 83.295 10.8958 83.7682 8.20972C83.8449 7.77415 83.8548 7.29695 83.6215 6.92153C83.4714 6.68029 83.2328 6.50315 82.9751 6.38418C82.098 5.97836 81.0312 6.21961 80.2255 6.75365C79.4205 7.2877 78.8223 8.07422 78.2414 8.84621C79.0517 7.81579 79.5613 6.5514 79.6921 5.24669C79.7463 4.70604 79.7179 4.10722 79.359 3.69875C78.751 3.0074 77.5599 3.29227 76.9109 3.94661C75.6597 5.2077 75.7132 7.21565 75.7562 8.99162C75.7992 10.7676 75.5963 12.839 74.1078 13.8093C73.9294 13.9256 73.7284 14.03 73.6247 14.2164C73.4224 14.5793 73.7073 15.0399 74.0655 15.2508C74.4237 15.4616 74.8534 15.531 75.2043 15.7531C75.9915 16.2508 76.1488 17.3348 76.0629 18.2621C75.977 19.1894 75.7318 20.1451 76.0133 21.0334C76.363 22.1379 76.437 23.5483 76.6941 24.6779C76.8104 25.1908 77.7648 25.0811 77.784 25.6065C77.8038 26.132 77.9453 26.7004 78.3656 27.0163C78.7867 27.3316 79.5322 27.204 79.6604 26.6938" fill="#A50017"/>
<path d="M92.9503 46.0519C94.1255 45.9501 95.3423 45.7955 96.339 45.1649C96.7091 44.9309 97.0726 44.4762 96.8526 44.0975C96.7653 43.9474 96.606 43.8569 96.4514 43.7789C94.8565 42.9712 92.9735 42.7478 91.2338 43.1609C90.5418 43.3248 89.8055 43.5839 89.1439 43.3235C90.6383 42.4821 92.1327 41.6414 93.6271 40.8C93.9193 40.6354 94.2233 40.4603 94.4051 40.1787C94.5868 39.8972 94.5994 39.4755 94.3403 39.262C94.2266 39.1681 94.0786 39.1272 93.9331 39.1007C93.0336 38.9355 92.0594 39.2567 91.4334 39.9236C92.3733 38.7114 92.9999 37.258 93.2352 35.7418C93.2689 35.5237 93.2907 35.2857 93.1764 35.0974C93.0726 34.9268 92.877 34.8356 92.6859 34.7788C92.0184 34.5812 91.2616 34.7127 90.6991 35.1238C90.0435 35.6036 89.6971 36.3849 89.2517 37.0643C88.8055 37.7431 88.1162 38.3928 87.3065 38.3281C88.1631 37.0432 88.596 35.4814 88.5226 33.9387C88.4969 33.3981 88.401 32.8363 88.0791 32.4014C87.6779 31.86 86.9674 31.6003 86.2952 31.6433C85.6231 31.6862 84.9899 32.0002 84.4631 32.4199C82.8867 33.6776 82.237 35.9771 82.9231 37.8733C83.0936 38.3453 83.3408 38.8529 83.167 39.3241C83.0447 39.6546 82.7413 39.8793 82.4452 40.071C80.4578 41.3592 77.9885 43.4597 80.5357 45.7287C81.2251 46.3427 81.9403 46.3685 82.8239 46.344C84.2556 46.3044 85.6839 46.315 87.1168 46.3024C89.062 46.2865 91.0098 46.2204 92.9503 46.0519Z" fill="#FAE026"/>
<path d="M75.8689 27.3595C75.859 27.3595 75.8491 27.3582 75.8385 27.3555C75.7717 27.339 75.7321 27.2716 75.7486 27.2049C79.637 11.8167 79.713 11.742 79.7454 11.7096C79.7943 11.6614 79.8723 11.662 79.9205 11.7109C79.9595 11.7506 79.9668 11.8101 79.9417 11.8563C79.7989 12.2377 77.2972 22.0885 75.9885 27.2657C75.9747 27.3218 75.9238 27.3595 75.8689 27.3595Z" fill="white"/>
<path d="M77.542 20.7611C77.4951 20.7611 77.4508 20.7346 77.4297 20.6897C77.4006 20.6276 77.4277 20.5542 77.4898 20.5251L82.2969 18.2905C82.3583 18.262 82.433 18.2885 82.4614 18.3506C82.4905 18.4127 82.4634 18.4861 82.4013 18.5152L77.5942 20.7498C77.5777 20.7578 77.5599 20.7611 77.542 20.7611Z" fill="white"/>
<path d="M84.028 28.2676C84.0122 28.2676 83.9963 28.2643 83.9805 28.2584C83.917 28.2319 83.8873 28.1599 83.9137 28.0965L87.0228 20.5901C87.0492 20.5266 87.1219 20.4969 87.1847 20.5233C87.2482 20.5498 87.2779 20.6218 87.2515 20.6853L84.1424 28.1916C84.1226 28.2386 84.077 28.2676 84.028 28.2676Z" fill="white"/>
<path d="M84.0281 45.7877C83.997 45.7877 83.966 45.7764 83.9422 45.7533C83.8926 45.7057 83.8913 45.6277 83.9389 45.5781L89.1531 40.1531C89.2007 40.1035 89.2793 40.1029 89.3282 40.1498C89.3778 40.1974 89.3791 40.2754 89.3315 40.3249L84.1173 45.75C84.0935 45.7751 84.0605 45.7877 84.0281 45.7877Z" fill="white"/>
<path d="M90.6039 44.9447C90.594 44.9447 90.5834 44.9433 90.5728 44.9407L86.0328 43.7576C85.9667 43.7404 85.927 43.673 85.9442 43.6062C85.9614 43.5402 86.0288 43.5005 86.0949 43.5177L90.6349 44.7008C90.701 44.718 90.7407 44.7854 90.7235 44.8521C90.709 44.9077 90.6594 44.9447 90.6039 44.9447Z" fill="white"/>
<path d="M54.6352 44.0904H38.6819C38.1459 44.0904 37.707 43.6516 37.707 43.1155C37.707 42.5795 38.1459 42.1406 38.6819 42.1406H54.6359C55.1719 42.1406 55.6108 42.5795 55.6108 43.1155C55.6108 43.6516 55.1719 44.0904 54.6352 44.0904Z" fill="#D7384E"/>
<path d="M49.6482 44.0898H43.6699C43.2516 44.0898 42.9092 43.7475 42.9092 43.3291V36.1981C42.9092 35.7797 43.2516 35.4374 43.6699 35.4374H49.6482C50.0666 35.4374 50.4089 35.7797 50.4089 36.1981V43.3291C50.4089 43.7475 50.0666 44.0898 49.6482 44.0898Z" fill="#D7384E"/>
<path d="M74.5262 38.0521H18.7918C17.6398 38.0521 16.6973 37.1095 16.6973 35.9575V2.09454C16.6973 0.942511 17.6398 0 18.7918 0H74.5262C75.6782 0 76.6207 0.942511 76.6207 2.09454V35.9575C76.6214 37.1095 75.6782 38.0521 74.5262 38.0521Z" fill="#ED6807"/>
<path d="M19.5598 0.884766C18.5228 0.884766 17.6748 1.73276 17.6748 2.76979V14.9458C23.6088 10.1817 29.628 5.50346 35.7074 0.884766L19.5598 0.884766Z" fill="white"/>
<path d="M73.5285 0.884766H68.1431H35.7065C29.6271 5.50346 23.6078 10.1817 17.6738 14.9458V27.7291V32.3313C17.6738 33.3683 18.5225 34.2163 19.5588 34.2163H73.5278C74.5649 34.2163 75.4129 33.3677 75.4129 32.3313V2.76979C75.4135 1.73276 74.5649 0.884766 73.5285 0.884766Z" fill="#FFF3E0"/>
<path d="M46.5443 36.4088C46.8319 36.4088 47.0651 36.1757 47.0651 35.888C47.0651 35.6004 46.8319 35.3672 46.5443 35.3672C46.2566 35.3672 46.0234 35.6004 46.0234 35.888C46.0234 36.1757 46.2566 36.4088 46.5443 36.4088Z" fill="#C90000"/>
<path d="M1.0461 45.1859C0.944972 45.096 0.839221 44.9909 0.826002 44.856C0.810139 44.6921 0.939024 44.5487 1.07782 44.4595C1.4387 44.2262 1.89211 44.2077 2.30785 44.0979C2.72358 43.9882 3.16311 43.7067 3.19219 43.2784C3.25102 42.4079 1.75595 41.6703 1.20208 41.2129C0.798903 40.8798 0.384489 40.5321 0.154479 40.0629C-0.0755304 39.5936 -0.0689209 38.9657 0.312446 38.6081C0.785023 38.1646 2.791 38.5493 3.31579 38.1679C3.99524 37.6742 -0.48664 36.392 3.24242 35.8658C2.42087 33.6675 4.84787 34.4084 5.39381 34.9597C5.74411 35.3133 6.68001 36.4448 7.12219 36.2155C7.32642 36.1097 8.3489 36.3728 8.49101 36.191C9.07198 35.4488 7.84262 36.1652 8.65492 35.696C9.5862 37.4852 8.22068 39.9366 8.10039 41.7972C8.04024 42.7311 9.15989 42.8415 9.19425 43.856C9.21474 44.4548 8.96689 45.0259 8.72432 45.5738C8.40641 46.2916 8.03627 47.0649 7.32972 47.408C6.73553 47.6968 6.0303 47.6122 5.38786 47.4575C3.78308 47.0709 2.27744 46.283 1.0461 45.1859Z" fill="#A50017"/>
<path d="M7.84535 48.5342C7.7938 48.5342 7.74621 48.5018 7.72836 48.4509L4.26103 38.3827C4.23856 38.3179 4.27293 38.2479 4.3377 38.2254C4.40248 38.2029 4.47254 38.2373 4.49501 38.3021L7.96234 48.3703C7.98481 48.435 7.95044 48.5051 7.88567 48.5276C7.87245 48.5322 7.85857 48.5342 7.84535 48.5342Z" fill="white"/>
<path d="M5.49056 41.6958C5.4747 41.6958 5.45817 41.6925 5.44231 41.6859C2.51035 40.4486 2.51233 40.3838 2.51696 40.2768C2.51894 40.2252 2.55595 40.1763 2.60552 40.1604C2.6617 40.1419 2.72185 40.1657 2.75093 40.2146C2.98292 40.3614 4.56127 41.0454 5.53881 41.4585C5.6016 41.485 5.63134 41.5577 5.6049 41.6205C5.58441 41.6674 5.53881 41.6958 5.49056 41.6958Z" fill="white"/>
<path d="M7.17784 46.5966C7.16396 46.5966 7.15008 46.594 7.1362 46.5894C7.1091 46.5795 3.30469 45.2391 3.30469 45.2391L3.38664 45.0057C7.24526 46.3653 7.24525 46.3653 7.26508 46.3858C7.30606 46.4268 7.31333 46.4902 7.28227 46.5398C7.2598 46.5755 7.21948 46.5966 7.17784 46.5966Z" fill="white"/>
<path d="M30.0022 43.2186C30.2824 43.0117 30.5884 42.7586 30.6083 42.4109C30.6294 42.0401 30.2771 41.7209 29.9077 41.6859C29.5375 41.6508 29.1773 41.8412 28.909 42.099C28.6135 40.8974 30.8336 40.2523 30.6473 39.0295C30.063 38.8266 29.3591 39.0461 28.9936 39.5457C28.595 38.6145 29.2137 37.5794 29.8449 36.7869C30.4761 35.9945 31.1932 35.0797 30.9989 34.0856C30.4364 33.9958 29.8369 34.1696 29.41 34.547C29.1383 34.0989 29.0901 33.5219 29.2831 33.0347C29.3994 32.7406 29.6023 32.4538 29.5554 32.1411C29.4595 31.4994 28.5481 31.4703 27.9156 31.6157C28.0088 30.1338 26.7516 28.6989 25.2705 28.5965C24.6148 28.5509 23.8025 28.9217 23.8296 29.5786C23.8388 29.81 23.9545 30.0208 24.053 30.2297C24.4978 31.1762 24.626 32.2687 24.4125 33.2925C24.2228 34.2026 23.7906 35.2165 24.3008 35.9938C24.4654 36.245 24.7139 36.434 24.8732 36.6891C25.0603 36.9879 25.1092 37.3494 25.1541 37.6984C25.3874 39.516 25.1521 42.8789 26.359 44.3766C27.5401 45.8426 30.1211 43.9338 31.2236 43.1162C32.9698 41.822 34.3241 39.7995 34.2488 37.6277C34.2441 37.4975 34.2283 37.354 34.1318 37.2668C34.0254 37.1703 33.8628 37.1795 33.72 37.1947C33.0802 37.2628 32.4397 37.3302 31.7999 37.3983C32.1165 35.7446 34.0326 34.6045 33.9586 32.9224C33.5019 32.8728 33.0445 32.8232 32.5878 32.7737C32.9626 32.1643 33.3446 31.5337 33.451 30.8265C33.5574 30.1193 33.3168 29.309 32.6949 28.9567C31.7854 28.4418 30.6823 29.1087 29.8574 29.7472C31.6413 28.3493 33.1212 19.0141 28.9903 21.0676C28.5362 21.2937 28.0074 21.4728 27.5296 21.3042C26.3782 20.8984 27.4291 19.0504 26.8283 18.2156C26.6155 17.9195 26.2731 17.7384 25.9215 17.6426C25.1052 17.4192 24.1832 17.6287 23.5441 18.1833C22.9049 18.7378 22.5665 19.6202 22.6716 20.4602C22.7496 21.0815 23.0483 21.6499 23.3226 22.213C24.209 24.032 16.6801 19.1502 19.5361 25.8721C18.4012 25.1027 22.8494 26.6024 21.4958 26.8205C20.1422 27.0386 18.8916 28.2224 18.9624 29.5919C19.0285 30.8569 20.0933 31.8041 21.0364 32.6494C21.9803 33.4948 22.9565 34.5992 22.7648 35.8517C22.6544 36.5708 22.1713 37.1703 21.895 37.8438C21.6181 38.5166 21.6346 39.4453 22.2691 39.8015C22.6399 40.0097 23.1343 39.9634 23.4542 40.2437C23.7509 40.5034 23.7866 40.9417 23.8421 41.3323C24.0332 42.678 24.8957 44.524 26.1522 45.2134C27.3524 45.8677 28.9539 43.9939 30.0022 43.2186Z" fill="#FAE026"/>
<path d="M29.5992 45.5106C29.541 45.5106 29.4888 45.469 29.4776 45.4102L26.4465 29.4066C26.4339 29.3392 26.4782 29.2745 26.5449 29.2619C26.6137 29.2493 26.6771 29.2936 26.6897 29.3604L29.7208 45.3639C29.7334 45.4313 29.6891 45.4961 29.6223 45.5086C29.6144 45.51 29.6065 45.5106 29.5992 45.5106Z" fill="white"/>
<path d="M28.1122 37.6616C28.0897 37.6616 28.0673 37.6557 28.0468 37.6431C27.9886 37.6068 27.9708 37.5308 28.0071 37.4726L30.8142 32.9451C30.8505 32.8869 30.9265 32.8691 30.9847 32.9054C31.0429 32.9418 31.0607 33.0178 31.0244 33.076L28.2173 37.6035C28.1935 37.6405 28.1532 37.6616 28.1122 37.6616Z" fill="white"/>
<path d="M25.6982 28.7827C25.6757 28.7827 25.6532 28.7768 25.6327 28.7642C25.5746 28.7279 25.5567 28.6518 25.5931 28.5937L28.4001 24.0662C28.4365 24.008 28.5125 23.9902 28.5706 24.0265C28.6288 24.0629 28.6466 24.1389 28.6103 24.1971L25.8032 28.7246C25.7801 28.7622 25.7398 28.7827 25.6982 28.7827Z" fill="white"/>
<path d="M49.1829 36.2444C49.323 36.1493 49.477 36.0766 49.6409 36.0336C50.3243 35.8545 51.0342 36.2107 51.5894 36.6469C52.1453 37.0832 52.6423 37.6185 53.2933 37.8928C53.596 38.0204 54.0653 38.0006 54.1169 37.676C54.1407 37.5253 54.0521 37.3819 53.9642 37.257C53.0825 36.0025 51.8875 35.064 50.8002 34.0018C50.5094 33.7176 50.1935 33.325 50.3508 32.9503C50.5193 32.5478 51.1076 32.5319 51.4903 32.7408C51.8729 32.9496 52.1677 33.3052 52.5696 33.4737C52.6747 33.518 52.7903 33.5484 52.902 33.526C53.1135 33.4837 53.2484 33.2576 53.259 33.0421C53.3244 31.7163 51.6595 30.8002 51.0838 29.7619C50.5927 28.8755 50.594 27.8048 50.6773 26.7949C50.7427 26.0064 50.8729 25.1696 51.3964 24.5767C51.5147 24.4426 51.6647 24.3183 51.8425 24.3057C52.5207 24.2555 52.6555 25.8279 53.0646 26.2384C53.4367 26.6111 53.9496 26.8557 54.2067 27.315C54.5313 27.8947 54.3455 28.6171 54.4414 29.2747C54.5941 30.3263 55.5571 30.5127 55.8941 31.2893C55.9034 30.6885 55.9054 30.0798 55.91 29.4757C55.9113 29.2833 55.9226 29.0672 56.0647 28.937C56.374 28.6528 56.8453 29.089 56.9338 29.4995C57.0508 30.0395 56.9437 30.6006 56.9503 31.1532C56.957 31.7057 57.1222 32.3191 57.5987 32.5993C58.1242 32.908 58.7851 32.6912 59.3674 32.5114C59.9497 32.3316 60.6754 32.2318 61.0859 32.6826C61.2472 32.8591 61.3278 33.095 61.3734 33.3297C61.7581 35.3184 59.8849 37.2986 60.4606 39.2405C60.9768 40.9814 62.1057 41.9894 60.306 43.4329C59.5684 44.0244 58.7514 44.31 57.8049 44.0945C57.0805 43.9299 56.4256 43.5525 55.7712 43.2016C54.4196 42.4778 52.8974 42.1685 51.4698 41.6146C50.4737 41.228 49.5015 40.6708 48.8848 39.7977C48.2681 38.9246 48.0857 37.6846 48.6627 36.7851C48.7982 36.5736 48.9754 36.3852 49.1829 36.2444Z" fill="#F44E4E"/>
<path d="M59.1397 44.187C59.0908 44.187 59.0445 44.1579 59.0253 44.1103L52.8871 29.1392C52.8613 29.0757 52.8917 29.0037 52.9545 28.9779C53.0173 28.9521 53.0907 28.9819 53.1158 29.0453L59.254 44.0164C59.2798 44.0799 59.2494 44.1519 59.1866 44.1777C59.1714 44.1837 59.1555 44.187 59.1397 44.187Z" fill="white"/>
<path d="M57.9163 41.2017C57.9078 41.2017 57.8992 41.201 57.8899 41.199L51.7795 39.885C51.7127 39.8705 51.6704 39.8051 51.6843 39.7383C51.6988 39.6716 51.7643 39.6293 51.8317 39.6431L57.9421 40.9571C58.0089 40.9716 58.0512 41.0371 58.0373 41.1038C58.0247 41.162 57.9732 41.2017 57.9163 41.2017Z" fill="white"/>
<path d="M55.6115 35.5802C55.5983 35.5802 55.5837 35.5782 55.5705 35.5729L53.2089 34.7402C53.1442 34.7177 53.1105 34.647 53.1329 34.5822C53.1554 34.5181 53.2268 34.4844 53.2909 34.5068L55.6525 35.3396C55.7172 35.3621 55.7509 35.4328 55.7285 35.4976C55.7106 35.5478 55.6624 35.5802 55.6115 35.5802Z" fill="white"/>
<path d="M56.3115 37.2892C56.3002 37.2892 56.2883 37.2878 56.2771 37.2839C56.211 37.2647 56.1733 37.196 56.1925 37.1305L57.1 34.0115C57.1191 33.9461 57.1872 33.9071 57.2533 33.9269C57.3194 33.9461 57.3571 34.0148 57.3379 34.0803L56.4304 37.1993C56.4146 37.2541 56.365 37.2892 56.3115 37.2892Z" fill="white"/>
<path d="M9.48468 30.812C9.41594 30.812 9.36108 30.7565 9.36108 30.6884V30.317C9.36108 30.2482 9.4166 30.1934 9.48468 30.1934C9.55276 30.1934 9.60828 30.2489 9.60828 30.317V30.6884C9.60828 30.7565 9.55342 30.812 9.48468 30.812Z" fill="#4B369D"/>
<path fill-rule="evenodd" clip-rule="evenodd" d="M13.1597 12.8548C13.1597 12.9229 13.2152 12.9777 13.2833 12.9777C13.2836 12.9777 13.2838 12.9777 13.2839 12.9777C13.2841 12.9776 13.2843 12.9774 13.2846 12.9771C13.5437 12.9744 13.7962 12.9738 14.0388 12.9738C14.1069 12.9738 14.1624 12.9189 14.1624 12.8502C14.1624 12.7821 14.1075 12.7266 14.0388 12.7266C13.7955 12.7266 13.5424 12.7279 13.2826 12.7299C13.2139 12.7305 13.1591 12.7867 13.1597 12.8548ZM15.5478 12.9831H15.5458C15.3197 12.9798 15.0666 12.9778 14.7916 12.9758C14.7229 12.9751 14.668 12.9196 14.6687 12.8516C14.6694 12.7835 14.7335 12.7346 14.793 12.7286C15.0679 12.7306 15.3224 12.7326 15.5491 12.7359C15.6172 12.7365 15.672 12.7927 15.6714 12.8615C15.6707 12.9289 15.6158 12.9831 15.5478 12.9831ZM11.6502 12.8811C11.6515 12.9486 11.707 13.0021 11.7738 13.0021C11.7751 13.0021 11.7758 13.0021 11.7778 13.0014C12.0309 12.9948 12.2827 12.9895 12.5312 12.9856C12.5993 12.9849 12.6542 12.9287 12.6529 12.86C12.6522 12.7919 12.6073 12.7404 12.5273 12.7384L12.509 12.7387C12.2651 12.7432 12.0188 12.7478 11.7712 12.7542C11.7024 12.7562 11.6482 12.8131 11.6502 12.8811ZM10.3319 13.3638C10.2916 13.3638 10.2513 13.3439 10.2275 13.3069C10.1905 13.2494 10.207 13.1728 10.2645 13.1357C10.4754 12.9996 10.7226 12.8985 10.9982 12.8357C11.0636 12.8192 11.131 12.8621 11.1462 12.9289C11.1614 12.9956 11.1198 13.0617 11.053 13.0769C10.8052 13.1331 10.5851 13.223 10.3987 13.3439C10.3782 13.3572 10.3551 13.3638 10.3319 13.3638ZM9.50108 14.5908C9.50967 14.5928 9.51827 14.5934 9.52686 14.5934C9.5837 14.5934 9.63525 14.5531 9.64847 14.4963C9.70069 14.2497 9.78859 14.029 9.90955 13.8393C9.94656 13.7811 9.92938 13.7051 9.87187 13.6681C9.81437 13.6311 9.7377 13.6483 9.70069 13.7058C9.56387 13.9199 9.46473 14.1684 9.40591 14.444C9.39137 14.5108 9.43433 14.5762 9.50108 14.5908ZM9.48417 16.0993C9.41543 16.0993 9.36057 16.0438 9.36057 15.9757V15.3505C9.35925 15.3478 9.3533 15.3015 9.34867 15.2295C9.34405 15.1614 9.39626 15.1026 9.46434 15.098C9.53176 15.094 9.59124 15.1456 9.59587 15.2136C9.59945 15.2684 9.60383 15.3058 9.60562 15.321L9.60644 15.3286L9.60777 15.9757C9.60777 16.0438 9.55291 16.0993 9.48417 16.0993ZM9.36108 17.4846C9.36108 17.5527 9.41594 17.6082 9.48468 17.6082C9.55342 17.6082 9.60828 17.5527 9.60828 17.484V16.7292C9.60828 16.6611 9.55276 16.6056 9.48468 16.6056C9.4166 16.6056 9.36108 16.6604 9.36108 16.7292V17.4846ZM9.48468 19.1173C9.41594 19.1173 9.36108 19.0618 9.36108 18.9937V18.2389C9.36108 18.1702 9.4166 18.1153 9.48468 18.1153C9.55276 18.1153 9.60828 18.1709 9.60828 18.2389V18.9937C9.60828 19.0618 9.55342 19.1173 9.48468 19.1173ZM9.36108 20.5035C9.36108 20.5716 9.41594 20.6271 9.48468 20.6271C9.55342 20.6271 9.60828 20.5716 9.60828 20.5035V19.7487C9.60828 19.6806 9.55276 19.6251 9.48468 19.6251C9.4166 19.6251 9.36108 19.68 9.36108 19.7487V20.5035ZM9.48468 22.1369C9.41594 22.1369 9.36108 22.0813 9.36108 22.0133V21.2585C9.36108 21.1897 9.4166 21.1349 9.48468 21.1349C9.55276 21.1349 9.60828 21.1904 9.60828 21.2585V22.0133C9.60828 22.0813 9.55342 22.1369 9.48468 22.1369ZM9.36108 23.523C9.36108 23.5911 9.41594 23.6466 9.48468 23.6466C9.55342 23.6466 9.60828 23.5911 9.60828 23.523V22.7682C9.60828 22.7002 9.55276 22.6446 9.48468 22.6446C9.4166 22.6446 9.36108 22.6995 9.36108 22.7682V23.523ZM9.48468 25.1571C9.41594 25.1571 9.36108 25.1015 9.36108 25.0335V24.278C9.36108 24.2093 9.4166 24.1544 9.48468 24.1544C9.55276 24.1544 9.60828 24.2099 9.60828 24.278V25.0328C9.60828 25.1015 9.55342 25.1571 9.48468 25.1571ZM9.36108 26.5426C9.36108 26.6106 9.41594 26.6662 9.48468 26.6662C9.55342 26.6662 9.60828 26.6106 9.60828 26.5426V25.7878C9.60828 25.7197 9.55276 25.6642 9.48468 25.6642C9.4166 25.6642 9.36108 25.719 9.36108 25.7878V26.5426ZM9.48468 28.1759C9.41594 28.1759 9.36108 28.1204 9.36108 28.0523V27.2975C9.36108 27.2288 9.4166 27.1739 9.48468 27.1739C9.55276 27.1739 9.60828 27.2294 9.60828 27.2975V28.0523C9.60828 28.1204 9.55342 28.1759 9.48468 28.1759ZM9.48468 29.6857C9.41594 29.6857 9.36108 29.6302 9.36108 29.5621V28.8073C9.36108 28.7386 9.4166 28.6837 9.48468 28.6837C9.55276 28.6837 9.60828 28.7392 9.60828 28.8073V29.5621C9.60828 29.6302 9.55342 29.6857 9.48468 29.6857Z" fill="#4B369D"/>
<path d="M16.6787 13.0047C16.6773 13.0047 16.6767 13.0047 16.6754 13.0047C16.6754 13.0047 16.5419 13.0014 16.3052 12.9961C16.2372 12.9948 16.1823 12.938 16.1836 12.8699C16.1849 12.8018 16.2484 12.7536 16.3099 12.7483C16.5471 12.7529 16.6813 12.7569 16.6813 12.7569C16.7494 12.7589 16.8036 12.8157 16.8016 12.8838C16.8003 12.9512 16.7454 13.0047 16.6787 13.0047Z" fill="#4B369D"/>
<path d="M47.2948 44.4619C47.2274 44.4619 47.1725 44.4083 47.1712 44.3409C47.1659 44.1063 47.1619 43.9714 47.1619 43.9714C47.1599 43.9034 47.2135 43.8459 47.2822 43.8439C47.3457 43.8445 47.4078 43.8954 47.4098 43.9642C47.4098 43.9642 47.4137 44.0997 47.419 44.3363C47.4203 44.4044 47.3662 44.4612 47.2981 44.4625C47.2968 44.4619 47.2954 44.4619 47.2948 44.4619Z" fill="#4B369D"/>
<path fill-rule="evenodd" clip-rule="evenodd" d="M47.1883 45.81C47.1883 45.8787 47.2438 45.9336 47.3119 45.9336C47.3807 45.9336 47.4362 45.8774 47.4362 45.8086C47.4349 45.5416 47.4329 45.2938 47.4302 45.0717C47.4289 45.0036 47.3635 44.9454 47.3047 44.9494C47.2366 44.9507 47.1817 45.0069 47.1824 45.075C47.185 45.2964 47.1877 45.5436 47.1883 45.81ZM47.3029 47.4048H47.301C47.2329 47.4035 47.178 47.3473 47.1793 47.2793C47.1833 47.0288 47.186 46.7822 47.1873 46.545C47.1879 46.4769 47.2428 46.422 47.3109 46.422H47.3115C47.3803 46.4227 47.4351 46.4782 47.4345 46.5463C47.4332 46.7849 47.4305 47.0314 47.4265 47.2832C47.4259 47.3507 47.371 47.4048 47.3029 47.4048ZM47.136 48.8576C47.1485 48.8622 47.1618 48.8642 47.175 48.8642C47.2265 48.8642 47.2748 48.8311 47.2926 48.7789C47.362 48.5714 47.401 48.3368 47.409 48.081L47.4109 48.0202C47.4129 47.9514 47.3587 47.8946 47.2906 47.8926C47.2272 47.8913 47.1651 47.9448 47.1631 48.0129L47.1611 48.0737C47.1545 48.305 47.1195 48.5159 47.058 48.7009C47.0362 48.7657 47.0712 48.8358 47.136 48.8576ZM19.2054 49.2477C19.1565 49.2477 19.1103 49.2186 19.0911 49.171C19.0647 49.1063 19.0461 49.0375 19.0362 48.9661L19.0349 48.3951C19.0349 48.3263 19.0904 48.2715 19.1585 48.2715C19.2266 48.2715 19.2821 48.327 19.2821 48.3951V48.949C19.2881 48.9827 19.3006 49.0309 19.3191 49.0765C19.3449 49.14 19.3145 49.212 19.2517 49.2378C19.2372 49.2444 19.2213 49.2477 19.2054 49.2477ZM46.0568 49.7831C46.0753 49.834 46.1229 49.8657 46.1738 49.8657C46.187 49.8657 46.2009 49.863 46.2148 49.8584C46.4785 49.7652 46.7039 49.6277 46.8836 49.45C46.9319 49.4017 46.9325 49.3237 46.8843 49.2748C46.836 49.2266 46.758 49.2259 46.7091 49.2741C46.5551 49.4262 46.3615 49.5438 46.1321 49.6251C46.068 49.6476 46.0337 49.7183 46.0568 49.7831ZM20.4375 49.9366C20.4314 49.9366 20.4259 49.936 20.42 49.9354L20.4183 49.9352C20.1308 49.8903 19.8823 49.8189 19.6787 49.7244C19.6166 49.6953 19.5902 49.622 19.6186 49.5598C19.647 49.4977 19.7204 49.4713 19.7832 49.4997C19.9656 49.5843 20.1923 49.6484 20.4567 49.69C20.5241 49.7006 20.5703 49.7641 20.5598 49.8315C20.5499 49.8929 20.497 49.9366 20.4375 49.9366ZM21.1722 49.9874H21.9078C21.9766 49.9874 22.0314 49.9319 22.0314 49.8638C22.0314 49.7958 21.9766 49.7402 21.9078 49.7402H21.1722C21.1041 49.7402 21.0486 49.7951 21.0486 49.8638C21.0486 49.9319 21.1034 49.9874 21.1722 49.9874ZM23.3805 49.9874H22.6448C22.5761 49.9874 22.5212 49.9319 22.5212 49.8638C22.5212 49.7951 22.5768 49.7402 22.6448 49.7402H23.3805C23.4492 49.7402 23.5041 49.7958 23.5041 49.8638C23.5041 49.9319 23.4485 49.9874 23.3805 49.9874ZM24.1155 49.9874H24.8512C24.9193 49.9874 24.9748 49.9319 24.9748 49.8638C24.9748 49.7958 24.9199 49.7402 24.8512 49.7402H24.1155C24.0475 49.7402 23.9919 49.7951 23.9919 49.8638C23.9919 49.9319 24.0468 49.9874 24.1155 49.9874ZM26.3229 49.9874H25.5872C25.5185 49.9874 25.4636 49.9319 25.4636 49.8638C25.4636 49.7951 25.5191 49.7402 25.5872 49.7402H26.3229C26.3916 49.7402 26.4465 49.7958 26.4465 49.8638C26.4465 49.9319 26.3916 49.9874 26.3229 49.9874ZM27.0579 49.9874H27.7936C27.8623 49.9874 27.9178 49.9319 27.9172 49.8638C27.9172 49.7958 27.8623 49.7402 27.7936 49.7402H27.0579C26.9898 49.7402 26.9343 49.7951 26.9343 49.8638C26.9343 49.9319 26.9892 49.9874 27.0579 49.9874ZM29.2652 49.9874H28.5296C28.4609 49.9874 28.406 49.9319 28.406 49.8638C28.406 49.7951 28.4615 49.7402 28.5296 49.7402H29.2652C29.334 49.7402 29.3888 49.7958 29.3888 49.8638C29.3888 49.9319 29.3333 49.9874 29.2652 49.9874ZM30.0013 49.9874H30.7369C30.8057 49.9874 30.8605 49.9319 30.8605 49.8638C30.8605 49.7958 30.8057 49.7402 30.7369 49.7402H30.0013C29.9332 49.7402 29.8777 49.7951 29.8777 49.8638C29.8777 49.9319 29.9325 49.9874 30.0013 49.9874ZM32.2086 49.9874H31.473C31.4042 49.9874 31.3494 49.9319 31.3494 49.8638C31.3494 49.7951 31.4049 49.7402 31.473 49.7402H32.2086C32.2773 49.7402 32.3322 49.7958 32.3322 49.8638C32.3329 49.9319 32.2773 49.9874 32.2086 49.9874ZM32.9446 49.9874H33.6803C33.7484 49.9874 33.8039 49.9319 33.8039 49.8638C33.8039 49.7958 33.749 49.7402 33.6803 49.7402H32.9446C32.8766 49.7402 32.821 49.7951 32.821 49.8638C32.821 49.9319 32.8759 49.9874 32.9446 49.9874ZM35.151 49.9874H34.4153C34.3466 49.9874 34.2917 49.9319 34.2917 49.8638C34.2917 49.7951 34.3473 49.7402 34.4153 49.7402H35.151C35.2197 49.7402 35.2746 49.7958 35.2746 49.8638C35.2746 49.9319 35.2197 49.9874 35.151 49.9874ZM35.887 49.9874H36.6227C36.6914 49.9874 36.7469 49.9319 36.7463 49.8638C36.7463 49.7958 36.6914 49.7402 36.6227 49.7402H35.887C35.8189 49.7402 35.7634 49.7951 35.7634 49.8638C35.7634 49.9319 35.8183 49.9874 35.887 49.9874ZM38.0943 49.9874H37.3587C37.29 49.9874 37.2351 49.9319 37.2351 49.8638C37.2351 49.7951 37.2906 49.7402 37.3587 49.7402H38.0943C38.1631 49.7402 38.2179 49.7958 38.2179 49.8638C38.2179 49.9319 38.1624 49.9874 38.0943 49.9874ZM38.8304 49.9874H39.566C39.6341 49.9874 39.6896 49.9319 39.6896 49.8638C39.6896 49.7958 39.6348 49.7402 39.566 49.7402H38.8304C38.7623 49.7402 38.7068 49.7951 38.7068 49.8638C38.7068 49.9319 38.7616 49.9874 38.8304 49.9874ZM41.0367 49.9874H40.3011C40.2323 49.9874 40.1775 49.9319 40.1775 49.8638C40.1775 49.7951 40.233 49.7402 40.3011 49.7402H41.0367C41.1055 49.7402 41.1603 49.7958 41.1603 49.8638C41.161 49.9319 41.1055 49.9874 41.0367 49.9874ZM41.7728 49.9874H42.5084C42.5771 49.9874 42.6327 49.9319 42.632 49.8638C42.632 49.7958 42.5771 49.7402 42.5084 49.7402H41.7728C41.7047 49.7402 41.6492 49.7951 41.6492 49.8638C41.6492 49.9319 41.704 49.9874 41.7728 49.9874ZM43.9801 49.9874H43.2444C43.1757 49.9874 43.1208 49.9319 43.1208 49.8638C43.1208 49.7951 43.1764 49.7402 43.2444 49.7402H43.9801C44.0488 49.7402 44.1037 49.7958 44.1037 49.8638C44.1037 49.9319 44.0482 49.9874 43.9801 49.9874ZM45.3278 50.0013C45.1802 50.0013 45.0774 49.9901 45.0485 49.9869L45.0403 49.9861L44.7171 49.9874C44.6484 49.9874 44.5935 49.9319 44.5935 49.8638C44.5935 49.7951 44.649 49.7402 44.7171 49.7402H45.0575L45.0742 49.7418C45.1228 49.7466 45.2595 49.7601 45.4475 49.7521C45.5155 49.7501 45.5737 49.8024 45.5763 49.8704C45.5796 49.9385 45.5261 49.9967 45.458 49.9993C45.4111 50.0006 45.3675 50.0013 45.3278 50.0013Z" fill="#4B369D"/>
<path d="M19.1595 47.777C19.0907 47.777 19.0359 47.7215 19.0359 47.6534V47.2819C19.0359 47.2132 19.0914 47.1583 19.1595 47.1583C19.2276 47.1583 19.2831 47.2138 19.2831 47.2819V47.6534C19.2837 47.7215 19.2282 47.777 19.1595 47.777Z" fill="#4B369D"/>
<path d="M31.2994 15.8013H17.0296C15.4069 15.8013 14.0791 14.4735 14.0791 12.8509C14.0791 11.2282 15.4069 9.90039 17.0296 9.90039H31.2994C32.9221 9.90039 34.2499 11.2282 34.2499 12.8509C34.2506 14.4735 32.9227 15.8013 31.2994 15.8013Z" fill="#D9001E"/>
<path d="M30.918 11.5506C30.9775 11.5446 31.0376 11.542 31.0971 11.5433C31.8876 11.5598 32.5181 12.2161 32.5016 13.0073C32.4851 13.7978 31.8288 14.4277 31.0376 14.4118L31.0449 14.0681C31.6463 14.0807 32.1453 13.6015 32.1579 13.0007C32.1705 12.3992 31.6913 11.9002 31.0905 11.8877C31.0455 11.887 30.9993 11.8883 30.9537 11.8936L30.918 11.5506Z" fill="white"/>
<path d="M30.5742 14.2292L31.1202 14.5597L31.1334 13.9219L30.5742 14.2292Z" fill="white"/>
<path d="M30.3632 14.3869C30.3038 14.3929 30.2436 14.3955 30.1841 14.3942C29.3936 14.3777 28.7631 13.7214 28.7796 12.9302C28.7961 12.1397 29.4525 11.5098 30.2436 11.5257L30.2363 11.8694C29.6349 11.8568 29.1359 12.336 29.1233 12.9368C29.1107 13.5383 29.5899 14.0373 30.1907 14.0498C30.2357 14.0505 30.2819 14.0492 30.3276 14.0439L30.3632 14.3869Z" fill="white"/>
<path d="M30.7069 11.7068L30.1617 11.377L30.1484 12.0141L30.7069 11.7068Z" fill="white"/>
<path d="M87.9429 47.4601C87.857 47.5031 87.7228 47.5275 87.5265 47.5275C82.2482 47.5269 76.9725 47.5255 71.6935 47.5401C69.0497 47.5474 66.4059 47.5282 63.7621 47.5341C62.427 47.5368 61.0919 47.5467 59.7568 47.5685C59.0892 47.5797 58.4217 47.5943 57.7541 47.6128C57.263 47.6267 56.6675 47.7172 56.2002 47.513C56.0409 47.4436 55.8902 47.3504 55.8268 47.1785C55.8169 47.1382 55.8142 47.0972 55.8189 47.0556C55.8704 46.7 56.4157 46.1025 56.6298 45.8084C57.0694 45.2036 57.5188 44.546 58.3073 44.3365C58.766 44.2149 59.2492 44.2168 59.7257 44.2195C68.0755 44.2195 76.4252 44.2658 84.775 44.2915C85.2984 44.2928 85.9448 44.3702 86.309 44.7701C86.7717 45.2777 87.1795 45.8276 87.5542 46.3973C87.7783 46.7377 88.3196 47.2731 87.9429 47.4601Z" fill="#D7384E"/>
<path d="M83.6123 44.648H60.0793C58.4448 44.648 57.1077 43.3109 57.1077 41.6764V25.4072C57.1077 23.7726 58.4448 22.4355 60.0793 22.4355H83.6123C85.2468 22.4355 86.5839 23.7726 86.5839 25.4072V41.6757C86.5839 43.3109 85.2468 44.648 83.6123 44.648Z" fill="#ED6807"/>
<path d="M60.1199 23.4004C58.8463 23.4004 57.804 24.4427 57.804 25.7163V37.8553C65.3414 33.3318 72.7136 28.5518 79.832 23.4011H60.1199V23.4004Z" fill="white"/>
<path d="M83.4447 23.4004H79.832C72.7129 28.5512 65.3414 33.3318 57.804 37.8546V40.4786C57.804 41.7523 58.8463 42.7946 60.1199 42.7946H83.4454C84.719 42.7946 85.7614 41.7523 85.7614 40.4786V25.7163C85.7607 24.4427 84.7184 23.4004 83.4447 23.4004Z" fill="#FFF3E0"/>
<path d="M73.403 43.6355H71.3356C71.2854 43.6355 71.2444 43.5946 71.2444 43.5443C71.2444 43.4941 71.2854 43.4531 71.3356 43.4531H73.403C73.4533 43.4531 73.4942 43.4941 73.4942 43.5443C73.4949 43.5946 73.4533 43.6355 73.403 43.6355Z" fill="#E3E5FC"/>
<path d="M59.9187 23.1826C60.0322 23.1826 60.1242 23.0906 60.1242 22.977C60.1242 22.8635 60.0322 22.7715 59.9187 22.7715C59.8052 22.7715 59.7131 22.8635 59.7131 22.977C59.7131 23.0906 59.8052 23.1826 59.9187 23.1826Z" fill="#E3E5FC"/>
<path d="M60.8044 23.1826C60.918 23.1826 61.01 23.0906 61.01 22.977C61.01 22.8635 60.918 22.7715 60.8044 22.7715C60.6909 22.7715 60.5989 22.8635 60.5989 22.977C60.5989 23.0906 60.6909 23.1826 60.8044 23.1826Z" fill="white"/>
<path d="M61.698 23.1826C61.8115 23.1826 61.9035 23.0906 61.9035 22.977C61.9035 22.8635 61.8115 22.7715 61.698 22.7715C61.5845 22.7715 61.4924 22.8635 61.4924 22.977C61.4924 23.0906 61.5845 23.1826 61.698 23.1826Z" fill="#4B369D"/>
<path d="M59.3766 45.7371H58.6813C58.5365 45.7371 58.4182 45.6187 58.4182 45.474C58.4182 45.3292 58.5365 45.2109 58.6813 45.2109H59.3766C59.5213 45.2109 59.6396 45.3292 59.6396 45.474C59.6403 45.6187 59.5213 45.7371 59.3766 45.7371Z" fill="#E3E5FC"/>
<path d="M61.4091 45.7371H60.7137C60.569 45.7371 60.4507 45.6187 60.4507 45.474C60.4507 45.3292 60.569 45.2109 60.7137 45.2109H61.4091C61.5538 45.2109 61.6721 45.3292 61.6721 45.474C61.6721 45.6187 61.5538 45.7371 61.4091 45.7371Z" fill="#E3E5FC"/>
<path d="M63.441 45.7371H62.7457C62.601 45.7371 62.4827 45.6187 62.4827 45.474C62.4827 45.3292 62.601 45.2109 62.7457 45.2109H63.441C63.5858 45.2109 63.7041 45.3292 63.7041 45.474C63.7041 45.6187 63.5858 45.7371 63.441 45.7371Z" fill="#E3E5FC"/>
<path d="M65.4742 45.7371H64.7789C64.6342 45.7371 64.5159 45.6187 64.5159 45.474C64.5159 45.3292 64.6342 45.2109 64.7789 45.2109H65.4742C65.619 45.2109 65.7373 45.3292 65.7373 45.474C65.7373 45.6187 65.619 45.7371 65.4742 45.7371Z" fill="#E3E5FC"/>
<path d="M67.5062 45.7371H66.8109C66.6662 45.7371 66.5479 45.6187 66.5479 45.474C66.5479 45.3292 66.6662 45.2109 66.8109 45.2109H67.5062C67.651 45.2109 67.7693 45.3292 67.7693 45.474C67.7693 45.6187 67.651 45.7371 67.5062 45.7371Z" fill="#E3E5FC"/>
<path d="M69.5387 45.7371H68.8434C68.6986 45.7371 68.5803 45.6187 68.5803 45.474C68.5803 45.3292 68.6986 45.2109 68.8434 45.2109H69.5387C69.6834 45.2109 69.8018 45.3292 69.8018 45.474C69.8018 45.6187 69.6834 45.7371 69.5387 45.7371Z" fill="#E3E5FC"/>
<path d="M71.5699 45.7371H70.8746C70.7299 45.7371 70.6116 45.6187 70.6116 45.474C70.6116 45.3292 70.7299 45.2109 70.8746 45.2109H71.5699C71.7147 45.2109 71.833 45.3292 71.833 45.474C71.8337 45.6187 71.7154 45.7371 71.5699 45.7371Z" fill="#E3E5FC"/>
<path d="M73.6031 45.7371H72.9078C72.7631 45.7371 72.6448 45.6187 72.6448 45.474C72.6448 45.3292 72.7631 45.2109 72.9078 45.2109H73.6031C73.7479 45.2109 73.8662 45.3292 73.8662 45.474C73.8669 45.6187 73.7479 45.7371 73.6031 45.7371Z" fill="#E3E5FC"/>
<path d="M75.6351 45.7371H74.9398C74.7951 45.7371 74.6768 45.6187 74.6768 45.474C74.6768 45.3292 74.7951 45.2109 74.9398 45.2109H75.6351C75.7799 45.2109 75.8982 45.3292 75.8982 45.474C75.8988 45.6187 75.7799 45.7371 75.6351 45.7371Z" fill="#E3E5FC"/>
<path d="M77.6676 45.7371H76.9723C76.8275 45.7371 76.7092 45.6187 76.7092 45.474C76.7092 45.3292 76.8275 45.2109 76.9723 45.2109H77.6676C77.8123 45.2109 77.9307 45.3292 77.9307 45.474C77.9313 45.6187 77.8123 45.7371 77.6676 45.7371Z" fill="#E3E5FC"/>
<path d="M79.7001 45.7371H79.0048C78.86 45.7371 78.7417 45.6187 78.7417 45.474C78.7417 45.3292 78.86 45.2109 79.0048 45.2109H79.7001C79.8448 45.2109 79.9631 45.3292 79.9631 45.474C79.9631 45.6187 79.8448 45.7371 79.7001 45.7371Z" fill="#E3E5FC"/>
<path d="M81.7321 45.7371H81.0367C80.892 45.7371 80.7737 45.6187 80.7737 45.474C80.7737 45.3292 80.892 45.2109 81.0367 45.2109H81.7321C81.8768 45.2109 81.9951 45.3292 81.9951 45.474C81.9951 45.6187 81.8768 45.7371 81.7321 45.7371Z" fill="#E3E5FC"/>
<path d="M83.7653 45.7371H83.0699C82.9252 45.7371 82.8069 45.6187 82.8069 45.474C82.8069 45.3292 82.9252 45.2109 83.0699 45.2109H83.7653C83.91 45.2109 84.0283 45.3292 84.0283 45.474C84.0283 45.6187 83.91 45.7371 83.7653 45.7371Z" fill="#E3E5FC"/>
<path d="M83.5039 26.6516H78.0419C77.7927 26.6516 77.5891 26.448 77.5891 26.1988C77.5891 25.9497 77.7927 25.7461 78.0419 25.7461H83.5039C83.7531 25.7461 83.9567 25.9497 83.9567 26.1988C83.9567 26.448 83.7531 26.6516 83.5039 26.6516Z" fill="#FF8787"/>
<path d="M83.5039 28.7258H78.0419C77.7927 28.7258 77.5891 28.5222 77.5891 28.2731C77.5891 28.0239 77.7927 27.8203 78.0419 27.8203H83.5039C83.7531 27.8203 83.9567 28.0239 83.9567 28.2731C83.9567 28.5222 83.7531 28.7258 83.5039 28.7258Z" fill="#FF8787"/>
<path d="M27.2162 27.5398V44.8388C27.2162 46.1798 26.119 47.277 24.7779 47.277H13.6668C12.3257 47.277 11.2285 46.1798 11.2285 44.8388V27.5398C11.2285 26.1987 12.3257 25.1016 13.6668 25.1016H24.7779C26.119 25.1009 27.2162 26.1987 27.2162 27.5398Z" fill="#D7384E"/>
<path d="M12.1396 44.7848C12.1396 44.9903 12.1786 45.1866 12.2461 45.3697C12.4853 46.0168 13.106 46.4821 13.831 46.4821H22.695H24.6111C25.541 46.4821 26.3024 45.718 26.3024 44.7848V27.6881C26.3024 27.1692 26.0665 26.7026 25.6977 26.3906C21.3585 30.5539 16.7491 34.4462 12.1396 38.3392V44.7848H12.1396Z" fill="#FFF3E0"/>
<path d="M22.7039 25.9922H13.83C12.9001 25.9922 12.1387 26.7562 12.1387 27.6895V30.3379V38.3407C16.7481 34.4483 21.3576 30.5554 25.6967 26.3921C25.4019 26.1429 25.0232 25.9922 24.6101 25.9922H22.7039V25.9922Z" fill="white"/>
<path d="M19.2222 47.0934C19.3941 47.0934 19.5335 46.9541 19.5335 46.7821C19.5335 46.6102 19.3941 46.4708 19.2222 46.4708C19.0503 46.4708 18.9109 46.6102 18.9109 46.7821C18.9109 46.9541 19.0503 47.0934 19.2222 47.0934Z" fill="#4B369D"/>
<path d="M23.9187 29.4465H18.4567C18.2075 29.4465 18.0039 29.2429 18.0039 28.9938C18.0039 28.7446 18.2075 28.541 18.4567 28.541H23.9187C24.1679 28.541 24.3715 28.7446 24.3715 28.9938C24.3721 29.2429 24.1679 29.4465 23.9187 29.4465Z" fill="#D7384E"/>
<path d="M23.9187 31.5188H18.4567C18.2075 31.5188 18.0039 31.3152 18.0039 31.066C18.0039 30.8169 18.2075 30.6133 18.4567 30.6133H23.9187C24.1679 30.6133 24.3715 30.8169 24.3715 31.066C24.3721 31.3152 24.1679 31.5188 23.9187 31.5188Z" fill="#D7384E"/>
<path d="M12.5904 30.6855H6.70735C6.03848 30.6855 5.49121 31.2328 5.49121 31.9017V37.8026C8.08279 35.4761 10.7239 33.2064 13.4788 31.0762C13.256 30.8376 12.9407 30.6855 12.5904 30.6855Z" fill="white"/>
<path d="M13.4778 31.0781C10.7236 33.2077 8.08181 35.4781 5.49023 37.8046V42.9719V46.303C5.49023 46.9719 6.0375 47.5192 6.70638 47.5192H12.5895C13.2583 47.5192 13.8056 46.9719 13.8056 46.303V31.9036C13.8056 31.591 13.6853 31.3062 13.4897 31.09C13.4864 31.0854 13.4817 31.0821 13.4778 31.0781Z" fill="#FFF3E0"/>
<path fill-rule="evenodd" clip-rule="evenodd" d="M6.70638 30.6855H12.5895C13.2583 30.6855 13.8056 31.2328 13.8056 31.9017V46.3011C13.8056 46.97 13.2583 47.5172 12.5895 47.5172H6.70638C6.0375 47.5172 5.49023 46.97 5.49023 46.3011V31.9017C5.49023 31.2328 6.0375 30.6855 6.70638 30.6855ZM12.0613 45.9475C12.7302 45.9475 13.2774 45.4002 13.2774 44.7313V32.4681C13.2774 31.7992 12.7302 31.252 12.0613 31.252H7.23372C6.56484 31.252 6.01758 31.7992 6.01758 32.4681V44.7313C6.01758 45.4002 6.56484 45.9475 7.23372 45.9475H12.0613Z" fill="#ED6807"/>
<path d="M10.4317 31.0704H8.8653C8.82696 31.0704 8.7959 31.0394 8.7959 31.001C8.7959 30.9627 8.82696 30.9316 8.8653 30.9316H10.4317C10.4701 30.9316 10.5011 30.9627 10.5011 31.001C10.5011 31.0394 10.4701 31.0704 10.4317 31.0704Z" fill="#E3E5FC"/>
<path d="M9.6484 47.1112C9.88676 47.1112 10.08 46.918 10.08 46.6796C10.08 46.4413 9.88676 46.248 9.6484 46.248C9.41003 46.248 9.2168 46.4413 9.2168 46.6796C9.2168 46.918 9.41003 47.1112 9.6484 47.1112Z" fill="#4B369D"/>
<path d="M12.3787 42.2121H6.91662C6.66744 42.2121 6.46387 42.0086 6.46387 41.7594C6.46387 41.5102 6.66744 41.3066 6.91662 41.3066H12.3787C12.6279 41.3066 12.8314 41.5102 12.8314 41.7594C12.8314 42.0086 12.6279 42.2121 12.3787 42.2121Z" fill="white"/>
<path d="M12.3787 44.2862H6.91662C6.66744 44.2862 6.46387 44.0827 6.46387 43.8335C6.46387 43.5843 6.66744 43.3807 6.91662 43.3807H12.3787C12.6279 43.3807 12.8314 43.5843 12.8314 43.8335C12.8314 44.082 12.6279 44.2862 12.3787 44.2862Z" fill="white"/>
</svg>
