<svg width="132" height="156" viewBox="0 0 132 156" fill="none" xmlns="http://www.w3.org/2000/svg">
<path d="M101.892 109.193C101.63 108.579 101.016 108.218 100.349 108.186C95.1518 107.934 87.6073 107.744 84.1763 107.581C83.3057 107.54 82.5924 106.914 82.406 106.062C81.3425 101.203 79.8731 94.5339 79.2491 91.2129C79.2445 91.1887 79.2559 91.1661 79.2754 91.1511C83.3594 88.5139 87.0352 81.4453 81.7867 71.4682C81.451 70.83 80.7764 70.4461 80.0556 70.4675C72.8563 70.6816 66.1926 72.3291 60.0032 75.8739C59.3314 76.2587 58.9674 77.0126 59.051 77.7823C59.0907 78.148 59.1276 78.4932 59.1612 78.814C59.2499 79.6611 58.7727 80.4686 57.9973 80.821C39.7355 89.1225 36.1492 91.6866 35.4488 95.9342C34.6261 100.953 38.9396 108.093 51.5372 128.889C51.8162 129.349 52.2728 129.697 52.8061 129.771C57.386 130.411 63.6252 128.047 65.7492 124.274C66.0243 123.786 65.986 123.197 65.737 122.694C63.7101 118.604 58.8578 108.846 56.2238 103.842C55.6497 102.751 56.1617 101.394 57.3168 100.963C59.1798 100.269 61.1076 99.5314 63.0378 98.7642C64.9365 98.0094 66.6633 101.039 65.3093 102.569C64.8967 103.035 64.9659 103.461 65.1602 104.052C67.4894 111.142 70.1827 118.987 73.0901 120.332C76.598 121.954 78.236 122.44 100.619 122.451C101.112 122.451 101.619 122.281 101.902 121.878C103.781 119.201 103.412 112.748 101.892 109.193Z" fill="#F15929"/>
<path d="M30.0943 19.7591C29.1258 19.2351 27.9145 19.592 27.4117 20.5717C27.128 21.1244 26.8573 21.6659 26.5979 22.1924C22.4069 30.8393 21.5811 36.5571 21.5959 40.8261C21.6115 42.9294 21.814 44.6743 21.9239 46.2635C21.9239 46.2731 21.929 46.282 21.9374 46.2869C22.0484 46.3513 22.157 46.4157 22.2679 46.4819C22.5884 46.6733 22.9767 46.5407 23.2768 46.3187C23.7622 45.9595 24.3375 46.2047 25.5073 46.7776C27.6106 47.8059 27.8131 47.8994 27.9673 49.3795C27.989 49.6397 28.267 49.7757 28.4957 49.6497C29.8453 48.9065 31.36 48.1303 33.062 47.0392C36.6609 44.7178 40.9922 40.9163 45.931 32.6744C46.237 32.1619 46.5468 31.6386 46.8585 31.0983C47.4096 30.1429 47.0465 28.931 46.0764 28.4062L30.0943 19.7591ZM35.5658 35.7299C35.0083 35.815 34.5598 36.2391 34.4436 36.7909C34.179 38.0481 32.4733 38.2708 31.8994 37.1213C31.6465 36.6148 31.1034 36.3192 30.5409 36.3832C29.2702 36.5276 28.543 34.9754 29.4515 34.0754C29.8536 33.677 29.9681 33.0674 29.7349 32.5517C29.205 31.3801 30.4499 30.1959 31.5931 30.7845C32.0956 31.0432 32.7062 30.963 33.1246 30.5829C34.0741 29.7205 35.5758 30.5585 35.3696 31.8246C35.2788 32.3821 35.544 32.9422 36.0354 33.2206C37.1498 33.8521 36.8319 35.5367 35.5658 35.7299Z" fill="#F15929"/>
<path d="M109.694 12.5585C109.251 12.363 108.883 12.7795 108.881 13.2641C108.877 13.9448 109.574 14.4301 110.119 14.022C110.34 13.8567 110.461 13.6853 110.496 13.514C110.581 13.1126 110.15 12.7594 109.694 12.5585Z" fill="#FFF0D9"/>
<path d="M103.789 109.746C103.635 109.596 103.429 109.513 103.214 109.515C102.634 109.521 102.282 110.12 102.448 110.676C103.315 113.587 103.4 117.366 102.748 119.925C102.575 120.606 102.65 121.35 103.136 121.856C104.886 123.679 108.059 125.886 111.114 127.24C112.35 127.788 113.585 126.785 113.243 125.476C111.675 119.478 106.382 112.281 103.789 109.746Z" fill="#FFF0D9"/>
<path d="M100.016 13.4039C99.8904 12.97 99.441 12.7178 99.0271 12.8989C98.7119 13.0368 98.4189 13.2741 98.4189 13.6548C98.4189 13.8497 98.5399 14.0564 98.8093 14.2513C99.4183 14.6921 100.225 14.126 100.016 13.4039Z" fill="#FFF0D9"/>
<path d="M82.6477 55.8032C82.2243 56.0386 81.9753 56.5041 82.0096 56.9873C82.1123 58.4346 84.5868 58.7059 84.9934 57.3131C85.0234 57.2103 85.0532 57.1084 85.0827 57.0073C85.4092 55.8909 84.2142 54.9323 83.1975 55.4975L82.6477 55.8032Z" fill="#FFF0D9"/>
<path d="M76.8903 24.4539C76.4143 24.485 75.5989 24.2671 75.1498 24.1064C74.6596 23.9311 72.9589 23.8774 72.4448 23.9591C72.425 23.9622 72.4052 23.9658 72.3854 23.9698C71.873 24.0729 70.4915 24.1338 69.9769 24.2251C69.9383 24.232 69.8995 24.2402 69.8606 24.2497C69.3112 24.3843 67.6165 24.7506 67.1864 25.1181C66.8901 25.3713 66.6378 25.7595 66.5449 26.2571C66.4806 26.5997 66.418 26.9348 66.3577 27.2626C66.0942 28.6926 67.435 29.8708 68.8745 29.6656C69.0726 29.6374 69.2711 29.612 69.47 29.5893C70.7684 29.4411 71.5717 30.7376 71.8822 32.007C71.9845 32.4249 72.1973 32.4857 72.512 31.8192C73.2131 30.3079 75.0048 31.4453 73.742 33.4239C73.5386 33.8335 73.455 34.2926 73.5017 34.7477C73.5512 35.2205 74.0977 35.1113 74.1971 34.6465C74.8369 31.6553 76.8218 28.2873 77.4968 26.8024C78.231 25.195 77.6873 24.4018 76.8903 24.4539Z" fill="#FFF0D9"/>
<path d="M64.6233 98.1284C63.9172 98.412 63.5574 99.1937 63.7976 99.9157C63.8764 100.153 63.956 100.393 64.0361 100.635C64.3906 101.708 65.5607 102.271 66.3382 101.452C67.4764 100.252 66.1576 97.5124 64.6233 98.1284Z" fill="#FFF0D9"/>
<path d="M69.6603 38.7966C69.3871 38.8951 69.196 39.1502 69.1806 39.4402C69.1485 40.0459 69.8157 40.4322 70.215 39.9756C70.301 39.8774 70.3841 39.7767 70.4644 39.6737C70.8658 39.1584 70.2747 38.5751 69.6603 38.7966Z" fill="#FFF0D9"/>
<path d="M64.2225 126.205C64.9306 125.545 66.0452 125.358 66.7239 126.049C67.1681 126.501 67.2668 127.182 67.0012 127.757C64.2224 133.775 59.5205 139.035 56.0667 142.118C54.8526 143.201 53.1677 142.254 53.388 140.641C53.8392 137.338 54.6092 134.085 55.6883 130.926C55.9282 130.223 56.5541 129.737 57.2802 129.583C59.8184 129.047 62.435 127.872 64.2225 126.205Z" fill="#FFF0D9"/>
<path d="M57.5336 64.8943C57.3869 63.6285 56.3861 62.4259 55.5203 63.3609C54.3779 64.5945 55.2745 67.8246 56.7997 67.117C57.3628 66.8558 57.6928 66.2585 57.6207 65.642C57.5913 65.3907 57.5622 65.1414 57.5336 64.8943Z" fill="#FFF0D9"/>
<path d="M30.1503 51.6069C29.9346 51.4794 29.6201 51.5309 29.3079 51.7459C28.922 52.0115 28.9092 52.5683 29.2317 52.9082C29.7493 53.4536 30.6219 53.0079 30.505 52.2651C30.4511 51.9232 30.3224 51.7084 30.1503 51.6069Z" fill="#FFF0D9"/>
<path d="M25.4743 61.0115C25.9495 61.2966 26.0496 61.9637 25.5893 62.2725C25.2425 62.5051 24.9598 62.5634 24.7451 62.4969C24.4495 62.4057 24.3073 62.0404 24.3019 61.5538C24.2954 60.9693 24.9729 60.7107 25.4743 61.0115Z" fill="#FFF0D9"/>
<path d="M14.5704 119.489C17.1604 119.489 19.26 117.389 19.26 114.799C19.26 112.209 17.1604 110.109 14.5704 110.109C11.9805 110.109 9.88086 112.209 9.88086 114.799C9.88086 117.389 11.9805 119.489 14.5704 119.489Z" fill="#FFF0D9"/>
<path d="M21.9235 58.9444C21.9508 57.7005 22.4698 56.3847 23.3416 54.6918C23.5843 54.2203 23.6236 53.6758 23.5502 53.1506C23.4789 52.6413 23.4809 52.1229 23.5572 51.6114C23.6745 50.826 23.9642 50.0762 24.4056 49.416C24.223 49.6983 24.0208 49.9671 23.8006 50.2205C23.5909 50.4617 23.5488 50.8062 23.5695 51.1252C23.6205 51.9108 23.0357 52.7255 22.0875 52.4467C21.9994 52.4208 21.909 52.5237 21.9581 52.6014C21.966 52.614 21.9775 52.6247 21.9905 52.6322C23.4824 53.4972 22.6813 55.3411 21.1793 54.9814C21.1084 54.9645 21.0386 55.0765 21.0927 55.1253C21.0966 55.1288 21.1011 55.1319 21.1057 55.1344C22.7159 55.9936 21.7036 58.0585 19.9612 57.2962C19.4478 57.0657 18.9978 56.8775 18.6018 56.7126C18.2681 56.5736 17.9626 56.5796 17.6595 56.7765C16.7416 57.3725 16.108 59.4934 17.0704 60.0145L19.3237 61.2345C20.3175 61.7726 21.8899 60.074 21.9235 58.9444Z" fill="#FFF0D9"/>
<path d="M13.3818 58.0236C12.5161 57.5546 11.4378 57.7854 10.8399 58.5677L10.369 59.1839C9.62324 60.1597 9.92497 61.5709 11.0046 62.1564L21.0577 67.6088C22.1368 68.194 23.4835 67.6781 23.8953 66.5217L24.1571 65.7868C24.4878 64.8581 24.0926 63.8269 23.2258 63.3573L13.3818 58.0236Z" fill="#FFF0D9"/>
<path d="M26.3651 61.5627C24.8891 60.5967 23.1867 59.7398 21.9092 58.9141" stroke="black" stroke-linecap="round" stroke-linejoin="round"/>
<path d="M65.7816 30.8234L63.6375 8.33321C63.4383 6.24399 60.5662 5.83277 59.7888 7.78217L40.1992 56.9043" stroke="black" stroke-linecap="round" stroke-linejoin="round"/>
<path d="M67.1681 45.4983L66.5449 38.8145" stroke="black" stroke-linecap="round" stroke-linejoin="round"/>
<path d="M99.932 108.162L119.9 58.0886C120.48 56.6331 119.238 55.1057 117.695 55.3782L83.8223 61.3598" stroke="black" stroke-linecap="round" stroke-linejoin="round"/>
<path d="M77.6533 121.748L80.1245 147.666C80.3237 149.755 83.1958 150.166 83.9732 148.217L94.2616 122.418" stroke="black" stroke-linecap="round" stroke-linejoin="round"/>
<path d="M35.4626 68.7754L23.8454 97.9092C23.265 99.3647 24.5081 100.892 26.0512 100.619L35.4782 98.9539" stroke="black" stroke-linecap="round" stroke-linejoin="round"/>
<path d="M26.6131 22.2227L20.2697 18.7948C19.2984 18.27 18.0749 18.6331 17.621 19.6394C12.6269 30.7102 18.136 38.9779 21.6119 40.8564" stroke="black" stroke-linecap="round" stroke-linejoin="round"/>
<path d="M31.9143 37.1307C31.6594 36.6265 31.1171 36.3326 30.5555 36.3946V36.3946C29.2806 36.5353 28.5394 34.9899 29.4505 34.0871V34.0871C29.8524 33.6889 29.9639 33.0817 29.7307 32.5662V32.5662C29.201 31.3951 30.4455 30.2095 31.5884 30.7975V30.7975C32.0909 31.0561 32.7018 30.9752 33.1192 30.5942V30.5942C34.0662 29.7299 35.572 30.5463 35.3652 31.8116V31.8116C35.2741 32.3692 35.5408 32.9257 36.0315 33.2056V33.2056C37.1476 33.8422 36.8398 35.5335 35.5698 35.728V35.728C35.0097 35.8137 34.562 36.2396 34.4488 36.7948V36.7948C34.1925 38.0513 32.4927 38.2753 31.9143 37.1307V37.1307Z" stroke="black" stroke-linecap="round" stroke-linejoin="round"/>
<path d="M45.9875 32.6953L52.2807 36.1175C53.2501 36.6446 53.6138 37.8672 53.0193 38.7969C46.4739 49.0319 36.5422 48.9369 33.0801 47.0584" stroke="black" stroke-linecap="round" stroke-linejoin="round"/>
<path d="M21.0097 132.641C26.0859 132.641 30.2011 128.526 30.2011 123.449C30.2011 118.373 26.0859 114.258 21.0097 114.258C15.9334 114.258 11.8184 118.373 11.8184 123.449C11.8184 128.526 15.9334 132.641 21.0097 132.641Z" stroke="black" stroke-linecap="round" stroke-linejoin="round"/>
<path d="M121.261 32.1789C122.828 32.1789 124.097 30.9094 124.097 29.3434C124.097 27.7773 122.828 26.5078 121.261 26.5078C119.695 26.5078 118.426 27.7773 118.426 29.3434C118.426 30.9094 119.695 32.1789 121.261 32.1789Z" stroke="black" stroke-linecap="round" stroke-linejoin="round"/>
<path d="M11.1423 79.4018C11.9425 79.4018 12.5912 78.7532 12.5912 77.9528C12.5912 77.1526 11.9425 76.5039 11.1423 76.5039C10.3421 76.5039 9.69336 77.1526 9.69336 77.9528C9.69336 78.7532 10.3421 79.4018 11.1423 79.4018Z" stroke="black" stroke-linecap="round" stroke-linejoin="round"/>
<path d="M85.2409 8.23145L84.3331 11.8628C84.0789 12.8795 84.9568 13.8207 85.9888 13.6377V13.6377C87.0207 13.4547 87.8986 14.3959 87.6444 15.4126L86.7366 19.044" stroke="black" stroke-linecap="round" stroke-linejoin="round"/>
<path d="M20.7569 54.8165C22.5199 55.6529 23.6064 53.5414 21.9566 52.6025C20.7266 51.903 19.8377 51.4643 18.8406 50.951C18.5435 50.7795 18.1917 50.7291 17.8584 50.8105C17.5252 50.8918 17.2361 51.0984 17.0514 51.3876C16.8667 51.6766 16.8006 52.0258 16.8669 52.3624C16.9332 52.699 17.1267 52.997 17.4072 53.1945C18.201 53.6955 19.139 54.049 20.7569 54.8165Z" stroke="black" stroke-linecap="round" stroke-linejoin="round"/>
<path d="M22.8589 46.8397C22.2357 46.4658 21.7855 46.2132 21.1763 45.8557C20.8888 45.6679 20.5395 45.5994 20.2024 45.6648C19.8654 45.73 19.567 45.9241 19.3705 46.2056C19.1741 46.4872 19.0949 46.8342 19.1499 47.1732C19.2048 47.5121 19.3896 47.8162 19.665 48.0213C20.3313 48.466 21.0291 48.8617 21.7527 49.2054" stroke="black" stroke-linecap="round" stroke-linejoin="round"/>
<path d="M19.976 57.2941C21.7053 58.0575 22.7172 55.9878 21.0977 55.1285C19.8972 54.4913 19.0075 54.0895 18.044 53.6328C17.7533 53.4694 17.4106 53.4253 17.0879 53.5096C16.7652 53.5939 16.4879 53.8001 16.3143 54.0848C16.1406 54.3695 16.0842 54.7104 16.157 55.0359C16.2297 55.3613 16.4258 55.6459 16.7042 55.8296C17.4832 56.2806 18.3868 56.593 19.976 57.2941Z" stroke="black" stroke-linecap="round" stroke-linejoin="round"/>
<path d="M21.72 49.2695C21.0813 48.9267 20.5171 48.6684 19.8972 48.3347C19.5997 48.15 19.242 48.0882 18.8998 48.1625C18.5576 48.2367 18.2577 48.4412 18.0634 48.7325C17.8692 49.0239 17.7959 49.3793 17.859 49.7237C17.922 50.0682 18.1166 50.3746 18.4015 50.5782C19.2108 51.1095 20.1342 51.4908 21.7635 52.3076C23.1214 52.9873 23.8824 51.5441 23.415 50.5938" stroke="black" stroke-linecap="round" stroke-linejoin="round"/>
<path d="M28.7642 52.293C29.216 51.6542 29.8048 51.4107 30.1508 51.6075C30.7683 51.9601 30.82 53.7575 28.9044 57.5435C26.8626 61.5787 25.4293 62.7193 24.729 62.4979C24.2452 62.3446 24.1681 61.3917 24.4641 60.4258" stroke="black" stroke-linecap="round" stroke-linejoin="round"/>
<path d="M30.4122 53.6795C29.3528 53.2432 28.2802 52.4651 27.9817 49.3794C27.8366 47.9034 27.6242 47.8042 25.5217 46.7775C23.0617 45.5762 23.2003 45.7934 21.3463 50.1583C20.8904 51.2317 22.5615 52.3395 24.4934 49.2235C22.9822 51.6072 23.2634 53.9795 24.6492 55.4867" stroke="black" stroke-linecap="round" stroke-linejoin="round"/>
<path d="M105.852 6.44064C105.698 8.38814 103.336 8.45046 103.344 6.56528C103.35 5.16308 103.409 4.16592 103.468 3.04416C103.567 1.17456 106.06 1.19014 106.117 2.73256C106.153 3.66736 105.996 4.64894 105.852 6.44064Z" stroke="black" stroke-linecap="round" stroke-linejoin="round"/>
<path d="M97.9221 5.00894C97.9065 4.32342 97.9172 3.82317 97.9065 3.16881C97.8778 1.39269 100.408 1.31233 100.524 2.79489C100.577 3.5522 100.577 4.31226 100.524 5.06961" stroke="black" stroke-linecap="round" stroke-linejoin="round"/>
<path d="M108.534 6.89385C108.339 8.79543 106.048 8.79461 106.119 6.95617C106.171 5.60071 106.257 4.63475 106.337 3.55973C106.472 1.75573 108.892 1.83035 108.892 3.31373C108.892 4.21409 108.712 5.16529 108.534 6.89385Z" stroke="black" stroke-linecap="round" stroke-linejoin="round"/>
<path d="M100.587 5.05384C100.602 4.32158 100.664 3.69834 100.68 2.99724C100.725 1.09648 103.263 1.06532 103.36 2.62332C103.42 3.5737 103.282 4.57086 103.189 6.39536C103.195 6.66744 103.113 6.93426 102.956 7.15624C102.798 7.37821 102.573 7.54344 102.314 7.62741C102.056 7.71138 101.776 7.70957 101.518 7.62241C101.26 7.53516 101.038 7.36706 100.883 7.1432" stroke="black" stroke-linecap="round" stroke-linejoin="round"/>
<path d="M99.7151 12.7352C98.9361 12.8599 98.4375 13.2338 98.4375 13.6233C98.4375 14.3244 99.9488 15.1633 104.171 15.0878C108.658 15.0058 110.358 14.2153 110.512 13.4987C110.623 12.9845 109.967 12.5147 108.985 12.3613" stroke="black" stroke-linecap="round" stroke-linejoin="round"/>
<path d="M100.104 14.7604C100.244 13.6231 100.098 12.3382 97.5956 10.7252C96.3935 9.95033 96.4107 9.71253 96.5673 7.39111C96.7526 4.64903 96.8642 4.88027 101.553 5.11643C102.706 5.17465 102.83 7.15741 99.1848 7.53133C101.989 7.21973 103.906 8.49729 104.515 10.3825" stroke="black" stroke-linecap="round" stroke-linejoin="round"/>
<path d="M108.907 14.5565C108.814 11.347 109.153 6.17444 108.907 3.68164" stroke="black" stroke-linecap="round" stroke-linejoin="round"/>
<path d="M98.4374 13.6396C98.4664 17.2742 98.4413 26.1993 98.2226 31.1618C98.1947 31.7937 97.8587 32.3616 97.3034 32.6645C94.5305 34.1766 86.6994 38.0712 83.0755 39.7517C79.3092 41.4991 76.1252 41.1375 74.6418 38.7628C72.5918 35.4828 76.0924 29.9667 77.5118 26.8047C78.2292 25.2094 77.703 24.4161 76.9194 24.4552C76.4372 24.4792 75.6049 24.2658 75.1481 24.1096V24.1096C74.6537 23.9407 72.9942 23.8853 72.4766 23.9571C72.4532 23.9603 72.4296 23.9642 72.406 23.9686C71.8849 24.0672 70.4913 24.1446 69.97 24.2419C69.9373 24.248 69.9045 24.2551 69.8717 24.2631C69.3203 24.3972 67.6365 24.7622 67.2042 25.1298C66.9085 25.3814 66.6556 25.7662 66.559 26.2594C64.7359 35.5418 65.0654 39.1144 67.7104 39.1913C69.0801 39.2311 70.1408 40.2826 69.0207 41.0719V41.0719" stroke="black" stroke-linecap="round" stroke-linejoin="round"/>
<path d="M110.513 13.5137C110.513 35.4659 110.752 36.5434 109.594 38.7065C108.084 41.529 105.129 43.3054 83.0849 55.5593C82.4047 55.9375 81.9911 56.6837 82.0491 57.4599C82.2676 60.3835 82.516 63.6036 82.516 65.9248" stroke="black" stroke-linecap="round" stroke-linejoin="round"/>
<path d="M30.1504 51.607C34.513 54.2245 40.1992 56.9094 42.3548 57.9102C42.859 58.1443 43.4355 58.1572 43.9476 57.9412C48.5728 55.9899 60.2421 50.6618 65.2021 47.4004C68.2861 45.3733 69.175 41.1839 69.1906 38.9404" stroke="black" stroke-linecap="round" stroke-linejoin="round"/>
<path d="M65.2051 47.4131C67.2461 49.5632 75.1451 48.0691 77.1861 40.667" stroke="black" stroke-linecap="round" stroke-linejoin="round"/>
<path d="M65.8438 30.3249C67.0317 29.9775 68.2456 29.7328 69.4722 29.5926C70.77 29.4443 71.5842 30.7347 71.8777 32.0074C71.9782 32.4428 72.1927 32.511 72.512 31.8206C73.2254 30.2781 75.0122 31.4671 73.742 33.4253C73.5354 33.8342 73.4501 34.2938 73.4976 34.7494C73.5444 35.2052 73.7215 35.6378 74.0069 35.996" stroke="black" stroke-linecap="round" stroke-linejoin="round"/>
<path d="M52.7266 102.632C59.7687 100.108 71.3012 95.8438 78.9477 91.3674C83.1806 88.8897 87.2616 81.5881 81.6519 71.186C81.3953 70.7102 81.3216 70.1503 81.4696 69.6304C82.7001 65.3093 84.8797 57.641 85.994 53.9443" stroke="black" stroke-linecap="round" stroke-linejoin="round"/>
<path d="M66.9494 76.7832C40.8373 88.406 36.2625 91.0554 35.4466 95.9311C34.7568 100.054 36.4893 104.19 51.5547 128.94C51.8207 129.377 52.2498 129.718 52.7553 129.798C56.9175 130.453 63.5813 128.227 65.7604 124.269C66.027 123.785 65.9851 123.202 65.7406 122.706C61.2179 113.536 56.6086 104.465 55.1086 101.78" stroke="black" stroke-linecap="round" stroke-linejoin="round"/>
<path d="M63.3818 98.6278C66.0616 106.449 69.4113 118.617 73.1038 120.331C76.759 122.027 78.2004 122.38 100.7 122.448C101.141 122.449 101.6 122.316 101.862 121.962C103.568 119.65 103.622 112.957 101.88 109.137C101.61 108.546 101.01 108.203 100.361 108.171C95.1192 107.909 87.6433 107.731 84.1905 107.567C83.3177 107.526 82.6037 106.897 82.419 106.043C81.3491 101.098 79.8809 94.3601 79.2849 91.1338" stroke="black" stroke-linecap="round" stroke-linejoin="round"/>
<path d="M65.3907 124.864C66.2095 125.543 66.9732 126.285 67.6747 127.083C68.1292 127.6 68.2473 128.33 67.9702 128.96C65.951 133.553 60.6857 140.683 55.6482 144.878C54.505 145.83 52.9497 145.034 53.0568 143.55C53.3652 139.274 54.5973 133.515 56.0739 129.788" stroke="black" stroke-linecap="round" stroke-linejoin="round"/>
<path d="M96.5675 108.022C98.624 110.328 99.6367 118.196 96.2559 122.434" stroke="black" stroke-linecap="round" stroke-linejoin="round"/>
<path d="M49.1729 125.021C53.9092 126.065 61.3908 124.164 63.7869 118.758" stroke="black" stroke-linecap="round" stroke-linejoin="round"/>
<path d="M52.9746 144.51C55.9971 142.609 63.7871 135.38 67.4017 126.798" stroke="black" stroke-linecap="round" stroke-linejoin="round"/>
<path d="M102.067 109.581C102.812 109.494 103.563 109.476 104.31 109.527C104.688 109.553 105.042 109.702 105.323 109.956C107.951 112.337 113.57 119.301 114.749 126.129C114.957 127.332 113.879 128.271 112.724 127.875C108.76 126.517 104.085 123.235 102.395 120.985" stroke="black" stroke-linecap="round" stroke-linejoin="round"/>
<path d="M103.548 109.519C106.418 112.167 113.363 121.655 113.675 128.168" stroke="black" stroke-linecap="round" stroke-linejoin="round"/>
<path d="M56.8232 58.2754C57.2283 63.1208 58.9552 76.2547 59.2832 80.212" stroke="black" stroke-linecap="round" stroke-linejoin="round"/>
<path d="M81.2382 70.4424C72.42 70.5047 65.1597 72.6859 58.9121 76.5186" stroke="black" stroke-linecap="round" stroke-linejoin="round"/>
<path d="M58.5836 123.789C55.6254 118.049 49.9015 105.903 47.4752 100.785C47.0086 99.8008 47.4066 98.6274 48.3891 98.1568C56.2757 94.3798 71.8085 87.874 74.6622 86.1013C77.747 84.1849 78.9623 81.7233 75.6905 70.7861" stroke="black" stroke-linecap="round" stroke-linejoin="round"/>
<path d="M24.7432 62.502C39.4974 71.4252 41.8664 72.3928 45.558 71.3785C49.7377 70.136 53.8118 68.5627 57.7416 66.6733" stroke="black" stroke-linecap="round" stroke-linejoin="round"/>
<path d="M46.915 70.9886C51.0765 68.2309 55.5464 63.4323 57.1511 61.5176" stroke="black" stroke-linecap="round" stroke-linejoin="round"/>
<path d="M64.8623 103.099C66.7007 100.918 72.0135 95.7762 73.9299 94.0312" stroke="black" stroke-linecap="round" stroke-linejoin="round"/>
<path d="M5.5957 34.6562L6.13608 37.7108" stroke="black" stroke-linecap="round" stroke-linejoin="round"/>
<path d="M12.5906 39.5488L9.53613 40.0892" stroke="black" stroke-linecap="round" stroke-linejoin="round"/>
<path d="M7.69761 46.5438L7.15723 43.4893" stroke="black" stroke-linecap="round" stroke-linejoin="round"/>
<path d="M0.703125 41.6498L3.75926 41.1094" stroke="black" stroke-linecap="round" stroke-linejoin="round"/>
<path d="M9.53616 40.0898C9.15691 40.1569 8.76815 40.1486 8.39209 40.0653C8.01612 39.9821 7.66016 39.8256 7.34471 39.6046C7.02925 39.3837 6.76046 39.1026 6.55374 38.7778C6.34693 38.4528 6.20622 38.0904 6.13972 37.7109C6.20745 38.0904 6.19958 38.4794 6.11668 38.8559C6.03369 39.2323 5.87732 39.5886 5.65641 39.9044C5.4355 40.2203 5.15441 40.4894 4.82928 40.6964C4.50415 40.9034 4.14138 41.0442 3.76172 41.1107C4.14105 41.0431 4.52998 41.051 4.90619 41.134C5.28249 41.217 5.63862 41.3735 5.95432 41.5944C6.27002 41.8153 6.53898 42.0964 6.74586 42.4214C6.95267 42.7465 7.09338 43.1092 7.1598 43.4887C7.09231 43.1094 7.10027 42.7206 7.18317 42.3444C7.26607 41.9683 7.42236 41.6122 7.64311 41.2965C7.86385 40.9808 8.14462 40.7116 8.4695 40.5046C8.7943 40.2975 9.15674 40.1566 9.53616 40.0898Z" stroke="black" stroke-linecap="round" stroke-linejoin="round"/>
<path d="M121.247 80.8965L122.021 85.2769" stroke="black" stroke-linecap="round" stroke-linejoin="round"/>
<path d="M131.275 87.9141L126.895 88.6881" stroke="black" stroke-linecap="round" stroke-linejoin="round"/>
<path d="M124.26 97.9439L123.485 93.5635" stroke="black" stroke-linecap="round" stroke-linejoin="round"/>
<path d="M114.229 90.9264L118.612 90.1523" stroke="black" stroke-linecap="round" stroke-linejoin="round"/>
<path d="M126.896 88.6877C126.352 88.7845 125.794 88.773 125.254 88.6541C124.715 88.5352 124.204 88.3105 123.751 87.994C123.298 87.6775 122.913 87.274 122.616 86.8083C122.319 86.3417 122.116 85.8218 122.021 85.2773C122.118 85.821 122.107 86.3786 121.988 86.919C121.869 87.4585 121.646 87.9694 121.329 88.422C121.013 88.8747 120.609 89.2609 120.143 89.5577C119.678 89.8546 119.158 90.0563 118.613 90.1522C119.157 90.0555 119.715 90.067 120.254 90.1859C120.794 90.3048 121.305 90.5294 121.757 90.846C122.21 91.1625 122.596 91.5659 122.892 92.0317C123.189 92.4983 123.391 93.0181 123.486 93.5626C123.389 93.0181 123.4 92.4605 123.519 91.921C123.638 91.3814 123.863 90.8706 124.179 90.4179C124.496 89.9645 124.899 89.5791 125.365 89.2822C125.832 88.9854 126.352 88.7828 126.896 88.6877Z" stroke="black" stroke-linecap="round" stroke-linejoin="round"/>
<path d="M30.0943 19.7591C29.1258 19.2351 27.9145 19.592 27.4117 20.5717C27.128 21.1244 26.8573 21.6659 26.5979 22.1924C22.4069 30.8393 21.5811 36.5571 21.5959 40.8261C21.6115 42.9294 21.814 44.6743 21.9239 46.2635V46.2635C21.9239 46.2731 21.929 46.282 21.9374 46.2869C22.0484 46.3513 22.157 46.4157 22.2679 46.4819C22.5884 46.6733 22.9767 46.5407 23.2768 46.3187C23.7622 45.9595 24.3375 46.2047 25.5073 46.7776C27.6106 47.8059 27.8131 47.8994 27.9673 49.3795V49.3795C27.989 49.6397 28.267 49.7757 28.4957 49.6497C29.8453 48.9065 31.36 48.1303 33.062 47.0392C36.6609 44.7178 40.9922 40.9163 45.931 32.6744C46.237 32.1619 46.5468 31.6386 46.8585 31.0983C47.4096 30.1429 47.0465 28.931 46.0764 28.4062L30.0943 19.7591ZM35.5658 35.7299C35.0083 35.815 34.5598 36.2391 34.4436 36.7909V36.7909C34.179 38.0481 32.4733 38.2708 31.8994 37.1213V37.1213C31.6465 36.6148 31.1034 36.3192 30.5409 36.3832V36.3832C29.2702 36.5276 28.543 34.9754 29.4515 34.0754V34.0754C29.8536 33.677 29.9681 33.0674 29.7349 32.5517V32.5517C29.205 31.3801 30.4499 30.1959 31.5931 30.7845V30.7845C32.0956 31.0432 32.7062 30.963 33.1246 30.5829V30.5829C34.0741 29.7205 35.5758 30.5585 35.3696 31.8246V31.8246C35.2788 32.3821 35.544 32.9422 36.0354 33.2206V33.2206C37.1498 33.8521 36.8319 35.5367 35.5658 35.7299V35.7299Z" stroke="black" stroke-linejoin="round"/>
<path d="M21.9235 58.9444C21.9508 57.7005 22.4698 56.3847 23.3416 54.6918C23.5843 54.2203 23.6236 53.6758 23.5502 53.1506C23.4789 52.6413 23.4809 52.1229 23.5572 51.6114C23.6745 50.826 23.9642 50.0762 24.4056 49.416C24.223 49.6983 24.0208 49.9671 23.8006 50.2205C23.5909 50.4617 23.5488 50.8062 23.5695 51.1252C23.6205 51.9108 23.0357 52.7255 22.0875 52.4467C21.9994 52.4208 21.909 52.5237 21.9581 52.6014V52.6014C21.966 52.614 21.9775 52.6247 21.9905 52.6322C23.4824 53.4972 22.6813 55.3411 21.1793 54.9814C21.1084 54.9645 21.0386 55.0765 21.0927 55.1253V55.1253C21.0966 55.1288 21.1011 55.1319 21.1057 55.1344C22.7159 55.9936 21.7036 58.0585 19.9612 57.2962C19.4478 57.0657 18.9978 56.8775 18.6018 56.7126C18.2681 56.5736 17.9626 56.5796 17.6595 56.7765V56.7765C16.7416 57.3725 16.108 59.4934 17.0704 60.0145L19.3237 61.2345C20.3175 61.7726 21.8899 60.074 21.9235 58.9444V58.9444Z" stroke="black" stroke-linejoin="round"/>
<path d="M13.3935 58.0236C12.5278 57.5546 11.4495 57.7854 10.8516 58.5677L10.3807 59.1839C9.63496 60.1597 9.93669 61.5709 11.0163 62.1564L21.0695 67.6088C22.1485 68.194 23.4952 67.6781 23.907 66.5217L24.1688 65.7868C24.4996 64.8581 24.1043 63.8269 23.2375 63.3573L13.3935 58.0236Z" stroke="black" stroke-linejoin="round"/>
</svg>
