<svg width="32" height="32" viewBox="0 0 32 32" fill="none" xmlns="http://www.w3.org/2000/svg">
<path d="M30 26.0001H28V14.4438C28 14.167 27.9426 13.8932 27.8314 13.6398C27.7201 13.3863 27.5575 13.1587 27.3538 12.9713L17.3538 3.53632C17.3489 3.53206 17.3443 3.52746 17.34 3.52257C16.9718 3.18774 16.492 3.0022 15.9944 3.0022C15.4967 3.0022 15.0169 3.18774 14.6488 3.52257L14.635 3.53632L4.64625 12.9713C4.4425 13.1587 4.27985 13.3863 4.16861 13.6398C4.05737 13.8932 3.99996 14.167 4 14.4438V26.0001H2C1.73478 26.0001 1.48043 26.1054 1.29289 26.293C1.10536 26.4805 1 26.7349 1 27.0001C1 27.2653 1.10536 27.5196 1.29289 27.7072C1.48043 27.8947 1.73478 28.0001 2 28.0001H30C30.2652 28.0001 30.5196 27.8947 30.7071 27.7072C30.8946 27.5196 31 27.2653 31 27.0001C31 26.7349 30.8946 26.4805 30.7071 26.293C30.5196 26.1054 30.2652 26.0001 30 26.0001ZM6 14.4438L6.01375 14.4313L16 5.00007L25.9875 14.4288L26.0012 14.4413V26.0001H20V20.0001C20 19.4696 19.7893 18.9609 19.4142 18.5859C19.0391 18.2108 18.5304 18.0001 18 18.0001H14C13.4696 18.0001 12.9609 18.2108 12.5858 18.5859C12.2107 18.9609 12 19.4696 12 20.0001V26.0001H6V14.4438ZM18 26.0001H14V20.0001H18V26.0001Z" fill="#343330"/>
</svg>
