<svg width="24" height="24" viewBox="0 0 24 24" fill="none" xmlns="http://www.w3.org/2000/svg">
<path d="M3 19C4.36817 18.21 5.92017 17.7942 7.5 17.7942C9.07983 17.7942 10.6318 18.21 12 19C13.3682 18.21 14.9202 17.7942 16.5 17.7942C18.0798 17.7942 19.6318 18.21 21 19M3 5.99996C4.36817 5.21005 5.92017 4.79419 7.5 4.79419C9.07983 4.79419 10.6318 5.21005 12 5.99996C13.3682 5.21005 14.9202 4.79419 16.5 4.79419C18.0798 4.79419 19.6318 5.21005 21 5.99996M3 5.99996V19M12 5.99996V19M21 5.99996V19" stroke="#F15929" stroke-width="2" stroke-linecap="round" stroke-linejoin="round"/>
</svg>
