<svg width="318" height="212" viewBox="0 0 318 212" fill="none" xmlns="http://www.w3.org/2000/svg">
<rect width="318" height="212" rx="20" fill="url(#paint0_linear_21297_22860)" fill-opacity="0.5"/>
<path d="M219.579 134.763C220.118 134.877 221.316 134.566 221.481 134.195C221.657 133.8 221.375 135.628 222.049 135.501C222.624 135.316 223.155 135.017 223.61 134.621C223.08 136.968 225.238 135.984 225.37 134.877C225.456 134.166 225.228 136.523 225.966 136.352C226.456 136.233 226.903 135.979 227.254 135.617C227.606 135.255 227.848 134.802 227.953 134.308C228.266 133.036 229.543 126.643 229.543 126.643L221.254 123.805C218.572 124.484 218.044 126.38 217.332 129.624L219.752 130.26L219.518 132.436C219.518 132.436 219.04 134.649 219.579 134.763Z" fill="white"/>
<path d="M214.254 132.238C193.86 131.758 198.915 132.231 171.801 128.574C171.801 128.574 169.469 141.093 169.416 146.317C169.062 178.841 169.711 180.873 170.722 198.297C168.187 199.578 160.1 203.683 158.174 205.394C158.174 205.394 169.643 206.431 173.674 206.331C177.705 206.231 183.753 206.785 183.951 206.132C184.147 203.904 184.042 201.661 183.639 199.461C183.181 197.389 184.122 191.455 184.179 185.469C184.255 177.337 184.631 150.008 192.497 148.252C192.497 148.252 195.391 147.372 195.591 147.428C196.846 147.786 204.233 198.962 204.249 199.068C204.249 199.068 203.34 205.004 204.051 206.136C209.775 206.454 228.027 205.848 229.033 205.654C226.329 203.191 220.075 200.162 216.599 198.446C216.347 156.35 215.741 140.625 214.254 132.238Z" fill="white"/>
<path d="M174.838 56.4662C174.64 64.2943 178.583 70.0056 186.251 68.4177C186.251 68.4177 185.37 70.49 186.137 71.2002C186.82 71.8006 187.644 72.2192 188.532 72.4176C189.42 72.616 190.344 72.5878 191.218 72.3355C198.426 70.7243 192.204 68.1071 193.974 64.2169C195.111 61.7185 196.813 59.3049 195.706 56.2955C195.706 56.2955 199.482 56.3814 200.419 54.7914C201.356 53.2014 201.519 51.4227 200.731 50.8694C199.409 50.2848 197.91 50.244 196.558 50.756C195.138 51.2669 191.385 50.9871 190.17 49.1374C188.752 47.1072 187.58 44.9156 186.678 42.6088C186.678 42.6088 179.098 44.7659 175.866 45.0214C175.86 45.0256 175.084 46.7937 174.838 56.4662Z" fill="white"/>
<path d="M203.761 51.5934C202.983 46.34 204.079 42.6777 201.921 39.0928C199.329 34.7956 192.54 31.6813 188.068 35.8556C187.437 34.9547 186.588 34.2291 185.599 33.747C184.611 33.2649 183.516 33.0421 182.418 33.0996C172.666 33.142 168.441 41.1651 173.987 44.3695C173.416 44.5815 171.328 58.9392 171.318 59.0462C171.262 59.6388 170.713 67.7912 170.894 68.3297C171.338 69.6696 181.127 70.5981 184.576 70.2886C184.633 70.3172 186.364 69.2392 185.599 68.9827C183.667 68.334 182.22 69.0399 180.405 68.1347C178.753 66.9558 177.321 65.4955 176.176 63.8205C176.229 63.7145 174.828 63.8894 175.465 50.1931C175.554 48.2851 176.134 46.5022 175.267 44.9133C180.265 44.0801 178.303 45.3585 186.736 42.6131C186.889 45.8323 190.031 49.8741 193.635 50.7613C196.266 51.4079 197.382 50.3924 199.192 50.4242C202.752 50.4857 202.796 56.71 196.502 56.1832C196.329 56.1857 196.162 56.2502 196.032 56.3648C195.901 56.4795 195.816 56.6368 195.792 56.8086C196.435 60.1433 195.013 61.321 194.288 64.1321C193.943 65.4656 193.4 66.532 194.136 67.6683C197.58 72.9789 203.92 74.7226 206.694 74.182C208.339 73.864 208.828 72.0058 208.804 70.0204C208.708 62.1764 204.911 59.3515 203.761 51.5934Z" fill="#FFB949"/>
<path d="M229.572 205.252C227.27 203.671 224.882 202.22 222.418 200.906C222.819 200.44 223.243 199.993 223.69 199.572C224.029 199.254 223.515 198.771 223.179 199.061C222.666 199.512 222.191 200.006 221.76 200.536C221.191 200.224 220.594 199.94 219.999 199.628C220.482 199.115 220.996 198.632 221.54 198.183C221.605 198.115 221.64 198.024 221.638 197.93C221.637 197.836 221.598 197.746 221.532 197.68C221.466 197.614 221.376 197.576 221.283 197.574C221.189 197.572 221.098 197.607 221.029 197.672C218.537 199.598 220.407 199.678 216.828 198.127C216.622 175.807 217.04 154.243 214.496 132.151C214.443 131.697 213.734 131.697 213.786 132.151C216.15 152.975 216.143 176.087 216.143 198.155C212.282 198.524 208.392 198.411 204.531 198.808C201.942 184.595 201.256 172.65 198.626 159.092C196.116 146.145 194.905 147.674 197.406 147.821C197.86 147.849 197.86 147.142 197.406 147.112C189.434 146.593 187.175 151.988 185.88 159.745C182.932 177.423 184.536 175.221 183.212 199.064C179.184 198.78 175.007 199.149 171.061 198.183C170.955 198.183 167.18 154.769 171.909 129.142C171.993 128.687 171.311 128.517 171.227 128.943C167.824 146.295 168.606 163.433 169.439 183.195C169.743 190.425 170.251 197.015 170.375 198.325C169.609 198.666 168.814 199.007 168.043 199.375C167.485 198.768 166.877 198.208 166.226 197.701C166.147 197.654 166.053 197.64 165.964 197.662C165.875 197.684 165.798 197.74 165.749 197.818C165.701 197.896 165.685 197.99 165.705 198.08C165.726 198.169 165.78 198.248 165.857 198.297C166.394 198.721 166.906 199.176 167.39 199.66C164.764 200.853 166.211 200.95 164.098 199.091C163.75 198.787 163.242 199.294 163.587 199.603C164.057 200.021 164.503 200.466 164.92 200.937C162.398 202.278 159.936 203.728 157.54 205.283C157.475 205.322 157.425 205.382 157.397 205.452C157.369 205.522 157.364 205.599 157.384 205.672C157.403 205.745 157.445 205.81 157.503 205.858C157.562 205.905 157.635 205.933 157.71 205.936C167.25 206.69 173.776 206.702 181.5 206.702C184.497 206.702 184.68 207.066 184.48 202.898C184.408 201.692 184.227 200.495 183.941 199.321C185.017 183.185 183.599 178.585 186.326 161.536C187.314 155.361 188.552 148.225 195.268 147.767C195.254 147.798 195.247 147.832 195.247 147.866C195.247 147.9 195.254 147.934 195.268 147.965C201.461 167.942 202.442 197.666 203.983 199.208C203.444 201.291 203.261 203.451 203.444 205.595C203.55 206.793 204.261 206.645 205.347 206.645C215.067 206.645 218.651 206.725 229.392 205.903C229.448 205.9 229.502 205.884 229.551 205.857C229.599 205.829 229.641 205.79 229.672 205.744C229.702 205.697 229.722 205.644 229.728 205.588C229.735 205.533 229.728 205.476 229.709 205.424C229.682 205.354 229.634 205.294 229.572 205.252ZM183.666 205.676C183.554 206.562 162.111 205.487 158.742 205.252C160.881 203.881 163.078 202.602 165.327 201.42C165.764 201.979 166.163 202.567 166.52 203.18C166.744 203.579 167.368 203.208 167.144 202.811C166.799 202.206 166.409 201.627 165.978 201.079C166.603 200.767 167.199 200.454 167.824 200.17C168.404 200.862 168.909 201.614 169.329 202.413C169.532 202.808 170.158 202.467 169.953 202.044C169.553 201.265 169.067 200.532 168.505 199.859C169.272 199.489 170.067 199.149 170.837 198.808C174.897 199.802 179.155 199.433 183.271 199.717C183.729 201.668 183.863 203.683 183.666 205.678V205.676ZM205.157 205.96C204.309 205.96 204.106 206.101 204.106 205.449C203.958 203.469 204.112 201.478 204.561 199.544C208.507 199.146 212.511 199.288 216.456 198.862C217.269 199.169 218.066 199.52 218.84 199.913C218.297 200.593 217.821 201.325 217.421 202.099C217.22 202.495 217.819 202.865 218.045 202.468C218.447 201.672 218.933 200.92 219.493 200.226C220.09 200.51 220.686 200.821 221.282 201.134C220.861 201.683 220.482 202.261 220.146 202.865C219.919 203.262 220.548 203.634 220.771 203.235C221.119 202.622 221.509 202.035 221.937 201.474C224.123 202.64 226.252 203.912 228.324 205.279C216.982 206.127 205.051 205.958 205.157 205.958V205.96Z" fill="#501200"/>
<path d="M234.965 101.491C234.859 77.4288 217.986 77.6408 195.079 69.2127L194.369 71.2002C193.745 71.7673 191.507 72.1023 190.651 72.1372C188.833 72.2093 186.931 72.0524 185.824 70.5186C184.425 69.6526 153.176 65.4592 131.176 61.9178C130.288 69.2392 129.701 71.6306 130.608 71.285C143.557 77.2295 157.767 84.0781 171.218 88.9213C172.04 128.777 170.303 129.242 171.601 129.71C180.629 131.514 189.794 132.54 198.997 132.776C206.907 132.867 209.274 132.9 211.717 132.691C215.703 132.348 215.965 132.707 211.895 91.7748C218.583 94.7725 224.331 94.9908 222.562 110.152C222.1 114.112 221.027 121.484 220.375 124.091C223.575 124.588 226.628 125.78 229.318 127.583C233.059 119.394 234.985 110.493 234.965 101.491Z" fill="#CEA6F9"/>
<path d="M121.779 56.5234C121.443 57.6343 123.274 58.3869 124.217 59.3324C125.203 60.3182 122.745 58.0604 118.281 57.0343C117.048 56.7481 115.435 56.2764 114.875 57.4032C114.053 59.0515 118.161 59.466 116.067 59.1914C115.161 59.0738 113.535 58.7674 112.859 59.4755C112.284 60.0755 112.467 61.0973 113.853 61.7471C115.238 62.3969 114.867 61.9029 113.625 62.0301C112.329 62.1637 111.965 63.7346 113.88 64.5285C114.491 64.7851 115.117 65.0024 115.754 65.1815C114.742 65.1815 113.376 65.1677 113.484 66.4026C113.603 67.7679 115.498 67.9873 116.947 68.3043C121.209 69.309 125.577 69.7938 129.956 69.748C130.05 69.748 130.141 69.7106 130.207 69.644C130.274 69.5774 130.311 69.4871 130.311 69.3929C130.311 69.2987 130.274 69.2084 130.207 69.1418C130.141 69.0752 130.05 69.0378 129.956 69.0378C125.542 69.0508 121.142 68.5557 116.841 67.5623C115.829 67.3397 114.488 67.1383 114.229 66.5404C113.888 65.7486 115.085 65.9436 115.762 65.9436H119.568C119.662 65.9436 119.753 65.9062 119.819 65.8396C119.886 65.773 119.923 65.6827 119.923 65.5885C119.923 65.4944 119.886 65.404 119.819 65.3374C119.753 65.2709 119.662 65.2334 119.568 65.2334C113.77 64.6144 108.235 60.9616 120.477 63.9614C120.565 63.9812 120.657 63.9667 120.735 63.9207C120.813 63.8748 120.87 63.801 120.895 63.7143C120.921 63.6275 120.912 63.5345 120.871 63.454C120.83 63.3734 120.76 63.3116 120.675 63.2809C118.334 62.6654 116.038 61.8861 113.806 60.9489C112.458 60.1486 112.631 58.4993 122.095 61.4885C122.549 61.6316 122.693 60.9712 122.294 60.8069C122.188 60.7634 116.122 58.3265 115.963 58.2512C114.977 57.7869 115.278 56.9368 118.603 57.8823C120.886 58.5077 123.045 59.5147 124.99 60.8631C125.16 61.7906 125.189 62.7382 125.076 63.6742C125.047 64.1279 125.75 64.1279 125.786 63.6742C126.195 58.3286 123.622 58.5798 122.521 57.0598C122.317 56.7789 122.521 56.4937 122.839 56.4068C123.751 56.1524 127.989 58.671 130.503 62.2824C130.76 62.6513 131.39 62.3068 131.129 61.9135C129.242 59.1119 122.71 53.442 121.779 56.5234Z" fill="#501200"/>
<path d="M199.14 53.372C199.23 53.3939 199.325 53.3792 199.405 53.3311C199.484 53.2831 199.542 53.2056 199.565 53.1155C199.576 53.0708 199.579 53.0243 199.572 52.9787C199.565 52.9331 199.549 52.8892 199.526 52.8497C199.502 52.8101 199.471 52.7757 199.433 52.7484C199.396 52.7211 199.354 52.7014 199.309 52.6905C198.157 52.3619 196.489 53.0297 196.871 53.5989C197.112 54.2094 197.849 52.9417 199.14 53.372Z" fill="#501200"/>
<path d="M181.51 56.8637C181.708 57.2612 182.335 56.9199 182.134 56.4948C181.769 55.7263 180.976 55.4094 180.374 54.8487C179.208 53.7675 180.346 53.1845 180.715 52.7764C181.847 51.5234 181.552 49.7416 181.254 48.2332C181.164 47.7806 180.484 47.9788 180.573 48.4325C180.947 49.6158 180.886 50.8938 180.402 52.0365C180.019 52.6121 178.355 53.5523 179.636 55.1031C180.175 55.756 181.112 56.074 181.51 56.8627V56.8637Z" fill="#501200"/>
<path d="M185.229 50.174C185.066 50.8334 185.24 51.9071 185.971 51.976C186.501 52.029 186.78 51.2976 186.671 50.6691C186.543 49.961 185.483 49.1511 185.229 50.174Z" fill="#501200"/>
<path d="M176.765 50.5705C176.666 51.2298 176.871 52.1403 177.535 52.2082C178.058 52.2612 178.374 51.4958 178.225 50.8514C178.099 50.3023 176.97 49.184 176.765 50.5705Z" fill="#501200"/>
<path d="M204.475 53.2014C203.3 47.2368 206.627 39.6334 197.604 34.5221C193.882 32.4127 190.271 33.1568 188.382 35.2641C182.925 28.337 164.293 37.9204 173.279 44.2348C171.805 53.0774 170.185 61.4195 170.185 67.5707C170.184 67.6412 170.205 67.7103 170.243 67.7691C170.282 67.8278 170.338 67.8737 170.403 67.9007C170.468 67.9276 170.54 67.9346 170.609 67.9205C170.678 67.9065 170.741 67.8722 170.791 67.822C170.824 67.789 170.85 67.7498 170.868 67.7067C170.886 67.6636 170.895 67.6174 170.895 67.5707C170.879 60.7125 172.256 55.2482 173.932 44.6323C175.298 45.4008 175.402 45.05 175.266 45.456C174.64 54.8476 174.34 57.3364 174.811 60.4168C175.648 65.8726 179.369 70.0978 185.623 68.9328C185.428 69.4226 185.539 69.2879 185.34 69.3876C183.872 70.4153 182.705 71.817 181.961 73.4474C181.449 74.5922 182.629 74.783 183.92 75.6331C188 78.3181 188.796 80.3395 189.03 79.182C189.286 77.3651 189.57 75.578 189.825 73.759C190.848 75.728 192.076 77.5837 193.488 79.2954C193.528 79.3334 193.576 79.3618 193.629 79.3784C193.682 79.395 193.738 79.3993 193.793 79.391C193.847 79.3827 193.9 79.3621 193.945 79.3306C193.991 79.2992 194.029 79.2578 194.056 79.2095C198.265 71.5775 198.04 71.6327 197.916 71.1747C197.197 69.8705 196.111 68.8053 194.794 68.1103C194.296 67.3312 194.038 66.423 194.052 65.4984C194.313 62.9852 197.452 60.8429 196.237 56.4704C201.992 56.6655 202.625 52.3004 201.035 50.7931C199.476 49.3091 197.287 50.615 195.498 50.7358C192.265 50.9542 188.388 48.6752 187.181 42.3046C187.013 41.4216 184.87 43.0953 180.032 44.0303C175.741 44.8571 175.246 44.6366 173.833 43.7366C171.426 42.2018 170.663 39.4712 173.441 36.995C177.446 33.4271 185.419 31.907 188.061 35.9743C188.652 36.8848 188.893 34.4161 192.376 33.9868C196.357 33.4949 201.921 37.3003 203.107 42.3046C203.901 45.6542 203.184 49.1469 203.675 52.5527C204.654 59.3494 211.201 66.6877 207.536 73.3053C207.314 73.7049 207.939 74.0749 208.16 73.6742C211.953 66.8319 205.733 59.5836 204.475 53.2014ZM188.435 78.3234C186.802 76.6664 184.926 75.2687 182.871 74.1788C182.467 73.9668 182.485 73.935 182.614 73.6106C183.248 72.2563 184.203 71.0773 185.397 70.1762C185.531 70.7664 185.824 71.3086 186.244 71.744C186.665 72.1794 187.196 72.4913 187.782 72.646C188.255 72.7658 188.741 72.8326 189.23 72.8442C188.976 74.6632 188.692 76.48 188.437 78.3244L188.435 78.3234ZM194.936 70.7974C195.168 70.2695 195.208 69.677 195.049 69.1226C195.593 69.483 196.088 69.9112 196.526 70.3946C197.361 71.3348 197.399 71.3698 196.837 72.2687C196.635 72.7245 194.894 76.0846 193.657 78.3721C192.287 76.6394 191.107 74.7645 190.137 72.7796C191.765 72.61 194.193 72.4711 194.935 70.808L194.936 70.7974ZM175.972 45.4178C175.972 44.7394 178.386 45.8598 186.561 42.8632C187.976 49.2794 192.235 51.8234 195.844 51.3792C197.371 51.1916 199.879 49.9906 200.784 51.6633C200.934 51.9823 201.014 52.3296 201.019 52.6821C201.024 53.0345 200.953 53.384 200.812 53.707C200.041 55.6924 197.49 55.8652 195.673 55.7517C194.586 55.7517 196.864 57.9131 194.825 61.7937C194.05 63.2661 192.996 64.8041 193.349 66.5637C193.727 68.4452 196.988 71.8637 189.658 72.099C186.665 72.1966 185.57 70.2971 186.252 69.1183C186.289 69.0626 186.307 68.9958 186.302 68.9289C186.296 68.862 186.269 68.7988 186.223 68.7495C187.216 68.5051 188.186 68.1723 189.119 67.7552C189.543 67.575 189.172 66.9528 188.749 67.1298C184.699 68.8343 180.49 69.0198 177.706 65.5981C174.053 61.1206 175.312 54.4988 175.974 45.4231L175.972 45.4178Z" fill="#501200"/>
<path d="M185.288 58.3403C182.093 59.9377 180.223 59.3865 180.717 60.1285C180.717 60.3278 181.699 62.8792 181.853 63.2513C182.794 65.5313 184.671 65.7094 185.601 64.359C186.686 62.7753 186.536 57.876 185.288 58.3403Z" fill="#501200"/>
<path d="M186.478 46.9845C186.711 47.276 187.318 46.9665 186.989 46.4736C186.099 45.3489 184.239 45.2175 184.32 45.8206C184.324 45.9096 184.355 45.9953 184.409 46.0659C184.463 46.1365 184.538 46.1885 184.623 46.2149C184.679 46.2327 184.738 46.2389 184.797 46.233C185.118 46.2044 185.441 46.2584 185.735 46.39C186.03 46.5215 186.285 46.7262 186.478 46.9845Z" fill="#501200"/>
<path d="M176.371 48.177C176.455 48.2176 176.552 48.2266 176.642 48.2026C176.733 48.1785 176.812 48.1228 176.866 48.0455C177.176 47.619 177.64 47.3301 178.16 47.2399C179.063 47.2399 178.842 46.5297 178.444 46.5297C177.108 46.534 175.69 47.8367 176.371 48.177Z" fill="#501200"/>
<path d="M171.517 84.4014C171.11 84.4014 171.033 84.8699 171.033 87.9217C171.033 87.9922 171.053 88.0612 171.092 88.12C171.131 88.1788 171.187 88.2246 171.252 88.2516C171.317 88.2786 171.389 88.2855 171.458 88.2715C171.527 88.2575 171.59 88.2231 171.64 88.1729C171.673 88.1399 171.699 88.1008 171.717 88.0577C171.734 88.0146 171.744 87.9683 171.743 87.9217C171.743 84.835 172.127 84.4014 171.517 84.4014Z" fill="#501200"/>
<path d="M212.255 91.9529C211.619 89.3622 212.361 88.4326 211.658 88.4326C210.883 88.4326 211.409 91.4006 211.602 92.1511C211.683 92.5772 212.367 92.4066 212.255 91.9529Z" fill="#501200"/>
<path d="M232.239 139.419C232.863 133.987 230.217 131.197 229.059 130.767C229.27 129.729 229.452 128.686 229.605 127.638C229.605 127.24 228.895 127.268 228.839 127.694C228.616 129.36 227.744 135.31 226.113 136.012C225.822 136.137 225.772 136.056 225.772 134.99C225.771 134.421 225.81 133.852 225.886 133.287C225.908 133.197 225.895 133.103 225.85 133.023C225.804 132.943 225.729 132.883 225.641 132.857C225.552 132.831 225.457 132.841 225.376 132.884C225.294 132.927 225.233 133 225.204 133.088C224.468 134.957 224.28 135.908 223.932 135.699C223.614 135.51 224.48 132.924 224.529 132.634C224.551 132.544 224.538 132.45 224.493 132.37C224.447 132.29 224.372 132.23 224.284 132.204C224.196 132.178 224.1 132.188 224.019 132.231C223.937 132.274 223.876 132.348 223.847 132.435C223.729 132.765 223.245 134.849 222.144 135.103C221.502 135.252 221.932 134.068 222.087 133.429C223.395 131.074 221.973 131.078 221.973 131.583C222.093 131.583 221.792 131.757 221.434 133.116C221.127 133.73 220.393 134.694 219.73 134.394C218.847 134.054 220.762 129.694 219.872 129.568C219.814 129.555 217.663 129.163 217.629 129.113C217.56 129.007 218.133 124.845 220.667 124.401C221.123 124.321 220.924 123.638 220.469 123.719C218.343 124.1 217.476 126.317 217.034 128.432C216.993 128.609 216.965 128.789 216.948 128.97C216.32 129.083 215.721 129.318 215.185 129.664C214.649 130.01 214.187 130.459 213.826 130.984C213.013 132.206 212.48 133.592 212.265 135.043C209.219 134.338 206.107 133.958 202.981 133.908C200.525 134.387 200.269 136.525 196.939 147.251C192.04 163.012 195.704 162.556 203.497 164.795C232.234 173.049 233.932 173.158 235.86 171.267C236.907 170.24 237.365 167.332 239.636 157.357C243.292 141.235 242.818 142.252 232.239 139.419ZM215.888 135.756C215.99 135.026 216.341 134.353 216.882 133.851C217.423 133.349 218.12 133.048 218.856 133C218.676 134.191 218.737 134.835 219.517 135.099C219.796 135.175 220.09 135.175 220.369 135.101C220.648 135.026 220.903 134.879 221.107 134.675C221.034 136.068 222.327 136.096 223.18 135.243C223.013 136.653 224.464 136.852 225.054 135.527C225.054 135.499 225.081 135.47 225.081 135.414C225.081 137.504 226.954 136.822 227.681 135.389H227.693C228.109 135.306 228.317 137.998 228.317 138.454C222.139 136.999 219.987 136.614 215.888 135.756Z" fill="#501200"/>
<path d="M240.331 152.534C240.119 152.428 199.381 142.058 198.968 142.201C198.556 142.344 198.713 142.968 199.082 142.91C199.188 142.946 202.593 143.701 206.491 144.727C206.403 144.86 205.588 147.564 206.122 148.531C206.675 149.531 208.29 149.388 208.932 147.708C209.082 147.32 209.505 145.571 209.529 145.465C228.369 150.167 228.322 150.093 228.322 150.348C226.616 155.465 229.982 155.265 230.82 153.074C231.051 152.375 231.241 151.664 231.389 150.944C231.426 150.955 240.054 153.17 240.018 153.158C240.388 153.358 240.726 152.739 240.331 152.534Z" fill="white"/>
<path d="M186.648 5.61802C186.562 5.16328 185.881 5.36256 185.966 5.81624C187.201 12.331 188.096 18.249 188.861 24.2412C188.916 24.6652 189.629 24.6652 189.572 24.2125C189.678 24.2168 188.394 14.9354 186.648 5.61802Z" fill="#FF7449"/>
<path d="M206.152 5.73565C206.317 5.31165 205.622 5.11344 205.47 5.53638C203.158 12.1087 201.197 18.7989 199.593 25.5789C199.487 26.0357 200.161 26.2318 200.275 25.7781C201.656 18.9412 203.622 12.2357 206.152 5.73565Z" fill="#FF7449"/>
<path d="M224.064 14.31C224.406 13.9994 223.889 13.5097 223.553 13.7991C218.345 18.2786 212.89 23.4546 208.166 27.9363C207.882 28.2543 208.365 28.7599 208.705 28.4472C208.861 28.4462 209.513 27.5261 224.064 14.31Z" fill="#FF7449"/>
<path d="M249.188 149.127C249.101 149.582 249.783 149.751 249.87 149.326C250.401 146.589 250.293 143.766 249.555 141.078C248.816 138.389 247.467 135.908 245.612 133.826C245.294 133.462 244.788 133.968 245.1 134.308C245.469 134.308 250.804 140.685 249.188 149.127Z" fill="#501200"/>
<path d="M256.144 151.115C255.996 151.539 256.674 151.737 256.825 151.314C257.804 148.546 258.156 145.594 257.857 142.673C257.557 139.752 256.614 136.934 255.094 134.422C254.839 133.998 254.213 134.366 254.468 134.763C254.785 134.763 259.128 142.576 256.144 151.115Z" fill="#501200"/>
<path d="M169.189 175.103C161.783 147.276 153.588 119.445 148.663 103.88C150.7 99.8891 151.568 97.7648 155.619 96.584C164.11 94.1089 157.968 85.8992 160.757 80.1179C162.228 77.0694 165.046 74.5667 165.129 71.2044C165.215 67.7064 162.207 65.1624 160.53 62.2622C158.622 58.955 159.283 55.6637 158.798 52.0704C158.112 46.9887 155.194 46.11 152.241 44.6323C148.184 42.6035 147.25 39.4606 144.831 36.1163C139.328 28.5065 135.345 32.9617 130.864 32.1413C126.756 31.3898 123.809 26.5233 119.253 27.0035C114.801 27.4678 111.952 32.2293 107.556 32.5155C104.945 32.6829 102.246 31.6537 99.6648 32.4593C95.2594 33.8373 95.3347 39.3726 92.2268 42.083C88.9068 44.9779 83.2592 43.7886 80.7289 49.521C79.8217 51.5103 79.6802 53.7643 80.3314 55.8514C80.2782 55.9137 80.2466 55.9916 80.2414 56.0734C80.2363 56.1553 80.2578 56.2365 80.3028 56.305C82.7779 60.9002 75.8646 65.4009 77.0666 70.7274C77.8765 74.3123 81.1519 76.5065 81.8642 80.3225C82.5596 84.0389 81.1127 88.4082 81.7232 92.4447C82.9019 100.243 88.4871 98.4602 91.3692 100.734C92.1209 101.357 92.7805 102.084 93.3281 102.892C80.9187 125.052 70.0887 144.257 60.0568 165.063C59.9084 165.372 60.1713 165.86 60.5391 165.716C66.941 163.197 73.1392 160.189 79.0785 156.717C80.606 163.34 82.4812 169.879 84.6965 176.306C84.7237 176.384 84.7719 176.453 84.8359 176.506C84.9 176.559 84.9773 176.593 85.0594 176.605C85.1416 176.616 85.2253 176.605 85.3016 176.573C85.3778 176.54 85.4435 176.487 85.4915 176.419C97.8554 156.844 107.139 134.252 116.405 114.077C119.32 115.48 121.952 115.17 124.894 113.759C129.894 136.26 133.981 157.916 141.898 180.751C141.917 180.811 141.948 180.867 141.99 180.914C142.032 180.961 142.083 180.999 142.14 181.025C142.198 181.051 142.26 181.065 142.323 181.065C142.386 181.065 142.448 181.051 142.506 181.026C142.582 180.991 142.647 180.935 142.693 180.865C146.207 175.043 149.421 169.046 152.322 162.897C157.402 167.519 162.824 171.751 168.54 175.557C168.611 175.605 168.695 175.631 168.781 175.63C168.867 175.629 168.95 175.602 169.021 175.553C169.091 175.504 169.145 175.435 169.174 175.355C169.205 175.275 169.21 175.187 169.189 175.103Z" fill="#F15929"/>
<path d="M151.019 63.2513C145.693 41.2181 118.621 31.5 101.14 48.035C80.5059 67.5527 88.2079 100.416 118.884 103.308C144.605 105.733 155.891 83.4072 151.018 63.2513H151.019ZM141.311 96.2671C131.901 104.478 115.798 104.315 105.059 98.4252C80.2791 84.8371 90.0184 48.9783 113.121 41.8212C119.207 40.0444 125.703 40.2777 131.646 42.4863C137.588 44.6949 142.66 48.7611 146.108 54.0812C154.599 67.1362 152.174 86.7886 141.311 96.2671Z" fill="white"/>
<path d="M107.5 109.128C102.073 108.108 100.735 110.418 94.0147 103.616C93.6193 103.216 92.9939 103.842 93.3903 104.24C99.9708 110.864 101.764 109.322 106.11 109.804C109.533 110.222 112.748 111.668 115.332 113.95C115.756 114.322 116.382 113.697 115.958 113.325C113.566 111.192 110.645 109.743 107.5 109.128Z" fill="white"/>
<path d="M147.925 104.642C142.184 112.635 132.708 102.647 125.811 113.045C125.493 113.524 126.266 113.955 126.577 113.499C133.323 103.592 142.004 113.635 148.663 105.068C148.998 104.638 148.247 104.198 147.925 104.642Z" fill="white"/>
<path d="M132.818 69.0992C130.468 68.5821 128.07 68.3156 125.664 68.3042C124.787 66.1132 122.672 62.4742 121.462 59.7309C121.422 59.6656 121.365 59.6117 121.298 59.5743C121.231 59.537 121.156 59.5173 121.079 59.5173C121.002 59.5173 120.927 59.537 120.86 59.5743C120.793 59.6117 120.736 59.6656 120.696 59.7309C119.262 62.5843 117.983 65.5127 116.864 68.5035C114.394 68.4176 111.953 68.4749 109.482 68.5035C109.143 68.5035 108.859 68.9847 109.17 69.2455C110.954 70.7147 112.617 72.7212 113.968 74.0717C114.595 74.6992 115.097 74.2922 113.599 78.7844C113.121 80.097 112.741 81.4434 112.463 82.8124C112.443 82.8966 112.448 82.9849 112.477 83.0662C112.507 83.1475 112.56 83.2182 112.63 83.2697C112.699 83.3211 112.782 83.3509 112.869 83.3553C112.955 83.3598 113.041 83.3387 113.116 83.2947C115.675 81.7111 118.426 80.4847 120.809 78.582C122.823 80.3426 125.079 81.8044 127.169 83.5216C127.239 83.5876 127.328 83.6294 127.423 83.6409C127.518 83.6524 127.614 83.6329 127.698 83.5853C127.781 83.5377 127.847 83.4646 127.885 83.3768C127.924 83.2889 127.933 83.191 127.911 83.0976C127.593 80.7656 127.23 78.4696 127.088 76.1132C129.16 74.0992 130.948 71.798 133.078 69.8391C133.118 69.7754 133.144 69.7034 133.153 69.6283C133.161 69.5533 133.153 69.4772 133.128 69.406C133.103 69.3347 133.062 69.27 133.008 69.2169C132.955 69.1638 132.889 69.1235 132.818 69.0992Z" fill="white"/>
<defs>
<linearGradient id="paint0_linear_21297_22860" x1="322.784" y1="-49.9885" x2="1.57882" y2="-84.1927" gradientUnits="userSpaceOnUse">
<stop stop-color="#F5AE4C"/>
<stop offset="1" stop-color="#9745FF"/>
</linearGradient>
</defs>
</svg>
