<svg width="300" height="300" viewBox="0 0 300 300" fill="none" xmlns="http://www.w3.org/2000/svg">
<path d="M219.043 163.5C209.374 153.354 183.979 139.833 171.745 133.113C167.587 140.151 152.28 141.081 143.787 138.5C139.285 141.974 135.905 146.696 134.067 152.078C136.201 155.169 134.067 165.668 133.26 173.34C134.382 179.568 136.084 185.678 138.343 191.589C133.693 186.402 128.824 181.301 124.891 177.425C108.091 167.433 111.898 169.625 105.825 166.082C105.026 166.487 104.255 166.944 103.516 167.45C99.8356 169.938 96.8341 173.306 94.7838 177.248C92.7334 181.188 91.699 185.58 91.7743 190.022C94.1458 191.972 126.181 215.222 139.597 223.908C155.472 234.14 166.587 228.582 168.211 214.076C169.032 206.537 171.766 171.213 171.916 169.188C176.095 173.616 189.189 184.089 195.4 185.604C194.992 189.888 190.834 225.914 190.555 228.24C198.205 234.659 212.419 236.355 218.827 233.399C220.399 224.099 224.121 190.688 224.641 179.448C224.898 173.85 224.766 169.5 219.043 163.5Z" fill="#F15929"/>
<path d="M216.291 47.0461C213.591 47.5861 213.291 54.8461 213.27 57.6196C216.322 57.2591 219.418 57.6718 222.27 58.8196C220.765 51.7201 218.371 46.7896 216.291 47.0461Z" fill="#F15929"/>
<path d="M223.786 71.0145C221.307 72.8124 218.421 73.9679 215.386 74.3775C216.06 77.0055 218.14 84.0645 220.83 83.8965C222.9 83.64 224.014 78.282 223.786 71.0145Z" fill="#F15929"/>
<path d="M202.668 61.3816L186.907 63.3196C185.425 65.9416 185.857 71.2996 187.563 74.1496C188.763 73.2661 191.463 73.0096 193.662 72.7816C195.486 72.6106 195.856 73.1806 196.141 74.2066C196.198 74.4061 196.227 74.6056 196.284 74.8336C197.622 74.0356 200.395 73.0981 201.414 73.6081L204.114 73.2661C201.75 70.9291 200.958 64.3741 202.668 61.3816Z" fill="#F15929"/>
<path d="M116.427 250.65L107.905 244.665C106.949 243.996 106.297 242.975 106.093 241.826C105.89 240.675 106.151 239.492 106.82 238.535C107.489 237.579 108.511 236.927 109.66 236.723C110.81 236.52 111.993 236.781 112.95 237.45L114.261 238.362L115.173 237.051C115.842 236.096 116.863 235.443 118.012 235.241C119.162 235.038 120.344 235.299 121.3 235.968C122.257 236.637 122.908 237.659 123.111 238.808C123.314 239.957 123.052 241.14 122.383 242.096L116.427 250.65Z" fill="#F15929"/>
<path d="M83.994 84.0104C87.7716 84.0104 90.8341 80.948 90.8341 77.1704C90.8341 73.3928 87.7716 70.3304 83.994 70.3304C80.2164 70.3304 77.1541 73.3928 77.1541 77.1704C77.1541 80.948 80.2164 84.0104 83.994 84.0104Z" fill="#E9E9E9"/>
<path d="M209.878 234.775C204.07 234.633 198.39 233.046 193.348 230.158C191.838 234.808 188.988 237.882 187.962 240.19C192.408 249.538 210.049 265.24 220.252 271.39C219.636 254.727 209.298 246.975 209.878 234.775Z" fill="#E9E9E9"/>
<path d="M98.073 162.728C99.5265 163.697 101.179 165.606 103.488 167.459C100.536 169.484 98.0146 172.071 96.0679 175.074C94.1211 178.079 92.7879 181.437 92.145 184.958C83.7945 186.069 74.76 191.057 61.845 189.261C66.21 181.367 88.1265 165.492 98.073 162.728Z" fill="#E9E9E9"/>
<path d="M135.693 183.675C136.434 186.183 137.317 188.833 138.343 191.598C133.693 186.439 128.824 181.309 124.891 177.376C129.423 180.055 133.413 182.4 135.693 183.675Z" fill="#E9E9E9"/>
<path d="M171.888 169.2C171.631 172.306 171.375 175.783 171.09 179.4C172.999 179.884 186.508 183.418 193.063 185.071C185.362 180.696 178.248 175.363 171.888 169.2Z" fill="#E9E9E9"/>
<path d="M171.346 123.397C172.686 127.501 174.256 131.526 176.049 135.453C174.652 134.683 173.227 133.914 171.745 133.116C171.688 129.468 171.546 126.247 171.346 123.397Z" fill="#E9E9E9"/>
<path d="M105.426 147.366C104.226 149.446 103.972 151.356 104.826 152.466C105.709 153.577 107.305 154.005 110.554 153.007C108.53 151.44 106.794 149.53 105.426 147.366Z" fill="#E9E9E9"/>
<path d="M125.775 139.528C126.096 140.077 126.207 140.724 126.086 141.348C125.966 141.972 125.622 142.531 125.12 142.92C123.267 141.096 121.557 139.386 120.104 137.82C123.384 137.389 124.781 138.325 125.775 139.528Z" fill="#E9E9E9"/>
<path d="M133.84 114.648C132.509 117.448 131.034 120.179 129.423 122.828C127.2 120.578 125.233 118.695 123.894 117.578C127.855 116.387 131.7 115.247 133.84 114.648Z" fill="#E9E9E9"/>
<path d="M180.466 98.2605C177.702 98.8305 175.678 99.999 175.764 101.082C175.764 102.673 180.696 103.141 180.894 103.162C180.808 102.136 180.637 100.312 180.466 98.2605Z" fill="#E9E9E9"/>
<path d="M202.126 99.4291C202.071 100.398 200.131 101.51 196.939 102.308C196.825 101.31 196.426 99.2866 196.027 97.2631C200.388 97.5766 202.185 98.4316 202.126 99.4291Z" fill="#E9E9E9"/>
<path d="M201.841 87.459C200.733 88.1631 199.491 88.6289 198.193 88.827C196.027 89.169 194.545 87.345 197.709 85.4925C195.4 85.9425 193.548 84.039 196.911 81.9015C196.639 81.8982 196.369 81.8501 196.113 81.759C195.429 82.4715 194.118 81.93 192.864 77.0565C193.395 79.0911 193.414 81.2255 192.921 83.2695C193.038 86.3226 193.878 89.3045 195.372 91.9695C195.43 92.1027 195.507 92.2274 195.6 92.34C198.078 91.7678 200.458 90.8364 202.668 89.5755C202.326 88.8978 202.048 88.1891 201.841 87.459Z" fill="#E9E9E9"/>
<path d="M175.65 59.3295C180.495 57.5625 178.358 51.72 174.909 50.523C178.386 48.7845 177.332 42.771 172.971 42.999C175.422 39.7215 173.456 35.133 168.411 35.8455C169.067 31.6845 166.217 28.9455 161.714 30.858C161.828 26.184 156.164 24.1605 153.648 27.2955C152.598 22.6785 147.464 20.9955 143.588 25.4955C142.538 20.793 135.066 20.6505 134.382 25.3815C131.219 21.3315 124.265 23.643 124.749 28.26C120.446 23.8425 114.603 28.6875 114.999 33.51C110.525 31.002 106.392 37.1865 108.249 41.205C102.578 42.0315 101.349 47.505 105 50.805C99.6705 52.686 100.44 57.873 103.917 60.267C99.8415 63.06 100.839 68.6175 105.684 69.3585C102.207 73.2585 105.912 79.6185 110.672 78.7065C108.021 83.124 111.641 87.9975 116.372 86.0565C115.967 87.1857 115.989 88.4241 116.435 89.5377C116.881 90.6511 117.72 91.5627 118.793 92.1C122.184 90.8745 130.25 87.825 130.25 87.825C139.541 84.2055 141.764 77.166 143.559 69.8415C138.401 68.1915 140.652 63.03 143.246 65.025C145.725 66.9345 144.927 64.3695 144.671 61.6335C147.984 60.6634 151.398 60.0801 154.845 59.895C159.066 72.6045 158.348 78.813 153.212 78.5805C150.743 78.2281 148.377 77.3592 146.267 76.0305C146.975 77.809 148.02 79.4341 149.345 80.817C149.345 83.7765 151.436 87.5265 155.871 89.9955L157.467 90.879C158.237 91.3065 159.092 91.791 159.975 92.3325C161.006 92.0673 161.897 91.4175 162.464 90.5166C163.031 89.6155 163.232 88.5318 163.025 87.4875C163.917 88.0729 164.97 88.3639 166.035 88.3195C167.102 88.2751 168.126 87.8976 168.968 87.24C169.808 86.5824 170.42 85.6777 170.718 84.6537C171.018 83.6295 170.988 82.5373 170.634 81.531C175.593 81.474 176.249 76.002 173.598 73.38C177.788 72.3825 177.617 68.2215 174.539 66.54C178.415 65.3145 178.614 61.011 175.65 59.3295Z" fill="#E9E9E9"/>
<path d="M192.094 214.911L167.043 219.328" stroke="black" stroke-width="1.125" stroke-linecap="round" stroke-linejoin="round"/>
<path d="M219.341 83.3265L241.029 206.276L221.849 209.667" stroke="black" stroke-width="1.125" stroke-linecap="round" stroke-linejoin="round"/>
<path d="M172.686 75.147L181.806 73.5225" stroke="black" stroke-width="1.125" stroke-linecap="round" stroke-linejoin="round"/>
<path d="M83.196 111.912L79.605 91.563L111.71 85.8934" stroke="black" stroke-width="1.125" stroke-linecap="round" stroke-linejoin="round"/>
<path d="M92.5438 164.95L86.6729 131.605" stroke="black" stroke-width="1.125" stroke-linecap="round" stroke-linejoin="round"/>
<path d="M139.939 224.117L104.086 230.444L97.731 194.477" stroke="black" stroke-width="1.125" stroke-linecap="round" stroke-linejoin="round"/>
<path d="M268.189 278.1L227.007 44.55C226.56 42.0037 225.616 39.5706 224.227 37.3899C222.84 35.209 221.035 33.3234 218.917 31.8409C216.799 30.3585 214.41 29.3083 211.885 28.7505C209.362 28.1926 206.752 28.138 204.207 28.59L168.597 34.8631M98.13 278.1L82.0776 187.434M102.983 46.422L77.9235 50.8365C75.3762 51.2829 72.9418 52.227 70.7596 53.6145C68.5773 55.0021 66.6898 56.8062 65.205 58.9236C63.7203 61.041 62.6671 63.4302 62.1061 65.9547C61.545 68.4792 61.4869 71.0895 61.935 73.6365V73.665L79.5226 173.002" stroke="black" stroke-width="1.125" stroke-linecap="round" stroke-linejoin="round"/>
<path d="M263.629 102.421C267.627 102.421 270.868 99.1804 270.868 95.1825C270.868 91.1845 267.627 87.9435 263.629 87.9435C259.632 87.9435 256.39 91.1845 256.39 95.1825C256.39 99.1804 259.632 102.421 263.629 102.421Z" stroke="black" stroke-width="1.125" stroke-linecap="round" stroke-linejoin="round"/>
<path d="M285.261 117.299C289.258 117.299 292.5 114.058 292.5 110.06C292.5 106.062 289.258 102.821 285.261 102.821C281.263 102.821 278.022 106.062 278.022 110.06C278.022 114.058 281.263 117.299 285.261 117.299Z" stroke="black" stroke-width="1.125" stroke-linecap="round" stroke-linejoin="round"/>
<path d="M260.95 121.716L287.883 83.241" stroke="black" stroke-width="1.125" stroke-linecap="round" stroke-linejoin="round"/>
<path d="M288.45 42.6855C287.73 42.1683 286.836 41.9561 285.96 42.0948C285.085 42.2336 284.301 42.7121 283.776 43.4265L283.063 44.3955C283.063 44.3955 282.013 43.6545 281.98 43.626C281.244 43.1478 280.348 42.9786 279.487 43.1549C278.626 43.331 277.869 43.8384 277.38 44.5679C276.889 45.2972 276.705 46.1898 276.868 47.0534C277.03 47.9168 277.525 48.6819 278.247 49.1835L284.716 53.715L289.248 47.2455C289.731 46.5297 289.917 45.6549 289.768 44.8047C289.62 43.9544 289.147 43.1949 288.45 42.6855Z" stroke="black" stroke-width="1.125" stroke-linecap="round" stroke-linejoin="round"/>
<path d="M145.981 241.986C146.607 240.684 146.806 239.218 146.551 237.796C146.417 236.151 145.788 234.585 144.747 233.304C143.707 232.023 142.302 231.085 140.719 230.617C139.136 230.149 137.449 230.17 135.878 230.679C134.308 231.187 132.928 232.158 131.919 233.466C130.911 234.772 130.322 236.355 130.229 238.003C130.137 239.65 130.545 241.288 131.4 242.7C132.256 244.113 133.518 245.233 135.022 245.914C136.525 246.595 138.2 246.805 139.825 246.517C141.479 246.226 143.012 245.464 144.243 244.323L147.834 245.092L145.981 241.986Z" stroke="black" stroke-width="1.125" stroke-linecap="round" stroke-linejoin="round"/>
<path d="M230.598 231.926L236.811 224.687L245.105 229.361L242.511 214.712L228.005 217.277L230.598 231.926Z" stroke="black" stroke-width="1.125" stroke-linecap="round" stroke-linejoin="round"/>
<path d="M94.71 75.2894L104.296 73.5994" stroke="black" stroke-width="1.125" stroke-linecap="round" stroke-linejoin="round"/>
<path d="M31.8389 180.397C33.8064 180.397 35.4014 178.803 35.4014 176.835C35.4014 174.867 33.8064 173.272 31.8389 173.272C29.8713 173.272 28.2764 174.867 28.2764 176.835C28.2764 178.803 29.8713 180.397 31.8389 180.397Z" stroke="black" stroke-width="1.125" stroke-linecap="round" stroke-linejoin="round"/>
<path d="M53.1001 176.635C55.0676 176.635 56.6626 175.041 56.6626 173.073C56.6626 171.105 55.0676 169.51 53.1001 169.51C51.1325 169.51 49.5376 171.105 49.5376 173.073C49.5376 175.041 51.1325 176.635 53.1001 176.635Z" stroke="black" stroke-width="1.125" stroke-linecap="round" stroke-linejoin="round"/>
<path d="M35.3159 176.208L49.5944 173.7" stroke="black" stroke-width="1.125" stroke-linecap="round" stroke-linejoin="round"/>
<path d="M7.5 144.345L15.252 142.977L30.2715 173.643" stroke="black" stroke-width="1.125" stroke-linecap="round" stroke-linejoin="round"/>
<path d="M27.7351 168.485L54.411 160.875L57.4036 146.426L20.1541 153.009" stroke="black" stroke-width="1.125" stroke-linecap="round" stroke-linejoin="round"/>
<path d="M33.2068 83.7256L36.2848 101.196" stroke="black" stroke-width="1.125" stroke-linecap="round" stroke-linejoin="round"/>
<path d="M43.4954 90.936L26.0249 94.014" stroke="black" stroke-width="1.125" stroke-linecap="round" stroke-linejoin="round"/>
<path d="M274.089 150.53L279.475 181.196" stroke="black" stroke-width="1.125" stroke-linecap="round" stroke-linejoin="round"/>
<path d="M292.13 163.183L261.435 168.57" stroke="black" stroke-width="1.125" stroke-linecap="round" stroke-linejoin="round"/>
<path d="M196.94 102.279C196.712 100.17 195.116 93.4726 195.372 91.9291" stroke="black" stroke-width="1.125" stroke-linecap="round" stroke-linejoin="round"/>
<path d="M192.949 83.526C193.197 86.6166 194.1 89.6189 195.6 92.3325C198.082 91.773 200.464 90.8409 202.668 89.568C202.321 88.9047 202.045 88.2075 201.841 87.4875" stroke="black" stroke-width="1.125" stroke-linecap="round" stroke-linejoin="round"/>
<path d="M223.815 71.0145C224.043 78.282 222.903 83.646 220.851 83.8965C218.23 84.2175 215.094 76.23 213.84 66.0555C212.586 55.881 213.697 47.364 216.319 47.046C218.4 46.7925 220.794 51.72 222.304 58.8165" stroke="black" stroke-width="1.125" stroke-linecap="round" stroke-linejoin="round"/>
<path d="M204.121 73.266C201.756 70.929 200.958 64.374 202.668 61.3815" stroke="black" stroke-width="1.125" stroke-linecap="round" stroke-linejoin="round"/>
<path d="M187.563 74.1496C185.853 71.2996 185.425 65.9416 186.907 63.3196" stroke="black" stroke-width="1.125" stroke-linecap="round" stroke-linejoin="round"/>
<path d="M213.3 57.6195C220.51 56.907 226.723 59.8695 227.265 64.431C227.806 68.9925 222.534 73.3515 215.352 74.3775" stroke="black" stroke-width="1.125" stroke-linecap="round" stroke-linejoin="round"/>
<path d="M201.414 73.608L204.121 73.266L219.597 83.4975" stroke="black" stroke-width="1.125" stroke-linecap="round" stroke-linejoin="round"/>
<path d="M215.208 47.73L202.668 61.38L185.653 63.4605C178.186 64.3725 178.813 75.6015 186.366 75.402" stroke="black" stroke-width="1.125" stroke-linecap="round" stroke-linejoin="round"/>
<path d="M180.466 98.2605C177.673 98.8305 175.678 99.999 175.764 101.054C175.878 102.45 179.469 103.695 189.33 103.276C196.854 102.957 202.05 101.026 202.126 99.4005C202.171 98.43 200.359 97.548 196.027 97.2345" stroke="black" stroke-width="1.125" stroke-linecap="round" stroke-linejoin="round"/>
<path d="M125.119 142.95C125.623 142.562 125.968 142.003 126.089 141.378C126.209 140.754 126.098 140.107 125.775 139.558C124.462 137.496 119.842 136.528 112.75 140.556C106.191 144.28 102.991 150.147 104.827 152.497C105.69 153.603 107.307 154.036 110.556 153.039" stroke="black" stroke-width="1.125" stroke-linecap="round" stroke-linejoin="round"/>
<path d="M120.075 137.818C123.409 141.409 128.005 145.705 132.928 150.444C133.719 151.267 134.311 152.26 134.662 153.346C135.012 154.432 135.112 155.584 134.952 156.714C134.781 159.222 133.185 173.7 132.928 175.752C132.586 178.315 129.628 179.683 129.822 160.989" stroke="black" stroke-width="1.125" stroke-linecap="round" stroke-linejoin="round"/>
<path d="M105.426 147.338C106.868 149.724 108.798 151.778 111.09 153.366C113.382 154.953 115.984 156.039 118.725 156.551" stroke="black" stroke-width="1.125" stroke-linecap="round" stroke-linejoin="round"/>
<path d="M119.25 155.203C119.079 155.745 118.167 157.882 118.05 158.203" stroke="black" stroke-width="1.125" stroke-linecap="round" stroke-linejoin="round"/>
<path d="M114.403 155.26C114.204 157.569 114.688 160.446 116.883 161.901C119.59 163.701 120.759 162.841 123.552 156.856" stroke="black" stroke-width="1.125" stroke-linecap="round" stroke-linejoin="round"/>
<path d="M120.218 162.271C123.41 164.152 124.835 163.525 127.542 157.198" stroke="black" stroke-width="1.125" stroke-linecap="round" stroke-linejoin="round"/>
<path d="M124.208 162.727C127.115 164.377 128.825 164.038 131.532 157.398" stroke="black" stroke-width="1.125" stroke-linecap="round" stroke-linejoin="round"/>
<path d="M122.7 152.867C125.765 152.831 128.83 152.981 131.877 153.317" stroke="black" stroke-width="1.125" stroke-linecap="round" stroke-linejoin="round"/>
<path d="M106.167 116.957C110.784 121.8 123.181 136.451 125.775 139.5" stroke="black" stroke-width="1.125" stroke-linecap="round" stroke-linejoin="round"/>
<path d="M110.528 121.8C113.577 120.717 128.625 116.1 133.841 114.646C132.501 117.439 131.019 120.175 129.423 122.826" stroke="black" stroke-width="1.125" stroke-linecap="round" stroke-linejoin="round"/>
<path d="M133.242 173.215C134.563 180.394 136.607 187.422 139.341 194.191" stroke="black" stroke-width="1.125" stroke-linecap="round" stroke-linejoin="round"/>
<path d="M123.9 117.612C128.004 121.003 137.808 131.52 143.793 138.502C139.292 141.942 135.919 146.645 134.103 152.011" stroke="black" stroke-width="1.125" stroke-linecap="round" stroke-linejoin="round"/>
<path d="M98.1299 145.228C97.5599 139.243 109.102 128.698 118.479 130.978" stroke="black" stroke-width="1.125" stroke-linecap="round" stroke-linejoin="round"/>
<path d="M180.922 103.162C180.808 101.281 180.267 96.7785 180.181 92.988C180.039 86.661 180.492 85.092 182.119 82.038C183.595 79.2438 185.394 76.6324 187.477 74.2575C188.602 73.275 191.439 73.011 193.719 72.804C195.543 72.639 195.897 73.1985 196.198 74.229C196.647 76.2388 196.83 78.2991 196.74 80.3565C196.68 82.095 194.745 84.147 192.949 77.0565C193.861 81.303 193.434 85.0065 190.071 87.2565" stroke="black" stroke-width="1.125" stroke-linecap="round" stroke-linejoin="round"/>
<path d="M201.813 80.1915C203.323 80.733 203.338 82.806 201.756 83.868C200.53 84.6788 199.152 85.2315 197.706 85.4925C195.393 85.9245 193.545 84.039 196.908 81.9015" stroke="black" stroke-width="1.125" stroke-linecap="round" stroke-linejoin="round"/>
<path d="M201.75 83.8679C202.085 84.0299 202.367 84.2809 202.568 84.593C202.767 84.905 202.878 85.2664 202.887 85.6373C202.896 86.0083 202.803 86.3744 202.617 86.6957C202.431 87.0172 202.161 87.2812 201.836 87.4589C200.729 88.1647 199.487 88.6307 198.188 88.8269C196.02 89.1629 194.54 87.3449 197.703 85.4924" stroke="black" stroke-width="1.125" stroke-linecap="round" stroke-linejoin="round"/>
<path d="M196.398 74.805C197.688 74.0365 199.144 73.5889 200.644 73.5C202.752 73.3755 202.924 76.2 200.901 77.0055C199.584 77.6005 198.178 77.976 196.74 78.117" stroke="black" stroke-width="1.125" stroke-linecap="round" stroke-linejoin="round"/>
<path d="M201.557 76.6005C203.067 77.2275 203.067 79.3935 201.414 80.4765C200.588 81.018 197.994 82.2765 196.227 81.759" stroke="black" stroke-width="1.125" stroke-linecap="round" stroke-linejoin="round"/>
<path d="M161.514 97.833C166.245 102.251 171.346 106.127 171.774 133.116C224.043 161.36 225.211 167.544 224.67 179.457C224.157 190.743 220.338 224.886 218.82 233.379C212.436 236.343 198.243 234.633 190.548 228.221C191.517 219.671 195.108 188.805 195.393 185.621C190.576 184.452 173.277 179.921 171.111 179.379" stroke="black" stroke-width="1.125" stroke-linecap="round" stroke-linejoin="round"/>
<path d="M191.724 218.359C196.854 224.031 211.845 226.995 220.224 223.66" stroke="black" stroke-width="1.125" stroke-linecap="round" stroke-linejoin="round"/>
<path d="M172.771 158.424C172.087 166.374 169.285 204.307 168.183 214.084C166.546 228.589 155.433 234.169 139.569 223.917C126.192 215.269 94.9949 192.567 91.7744 190.03C91.699 185.136 92.9693 180.315 95.4472 176.092C97.9249 171.871 101.515 168.411 105.825 166.09C114.574 171.163 130.164 180.597 135.693 183.64" stroke="black" stroke-width="1.125" stroke-linecap="round" stroke-linejoin="round"/>
<path d="M98.9279 195.332C98.8424 186.725 105.112 174.213 114.175 171.05" stroke="black" stroke-width="1.125" stroke-linecap="round" stroke-linejoin="round"/>
<path d="M143.787 138.503C152.964 141.41 167.898 139.614 171.774 133.145" stroke="black" stroke-width="1.125" stroke-linecap="round" stroke-linejoin="round"/>
<path d="M147.805 139.415C137.203 155.289 140.566 180.113 145.896 206.475C129.309 195.9 108.162 183.162 103.8 180.084" stroke="black" stroke-width="1.125" stroke-linecap="round" stroke-linejoin="round"/>
<path d="M193.35 230.187C191.868 234.837 188.989 237.911 187.963 240.219C192.409 249.539 210.079 265.242 220.254 271.398C219.598 254.448 208.911 245.919 209.88 234.833" stroke="black" stroke-width="1.125" stroke-linecap="round" stroke-linejoin="round"/>
<path d="M103.488 167.459C101.179 165.635 99.5264 163.725 98.0729 162.728C88.1264 165.492 66.2099 181.367 61.8494 189.233C74.7599 191.033 83.8229 186.069 92.1494 184.929" stroke="black" stroke-width="1.125" stroke-linecap="round" stroke-linejoin="round"/>
<path d="M202.126 99.429C202.497 141.865 201.727 146.229 198.45 148.306" stroke="black" stroke-width="1.125" stroke-linecap="round" stroke-linejoin="round"/>
<path d="M175.764 101.082C176.932 107.694 179.697 125.763 180.666 130.266" stroke="black" stroke-width="1.125" stroke-linecap="round" stroke-linejoin="round"/>
<path d="M177.531 111.712C184.281 114.505 198.564 113.993 202.212 109.312" stroke="black" stroke-width="1.125" stroke-linecap="round" stroke-linejoin="round"/>
<path d="M171.916 169.2C178.27 175.371 185.386 180.705 193.092 185.074" stroke="black" stroke-width="1.125" stroke-linecap="round" stroke-linejoin="round"/>
<path d="M124.891 177.376C128.791 181.309 133.698 186.411 138.343 191.598" stroke="black" stroke-width="1.125" stroke-linecap="round" stroke-linejoin="round"/>
<path d="M171.346 123.369C172.681 127.475 174.25 131.5 176.049 135.425" stroke="black" stroke-width="1.125" stroke-linecap="round" stroke-linejoin="round"/>
<path d="M149.317 77.5499C148.28 77.0966 147.271 76.5817 146.295 76.0079C147.013 77.7763 148.052 79.3966 149.359 80.7869" stroke="black" stroke-width="1.125" stroke-linecap="round" stroke-linejoin="round"/>
<path d="M104.674 152.277C94.5645 141.646 89.5785 135.187 84.5925 129.012C76.6125 119.122 81.3705 110.997 91.7175 104.302C102.517 97.3169 117.817 92.6939 130.278 87.8294C139.566 84.2024 141.763 77.1704 143.616 69.8459C138.457 68.1959 140.703 63.0434 143.302 65.0294C145.776 66.9179 144.952 64.3454 144.727 61.6379C148.044 60.6841 151.456 60.101 154.902 59.8994C160.015 75.3674 157.854 81.2204 149.317 77.5439C148.767 84.7439 152.304 87.9974 155.899 89.9939C161.115 92.9009 169.864 97.6319 176.961 108.234" stroke="black" stroke-width="1.125" stroke-linecap="round" stroke-linejoin="round"/>
<path d="M128.682 88.4565C137.317 91.3065 149.082 98.745 155.244 103.647C156.61 99.5229 157.368 95.2218 157.494 90.879" stroke="black" stroke-width="1.125" stroke-linecap="round" stroke-linejoin="round"/>
<path d="M118.821 92.1C117.752 91.5606 116.916 90.6499 116.47 89.5384C116.025 88.4269 116 87.1911 116.4 86.0625C111.669 88.0005 108.05 83.1555 110.7 78.7125C105.941 79.6245 102.236 73.269 105.713 69.393C100.868 68.6235 99.8626 63.066 103.946 60.273C100.469 57.873 99.6991 52.692 105.029 50.811C101.381 47.511 102.606 42.033 108.278 41.211C106.425 37.1925 110.558 31.011 115.028 33.516C114.629 28.728 120.471 23.8545 124.778 28.266C124.293 23.649 131.247 21.3405 134.411 25.3875C135.095 20.6565 142.562 20.799 143.616 25.5015C147.492 21.0015 152.616 22.68 153.677 27.3015C156.185 24.1665 161.856 26.19 161.742 30.864C166.242 28.9545 169.092 31.6905 168.44 35.8515C173.484 35.139 175.451 39.7275 173 43.005C177.389 42.777 178.415 48.7905 174.938 50.529C178.388 51.729 180.524 57.5685 175.679 59.3355C176.381 59.716 176.948 60.3043 177.303 61.0197C177.659 61.7352 177.783 62.5428 177.662 63.3321C177.54 64.1214 177.177 64.8538 176.624 65.4291C176.07 66.0045 175.352 66.3945 174.567 66.546C177.645 68.2275 177.816 72.396 173.598 73.386C176.249 76.008 175.593 81.486 170.634 81.537C170.988 82.5433 171.018 83.6355 170.72 84.6597C170.42 85.6837 169.808 86.5884 168.968 87.246C168.126 87.9036 167.102 88.2811 166.035 88.3255C164.97 88.3699 163.917 88.0789 163.025 87.4935C163.232 88.5378 163.031 89.6215 162.464 90.5226C161.897 91.4235 161.006 92.0733 159.975 92.3385" stroke="black" stroke-width="1.125" stroke-linecap="round" stroke-linejoin="round"/>
<path d="M116.427 250.65L107.905 244.665C106.949 243.996 106.297 242.975 106.093 241.826C105.89 240.675 106.151 239.492 106.82 238.535C107.489 237.579 108.511 236.927 109.66 236.723C110.81 236.52 111.993 236.781 112.95 237.45L114.261 238.362L115.173 237.051C115.842 236.096 116.863 235.443 118.012 235.241C119.162 235.038 120.344 235.299 121.3 235.968C122.257 236.637 122.908 237.659 123.111 238.808C123.314 239.957 123.052 241.14 122.383 242.096L116.427 250.65Z" stroke="black" stroke-width="1.125" stroke-linejoin="round"/>
</svg>
