<svg width="24" height="25" viewBox="0 0 24 25" fill="none" xmlns="http://www.w3.org/2000/svg">
<path d="M6.00049 22.5C5.45049 22.5 4.97949 22.304 4.58749 21.912C4.19549 21.52 3.99982 21.0493 4.00049 20.5V10.5C4.00049 9.95 4.19649 9.479 4.58849 9.087C4.98049 8.695 5.45116 8.49933 6.00049 8.5H7.00049V6.5C7.00049 5.11667 7.48816 3.93733 8.46349 2.962C9.43882 1.98667 10.6178 1.49933 12.0005 1.5C13.3838 1.5 14.5632 1.98767 15.5385 2.963C16.5138 3.93833 17.0012 5.11733 17.0005 6.5V8.5H18.0005C18.5505 8.5 19.0215 8.696 19.4135 9.088C19.8055 9.48 20.0012 9.95067 20.0005 10.5V20.5C20.0005 21.05 19.8045 21.521 19.4125 21.913C19.0205 22.305 18.5498 22.5007 18.0005 22.5H6.00049ZM6.00049 20.5H18.0005V10.5H6.00049V20.5ZM12.0005 17.5C12.5505 17.5 13.0215 17.304 13.4135 16.912C13.8055 16.52 14.0012 16.0493 14.0005 15.5C14.0005 14.95 13.8045 14.479 13.4125 14.087C13.0205 13.695 12.5498 13.4993 12.0005 13.5C11.4505 13.5 10.9795 13.696 10.5875 14.088C10.1955 14.48 9.99982 14.9507 10.0005 15.5C10.0005 16.05 10.1965 16.521 10.5885 16.913C10.9805 17.305 11.4512 17.5007 12.0005 17.5ZM9.00049 8.5H15.0005V6.5C15.0005 5.66667 14.7088 4.95833 14.1255 4.375C13.5422 3.79167 12.8338 3.5 12.0005 3.5C11.1672 3.5 10.4588 3.79167 9.87549 4.375C9.29216 4.95833 9.00049 5.66667 9.00049 6.5V8.5Z" fill="#F15929"/>
</svg>
