<svg width="27" height="28" viewBox="0 0 27 28" fill="none" xmlns="http://www.w3.org/2000/svg">
<path d="M11.0791 21.3433C10.9959 21.4835 10.8636 21.5828 10.7115 21.6194C10.5593 21.656 10.3997 21.6269 10.2678 21.5384L8.27774 20.2045C8.14579 20.1161 8.05232 19.9756 8.01788 19.8139C7.98344 19.6522 8.01086 19.4826 8.0941 19.3424C8.17734 19.2022 8.30959 19.1029 8.46175 19.0663C8.61391 19.0297 8.77352 19.0589 8.90547 19.1473L10.8955 20.4812C11.0274 20.5697 11.1209 20.7102 11.1553 20.8719C11.1898 21.0335 11.1624 21.2031 11.0791 21.3433ZM13.9807 12.9425C14.1283 13.0414 14.3002 13.0916 14.4746 13.0868C14.6491 13.0819 14.8183 13.0222 14.9608 12.9152C15.1033 12.8081 15.2127 12.6586 15.2752 12.4855C15.3378 12.3124 15.3506 12.1235 15.3121 11.9426C15.2735 11.7618 15.1854 11.5971 15.0588 11.4695C14.9322 11.3419 14.7729 11.257 14.6009 11.2256C14.4289 11.1942 14.252 11.2177 14.0926 11.2932C13.9331 11.3686 13.7983 11.4926 13.7052 11.6494C13.5804 11.8597 13.5392 12.114 13.5909 12.3565C13.6426 12.5991 13.7828 12.8098 13.9807 12.9425ZM18.2075 19.8245L15.2564 22.985C15.1163 23.1351 14.9426 23.245 14.7517 23.3044C14.5607 23.3638 14.3587 23.3708 14.1645 23.3247C13.9703 23.2786 13.7903 23.1809 13.6413 23.0408C13.4923 22.9007 13.3792 22.7227 13.3125 22.5235L12.4256 20.0289L8.63209 17.4861L6.12982 17.7089C5.93191 17.7308 5.73202 17.699 5.54884 17.6164C5.36567 17.5339 5.20519 17.4033 5.08241 17.2369C4.95963 17.0706 4.87858 16.8738 4.84682 16.6652C4.81506 16.4565 4.83364 16.2426 4.90081 16.0436L6.31469 11.8526C6.37574 11.673 6.47451 11.5106 6.60348 11.3776C6.73246 11.2446 6.88825 11.1446 7.05904 11.0851L10.1792 10.0119C10.7328 9.21998 11.3978 8.52325 12.1509 7.94622C14.2219 6.34709 16.4545 5.96935 17.3204 5.88288C17.5801 5.8562 17.8407 5.92198 18.0614 6.06988C18.282 6.21778 18.4502 6.4394 18.5393 6.6999C18.8369 7.5663 19.4793 9.87113 19.0127 12.5457C18.8468 13.5163 18.5413 14.4541 18.107 15.3259L18.539 18.7802C18.562 18.9696 18.5441 19.162 18.4867 19.343C18.4293 19.5239 18.3338 19.6886 18.2075 19.8245ZM9.37921 16.5089L12.9326 18.8908C15.7189 17.2907 17.3745 15.0807 17.8559 12.3181C18.2812 9.88001 17.6406 7.72881 17.4332 7.1279C16.8322 7.18691 14.729 7.49897 12.8411 8.95665C10.703 10.6087 9.5386 13.1481 9.37921 16.5089ZM8.21688 16.2702C8.31498 14.5285 8.66313 12.9856 9.26133 11.6413L7.4222 12.2745L6.00794 16.4661L6.02423 16.465L8.21688 16.2702ZM17.3723 18.9441L17.1182 16.9078C16.2367 18.0585 15.0768 19.0573 13.6384 19.9043L14.4154 22.0878L14.4215 22.1039L17.3723 18.9441Z" fill="#343330"/>
</svg>
