<svg width="20" height="20" viewBox="0 0 20 20" fill="none" xmlns="http://www.w3.org/2000/svg">
<path d="M1.875 7.5V13.125C1.875 13.2908 1.94085 13.4497 2.05806 13.5669C2.17527 13.6842 2.33424 13.75 2.5 13.75H8.75C8.91576 13.75 9.07473 13.8158 9.19194 13.9331C9.30915 14.0503 9.375 14.2092 9.375 14.375C9.375 14.5408 9.30915 14.6997 9.19194 14.8169C9.07473 14.9342 8.91576 15 8.75 15H7.5V16.25H8.75C8.91576 16.25 9.07473 16.3158 9.19194 16.4331C9.30915 16.5503 9.375 16.7092 9.375 16.875C9.375 17.0408 9.30915 17.1997 9.19194 17.3169C9.07473 17.4342 8.91576 17.5 8.75 17.5H5C4.83424 17.5 4.67527 17.4342 4.55806 17.3169C4.44085 17.1997 4.375 17.0408 4.375 16.875C4.375 16.7092 4.44085 16.5503 4.55806 16.4331C4.67527 16.3158 4.83424 16.25 5 16.25H6.25V15H2.5C2.00272 15 1.52581 14.8025 1.17417 14.4508C0.822544 14.0992 0.625 13.6223 0.625 13.125V7.5C0.625 7.00272 0.822544 6.52581 1.17417 6.17417C1.52581 5.82254 2.00272 5.625 2.5 5.625H8.75C8.91576 5.625 9.07473 5.69085 9.19194 5.80806C9.30915 5.92527 9.375 6.08424 9.375 6.25C9.375 6.41576 9.30915 6.57473 9.19194 6.69194C9.07473 6.80915 8.91576 6.875 8.75 6.875H2.5C2.33424 6.875 2.17527 6.94085 2.05806 7.05806C1.94085 7.17527 1.875 7.33424 1.875 7.5ZM16.25 5H13.75C13.5842 5 13.4253 5.06585 13.3081 5.18306C13.1908 5.30027 13.125 5.45924 13.125 5.625C13.125 5.79076 13.1908 5.94973 13.3081 6.06694C13.4253 6.18415 13.5842 6.25 13.75 6.25H16.25C16.4158 6.25 16.5747 6.18415 16.6919 6.06694C16.8092 5.94973 16.875 5.79076 16.875 5.625C16.875 5.45924 16.8092 5.30027 16.6919 5.18306C16.5747 5.06585 16.4158 5 16.25 5ZM16.25 7.5H13.75C13.5842 7.5 13.4253 7.56585 13.3081 7.68306C13.1908 7.80027 13.125 7.95924 13.125 8.125C13.125 8.29076 13.1908 8.44973 13.3081 8.56694C13.4253 8.68415 13.5842 8.75 13.75 8.75H16.25C16.4158 8.75 16.5747 8.68415 16.6919 8.56694C16.8092 8.44973 16.875 8.29076 16.875 8.125C16.875 7.95924 16.8092 7.80027 16.6919 7.68306C16.5747 7.56585 16.4158 7.5 16.25 7.5ZM19.375 3.75V16.25C19.375 16.5815 19.2433 16.8995 19.0089 17.1339C18.7745 17.3683 18.4565 17.5 18.125 17.5H11.875C11.5435 17.5 11.2255 17.3683 10.9911 17.1339C10.7567 16.8995 10.625 16.5815 10.625 16.25V3.75C10.625 3.41848 10.7567 3.10054 10.9911 2.86612C11.2255 2.6317 11.5435 2.5 11.875 2.5H18.125C18.4565 2.5 18.7745 2.6317 19.0089 2.86612C19.2433 3.10054 19.375 3.41848 19.375 3.75ZM18.125 16.25V3.75H11.875V16.25H18.125ZM15 13.125C14.8146 13.125 14.6333 13.18 14.4792 13.283C14.325 13.386 14.2048 13.5324 14.1339 13.7037C14.0629 13.875 14.0443 14.0635 14.0805 14.2454C14.1167 14.4273 14.206 14.5943 14.3371 14.7254C14.4682 14.8565 14.6352 14.9458 14.8171 14.982C14.999 15.0182 15.1875 14.9996 15.3588 14.9286C15.5301 14.8577 15.6765 14.7375 15.7795 14.5833C15.8825 14.4292 15.9375 14.2479 15.9375 14.0625C15.9375 13.8139 15.8387 13.5754 15.6629 13.3996C15.4871 13.2238 15.2486 13.125 15 13.125Z" fill="#F15929"/>
</svg>
