<svg width="22" height="22" viewBox="0 0 22 22" fill="none" xmlns="http://www.w3.org/2000/svg">
<path d="M10.9996 7.57824V18.6987M16.9876 10.9999V16.9878C16.9876 17.4416 16.8073 17.8767 16.4865 18.1976C16.1656 18.5184 15.7305 18.6987 15.2767 18.6987H6.72255C6.26881 18.6987 5.83365 18.5184 5.51281 18.1976C5.19197 17.8767 5.01172 17.4416 5.01172 16.9878L5.01172 10.9999M7.15026 7.57824C6.58308 7.57824 6.03914 7.35293 5.63808 6.95187C5.23703 6.55082 5.01172 6.00687 5.01172 5.4397C5.01172 4.87252 5.23703 4.32857 5.63808 3.92752C6.03914 3.52647 6.58308 3.30116 7.15026 3.30116C7.97547 3.28678 8.78413 3.68717 9.47078 4.45012C10.1574 5.21306 10.6902 6.30316 10.9996 7.57824C11.3091 6.30316 11.8418 5.21306 12.5285 4.45012C13.2151 3.68717 14.0238 3.28678 14.849 3.30116C15.4162 3.30116 15.9601 3.52647 16.3612 3.92752C16.7622 4.32857 16.9876 4.87252 16.9876 5.4397C16.9876 6.00687 16.7622 6.55082 16.3612 6.95187C15.9601 7.35293 15.4162 7.57824 14.849 7.57824" stroke="#212121" stroke-width="1.71" stroke-linecap="round" stroke-linejoin="round"/>
<path d="M17.8429 7.57812L4.1562 7.57812C3.68376 7.57812 3.30078 7.96111 3.30078 8.43354V10.1444C3.30078 10.6168 3.68376 10.9998 4.1562 10.9998H17.8429C18.3153 10.9998 18.6983 10.6168 18.6983 10.1444V8.43354C18.6983 7.96111 18.3153 7.57812 17.8429 7.57812Z" stroke="#F15929" stroke-width="1.71" stroke-linecap="round" stroke-linejoin="round"/>
</svg>
