<svg width="24" height="24" viewBox="0 0 24 24" fill="none" xmlns="http://www.w3.org/2000/svg">
<path d="M16 5.00011L19 8.00011M12 15.0001L20.385 6.58511C20.7788 6.19126 21.0001 5.65709 21.0001 5.10011C21.0001 4.54312 20.7788 4.00895 20.385 3.61511C19.9912 3.22126 19.457 3 18.9 3C18.343 3 17.8088 3.22126 17.415 3.61511L9 12.0001V15.0001H12Z" stroke="#212121" stroke-width="2" stroke-linecap="round" stroke-linejoin="round"/>
<path d="M8.99953 7.07031C7.25057 7.32659 5.66325 8.23487 4.55616 9.61287C3.44906 10.9909 2.90411 12.7366 3.03068 14.4997C3.15725 16.2628 3.94597 17.9128 5.23854 19.1185C6.53112 20.3242 8.23189 20.9965 9.99953 21.0003C11.6827 21.0001 13.3094 20.3937 14.5819 19.292C15.8544 18.1903 16.6874 16.6671 16.9285 15.0013" stroke="#212121" stroke-width="2" stroke-linecap="round" stroke-linejoin="round"/>
</svg>
