<svg width="24" height="24" viewBox="0 0 24 24" fill="none" xmlns="http://www.w3.org/2000/svg">
<path d="M22.95 14.1002C22.8712 14.1593 22.7815 14.2023 22.6861 14.2267C22.5907 14.2511 22.4914 14.2566 22.3939 14.2426C22.2964 14.2287 22.2026 14.1957 22.1179 14.1455C22.0331 14.0953 21.9591 14.029 21.9 13.9502C21.4479 13.3425 20.8595 12.8495 20.1821 12.5108C19.5048 12.1721 18.7573 11.9972 18 12.0002C17.8525 12.0002 17.7083 11.9567 17.5854 11.8751C17.4625 11.7936 17.3664 11.6776 17.309 11.5417C17.2701 11.4495 17.25 11.3503 17.25 11.2502C17.25 11.15 17.2701 11.0509 17.309 10.9586C17.3664 10.8227 17.4625 10.7068 17.5854 10.6252C17.7083 10.5437 17.8525 10.5002 18 10.5002C18.4208 10.5001 18.8332 10.3821 19.1903 10.1594C19.5473 9.93677 19.8348 9.61844 20.0201 9.24058C20.2053 8.86273 20.2809 8.4405 20.2382 8.02185C20.1955 7.60321 20.0362 7.20493 19.7785 6.87225C19.5208 6.53958 19.1749 6.28584 18.7803 6.13987C18.3856 5.9939 17.9579 5.96154 17.5457 6.04646C17.1335 6.13139 16.7535 6.3302 16.4486 6.62031C16.1438 6.91043 15.9264 7.28021 15.8212 7.68767C15.7966 7.78308 15.7534 7.87271 15.6942 7.95144C15.6349 8.03017 15.5607 8.09645 15.4758 8.14651C15.391 8.19656 15.2971 8.22941 15.1995 8.24318C15.1019 8.25694 15.0026 8.25135 14.9072 8.22673C14.8118 8.20211 14.7221 8.15893 14.6434 8.09967C14.5647 8.04041 14.4984 7.96622 14.4483 7.88134C14.3983 7.79646 14.3654 7.70256 14.3517 7.60498C14.3379 7.50741 14.3435 7.40808 14.3681 7.31267C14.5141 6.74765 14.79 6.22451 15.1738 5.78487C15.5576 5.34523 16.0387 5.00124 16.5788 4.78025C17.1189 4.55926 17.7031 4.46738 18.285 4.51191C18.8669 4.55645 19.4304 4.73618 19.9305 5.0368C20.4307 5.33742 20.8539 5.75063 21.1663 6.24356C21.4787 6.73648 21.6717 7.29552 21.73 7.87618C21.7884 8.45684 21.7104 9.0431 21.5022 9.58831C21.2941 10.1335 20.9616 10.6226 20.5312 11.0167C21.5511 11.4583 22.4376 12.159 23.1028 13.0492C23.1619 13.1282 23.2048 13.2181 23.2291 13.3137C23.2534 13.4093 23.2586 13.5088 23.2444 13.6064C23.2302 13.704 23.1969 13.7979 23.1464 13.8826C23.0959 13.9673 23.0291 14.0413 22.95 14.1002ZM17.8987 19.8752C17.953 19.9605 17.9894 20.056 18.0058 20.1558C18.0223 20.2556 18.0183 20.3577 17.9943 20.456C17.9702 20.5542 17.9265 20.6466 17.8658 20.7275C17.8051 20.8084 17.7287 20.8762 17.6411 20.9269C17.5536 20.9775 17.4566 21.0099 17.3562 21.0221C17.2558 21.0343 17.154 21.026 17.0568 20.9978C16.9597 20.9696 16.8692 20.9221 16.7909 20.8581C16.7126 20.794 16.6481 20.7148 16.6012 20.6252C16.1288 19.8252 15.4559 19.1622 14.649 18.7016C13.8421 18.241 12.9291 17.9988 12 17.9988C11.0709 17.9988 10.1579 18.241 9.35096 18.7016C8.54406 19.1622 7.87119 19.8252 7.39873 20.6252C7.35184 20.7148 7.28731 20.794 7.20901 20.8581C7.13072 20.9221 7.04028 20.9696 6.94313 20.9978C6.84599 21.026 6.74414 21.0343 6.64373 21.0221C6.54331 21.0099 6.44641 20.9775 6.35883 20.9269C6.27126 20.8762 6.19483 20.8084 6.13414 20.7275C6.07346 20.6466 6.02977 20.5542 6.0057 20.456C5.98164 20.3577 5.97769 20.2556 5.99411 20.1558C6.01053 20.056 6.04696 19.9605 6.10123 19.8752C6.82835 18.6258 7.93704 17.6427 9.26435 17.0702C8.51747 16.4983 7.96857 15.7068 7.69479 14.8069C7.42102 13.907 7.43613 12.9438 7.73802 12.053C8.03991 11.1621 8.61339 10.3882 9.37786 9.84005C10.1423 9.29194 11.0593 8.99716 12 8.99716C12.9406 8.99716 13.8576 9.29194 14.6221 9.84005C15.3866 10.3882 15.96 11.1621 16.2619 12.053C16.5638 12.9438 16.5789 13.907 16.3052 14.8069C16.0314 15.7068 15.4825 16.4983 14.7356 17.0702C16.0629 17.6427 17.1716 18.6258 17.8987 19.8752ZM12 16.5002C12.5933 16.5002 13.1733 16.3242 13.6667 15.9946C14.16 15.6649 14.5446 15.1964 14.7716 14.6482C14.9987 14.1 15.0581 13.4968 14.9423 12.9149C14.8266 12.333 14.5409 11.7984 14.1213 11.3788C13.7017 10.9593 13.1672 10.6736 12.5852 10.5578C12.0033 10.4421 11.4001 10.5015 10.8519 10.7285C10.3038 10.9556 9.83521 11.3401 9.50557 11.8335C9.17593 12.3268 8.99998 12.9068 8.99998 13.5002C8.99998 14.2958 9.31605 15.0589 9.87866 15.6215C10.4413 16.1841 11.2043 16.5002 12 16.5002ZM6.74998 11.2502C6.74998 11.0513 6.67096 10.8605 6.53031 10.7198C6.38966 10.5792 6.19889 10.5002 5.99998 10.5002C5.57916 10.5001 5.16679 10.3821 4.8097 10.1594C4.45261 9.93677 4.16512 9.61844 3.97988 9.24058C3.79465 8.86273 3.71909 8.4405 3.76179 8.02185C3.80449 7.60321 3.96374 7.20493 4.22145 6.87225C4.47917 6.53958 4.82501 6.28584 5.2197 6.13987C5.61439 5.9939 6.0421 5.96154 6.45426 6.04646C6.86642 6.13139 7.2465 6.3302 7.55133 6.62031C7.85616 6.91043 8.07352 7.28021 8.17873 7.68767C8.22846 7.88036 8.3527 8.04541 8.52412 8.14651C8.69554 8.2476 8.90009 8.27646 9.09279 8.22673C9.28549 8.177 9.45054 8.05276 9.55163 7.88134C9.65273 7.70992 9.68158 7.50536 9.63185 7.31267C9.48583 6.74765 9.20996 6.22451 8.82618 5.78487C8.4424 5.34523 7.96131 5.00124 7.42119 4.78025C6.88106 4.55926 6.29682 4.46738 5.71494 4.51191C5.13306 4.55645 4.56961 4.73618 4.06941 5.0368C3.56921 5.33742 3.14608 5.75063 2.83369 6.24356C2.52129 6.73648 2.32825 7.29552 2.26992 7.87618C2.21159 8.45684 2.28959 9.0431 2.49771 9.58831C2.70583 10.1335 3.03832 10.6226 3.46873 11.0167C2.44993 11.4587 1.5644 12.1594 0.899979 13.0492C0.780508 13.2084 0.729143 13.4084 0.757186 13.6054C0.785228 13.8024 0.890381 13.9802 1.04951 14.0997C1.20864 14.2192 1.40871 14.2705 1.60571 14.2425C1.80271 14.2145 1.98051 14.1093 2.09998 13.9502C2.55203 13.3425 3.14043 12.8495 3.81781 12.5108C4.4952 12.1721 5.24264 11.9972 5.99998 12.0002C6.19889 12.0002 6.38966 11.9212 6.53031 11.7805C6.67096 11.6398 6.74998 11.4491 6.74998 11.2502Z" fill="white"/>
</svg>
