<svg width="221" height="221" viewBox="0 0 221 221" fill="none" xmlns="http://www.w3.org/2000/svg">
<path fill-rule="evenodd" clip-rule="evenodd" d="M140.268 110.191H100.199C93.3147 110.191 92.2793 118.643 99.6574 118.746C107.035 118.848 139.124 119.106 140.268 119.106C140.982 119.106 140.716 110.191 140.268 110.191Z" fill="#F15929"/>
<path fill-rule="evenodd" clip-rule="evenodd" d="M178.143 89.1282C178.136 87.2678 177.431 85.4778 176.168 84.1117C174.905 82.7455 173.176 81.9025 171.322 81.749C167.123 81.3568 75.4841 81.5767 70.6375 81.749C65.791 81.9214 63.5158 85.2077 63.3136 88.1404C63.1711 90.2023 63.0075 95.9107 63.9015 95.9107C66.5756 95.9107 176.575 96.1892 177.877 96.2091C178.644 96.2201 178.143 89.9061 178.143 89.1282ZM156.282 92.2675C151.906 92.2675 151.506 85.4386 156.039 85.4386C156.506 85.3881 156.98 85.4345 157.429 85.5749C157.878 85.7154 158.294 85.9469 158.649 86.255C159.005 86.5631 159.293 86.9412 159.497 87.3658C159.7 87.7903 159.813 88.2521 159.83 88.7224C159.847 89.1928 159.766 89.6615 159.594 90.0994C159.421 90.5373 159.161 90.9349 158.828 91.2676C158.495 91.6002 158.097 91.8607 157.659 92.0327C157.221 92.2048 156.752 92.2847 156.282 92.2675ZM167.903 92.2675C167.435 92.3183 166.962 92.2722 166.513 92.1322C166.064 91.9921 165.648 91.761 165.293 91.4532C164.937 91.1455 164.648 90.7678 164.445 90.3436C164.241 89.9195 164.127 89.4579 164.11 88.9878C164.093 88.5177 164.172 88.049 164.344 87.611C164.516 87.1731 164.776 86.7752 165.109 86.4422C165.441 86.1092 165.838 85.8483 166.276 85.6756C166.713 85.5029 167.182 85.4223 167.652 85.4386C172.159 85.4353 172.553 92.2675 167.903 92.2675Z" fill="#F15929"/>
<path fill-rule="evenodd" clip-rule="evenodd" d="M177.783 121.349C178.509 113.789 178.572 106.179 177.97 98.608C177.894 97.6433 176.403 97.8245 176.481 98.7892C176.987 105.061 177.144 118.032 175.893 124.425C174.642 130.819 170.059 130.001 165.001 130.061L78.1812 131.08C62.6658 131.261 64.635 130.306 64.4504 98.8831C64.4504 98.1925 63.2758 98.177 63.2349 98.8831C62.9907 103.173 62.8051 120.721 63.509 125.105C64.93 133.945 73.7855 132.586 80.9879 132.508L162.39 131.575C171.729 131.472 176.672 132.908 177.783 121.349Z" fill="#191919"/>
<path fill-rule="evenodd" clip-rule="evenodd" d="M142.943 110.3C142.868 110.303 142.794 110.321 142.725 110.353C142.657 110.384 142.596 110.429 142.545 110.484C142.442 110.596 142.388 110.744 142.394 110.896C142.4 111.048 142.467 111.191 142.579 111.294C142.69 111.397 142.838 111.451 142.99 111.445C150.604 111.853 158.312 111.362 165.871 111.797C168.561 111.953 169.835 113.108 169.96 114.33C170.318 117.954 164.133 117.541 162.004 117.596H143.263C142.314 117.596 142.379 119.153 143.326 119.143C149.818 119.09 156.305 119.007 162.788 118.979C165.882 118.964 171.606 118.868 171.304 114.338C171.058 110.653 166.701 110.441 163.964 110.417C157.323 110.359 149.263 110.045 142.943 110.3Z" fill="#191919"/>
<path fill-rule="evenodd" clip-rule="evenodd" d="M80.9252 104.168C80.7529 103.658 80.0147 103.807 79.8434 104.222C79.5031 105.052 79.4202 111.546 79.3804 112.754C78.3859 111.97 77.4014 111.191 76.397 110.449C76.208 110.309 74.608 110.309 76.4754 112.151C77.5673 113.231 78.7832 114.178 80.0976 114.973C80.7484 115.138 83.3021 112.233 83.8778 111.696C85.2734 110.393 84.0988 109.908 83.6734 109.994C82.6678 110.669 81.7441 111.458 80.9208 112.346C80.9208 110.849 81.3131 105.289 80.9208 104.129L80.9252 104.168Z" fill="#191919"/>
<path fill-rule="evenodd" clip-rule="evenodd" d="M72.0874 119.631C71.2034 119.594 71.2366 116.758 71.1858 116.047C71.0167 113.695 72.4477 114.856 72.4477 114.856C72.8554 115.298 72.8245 117.82 72.809 118.361C77.8043 117.989 82.822 118.036 87.8094 118.502C87.6757 116.933 87.2293 114.801 88.342 114.722C89.4547 114.644 89.2448 116.212 89.2602 117.498C89.2746 118.658 89.542 120.099 88.7663 120.086C83.1286 119.99 77.6544 119.86 72.0874 119.631Z" fill="#191919"/>
<path fill-rule="evenodd" clip-rule="evenodd" d="M109.523 60.954C109.201 60.491 106.667 57.197 105.939 57.2688C103.915 57.4534 94.5454 60.4446 95.5178 61.8479C96.9676 67.6658 99.5389 78.1666 100.011 79.4517C100.206 79.9854 101.023 79.7103 100.943 79.1699C100.381 75.3488 97.8935 66.3331 96.646 61.754C99.6237 60.3521 102.745 59.2776 105.955 58.5495C106.887 59.5849 107.805 60.6037 108.73 61.6866C110.173 62.7607 136.797 54.629 139.485 53.9074C144.568 70.194 144.649 73.3908 146.746 77.7931C147.011 78.3456 147.733 77.918 147.663 77.4086C145.741 70.8371 143.108 58.7606 140.308 52.9881C139.782 51.8919 109.523 61.0943 109.523 60.954Z" fill="#191919"/>
<path fill-rule="evenodd" clip-rule="evenodd" d="M117.937 33.6417C120.716 36.1004 130.274 47.9758 132.177 51.2621C132.473 51.7726 131.66 52.1704 131.338 51.756C127.429 46.7282 125.292 43.0364 117.663 34.6539C106.999 41.9624 97.4006 51.4035 95.8636 50.8543C94.3265 50.3051 92.3033 49.9449 90.8524 49.4896C88.5085 51.4232 86.3365 53.5561 84.3605 55.8644C85.4191 56.9694 93.5729 66.3298 94.3497 67.6978C94.668 68.2558 93.9143 68.9421 93.5033 68.4271C87.0169 60.2899 82.577 56.4655 83.2069 55.4102C84.2014 53.745 88.5628 49.4587 90.1684 48.7449C90.396 47.7017 95.1321 49.5294 95.8923 49.8421C95.8945 49.7316 116.876 32.708 117.937 33.6417Z" fill="#191919"/>
<path fill-rule="evenodd" clip-rule="evenodd" d="M75.1143 55.9428C75.2557 54.7273 77.0193 46.3371 77.8039 46.0321L82.2427 44.6906C83.0261 42.5657 90.1777 23.5597 90.8672 23.6956C93.6507 24.2271 111.089 31.3312 112.588 32.4627C113.036 32.7942 112.729 33.5478 112.205 33.3566C105.518 30.9256 97.7138 27.0206 91.2208 24.8956C91.0086 26.0172 83.3167 45.3768 83.1543 45.5415C82.3697 46.326 79.5465 46.6321 78.3475 46.9459C78.2691 48.3018 76.7 53.7682 76.2536 55.4456L80.0172 56.4102C80.5896 56.6688 80.5111 57.6489 79.8061 57.5705C80.2625 57.5705 75.0292 56.6754 75.1143 55.9428Z" fill="#191919"/>
<path fill-rule="evenodd" clip-rule="evenodd" d="M52.0606 50.7051C51.2761 50.9637 48.7932 53.9748 48.9236 54.7196C49.4525 57.8417 50.3501 60.89 51.5977 63.8005C51.9656 64.6425 69.1229 59.2214 71.1385 58.6567C71.2147 58.6429 71.2875 58.6141 71.3527 58.5721C71.4178 58.5302 71.474 58.4757 71.5182 58.412C71.5623 58.3483 71.5934 58.2765 71.6098 58.2008C71.6262 58.125 71.6275 58.0468 71.6136 57.9705C71.5998 57.8943 71.571 57.8215 71.529 57.7563C71.4871 57.6912 71.4326 57.6349 71.3689 57.5908C71.3052 57.5467 71.2334 57.5156 71.1577 57.4992C71.0819 57.4828 71.0037 57.4815 70.9274 57.4954C64.6658 58.8141 58.4991 60.5492 52.4684 62.6889C51.5003 60.1087 50.691 57.4716 50.0451 54.7925C50.5545 54.1417 53.2607 51.2565 53.1822 50.7306C51.6131 43.4144 49.9589 35.8318 48.3512 28.5477C55.4088 27.3399 62.7637 25.5642 69.8766 24.1874C70.26 27.7322 72.8789 38.0982 74.5806 45.1824C74.6734 45.5669 75.3607 45.3006 75.3651 44.9238C75.396 42.5712 71.3197 26.7134 70.4876 23.3918C70.1771 22.1519 49.3169 27.0383 47.5755 27.6018C46.1257 28.0759 51.37 47.9902 52.0374 50.7261L52.0606 50.7051Z" fill="#191919"/>
<path fill-rule="evenodd" clip-rule="evenodd" d="M46.282 71.3907C39.3669 66.3972 27.6562 58.2125 20.0991 54.6257C18.5344 53.8831 9.99163 71.0216 9.68555 73.9786C9.68555 75.656 24.1301 83.2606 27.3213 84.5247C27.3766 86.1723 27.423 87.8187 27.4783 89.4652C27.8098 90.2497 30.9745 91.82 31.885 92.0608C35.7094 93.073 37.1625 93.4487 37.5205 92.3824C41.3361 80.8252 46.4776 71.5322 46.282 71.3907ZM36.5669 91.873C33.7648 91.4367 31.0622 90.5074 28.5844 89.1282C28.6783 88.4221 28.7015 83.8971 27.8705 83.4662C21.8173 80.328 16.6493 77.4837 10.7364 73.9079C13.7796 66.0038 16.226 62.7419 20.193 55.9671C28.7645 61.1739 36.8177 65.8315 45.0555 71.8139C42.9969 75.4715 37.5625 87.958 36.5669 91.873Z" fill="#191919"/>
<path fill-rule="evenodd" clip-rule="evenodd" d="M34.7311 104.098C25.016 103.789 14.524 103.468 4.79999 103.698C2.83199 103.744 6.13925 123.158 6.80778 125.159C7.1006 126.036 22.3728 125.693 25.5408 125.214C25.9806 126.404 26.6945 127.473 27.6249 128.335C28.1895 128.767 37.3168 128.777 37.5047 127.59C35.4704 113.899 35.9312 104.135 34.7311 104.098ZM28.4105 127.303C28.0271 126.784 26.2469 124.025 25.7685 124.001C19.7462 124.181 13.7947 124.236 7.78018 124.338C6.45546 117.875 5.61407 111.323 5.26299 104.735L33.993 105.177C34.5455 112.235 35.193 119.81 36.1654 126.772L28.4105 127.303Z" fill="#191919"/>
<path fill-rule="evenodd" clip-rule="evenodd" d="M53.0177 151.945C47.9347 146.045 40.3875 135.893 39.7577 136.177C31.1646 139.952 22.8156 144.26 14.7593 149.076C12.6598 150.356 23.1208 164.363 25.3054 166.327C26.7143 167.592 38.9267 158.775 41.0903 157.443C42.2722 158.457 43.6532 159.213 45.1445 159.661C45.8296 159.859 53.8022 152.857 53.0177 151.945ZM45.3048 158.329C42.7323 157.466 41.245 155.845 40.5997 156.258C35.7498 159.366 31.2448 162.429 25.5993 165.59C21.7158 160.624 18.3539 155.271 15.567 149.617C23.6037 144.912 31.5243 141.524 39.7334 137.611C41.4516 140.097 49.4574 150.291 51.8254 152.228C49.6452 154.368 47.5833 156.282 45.3048 158.329Z" fill="#191919"/>
<path fill-rule="evenodd" clip-rule="evenodd" d="M86.9869 172.945C85.0388 171.467 70.1909 165.596 66.372 164.797C65.2582 164.564 51.333 188.703 52.1551 189.357C57.9351 193.628 64.4691 196.77 71.4142 198.618C72.9833 199.019 80.1437 182.974 81.0895 180.927C82.0785 180.927 83.2995 180.684 84.294 180.676C85.3327 180.441 87.8168 173.574 86.9869 172.945ZM84.0034 179.685C83.1415 179.74 80.3039 179.553 80.0442 180.108C77.3502 185.861 74.4772 191.545 71.665 197.242C63.8195 194.89 60.2161 193.055 53.2767 188.86C53.2767 188.86 62.6858 171.224 66.6074 165.963C70.6683 167.351 82.5404 172.236 86.1162 173.608C85.4024 175.634 84.6896 177.65 84.0067 179.681L84.0034 179.685Z" fill="#191919"/>
<path fill-rule="evenodd" clip-rule="evenodd" d="M135.634 184.652C135.345 182.52 135.062 179.501 134.772 177.376C134.246 176.082 125.856 177.497 114.682 177.493C113.381 177.493 115.381 202.053 115.513 204.641C117.255 206.409 133.698 205.542 133.682 203.408L132.245 187.405C133.705 186.432 135.117 185.656 135.634 184.652ZM131.189 187.256C131.591 192.56 131.994 197.86 132.397 203.158C127.139 204.08 121.794 204.411 116.463 204.145C116.321 195.795 115.255 187.319 115.537 178.575C121.568 178.528 127.503 178.395 133.714 177.964C133.831 178.756 134.608 184.315 134.325 184.614C134.325 184.867 132.123 185.733 131.189 187.256Z" fill="#191919"/>
<path fill-rule="evenodd" clip-rule="evenodd" d="M174.333 167.297C175.116 165.878 175.513 165.243 175.47 164.67C175.418 163.981 171.297 158.208 170.663 158.562C167.84 160.13 161.088 166.694 159.392 169.03C159.329 170.504 169.021 187.309 170.166 187.692C170.718 189.747 180.734 179.388 180.69 178.777C180.628 178.016 175.014 168.499 174.333 167.297ZM170.757 186.681C166.933 181.094 163.526 175.234 160.562 169.148C164.084 165.783 166.977 163.126 170.686 160.021L174.168 164.874L173.234 167.084C172.999 167.648 178.724 176.76 179.626 178.666C177.03 181.712 174.049 184.407 170.757 186.683V186.681Z" fill="#191919"/>
<path fill-rule="evenodd" clip-rule="evenodd" d="M207.367 143.233C206.412 142.228 199.612 138.937 198.358 138.49C198.452 137.988 198.766 135.617 198.483 135.354C196.797 134.387 195.041 133.548 193.23 132.844C192.32 132.844 186.467 145.12 186.957 145.532C188.725 147.019 200.521 154.742 202.725 155.587C203.441 155.857 207.91 143.805 207.367 143.233ZM202.499 153.976C201.291 153.193 189.176 145.39 188.109 145.026C188.22 144.924 192.814 135.366 193.544 134.049C194.769 134.871 196.084 135.549 197.464 136.071C197.315 137.015 197.296 137.976 197.409 138.925C197.409 139.247 204.756 143.003 206.176 143.544C204.945 147.006 203.713 150.526 202.499 153.976Z" fill="#191919"/>
<path fill-rule="evenodd" clip-rule="evenodd" d="M212.989 111.085C212.989 110.3 207.234 108.732 206.359 108.418C206.358 107.717 206.255 107.019 206.053 106.347C205.747 105.729 201.043 103.995 200.651 104.23C199.734 104.716 197.762 114.782 198.612 115.248C200.059 116.04 209.963 120.284 211.362 119.952C212.153 119.767 213.123 111.328 212.989 111.085ZM210.826 118.62C207.007 117.302 203.211 115.773 199.424 114.495L201.141 105.415L205.062 106.92C205.133 107.414 205.25 109.108 205.697 109.272L211.806 111.508C211.443 113.674 210.826 118.22 210.826 118.62Z" fill="#191919"/>
<path fill-rule="evenodd" clip-rule="evenodd" d="M211.642 78.6053C211.346 78.3125 205.024 78.4948 203.541 78.4484L201.542 76.582C200.828 76.582 197.206 76.4096 196.876 76.8406C196.545 77.2715 198.939 86.2563 199.472 86.9878C199.742 87.3591 212.638 87.3558 212.858 86.9878C212.743 84.1592 212.335 81.35 211.642 78.6053ZM200.185 85.9911C199.432 83.1918 198.69 80.4057 197.959 77.6329C198.939 77.6329 200.311 77.782 201.252 77.6948C201.783 78.3499 202.397 78.9327 203.079 79.4285C205.632 79.6382 208.196 79.6984 210.756 79.6086C211.009 81.8295 211.423 84.0291 211.995 86.19C208.152 86.1801 204.035 85.9911 200.185 85.9911Z" fill="#191919"/>
<path fill-rule="evenodd" clip-rule="evenodd" d="M195.371 42.0795C194.942 41.6541 188.361 44.369 187.525 44.6674C186.89 44.139 186.192 43.691 185.447 43.3337C185.005 43.3337 180.199 45.2011 180.663 46.0553C181.879 48.2841 185.313 53.693 187.368 55.3627C188.031 55.9041 198.501 51.441 199.241 50.7604C200.106 49.9659 196.115 42.8176 195.371 42.0795ZM187.85 54.3826C185.67 51.6853 183.929 48.894 181.867 46.0785L185.278 44.5812C185.647 44.8088 187.113 45.8663 187.45 45.7801C190.001 45.1275 192.486 44.2431 194.876 43.1381C195.927 45.4276 197.228 47.7172 198.247 50.0068C196.69 50.7891 187.85 54.2721 187.85 54.3826Z" fill="#191919"/>
<path fill-rule="evenodd" clip-rule="evenodd" d="M1.13799 68.2625C0.933564 68.815 1.75016 69.2658 1.99326 68.6934C7.80556 55.0025 14.7151 45.9879 25.0944 35.802C25.4624 35.4407 24.922 34.7743 24.5054 35.1036C24.5054 34.5125 8.60226 47.9702 1.13799 68.2625Z" fill="#F15929"/>
<path fill-rule="evenodd" clip-rule="evenodd" d="M91.958 77.6008C89.7612 75.2969 86.2794 71.9079 83.5445 70.3708C83.0329 70.0846 82.6097 70.8349 83.003 71.2106C85.6551 73.7367 88.5004 75.7113 91.2209 78.4561C91.7326 78.9721 92.4519 78.1235 91.958 77.6008Z" fill="#F15929"/>
<path fill-rule="evenodd" clip-rule="evenodd" d="M115.78 24.8283C111.405 19.9663 101.586 16.2093 96.177 15.4192C96.0366 15.3984 95.8937 15.4342 95.7798 15.5187C95.6658 15.6033 95.5901 15.7296 95.5693 15.87C95.5485 16.0104 95.5843 16.1533 95.6688 16.2673C95.7534 16.3812 95.8797 16.457 96.0201 16.4778C105.821 18.0679 109.597 21.5265 115.161 25.573C115.603 25.8935 116.055 25.1421 115.749 24.7896L115.78 24.8283Z" fill="#F15929"/>
<path fill-rule="evenodd" clip-rule="evenodd" d="M46.1957 60.2479C44.8233 60.2015 42.8608 63.1751 42.4001 64.1685C42.1525 64.7033 43.0509 65.1254 43.3415 64.616C44.4686 62.6391 46.4775 61.3385 46.6499 60.922C46.675 60.8481 46.6826 60.7694 46.672 60.6921C46.6615 60.6148 46.633 60.5411 46.5889 60.4767C46.5448 60.4123 46.4863 60.3591 46.4181 60.3213C46.3498 60.2835 46.2737 60.2622 46.1957 60.259V60.2479Z" fill="#F15929"/>
<path fill-rule="evenodd" clip-rule="evenodd" d="M41.4277 37.265C35.6364 38.7071 29.5036 45.0056 26.6207 50.1173C26.2759 50.7284 27.2649 51.1449 27.6152 50.5482C30.8825 45 35.8536 40.6548 41.789 38.159C42.2354 37.9711 41.9062 37.1457 41.4277 37.265Z" fill="#F15929"/>
<path fill-rule="evenodd" clip-rule="evenodd" d="M37.735 49.3018C38.198 49.1681 38.5195 49.8543 38.177 50.0852C35.6472 51.6253 33.6293 53.8789 32.3768 56.5627C32.0763 57.1882 31.1613 56.6324 31.4442 56.0102C32.4387 53.7804 35.1846 50.0355 37.7173 49.2907L37.735 49.3018Z" fill="#F15929"/>
<path fill-rule="evenodd" clip-rule="evenodd" d="M20.9952 85.2618C18.6504 87.958 17.3929 93.5581 17.373 97.0322C17.373 97.6278 18.3775 97.6952 18.4239 97.0952C18.8361 91.81 20.1698 88.5779 21.9831 85.9292C22.3577 85.38 21.4494 84.738 20.9952 85.2618Z" fill="#F15929"/>
<path fill-rule="evenodd" clip-rule="evenodd" d="M13.9047 85.9911C11.992 88.6575 11.1212 95.7615 11.129 99.0478C11.15 99.1772 11.2165 99.295 11.3164 99.3799C11.4163 99.4649 11.5431 99.5115 11.6743 99.5115C11.8054 99.5115 11.9323 99.4649 12.0322 99.3799C12.1321 99.295 12.1985 99.1772 12.2196 99.0478C12.3464 94.7076 13.2444 90.4245 14.8716 86.3989C15.0926 85.8464 14.276 85.4585 13.9069 85.9679L13.9047 85.9911Z" fill="#F15929"/>
<path fill-rule="evenodd" clip-rule="evenodd" d="M30.4816 182.441C19.6449 174.733 14.0845 166.272 8.88658 154.485C8.84262 154.369 8.75459 154.276 8.64186 154.225C8.52912 154.175 8.40092 154.171 8.28546 154.215C8.16999 154.259 8.07671 154.347 8.02615 154.46C7.97559 154.572 7.97188 154.701 8.01584 154.816C11.3408 165.793 20.4073 176.64 29.854 183.201C30.3722 183.562 31.0065 182.809 30.4816 182.418V182.441Z" fill="#F15929"/>
<path fill-rule="evenodd" clip-rule="evenodd" d="M210.049 124.282C210.034 124.173 209.98 124.073 209.897 124.001C209.814 123.929 209.708 123.89 209.598 123.89C209.489 123.89 209.382 123.929 209.3 124.001C209.217 124.073 209.163 124.173 209.147 124.282C208.742 127.155 208.839 128.621 207.344 131.284C207.066 131.78 207.939 132.278 208.228 131.786C209.346 129.83 210.575 126.547 210.049 124.282Z" fill="#F15929"/>
<path fill-rule="evenodd" clip-rule="evenodd" d="M204.13 123.246C203.401 124.54 201.589 131.379 201.165 132.883C200.988 133.511 201.948 133.666 202.138 133.072C202.613 131.58 204.89 125.005 205 123.536C205.022 123.425 205.003 123.311 204.946 123.214C204.89 123.116 204.799 123.043 204.693 123.007C204.586 122.972 204.47 122.977 204.366 123.02C204.263 123.064 204.179 123.145 204.13 123.246Z" fill="#F15929"/>
<path fill-rule="evenodd" clip-rule="evenodd" d="M179.28 167.605C179.204 167.693 179.16 167.803 179.157 167.919C179.153 168.035 179.189 168.148 179.259 168.24C179.329 168.332 179.429 168.397 179.541 168.424C179.654 168.451 179.772 168.439 179.877 168.389C182.597 166.522 187.475 161.748 188.455 158.444C188.604 157.942 187.93 157.44 187.67 157.95C187.284 158.107 185.508 163.014 179.28 167.605Z" fill="#F15929"/>
<path fill-rule="evenodd" clip-rule="evenodd" d="M184.197 153.576C183.671 155.676 179.998 158.983 178.34 160.109C177.822 160.46 177.373 159.667 177.846 159.324C181.645 156.603 182.266 154.298 183.406 153.161C183.471 152.897 184.307 152.967 184.197 153.576Z" fill="#F15929"/>
<path fill-rule="evenodd" clip-rule="evenodd" d="M150.352 193.375C150.224 193.416 150.117 193.506 150.053 193.626C149.99 193.745 149.976 193.884 150.014 194.014C150.052 194.143 150.139 194.253 150.256 194.319C150.374 194.386 150.512 194.404 150.643 194.369C153.067 193.656 159.95 191.084 161.848 189.155C162.179 188.823 161.785 188.144 161.361 188.372C161.081 188.228 155.615 191.777 150.352 193.375Z" fill="#F15929"/>
<path fill-rule="evenodd" clip-rule="evenodd" d="M146.385 187.491C142.897 188.891 141.775 190.282 137.422 190.143C137.301 190.152 137.187 190.204 137.101 190.29C137.015 190.377 136.964 190.491 136.956 190.613C136.948 190.734 136.985 190.854 137.059 190.951C137.133 191.047 137.24 191.113 137.359 191.137C139.949 191.325 142.542 190.81 144.864 189.647C148.224 187.952 146.872 187.298 146.385 187.491Z" fill="#F15929"/>
<path fill-rule="evenodd" clip-rule="evenodd" d="M154.228 175.439C149.612 177.296 144.709 178.339 139.737 178.521C139.149 178.535 139.218 179.438 139.807 179.43C143.675 179.377 151.189 178.302 154.635 176.293C155.115 176.013 154.682 175.32 154.228 175.509V175.439Z" fill="#F15929"/>
<path fill-rule="evenodd" clip-rule="evenodd" d="M108.275 183.029C103.254 182.739 101.463 183.331 96.2151 181.532C95.6195 181.327 95.3687 182.252 95.9566 182.472C99.4705 183.787 104.686 184.825 108.378 183.884C108.472 183.85 108.552 183.785 108.604 183.7C108.657 183.615 108.679 183.515 108.667 183.416C108.655 183.316 108.61 183.224 108.538 183.154C108.467 183.084 108.375 183.04 108.275 183.029Z" fill="#F15929"/>
<path fill-rule="evenodd" clip-rule="evenodd" d="M105.868 193.073C98.8724 192.724 94.8315 192.876 87.9738 190.211C87.386 189.984 86.923 190.853 87.5186 191.095C92.6745 193.21 100.493 194.999 106.033 193.982C106.596 193.88 106.354 193.098 105.868 193.073Z" fill="#F15929"/>
<path fill-rule="evenodd" clip-rule="evenodd" d="M44.2669 176.811C39.5872 174.663 36.6855 173.577 33.5241 169.187C33.1241 168.634 32.292 169.258 32.6776 169.814C35.0954 173.307 39.6701 177.233 44.0238 177.703C44.1328 177.711 44.2412 177.681 44.3305 177.618C44.4198 177.555 44.4844 177.463 44.5131 177.357C44.5419 177.252 44.533 177.14 44.4881 177.04C44.4432 176.94 44.3649 176.859 44.2669 176.811Z" fill="#F15929"/>
<path fill-rule="evenodd" clip-rule="evenodd" d="M54.1631 171.157C54.2338 171.157 55.5996 173.109 50.7442 171.008C47.7317 169.699 44.9489 167.915 42.5021 165.724C42.0092 165.282 42.7706 164.606 43.2866 165.033C47.2779 168.329 49.9166 168.953 54.2018 171.157H54.1631Z" fill="#F15929"/>
<path fill-rule="evenodd" clip-rule="evenodd" d="M59.495 164.241C57.8254 162.971 56.0927 161.761 54.3899 160.532C53.8573 160.148 53.3413 161.032 53.8728 161.416C55.5568 162.616 57.2055 163.855 58.8994 165.015C59.3414 165.321 59.9503 164.592 59.495 164.231V164.241Z" fill="#F15929"/>
<path fill-rule="evenodd" clip-rule="evenodd" d="M16.8848 139.862C15.1098 137.006 14.3861 133.62 14.8384 130.287C14.9036 129.771 14.1301 129.683 13.9544 130.162C12.8173 133.222 14.298 137.733 15.9931 140.356C16.3445 140.904 17.2384 140.425 16.8848 139.862Z" fill="#F15929"/>
<path fill-rule="evenodd" clip-rule="evenodd" d="M26.6473 138.097C25.2756 135.957 24.2414 133.618 23.5809 131.164C23.4439 130.647 22.7964 131.164 22.75 131.611C22.6947 132.881 25.0992 137.887 25.7456 138.573C26.1976 139.057 27.0307 138.576 26.6473 138.097Z" fill="#F15929"/>
<path fill-rule="evenodd" clip-rule="evenodd" d="M218.605 89.5668C219.078 98.423 218.168 107.299 215.908 115.875C215.878 115.994 215.896 116.12 215.958 116.227C216.02 116.333 216.121 116.411 216.24 116.444C216.359 116.476 216.485 116.461 216.593 116.402C216.701 116.343 216.781 116.243 216.817 116.126C218.849 108.85 220.651 97.1029 219.57 89.4652C219.57 88.9259 218.575 88.9922 218.605 89.5668Z" fill="#F15929"/>
<path fill-rule="evenodd" clip-rule="evenodd" d="M181.789 28.0195C181.336 27.5775 180.537 28.1819 181.006 28.6549C184.396 32.136 187.447 35.9326 190.116 39.9933C190.412 40.4353 191.167 39.9933 190.949 39.4993C191.221 39.4993 187.982 34.1357 181.789 28.0195Z" fill="#F15929"/>
<path fill-rule="evenodd" clip-rule="evenodd" d="M182.435 37.57C182.744 38.012 182.089 38.433 181.729 38.1225C179.373 36.065 173.397 29.0008 171.01 26.2515C170.642 25.8272 171.243 25.2018 171.637 25.6239C174.168 28.3311 180.592 34.918 182.435 37.57Z" fill="#F15929"/>
<path fill-rule="evenodd" clip-rule="evenodd" d="M201.707 58.0843C201.671 58.0328 201.625 57.989 201.571 57.9552C201.518 57.9215 201.459 57.8986 201.397 57.8879C201.335 57.8771 201.271 57.8787 201.21 57.8925C201.148 57.9063 201.09 57.932 201.038 57.9683C200.987 58.0046 200.943 58.0507 200.909 58.1039C200.876 58.1571 200.853 58.2165 200.842 58.2785C200.831 58.3406 200.833 58.4042 200.847 58.4657C200.86 58.5272 200.886 58.5853 200.922 58.6368C204.421 64.0513 205.131 67.5553 206.192 71.9046C206.324 72.446 207.076 72.2261 207.094 71.7167C207.273 67.6757 202.062 58.0843 201.707 58.0843Z" fill="#F15929"/>
<path fill-rule="evenodd" clip-rule="evenodd" d="M196.766 58.2092C196.538 57.6136 195.572 57.8777 195.794 58.4921C196.212 59.6545 198.236 65.6933 198.888 66.5994C199.13 66.9376 199.786 66.8514 199.735 66.3563C199.568 64.7895 197.424 59.9275 196.766 58.2092Z" fill="#F15929"/>
<path fill-rule="evenodd" clip-rule="evenodd" d="M211.242 94.0355C211.171 93.5813 210.329 93.3725 210.371 93.9106C210.497 97.9312 210.208 101.954 209.509 105.915C209.398 106.551 210.355 106.543 210.497 105.915C211.248 101.998 211.499 98.0007 211.242 94.02V94.0355Z" fill="#F15929"/>
<path fill-rule="evenodd" clip-rule="evenodd" d="M85.3636 24.6326C83.137 23.1199 77.9468 23.6646 75.475 24.5696C74.7854 24.8216 75.0274 25.9398 75.7346 25.6912C80.7071 23.9387 83.1912 25.5111 85.0973 25.542C85.2039 25.5419 85.3077 25.5072 85.393 25.4432C85.4783 25.3792 85.5405 25.2893 85.5705 25.1869C85.6005 25.0846 85.5965 24.9753 85.5592 24.8754C85.5219 24.7754 85.4533 24.6903 85.3636 24.6326Z" fill="#F15929"/>
<path fill-rule="evenodd" clip-rule="evenodd" d="M154.243 56.7583C154.158 56.155 153.333 56.3826 153.27 56.8843C152.561 62.5309 152.817 68.447 151.976 74.4096C151.894 74.9986 152.916 75.1466 153.012 74.5588C153.781 69.8515 154.887 61.3275 154.243 56.7583Z" fill="#F15929"/>
<path fill-rule="evenodd" clip-rule="evenodd" d="M120.704 17.8733C120.211 17.4313 119.489 18.1176 119.959 18.6026C130.09 29.0228 133.257 37.0716 136.424 46.2122C136.634 46.8166 137.808 46.5194 137.639 45.8984C134.478 34.255 127.105 23.5851 120.704 17.8733Z" fill="#F15929"/>
</svg>
