<svg width="318" height="212" viewBox="0 0 318 212" fill="none" xmlns="http://www.w3.org/2000/svg">
<rect width="318" height="212" rx="20" fill="#FFF0D9"/>
<path d="M171.541 59.5508C170.636 55.2398 173.898 50.6553 172.675 46.3337C172.436 45.3257 171.861 44.4288 171.046 43.7897C168.694 42.1234 161.36 44.6504 159.422 51.3104C156.069 63.017 174.392 70.5377 170.792 82.1564C169.68 85.3364 166.684 87.1882 165.215 90.5304C164.516 92.4059 164.271 94.42 164.499 96.4084C164.727 98.3967 165.421 100.303 166.526 101.972C168.109 101.305 169.628 100.495 171.064 99.5531C168.846 96.0954 169.91 91.6084 172.76 88.5863C175.66 85.3003 179.269 82.6376 179.639 76.8119C180.235 68.052 172.742 65.2833 171.541 59.5508ZM166.925 61.6464C167.362 63.451 168.34 65.0787 169.729 66.3104C170.041 66.5882 169.581 67.0461 169.27 66.7694C167.799 65.4592 166.764 63.7309 166.302 61.816C166.208 61.4122 166.828 61.2405 166.925 61.6464ZM170.542 48.9042C169.69 50.4008 169.269 52.1044 169.326 53.8258C169.342 54.2445 168.69 54.2423 168.677 53.8258C168.606 51.9878 169.058 50.1675 169.981 48.5766C170.028 48.5083 170.098 48.4601 170.179 48.4418C170.259 48.4235 170.344 48.4365 170.415 48.4781C170.486 48.5198 170.539 48.587 170.563 48.6661C170.586 48.7452 170.579 48.8303 170.542 48.9042ZM174.221 71.1833C173.392 69.8482 172.462 68.5789 171.439 67.3863C171.168 67.0683 171.624 66.6104 171.897 66.9274C172.958 68.1603 173.923 69.4737 174.781 70.8557C175.006 71.2119 174.441 71.5373 174.221 71.1833ZM171.737 85.7349C170.842 86.9869 170.103 88.3435 169.537 89.7746C169.387 90.1604 168.759 89.9866 168.912 89.6029C169.491 88.1168 170.252 86.708 171.177 85.4085C171.418 85.0703 171.98 85.3957 171.737 85.7349ZM167.727 95.9777L168.462 99.799C168.54 100.208 167.914 100.381 167.836 99.9718L167.101 96.1505C167.023 95.7424 167.648 95.5686 167.727 95.9777ZM172.999 77.486C173.14 75.945 172.697 74.4073 171.758 73.1771C171.505 72.8506 171.963 72.3885 172.217 72.7181C173.278 74.0711 173.789 75.7746 173.648 77.4881C173.612 77.8994 172.962 77.9026 172.999 77.486ZM175.607 80.6915C175.419 81.0646 174.865 80.736 175.047 80.3629C175.695 79.0744 176.039 77.655 176.054 76.213C176.059 76.13 176.095 76.052 176.156 75.995C176.216 75.9379 176.296 75.9061 176.379 75.9061C176.462 75.9061 176.542 75.9379 176.602 75.995C176.663 76.052 176.699 76.13 176.704 76.213C176.682 77.7696 176.307 79.3009 175.607 80.6915ZM164.644 52.1404C164.817 51.7598 165.375 52.0895 165.205 52.4679C164.477 54.0926 164.137 55.8641 164.211 57.6428C164.228 58.0615 163.575 58.0594 163.563 57.6428C163.493 55.7497 163.863 53.8661 164.644 52.1404Z" fill="#FFD35C"/>
<path d="M218.948 110.664C211.732 104.57 199.843 102.124 190.089 103.471C193.557 105.368 195.331 109.964 195.283 113.778C195.059 117.522 190.844 119.374 187.709 120.218C184.138 121.188 180.389 121.307 176.763 120.565C173.138 119.823 169.737 118.242 166.833 115.947C161.155 116.465 157.535 115.523 153.983 113.603C139.044 117.912 132.961 122.118 128.331 125.458C123.602 128.873 121.234 134.403 120.579 140.221C123.335 138.748 126.403 137.952 129.527 137.9C132.652 137.847 135.744 138.54 138.548 139.92C141.198 135.114 149.2 131.075 167.294 133.417C169.785 140.614 178.094 147.555 176.922 154.841C176.71 156.125 175.951 159.067 175.466 160.883L176.42 161.541C179.021 160.454 181.718 159.615 184.476 159.034C186.752 158.474 193.25 156.467 195.237 156.186C195.174 156.169 195.118 156.136 195.073 156.088C195.029 156.041 194.999 155.982 194.987 155.918C194.976 155.854 194.982 155.789 195.006 155.728C195.03 155.668 195.071 155.616 195.124 155.578C198.876 152.988 202.273 150.996 205.255 148.011C204.975 147.926 204.695 147.842 204.424 147.731C204.041 147.575 204.212 146.948 204.597 147.106C204.976 147.258 205.366 147.383 205.763 147.482C205.962 147.266 206.156 147.046 206.345 146.822C206.267 146.636 206.37 146.389 206.692 146.389C207.611 145.335 208.298 144.099 208.706 142.761C209.115 141.423 209.237 140.015 209.065 138.627C208.959 137.954 208.716 137.319 208.593 136.655C207.68 131.256 203.198 127.603 199.277 123.803C198.977 123.511 199.436 123.053 199.737 123.344C203.482 126.973 207.687 130.446 209.014 135.468C209.107 135.841 209.151 136.224 209.236 136.598C209.554 137.552 209.745 138.544 209.805 139.548C209.869 142.012 209.073 144.421 207.555 146.363C208.937 146.288 210.289 145.934 211.529 145.321C211.902 145.135 212.231 145.695 211.857 145.881C210.36 146.624 208.714 147.016 207.043 147.026C206.875 147.238 206.696 147.436 206.513 147.637C207.303 147.769 208.107 147.794 208.904 147.71C209.318 147.665 209.315 148.315 208.904 148.36C207.931 148.459 206.949 148.404 205.994 148.195C204.774 149.433 203.455 150.57 202.051 151.594C200.442 152.796 195.492 156.128 195.386 156.163C198.112 156.126 200.793 156.861 203.119 158.283C205.15 159.468 206.853 161.141 208.073 163.15C209.294 165.159 209.993 167.442 210.108 169.79C213.95 169.282 217.624 167.897 220.846 165.742C224.067 163.586 226.75 160.719 228.685 157.361C236.306 144.365 233.165 122.669 218.948 110.664ZM154.501 132.5C154.496 132.552 154.48 132.601 154.453 132.646C154.426 132.69 154.389 132.727 154.346 132.756C154.303 132.784 154.254 132.802 154.202 132.809C154.151 132.816 154.099 132.811 154.05 132.795C153.992 132.831 153.923 132.846 153.855 132.836C153.787 132.827 153.725 132.794 153.679 132.744C152.873 131.939 152.341 130.9 152.16 129.776C152.094 129.368 152.719 129.193 152.785 129.604C152.924 130.473 153.296 131.287 153.863 131.96C153.888 130.797 153.634 129.644 153.121 128.598C152.936 128.225 153.495 127.898 153.682 128.271C154.344 129.576 154.628 131.041 154.501 132.5ZM182.145 131.016L180.083 126.705C179.871 126.263 180.53 125.877 180.742 126.32C181.43 127.756 182.117 129.193 182.804 130.631C183.016 131.068 182.357 131.455 182.145 131.016ZM206.565 111.563L202.18 113.73C201.74 113.942 201.354 113.289 201.794 113.07L206.179 110.904C206.618 110.682 207.005 111.341 206.565 111.559V111.563ZM218.649 124.05C218.193 125.844 217.695 127.627 217.22 129.418C217.192 129.513 217.127 129.593 217.04 129.642C216.952 129.69 216.85 129.702 216.754 129.676C216.658 129.649 216.576 129.586 216.525 129.5C216.475 129.414 216.461 129.312 216.485 129.215L217.913 123.846C217.939 123.748 218.003 123.664 218.092 123.613C218.18 123.563 218.284 123.549 218.383 123.575C218.481 123.602 218.565 123.666 218.615 123.754C218.666 123.842 218.68 123.947 218.653 124.045L218.649 124.05Z" fill="#FCAFB7"/>
<path d="M147.304 99.764C147.23 98.6529 146.881 97.5776 146.286 96.636C145.672 95.8544 144.872 95.239 143.959 94.8457C143.046 94.4525 142.049 94.2939 141.059 94.3845C138.457 94.5213 135.992 95.6767 133.521 96.4059C128.875 97.7765 123.672 98.4931 119.254 96.0222C117.348 95.0001 115.85 93.3533 115.014 91.3582C114.304 89.2843 113.997 87.094 114.109 84.9049C114.109 80.8123 114.476 76.2681 111.649 72.9269C108.795 69.5498 102.63 67.8199 95.6543 70.5504C93.3996 71.3762 91.0963 72.3291 88.6466 72.1574C87.5524 72.1154 86.4954 71.7485 85.6106 71.1034C84.7257 70.4583 84.0531 69.5643 83.6784 68.5354C83.0389 66.3651 82.7175 64.1135 82.7244 61.851L82.4498 57.8993C82.4159 57.4117 81.6527 57.4085 81.6866 57.8993C82.135 64.3399 81.9707 68.7643 84.5041 71.2225C88.6095 74.7671 93.2534 72.0206 97.6131 70.685C103.602 68.8512 110.7 70.3904 112.658 76.2585C113.263 78.4268 113.502 80.681 113.366 82.928C113.328 87.2009 113.251 91.8066 116.579 94.9961C121.94 100.134 130.138 98.5927 137.121 96.0561C139.468 95.2792 142.19 94.5329 144.45 95.9501C144.902 96.2122 145.294 96.5673 145.598 96.992C145.903 97.4167 146.113 97.9013 146.216 98.4136C146.282 98.9659 146.429 99.5056 146.652 100.015C146.864 99.9194 147.082 99.8356 147.304 99.764ZM177.154 94.87C176.661 92.4267 179.089 90.3851 181.415 90.0258C184.073 89.5032 186.732 89.853 189.293 87.5157C193.264 83.9043 194.213 76.4917 193.013 71.1408C191.721 65.3819 187.488 60.7762 186.353 54.9822C185.878 52.3487 186.201 49.6335 187.278 47.1842C188.356 44.7349 190.14 42.6631 192.403 41.234C193.598 40.4984 195.073 40.032 195.853 38.779C196.48 37.444 196.625 35.9327 196.262 34.503C195.74 30.7015 194.902 26.9502 193.756 23.2882C193.61 22.8207 192.873 23.02 193.021 23.4907C194.037 26.7378 194.812 30.0559 195.338 33.4176C195.557 34.821 195.945 36.4799 195.45 37.8696C194.938 39.3027 193.353 39.7776 192.164 40.4931C189.989 41.828 188.212 43.7224 187.018 45.9785C185.825 48.2346 185.259 50.7697 185.38 53.3191C185.921 62.1245 194.39 67.2464 192.518 78.9456C191.749 83.704 189.505 88.1443 184.745 88.7962C183.071 88.9182 181.414 89.2137 179.8 89.6781C177.74 90.4911 175.56 93.1369 176.556 95.4286C176.773 95.262 176.973 95.0749 177.154 94.87Z" fill="#B26EE6"/>
<path d="M180.556 106.231C180.556 106.145 180.59 106.063 180.651 106.002C180.712 105.941 180.794 105.907 180.88 105.907C180.966 105.907 181.049 105.941 181.109 106.002C181.17 106.063 181.204 106.145 181.204 106.231C181.234 112.516 173.984 115.278 167.78 115.862C176.126 122.164 187.841 121.274 193.031 116.87C193.702 116.302 194.2 115.556 194.468 114.718C194.735 113.88 194.761 112.984 194.542 112.132C192.952 101.986 186.139 103.517 181.048 100.896C181 100.867 180.96 100.826 180.932 100.777C180.905 100.728 180.89 100.672 180.89 100.616C180.89 100.56 180.905 100.505 180.932 100.456C180.96 100.407 181 100.366 181.048 100.336C181.469 100.103 181.804 99.7395 182.002 99.2997C182.465 97.3228 181.472 94.2859 179.413 94.3983C178.31 94.4577 177.58 95.382 176.802 96.0614C174.077 98.5089 171.02 100.56 167.722 102.154C165.721 103.101 163.578 103.711 161.379 103.963C156.964 104.52 149.728 104.599 147.141 101.004C146.765 105.784 150.203 111.348 155.688 113.733C158.564 115.078 161.707 115.738 166.935 115.292C173.034 114.893 180.583 112.318 180.556 106.231ZM156.282 106.909C156.343 106.497 156.969 106.673 156.907 107.081C156.69 107.893 156.737 108.753 157.041 109.537C157.175 109.83 157.415 110.061 157.712 110.185C158.01 110.308 158.343 110.315 158.646 110.203C159.015 110.005 159.342 110.565 158.974 110.763C158.571 110.949 158.115 110.987 157.688 110.867C157.26 110.747 156.889 110.479 156.642 110.111C156.374 109.627 156.204 109.095 156.142 108.546C156.081 107.997 156.128 107.44 156.282 106.909ZM167.252 106.149L168.019 108.183C168.168 108.575 167.54 108.743 167.394 108.355L166.625 106.322C166.478 105.93 167.104 105.763 167.252 106.149ZM177.873 99.4291C179.562 97.4151 179.511 96.6126 180.006 96.9243C180.075 96.9685 180.125 97.0373 180.146 97.1169C180.167 97.1965 180.157 97.281 180.118 97.3536C179.596 98.2479 178.999 99.0958 178.332 99.888C178.063 100.208 177.607 99.746 177.873 99.428V99.4291ZM152.166 107.925C151.905 107.418 151.644 106.913 151.382 106.408C151.191 106.037 151.751 105.71 151.943 106.081L152.725 107.596C152.917 107.967 152.358 108.296 152.166 107.925ZM164.823 112.674C164.74 112.651 164.67 112.596 164.627 112.521C164.585 112.446 164.574 112.358 164.597 112.275C164.62 112.192 164.675 112.121 164.75 112.079C164.824 112.036 164.913 112.025 164.996 112.048C166.192 112.376 167.461 112.314 168.619 111.872C169.777 111.429 170.764 110.629 171.437 109.587C171.657 109.232 172.219 109.558 171.997 109.915C171.259 111.087 170.162 111.99 168.869 112.488C167.576 112.986 166.157 113.052 164.823 112.678V112.674Z" fill="#FFCEB6"/>
<path d="M148.012 66.3168C148.203 63.7452 148.053 61.1597 147.565 58.6275C146.653 53.9201 142.498 49.8041 137.654 51.0793C135.545 51.6951 133.844 53.1654 131.83 53.9879C130.858 54.4632 129.751 54.5901 128.696 54.3474C127.641 54.1047 126.702 53.507 126.034 52.6544C122.714 48.796 124.879 43.0084 122.728 37.6109C121.077 33.0444 115.904 30.0224 111.641 32.8134C107.266 35.7549 107.304 41.7248 107.95 46.3814C108.488 51.1724 110.44 55.6949 113.557 59.3727C118.059 64.4247 125.821 66.5203 131.725 63.1336C132.761 62.3931 133.849 61.7295 134.981 61.1482C138.202 59.8338 141.447 62.6662 142.438 66.3497C143.087 68.7548 143.255 71.4376 145.139 73.2746C145.868 74.0103 146.838 74.4594 147.87 74.5403C148.74 74.624 147.508 72.8379 148.012 66.3168ZM142.888 59.6833C141.824 59.0186 140.55 58.7751 139.315 59.0007C138.906 59.077 138.733 58.4516 139.143 58.3753C140.547 58.1067 141.999 58.3733 143.216 59.1226C143.572 59.342 143.246 59.9049 142.888 59.6833ZM135.543 55.6394C137.103 55.3278 138.673 55.0734 140.254 54.8762C140.668 54.8243 140.662 55.474 140.254 55.5249C138.732 55.7178 137.219 55.9652 135.715 56.2669C135.307 56.3464 135.134 55.721 135.544 55.6394H135.543ZM131.946 57.9873C130.257 58.6302 128.407 58.7149 126.667 58.229C126.589 58.2022 126.524 58.1465 126.485 58.0733C126.446 58.0001 126.437 57.9149 126.459 57.8351C126.481 57.7553 126.532 57.6868 126.603 57.6436C126.673 57.6003 126.758 57.5857 126.839 57.6025C128.466 58.0544 130.196 57.9701 131.772 57.3619C132.165 57.2125 132.332 57.841 131.947 57.9873H131.946ZM115.975 42.7286C115.714 41.3573 115.645 39.9562 115.771 38.566C115.809 38.1526 116.458 38.1494 116.42 38.566C116.293 39.8978 116.354 41.2408 116.6 42.5558C116.678 42.965 116.053 43.142 115.975 42.7286ZM121.452 48.8247C121.679 49.1766 121.117 49.5009 120.891 49.1511C119.601 47.1444 119.049 44.7511 119.331 42.382C119.382 41.9718 120.029 41.9686 119.98 42.382C119.703 44.6356 120.224 46.915 121.452 48.8247ZM123.456 60.7221C121.539 60.5618 119.729 59.7669 118.313 58.4632C118.005 58.1792 118.465 57.7213 118.772 58.0032C120.062 59.1924 121.709 59.9202 123.456 60.0723C123.87 60.1073 123.872 60.7571 123.456 60.7221ZM118.061 52.258C118.344 52.9334 118.781 53.5333 119.337 54.0096C119.894 54.4859 120.553 54.8255 121.264 55.0013C121.343 55.0278 121.409 55.0835 121.448 55.157C121.487 55.2304 121.496 55.3161 121.474 55.3963C121.452 55.4765 121.4 55.5452 121.329 55.5882C121.258 55.6313 121.173 55.6454 121.092 55.6277C120.275 55.4174 119.52 55.0185 118.886 54.4631C118.252 53.9076 117.757 53.2112 117.441 52.4297C117.277 52.046 117.903 51.8775 118.061 52.258ZM113.059 47.5283C112.533 45.6912 112.323 43.7784 112.438 41.8711C112.459 41.4545 113.108 41.4534 113.086 41.8711C112.857 46.2531 114.2 47.5643 113.445 47.7466C113.364 47.7676 113.279 47.7564 113.207 47.7154C113.135 47.6744 113.082 47.6069 113.059 47.5272V47.5283Z" fill="#B26EE6"/>
<path d="M155.108 25.3976C153.552 24.5835 153.047 25.1559 150.673 25.0531C148.977 24.7786 147.966 22.5091 150.037 19.4118C153.456 13.8351 156.485 14.91 154.434 9.57924C153.579 7.01086 151.488 4.73292 148.718 5.42192C148.085 5.58123 147.502 5.89789 147.023 6.34257C146.545 6.78724 146.186 7.34552 145.981 7.96564C145.776 8.58577 145.731 9.24767 145.849 9.88997C145.968 10.5323 146.247 11.1342 146.661 11.6399C147.959 13.0857 148.897 12.9278 149.417 14.3726C149.771 15.9488 148.06 17.0904 147.007 17.9002C143.059 20.4739 144.664 26.2976 149.783 27.1487C151.669 27.4911 154.044 26.8954 155.159 28.3243C156.397 30.2323 153.569 32.4657 154.041 35.1009C154.086 35.4305 154.478 35.3213 154.372 35.3404C154.444 35.3552 154.518 35.3413 154.579 35.3016C154.641 35.2619 154.684 35.1997 154.7 35.1284C155.391 31.8244 156.696 30.9944 157.052 28.2723C156.997 27.6679 156.79 27.0873 156.45 26.5846C156.11 26.0819 155.648 25.6735 155.108 25.3976Z" fill="#6DD3A8"/>
<path d="M127.587 71.4864C125.66 71.0136 123.967 73.0605 124.12 75.0374C124.273 77.0143 127.23 77.4415 128.748 76.1642C129.08 75.8165 129.319 75.3905 129.442 74.9258C129.566 74.4611 129.57 73.9727 129.454 73.5061C129.338 73.0394 129.106 72.6096 128.78 72.2565C128.454 71.9034 128.043 71.6385 127.587 71.4864Z" fill="#FCAFB7"/>
<path d="M140.221 37.6438C139.801 37.5166 139.354 37.5021 138.926 37.6018C138.498 37.7015 138.104 37.9119 137.783 38.212C137.563 38.5593 137.451 38.9643 137.462 39.3755C137.472 39.7867 137.605 40.1854 137.844 40.5207C138.112 40.7164 138.423 40.8434 138.752 40.8905C139.08 40.9375 139.415 40.9031 139.727 40.7904C140.039 40.6776 140.319 40.49 140.541 40.2439C140.764 39.9978 140.923 39.7008 141.004 39.379C141.08 39.0441 141.045 38.6933 140.904 38.3801C140.762 38.0669 140.523 37.8084 140.221 37.6438Z" fill="#FFD35C"/>
<path d="M157.28 93.6754C154.62 94.0243 151.94 94.1925 149.258 94.1789C149.241 92.0499 149.396 89.9229 149.722 87.8189C149.741 87.7393 149.731 87.6556 149.694 87.5826C149.657 87.5097 149.595 87.4523 149.52 87.4206C149.444 87.389 149.36 87.3851 149.282 87.4097C149.204 87.4343 149.137 87.4858 149.093 87.555C148.309 88.7851 147.154 89.7346 145.796 90.2664C145.389 90.4254 145.566 91.089 145.979 90.9289C150.377 89.2213 148.462 86.1314 148.568 94.5202C148.569 94.611 148.606 94.6976 148.67 94.7616C148.735 94.8257 148.821 94.8623 148.912 94.8637C151.399 94.8852 153.885 94.751 156.356 94.4619C154.879 95.9251 153.451 97.436 152.073 98.9924C151.781 99.322 152.266 99.8096 152.559 99.4779C154.149 97.6773 155.803 95.9371 157.523 94.2573C157.717 94.0729 157.587 93.6351 157.28 93.6754Z" fill="#6DD3A8"/>
<path d="M181.52 16.43C178.942 13.7132 176.234 10.865 175.119 7.19741C174.978 6.72889 174.24 6.92817 174.383 7.39987C175.434 10.8629 177.824 13.6274 180.267 16.217C178.915 16.137 177.562 16.3393 176.293 16.811C175.024 17.2828 173.867 18.0136 172.896 18.9571C172.483 19.363 172.058 19.8559 172.4 20.4485C173.708 22.0667 175.374 23.3592 177.266 24.2242L170.768 24.1892C170.667 24.1892 170.57 24.2294 170.498 24.301C170.427 24.3725 170.387 24.4696 170.387 24.5708C170.387 24.672 170.427 24.7691 170.498 24.8406C170.57 24.9122 170.667 24.9524 170.768 24.9524L179.332 24.998C179.423 24.9957 179.51 24.9613 179.578 24.9009C179.645 24.8405 179.689 24.758 179.702 24.6681C179.715 24.5783 179.695 24.4868 179.647 24.41C179.599 24.3332 179.525 24.276 179.438 24.2486C177.013 23.5098 174.842 22.1098 173.168 20.2057C173.04 20.0436 173.019 19.9757 173.146 19.8051C174.154 18.7269 175.412 17.9132 176.808 17.4356C178.205 16.958 179.697 16.831 181.154 17.066C181.234 17.0835 181.317 17.075 181.392 17.0419C181.467 17.0088 181.529 16.9528 181.57 16.8819C181.611 16.811 181.628 16.729 181.619 16.6478C181.61 16.5665 181.575 16.4903 181.52 16.43Z" fill="#FF9F48"/>
<path d="M164.645 52.1404C163.863 53.8661 163.493 55.7497 163.563 57.6428C163.579 58.0594 164.228 58.0615 164.211 57.6428C164.137 55.8641 164.478 54.0926 165.205 52.4679C165.375 52.0895 164.817 51.7598 164.645 52.1404ZM169.327 53.8258C169.257 52.1031 169.678 50.3961 170.542 48.9042C170.579 48.8303 170.586 48.7452 170.563 48.6661C170.539 48.587 170.486 48.5198 170.415 48.4781C170.344 48.4365 170.259 48.4235 170.179 48.4418C170.098 48.4601 170.028 48.5083 169.982 48.5766C169.059 50.1677 168.606 51.9878 168.677 53.8258C168.694 54.2423 169.342 54.2445 169.327 53.8258ZM169.729 66.3136C168.34 65.0817 167.362 63.4541 166.926 61.6496C166.828 61.2436 166.203 61.4154 166.301 61.8224C166.763 63.7373 167.799 65.4655 169.269 66.7758C169.582 67.0493 170.042 66.5913 169.729 66.3136ZM171.897 66.9274C171.625 66.6094 171.168 67.0715 171.439 67.3863C172.462 68.5791 173.392 69.8484 174.222 71.1833C174.441 71.5384 175.003 71.2119 174.781 70.8557C173.922 69.4739 172.958 68.1606 171.897 66.9274ZM171.758 73.1771C172.699 74.4062 173.142 75.9447 172.999 77.486C172.962 77.9026 173.612 77.8994 173.648 77.486C173.79 75.7725 173.279 74.0687 172.217 72.716C171.963 72.3885 171.508 72.8506 171.758 73.1771ZM176.054 76.214C176.03 77.6548 175.686 79.0721 175.047 80.3639C174.86 80.737 175.419 81.0656 175.607 80.6925C176.308 79.3023 176.682 77.7707 176.702 76.214C176.694 76.1337 176.656 76.0592 176.597 76.005C176.537 75.9507 176.459 75.9207 176.378 75.9207C176.297 75.9207 176.22 75.9507 176.16 76.005C176.1 76.0592 176.062 76.1337 176.054 76.214ZM171.177 85.4085C170.252 86.7076 169.491 88.1165 168.912 89.6029C168.759 89.9919 169.386 90.1604 169.537 89.7746C170.103 88.3432 170.841 86.9865 171.737 85.7349C171.981 85.3947 171.418 85.0703 171.177 85.4085ZM167.102 96.1505L167.836 99.9718C167.915 100.381 168.541 100.208 168.463 99.799L167.727 95.9777C167.649 95.5686 167.023 95.7413 167.102 96.1505ZM153.685 128.267C153.498 127.893 152.943 128.221 153.124 128.595C153.638 129.64 153.892 130.793 153.866 131.957C153.3 131.284 152.927 130.47 152.788 129.601C152.723 129.19 152.097 129.365 152.163 129.773C152.345 130.897 152.877 131.935 153.682 132.741C153.728 132.791 153.791 132.824 153.858 132.833C153.926 132.842 153.995 132.828 154.053 132.792C154.102 132.808 154.154 132.813 154.206 132.806C154.257 132.799 154.306 132.781 154.35 132.753C154.393 132.724 154.429 132.687 154.456 132.642C154.483 132.598 154.5 132.548 154.505 132.497C154.624 131.039 154.341 129.575 153.685 128.267Z" fill="black"/>
<path d="M137.628 146.365C137.385 146.034 137.248 145.637 137.235 145.226C137.01 143.565 137.267 141.874 137.977 140.356C135.288 139.073 132.334 138.448 129.356 138.532C126.378 138.615 123.463 139.406 120.851 140.838C120.548 146.518 121.101 152.212 122.492 157.728C123.048 159.331 124.407 161.164 126.354 160.738C128.216 160.331 128.148 158.033 128.028 156.552C127.999 156.193 128.46 156.166 128.633 156.389L130.7 159.081C131.186 159.717 131.799 160.804 132.737 160.715C133.151 160.636 133.528 160.427 133.816 160.12C134.104 159.813 134.287 159.423 134.34 159.005C134.397 157.93 134.166 156.859 133.672 155.903C133.559 155.621 133.925 155.418 134.149 155.536C136.617 157.126 136.09 158.578 138.154 160.2C138.381 160.315 138.63 160.381 138.884 160.393C139.139 160.405 139.393 160.363 139.63 160.27C139.867 160.176 140.081 160.034 140.259 159.851C140.437 159.669 140.574 159.451 140.662 159.212C141.808 156.442 141.043 152.839 139.575 150.324C139.541 150.262 139.528 150.19 139.538 150.12C139.548 150.05 139.58 149.985 139.63 149.935C139.68 149.885 139.745 149.852 139.816 149.842C139.886 149.832 139.957 149.845 140.019 149.879C141.656 151.045 144.07 151.495 144.971 149.667C145.653 147.979 143.318 147.092 142.063 146.983C140.265 146.856 138.829 147.416 137.628 146.365ZM125.387 152.79C125.244 153.181 124.617 153.011 124.761 152.619C124.981 152.031 125.124 151.416 125.185 150.791C125.223 150.378 125.873 150.376 125.833 150.791C125.774 151.475 125.624 152.147 125.387 152.79ZM130.228 151.927C130.162 152.339 129.537 152.164 129.603 151.754L129.815 150.422C129.882 150.011 130.506 150.187 130.44 150.595C130.371 151.04 130.3 151.483 130.228 151.927ZM135.578 150.784C135.506 151.194 134.882 151.019 134.953 150.611L135.303 148.597C135.374 148.186 136.001 148.361 135.929 148.769C135.812 149.442 135.694 150.113 135.574 150.784H135.578Z" fill="#FFCEB6"/>
<path d="M187.102 181.349C186.476 179.578 185.998 177.757 185.673 175.907C184.189 178.103 183.69 180.941 181.327 181.737C180.933 181.844 180.516 181.825 180.134 181.683C179.751 181.542 179.422 181.285 179.193 180.947C178.963 180.385 178.91 179.765 179.044 179.172C179.442 174.957 179.494 175.002 179.317 174.869C178.951 174.597 177.145 175.081 176.07 176.427C175.01 177.622 175.055 178.028 174.268 178.881C174.098 179.03 173.894 179.136 173.675 179.189C173.455 179.243 173.226 179.244 173.006 179.191C172.787 179.138 172.583 179.034 172.412 178.886C172.241 178.738 172.107 178.552 172.023 178.342C171.493 177.268 171.973 176.44 173.572 171.58C171.509 171.94 170.267 175.308 168.291 175.699C167.907 175.785 167.504 175.715 167.172 175.504C166.84 175.294 166.605 174.96 166.519 174.576C166.456 173.477 166.763 172.389 167.39 171.485C169.186 168.369 171.403 165.515 173.978 163.005C174.442 162.483 174.544 162.294 176.409 161.528C174.958 160.521 173.607 159.598 172.341 158.644C172.289 158.612 172.229 158.595 172.168 158.595C172.107 158.595 172.047 158.612 171.995 158.644C159.881 167.831 159.063 167.848 159.194 168.402C160.297 173.305 161.705 178.134 163.411 182.861C164.144 184.813 164.078 184.713 164.577 184.989C175.883 191.206 175.533 190.925 175.746 190.799C179.814 188.171 183.589 185.115 187.006 181.683C187.05 181.641 187.083 181.588 187.099 181.529C187.116 181.47 187.117 181.408 187.102 181.349ZM159.975 168.841C159.93 168.793 159.901 168.732 159.893 168.666C159.884 168.601 159.896 168.535 159.926 168.476L159.92 168.45C160.045 168.356 160.011 168.344 160.119 168.3C160.174 168.278 160.235 168.274 160.292 168.288C160.349 168.303 160.4 168.336 160.437 168.382C162.04 170.191 163.872 171.783 165.888 173.117C166.237 173.346 165.911 173.908 165.561 173.677C163.498 172.314 161.62 170.69 159.975 168.843V168.841ZM175.473 190.384C174.352 187.34 173.403 184.234 172.631 181.082C172.532 180.675 173.161 180.503 173.257 180.909C174.029 184.061 174.978 187.167 176.099 190.212C176.244 190.607 175.617 190.775 175.473 190.387V190.384Z" fill="#FFD35C"/>
<path d="M186.284 174.199C192.545 168.852 201.457 170.406 209.435 169.535C209.225 167.291 208.516 165.122 207.359 163.188C206.096 161.315 204.415 159.76 202.449 158.647C200.483 157.534 198.285 156.892 196.029 156.772C194.913 156.733 194.501 156.912 191.957 157.62C179.873 160.958 180.01 160.78 176.673 162.126C175.55 162.456 174.562 163.141 173.859 164.077C171.441 166.489 169.381 169.234 167.743 172.23C167.408 172.891 166.756 174.131 167.339 174.828C168.095 175.728 169.375 174.364 169.878 173.816C171.017 172.572 172.158 170.872 174.04 170.896C174.127 170.897 174.21 170.933 174.27 170.995C174.331 171.057 174.364 171.14 174.364 171.227C174.364 171.306 174.422 171.109 173.115 175.073C172.896 175.666 172.707 176.271 172.55 176.884C172.453 177.16 172.44 177.458 172.512 177.741C172.585 178.024 172.74 178.279 172.957 178.474C174.335 179.439 174.89 174.922 178.338 174.242C178.768 174.112 179.229 174.133 179.647 174.299C179.813 174.414 179.941 174.577 180.015 174.766C180.088 174.955 180.103 175.161 180.058 175.359C179.705 179.779 179.488 179.845 179.74 180.589C179.845 180.767 179.995 180.913 180.176 181.012C180.357 181.112 180.562 181.16 180.768 181.153C183.177 181.229 183.932 176.209 186.284 174.199ZM175.761 167.203C175.761 167.289 175.726 167.372 175.666 167.433C175.605 167.494 175.522 167.528 175.436 167.528C175.35 167.528 175.268 167.494 175.207 167.433C175.146 167.372 175.112 167.289 175.112 167.203V165.678C175.112 165.592 175.146 165.509 175.207 165.449C175.268 165.388 175.35 165.354 175.436 165.354C175.522 165.354 175.605 165.388 175.666 165.449C175.726 165.509 175.761 165.592 175.761 165.678V167.203ZM184.628 169.977C184.801 170.822 184.865 171.685 184.818 172.546C184.794 172.961 184.146 172.962 184.17 172.546C184.218 171.743 184.162 170.938 184.002 170.15C183.918 169.741 184.546 169.567 184.628 169.976V169.977ZM180.176 169.675L179.935 167.952C179.878 167.543 180.504 167.368 180.561 167.779L180.801 169.502C180.857 169.911 180.231 170.085 180.175 169.674L180.176 169.675Z" fill="#FFCEB6"/>
<path d="M128.536 166.65C128.541 166.595 128.531 166.54 128.506 166.491C128.481 166.442 128.442 166.401 128.395 166.373C131.908 164.912 135.53 163.73 139.229 162.838C139.596 162.615 139.466 162.096 139.252 161.83C138.986 161.502 138.541 161.931 138.741 162.269C135.187 163.14 131.704 164.276 128.319 165.667C128.333 165.625 128.338 165.58 128.333 165.535C128.329 165.491 128.316 165.448 128.295 165.408C128.274 165.369 128.246 165.334 128.211 165.305C128.176 165.277 128.136 165.256 128.094 165.243C116.305 161.517 114.705 162.002 113.288 160.716C113.22 160.654 113.131 160.621 113.04 160.625C112.948 160.628 112.862 160.668 112.8 160.735C112.8 160.735 112.783 160.462 112.777 160.325L121.195 157.449C121.612 157.307 121.433 156.644 121.013 156.787L112.708 159.623C112.56 159.338 112.042 159.386 112.06 159.771C112.283 164.685 112.7 169.583 113.313 174.465C113.368 174.899 114.055 174.904 114 174.465C113.448 170.066 113.057 165.652 112.826 161.223C114.965 162.852 115.607 162.012 127.829 165.88C127.78 165.919 127.742 165.969 127.718 166.026C127.694 166.083 127.684 166.145 127.691 166.206C127.697 166.268 127.719 166.327 127.755 166.377C127.79 166.428 127.838 166.469 127.893 166.496C127.603 169.735 127.932 173 128.862 176.116C128.886 176.204 128.944 176.278 129.024 176.323C129.063 176.346 129.106 176.36 129.151 176.366C129.196 176.371 129.241 176.368 129.285 176.356C129.328 176.344 129.369 176.323 129.404 176.296C129.44 176.268 129.47 176.234 129.492 176.194C129.514 176.155 129.529 176.112 129.534 176.067C129.54 176.022 129.537 175.977 129.525 175.933C128.609 172.93 128.273 169.779 128.536 166.65ZM145.874 170.872C140.632 172.87 135.47 175.06 130.39 177.444C129.99 177.632 130.339 178.223 130.737 178.038C135.543 175.786 140.423 173.706 145.378 171.797C145.337 171.779 145.3 171.753 145.269 171.721C145.238 171.688 145.213 171.65 145.197 171.608C145.181 171.566 145.173 171.521 145.175 171.476C145.176 171.431 145.186 171.387 145.204 171.346C145.362 170.988 145.756 171.199 146.264 171.331C146.357 171.084 146.181 170.753 145.874 170.872Z" fill="#B26EE6"/>
<path d="M127.061 178.465C127.061 178.465 118.504 176.038 117.462 175.735C116.537 175.533 115.677 175.102 114.961 174.482C114.643 174.173 114.16 174.658 114.474 174.969C115.807 176.177 115.989 176.029 126.876 179.127C126.962 179.146 127.052 179.13 127.127 179.085C127.202 179.04 127.257 178.967 127.28 178.883C127.304 178.798 127.294 178.708 127.253 178.63C127.212 178.553 127.144 178.493 127.061 178.465ZM145.658 162.261C145.631 161.822 144.944 161.819 144.972 162.261C145.132 164.875 145.37 167.485 145.685 170.09C145.737 170.523 146.427 170.529 146.372 170.09C146.056 167.488 145.818 164.878 145.658 162.261Z" fill="#B26EE6"/>
<path d="M141.828 184.334C138.097 183.261 134.368 182.182 130.73 180.825C130.315 180.671 130.136 181.334 130.547 181.488C134.185 182.844 137.889 184.015 141.646 184.996C141.733 185.021 141.827 185.009 141.906 184.964C141.986 184.919 142.044 184.844 142.068 184.756C142.092 184.669 142.08 184.575 142.035 184.495C141.99 184.416 141.916 184.358 141.828 184.334ZM141.562 185.924L142.329 199.469C142.355 199.909 143.042 199.912 143.016 199.469L142.252 185.924C142.224 185.488 141.537 185.485 141.562 185.924ZM158.894 176.787C154.781 174.229 150.293 172.328 145.594 171.154C145.512 171.138 145.427 171.152 145.355 171.195C145.283 171.237 145.229 171.304 145.203 171.383C145.177 171.462 145.181 171.548 145.214 171.625C145.247 171.702 145.307 171.764 145.382 171.799C150.037 172.958 154.482 174.84 158.553 177.378C158.925 177.614 159.269 177.02 158.894 176.787ZM145.823 185.72C156.776 181.518 156.779 181.718 158.051 180.496C158.353 180.178 157.869 179.687 157.566 180.01C156.427 181.07 156.696 180.824 145.641 185.058C145.232 185.215 145.41 185.879 145.823 185.72ZM141.255 198.626C132.623 195.797 132.426 195.87 131.23 194.856C130.906 194.556 130.419 195.041 130.745 195.341C132.017 196.515 133.83 196.917 135.434 197.442L141.073 199.288C141.494 199.426 141.675 198.763 141.255 198.626ZM158.161 194.453C154.829 196.395 151.318 198.014 147.677 199.285C146.439 199.827 145.095 200.085 143.744 200.04C143.306 199.991 143.31 200.676 143.744 200.727C145.085 200.783 146.422 200.54 147.658 200.017C151.43 198.722 155.064 197.057 158.507 195.046C158.585 195 158.641 194.925 158.664 194.837C158.687 194.75 158.674 194.656 158.629 194.578C158.583 194.5 158.508 194.443 158.421 194.419C158.333 194.396 158.24 194.408 158.161 194.453Z" fill="#6DD3A8"/>
<path d="M124.382 181.566L114.862 184.428C114.779 184.406 114.69 184.413 114.61 184.447L114.117 184.665C113.719 184.84 114.004 185.485 114.412 185.362L124.588 182.3C124.68 182.268 124.756 182.202 124.801 182.116C124.846 182.03 124.856 181.93 124.83 181.836C124.804 181.743 124.743 181.663 124.66 181.612C124.576 181.562 124.477 181.546 124.382 181.566ZM128.129 184.201C128.129 184.1 128.089 184.003 128.018 183.932C127.946 183.86 127.849 183.82 127.748 183.82C127.647 183.82 127.549 183.86 127.478 183.932C127.406 184.003 127.366 184.1 127.366 184.201C127.471 188.455 127.842 192.698 128.477 196.906C128.55 197.389 129.286 197.184 129.219 196.702C128.608 192.561 128.244 188.386 128.129 184.201ZM123.674 197.266C112.424 201.606 112.59 201.631 110.916 201.94L110.991 201.787C111.017 201.731 111.03 201.669 111.029 201.607C111.027 201.546 111.012 201.485 110.983 201.43C110.955 201.375 110.915 201.327 110.865 201.29C110.816 201.253 110.758 201.227 110.698 201.216C110.147 196.513 109.723 191.799 109.426 187.073C109.395 186.585 108.631 186.582 108.662 187.073C108.834 189.812 109.785 201.753 110.092 202.251C109.992 202.486 110.092 202.803 110.418 202.776C111.522 202.654 112.603 202.378 113.631 201.956C114.772 201.526 123.88 198.003 123.88 198.003C124.331 197.831 124.134 197.092 123.674 197.266ZM109.292 184.594C105.22 182.914 101.007 181.597 96.7035 180.66C102.074 178.847 107.38 176.848 112.622 174.663C113.068 174.477 112.872 173.737 112.418 173.927C100.016 179.111 95.776 179.888 95.6181 180.383C95.4887 180.349 95.3594 180.32 95.2301 180.286C95.1334 180.262 95.0311 180.276 94.945 180.327C94.859 180.377 94.796 180.459 94.7695 180.555C94.7431 180.651 94.7553 180.753 94.8035 180.841C94.8518 180.928 94.9322 180.993 95.0276 181.021C99.8307 182.049 104.536 183.49 109.09 185.33C109.542 185.517 109.74 184.779 109.292 184.594Z" fill="#FF9F48"/>
<path d="M111.339 165.3C107 167.472 102.458 169.212 97.779 170.494C97.355 170.628 97.6614 171.448 98.0228 171.587L98.9196 178.489C98.9726 178.897 99.6224 178.903 99.5683 178.489L98.7033 171.834C101.184 172.764 103.773 173.373 106.408 173.647C106.824 173.691 106.821 173.042 106.408 172.999C104.09 172.755 99.8248 171.848 98.467 170.971C103.018 169.686 107.437 167.975 111.666 165.858C112.042 165.673 111.712 165.113 111.339 165.3ZM142.059 146.33C140.438 146.203 137.828 146.956 137.867 145.098C137.658 143.475 137.94 141.826 138.676 140.364C138.718 140.289 138.729 140.201 138.707 140.119C138.686 140.036 138.633 139.965 138.559 139.92H138.549C135.747 138.537 132.656 137.844 129.532 137.896C126.408 137.949 123.342 138.747 120.589 140.224C120.46 140.269 120.351 140.356 120.279 140.472C120.207 140.588 120.178 140.725 120.195 140.86C119.962 144.591 120.135 148.335 120.711 152.028C121.304 156.692 121.771 158.648 123.361 160.41C123.899 160.967 124.615 161.317 125.385 161.4C126.155 161.483 126.929 161.293 127.573 160.863C128.005 160.441 128.334 159.925 128.534 159.355C128.735 158.785 128.802 158.177 128.73 157.577L130.592 159.996C131.197 160.781 131.939 161.554 133.023 161.329C135.003 160.799 135.417 158.611 134.684 156.759C136.347 158.621 136.168 159.699 138.038 160.871C138.554 161.092 139.133 161.122 139.67 160.955C140.206 160.788 140.666 160.436 140.967 159.961C142.525 157.743 141.804 153.433 140.632 150.951C142.409 151.935 144.766 151.787 145.599 149.821C146.377 147.672 143.76 146.462 142.059 146.33ZM144.967 149.661C144.066 151.496 141.637 151.039 140.016 149.873C139.954 149.839 139.882 149.826 139.812 149.837C139.742 149.847 139.677 149.879 139.627 149.929C139.577 149.98 139.544 150.045 139.534 150.115C139.524 150.185 139.537 150.256 139.572 150.319C141.034 152.827 141.807 156.427 140.658 159.207C140.571 159.446 140.434 159.663 140.256 159.845C140.079 160.027 139.865 160.17 139.628 160.263C139.392 160.357 139.138 160.399 138.884 160.388C138.63 160.376 138.381 160.311 138.154 160.197C136.086 158.574 136.623 157.123 134.15 155.533C133.926 155.415 133.56 155.616 133.673 155.899C134.167 156.856 134.398 157.927 134.341 159.002C134.288 159.42 134.104 159.81 133.817 160.117C133.529 160.424 133.151 160.632 132.738 160.712C131.799 160.801 131.186 159.71 130.701 159.077L128.633 156.386C128.462 156.162 127.998 156.19 128.028 156.549C128.148 158.033 128.217 160.327 126.355 160.735C124.407 161.159 123.048 159.329 122.493 157.725C121.101 152.208 120.548 146.513 120.851 140.832C123.464 139.402 126.378 138.613 129.356 138.529C132.333 138.445 135.287 139.069 137.976 140.349C137.267 141.868 137.01 143.559 137.234 145.22C137.311 147.645 140.414 146.858 142.058 146.971C143.312 147.087 145.65 147.976 144.967 149.661Z" fill="black"/>
<path d="M135.303 148.602L134.952 150.616C134.88 151.025 135.507 151.199 135.578 150.789C135.696 150.119 135.813 149.448 135.929 148.775C135.998 148.365 135.375 148.188 135.303 148.602ZM129.817 150.422L129.605 151.754C129.539 152.163 130.164 152.339 130.23 151.927L130.442 150.595C130.508 150.186 129.882 150.011 129.817 150.422ZM125.186 150.791C125.125 151.417 124.983 152.031 124.762 152.619C124.617 153.011 125.244 153.18 125.388 152.791C125.623 152.147 125.773 151.474 125.833 150.791C125.87 150.376 125.222 150.378 125.186 150.791ZM211.526 145.312C210.286 145.926 208.934 146.28 207.552 146.354C208.516 145.138 209.193 143.72 209.534 142.205C209.876 140.691 209.871 139.119 209.522 137.607C209.441 137.264 209.31 136.932 209.233 136.589C209.146 136.215 209.105 135.834 209.01 135.46C207.681 130.439 203.481 126.968 199.733 123.335C199.432 123.045 198.973 123.503 199.273 123.794C203.418 127.811 207.682 131.28 208.59 136.647C208.85 138.061 210.491 141.517 206.689 146.381C206.441 146.381 206.321 146.517 206.317 146.686C206.313 146.855 206.487 146.686 205.759 147.474C205.363 147.375 204.973 147.249 204.593 147.097C204.207 146.939 204.038 147.567 204.421 147.723C204.692 147.829 204.972 147.918 205.252 148.003C202.26 150.994 198.892 152.97 195.12 155.57C195.068 155.608 195.027 155.66 195.003 155.72C194.979 155.78 194.972 155.846 194.984 155.91C194.996 155.973 195.026 156.032 195.07 156.08C195.114 156.127 195.171 156.161 195.234 156.177C193.145 156.472 187.259 158.34 184.472 159.025C181.334 159.692 178.276 160.69 175.348 162.002C174.81 162.208 174.338 162.556 173.982 163.009C171.407 165.52 169.19 168.373 167.394 171.489C166.855 172.305 166.542 173.25 166.487 174.227C166.48 174.62 166.629 175 166.901 175.283C167.174 175.567 167.548 175.73 167.941 175.738C170.048 175.779 171.418 171.961 173.576 171.584C171.994 176.405 171.491 177.266 172.027 178.346C172.111 178.556 172.244 178.742 172.416 178.89C172.587 179.038 172.791 179.143 173.01 179.195C173.23 179.248 173.459 179.248 173.679 179.194C173.898 179.14 174.102 179.034 174.272 178.886C175.038 178.054 174.995 177.649 176.074 176.432C177.087 175.16 178.924 174.578 179.321 174.874C179.493 175.001 179.453 174.942 179.047 179.176C178.914 179.769 178.966 180.389 179.197 180.952C179.426 181.289 179.755 181.546 180.138 181.687C180.52 181.829 180.937 181.848 181.331 181.741C183.154 181.125 183.693 179.602 184.998 177.052C185.953 175.158 187.548 173.663 189.499 172.831C195.738 169.797 202.609 171.001 209.791 170.151C209.876 170.15 209.958 170.116 210.019 170.055C210.08 169.994 210.115 169.913 210.116 169.827C209.936 167.366 209.184 164.982 207.921 162.863C206.635 160.921 204.917 159.303 202.902 158.136C200.886 156.969 198.628 156.285 196.304 156.136C195.379 156.091 195.305 156.22 195.451 156.136C199.423 153.396 202.819 151.421 205.997 148.193C206.952 148.402 207.934 148.457 208.907 148.358C209.318 148.313 209.322 147.664 208.907 147.708C208.11 147.792 207.306 147.768 206.516 147.635C206.694 147.434 206.871 147.232 207.046 147.024C208.717 147.014 210.363 146.622 211.86 145.879C212.228 145.687 211.9 145.128 211.526 145.312ZM196.029 156.774C198.286 156.891 200.485 157.531 202.451 158.645C204.418 159.758 206.098 161.315 207.359 163.19C208.516 165.124 209.225 167.293 209.434 169.537C201.406 170.412 192.542 168.856 186.284 174.201C183.932 176.215 183.177 181.23 180.762 181.147C180.556 181.154 180.352 181.105 180.171 181.006C179.99 180.907 179.839 180.76 179.734 180.583C179.495 179.863 179.696 179.75 180.052 175.353C180.097 175.155 180.082 174.949 180.009 174.76C179.936 174.571 179.808 174.408 179.641 174.293C179.224 174.126 178.762 174.106 178.332 174.235C174.907 174.911 174.326 179.429 172.951 178.468C172.735 178.272 172.58 178.017 172.508 177.734C172.436 177.452 172.448 177.154 172.544 176.878C172.702 176.259 174.375 171.194 174.346 171.301C174.359 171.253 174.36 171.202 174.35 171.153C174.34 171.104 174.319 171.057 174.288 171.018C174.258 170.978 174.218 170.946 174.173 170.924C174.128 170.902 174.079 170.89 174.028 170.89C172.146 170.867 171.006 172.566 169.866 173.809C169.363 174.357 168.083 175.717 167.327 174.822C166.744 174.125 167.396 172.885 167.731 172.224C169.368 169.227 171.428 166.481 173.847 164.071C174.55 163.134 175.537 162.45 176.661 162.12C180.98 160.379 182.903 160.163 187.467 158.876C195.422 156.631 195.019 156.74 196.029 156.774Z" fill="black"/>
<path d="M175.112 165.678V167.204C175.112 167.29 175.146 167.373 175.207 167.434C175.268 167.495 175.351 167.529 175.437 167.529C175.523 167.529 175.605 167.495 175.666 167.434C175.727 167.373 175.761 167.29 175.761 167.204V165.678C175.761 165.592 175.727 165.509 175.666 165.449C175.605 165.388 175.523 165.354 175.437 165.354C175.351 165.354 175.268 165.388 175.207 165.449C175.146 165.509 175.112 165.592 175.112 165.678ZM179.934 167.951L180.175 169.674C180.232 170.085 180.857 169.911 180.8 169.501L180.561 167.778C180.503 167.367 179.882 167.541 179.934 167.951ZM184.002 170.149C184.161 170.937 184.218 171.742 184.17 172.545C184.146 172.961 184.794 172.96 184.819 172.545C184.867 171.684 184.803 170.82 184.628 169.976C184.546 169.568 183.92 169.741 184.002 170.149ZM194.281 108.608C191.985 102.036 186.216 102.571 181.833 100.552C182.117 100.319 182.349 100.029 182.513 99.6998C182.676 99.3708 182.768 99.0108 182.781 98.6436C182.825 96.619 181.967 94.0294 179.749 93.757C179.274 93.7367 178.801 93.8211 178.363 94.0043C177.925 94.1875 177.533 94.465 177.214 94.817C175.208 96.6648 173.037 98.3253 170.728 99.7778C166.833 102.394 162.216 103.724 157.526 103.583C154.278 103.652 151.742 103.499 148.991 101.876C148.196 101.412 147.6 100.674 147.314 99.8001C147.262 99.4768 146.76 99.5054 146.687 99.8001C145.274 105.646 150.173 113.945 160.103 115.806C162.335 116.106 164.595 116.154 166.838 115.949C169.741 118.244 173.142 119.825 176.768 120.567C180.393 121.309 184.142 121.19 187.714 120.22C190.849 119.372 195.065 117.524 195.287 113.78C195.309 112.005 194.967 110.245 194.281 108.608ZM194.463 114.786C192.756 119.807 178.369 123.86 167.78 115.862C174.013 115.275 181.235 112.499 181.205 106.231C181.205 106.145 181.171 106.063 181.11 106.002C181.049 105.941 180.967 105.907 180.881 105.907C180.795 105.907 180.712 105.941 180.651 106.002C180.591 106.063 180.556 106.145 180.556 106.231C180.591 113.937 169.002 115.983 161.052 115.286C152.212 114.167 146.652 107.178 147.141 101.003C148.741 103.244 151.896 103.926 154.601 104.151C159.073 104.592 163.584 103.905 167.722 102.153C171.02 100.559 174.076 98.5075 176.802 96.0604C177.58 95.3799 178.309 94.4577 179.413 94.3972C181.468 94.2849 182.464 97.3207 182.001 99.2987C181.803 99.738 181.469 100.102 181.047 100.335C180.999 100.365 180.959 100.406 180.932 100.455C180.904 100.504 180.89 100.559 180.89 100.615C180.89 100.671 180.904 100.727 180.932 100.776C180.959 100.825 180.999 100.866 181.047 100.895C186.145 103.521 192.952 101.979 194.542 112.131C194.713 113.011 194.686 113.918 194.463 114.786Z" fill="black"/>
<path d="M151.944 106.081C151.752 105.71 151.191 106.037 151.383 106.408L152.166 107.925C152.358 108.295 152.918 107.967 152.726 107.596L151.944 106.081ZM167.394 108.355C167.54 108.743 168.168 108.575 168.02 108.183C167.763 107.506 167.507 106.828 167.252 106.149C167.106 105.763 166.478 105.93 166.626 106.322L167.394 108.355ZM171.437 109.587C170.768 110.632 169.782 111.436 168.622 111.879C167.463 112.322 166.192 112.381 164.996 112.048C164.914 112.025 164.825 112.036 164.75 112.079C164.675 112.121 164.62 112.192 164.597 112.275C164.574 112.358 164.585 112.446 164.628 112.521C164.67 112.596 164.741 112.651 164.824 112.674C166.157 113.039 167.572 112.968 168.863 112.472C170.153 111.977 171.252 111.082 171.998 109.918C172.219 109.558 171.661 109.234 171.437 109.587ZM158.646 110.203C158.344 110.316 158.01 110.31 157.712 110.187C157.414 110.063 157.174 109.831 157.041 109.537C156.738 108.753 156.691 107.893 156.908 107.081C156.969 106.673 156.344 106.497 156.282 106.91C156.129 107.441 156.082 107.997 156.144 108.546C156.206 109.096 156.376 109.627 156.645 110.111C156.892 110.479 157.263 110.748 157.69 110.867C158.118 110.987 158.574 110.95 158.977 110.763C159.342 110.566 159.015 110.005 158.646 110.203ZM179.558 97.0261C179.059 97.8693 178.496 98.6727 177.873 99.4291C177.606 99.7471 178.063 100.208 178.332 99.8881C178.999 99.0961 179.597 98.2481 180.118 97.3536C180.155 97.2797 180.163 97.1946 180.139 97.1155C180.115 97.0364 180.063 96.9692 179.991 96.9276C179.92 96.8859 179.836 96.8729 179.755 96.8912C179.675 96.9095 179.604 96.9577 179.558 97.0261ZM180.347 31.7152C179.951 31.3722 179.462 31.1549 178.942 31.0911C178.422 31.0273 177.895 31.1199 177.428 31.3569C175.918 32.8685 176.855 35.4422 178.77 35.4581C180.917 35.4485 182.05 32.8992 180.347 31.7152ZM182.469 57.3163C181.606 57.3514 180.741 57.3141 179.884 57.205C180.414 56.4779 180.929 55.7316 181.4 54.96C181.618 54.6027 181.057 54.2763 180.839 54.6324C180.392 55.3659 179.907 56.074 179.403 56.7662C178.759 55.9335 178.242 55.0092 177.871 54.024C177.727 53.636 177.1 53.8035 177.245 54.1968C177.625 55.2057 178.145 56.156 178.79 57.0195C178.253 56.9152 177.723 56.7822 177.2 56.621C176.801 56.4959 176.63 57.1224 177.027 57.2464C177.585 57.4187 178.151 57.5603 178.723 57.6704C178.162 58.3893 177.57 59.0836 176.949 59.7512C176.663 60.0564 177.121 60.5165 177.407 60.2112C178.123 59.4459 178.8 58.6473 179.437 57.8156C180.113 58.5762 180.888 59.2422 181.742 59.7957C182.094 60.0225 182.421 59.4607 182.07 59.2349C181.476 58.8492 180.922 58.4046 180.417 57.9078C181.1 57.9719 181.786 57.9921 182.471 57.9682C182.886 57.947 182.888 57.2994 182.469 57.3163ZM164.382 79.9155C163.539 79.2924 162.769 78.5763 162.087 77.7807C162.691 77.7482 163.297 77.7634 163.898 77.8263C164.313 77.8729 164.309 77.2242 163.898 77.1776C163.367 77.1216 162.832 77.1021 162.298 77.1193C162.638 76.4313 162.977 75.7413 163.342 75.0639C163.539 74.6961 162.979 74.3686 162.781 74.7364C162.357 75.5208 161.963 76.3168 161.572 77.115C161.124 76.5366 160.721 75.9249 160.365 75.2855C160.167 74.9187 159.606 75.2452 159.806 75.613C160.118 76.1803 160.468 76.726 160.854 77.2465C160.217 77.3366 159.589 77.4784 158.976 77.6705C158.579 77.7966 158.748 78.4231 159.147 78.2959C159.822 78.0847 160.515 77.9367 161.218 77.8538C160.822 78.6912 160.436 79.5329 160.074 80.3851C159.913 80.7657 160.471 81.0964 160.635 80.7137C160.975 79.9113 161.339 79.1237 161.71 78.333C162.413 79.1298 163.199 79.8496 164.054 80.4805C164.391 80.7243 164.716 80.1615 164.382 79.9155ZM134.048 86.2384C133.378 86.6116 132.717 87.0069 132.053 87.3907C132.251 86.8299 132.442 86.266 132.61 85.6947C132.633 85.6117 132.622 85.5231 132.58 85.4482C132.537 85.3734 132.467 85.3185 132.384 85.2956C132.301 85.2727 132.212 85.2836 132.138 85.3261C132.063 85.3685 132.008 85.4389 131.985 85.5219C131.868 85.9197 131.742 86.3144 131.61 86.7059C131.292 86.0699 130.974 85.4275 130.682 84.7746C130.514 84.393 129.953 84.7237 130.121 85.1021C130.49 85.9342 130.888 86.7525 131.302 87.5624C131.139 88.0065 131.514 87.6991 128.61 89.3792C128.538 89.4239 128.487 89.4948 128.466 89.5768C128.446 89.6588 128.459 89.7455 128.501 89.8184C128.544 89.8913 128.613 89.9447 128.695 89.9672C128.776 89.9897 128.863 89.9796 128.937 89.9389L130.79 88.8683C130.578 89.3644 130.366 89.8562 130.138 90.3417C129.959 90.7169 130.518 91.0466 130.698 90.6692C131.063 89.906 131.397 89.1287 131.702 88.3372L131.717 88.3288C132.081 89.0125 132.449 89.694 132.846 90.3587C132.892 90.427 132.962 90.4752 133.043 90.4935C133.123 90.5118 133.208 90.4988 133.279 90.4572C133.35 90.4155 133.403 90.3484 133.427 90.2692C133.45 90.1901 133.443 90.105 133.406 90.0311C133.015 89.3644 132.639 88.6886 132.278 88.0044L134.375 86.7928C134.438 86.7445 134.481 86.675 134.496 86.5972C134.511 86.5194 134.497 86.4389 134.457 86.3707C134.416 86.3025 134.353 86.2514 134.277 86.2271C134.202 86.2027 134.12 86.2067 134.048 86.2384ZM103.742 56.1631C102.859 55.8896 101.983 55.6002 101.108 55.3045C101.684 55.0395 102.251 54.7554 102.799 54.4342C102.869 54.3888 102.918 54.3182 102.937 54.2372C102.957 54.1562 102.944 54.0709 102.902 53.9989C102.86 53.927 102.792 53.8739 102.712 53.8508C102.632 53.8276 102.546 53.8361 102.472 53.8745C101.737 54.2965 100.974 54.6683 100.189 54.9875C100.02 54.9282 99.8488 54.872 99.6803 54.8116C99.951 53.7307 100.149 52.6329 100.272 51.5256C100.315 51.1111 99.6655 51.1143 99.6231 51.5256C99.5071 52.5576 99.3237 53.5809 99.074 54.589C97.8649 54.1515 96.6635 53.6922 95.47 53.211C95.0831 53.053 94.9156 53.6805 95.2983 53.8364C99.4259 55.509 98.968 55.0511 98.8461 55.4815C98.0485 55.7475 97.234 55.9599 96.4081 56.1175C95.9979 56.1938 96.1717 56.8192 96.5798 56.7429C97.2626 56.611 97.9377 56.4422 98.6023 56.2373C98.3267 57.1141 98.0003 57.9741 97.625 58.8131C97.4532 59.1904 98.0129 59.5201 98.1857 59.1417C99.8912 55.349 98.6934 56.2797 100.209 55.6744C101.322 56.0602 102.435 56.4334 103.565 56.781C103.97 56.9125 104.14 56.286 103.742 56.1631ZM123.832 16.7109C123.555 16.8996 123.266 17.065 122.977 17.2314L123.641 16.2774C123.879 15.9339 123.323 15.6096 123.081 15.9498L122.211 17.2017C121.933 16.4648 121.744 15.6977 121.647 14.9163C121.597 14.5072 120.947 14.5019 120.998 14.9163C121.121 15.919 121.382 16.8999 121.773 17.8313C120.903 18.23 119.988 18.5205 119.048 18.6963C118.638 18.7747 118.811 19.4012 119.22 19.3217C119.859 19.192 120.488 19.0148 121.101 18.7917L119.654 20.882C119.415 21.2255 119.972 21.5498 120.215 21.2085L122.087 18.5161C122.478 19.2965 122.962 20.0271 123.527 20.6923C123.798 21.0103 124.255 20.5492 123.986 20.2333C123.448 19.6004 122.991 18.9032 122.625 18.1578C123.156 17.8979 123.668 17.6033 124.16 17.2759C124.503 17.0374 124.179 16.4756 123.832 16.7109ZM158.053 38.7568C157.92 38.3625 157.293 38.5321 157.427 38.9296C157.568 39.3462 158.878 43.2289 158.945 43.4738C158.99 43.6619 158.96 43.8601 158.861 44.0262C158.762 44.1923 158.602 44.3132 158.415 44.3631C156.475 44.7365 154.475 44.6534 152.573 44.1204C152.352 44.0642 152.081 44.2773 152.174 44.519C153.67 48.4452 155.166 52.3721 156.661 56.2998C154.7 56.003 152.75 55.632 150.821 55.1667C150.526 55.0956 150.247 55.4847 150.503 55.7083C152.93 57.7944 155.317 59.9264 157.663 62.1044L152.388 63.3022C151.982 63.3944 152.153 64.0208 152.561 63.9276L158.427 62.5962C158.468 62.5844 158.506 62.5645 158.54 62.5377C158.574 62.511 158.602 62.4778 158.622 62.4402C158.643 62.4026 158.656 62.3612 158.661 62.3185C158.666 62.2758 158.662 62.2326 158.65 62.1913C158.557 61.8733 152.138 56.2765 151.886 56.0602C153.605 56.4418 155.332 56.7747 157.075 57.0238C157.287 57.0545 157.573 56.8839 157.475 56.6252L153.001 44.8815C153.991 45.0973 154.998 45.219 156.01 45.2451C156.998 45.3679 158.001 45.2267 158.916 44.8359C159.218 44.6787 159.448 44.4114 159.558 44.0894C159.669 43.7674 159.651 43.4153 159.509 43.106C159.356 42.524 158.96 41.4524 158.053 38.7568ZM113.086 41.87C113.108 41.4524 112.46 41.4545 112.437 41.87C112.339 43.7769 112.549 45.6871 113.059 47.5272C113.081 47.6102 113.136 47.6806 113.211 47.723C113.286 47.7655 113.375 47.7765 113.458 47.7536C113.541 47.7306 113.611 47.6757 113.653 47.6009C113.696 47.526 113.707 47.4374 113.684 47.3545C113.192 45.5702 112.99 43.7184 113.086 41.87ZM116.42 38.566C116.459 38.1494 115.809 38.1526 115.771 38.566C115.644 39.9562 115.713 41.3574 115.975 42.7286C116.052 43.1378 116.677 42.9639 116.601 42.5558C116.355 41.2408 116.294 39.8979 116.42 38.566ZM121.452 48.8247C120.224 46.9148 119.703 44.6356 119.979 42.382C120.03 41.9686 119.38 41.9718 119.331 42.382C119.048 44.7511 119.6 47.1446 120.891 49.1512C121.117 49.502 121.678 49.1766 121.452 48.8247ZM121.086 55.6278C121.167 55.6454 121.252 55.6313 121.323 55.5882C121.395 55.5452 121.447 55.4765 121.469 55.3963C121.491 55.3161 121.481 55.2304 121.442 55.157C121.403 55.0835 121.338 55.0278 121.259 55.0013C120.549 54.8235 119.891 54.4831 119.336 54.007C118.781 53.5308 118.344 52.9321 118.061 52.258C117.904 51.8764 117.276 52.046 117.435 52.4308C117.749 53.2137 118.243 53.9115 118.877 54.4671C119.512 55.0227 120.268 55.4204 121.086 55.6278ZM123.456 60.0723C121.709 59.921 120.061 59.1931 118.772 58.0032C118.465 57.7202 118.005 58.1792 118.313 58.4633C119.729 59.767 121.538 60.5618 123.456 60.7221C123.872 60.7571 123.87 60.1084 123.456 60.0723ZM131.773 57.3619C130.197 57.969 128.467 58.0534 126.84 57.6025C126.759 57.5857 126.674 57.6004 126.604 57.6436C126.533 57.6868 126.481 57.7553 126.46 57.8351C126.438 57.915 126.447 58.0001 126.486 58.0733C126.524 58.1465 126.59 58.2022 126.668 58.229C128.408 58.7139 130.258 58.6292 131.947 57.9873C132.331 57.84 132.164 57.2114 131.773 57.3619ZM140.255 54.8762C138.676 55.0741 137.105 55.3285 135.543 55.6394C135.134 55.72 135.307 56.3464 135.716 56.2648C137.22 55.9659 138.733 55.7186 140.255 55.5228C140.662 55.4741 140.669 54.8243 140.255 54.8762ZM143.217 59.1226C142.001 58.3725 140.547 58.1058 139.144 58.3753C138.733 58.4516 138.907 59.077 139.316 59.0007C140.55 58.774 141.825 59.0175 142.889 59.6833C143.245 59.9038 143.572 59.3431 143.217 59.1226ZM116.219 68.3266C115.88 68.0838 115.555 68.6446 115.893 68.8873C116.85 69.5684 117.918 70.0784 119.049 70.3946C119.131 70.4152 119.218 70.4027 119.291 70.36C119.364 70.3172 119.418 70.2475 119.44 70.1658C119.462 70.0841 119.452 69.9969 119.411 69.9228C119.37 69.8486 119.302 69.7935 119.22 69.7692C118.144 69.465 117.129 68.9769 116.219 68.3266ZM141.269 81.4525C141.528 81.085 141.698 80.663 141.768 80.2192C141.837 79.7754 141.804 79.3215 141.67 78.8926C141.549 78.4941 140.928 78.6637 141.046 79.0644C141.154 79.4103 141.18 79.7769 141.122 80.1347C141.063 80.4925 140.922 80.8316 140.709 81.125C140.468 81.4674 141.031 81.7917 141.269 81.4525ZM130.575 33.5639C130.992 33.5829 130.991 32.9342 130.575 32.9141C129.522 32.8656 128.52 32.4436 127.749 31.7237C127.443 31.4396 126.983 31.8975 127.289 32.1816C128.185 33.0185 129.35 33.5086 130.575 33.5639ZM138.465 14.9789L139.279 11.43C139.372 11.023 138.749 10.8502 138.653 11.2572L137.838 14.8072C137.745 15.2131 138.37 15.387 138.465 14.9789ZM101.76 15.5969C102.168 15.6679 102.344 15.0425 101.933 14.9715C100.428 14.7165 99.0579 13.9492 98.0543 12.7995C97.7776 12.4815 97.3207 12.9458 97.5953 13.2596C98.6759 14.4914 100.146 15.3162 101.76 15.5969ZM184.944 76.7218V80.5378C184.948 80.6207 184.985 80.6987 185.045 80.7558C185.105 80.8128 185.185 80.8446 185.268 80.8446C185.352 80.8446 185.431 80.8128 185.492 80.7558C185.552 80.6987 185.589 80.6207 185.593 80.5378V76.7218C185.589 76.6388 185.552 76.5608 185.492 76.5037C185.431 76.4467 185.352 76.4149 185.268 76.4149C185.185 76.4149 185.105 76.4467 185.045 76.5037C184.985 76.5608 184.948 76.6388 184.944 76.7218ZM213.688 102.918C213.271 102.885 213.273 103.534 213.688 103.566C223.342 104.319 229.244 113.448 233.767 120.857C233.984 121.212 234.546 120.887 234.327 120.528C229.356 112.392 223.583 103.738 213.688 102.918ZM237.569 115.848C235.9 112.155 233.462 108.859 230.419 106.182C227.376 103.504 223.797 101.505 219.921 100.318C219.84 100.301 219.755 100.315 219.684 100.358C219.613 100.401 219.561 100.47 219.539 100.55C219.516 100.63 219.526 100.716 219.565 100.789C219.604 100.863 219.67 100.918 219.749 100.945C223.543 102.111 227.045 104.073 230.022 106.699C232.998 109.325 235.38 112.556 237.01 116.176C237.178 116.557 237.74 116.226 237.569 115.848ZM99.9877 147.697C96.893 143.661 94.071 139.422 91.5406 135.01C91.4959 134.938 91.425 134.887 91.343 134.867C91.261 134.846 91.1743 134.859 91.1014 134.902C91.0284 134.944 90.975 135.014 90.9525 135.095C90.93 135.177 90.9402 135.264 90.9809 135.338C93.5102 139.751 96.3318 143.99 99.427 148.026C99.6771 148.352 100.242 148.029 99.9877 147.697ZM98.7411 150.174C93.0627 148.271 87.5407 145.928 82.2253 143.169C81.8564 142.977 81.5267 143.537 81.8988 143.73C87.2635 146.516 92.8368 148.88 98.5684 150.801C98.9659 150.934 99.1365 150.308 98.7411 150.174ZM94.7852 153.43C90.851 154.683 86.7761 155.441 82.6546 155.688C82.2391 155.712 82.2359 156.362 82.6546 156.337C86.8343 156.088 90.967 155.322 94.958 154.055C95.3544 153.929 95.188 153.303 94.7852 153.43ZM177.923 195.612C177.835 195.203 177.209 195.376 177.297 195.784C178.059 199.346 178.82 202.908 179.58 206.47C179.667 206.878 180.293 206.705 180.206 206.297L177.923 195.612ZM180.663 194.697C180.397 194.379 179.941 194.835 180.203 195.157L188.356 205.068C188.622 205.386 189.078 204.929 188.816 204.609L180.663 194.697ZM193.556 197.203C190.222 195.371 186.721 193.86 183.101 192.691C182.702 192.563 182.532 193.188 182.927 193.316C186.495 194.468 189.944 195.957 193.228 197.763C193.601 197.965 193.928 197.405 193.556 197.203Z" fill="black"/>
<path d="M153.6 81.7811C153.193 81.7703 152.792 81.8834 152.45 82.1054C152.108 82.3274 151.842 82.6479 151.686 83.0245C151.645 83.546 151.772 84.0669 152.05 84.5103C152.327 84.9537 152.74 85.2961 153.227 85.4869C153.486 85.5301 153.75 85.522 154.006 85.4629C154.261 85.4038 154.502 85.295 154.716 85.1426C154.929 84.9902 155.11 84.7972 155.249 84.5748C155.388 84.3523 155.481 84.1046 155.524 83.846C155.543 83.5819 155.507 83.3167 155.419 83.0671C155.331 82.8174 155.192 82.5886 155.012 82.3949C154.831 82.2012 154.613 82.0467 154.37 81.9411C154.127 81.8355 153.865 81.7811 153.6 81.7811ZM88.2311 26.0008C91.1851 26.5898 94.2232 26.6222 97.1891 26.0962C91.0115 36.1439 91.7121 34.8942 91.4227 35.6213C91.2182 36.3559 91.4757 37.0216 92.5071 36.6008C93.3551 36.2552 95.437 35.3712 100.686 33.178C97.8972 41.2181 97.3036 42.4223 97.4499 44.4861C97.4509 44.546 97.4675 44.6045 97.4979 44.6561C97.5283 44.7077 97.5715 44.7505 97.6234 44.7804C97.6753 44.8103 97.734 44.8262 97.7939 44.8266C97.8538 44.8271 97.9127 44.812 97.9651 44.7829C99.5158 43.8806 100.882 42.6938 101.993 41.2849C102.262 40.9415 101.781 40.4517 101.507 40.8005C100.56 41.9998 99.4205 43.0333 98.1347 43.8586C98.1813 42.1742 98.4845 41.6326 101.597 32.6618C101.676 32.4318 101.414 32.1392 101.173 32.2378L92.0566 36.0538C91.9909 35.827 92.2824 35.3945 92.3672 35.2577C92.6428 34.8072 98.1845 25.7972 98.1845 25.7972C98.2287 25.7164 98.239 25.6213 98.2132 25.5329C98.1873 25.4444 98.1275 25.3698 98.0467 25.3255C97.5718 25.0648 94.5487 26.4332 88.9243 25.4315C90.4512 23.4182 91.7237 21.224 92.7128 18.8988C92.8834 18.497 92.2888 18.1462 92.1202 18.5532C89.5487 24.6546 87.1403 25.669 88.2311 26.0008ZM195.088 90.7858L189.454 92.98C189.001 93.1571 189.198 93.8948 189.656 93.722L195.29 91.5268C195.742 91.3455 195.545 90.6067 195.088 90.7858ZM195.59 67.327L196.619 74.1947C196.691 74.6781 197.426 74.4724 197.355 73.9912C197.011 71.703 196.669 69.4141 196.327 67.1245C196.254 66.6401 195.518 66.8468 195.59 67.327ZM98.7102 84.7725L99.4014 90.3777C99.4597 90.859 100.224 90.8643 100.165 90.3777L99.4734 84.7725C99.4141 84.2912 98.6509 84.2849 98.7102 84.7725ZM106.016 102.981C109.779 99.7322 111.104 99.8255 110.68 99.1651C110.628 99.0833 110.547 99.0242 110.454 98.9996C110.36 98.975 110.26 98.9868 110.175 99.0326C108.515 100.034 106.943 101.175 105.476 102.443C105.104 102.763 105.646 103.3 106.016 102.981ZM120.539 80.9628C120.642 81.956 120.986 82.9091 121.539 83.74C121.813 84.1449 122.474 83.7633 122.199 83.3552C121.711 82.6436 121.403 81.824 121.302 80.9671C121.248 80.4805 120.486 80.4741 120.539 80.9628ZM80.015 75.0565L76.9855 76.3804C76.5361 76.5765 76.9251 77.2348 77.3703 77.0398L80.3998 75.7158C80.8492 75.5187 80.4613 74.8625 80.015 75.0565ZM77.9099 44.6864C75.7737 44.8361 73.6297 44.5409 71.6135 43.8194C71.1513 43.6529 70.951 44.3907 71.411 44.555C73.4922 45.2989 75.705 45.6035 77.9099 45.4496C78.3964 45.4157 78.3996 44.6515 77.9099 44.6864ZM148.632 33.9041C147.616 33.0244 146.934 31.8205 146.704 30.4962C146.616 30.0129 145.881 30.2174 145.962 30.6987C146.223 32.1533 146.974 33.4748 148.09 34.4437C148.461 34.768 149.004 34.2264 148.632 33.9041ZM162.08 17.2346C163.679 16.1979 165.278 15.1619 166.878 14.1266C167.289 13.8606 166.907 13.2002 166.493 13.4684L161.694 16.5752C161.284 16.8413 161.667 17.5027 162.08 17.2346ZM209.585 76.991L214.905 77.8835C215.385 77.963 215.592 77.2284 215.108 77.1479L209.788 76.2554C209.307 76.1748 209.101 76.9094 209.585 76.991ZM218.498 49.5646C218.163 47.5297 218.153 45.4548 218.466 43.4166C218.54 42.9364 217.804 42.7286 217.729 43.2141C217.394 45.3858 217.406 47.5967 217.762 49.7649C217.842 50.2514 218.577 50.0469 218.498 49.5646ZM206.179 110.899C204.719 111.622 203.257 112.344 201.794 113.066C201.354 113.284 201.74 113.943 202.18 113.725L206.565 111.559C207.005 111.341 206.618 110.682 206.179 110.899ZM217.917 123.842L216.489 129.211C216.465 129.308 216.479 129.41 216.53 129.496C216.58 129.582 216.662 129.645 216.758 129.671C216.854 129.698 216.957 129.686 217.044 129.637C217.131 129.589 217.196 129.509 217.225 129.413L218.653 124.045C218.675 123.95 218.658 123.849 218.608 123.765C218.557 123.681 218.476 123.62 218.382 123.594C218.287 123.568 218.186 123.579 218.1 123.625C218.013 123.671 217.948 123.749 217.917 123.842ZM166.086 144.404C166.563 144.516 166.768 143.781 166.288 143.668C164.979 143.362 163.717 142.881 162.537 142.237C162.106 142.003 161.72 142.661 162.152 142.896C163.39 143.573 164.713 144.08 166.086 144.404ZM180.742 126.316C180.53 125.872 179.871 126.259 180.083 126.701L182.145 131.012C182.357 131.455 183.015 131.069 182.804 130.627L180.742 126.316ZM243.916 134.627L246.137 138.631C246.186 138.72 246.268 138.785 246.366 138.813C246.463 138.841 246.567 138.829 246.656 138.78C246.745 138.731 246.81 138.649 246.838 138.551C246.866 138.454 246.854 138.35 246.805 138.261L244.579 134.257C244.525 134.181 244.444 134.127 244.352 134.106C244.26 134.085 244.164 134.099 244.082 134.145C243.999 134.191 243.937 134.266 243.907 134.355C243.876 134.444 243.88 134.541 243.916 134.627ZM237.248 74.3357L234.174 75.826C233.732 76.038 234.118 76.6984 234.558 76.4854L237.632 74.995C238.076 74.7809 237.688 74.1226 237.248 74.3357Z" fill="#B26EE6"/>
</svg>
