<svg width="375" height="199" viewBox="0 0 375 199" fill="none" xmlns="http://www.w3.org/2000/svg">
<path d="M226.351 134.141C226.083 133.53 225.471 133.169 224.804 133.136C219.023 132.854 210.521 132.642 206.804 132.461C205.934 132.418 205.223 131.793 205.036 130.942C203.867 125.597 202.232 118.18 201.541 114.503C201.536 114.476 201.548 114.451 201.569 114.435V114.435C206.066 111.531 210.111 103.735 204.273 92.731C203.935 92.094 203.26 91.71 202.54 91.7301C194.553 91.9522 187.166 93.7768 180.31 97.7288C179.639 98.1155 179.275 98.8691 179.359 99.6388C179.413 100.139 179.463 100.607 179.507 101.032C179.595 101.879 179.116 102.688 178.341 103.04C158.188 112.197 154.237 115.013 153.467 119.685C152.563 125.198 157.308 133.046 171.168 155.925C171.447 156.385 171.904 156.732 172.436 156.811C177.5 157.557 184.463 154.922 186.765 150.714C187.035 150.222 186.998 149.637 186.749 149.135C184.522 144.64 179.047 133.626 176.164 128.166C175.589 127.076 176.098 125.714 177.253 125.284C179.364 124.499 181.555 123.662 183.748 122.791C185.832 121.962 187.727 125.287 186.241 126.966V126.966C185.788 127.478 185.864 127.945 186.077 128.594C188.634 136.376 191.59 144.987 194.781 146.463C198.635 148.245 200.432 148.778 225.071 148.789C225.564 148.789 226.071 148.617 226.361 148.219C228.488 145.295 228.065 138.048 226.351 134.141Z" fill="#F15929"/>
<path d="M147.421 35.9847C146.452 35.4607 145.241 35.8176 144.736 36.7963C144.392 37.4629 144.066 38.1152 143.754 38.7478C139.154 48.2383 138.248 54.514 138.264 59.1994C138.281 61.5079 138.503 63.4231 138.624 65.1673V65.1673C138.624 65.1779 138.63 65.1877 138.639 65.193C138.761 65.2637 138.88 65.3344 139.001 65.407C139.353 65.6171 139.779 65.4716 140.109 65.2279C140.642 64.8337 141.273 65.1028 142.557 65.7316C144.865 66.8602 145.088 66.9628 145.257 68.5873V68.5873C145.281 68.8729 145.586 69.0222 145.837 68.8839C147.318 68.0682 148.981 67.2163 150.849 66.0187C154.799 63.4708 159.552 59.2984 164.973 50.2525C165.341 49.6367 165.713 49.0069 166.088 48.3538C166.637 47.3972 166.274 46.1853 165.304 45.6605L147.421 35.9847ZM153.597 53.6061C152.985 53.6994 152.493 54.165 152.365 54.7706V54.7706C152.075 56.1505 150.202 56.3949 149.573 55.1332V55.1332C149.295 54.5772 148.699 54.2529 148.082 54.3231V54.3231C146.687 54.4815 145.889 52.778 146.886 51.7901V51.7901C147.327 51.3529 147.453 50.6838 147.197 50.1178V50.1178C146.615 48.8319 147.982 47.5321 149.236 48.1782V48.1782C149.788 48.4621 150.458 48.3741 150.917 47.957V47.957C151.96 47.0104 153.608 47.9302 153.381 49.3197V49.3197C153.282 49.9316 153.573 50.5463 154.112 50.852V50.852C155.335 51.5451 154.986 53.394 153.597 53.6061V53.6061Z" fill="#F15929"/>
<path d="M234.957 28.1743C234.471 27.9597 234.067 28.4169 234.064 28.9487V28.9487C234.06 29.6959 234.825 30.2285 235.424 29.7806C235.666 29.5991 235.798 29.411 235.838 29.223C235.931 28.7824 235.457 28.3947 234.957 28.1743Z" fill="#FFF0D9"/>
<path d="M228.476 134.844C228.306 134.679 228.081 134.588 227.844 134.59V134.59C227.208 134.597 226.822 135.255 227.004 135.865C227.968 139.1 228.052 143.314 227.306 146.123C227.126 146.802 227.201 147.545 227.683 148.056C229.632 150.12 233.289 152.657 236.76 154.151C238.002 154.686 239.241 153.68 238.918 152.367C237.284 145.733 231.359 137.663 228.476 134.844Z" fill="#FFF0D9"/>
<path d="M224.335 29.1019C224.197 28.6257 223.704 28.3489 223.25 28.5476C222.904 28.699 222.582 28.9595 222.582 29.3773C222.582 29.5912 222.715 29.8181 223.01 30.032C223.679 30.5158 224.565 29.8945 224.335 29.1019V29.1019Z" fill="#FFF0D9"/>
<path d="M205.272 75.6368C204.807 75.8952 204.534 76.4061 204.572 76.9364V76.9364C204.684 78.525 207.4 78.8227 207.847 77.294C207.879 77.1812 207.912 77.0693 207.945 76.9584C208.303 75.733 206.991 74.6809 205.875 75.3013L205.272 75.6368Z" fill="#FFF0D9"/>
<path d="M198.953 41.2314C198.431 41.2656 197.536 41.0264 197.043 40.8501V40.8501C196.505 40.6577 194.638 40.5986 194.074 40.6883C194.052 40.6918 194.031 40.6957 194.009 40.7001C193.447 40.8132 191.93 40.8801 191.365 40.9804C191.323 40.9879 191.281 40.9969 191.238 41.0073C190.635 41.1551 188.775 41.5571 188.303 41.9605C187.977 42.2384 187.701 42.6645 187.599 43.2106C187.509 43.6909 187.421 44.1581 187.338 44.6121C187.077 46.0425 188.419 47.2199 189.856 46.9963C190.256 46.9341 190.657 46.8822 191.059 46.8406C192.359 46.7063 193.247 47.978 193.412 49.2743C193.497 49.9387 193.748 50.1633 194.148 49.3153C194.917 47.6566 196.884 48.9049 195.498 51.0766C195.275 51.5262 195.183 52.03 195.234 52.5295V52.5295C195.288 53.0484 195.888 52.9286 195.997 52.4184C196.7 49.1354 198.878 45.4389 199.619 43.8091C200.425 42.0448 199.828 41.1742 198.953 41.2314Z" fill="#FFF0D9"/>
<path d="M185.49 122.093C184.715 122.404 184.32 123.262 184.584 124.054C184.67 124.315 184.758 124.578 184.846 124.844C185.235 126.021 186.519 126.639 187.372 125.74V125.74C188.622 124.424 187.174 121.416 185.49 122.093V122.093Z" fill="#FFF0D9"/>
<path d="M191.018 56.973C190.718 57.0811 190.509 57.3611 190.492 57.6793V57.6793C190.456 58.3441 191.189 58.7681 191.627 58.267C191.721 58.1592 191.813 58.0486 191.901 57.9356C192.341 57.3701 191.693 56.7298 191.018 56.973V56.973Z" fill="#FFF0D9"/>
<path d="M185.049 152.908C185.826 152.183 187.05 151.979 187.795 152.737V152.737C188.282 153.233 188.39 153.98 188.099 154.611C184.971 161.385 179.625 167.283 175.811 170.627C174.588 171.7 172.898 170.743 173.107 169.129C173.6 165.336 174.475 161.6 175.721 157.978C175.962 157.276 176.587 156.789 177.314 156.64C180.136 156.062 183.06 154.763 185.049 152.908Z" fill="#FFF0D9"/>
<path d="M177.708 85.6163C177.547 84.227 176.449 82.9071 175.499 83.9333V83.9333C174.245 85.2873 175.229 88.8325 176.903 88.0559V88.0559C177.521 87.7692 177.883 87.1136 177.804 86.4369C177.772 86.1612 177.74 85.8875 177.708 85.6163Z" fill="#FFF0D9"/>
<path d="M147.653 71.0326C147.416 70.8926 147.071 70.9492 146.729 71.1851C146.305 71.4767 146.291 72.0877 146.645 72.4608V72.4608C147.213 73.0595 148.171 72.5703 148.042 71.755C147.983 71.3797 147.842 71.1439 147.653 71.0326Z" fill="#FFF0D9"/>
<path d="M142.52 81.3548C143.042 81.6678 143.152 82.4 142.647 82.7389C142.266 82.9942 141.956 83.0582 141.72 82.9852C141.396 82.8851 141.24 82.4841 141.234 81.9501C141.226 81.3085 141.97 81.0247 142.52 81.3548V81.3548Z" fill="#FFF0D9"/>
<path d="M130.553 145.537C133.396 145.537 135.7 143.232 135.7 140.39C135.7 137.547 133.396 135.243 130.553 135.243C127.711 135.243 125.406 137.547 125.406 140.39C125.406 143.232 127.711 145.537 130.553 145.537Z" fill="#FFF0D9"/>
<path d="M138.624 79.0869C138.654 77.7042 139.238 76.2405 140.217 74.3479C140.461 73.8769 140.502 73.332 140.421 72.8078C140.331 72.2231 140.329 71.6267 140.417 71.0385C140.546 70.1765 140.864 69.3535 141.348 68.6289C141.148 68.9388 140.926 69.2338 140.684 69.5119C140.454 69.7766 140.408 70.1548 140.431 70.5048C140.487 71.3671 139.845 72.2613 138.804 71.9553C138.707 71.9269 138.608 72.0398 138.662 72.125V72.125C138.671 72.1389 138.683 72.1506 138.698 72.1588C140.335 73.1082 139.456 75.132 137.807 74.7373C137.729 74.7187 137.653 74.8416 137.712 74.8952V74.8952C137.716 74.8991 137.721 74.9025 137.726 74.9052C139.494 75.8482 138.383 78.1146 136.47 77.2779C135.907 77.0249 135.413 76.8183 134.978 76.6373C134.612 76.4848 134.277 76.4914 133.944 76.7075V76.7075C132.937 77.3616 132.241 79.6894 133.297 80.2614L135.771 81.6005C136.861 82.191 138.587 80.3267 138.624 79.0869V79.0869Z" fill="#FFF0D9"/>
<path d="M129.102 77.9953C128.236 77.5262 127.158 77.757 126.56 78.5393L125.804 79.5295C125.058 80.5053 125.36 81.9165 126.439 82.502L137.874 88.7037C138.953 89.2889 140.3 88.773 140.712 87.6167L141.131 86.4379C141.462 85.5092 141.067 84.478 140.2 84.0084L129.102 77.9953Z" fill="#FFF0D9"/>
<path d="M143.498 81.9597C141.878 80.8995 140.01 79.959 138.607 79.0527" stroke="black" stroke-linecap="round" stroke-linejoin="round"/>
<path d="M186.761 48.2212L184.331 22.7336C184.132 20.6444 181.26 20.2332 180.482 22.1826L158.683 76.8466" stroke="black" stroke-linecap="round" stroke-linejoin="round"/>
<path d="M188.283 64.3291L187.599 56.9932" stroke="black" stroke-linecap="round" stroke-linejoin="round"/>
<path d="M224.244 133.105L246.29 77.821C246.87 76.3655 245.627 74.8381 244.084 75.1106L206.562 81.7367" stroke="black" stroke-linecap="round" stroke-linejoin="round"/>
<path d="M199.791 148.018L202.58 177.267C202.779 179.357 205.651 179.768 206.429 177.818L218.02 148.753" stroke="black" stroke-linecap="round" stroke-linejoin="round"/>
<path d="M153.484 89.877L140.603 122.178C140.023 123.634 141.266 125.161 142.809 124.889L153.501 123" stroke="black" stroke-linecap="round" stroke-linejoin="round"/>
<path d="M143.772 38.7817L136.638 34.9266C135.666 34.4018 134.443 34.7659 133.983 35.7692C128.362 48.009 134.449 57.1615 138.282 59.2333" stroke="black" stroke-linecap="round" stroke-linejoin="round"/>
<path d="M149.589 55.1444C149.309 54.591 148.714 54.2684 148.098 54.3364V54.3364C146.698 54.4909 145.885 52.7947 146.885 51.8038V51.8038C147.326 51.3667 147.448 50.7004 147.192 50.1346V50.1346C146.611 48.8492 147.977 47.548 149.231 48.1934V48.1934C149.783 48.4771 150.453 48.3883 150.911 47.9702V47.9702C151.951 47.0216 153.603 47.9176 153.376 49.3064V49.3064C153.276 49.9184 153.569 50.5292 154.108 50.8364V50.8364C155.333 51.535 154.995 53.3914 153.601 53.6048V53.6048C152.986 53.6989 152.495 54.1663 152.371 54.7757V54.7757C152.089 56.1548 150.224 56.4006 149.589 55.1444V55.1444Z" stroke="black" stroke-linecap="round" stroke-linejoin="round"/>
<path d="M165.035 50.2754L172.113 54.1245C173.083 54.6517 173.445 55.8744 172.857 56.808C165.675 68.2068 154.686 68.1115 150.868 66.0397" stroke="black" stroke-linecap="round" stroke-linejoin="round"/>
<path d="M137.62 159.972C143.192 159.972 147.708 155.456 147.708 149.884C147.708 144.312 143.192 139.796 137.62 139.796C132.049 139.796 127.532 144.312 127.532 149.884C127.532 155.456 132.049 159.972 137.62 159.972Z" stroke="black" stroke-linecap="round" stroke-linejoin="round"/>
<path d="M247.653 49.7088C249.372 49.7088 250.765 48.3154 250.765 46.5966C250.765 44.8778 249.372 43.4844 247.653 43.4844C245.934 43.4844 244.541 44.8778 244.541 46.5966C244.541 48.3154 245.934 49.7088 247.653 49.7088Z" stroke="black" stroke-linecap="round" stroke-linejoin="round"/>
<path d="M126.79 101.539C127.669 101.539 128.381 100.827 128.381 99.9487C128.381 99.0704 127.669 98.3584 126.79 98.3584C125.912 98.3584 125.2 99.0704 125.2 99.9487C125.2 100.827 125.912 101.539 126.79 101.539Z" stroke="black" stroke-linecap="round" stroke-linejoin="round"/>
<path d="M208.119 23.4258L207.122 27.4114C206.843 28.5274 207.807 29.5603 208.939 29.3595V29.3595C210.072 29.1587 211.036 30.1916 210.757 31.3076L209.76 35.2932" stroke="black" stroke-linecap="round" stroke-linejoin="round"/>
<path d="M137.342 74.5548C139.277 75.4728 140.469 73.1553 138.659 72.1248C137.309 71.3571 136.333 70.8756 135.239 70.3122C134.913 70.1239 134.527 70.0686 134.161 70.1579C133.795 70.2472 133.478 70.474 133.275 70.7913C133.072 71.1086 133 71.4918 133.072 71.8613C133.145 72.2307 133.358 72.5578 133.665 72.7746C134.537 73.3245 135.566 73.7124 137.342 74.5548Z" stroke="black" stroke-linecap="round" stroke-linejoin="round"/>
<path d="M139.65 65.8004C138.966 65.39 138.472 65.1128 137.803 64.7204C137.488 64.5143 137.105 64.4392 136.735 64.5109C136.365 64.5825 136.037 64.7955 135.821 65.1045C135.606 65.4136 135.519 65.7944 135.579 66.1664C135.64 66.5384 135.842 66.8722 136.145 67.0973C136.876 67.5854 137.642 68.0197 138.436 68.3969" stroke="black" stroke-linecap="round" stroke-linejoin="round"/>
<path d="M136.486 77.2738C138.384 78.1117 139.495 75.8401 137.718 74.8969C136.4 74.1976 135.423 73.7566 134.366 73.2553C134.047 73.076 133.671 73.0276 133.317 73.1201C132.962 73.2127 132.658 73.439 132.467 73.7514C132.277 74.0639 132.215 74.4381 132.295 74.7953C132.375 75.1525 132.59 75.4648 132.895 75.6664C133.75 76.1614 134.742 76.5043 136.486 77.2738Z" stroke="black" stroke-linecap="round" stroke-linejoin="round"/>
<path d="M138.4 68.4674C137.699 68.0912 137.079 67.8077 136.399 67.4414C136.072 67.2387 135.68 67.1709 135.304 67.2524C134.929 67.3339 134.599 67.5583 134.386 67.878C134.173 68.1978 134.093 68.588 134.162 68.966C134.231 69.344 134.445 69.6803 134.757 69.9038C135.646 70.487 136.659 70.9055 138.447 71.8019C139.938 72.548 140.773 70.964 140.26 69.9209" stroke="black" stroke-linecap="round" stroke-linejoin="round"/>
<path d="M146.131 71.7853C146.627 71.0842 147.273 70.8169 147.653 71.0329C148.331 71.4199 148.388 73.3927 146.285 77.548C144.044 81.9769 142.471 83.2288 141.702 82.9858C141.171 82.8175 141.087 81.7717 141.412 80.7115" stroke="black" stroke-linecap="round" stroke-linejoin="round"/>
<path d="M147.94 73.3067C146.777 72.8279 145.6 71.9738 145.272 68.5871C145.113 66.9671 144.88 66.8582 142.572 65.7314C139.872 64.4129 140.024 64.6513 137.989 69.442C137.489 70.6201 139.323 71.836 141.444 68.416C139.785 71.0323 140.094 73.636 141.615 75.2902" stroke="black" stroke-linecap="round" stroke-linejoin="round"/>
<path d="M230.74 21.4601C230.571 23.5976 227.978 23.666 227.987 21.5969C227.994 20.0579 228.059 18.9635 228.124 17.7323C228.232 15.6803 230.969 15.6974 231.031 17.3903C231.071 18.4163 230.898 19.4936 230.74 21.4601Z" stroke="black" stroke-linecap="round" stroke-linejoin="round"/>
<path d="M222.038 19.888C222.021 19.1356 222.032 18.5866 222.021 17.8684C221.989 15.919 224.767 15.8308 224.894 17.458C224.952 18.2892 224.952 19.1234 224.894 19.9546" stroke="black" stroke-linecap="round" stroke-linejoin="round"/>
<path d="M233.683 21.956C233.469 24.0431 230.956 24.0422 231.033 22.0244C231.091 20.5367 231.184 19.4765 231.272 18.2966C231.421 16.3166 234.077 16.3985 234.077 18.0266C234.077 19.0148 233.879 20.0588 233.683 21.956Z" stroke="black" stroke-linecap="round" stroke-linejoin="round"/>
<path d="M224.962 19.9378C224.979 19.1341 225.047 18.45 225.065 17.6805C225.113 15.5943 227.899 15.5601 228.006 17.2701C228.071 18.3132 227.92 19.4077 227.818 21.4102C227.824 21.7088 227.735 22.0017 227.562 22.2453C227.388 22.4889 227.142 22.6703 226.857 22.7624C226.574 22.8546 226.267 22.8526 225.984 22.7569C225.701 22.6612 225.457 22.4767 225.287 22.231" stroke="black" stroke-linecap="round" stroke-linejoin="round"/>
<path d="M224.005 28.3684C223.15 28.5052 222.603 28.9156 222.603 29.3431C222.603 30.1126 224.261 31.0333 228.895 30.9505C233.82 30.8605 235.686 29.9929 235.855 29.2063C235.977 28.642 235.257 28.1263 234.179 27.958" stroke="black" stroke-linecap="round" stroke-linejoin="round"/>
<path d="M224.432 30.5912C224.586 29.3429 224.426 27.9326 221.679 26.1623C220.359 25.3118 220.378 25.0508 220.55 22.5029C220.754 19.4933 220.876 19.7471 226.022 20.0063C227.288 20.0702 227.424 22.2464 223.423 22.6568C226.501 22.3148 228.604 23.717 229.273 25.7861" stroke="black" stroke-linecap="round" stroke-linejoin="round"/>
<path d="M234.094 30.3684C233.991 26.8458 234.364 21.1686 234.094 18.4326" stroke="black" stroke-linecap="round" stroke-linejoin="round"/>
<path d="M222.603 29.3604C222.635 33.3732 222.607 43.2622 222.363 48.6887C222.334 49.3206 221.999 49.89 221.444 50.194C218.481 51.8184 209.758 56.1577 205.742 58.02C201.608 59.9379 198.114 59.5409 196.486 56.9345C194.236 53.3345 198.078 47.2803 199.636 43.8099C200.423 42.0589 199.845 41.1882 198.985 41.231C198.456 41.2574 197.543 41.0232 197.041 40.8518V40.8518C196.499 40.6663 194.677 40.6056 194.109 40.6843C194.083 40.6879 194.058 40.6921 194.032 40.697C193.46 40.8052 191.93 40.8902 191.358 40.997C191.322 41.0037 191.286 41.0114 191.25 41.0202C190.645 41.1675 188.797 41.568 188.322 41.9715C187.998 42.2476 187.72 42.67 187.614 43.2114C185.613 53.3993 185.975 57.3204 188.878 57.4048C190.381 57.4485 191.545 58.6026 190.316 59.469V59.469" stroke="black" stroke-linecap="round" stroke-linejoin="round"/>
<path d="M235.855 29.2227C235.855 53.3166 236.117 54.4992 234.846 56.8734C233.186 59.9758 229.936 61.9268 205.642 75.4308C204.962 75.8089 204.547 76.5559 204.605 77.332C204.847 80.5736 205.126 84.1664 205.126 86.7471" stroke="black" stroke-linecap="round" stroke-linejoin="round"/>
<path d="M147.653 71.0322C152.496 73.9377 158.824 76.9188 161.127 77.987C161.632 78.2209 162.203 78.2344 162.715 78.0187C167.735 75.9059 180.651 70.0141 186.125 66.4152C189.51 64.1904 190.485 59.5923 190.502 57.1299" stroke="black" stroke-linecap="round" stroke-linejoin="round"/>
<path d="M186.128 66.4297C188.368 68.7895 197.038 67.1497 199.278 59.0254" stroke="black" stroke-linecap="round" stroke-linejoin="round"/>
<path d="M186.829 47.6737C188.214 47.2689 189.63 46.9911 191.062 46.8428C192.361 46.7081 193.253 47.9758 193.41 49.2726C193.492 49.9555 193.743 50.1897 194.148 49.3153C194.931 47.6224 196.892 48.9274 195.498 51.0766C195.271 51.5253 195.178 52.0298 195.23 52.5299C195.281 53.0301 195.475 53.505 195.789 53.8981" stroke="black" stroke-linecap="round" stroke-linejoin="round"/>
<path d="M172.431 127.035C180.16 124.265 192.817 119.585 201.21 114.672C205.866 111.947 210.354 103.905 204.139 92.4495C203.881 91.9743 203.807 91.4151 203.955 90.8951C205.301 86.1679 207.714 77.6782 208.944 73.5977" stroke="black" stroke-linecap="round" stroke-linejoin="round"/>
<path d="M188.043 98.666C159.383 111.423 154.362 114.331 153.467 119.682C152.709 124.21 154.614 128.754 171.187 155.978C171.453 156.415 171.882 156.756 172.387 156.84C176.975 157.604 184.416 155.125 186.778 150.71C187.039 150.222 186.998 149.641 186.754 149.145C181.778 139.054 176.697 129.056 175.047 126.102" stroke="black" stroke-linecap="round" stroke-linejoin="round"/>
<path d="M184.127 122.64C187.068 131.224 190.745 144.579 194.797 146.46C198.813 148.324 200.394 148.711 225.153 148.784C225.594 148.785 226.053 148.652 226.322 148.302C228.246 145.798 228.308 138.289 226.339 134.084C226.064 133.495 225.465 133.152 224.816 133.119C218.984 132.825 210.566 132.628 206.822 132.445C205.949 132.402 205.237 131.773 205.052 130.919C203.875 125.48 202.241 117.987 201.582 114.415" stroke="black" stroke-linecap="round" stroke-linejoin="round"/>
<path d="M186.333 151.438C187.259 152.206 188.121 153.047 188.911 153.954C189.363 154.473 189.482 155.2 189.208 155.831C186.994 160.942 181.036 168.999 175.397 173.604C174.245 174.545 172.68 173.747 172.774 172.263C173.073 167.54 174.45 161.025 176.107 156.841" stroke="black" stroke-linecap="round" stroke-linejoin="round"/>
<path d="M220.55 132.952C222.807 135.483 223.919 144.118 220.208 148.77" stroke="black" stroke-linecap="round" stroke-linejoin="round"/>
<path d="M168.532 151.608C173.731 152.753 181.942 150.667 184.572 144.733" stroke="black" stroke-linecap="round" stroke-linejoin="round"/>
<path d="M172.704 172.999C176.022 170.912 184.572 162.978 188.539 153.559" stroke="black" stroke-linecap="round" stroke-linejoin="round"/>
<path d="M226.587 134.662C227.423 134.565 228.266 134.547 229.104 134.607C229.482 134.635 229.836 134.782 230.118 135.036C233.012 137.637 239.329 145.446 240.543 153.048C240.735 154.253 239.657 155.194 238.497 154.813C234.102 153.37 228.832 149.689 226.946 147.179" stroke="black" stroke-linecap="round" stroke-linejoin="round"/>
<path d="M228.211 134.594C231.361 137.501 238.984 147.914 239.326 155.062" stroke="black" stroke-linecap="round" stroke-linejoin="round"/>
<path d="M176.928 78.3516C177.372 83.6697 179.268 98.085 179.628 102.428" stroke="black" stroke-linecap="round" stroke-linejoin="round"/>
<path d="M203.724 91.7061C194.045 91.7745 186.077 94.1685 179.22 98.3751" stroke="black" stroke-linecap="round" stroke-linejoin="round"/>
<path d="M178.861 150.257C175.58 143.891 169.2 130.346 166.586 124.835C166.119 123.851 166.519 122.678 167.501 122.206C176.102 118.073 193.355 110.851 196.508 108.892C199.894 106.789 201.228 104.087 197.637 92.083" stroke="black" stroke-linecap="round" stroke-linejoin="round"/>
<path d="M141.719 82.9902C157.912 92.784 160.513 93.846 164.564 92.7327C169.152 91.3691 173.623 89.6422 177.937 87.5685" stroke="black" stroke-linecap="round" stroke-linejoin="round"/>
<path d="M166.053 92.3052C170.62 89.2785 175.526 84.0117 177.287 81.9102" stroke="black" stroke-linecap="round" stroke-linejoin="round"/>
<path d="M185.752 127.548C187.77 125.154 193.601 119.511 195.704 117.596" stroke="black" stroke-linecap="round" stroke-linejoin="round"/>
<path d="M120.703 52.4277L121.296 55.7802" stroke="black" stroke-linecap="round" stroke-linejoin="round"/>
<path d="M128.38 57.7979L125.027 58.391" stroke="black" stroke-linecap="round" stroke-linejoin="round"/>
<path d="M123.01 65.4755L122.417 62.123" stroke="black" stroke-linecap="round" stroke-linejoin="round"/>
<path d="M115.333 60.1048L118.687 59.5117" stroke="black" stroke-linecap="round" stroke-linejoin="round"/>
<path d="M125.028 58.3912C124.612 58.4649 124.185 58.4558 123.773 58.3644C123.36 58.273 122.969 58.1012 122.623 57.8586C122.277 57.6162 121.982 57.3078 121.755 56.9512C121.528 56.5945 121.373 56.1967 121.3 55.7803C121.375 56.1968 121.366 56.6238 121.275 57.0369C121.184 57.45 121.012 57.8411 120.77 58.1878C120.528 58.5345 120.219 58.8298 119.862 59.057C119.505 59.2842 119.107 59.4387 118.69 59.5117C119.107 59.4375 119.534 59.4462 119.947 59.5373C120.36 59.6284 120.75 59.8001 121.097 60.0426C121.443 60.285 121.739 60.5936 121.966 60.9503C122.193 61.3071 122.347 61.7052 122.42 62.1217C122.346 61.7054 122.355 61.2787 122.446 60.8658C122.537 60.453 122.708 60.0621 122.95 59.7156C123.193 59.3691 123.501 59.0737 123.858 58.8465C124.214 58.6192 124.612 58.4645 125.028 58.3912Z" stroke="black" stroke-linecap="round" stroke-linejoin="round"/>
<path d="M247.637 103.181L248.486 107.988" stroke="black" stroke-linecap="round" stroke-linejoin="round"/>
<path d="M258.645 110.882L253.837 111.731" stroke="black" stroke-linecap="round" stroke-linejoin="round"/>
<path d="M250.944 121.89L250.094 117.082" stroke="black" stroke-linecap="round" stroke-linejoin="round"/>
<path d="M239.936 114.188L244.746 113.339" stroke="black" stroke-linecap="round" stroke-linejoin="round"/>
<path d="M253.837 111.731C253.239 111.838 252.627 111.825 252.035 111.694C251.443 111.564 250.882 111.317 250.385 110.97C249.888 110.623 249.465 110.18 249.139 109.669C248.813 109.156 248.591 108.586 248.486 107.988C248.593 108.585 248.581 109.197 248.45 109.79C248.32 110.382 248.074 110.943 247.727 111.44C247.379 111.937 246.937 112.36 246.425 112.686C245.914 113.012 245.344 113.233 244.746 113.339C245.343 113.233 245.956 113.245 246.547 113.376C247.139 113.506 247.7 113.753 248.197 114.1C248.693 114.448 249.117 114.89 249.442 115.402C249.768 115.914 249.989 116.484 250.094 117.082C249.988 116.484 250 115.872 250.131 115.28C250.261 114.688 250.508 114.127 250.855 113.63C251.203 113.133 251.645 112.71 252.157 112.384C252.669 112.058 253.239 111.836 253.837 111.731Z" stroke="black" stroke-linecap="round" stroke-linejoin="round"/>
<path d="M147.421 35.9847C146.452 35.4607 145.241 35.8176 144.736 36.7963C144.392 37.4629 144.066 38.1152 143.754 38.7478C139.154 48.2383 138.248 54.514 138.264 59.1994C138.281 61.5079 138.503 63.4231 138.624 65.1673V65.1673C138.624 65.1779 138.63 65.1877 138.639 65.193C138.761 65.2637 138.88 65.3344 139.001 65.407C139.353 65.6171 139.779 65.4716 140.109 65.2279C140.642 64.8337 141.273 65.1028 142.557 65.7316C144.865 66.8602 145.088 66.9628 145.257 68.5873V68.5873C145.281 68.8729 145.586 69.0222 145.837 68.8839C147.318 68.0682 148.981 67.2163 150.849 66.0187C154.799 63.4708 159.552 59.2984 164.973 50.2525C165.341 49.6367 165.713 49.0069 166.088 48.3538C166.637 47.3972 166.274 46.1853 165.304 45.6605L147.421 35.9847ZM153.597 53.6061C152.985 53.6994 152.493 54.165 152.365 54.7706V54.7706C152.075 56.1505 150.202 56.3949 149.573 55.1332V55.1332C149.295 54.5772 148.699 54.2529 148.082 54.3231V54.3231C146.687 54.4815 145.889 52.778 146.886 51.7901V51.7901C147.327 51.3529 147.453 50.6838 147.197 50.1178V50.1178C146.615 48.8319 147.982 47.5321 149.236 48.1782V48.1782C149.788 48.4621 150.458 48.3741 150.917 47.957V47.957C151.96 47.0104 153.608 47.9302 153.381 49.3197V49.3197C153.282 49.9316 153.573 50.5463 154.112 50.852V50.852C155.335 51.5451 154.986 53.394 153.597 53.6061V53.6061Z" stroke="black" stroke-linejoin="round"/>
<path d="M138.624 79.0869C138.654 77.7042 139.238 76.2405 140.217 74.3479C140.461 73.8769 140.502 73.332 140.421 72.8078C140.331 72.2231 140.329 71.6267 140.417 71.0385C140.546 70.1765 140.864 69.3535 141.348 68.6289C141.148 68.9388 140.926 69.2338 140.684 69.5119C140.454 69.7766 140.408 70.1548 140.431 70.5048C140.487 71.3671 139.845 72.2613 138.804 71.9553C138.707 71.9269 138.608 72.0398 138.662 72.125V72.125C138.671 72.1389 138.683 72.1506 138.698 72.1588C140.335 73.1082 139.456 75.132 137.807 74.7373C137.729 74.7187 137.653 74.8416 137.712 74.8952V74.8952C137.716 74.8991 137.721 74.9025 137.726 74.9052C139.494 75.8482 138.383 78.1146 136.47 77.2779C135.907 77.0249 135.413 76.8183 134.978 76.6373C134.612 76.4848 134.277 76.4914 133.944 76.7075V76.7075C132.937 77.3616 132.241 79.6894 133.297 80.2614L135.771 81.6005C136.861 82.191 138.587 80.3267 138.624 79.0869V79.0869Z" stroke="black" stroke-linejoin="round"/>
<path d="M129.115 77.9953C128.249 77.5262 127.171 77.757 126.573 78.5393L125.816 79.5295C125.071 80.5053 125.372 81.9165 126.452 82.502L137.887 88.7037C138.966 89.2889 140.312 88.773 140.724 87.6167L141.144 86.4379C141.475 85.5092 141.08 84.478 140.213 84.0084L129.115 77.9953Z" stroke="black" stroke-linejoin="round"/>
</svg>
