<svg width="14" height="14" viewBox="0 0 14 14" fill="none" xmlns="http://www.w3.org/2000/svg">
<path d="M7.00001 0.5C5.87781 0.499755 4.77465 0.790055 3.79792 1.34264C2.82119 1.89523 2.00417 2.69128 1.42637 3.65331C0.848575 4.61534 0.529691 5.71058 0.500757 6.83241C0.471824 7.95425 0.733827 9.06446 1.26126 10.055L0.55189 12.1831C0.49313 12.3593 0.484603 12.5484 0.527264 12.7292C0.569924 12.9099 0.662087 13.0753 0.793422 13.2066C0.924757 13.3379 1.09007 13.4301 1.27084 13.4728C1.45161 13.5154 1.64069 13.5069 1.81689 13.4481L3.94502 12.7388C4.81675 13.2024 5.78265 13.4614 6.76941 13.496C7.75617 13.5306 8.73785 13.34 9.63993 12.9386C10.542 12.5372 11.3408 11.9355 11.9756 11.1793C12.6105 10.4231 13.0647 9.53218 13.3038 8.57421C13.543 7.61624 13.5607 6.61638 13.3557 5.65052C13.1507 4.68467 12.7284 3.77821 12.1208 2.99995C11.5132 2.22169 10.7362 1.59208 9.84896 1.15891C8.96168 0.725743 7.98738 0.500405 7.00001 0.5ZM7.00001 12.5C6.03313 12.5007 5.0832 12.246 4.24627 11.7619C4.18499 11.7263 4.11686 11.7042 4.04639 11.697C3.97592 11.6898 3.90473 11.6976 3.83752 11.72L1.50002 12.5L2.27939 10.1625C2.30186 10.0953 2.3098 10.0242 2.30269 9.95369C2.29557 9.88323 2.27357 9.81507 2.23814 9.75375C1.63187 8.70557 1.38846 7.48661 1.54566 6.28598C1.70286 5.08534 2.25189 3.97014 3.10757 3.11337C3.96325 2.2566 5.07776 1.70617 6.2782 1.54745C7.47864 1.38873 8.6979 1.63061 9.74685 2.23555C10.7958 2.8405 11.6158 3.77469 12.0796 4.89322C12.5434 6.01175 12.6252 7.25208 12.3122 8.42181C11.9991 9.59153 11.3088 10.6253 10.3484 11.3626C9.38787 12.1 8.2109 12.4998 7.00001 12.5Z" fill="#8A8A8E"/>
</svg>
