<svg width="36" height="36" viewBox="0 0 36 36" fill="none" xmlns="http://www.w3.org/2000/svg">
<path fill-rule="evenodd" clip-rule="evenodd" d="M18 36C27.9409 36 36 27.9411 36 18C36 8.0589 27.9409 0 18 0C8.05908 0 0 8.0589 0 18C0 27.9411 8.05908 36 18 36ZM12.25 16.3572V9.78583H18.4106C22.7202 9.78583 26.2139 13.2795 26.2139 17.5893V18.4107C26.2139 22.7205 22.7202 26.2142 18.4106 26.2142H12.25V19.6428H10.6069L9.78564 16.3572H12.25ZM15.5356 22.9285V19.6428H18L17.1782 16.3572H15.5356V13.0715H18.4106C18.5488 13.0715 18.686 13.0777 18.8213 13.0899C21.124 13.2974 22.9282 15.2326 22.9282 17.5893V18.4107C22.9282 20.7674 21.124 22.7026 18.8213 22.9101C18.686 22.9223 18.5488 22.9285 18.4106 22.9285H15.5356Z" fill="black"/>
</svg>
