<svg width="20" height="20" viewBox="0 0 20 20" fill="none" xmlns="http://www.w3.org/2000/svg">
<path d="M16.875 7.5C16.8757 6.34141 16.5836 5.20143 16.0258 4.18596C15.468 3.17048 14.6626 2.31244 13.6844 1.69154C12.7062 1.07063 11.587 0.707005 10.4307 0.634424C9.27438 0.561842 8.11847 0.782664 7.07034 1.27638C6.02221 1.77009 5.11584 2.52068 4.43544 3.45844C3.75503 4.39619 3.32265 5.49069 3.17846 6.64028C3.03426 7.78986 3.18293 8.95724 3.61065 10.034C4.03837 11.1107 4.73128 12.0619 5.625 12.7992V18.75C5.62492 18.8566 5.65211 18.9614 5.70397 19.0546C5.75584 19.1477 5.83065 19.226 5.92131 19.282C6.01197 19.3381 6.11546 19.37 6.22195 19.3748C6.32843 19.3796 6.43437 19.3571 6.52969 19.3094L10 17.5781L13.4711 19.3133C13.5581 19.3549 13.6535 19.376 13.75 19.375C13.9158 19.375 14.0747 19.3092 14.1919 19.1919C14.3092 19.0747 14.375 18.9158 14.375 18.75V12.7992C15.157 12.1552 15.7867 11.346 16.2189 10.4298C16.6512 9.51359 16.8752 8.51305 16.875 7.5ZM4.375 7.5C4.375 6.38748 4.7049 5.29994 5.32298 4.37492C5.94107 3.44989 6.81957 2.72892 7.84741 2.30318C8.87524 1.87744 10.0062 1.76604 11.0974 1.98308C12.1885 2.20013 13.1908 2.73585 13.9775 3.52253C14.7641 4.3092 15.2999 5.31147 15.5169 6.40262C15.734 7.49376 15.6226 8.62476 15.1968 9.65259C14.7711 10.6804 14.0501 11.5589 13.1251 12.177C12.2001 12.7951 11.1125 13.125 10 13.125C8.50867 13.1233 7.07889 12.5302 6.02435 11.4756C4.96982 10.4211 4.37666 8.99134 4.375 7.5ZM13.125 17.7391L10.2789 16.3164C10.1921 16.273 10.0963 16.2503 9.99922 16.2503C9.90212 16.2503 9.80636 16.273 9.71953 16.3164L6.875 17.7391V13.6227C7.84247 14.1171 8.91348 14.375 10 14.375C11.0865 14.375 12.1575 14.1171 13.125 13.6227V17.7391ZM10 11.875C10.8653 11.875 11.7112 11.6184 12.4306 11.1377C13.1501 10.6569 13.7108 9.97367 14.042 9.17424C14.3731 8.37481 14.4597 7.49515 14.2909 6.64648C14.1221 5.79781 13.7054 5.01826 13.0936 4.40641C12.4817 3.79455 11.7022 3.37788 10.8535 3.20907C10.0049 3.04025 9.12519 3.12689 8.32576 3.45803C7.52633 3.78916 6.84305 4.34992 6.36232 5.06938C5.88159 5.78885 5.625 6.63471 5.625 7.5C5.62624 8.65994 6.08758 9.77202 6.90778 10.5922C7.72798 11.4124 8.84006 11.8738 10 11.875ZM10 4.375C10.6181 4.375 11.2223 4.55828 11.7362 4.90166C12.2501 5.24504 12.6506 5.7331 12.8871 6.30412C13.1236 6.87513 13.1855 7.50347 13.065 8.10966C12.9444 8.71585 12.6467 9.27267 12.2097 9.70971C11.7727 10.1467 11.2158 10.4444 10.6097 10.565C10.0035 10.6855 9.37513 10.6236 8.80412 10.3871C8.2331 10.1506 7.74504 9.75006 7.40166 9.23616C7.05828 8.72225 6.875 8.11807 6.875 7.5C6.875 6.6712 7.20424 5.87634 7.79029 5.29029C8.37634 4.70424 9.1712 4.375 10 4.375Z" fill="#F15929"/>
</svg>
