<svg width="67" height="58" viewBox="0 0 67 58" fill="none" xmlns="http://www.w3.org/2000/svg">
<path d="M30.8208 58.0002C46.5196 58.0002 59.246 57.5043 59.246 56.8927C59.246 56.281 46.5196 55.7852 30.8208 55.7852C15.1219 55.7852 2.39551 56.281 2.39551 56.8927C2.39551 57.5043 15.1219 58.0002 30.8208 58.0002Z" fill="#E3E5FC"/>
<path d="M56.8682 44.8585H2.65989C1.19683 44.8585 0 43.6617 0 42.1986V2.65989C0 1.19683 1.19683 0 2.65989 0H56.8682C58.3313 0 59.5281 1.19683 59.5281 2.65989V42.1986C59.5281 43.6617 58.3313 44.8585 56.8682 44.8585Z" fill="#ED6807"/>
<path d="M55.2058 41.1172H4.06614C2.60308 41.1172 1.40625 39.9203 1.40625 38.4573V4.61107C1.40625 3.14801 2.60308 1.95117 4.06614 1.95117H55.2058C56.6689 1.95117 57.8657 3.14801 57.8657 4.61107V38.4573C57.8663 39.9197 56.6694 41.1172 55.2058 41.1172Z" fill="#FFF3E0"/>
<path d="M32.9084 42.8125H28.7334C28.6317 42.8125 28.5488 42.7291 28.5488 42.6279C28.5488 42.5262 28.6322 42.4434 28.7334 42.4434H32.9084C33.0102 42.4434 33.093 42.5268 33.093 42.6279C33.093 42.7291 33.0096 42.8125 32.9084 42.8125Z" fill="#E3E5FC"/>
<path d="M3.17605 1.50641C3.40543 1.50641 3.59137 1.32046 3.59137 1.09109C3.59137 0.861723 3.40543 0.675781 3.17605 0.675781C2.94668 0.675781 2.76074 0.861723 2.76074 1.09109C2.76074 1.32046 2.94668 1.50641 3.17605 1.50641Z" fill="#E3E5FC"/>
<path d="M4.96512 1.50641C5.19449 1.50641 5.38043 1.32046 5.38043 1.09109C5.38043 0.861723 5.19449 0.675781 4.96512 0.675781C4.73575 0.675781 4.5498 0.861723 4.5498 1.09109C4.5498 1.32046 4.73575 1.50641 4.96512 1.50641Z" fill="white"/>
<path d="M6.76785 1.50641C6.99722 1.50641 7.18316 1.32046 7.18316 1.09109C7.18316 0.861723 6.99722 0.675781 6.76785 0.675781C6.53848 0.675781 6.35254 0.861723 6.35254 1.09109C6.35254 1.32046 6.53848 1.50641 6.76785 1.50641Z" fill="#4B369D"/>
<path d="M50.0009 24.6423H39.8778C39.6062 24.6423 39.3838 24.4198 39.3838 24.1483C39.3838 23.8767 39.6062 23.6543 39.8778 23.6543H50.0009C50.2724 23.6543 50.4949 23.8767 50.4949 24.1483C50.4943 24.4198 50.2724 24.6423 50.0009 24.6423Z" fill="white"/>
<path d="M50.0009 26.904H39.8778C39.6062 26.904 39.3838 26.6816 39.3838 26.41C39.3838 26.1385 39.6062 25.916 39.8778 25.916H50.0009C50.2724 25.916 50.4949 26.1385 50.4949 26.41C50.4943 26.6822 50.2724 26.904 50.0009 26.904Z" fill="white"/>
<path d="M50.0009 29.1638H39.8778C39.6062 29.1638 39.3838 28.9413 39.3838 28.6698C39.3838 28.3982 39.6062 28.1758 39.8778 28.1758H50.0009C50.2724 28.1758 50.4949 28.3982 50.4949 28.6698C50.4943 28.9413 50.2724 29.1638 50.0009 29.1638Z" fill="white"/>
<path d="M50.0009 31.7126H39.8778C39.6062 31.7126 39.3838 31.4902 39.3838 31.2186C39.3838 30.9471 39.6062 30.7246 39.8778 30.7246H50.0009C50.2724 30.7246 50.4949 30.9471 50.4949 31.2186C50.4943 31.4907 50.2724 31.7126 50.0009 31.7126Z" fill="white"/>
<path d="M50.0009 33.9763H39.8778C39.6062 33.9763 39.3838 33.7538 39.3838 33.4823C39.3838 33.2107 39.6062 32.9883 39.8778 32.9883H50.0009C50.2724 32.9883 50.4949 33.2107 50.4949 33.4823C50.4943 33.7538 50.2724 33.9763 50.0009 33.9763Z" fill="white"/>
<path d="M50.0009 36.2378H39.8778C39.6062 36.2378 39.3838 36.0153 39.3838 35.7438C39.3838 35.4722 39.6062 35.2498 39.8778 35.2498H50.0009C50.2724 35.2498 50.4949 35.4722 50.4949 35.7438C50.4943 36.0153 50.2724 36.2378 50.0009 36.2378Z" fill="white"/>
<path d="M9.01341 18.7947H29.9518C31.4148 18.7947 32.6117 17.5979 32.6117 16.1348V8.5681C32.6117 7.10504 31.4148 5.9082 29.9518 5.9082H9.01341C7.55035 5.9082 6.35352 7.10504 6.35352 8.5681V16.1348C6.35292 17.5979 7.54976 18.7947 9.01341 18.7947Z" fill="white"/>
<path d="M6.92333 36.2398C6.65 36.2398 6.42578 36.0162 6.42578 35.7423V24.3022C6.42578 24.0289 6.64941 23.8047 6.92333 23.8047C7.19665 23.8047 7.42087 24.0283 7.42087 24.3022V35.7423C7.42087 36.0162 7.19665 36.2398 6.92333 36.2398Z" fill="#D7384E"/>
<path d="M9.30516 36.2388C9.03184 36.2388 8.80762 36.0152 8.80762 35.7413V30.6362C8.80762 30.3629 9.03125 30.1387 9.30516 30.1387C9.57849 30.1387 9.80271 30.3623 9.80271 30.6362V35.7413C9.80271 36.0152 9.57849 36.2388 9.30516 36.2388Z" fill="#D7384E"/>
<path d="M11.688 36.2406C11.4147 36.2406 11.1904 36.017 11.1904 35.743V25.769C11.1904 25.4957 11.4141 25.2715 11.688 25.2715C11.9613 25.2715 12.1855 25.4951 12.1855 25.769V35.743C12.1849 36.017 11.9613 36.2406 11.688 36.2406Z" fill="#D7384E"/>
<path d="M14.0698 36.2402C13.7965 36.2402 13.5723 36.0166 13.5723 35.7427V32.0776C13.5723 31.8043 13.7959 31.5801 14.0698 31.5801C14.3431 31.5801 14.5674 31.8037 14.5674 32.0776V35.7427C14.5674 36.0166 14.3437 36.2402 14.0698 36.2402Z" fill="#D7384E"/>
<path d="M16.4526 36.2397C16.1793 36.2397 15.9551 36.0161 15.9551 35.7422V29.564C15.9551 29.2906 16.1787 29.0664 16.4526 29.0664C16.726 29.0664 16.9502 29.29 16.9502 29.564V35.7422C16.9502 36.0161 16.7265 36.2397 16.4526 36.2397Z" fill="#D7384E"/>
<path d="M18.8345 36.2396C18.5611 36.2396 18.3369 36.016 18.3369 35.7421V33.9116C18.3369 33.6383 18.5605 33.4141 18.8345 33.4141C19.1078 33.4141 19.332 33.6377 19.332 33.9116V35.7421C19.332 36.016 19.1078 36.2396 18.8345 36.2396Z" fill="#D7384E"/>
<path d="M9.76148 14.8889C11.1666 16.8228 13.8732 17.2518 15.8066 15.8467L10.7187 8.84375C8.78531 10.2482 8.35639 12.9549 9.76148 14.8889Z" fill="#2E2E32"/>
<path d="M11.1748 8.51223L13.5058 11.7206L16.7762 9.34463C15.4498 7.59287 12.9609 7.21482 11.1748 8.51223Z" fill="#2E2E32"/>
<path d="M18.2953 9.07093C18.274 9.04135 18.2491 9.01532 18.2272 8.98633L13.8357 12.1763L17.0931 16.6601C19.5211 14.896 20.0589 11.4983 18.2953 9.07093Z" fill="#FDC510"/>
<path d="M21.9717 9.24333C21.9717 8.95403 22.2083 8.7168 22.4982 8.7168H29.5591C29.8484 8.7168 30.0857 8.95344 30.0857 9.24333C30.0857 9.53263 29.849 9.76987 29.5591 9.76987H22.4982C22.2083 9.76987 21.9717 9.53263 21.9717 9.24333Z" fill="#FDC510"/>
<path d="M21.9717 11.7648C21.9717 11.4755 22.2083 11.2383 22.4982 11.2383H24.8925C25.1818 11.2383 25.419 11.4749 25.419 11.7648C25.419 12.0541 25.1824 12.2914 24.8925 12.2914H22.4982C22.2083 12.2914 21.9717 12.0541 21.9717 11.7648Z" fill="#A7ADFF"/>
<path fill-rule="evenodd" clip-rule="evenodd" d="M20.2812 28.3317C20.2812 30.9496 22.4111 33.0794 25.0289 33.0794C27.6468 33.0794 29.7766 30.9496 29.7766 28.3317C29.7766 25.7138 27.6468 23.584 25.0289 23.584C22.4111 23.584 20.2812 25.7138 20.2812 28.3317ZM20.7246 28.3313C20.7246 25.9584 22.6556 24.0273 25.0292 24.0273C27.4027 24.0273 29.3332 25.9578 29.3332 28.3313C29.3332 30.7049 27.4027 32.6359 25.0292 32.6359C22.6556 32.6359 20.7246 30.7049 20.7246 28.3313Z" fill="#10B50D"/>
<path fill-rule="evenodd" clip-rule="evenodd" d="M21.832 28.3326C21.832 30.095 23.2655 31.5285 25.0279 31.5285C26.7903 31.5285 28.2238 30.095 28.2238 28.3326C28.2238 26.5702 26.7903 25.1367 25.0279 25.1367C23.2655 25.1367 21.832 26.5702 21.832 28.3326ZM22.2754 28.3323C22.2754 26.8148 23.5107 25.5801 25.0282 25.5801C26.5462 25.5801 27.7804 26.8148 27.7804 28.3323C27.7804 29.8503 26.5457 31.085 25.0282 31.085C23.5101 31.085 22.2754 29.8498 22.2754 28.3323Z" fill="#10B50D"/>
<path fill-rule="evenodd" clip-rule="evenodd" d="M23.1953 28.3328C23.1953 29.3433 24.0177 30.1656 25.0281 30.1656C26.0386 30.1656 26.8609 29.3433 26.8609 28.3328C26.8609 27.3223 26.0392 26.5 25.0281 26.5C24.0171 26.5 23.1953 27.3223 23.1953 28.3328ZM23.6396 28.3325C23.6396 27.5663 24.2626 26.9434 25.0288 26.9434C25.7949 26.9434 26.4179 27.5663 26.4179 28.3325C26.4179 29.0986 25.7949 29.7216 25.0288 29.7216C24.2626 29.7216 23.6396 29.0986 23.6396 28.3325Z" fill="#10B50D"/>
<path d="M24.7883 28.7297L24.8392 27.6015C24.8451 27.479 24.9475 27.3849 25.0705 27.3897C25.193 27.395 25.2877 27.4991 25.2823 27.621L25.2681 27.9334L32.6195 23.6146C32.7254 23.5525 32.8609 23.588 32.923 23.6933C32.9851 23.7986 32.9496 23.9347 32.8443 23.9968L24.7883 28.7297Z" fill="#FDC510"/>
<path d="M25.7858 28.7738H25.0285C24.906 28.7738 24.8066 28.6744 24.8066 28.5519C24.8066 28.4295 24.906 28.3301 25.0285 28.3301H25.7858C25.9082 28.3301 26.0076 28.4295 26.0076 28.5519C26.0076 28.6744 25.9082 28.7738 25.7858 28.7738Z" fill="#FDC510"/>
<path d="M38.49 18.8689C38.4539 18.8689 38.4172 18.86 38.3835 18.8417C38.2758 18.7825 38.2367 18.6482 38.2959 18.5405L40.1157 15.2269L41.5693 16.6178L42.5384 15.0808L43.3885 15.5955L45.4219 10.5502L46.8388 13.064L48.1723 11.0892L49.297 12.4688L51.5717 8.2796C51.6439 8.14649 51.7391 8.00095 51.8397 7.84654C51.9225 7.71935 52.0107 7.58446 52.0876 7.45312C52.0018 7.49039 51.9143 7.53121 51.8308 7.57026C51.6764 7.64244 51.5309 7.71047 51.3996 7.75484C51.2842 7.79389 51.1582 7.73118 51.1185 7.61522C51.0795 7.49927 51.1422 7.37325 51.2582 7.33421C51.3658 7.29812 51.5001 7.23541 51.6427 7.16855C51.9255 7.03662 52.2172 6.89996 52.4757 6.87985L52.791 6.85559L52.7064 7.16027C52.6242 7.45549 52.4142 7.77732 52.2107 8.0891C52.1148 8.23582 52.0243 8.37426 51.961 8.4914L49.3709 13.2616L48.2054 11.8317L46.8045 13.9064L45.4876 11.5707L43.6039 16.2439L42.6804 15.6848L41.6545 17.3124L40.2263 15.9457L38.6846 18.7535C38.6444 18.8275 38.5686 18.8689 38.49 18.8689Z" fill="#120F75"/>
<path d="M52.622 8.43142C52.4995 8.43142 52.4001 8.33203 52.4001 8.20957V7.10088C52.4001 6.97842 52.4995 6.87903 52.622 6.87903C52.7445 6.87903 52.8439 6.97842 52.8439 7.10088V8.20957C52.8439 8.33203 52.7445 8.43142 52.622 8.43142Z" fill="#5A54FF"/>
<path d="M38.2678 20.1603C38.1459 20.1603 38.0459 20.0603 38.0459 19.9385V5.78826C38.0459 5.66639 38.1459 5.56641 38.2678 5.56641C38.3896 5.56641 38.4896 5.66639 38.4896 5.78826V19.9391C38.4896 20.0609 38.3896 20.1603 38.2678 20.1603Z" fill="#ED6807"/>
<path d="M36.9199 18.8683C36.9199 18.7465 37.0199 18.6465 37.1418 18.6465H51.2926C51.4144 18.6465 51.5144 18.7465 51.5144 18.8683C51.5144 18.9902 51.4144 19.0902 51.2926 19.0902H37.1412C37.0193 19.0896 36.9199 18.9902 36.9199 18.8683Z" fill="#ED6807"/>
<path d="M46.4804 9.05207H42.361C41.9546 9.05207 41.6221 8.71958 41.6221 8.31314C41.6221 7.90671 41.9546 7.57422 42.361 7.57422H46.4804C46.8868 7.57422 47.2193 7.90671 47.2193 8.31314C47.2193 8.71958 46.8868 9.05207 46.4804 9.05207Z" fill="#D7384E"/>
<rect x="49.2793" y="12.2891" width="0.166243" height="0.221855" fill="#4B369D"/>
<path fill-rule="evenodd" clip-rule="evenodd" d="M49.2793 9.36826H49.4455V8.95117H49.2793V9.36826ZM49.4455 10.202H49.2793V9.78492H49.4455V10.202ZM49.2793 11.038H49.4455V10.6209H49.2793V11.038ZM49.2793 11.8722H49.4455V11.4551H49.2793V11.8722Z" fill="#4B369D"/>
<path d="M49.4453 8.5332H49.2791V8.39476H49.1406V8.22852H49.4453V8.5332Z" fill="#4B369D"/>
<rect x="48.0078" y="8.22852" width="0.566766" height="0.166243" fill="#4B369D"/>
<rect x="47.2197" y="8.22852" width="0.221855" height="0.166243" fill="#4B369D"/>
<path d="M49.466 13.5026H49.2613C48.9844 13.5026 48.7578 13.2761 48.7578 12.9992V12.7945C48.7578 12.5176 48.9844 12.291 49.2613 12.291H49.466C49.7428 12.291 49.9694 12.5176 49.9694 12.7945V12.9992C49.9694 13.2761 49.7428 13.5026 49.466 13.5026Z" fill="#D7384E"/>
<path d="M65.0164 23.6484C65.0164 23.6484 65.6725 26.768 65.6169 28.0429C65.5612 29.3179 64.4532 31.2199 64.4532 31.2199L63.7373 23.649H65.0164V23.6484Z" fill="#EAC2AB"/>
<path d="M61.0996 17.9296L61.244 20.6167L63.3471 21.4278C63.3471 21.4278 62.0823 19.5772 62.297 17.9296C62.5106 16.2819 61.0996 17.9296 61.0996 17.9296Z" fill="#D4A79A"/>
<path d="M59.2196 12.4294C59.2196 12.4294 58.7617 13.0364 59.2083 14.8971C59.655 16.7583 60.3803 18.3474 60.9412 18.2349C62.4918 17.9249 63.0361 16.8293 63.5739 15.8886C64.2329 14.735 62.9243 11.9212 62.9243 11.9212L61.6878 11.2539L59.2196 12.4294Z" fill="#EAC2AB"/>
<path d="M57.5691 11.9296C57.4336 11.493 57.6715 10.9345 57.9892 10.6648C58.1116 10.5606 58.266 10.4944 58.4205 10.5098C58.5364 10.521 58.65 10.5772 58.7654 10.5583C59.1109 10.5009 59.1523 9.9915 59.4729 9.88797C59.7119 9.81106 59.9415 10.0276 60.1852 10.085C60.3692 10.1282 60.5597 10.0785 60.7449 10.04C61.2661 9.93057 61.7495 9.68031 62.2837 9.61583C62.7345 9.5614 63.2048 9.61228 63.6125 9.83118C64.0384 10.0595 64.3437 10.4796 64.5064 10.9647C64.6034 11.2546 64.6348 11.5776 64.5567 11.8746C64.6206 11.6303 65.0601 11.8929 65.1317 11.9888C65.411 12.3662 65.4589 13.1844 65.3104 13.6234C65.1927 13.9713 64.9992 14.2789 64.8915 14.6315C64.7637 15.0522 64.7105 15.5189 64.4774 15.8917C64.2106 16.3194 62.7735 17.7233 62.3174 17.605C62.4582 17.2181 61.7719 16.8666 61.7974 16.4507C61.8228 16.0348 62.0825 13.8701 60.0367 13.4649C59.2233 13.3039 60.2669 13.0401 59.4522 13.0726C59.0653 13.088 58.6778 13.0129 58.3151 12.8656C58.0347 12.752 57.762 12.3337 57.6076 12.0278C57.5922 11.9959 57.5798 11.9633 57.5691 11.9296Z" fill="#2E2E32"/>
<path d="M61.6694 14.7357C61.6694 14.7357 62.5196 14.0075 62.4574 14.9925C62.3953 15.9775 61.5996 16.2633 61.5996 16.2633L61.6694 14.7357Z" fill="#EAC2AB"/>
<path d="M63.9449 51.9442L63.4219 55.4915L64.5897 55.7885L64.9157 52.0548C64.9151 52.0548 64.301 51.801 63.9449 51.9442Z" fill="#D4A79A"/>
<path d="M58.8435 57.1946C58.8435 57.1946 59.7179 57.4265 61.3637 57.433C63.0096 57.4395 64.8407 57.3721 65.1554 57.1059C65.4707 56.8397 65.5394 54.7589 64.9933 54.7974C64.4472 54.8359 64.2905 55.6405 63.2794 55.0033C62.4127 54.4572 61.8341 55.6416 60.4201 56.0463C59.0062 56.451 58.4335 56.6131 58.8435 57.1946Z" fill="#F3AA02"/>
<path d="M61.0336 53.0375C61.0785 52.8944 61.2152 52.779 61.3323 52.6619C62.4055 51.5869 62.0204 50.0901 61.7441 48.7773C61.0898 45.6631 61.3317 42.4613 61.2844 39.3038C61.2383 36.2221 60.7401 33.1611 59.8876 30.2143C59.5782 29.1435 59.1375 27.4852 60.7011 27.6952C61.4418 27.7946 62.16 27.7147 62.8782 27.5242C63.2563 27.4242 62.8557 27.3154 63.2563 27.4242C64.6199 27.7946 65.3997 31.7235 65.1932 32.699C64.7826 34.6413 64.6436 35.2631 64.6968 37.2858C64.7726 40.1546 64.5371 43.0481 65.0471 45.8636C65.2973 47.2433 65.5712 48.6182 65.8387 49.9937C65.9948 50.7959 66.7391 52.527 66.3747 53.2884C65.8742 54.3343 63.2687 53.6605 62.4168 53.6972C61.7772 53.7256 60.8803 53.5256 61.0336 53.0375Z" fill="#D7384E"/>
<path d="M61.297 52.0665L60.5273 55.5683L61.6715 55.9457L62.2578 52.244C62.2578 52.2446 61.6626 51.9488 61.297 52.0665Z" fill="#EAC2AB"/>
<path d="M55.8422 56.9479C55.8422 56.9479 56.6982 57.2402 58.3394 57.362C59.9805 57.4839 61.8122 57.5448 62.1446 57.3011C62.4777 57.0573 62.6919 54.9873 62.1446 54.9873C61.5974 54.9873 61.385 55.7789 60.4201 55.0725C59.5936 54.4673 58.9334 55.6085 57.4946 55.9126C56.0563 56.2167 55.4736 56.3385 55.8422 56.9479Z" fill="#FDC510"/>
<path d="M58.3174 53.047C58.3724 52.9186 58.5167 52.8227 58.6422 52.7228C59.7881 51.8093 59.5083 50.4161 59.3249 49.1985C58.89 46.3103 59.3556 43.3989 59.5296 40.5101C59.6988 37.6905 59.4166 34.8608 58.7723 32.1121C58.538 31.1135 58.215 29.5694 59.7597 29.8616C60.4915 30.0001 61.2139 29.9729 61.9434 29.8451C62.3273 29.7776 61.9357 29.6528 62.3273 29.7776C63.6614 30.2036 64.1802 31.6264 63.9063 32.5044C63.3609 34.2538 63.1627 37.0314 63.0745 38.8837C62.9491 41.5105 62.5119 44.1402 62.8237 46.7469C62.9763 48.0242 63.1538 49.2979 63.3242 50.5728C63.4236 51.3165 64.0454 52.9458 63.6283 53.6191C63.0556 54.5432 60.504 53.7599 59.6514 53.7392C59.0113 53.7232 58.131 53.483 58.3174 53.047Z" fill="#F44E4E"/>
<path d="M56.8298 23.0736C56.2772 23.4913 55.6892 23.861 55.0739 24.1787C54.5953 24.4254 53.2973 25.2578 52.7944 24.7485C52.6477 24.5994 52.5838 24.3894 52.5311 24.187C52.2194 22.9926 51.7668 21.8413 51.3242 20.6906C50.9285 19.663 50.4534 18.5791 50.4901 17.4551C50.5279 16.3073 50.4593 14.7591 50.3499 14.4781C50.2404 14.197 49.3429 12.5429 49.3264 13.0576C49.3098 13.5723 50.1747 14.9874 49.7801 14.9348C49.3855 14.8821 48.5425 15.2111 48.6419 15.8092C48.7413 16.4067 49.3725 17.6958 49.3725 17.6958C49.6488 18.8572 49.9399 20.0161 50.2422 21.171C50.4682 22.0347 50.7001 22.8985 50.9586 23.7534C51.2101 24.5846 51.4432 25.4868 52.1744 26.0382C52.2696 26.1104 52.3708 26.1743 52.4785 26.2257C53.3446 26.6398 54.3628 26.2062 55.2052 25.7459C57.0126 24.7585 58.7259 23.6191 60.4522 22.4991C60.1144 22.1673 59.7766 21.8359 59.4394 21.5041C59.3584 21.4248 59.2696 21.3408 59.1578 21.3242C59.027 21.3041 58.9022 21.3798 58.794 21.4561C58.255 21.8342 57.7835 22.2974 57.2776 22.7192C57.1309 22.8405 56.9812 22.9588 56.8298 23.0736Z" fill="#EAC2AB"/>
<path d="M62.6973 23.9933C62.6973 23.9933 60.9207 21.0122 62.2767 20.4549C63.6327 19.8976 65.017 23.649 65.017 23.649L62.7849 24.5293L62.6973 23.9933Z" fill="#F44E4E"/>
<path d="M58.5912 30.4578C58.5912 30.3348 58.3859 27.133 58.8373 25.0806C59.2887 23.0283 58.8373 21.263 60.3974 20.0318C61.9575 18.8007 63.2295 20.4424 63.64 21.3044C64.0506 22.1664 64.3949 24.9032 64.4529 26.3532C64.5121 27.8352 65.2912 30.9666 65.3226 31.0329C65.9414 32.3196 65.5344 32.225 65.4806 32.3474C65.1463 33.1094 62.9721 33.2573 62.4497 32.9876C61.3044 32.3959 61.0612 32.0741 59.8265 32.264C59.2929 32.3462 58.703 32.1818 58.5445 32.0179C58.3859 31.854 58.5912 30.4578 58.5912 30.4578Z" fill="#F3AA02"/>
<path d="M57.7208 21.6776C57.7208 21.6776 60.6025 18.6053 61.707 19.9997C62.8122 21.3942 58.9004 24.2676 58.9004 24.2676L57.125 21.9592L57.7208 21.6776Z" fill="#FDC510"/>
</svg>
