<svg width="32" height="32" viewBox="0 0 32 32" fill="none" xmlns="http://www.w3.org/2000/svg">
<path d="M21.5 15.5C21.5 15.8978 21.342 16.2794 21.0607 16.5607C20.7794 16.842 20.3978 17 20 17H12C11.6022 17 11.2206 16.842 10.9393 16.5607C10.658 16.2794 10.5 15.8978 10.5 15.5C10.5 15.1022 10.658 14.7206 10.9393 14.4393C11.2206 14.158 11.6022 14 12 14H20C20.3978 14 20.7794 14.158 21.0607 14.4393C21.342 14.7206 21.5 15.1022 21.5 15.5ZM20 19H12C11.6022 19 11.2206 19.158 10.9393 19.4393C10.658 19.7206 10.5 20.1022 10.5 20.5C10.5 20.8978 10.658 21.2794 10.9393 21.5607C11.2206 21.842 11.6022 22 12 22H20C20.3978 22 20.7794 21.842 21.0607 21.5607C21.342 21.2794 21.5 20.8978 21.5 20.5C21.5 20.1022 21.342 19.7206 21.0607 19.4393C20.7794 19.158 20.3978 19 20 19ZM27.5 6V25C27.5 26.1935 27.0259 27.3381 26.182 28.182C25.3381 29.0259 24.1935 29.5 23 29.5H9C7.80653 29.5 6.66193 29.0259 5.81802 28.182C4.97411 27.3381 4.5 26.1935 4.5 25V6C4.5 5.33696 4.76339 4.70107 5.23223 4.23223C5.70107 3.76339 6.33696 3.5 7 3.5H9V3C9 2.60218 9.15804 2.22064 9.43934 1.93934C9.72064 1.65804 10.1022 1.5 10.5 1.5C10.8978 1.5 11.2794 1.65804 11.5607 1.93934C11.842 2.22064 12 2.60218 12 3V3.5H14.5V3C14.5 2.60218 14.658 2.22064 14.9393 1.93934C15.2206 1.65804 15.6022 1.5 16 1.5C16.3978 1.5 16.7794 1.65804 17.0607 1.93934C17.342 2.22064 17.5 2.60218 17.5 3V3.5H20V3C20 2.60218 20.158 2.22064 20.4393 1.93934C20.7206 1.65804 21.1022 1.5 21.5 1.5C21.8978 1.5 22.2794 1.65804 22.5607 1.93934C22.842 2.22064 23 2.60218 23 3V3.5H25C25.663 3.5 26.2989 3.76339 26.7678 4.23223C27.2366 4.70107 27.5 5.33696 27.5 6ZM24.5 6.5H23V7C23 7.39782 22.842 7.77936 22.5607 8.06066C22.2794 8.34196 21.8978 8.5 21.5 8.5C21.1022 8.5 20.7206 8.34196 20.4393 8.06066C20.158 7.77936 20 7.39782 20 7V6.5H17.5V7C17.5 7.39782 17.342 7.77936 17.0607 8.06066C16.7794 8.34196 16.3978 8.5 16 8.5C15.6022 8.5 15.2206 8.34196 14.9393 8.06066C14.658 7.77936 14.5 7.39782 14.5 7V6.5H12V7C12 7.39782 11.842 7.77936 11.5607 8.06066C11.2794 8.34196 10.8978 8.5 10.5 8.5C10.1022 8.5 9.72064 8.34196 9.43934 8.06066C9.15804 7.77936 9 7.39782 9 7V6.5H7.5V25C7.5 25.3978 7.65804 25.7794 7.93934 26.0607C8.22064 26.342 8.60218 26.5 9 26.5H23C23.3978 26.5 23.7794 26.342 24.0607 26.0607C24.342 25.7794 24.5 25.3978 24.5 25V6.5Z" fill="#343330"/>
</svg>
