<svg width="24" height="24" viewBox="0 0 24 24" fill="none" xmlns="http://www.w3.org/2000/svg">
<path d="M19.5005 13.572L12.0005 21L9.10446 18.132M2.98746 10.028C2.9791 8.97338 3.30445 7.94311 3.91698 7.08453C4.52951 6.22596 5.39784 5.58306 6.39781 5.24778C7.39777 4.9125 8.47814 4.90201 9.48443 5.2178C10.4907 5.5336 11.3714 6.15951 12.0005 7.00603C12.414 6.45605 12.9366 5.99735 13.5356 5.65863C14.1345 5.31992 14.797 5.10848 15.4814 5.03755C16.1658 4.96662 16.8575 5.03773 17.5132 5.24642C18.1689 5.45511 18.7745 5.7969 19.292 6.25039C19.8095 6.70388 20.2279 7.25931 20.5209 7.88192C20.8139 8.50453 20.9752 9.18091 20.9948 9.86874C21.0143 10.5566 20.8917 11.241 20.6346 11.8793C20.3775 12.5175 19.9914 13.0958 19.5005 13.578" stroke="#212121" stroke-width="2" stroke-linecap="round" stroke-linejoin="round"/>
<path d="M3 13H5L7 16L9 10L10 13H13" stroke="#212121" stroke-width="2" stroke-linecap="round" stroke-linejoin="round"/>
</svg>
