<svg width="24" height="25" viewBox="0 0 24 25" fill="none" xmlns="http://www.w3.org/2000/svg">
<path d="M19.5 8H16.5V5.75C16.5 4.55653 16.0259 3.41193 15.182 2.56802C14.3381 1.72411 13.1935 1.25 12 1.25C10.8065 1.25 9.66193 1.72411 8.81802 2.56802C7.97411 3.41193 7.5 4.55653 7.5 5.75V8H4.5C4.10218 8 3.72064 8.15804 3.43934 8.43934C3.15804 8.72064 3 9.10218 3 9.5V20C3 20.3978 3.15804 20.7794 3.43934 21.0607C3.72064 21.342 4.10218 21.5 4.5 21.5H19.5C19.8978 21.5 20.2794 21.342 20.5607 21.0607C20.842 20.7794 21 20.3978 21 20V9.5C21 9.10218 20.842 8.72064 20.5607 8.43934C20.2794 8.15804 19.8978 8 19.5 8ZM9 5.75C9 4.95435 9.31607 4.19129 9.87868 3.62868C10.4413 3.06607 11.2044 2.75 12 2.75C12.7956 2.75 13.5587 3.06607 14.1213 3.62868C14.6839 4.19129 15 4.95435 15 5.75V8H9V5.75ZM19.5 20H4.5V9.5H19.5V20ZM13.125 14.75C13.125 14.9725 13.059 15.19 12.9354 15.375C12.8118 15.56 12.6361 15.7042 12.4305 15.7894C12.225 15.8745 11.9988 15.8968 11.7805 15.8534C11.5623 15.81 11.3618 15.7028 11.2045 15.5455C11.0472 15.3882 10.94 15.1877 10.8966 14.9695C10.8532 14.7512 10.8755 14.525 10.9606 14.3195C11.0458 14.1139 11.19 13.9382 11.375 13.8146C11.56 13.691 11.7775 13.625 12 13.625C12.2984 13.625 12.5845 13.7435 12.7955 13.9545C13.0065 14.1655 13.125 14.4516 13.125 14.75Z" fill="#343330"/>
</svg>
