<svg width="42" height="34" viewBox="0 0 42 34" fill="none" xmlns="http://www.w3.org/2000/svg">
<g clip-path="url(#clip0_15720_75994)">
<path d="M12.8171 11.4569L14.5574 8.21643C15.6176 6.24111 15.0475 3.88073 13.0121 2.78555C10.2317 1.29531 7.46624 3.63569 7.46624 3.63569C4.29073 6.50115 2.29041 10.6468 2.29041 15.2626C2.29041 23.904 9.30154 30.525 17.9329 30.9051C30.0749 31.4402 38.0212 21.7586 38.0212 21.7586" stroke="white" stroke-width="4.58074" stroke-linecap="square" stroke-linejoin="round"/>
<path d="M22.2685 13.3725L24.0088 10.132C25.069 8.15663 24.4989 5.79625 22.4636 4.70108C19.6831 3.21084 16.9177 5.55121 16.9177 5.55121C15.1274 7.16147 13.9872 9.34182 12.822 11.4622" stroke="white" stroke-width="4.58074" stroke-linecap="square" stroke-linejoin="round"/>
<path d="M31.7201 15.2825L33.4604 12.042C34.5205 10.0667 33.9504 7.70629 31.9151 6.61111C29.1347 5.12087 26.3692 7.46125 26.3692 7.46125C24.5789 9.07151 23.3537 11.1518 22.2736 13.3722" stroke="white" stroke-width="4.58074" stroke-linecap="square" stroke-linejoin="round"/>
</g>
<defs>
<clipPath id="clip0_15720_75994">
<rect width="41.2416" height="33.2153" fill="white"/>
</clipPath>
</defs>
</svg>
