<svg width="20" height="20" viewBox="0 0 20 20" fill="none" xmlns="http://www.w3.org/2000/svg">
<path d="M10.6249 9.375V13.75C10.6249 13.9158 10.559 14.0747 10.4418 14.1919C10.3246 14.3092 10.1656 14.375 9.99989 14.375C9.83413 14.375 9.67516 14.3092 9.55795 14.1919C9.44074 14.0747 9.37489 13.9158 9.37489 13.75V9.375C9.37489 9.20924 9.44074 9.05027 9.55795 8.93306C9.67516 8.81585 9.83413 8.75 9.99989 8.75C10.1656 8.75 10.3246 8.81585 10.4418 8.93306C10.559 9.05027 10.6249 9.20924 10.6249 9.375ZM18.739 7.66484L17.6561 15.7906C17.616 16.0909 17.4681 16.3664 17.2401 16.5659C17.012 16.7654 16.7193 16.8752 16.4163 16.875H3.58348C3.2805 16.8752 2.98776 16.7654 2.7597 16.5659C2.53164 16.3664 2.38378 16.0909 2.34364 15.7906L1.26004 7.66562C1.23643 7.48898 1.25086 7.30933 1.30237 7.13872C1.35388 6.96811 1.44127 6.81049 1.55869 6.67643C1.67611 6.54236 1.82083 6.43495 1.98316 6.36141C2.14549 6.28786 2.32167 6.24988 2.49989 6.25H5.3413L9.53114 1.46328C9.58979 1.39678 9.66192 1.34351 9.74274 1.30703C9.82356 1.27055 9.91122 1.25168 9.99989 1.25168C10.0886 1.25168 10.1762 1.27055 10.257 1.30703C10.3379 1.34351 10.41 1.39678 10.4686 1.46328L14.6585 6.25H17.4999C17.6779 6.25011 17.8538 6.28824 18.0159 6.36184C18.178 6.43544 18.3225 6.54281 18.4397 6.67676C18.5569 6.81071 18.6442 6.96815 18.6957 7.13856C18.7472 7.30896 18.7616 7.48839 18.7382 7.66484H18.739ZM7.00223 6.25H12.9975L9.99989 2.82422L7.00223 6.25ZM17.4999 7.5H2.49989L3.58348 15.625H16.4163L17.4999 7.5ZM13.503 9.3125L13.0655 13.6875C13.0569 13.7694 13.0645 13.8522 13.088 13.9312C13.1114 14.0101 13.1503 14.0837 13.2023 14.1476C13.2542 14.2114 13.3183 14.2644 13.3909 14.3035C13.4634 14.3425 13.5429 14.3668 13.6249 14.375C13.646 14.3761 13.6671 14.3761 13.6882 14.375C13.843 14.3748 13.9922 14.3172 14.1069 14.2133C14.2217 14.1093 14.2938 13.9665 14.3093 13.8125L14.7468 9.4375C14.7633 9.27257 14.7137 9.10781 14.6088 8.97946C14.5039 8.85112 14.3523 8.7697 14.1874 8.75312C14.0225 8.73655 13.8577 8.78617 13.7294 8.89107C13.601 8.99598 13.5196 9.14757 13.503 9.3125ZM6.49676 9.3125C6.48019 9.14757 6.39877 8.99598 6.27043 8.89107C6.14208 8.78617 5.97732 8.73655 5.81239 8.75312C5.64746 8.7697 5.49587 8.85112 5.39096 8.97946C5.28606 9.10781 5.23644 9.27257 5.25301 9.4375L5.69051 13.8125C5.70606 13.9672 5.77871 14.1106 5.89428 14.2146C6.00985 14.3186 6.16003 14.3758 6.31551 14.375C6.33659 14.3761 6.35772 14.3761 6.3788 14.375C6.46046 14.3668 6.53971 14.3426 6.61202 14.3037C6.68433 14.2649 6.74828 14.2122 6.80022 14.1487C6.85217 14.0851 6.89108 14.012 6.91475 13.9334C6.93842 13.8548 6.94638 13.7723 6.93817 13.6906L6.49676 9.3125Z" fill="#F15929"/>
</svg>
