<svg width="48" height="48" viewBox="0 0 48 48" fill="none" xmlns="http://www.w3.org/2000/svg">
<circle cx="24" cy="24" r="24" fill="white"/>
<path d="M38.0033 17.7518C38.0033 26.5039 25.0265 33.5881 24.4739 33.8806C24.3282 33.959 24.1654 34 24 34C23.8346 34 23.6718 33.959 23.5261 33.8806C22.9735 33.5881 9.9967 26.5039 9.9967 17.7518C9.99902 15.6966 10.8165 13.7263 12.2697 12.273C13.723 10.8198 15.6933 10.0023 17.7485 10C20.3304 10 22.5909 11.1103 24 12.987C25.4091 11.1103 27.6696 10 30.2515 10C32.3067 10.0023 34.277 10.8198 35.7303 12.273C37.1835 13.7263 38.001 15.6966 38.0033 17.7518Z" fill="#FF4E4E"/>
</svg>
