<svg width="20" height="20" viewBox="0 0 20 20" fill="none" xmlns="http://www.w3.org/2000/svg">
<path d="M16.0672 15.1828C16.1253 15.2409 16.1713 15.3098 16.2027 15.3857C16.2342 15.4616 16.2503 15.5429 16.2503 15.625C16.2503 15.7071 16.2342 15.7885 16.2027 15.8643C16.1713 15.9402 16.1253 16.0091 16.0672 16.0672C16.0091 16.1253 15.9402 16.1713 15.8643 16.2028C15.7884 16.2342 15.7071 16.2504 15.625 16.2504C15.5429 16.2504 15.4616 16.2342 15.3857 16.2028C15.3098 16.1713 15.2409 16.1253 15.1828 16.0672L10 10.8836L4.81719 16.0672C4.69991 16.1845 4.54085 16.2504 4.375 16.2504C4.20915 16.2504 4.05009 16.1845 3.93281 16.0672C3.81554 15.9499 3.74965 15.7909 3.74965 15.625C3.74965 15.4592 3.81554 15.3001 3.93281 15.1828L9.11641 10L3.93281 4.8172C3.81554 4.69992 3.74965 4.54086 3.74965 4.37501C3.74965 4.20916 3.81554 4.0501 3.93281 3.93282C4.05009 3.81555 4.20915 3.74966 4.375 3.74966C4.54085 3.74966 4.69991 3.81555 4.81719 3.93282L10 9.11642L15.1828 3.93282C15.3001 3.81555 15.4591 3.74966 15.625 3.74966C15.7909 3.74966 15.9499 3.81555 16.0672 3.93282C16.1845 4.0501 16.2503 4.20916 16.2503 4.37501C16.2503 4.54086 16.1845 4.69992 16.0672 4.8172L10.8836 10L16.0672 15.1828Z" fill="#212121"/>
</svg>
