<svg width="20" height="21" viewBox="0 0 20 21" fill="none" xmlns="http://www.w3.org/2000/svg">
<path d="M10 18.625C11.607 18.625 13.1779 18.1485 14.514 17.2557C15.8502 16.3629 16.8916 15.094 17.5065 13.6093C18.1215 12.1247 18.2824 10.491 17.9689 8.91489C17.6554 7.33879 16.8815 5.89106 15.7452 4.75476C14.6089 3.61846 13.1612 2.84463 11.5851 2.53112C10.009 2.21762 8.37535 2.37852 6.8907 2.99348C5.40605 3.60844 4.1371 4.64984 3.24431 5.98599C2.35152 7.32214 1.875 8.89303 1.875 10.5C1.87728 12.6542 2.73403 14.7195 4.25727 16.2427C5.78051 17.766 7.84581 18.6227 10 18.625ZM10 3.625C11.3597 3.625 12.689 4.02821 13.8195 4.78365C14.9501 5.53908 15.8313 6.61281 16.3517 7.86905C16.872 9.12529 17.0082 10.5076 16.7429 11.8412C16.4776 13.1749 15.8228 14.3999 14.8614 15.3614C13.8999 16.3228 12.6749 16.9776 11.3412 17.2429C10.0076 17.5082 8.62529 17.372 7.36905 16.8517C6.11281 16.3313 5.03908 15.4501 4.28365 14.3195C3.52821 13.189 3.125 11.8597 3.125 10.5C3.12707 8.67727 3.85206 6.92979 5.14092 5.64092C6.42979 4.35206 8.17727 3.62707 10 3.625ZM10.625 9.875V14.25C10.625 14.4158 10.5592 14.5747 10.4419 14.6919C10.3247 14.8092 10.1658 14.875 10 14.875C9.83424 14.875 9.67527 14.8092 9.55806 14.6919C9.44085 14.5747 9.375 14.4158 9.375 14.25L9.375 9.875C9.375 9.70924 9.44085 9.55027 9.55806 9.43306C9.67527 9.31585 9.83424 9.25 10 9.25C10.1658 9.25 10.3247 9.31585 10.4419 9.43306C10.5592 9.55027 10.625 9.70924 10.625 9.875ZM9.0625 7.0625C9.0625 6.87708 9.11748 6.69582 9.2205 6.54165C9.32351 6.38748 9.46993 6.26732 9.64124 6.19636C9.81254 6.12541 10.001 6.10684 10.1829 6.14301C10.3648 6.17919 10.5318 6.26848 10.6629 6.39959C10.794 6.5307 10.8833 6.69775 10.9195 6.8796C10.9557 7.06146 10.9371 7.24996 10.8661 7.42126C10.7952 7.59257 10.675 7.73899 10.5208 7.842C10.3667 7.94502 10.1854 8 10 8C9.75136 8 9.5129 7.90123 9.33709 7.72541C9.16127 7.5496 9.0625 7.31114 9.0625 7.0625Z" fill="#343330"/>
</svg>
