<svg width="24" height="24" viewBox="0 0 24 24" fill="none" xmlns="http://www.w3.org/2000/svg">
<path d="M5 7H6C6.53043 7 7.03914 6.78929 7.41421 6.41421C7.78929 6.03914 8 5.53043 8 5C8 4.73478 8.10536 4.48043 8.29289 4.29289C8.48043 4.10536 8.73478 4 9 4H15C15.2652 4 15.5196 4.10536 15.7071 4.29289C15.8946 4.48043 16 4.73478 16 5C16 5.53043 16.2107 6.03914 16.5858 6.41421C16.9609 6.78929 17.4696 7 18 7H19C19.5304 7 20.0391 7.21071 20.4142 7.58579C20.7893 7.96086 21 8.46957 21 9V18C21 18.5304 20.7893 19.0391 20.4142 19.4142C20.0391 19.7893 19.5304 20 19 20H5C4.46957 20 3.96086 19.7893 3.58579 19.4142C3.21071 19.0391 3 18.5304 3 18V9C3 8.46957 3.21071 7.96086 3.58579 7.58579C3.96086 7.21071 4.46957 7 5 7" stroke="#212121" stroke-width="2" stroke-linecap="round" stroke-linejoin="round"/>
<path d="M11.245 15.9038C11.6886 16.0191 12.1527 16.0313 12.6017 15.9394C13.0507 15.8474 13.4727 15.6538 13.8353 15.3735C14.1979 15.0931 14.4914 14.7333 14.6933 14.3218C14.8952 13.9104 15.0001 13.4581 15 12.9998M12.75 10.0948C12.3067 9.98031 11.843 9.96883 11.3946 10.0612C10.9461 10.1536 10.5247 10.3475 10.1628 10.6279C9.80081 10.9083 9.50783 11.2678 9.30628 11.679C9.10473 12.0901 8.99996 12.5419 9 12.9998" stroke="#212121" stroke-width="2" stroke-linecap="round" stroke-linejoin="round"/>
<path d="M14 13H16V15M10 13H8V11" stroke="#212121" stroke-width="2" stroke-linecap="round" stroke-linejoin="round"/>
</svg>
