<svg width="21" height="20" viewBox="0 0 21 20" fill="none" xmlns="http://www.w3.org/2000/svg">
<path d="M18.625 8.75004C18.625 8.25276 18.4275 7.77585 18.0758 7.42421C17.7242 7.07258 17.2473 6.87504 16.75 6.87504H11.125V6.17191C11.6615 6.03257 12.1365 5.71923 12.4758 5.28097C12.8151 4.84271 12.9995 4.30429 13 3.75004C13 1.56254 10.9344 0.163321 10.8469 0.104727C10.7442 0.0362029 10.6235 -0.000366211 10.5 -0.000366211C10.3765 -0.000366211 10.2558 0.0362029 10.1531 0.104727C10.0656 0.163321 8 1.56254 8 3.75004C8.00052 4.30429 8.18487 4.84271 8.52417 5.28097C8.86347 5.71923 9.33855 6.03257 9.875 6.17191V6.87504H4.25C3.75272 6.87504 3.27581 7.07258 2.92417 7.42421C2.57254 7.77585 2.375 8.25276 2.375 8.75004V10.5727C2.37564 11.2545 2.59468 11.9182 3 12.4664V15.625C3 16.1223 3.19754 16.5992 3.54917 16.9509C3.90081 17.3025 4.37772 17.5 4.875 17.5H16.125C16.6223 17.5 17.0992 17.3025 17.4508 16.9509C17.8025 16.5992 18 16.1223 18 15.625V12.4664C18.4053 11.9182 18.6244 11.2545 18.625 10.5727V8.75004ZM9.25 3.75004C9.25 2.68988 10.0312 1.8391 10.5 1.4227C10.9688 1.8391 11.75 2.68988 11.75 3.75004C11.75 4.08156 11.6183 4.3995 11.3839 4.63392C11.1495 4.86834 10.8315 5.00004 10.5 5.00004C10.1685 5.00004 9.85054 4.86834 9.61612 4.63392C9.3817 4.3995 9.25 4.08156 9.25 3.75004ZM3.625 8.75004C3.625 8.58428 3.69085 8.42531 3.80806 8.3081C3.92527 8.19089 4.08424 8.12504 4.25 8.12504H16.75C16.9158 8.12504 17.0747 8.19089 17.1919 8.3081C17.3092 8.42531 17.375 8.58428 17.375 8.75004V10.5727C17.375 11.6079 16.5578 12.4719 15.5531 12.4993C15.3025 12.5064 15.0531 12.4631 14.8194 12.3721C14.5858 12.2812 14.3729 12.1442 14.1931 11.9695C14.0133 11.7948 13.8704 11.5857 13.7729 11.3548C13.6753 11.1239 13.625 10.8757 13.625 10.625C13.625 10.4593 13.5592 10.3003 13.4419 10.1831C13.3247 10.0659 13.1658 10 13 10C12.8342 10 12.6753 10.0659 12.5581 10.1831C12.4408 10.3003 12.375 10.4593 12.375 10.625C12.375 11.1223 12.1775 11.5992 11.8258 11.9509C11.4742 12.3025 10.9973 12.5 10.5 12.5C10.0027 12.5 9.52581 12.3025 9.17417 11.9509C8.82254 11.5992 8.625 11.1223 8.625 10.625C8.625 10.4593 8.55915 10.3003 8.44194 10.1831C8.32473 10.0659 8.16576 10 8 10C7.83424 10 7.67527 10.0659 7.55806 10.1831C7.44085 10.3003 7.375 10.4593 7.375 10.625C7.3751 10.8758 7.3249 11.124 7.22737 11.3551C7.12983 11.5861 6.98695 11.7952 6.80718 11.97C6.6274 12.1448 6.41438 12.2818 6.18073 12.3729C5.94708 12.4639 5.69754 12.5071 5.44688 12.5C4.44219 12.4719 3.625 11.6079 3.625 10.5727V8.75004ZM16.125 16.25H4.875C4.70924 16.25 4.55027 16.1842 4.43306 16.067C4.31585 15.9498 4.25 15.7908 4.25 15.625V13.4813C4.61585 13.6471 5.01101 13.7384 5.4125 13.75C5.8302 13.763 6.24621 13.6915 6.63555 13.5396C7.02488 13.3878 7.37951 13.1588 7.67812 12.8664C7.79472 12.7528 7.90233 12.6303 8 12.5C8.29108 12.8882 8.66853 13.2032 9.10246 13.4201C9.53638 13.6371 10.0149 13.75 10.5 13.75C10.9851 13.75 11.4636 13.6371 11.8975 13.4201C12.3315 13.2032 12.7089 12.8882 13 12.5C13.098 12.6298 13.2059 12.7518 13.3227 12.8649C13.9041 13.4344 14.6862 13.7523 15.5 13.75C15.5297 13.75 15.5594 13.75 15.5891 13.75C15.99 13.7382 16.3846 13.6469 16.75 13.4813V15.625C16.75 15.7908 16.6842 15.9498 16.5669 16.067C16.4497 16.1842 16.2908 16.25 16.125 16.25Z" fill="#F15929"/>
</svg>
