<svg width="24" height="24" viewBox="0 0 24 24" fill="none" xmlns="http://www.w3.org/2000/svg">
<path d="M2.51973 12.0498C2.01973 13.4498 2.91973 14.6498 4.41973 14.6498H8.41973C9.01973 14.6498 9.51973 15.1498 9.41973 15.8498L8.91973 19.0498C8.71973 19.9498 9.31973 20.9498 10.2197 21.2498C11.0197 21.5498 12.0197 21.1498 12.4197 20.5498L16.5197 14.4498" stroke="#212121" stroke-width="2" stroke-miterlimit="10" stroke-linecap="round" stroke-linejoin="round"/>
<path d="M16.5203 5.6499L13.4203 3.2499C13.0203 2.8499 12.1203 2.6499 11.5203 2.6499H7.72027C6.52027 2.6499 5.22027 3.5499 4.92027 4.7499L3.78027 8.2199" stroke="#212121" stroke-width="2" stroke-miterlimit="10" stroke-linecap="round" stroke-linejoin="round"/>
<path d="M21.6201 5.65V15.45C21.6201 16.85 21.0201 17.35 19.6201 17.35H18.6201C17.2201 17.35 16.6201 16.85 16.6201 15.45V5.65C16.6201 4.25 17.2201 3.75 18.6201 3.75H19.6201C21.0201 3.75 21.6201 4.25 21.6201 5.65Z" stroke="#212121" stroke-width="2" stroke-linecap="round" stroke-linejoin="round"/>
</svg>
