<svg width="32" height="32" viewBox="0 0 32 32" fill="none" xmlns="http://www.w3.org/2000/svg">
<path d="M16.9999 15.0002V22.0002C16.9999 22.2655 16.8946 22.5198 16.707 22.7073C16.5195 22.8949 16.2651 23.0002 15.9999 23.0002C15.7347 23.0002 15.4803 22.8949 15.2928 22.7073C15.1053 22.5198 14.9999 22.2655 14.9999 22.0002V15.0002C14.9999 14.735 15.1053 14.4807 15.2928 14.2931C15.4803 14.1056 15.7347 14.0002 15.9999 14.0002C16.2651 14.0002 16.5195 14.1056 16.707 14.2931C16.8946 14.4807 16.9999 14.735 16.9999 15.0002ZM29.9824 12.264L28.2499 25.2652C28.1857 25.7457 27.9491 26.1865 27.5842 26.5057C27.2193 26.8248 26.7509 27.0006 26.2662 27.0002H5.73367C5.2489 27.0006 4.78051 26.8248 4.41561 26.5057C4.05071 26.1865 3.81415 25.7457 3.74992 25.2652L2.01617 12.2652C1.97839 11.9826 2.00148 11.6952 2.08389 11.4222C2.1663 11.1492 2.30613 10.897 2.494 10.6825C2.68187 10.468 2.91343 10.2962 3.17316 10.1785C3.43289 10.0608 3.71478 10 3.99992 10.0002H8.54617L15.2499 2.34149C15.3438 2.23509 15.4592 2.14986 15.5885 2.09149C15.7178 2.03312 15.858 2.00293 15.9999 2.00293C16.1418 2.00293 16.282 2.03312 16.4114 2.09149C16.5407 2.14986 16.6561 2.23509 16.7499 2.34149L23.4537 10.0002H27.9999C28.2847 10.0004 28.5662 10.0614 28.8255 10.1792C29.0849 10.2969 29.3161 10.4687 29.5036 10.6831C29.6912 10.8974 29.8308 11.1493 29.9132 11.4219C29.9956 11.6946 30.0187 11.9817 29.9812 12.264H29.9824ZM11.2037 10.0002H20.7962L15.9999 4.51899L11.2037 10.0002ZM27.9999 12.0002H3.99992L5.73367 25.0002H26.2662L27.9999 12.0002ZM21.6049 14.9002L20.9049 21.9002C20.8911 22.0313 20.9033 22.1638 20.9408 22.2901C20.9784 22.4164 21.0405 22.5341 21.1237 22.6363C21.2069 22.7386 21.3094 22.8233 21.4255 22.8858C21.5415 22.9482 21.6688 22.9871 21.7999 23.0002C21.8336 23.0021 21.8674 23.0021 21.9012 23.0002C22.1489 22.9999 22.3876 22.9077 22.5712 22.7414C22.7548 22.5752 22.8702 22.3467 22.8949 22.1002L23.5949 15.1002C23.6214 14.8364 23.542 14.5727 23.3742 14.3674C23.2064 14.162 22.9638 14.0318 22.6999 14.0052C22.436 13.9787 22.1724 14.0581 21.9671 14.226C21.7617 14.3938 21.6314 14.6364 21.6049 14.9002ZM10.3949 14.9002C10.3684 14.6364 10.2381 14.3938 10.0328 14.226C9.82743 14.0581 9.56381 13.9787 9.29992 14.0052C9.03603 14.0318 8.79348 14.162 8.62564 14.3674C8.45779 14.5727 8.3784 14.8364 8.40492 15.1002L9.10492 22.1002C9.12979 22.3478 9.24603 22.5771 9.43094 22.7435C9.61585 22.91 9.85615 23.0015 10.1049 23.0002C10.1386 23.0021 10.1724 23.0021 10.2062 23.0002C10.3368 22.9871 10.4636 22.9484 10.5793 22.8862C10.695 22.8241 10.7973 22.7398 10.8805 22.6381C10.9636 22.5364 11.0258 22.4194 11.0637 22.2936C11.1016 22.1679 11.1143 22.0359 11.1012 21.9052L10.3949 14.9002Z" fill="#343330"/>
</svg>
