<svg width="18" height="20" viewBox="0 0 18 20" fill="none" xmlns="http://www.w3.org/2000/svg">
<path d="M12.7497 19C12.7497 19.1989 12.6707 19.3897 12.53 19.5303C12.3894 19.671 12.1986 19.75 11.9997 19.75H5.99969C5.80077 19.75 5.61001 19.671 5.46936 19.5303C5.3287 19.3897 5.24969 19.1989 5.24969 19C5.24969 18.8011 5.3287 18.6103 5.46936 18.4697C5.61001 18.329 5.80077 18.25 5.99969 18.25H11.9997C12.1986 18.25 12.3894 18.329 12.53 18.4697C12.6707 18.6103 12.7497 18.8011 12.7497 19ZM17.7981 16C17.668 16.2292 17.4791 16.4196 17.2508 16.5514C17.0226 16.6833 16.7633 16.7518 16.4997 16.75H1.49969C1.236 16.7496 0.977069 16.6798 0.748988 16.5475C0.520907 16.4151 0.331737 16.225 0.200544 15.9963C0.0693512 15.7676 0.000772103 15.5083 0.00171865 15.2446C0.0026652 14.9809 0.0731041 14.7222 0.205936 14.4944C0.726248 13.5981 1.49969 11.0631 1.49969 7.75C1.49969 5.76088 2.28986 3.85322 3.69638 2.4467C5.10291 1.04018 7.01056 0.25 8.99969 0.25C10.9888 0.25 12.8965 1.04018 14.303 2.4467C15.7095 3.85322 16.4997 5.76088 16.4997 7.75C16.4997 11.0622 17.2741 13.5981 17.7944 14.4944C17.9285 14.7225 17.9995 14.9822 18 15.2468C18.0005 15.5114 17.9305 15.7714 17.7972 16H17.7981ZM16.4997 15.25C15.775 14.0059 14.9997 11.1297 14.9997 7.75C14.9997 6.1587 14.3675 4.63258 13.2423 3.50736C12.1171 2.38214 10.591 1.75 8.99969 1.75C7.40839 1.75 5.88226 2.38214 4.75704 3.50736C3.63183 4.63258 2.99969 6.1587 2.99969 7.75C2.99969 11.1306 2.22344 14.0069 1.49969 15.25H16.4997Z" fill="white"/>
</svg>
