<svg width="74" height="63" viewBox="0 0 74 63" fill="none" xmlns="http://www.w3.org/2000/svg">
<path d="M7.97187 49.0537C7.89075 48.4571 7.90771 47.7218 8.42615 47.4165C9.18795 46.9674 9.98441 47.8848 10.73 48.3612C10.9011 48.4704 11.098 48.5603 11.2993 48.5382C11.4999 48.5161 11.6739 48.3841 11.8045 48.2299C12.2632 47.6909 12.2831 46.9106 12.2093 46.2063C12.1356 45.5021 11.9933 44.7749 12.2056 44.1002C12.4173 43.4254 13.1481 42.8465 13.8096 43.0935C15.2986 43.6503 15.348 41.6046 16.0264 40.8015C16.3126 40.463 16.7558 40.2233 17.1916 40.2993C17.6194 40.3745 17.9438 40.7277 18.1658 41.1009C18.671 41.9504 18.8605 43.151 18.4903 44.0913C18.1422 44.9755 17.0825 45.5117 17.1503 46.5847C17.1975 47.3229 17.8517 47.946 17.7986 48.6835C17.7543 49.2993 17.2278 49.783 17.1135 50.3892C16.9601 51.2063 17.5847 52.036 17.3804 52.842C17.2477 53.3656 16.7882 53.7565 16.6422 54.2771C16.4623 54.9187 16.7934 55.5788 16.8885 56.238C17.0921 57.6503 16.0707 59.2012 14.598 59.3656C13.3391 59.5065 12.4785 58.2034 11.7292 57.3361C9.72187 55.0109 8.38559 52.1009 7.97187 49.0537Z" fill="#FDC510"/>
<path d="M14.0864 55.8159C14.0842 55.8159 14.0812 55.8159 14.0783 55.8159C14.0023 55.8115 13.9441 55.7466 13.9485 55.6699L14.3718 48.167C14.3755 48.091 14.4337 48.035 14.5178 48.0372C14.5938 48.0416 14.652 48.1065 14.6476 48.1832L14.2243 55.6861C14.2206 55.7591 14.1594 55.8159 14.0864 55.8159Z" fill="white"/>
<path d="M14.3346 51.4289C14.3022 51.4289 14.2697 51.4178 14.2439 51.395L12.3442 49.7342C12.2867 49.6841 12.2808 49.597 12.3309 49.5395C12.3811 49.482 12.4688 49.4761 12.5256 49.5262L14.4253 51.187C14.4828 51.2372 14.4887 51.3242 14.4386 51.3817C14.4113 51.4134 14.373 51.4289 14.3346 51.4289Z" fill="white"/>
<path d="M13.561 60.1417C12.9489 60.017 12.3169 59.5908 11.6989 59.2633C10.3486 58.548 10.0624 57.3327 4.43634 57.5185C1.82129 57.6048 3.14209 54.5104 1.30728 52.6343C0.727637 52.0421 0.149466 51.374 0.0196726 50.5554C-0.110121 49.7368 0.414215 48.7648 1.24165 48.7206C1.7387 48.694 2.18634 48.9898 2.64946 49.1712C3.11259 49.3526 3.73796 49.3732 4.00861 48.9558C3.64135 48.4617 3.11628 48.1122 2.6738 47.6837C2.23206 47.2552 1.85227 46.6822 1.91569 46.0701C2.01377 45.124 2.93191 45.5193 3.19961 45.0856C3.55876 44.5038 3.17749 43.2213 3.38029 42.4787C3.85522 40.7375 6.50713 39.5687 7.88692 41.0724C9.48353 42.8135 9.2586 45.6874 9.12881 48.0561C8.94813 51.3496 12.2859 51.7737 13.7409 53.7302C14.7903 55.1402 16.4422 57.7442 15.131 59.475C14.6384 60.1247 14.1074 60.253 13.561 60.1417Z" fill="#F44E4E"/>
<path d="M13.561 60.1415C12.9489 60.0169 12.3169 59.5907 11.6989 59.2632C10.3486 58.5479 10.0624 57.3325 4.43634 57.5184C1.82129 57.6047 3.14209 54.5103 1.30728 52.6342C0.727637 52.042 0.149466 51.3739 0.0196726 50.5553C-0.110121 49.7367 0.414215 48.7647 1.24165 48.7205C1.7387 48.6939 2.18634 48.9896 2.64946 49.171C3.11259 49.3525 3.73796 49.3731 4.00861 48.9557C3.64135 48.4616 3.11628 48.1121 2.6738 47.6836C2.23206 47.2551 1.85227 46.6821 1.91569 46.07C2.01377 45.1239 2.93191 45.5191 3.19961 45.0855C3.55876 44.5036 3.17749 43.2212 3.38029 42.4786C3.85522 40.7374 6.50713 39.5685 7.88692 41.0722C9.48353 42.8134 9.2586 45.6873 9.12881 48.056C8.94813 51.3495 12.2859 51.7736 13.7409 53.73C14.7903 55.1401 16.4422 57.7441 15.131 59.4749C14.6384 60.1246 14.1074 60.2529 13.561 60.1415Z" fill="#F44E4E"/>
<path d="M14.9549 60.5825C14.9144 60.5825 14.8745 60.5648 14.8473 60.5309L7.51909 51.4616C7.47115 51.4026 7.48 51.3148 7.53974 51.2669C7.59947 51.219 7.68576 51.2286 7.73369 51.2876L15.0619 60.3576C15.1098 60.4166 15.1009 60.5044 15.0412 60.5523C15.0169 60.5729 14.9859 60.5825 14.9549 60.5825Z" fill="white"/>
<path d="M11.3484 56.33C11.3329 56.33 11.3167 56.3271 11.3012 56.3219L6.95606 54.7408C6.88453 54.715 6.84766 54.6353 6.87347 54.5638C6.89928 54.4922 6.97819 54.4546 7.05046 54.4812L11.3956 56.0623C11.4671 56.0881 11.504 56.1678 11.4782 56.2393C11.4583 56.2953 11.4052 56.33 11.3484 56.33Z" fill="white"/>
<path d="M9.28589 53.5973C9.27041 53.5973 9.25418 53.5943 9.23869 53.5892L4.89356 52.0081C4.82203 51.9822 4.78516 51.9026 4.81097 51.8311C4.83678 51.7595 4.91569 51.7227 4.98796 51.7485L9.33309 53.3296C9.40462 53.3554 9.4415 53.435 9.41569 53.5066C9.39504 53.5619 9.34194 53.5973 9.28589 53.5973Z" fill="white"/>
<path d="M12.8635 58.2037C12.7868 58.2037 12.7249 58.1417 12.7256 58.065L12.7359 54.2435C12.7359 54.1675 12.7979 54.1056 12.8738 54.1056C12.9505 54.1056 13.0117 54.1675 13.0117 54.2442L13.0014 58.0658C13.0014 58.1417 12.9395 58.2037 12.8635 58.2037Z" fill="white"/>
<path d="M29.1989 49.4842C29.2431 49.3477 29.2896 49.2128 29.3382 49.0778C31.0278 44.4001 35.2682 41.0999 39.7033 38.8492C41.2335 38.0727 42.8545 37.3558 44.0115 36.0896C46.6472 33.2061 45.8441 28.4495 42.4157 26.5874C44.0078 27.4517 48.6148 25.6656 46.1354 23.8455C45.5491 23.4149 44.8102 23.26 44.1553 22.9436C43.5005 22.6272 42.8729 22.0299 42.9179 21.3035C42.9378 20.9864 43.0853 20.6907 43.2637 20.4274C44.0455 19.2769 45.4216 18.6243 46.159 17.4451C46.322 17.184 46.454 16.8861 46.4282 16.5793C46.3869 16.0926 45.9488 15.715 45.4783 15.5852C40.7984 14.2961 37.1922 19.9842 32.5595 19.4665C32.2947 19.437 32.0115 19.3905 31.7756 19.5137C31.5012 19.6575 31.3832 19.9827 31.3043 20.2821C30.7564 22.3455 30.9186 24.5911 31.7586 26.5542C32.4562 28.1855 33.6317 29.757 33.4548 31.5225C33.2962 33.1029 32.0573 34.4643 32.0904 36.052C32.0993 36.4746 32.1989 36.906 32.0904 37.3145C31.9267 37.9303 31.3382 38.3278 30.7682 38.6125C27.9953 39.9967 24.766 40.0181 21.7475 40.7201C21.5344 40.7696 21.311 40.8286 21.1561 40.9827C20.8862 41.2504 20.9216 41.6862 20.9592 42.0645C21.2542 45.0122 20.5499 47.9583 19.8508 50.8367C19.0787 54.0159 18.3065 57.1951 17.5344 60.3743C17.4526 60.7105 17.3832 61.1051 17.6067 61.3691C17.7291 61.5144 17.9164 61.5859 18.0956 61.6486C19.1354 62.0122 20.2085 62.2784 21.2977 62.4436C22.1605 62.5749 23.0602 62.639 23.8921 62.3743C25.1848 61.9628 26.1148 60.816 26.7195 59.6014C28.2711 56.4834 28.1222 52.7931 29.1989 49.4842Z" fill="#D4A79A"/>
<path d="M22.8727 31.7768C23.4154 30.3432 24.1168 28.9708 24.5895 27.5121C24.9693 26.3395 25.1964 25.1227 25.3845 23.9044C25.7281 21.6824 25.7296 19.4405 25.821 17.1935C26.9707 17.7267 28.2879 18.9855 28.4833 20.2377C28.678 21.4899 28.265 22.765 28.1286 24.0253C27.793 27.1352 27.6979 30.5305 29.5784 33.0298C30.2893 33.9744 31.2148 34.737 31.9582 35.6559C32.7016 36.5755 33.2709 37.7444 33.0703 38.9095C32.8218 40.3557 31.5002 41.341 30.2443 42.0998C28.5983 43.0946 26.8815 43.9715 25.1109 44.7207C24.0674 45.1625 23.9036 45.6315 22.4936 45.6463C21.7207 45.6544 20.6669 43.0438 20.953 39.869C21.2694 36.3476 21.6028 35.1323 22.8727 31.7768Z" fill="#D4A79A"/>
<path d="M40.9968 4.1875H28.423C26.9931 4.1875 25.8235 5.35712 25.8235 6.78706V19.3984C31.3618 14.4264 37.0078 9.57466 42.8943 5.02305C42.4193 4.51198 41.7453 4.1875 40.9968 4.1875Z" fill="#FCFCFF"/>
<path d="M42.8962 5.02539C37.0098 9.57701 31.3645 14.4288 25.8254 19.4007V30.4435V37.563C25.8254 38.9922 26.9951 40.1625 28.425 40.1625H40.998C42.4279 40.1625 43.5975 38.9929 43.5975 37.563V6.78866C43.5975 6.12052 43.3402 5.51138 42.922 5.04973C42.9132 5.04161 42.9043 5.03424 42.8962 5.02539Z" fill="#FFF3E0"/>
<path fill-rule="evenodd" clip-rule="evenodd" d="M28.423 4.1875H40.9968C42.426 4.1875 43.5956 5.35712 43.5956 6.78706V37.5614C43.5956 38.9913 42.426 40.1609 40.996 40.1609H28.423C26.9931 40.1609 25.8235 38.9913 25.8235 37.5614V6.78706C25.8235 5.35712 26.9931 4.1875 28.423 4.1875ZM39.8678 36.805C41.2978 36.805 42.4674 35.6354 42.4674 34.2055V7.99604C42.4674 6.5661 41.297 5.39648 39.8678 5.39648H29.55C28.1201 5.39648 26.9504 6.5661 26.9504 7.99604V34.2055C26.9504 35.6354 28.1201 36.805 29.55 36.805H39.8678Z" fill="#ED6807"/>
<path d="M36.455 5.01155H32.9654C32.9226 5.01155 32.8879 4.97689 32.8879 4.93411V4.79252C32.8879 4.74975 32.9226 4.71509 32.9654 4.71509H36.455C36.4978 4.71509 36.5325 4.74975 36.5325 4.79252V4.93411C36.5325 4.97689 36.4978 5.01155 36.455 5.01155Z" fill="#E3E5FC"/>
<path d="M34.7102 39.2948C35.2193 39.2948 35.632 38.8821 35.632 38.373C35.632 37.8639 35.2193 37.4512 34.7102 37.4512C34.201 37.4512 33.7883 37.8639 33.7883 38.373C33.7883 38.8821 34.201 39.2948 34.7102 39.2948Z" fill="#4B369D"/>
<path opacity="0.36" d="M35.0679 25.3423C37.7923 25.3423 40.0008 23.1338 40.0008 20.4094C40.0008 17.6851 37.7923 15.4766 35.0679 15.4766C32.3435 15.4766 30.135 17.6851 30.135 20.4094C30.135 23.1338 32.3435 25.3423 35.0679 25.3423Z" fill="#F44E4E"/>
<path opacity="0.36" d="M35.0675 24.1463C37.1304 24.1463 38.8028 22.4739 38.8028 20.411C38.8028 18.3481 37.1304 16.6758 35.0675 16.6758C33.0046 16.6758 31.3323 18.3481 31.3323 20.411C31.3323 22.4739 33.0046 24.1463 35.0675 24.1463Z" fill="#F44E4E"/>
<path d="M35.0675 22.4253C36.181 22.4253 37.0837 21.5226 37.0837 20.409C37.0837 19.2955 36.181 18.3928 35.0675 18.3928C33.954 18.3928 33.0513 19.2955 33.0513 20.409C33.0513 21.5226 33.954 22.4253 35.0675 22.4253Z" fill="#F44E4E"/>
<path d="M47.0436 5.3348C46.891 5.3348 46.7671 5.21091 46.7671 5.05826C46.7671 2.57448 44.7464 0.553097 42.2619 0.553097C42.1092 0.553097 41.9854 0.429203 41.9854 0.276548C41.9854 0.123894 42.1092 0 42.2619 0C45.0502 0 47.3194 2.26844 47.3194 5.05752C47.3202 5.21091 47.1963 5.3348 47.0436 5.3348Z" fill="#A7ADFF"/>
<path d="M45.4944 5.33536C45.3417 5.33536 45.2178 5.21147 45.2178 5.05882C45.2178 3.53374 43.9774 2.29333 42.4523 2.29333C42.2997 2.29333 42.1758 2.16944 42.1758 2.01678C42.1758 1.86413 42.2997 1.74023 42.4523 1.74023C44.282 1.74023 45.7702 3.22843 45.7702 5.05882C45.7709 5.21147 45.647 5.33536 45.4944 5.33536Z" fill="#A7ADFF"/>
<path d="M56.8102 8.7221H49.7372C49.5079 8.7221 49.3206 8.53478 49.3206 8.30543V7.89909C49.3206 7.66974 49.5079 7.48242 49.7372 7.48242H56.8102C57.0396 7.48242 57.2269 7.66974 57.2269 7.89909V8.30543C57.2269 8.53478 57.0396 8.7221 56.8102 8.7221Z" fill="#E3E5FC"/>
<path d="M56.8102 10.8256H49.7372C49.5079 10.8256 49.3206 10.6383 49.3206 10.4089V10.0026C49.3206 9.77325 49.5079 9.58594 49.7372 9.58594H56.8102C57.0396 9.58594 57.2269 9.77325 57.2269 10.0026V10.4089C57.2269 10.6376 57.0396 10.8256 56.8102 10.8256Z" fill="#E3E5FC"/>
<path d="M56.8102 12.9311H49.7372C49.5079 12.9311 49.3206 12.7438 49.3206 12.5144V12.1081C49.3206 11.8787 49.5079 11.6914 49.7372 11.6914H56.8102C57.0396 11.6914 57.2269 11.8787 57.2269 12.1081V12.5144C57.2269 12.7438 57.0396 12.9311 56.8102 12.9311Z" fill="#E3E5FC"/>
<path d="M56.8102 15.0344H49.7372C49.5079 15.0344 49.3206 14.847 49.3206 14.6177V14.2113C49.3206 13.982 49.5079 13.7947 49.7372 13.7947H56.8102C57.0396 13.7947 57.2269 13.982 57.2269 14.2113V14.6177C57.2269 14.847 57.0396 15.0344 56.8102 15.0344Z" fill="#E3E5FC"/>
<path d="M19.6363 17.3694H3.36637C3.13702 17.3694 2.94971 17.1821 2.94971 16.9528V16.1003C2.94971 15.8709 3.13702 15.6836 3.36637 15.6836H19.6363C19.8656 15.6836 20.0529 15.8709 20.0529 16.1003V16.9528C20.0529 17.1821 19.8656 17.3694 19.6363 17.3694Z" fill="#E3E5FC"/>
<path d="M19.6373 20.2288H9.71989C9.49054 20.2288 9.30322 20.0415 9.30322 19.8121V18.9596C9.30322 18.7303 9.49054 18.543 9.71989 18.543H19.6373C19.8666 18.543 20.054 18.7303 20.054 18.9596V19.8121C20.054 20.0415 19.8666 20.2288 19.6373 20.2288Z" fill="#E3E5FC"/>
<path d="M19.6377 26.6402H10.2726C10.0433 26.6402 9.85596 26.4529 9.85596 26.2235V25.3717C9.85596 25.1424 10.0433 24.9551 10.2726 24.9551H19.6377C19.867 24.9551 20.0543 25.1424 20.0543 25.3717V26.2235C20.0543 26.4529 19.867 26.6402 19.6377 26.6402Z" fill="#E3E5FC"/>
<path d="M19.6372 29.5003H14.0597C13.8304 29.5003 13.6431 29.313 13.6431 29.0836V28.2311C13.6431 28.0018 13.8304 27.8145 14.0597 27.8145H19.6372C19.8665 27.8145 20.0538 28.0018 20.0538 28.2311V29.0836C20.0538 29.313 19.8665 29.5003 19.6372 29.5003Z" fill="#E3E5FC"/>
<path d="M49.4103 48.8145C49.324 48.1515 49.2702 47.4797 49.2576 46.796C49.178 42.2843 49.8417 36.3846 45.5275 33.6228C43.5865 32.3801 41.0209 32.3005 39.4457 30.4288C38.866 29.74 38.5541 28.8587 38.2584 27.9974C37.3365 25.3145 36.4464 22.6198 35.5895 19.9141C34.709 20.0107 34.2053 21.0055 34.0113 21.9008C33.4486 24.4959 34.1514 27.2024 35.0711 29.6847C35.9907 32.167 37.1433 34.5969 37.5268 37.2267C37.6721 38.2245 37.3683 39.6257 36.3955 39.5888C35.8815 39.5689 35.4914 39.1073 35.2289 38.6486C34.1618 36.785 33.8439 34.125 31.8919 33.3484C31.3749 33.1427 30.636 33.2172 30.4671 33.7643C30.3756 34.0593 30.2768 34.3757 30.3926 34.6611C32.0165 38.6847 33.2311 42.3197 35.7311 45.8278C36.6846 47.1663 38.7067 48.563 39.6249 49.931C42.9125 54.83 42.8343 55.5851 45.5216 60.8115C45.6994 61.1574 46.06 57.8469 46.3918 58.035C46.7112 58.2164 46.4929 59.6758 46.8542 59.6309C48.6795 59.4044 50.8033 60.7245 52.4405 59.858C52.7126 59.7142 52.9995 59.5556 53.15 59.2791C53.3004 59.0018 53.2812 58.664 53.2584 58.3469C52.8668 52.9981 50.0991 54.091 49.4103 48.8145Z" fill="#EAC2AB"/>
<path d="M65.7117 48.7685C65.7928 48.1719 65.7759 47.4367 65.2574 47.1314C64.4956 46.6822 63.6992 47.5997 62.9536 48.0761C62.7825 48.1852 62.5856 48.2752 62.3843 48.253C62.1837 48.2309 62.0097 48.0989 61.8791 47.9448C61.4204 47.4057 61.4005 46.6255 61.4743 45.9212C61.548 45.2169 61.6903 44.4898 61.478 43.815C61.2663 43.1402 60.5355 42.5613 59.874 42.8084C58.385 43.3651 58.3356 41.3194 57.6572 40.5163C57.371 40.1778 56.9278 39.9382 56.492 40.0141C56.0642 40.0893 55.7398 40.4426 55.5178 40.8157C55.0126 41.6653 54.8231 42.8659 55.1933 43.8061C55.5414 44.6904 56.6011 45.2265 56.5333 46.2995C56.4861 47.0377 55.8319 47.6609 55.885 48.3983C55.9293 49.0141 56.4558 49.4979 56.5701 50.1041C56.7235 50.9212 56.0989 51.7508 56.3032 52.5569C56.4359 53.0805 56.8954 53.4713 57.0414 53.992C57.2213 54.6336 56.8902 55.2936 56.7951 55.9529C56.5915 57.3651 57.6129 58.916 59.0856 59.0805C60.3445 59.2213 61.2051 57.9182 61.9544 57.051C63.9617 54.7258 65.298 51.8157 65.7117 48.7685Z" fill="#FDC510"/>
<path d="M59.5972 55.5308C59.5994 55.5308 59.6024 55.5308 59.6053 55.5308C59.6813 55.5263 59.7395 55.4614 59.7351 55.3848L59.3118 47.8818C59.3081 47.8059 59.2499 47.7498 59.1658 47.752C59.0898 47.7564 59.0316 47.8213 59.036 47.898L59.4593 55.401C59.463 55.474 59.5242 55.5308 59.5972 55.5308Z" fill="white"/>
<path d="M59.349 51.1437C59.3814 51.1437 59.4139 51.1327 59.4397 51.1098L61.3394 49.4491C61.3969 49.3989 61.4028 49.3119 61.3527 49.2544C61.3025 49.1968 61.2148 49.1909 61.158 49.2411L59.2583 50.9019C59.2007 50.952 59.1948 51.039 59.245 51.0965C59.2723 51.1283 59.3106 51.1437 59.349 51.1437Z" fill="white"/>
<path d="M60.1226 59.8565C60.7347 59.7319 61.3667 59.3056 61.9847 58.9782C63.335 58.2629 63.6212 57.0475 69.2473 57.2334C71.8623 57.3196 70.5415 54.2252 72.3763 52.3491C72.956 51.757 73.5341 51.0888 73.6639 50.2702C73.7937 49.4516 73.2694 48.4797 72.4419 48.4354C71.9449 48.4089 71.4973 48.7046 71.0341 48.886C70.571 49.0674 69.9456 49.0881 69.675 48.6707C70.0422 48.1766 70.5673 47.827 71.0098 47.3986C71.4515 46.9701 71.8313 46.3971 71.7679 45.785C71.6698 44.8388 70.7517 45.2341 70.484 44.8005C70.1248 44.2186 70.5061 42.9362 70.3033 42.1935C69.8284 40.4524 67.1765 39.2835 65.7967 40.7872C64.2001 42.5283 64.425 45.4022 64.5548 47.771C64.7355 51.0645 61.3977 51.4885 59.9427 53.445C58.8933 54.855 57.2414 57.459 58.5526 59.1898C59.0452 59.8395 59.5762 59.9679 60.1226 59.8565Z" fill="#F44E4E"/>
<path d="M60.1226 59.8564C60.7347 59.7318 61.3667 59.3055 61.9847 58.9781C63.335 58.2627 63.6212 57.0474 69.2473 57.2332C71.8623 57.3195 70.5415 54.2251 72.3763 52.349C72.956 51.7568 73.5341 51.0887 73.6639 50.2701C73.7937 49.4515 73.2694 48.4796 72.4419 48.4353C71.9449 48.4088 71.4973 48.7045 71.0341 48.8859C70.571 49.0673 69.9456 49.088 69.675 48.6706C70.0422 48.1765 70.5673 47.8269 71.0098 47.3984C71.4515 46.97 71.8313 46.397 71.7679 45.7849C71.6698 44.8387 70.7517 45.234 70.484 44.8004C70.1248 44.2185 70.5061 42.936 70.3033 42.1934C69.8284 40.4523 67.1765 39.2834 65.7967 40.7871C64.2001 42.5282 64.425 45.4021 64.5548 47.7708C64.7355 51.0644 61.3977 51.4884 59.9427 53.4449C58.8933 54.8549 57.2414 57.4589 58.5526 59.1897C59.0452 59.8394 59.5762 59.9677 60.1226 59.8564Z" fill="#F44E4E"/>
<path d="M58.7287 60.2974C58.7692 60.2974 58.8091 60.2797 58.8363 60.2458L66.1645 51.1764C66.2124 51.1174 66.2036 51.0297 66.1439 50.9817C66.0841 50.9338 65.9978 50.9434 65.9499 51.0024L58.6217 60.0724C58.5738 60.1314 58.5827 60.2192 58.6424 60.2671C58.6667 60.2878 58.6977 60.2974 58.7287 60.2974Z" fill="white"/>
<path d="M62.3352 56.0448C62.3507 56.0448 62.3669 56.0419 62.3824 56.0367L66.7275 54.4556C66.7991 54.4298 66.8359 54.3502 66.8101 54.2786C66.7843 54.2071 66.7054 54.1695 66.6331 54.196L62.288 55.7771C62.2165 55.803 62.1796 55.8826 62.2054 55.9541C62.2253 56.0102 62.2784 56.0448 62.3352 56.0448Z" fill="white"/>
<path d="M64.3977 53.3121C64.4132 53.3121 64.4294 53.3092 64.4449 53.304L68.79 51.7229C68.8616 51.6971 68.8984 51.6174 68.8726 51.5459C68.8468 51.4744 68.7679 51.4375 68.6956 51.4633L64.3505 53.0444C64.279 53.0702 64.2421 53.1499 64.2679 53.2214C64.2886 53.2767 64.3417 53.3121 64.3977 53.3121Z" fill="white"/>
<path d="M60.8201 57.9185C60.8968 57.9185 60.9587 57.8566 60.958 57.7799L60.9477 53.9583C60.9477 53.8824 60.8857 53.8204 60.8098 53.8204C60.7331 53.8204 60.6719 53.8824 60.6719 53.9591L60.6822 57.7806C60.6822 57.8566 60.7441 57.9185 60.8201 57.9185Z" fill="white"/>
<path d="M61.3535 52.6872C60.6153 52.199 59.7333 51.9121 58.7871 51.9121H31.4383C31.3852 51.9121 31.3343 51.918 31.2812 51.9202C35.2938 52.9748 39.2658 54.2373 43.1964 55.5817C49.3616 58.0471 55.2045 54.578 61.3535 52.6872Z" fill="#FFBAC3"/>
<path d="M61.3534 52.6869C55.2044 54.5777 49.3615 58.0468 43.197 55.5814C39.2664 54.237 35.2944 52.9738 31.2819 51.9199C28.7826 52.004 26.7627 54.0689 26.7627 56.5881C26.7627 59.1603 28.8667 61.2643 31.4389 61.2643H58.787C61.3585 61.2643 63.4633 59.1603 63.4633 56.5881C63.4625 54.9627 62.6211 53.5254 61.3534 52.6869Z" fill="#D7384E"/>
<path d="M36.2563 63.0003H11.3013C9.47457 63.0003 7.98047 61.5062 7.98047 59.6795V59.1743C7.98047 57.3476 9.47457 55.8535 11.3013 55.8535H36.2563C38.083 55.8535 39.5771 57.3476 39.5771 59.1743V59.6795C39.5771 61.5054 38.083 63.0003 36.2563 63.0003Z" fill="#ED6807"/>
<path d="M36.3425 59.452L36.2312 59.5884C36.2053 59.6201 36.1581 59.6246 36.1264 59.5987L34.1648 58.0007C34.1331 57.9748 34.1286 57.9277 34.1545 57.8959L34.2658 57.7595C34.2916 57.7278 34.3388 57.7234 34.3705 57.7492L36.3329 59.3473C36.3639 59.3731 36.3683 59.4203 36.3425 59.452Z" fill="white"/>
<path d="M36.3425 59.402L36.2312 59.2656C36.2053 59.2339 36.1581 59.2295 36.1264 59.2553L34.1648 60.8534C34.1331 60.8792 34.1286 60.9264 34.1545 60.9581L34.2658 61.0945C34.2916 61.1262 34.3388 61.1307 34.3705 61.1048L36.3329 59.5068C36.3639 59.481 36.3683 59.4338 36.3425 59.402Z" fill="white"/>
<path d="M33.6489 59.452L33.5376 59.5884C33.5117 59.6201 33.4645 59.6246 33.4328 59.5987L31.4704 58.0007C31.4387 57.9748 31.4343 57.9277 31.4601 57.8959L31.5715 57.7595C31.5973 57.7278 31.6445 57.7234 31.6762 57.7492L33.6386 59.3473C33.6696 59.3731 33.6747 59.4203 33.6489 59.452Z" fill="white"/>
<path d="M33.6489 59.402L33.5376 59.2656C33.5117 59.2339 33.4645 59.2295 33.4328 59.2553L31.4704 60.8534C31.4387 60.8792 31.4343 60.9264 31.4601 60.9581L31.5715 61.0945C31.5973 61.1262 31.6445 61.1307 31.6762 61.1048L33.6386 59.5068C33.6696 59.481 33.6747 59.4338 33.6489 59.402Z" fill="white"/>
<path d="M30.7075 59.452L30.5961 59.5884C30.5703 59.6201 30.5231 59.6246 30.4914 59.5987L28.529 58.0007C28.4973 57.9748 28.4929 57.9277 28.5187 57.8959L28.6301 57.7595C28.6559 57.7278 28.7031 57.7234 28.7348 57.7492L30.6972 59.3473C30.7289 59.3731 30.7333 59.4203 30.7075 59.452Z" fill="white"/>
<path d="M30.7075 59.402L30.5961 59.2656C30.5703 59.2339 30.5231 59.2295 30.4914 59.2553L28.529 60.8534C28.4973 60.8792 28.4929 60.9264 28.5187 60.9581L28.6301 61.0945C28.6559 61.1262 28.7031 61.1307 28.7348 61.1048L30.6972 59.5068C30.7289 59.481 30.7333 59.4338 30.7075 59.402Z" fill="white"/>
</svg>
