<svg width="166" height="35" viewBox="0 0 166 35" fill="none" xmlns="http://www.w3.org/2000/svg">
<g clip-path="url(#clip0_14921_74561)">
<path d="M42.6875 32.3846V34.5858H42.1972V32.8561H35.8711V25.6894H36.3938V32.3846H41.0117V25.6894H41.5344V32.3846H42.6902H42.6875Z" fill="white" stroke="white" stroke-width="0.269424" stroke-miterlimit="10"/>
<path d="M43.7113 27.5109H44.2232V32.0668L48.0329 27.5109H48.4828V32.8562H47.9709V28.3003L44.1612 32.8562H43.7113V27.5109Z" fill="white" stroke="white" stroke-width="0.269424" stroke-miterlimit="10"/>
<path d="M55.7276 32.145C55.1806 32.6192 54.4101 32.8725 53.4132 32.9075V34.8419H52.9121V32.9075C51.9152 32.8725 51.1447 32.6192 50.5977 32.145C50.0508 31.6708 49.7787 31.0134 49.7787 30.1728C49.7787 29.3322 50.0535 28.6991 50.6031 28.2276C51.1528 27.7561 51.9233 27.5028 52.9121 27.4705V25.2585H53.4132V27.4705C54.4101 27.5055 55.1806 27.7561 55.7276 28.2276C56.2745 28.6991 56.5466 29.3457 56.5466 30.1728C56.5466 31 56.2745 31.6681 55.7276 32.145ZM50.9668 31.8028C51.4168 32.1989 52.0661 32.4144 52.9121 32.4468V27.9312C52.0661 27.9663 51.4168 28.1764 50.9668 28.5671C50.5169 28.955 50.2906 29.4912 50.2906 30.1755C50.2906 30.8599 50.5169 31.4068 50.9668 31.8028ZM55.3638 31.8082C55.8165 31.4149 56.0455 30.8706 56.0455 30.1755C56.0455 29.4804 55.8192 28.9577 55.3638 28.5671C54.9085 28.1791 54.2592 27.9663 53.4132 27.9312V32.4468C54.2592 32.4117 54.9085 32.1989 55.3638 31.8055V31.8082Z" fill="white" stroke="white" stroke-width="0.269424" stroke-miterlimit="10"/>
<path d="M61.7169 27.8207C62.1183 28.0524 62.4362 28.373 62.6626 28.7826C62.8889 29.1921 63.0047 29.6582 63.0047 30.1863C63.0047 30.7143 62.8916 31.1804 62.6626 31.5927C62.4335 32.0049 62.1183 32.3255 61.7169 32.5545C61.3127 32.7835 60.8628 32.8967 60.3644 32.8967C59.8929 32.8967 59.4672 32.7862 59.0846 32.5626C58.702 32.339 58.4057 32.0318 58.1928 31.6358V34.8392H57.6809V27.5082H58.1713V28.7664C58.3841 28.3569 58.6805 28.039 59.0684 27.8099C59.4537 27.5809 59.8848 27.4678 60.3644 27.4678C60.8439 27.4678 61.3127 27.5836 61.7169 27.8153V27.8207ZM61.4394 32.1504C61.7681 31.9591 62.024 31.6923 62.2126 31.3529C62.4012 31.0107 62.4928 30.6227 62.4928 30.1863C62.4928 29.7498 62.3985 29.3618 62.2126 29.0197C62.024 28.6775 61.7681 28.4135 61.4394 28.2222C61.1107 28.0309 60.7443 27.9366 60.3347 27.9366C59.9252 27.9366 59.5588 28.0309 59.2355 28.2222C58.9122 28.4135 58.6562 28.6802 58.4676 29.0197C58.279 29.3618 58.1874 29.7498 58.1874 30.1863C58.1874 30.6227 58.2817 31.0134 58.4676 31.3529C58.6562 31.695 58.9122 31.9591 59.2355 32.1504C59.5588 32.3416 59.9252 32.4359 60.3347 32.4359C60.7443 32.4359 61.1134 32.3416 61.4394 32.1504Z" fill="white" stroke="white" stroke-width="0.269424" stroke-miterlimit="10"/>
<path d="M65.1817 32.549C64.7749 32.3173 64.4569 31.994 64.2252 31.5817C63.9935 31.1695 63.8777 30.7034 63.8777 30.1834C63.8777 29.6634 63.9935 29.2 64.2252 28.7851C64.4569 28.3729 64.7776 28.0496 65.1817 27.8179C65.5885 27.5862 66.0439 27.4703 66.5477 27.4703C67.0515 27.4703 67.5095 27.5862 67.9137 27.8179C68.3205 28.0496 68.6384 28.3729 68.8701 28.7851C69.1018 29.1973 69.2177 29.6634 69.2177 30.1834C69.2177 30.7034 69.1018 31.1668 68.8701 31.5817C68.6384 31.9967 68.3178 32.3173 67.9137 32.549C67.5068 32.7807 67.0515 32.8965 66.5477 32.8965C66.0439 32.8965 65.5858 32.7807 65.1817 32.549ZM67.6496 32.1502C67.9729 31.9589 68.2289 31.6922 68.4175 31.3527C68.6061 31.0106 68.6977 30.6226 68.6977 30.1861C68.6977 29.7497 68.6034 29.3617 68.4175 29.0195C68.2289 28.6774 67.9729 28.4133 67.6496 28.222C67.3263 28.0307 66.9599 27.9364 66.5504 27.9364C66.1408 27.9364 65.7744 28.0307 65.4511 28.222C65.1278 28.4133 64.8719 28.68 64.6833 29.0195C64.4947 29.3617 64.4031 29.7497 64.4031 30.1861C64.4031 30.6226 64.4974 31.0133 64.6833 31.3527C64.8719 31.6949 65.1278 31.9589 65.4511 32.1502C65.7744 32.3415 66.1435 32.4358 66.5504 32.4358C66.9572 32.4358 67.3263 32.3415 67.6496 32.1502Z" fill="white" stroke="white" stroke-width="0.269424" stroke-miterlimit="10"/>
<path d="M74.8702 31.4229C74.8702 31.8863 74.7005 32.2419 74.3637 32.4871C74.0269 32.7323 73.5204 32.8562 72.8441 32.8562H70.5298V27.5109H72.7822C73.3749 27.5109 73.841 27.6294 74.1805 27.8638C74.5173 28.1009 74.687 28.435 74.687 28.8715C74.687 29.1867 74.6008 29.4453 74.4256 29.6555C74.2505 29.8629 74.008 30.0111 73.6928 30.1C74.4768 30.2374 74.8702 30.6766 74.8702 31.4202V31.4229ZM71.0309 29.9491H72.7498C73.2079 29.9491 73.5581 29.8629 73.8033 29.6878C74.0485 29.5127 74.1724 29.2621 74.1724 28.9361C74.1724 28.6101 74.0512 28.3515 73.8087 28.1844C73.5662 28.0174 73.2132 27.9339 72.7498 27.9339H71.0309V29.9518V29.9491ZM74.3583 31.404C74.3583 31.043 74.2424 30.7763 74.0107 30.6065C73.779 30.4368 73.4126 30.3506 72.9142 30.3506H71.0309V32.4386H72.8334C73.8491 32.4386 74.3583 32.0938 74.3583 31.404Z" fill="white" stroke="white" stroke-width="0.269424" stroke-miterlimit="10"/>
<path d="M77.1198 32.549C76.713 32.3173 76.3951 31.994 76.1634 31.5817C75.9317 31.1695 75.8158 30.7034 75.8158 30.1834C75.8158 29.6634 75.9317 29.2 76.1634 28.7851C76.3951 28.3729 76.7157 28.0496 77.1198 27.8179C77.5266 27.5862 77.982 27.4703 78.4858 27.4703C78.9896 27.4703 79.4476 27.5862 79.8518 27.8179C80.2586 28.0496 80.5765 28.3729 80.8082 28.7851C81.0399 29.1973 81.1558 29.6634 81.1558 30.1834C81.1558 30.7034 81.0399 31.1668 80.8082 31.5817C80.5765 31.9967 80.2559 32.3173 79.8518 32.549C79.4449 32.7807 78.9896 32.8965 78.4858 32.8965C77.982 32.8965 77.5239 32.7807 77.1198 32.549ZM79.5877 32.1502C79.911 31.9589 80.167 31.6922 80.3556 31.3527C80.5442 31.0106 80.6358 30.6226 80.6358 30.1861C80.6358 29.7497 80.5415 29.3617 80.3556 29.0195C80.167 28.6774 79.911 28.4133 79.5877 28.222C79.2644 28.0307 78.898 27.9364 78.4885 27.9364C78.079 27.9364 77.7125 28.0307 77.3892 28.222C77.0659 28.4133 76.81 28.68 76.6214 29.0195C76.4328 29.3617 76.3412 29.7497 76.3412 30.1861C76.3412 30.6226 76.4355 31.0133 76.6214 31.3527C76.81 31.6949 77.0659 31.9589 77.3892 32.1502C77.7125 32.3415 78.0817 32.4358 78.4885 32.4358C78.8953 32.4358 79.2644 32.3415 79.5877 32.1502Z" fill="white" stroke="white" stroke-width="0.269424" stroke-miterlimit="10"/>
<path d="M87.1262 30.3074H82.5298C82.5433 30.725 82.6484 31.0941 82.8477 31.4174C83.0444 31.7407 83.3138 31.9913 83.6506 32.1691C83.9874 32.3469 84.37 32.4358 84.793 32.4358C85.1405 32.4358 85.4638 32.3738 85.7602 32.2472C86.0566 32.1206 86.3044 31.9347 86.5011 31.6895L86.7975 32.0263C86.5658 32.3065 86.2748 32.522 85.9219 32.6702C85.5689 32.8184 85.189 32.8965 84.7795 32.8965C84.2461 32.8965 83.7719 32.7807 83.357 32.549C82.9393 32.3173 82.616 31.9967 82.3789 31.5871C82.1419 31.1776 82.026 30.7115 82.026 30.1834C82.026 29.6554 82.1365 29.2 82.3601 28.7851C82.581 28.3729 82.8882 28.0496 83.2761 27.8179C83.6641 27.5862 84.1033 27.4703 84.5855 27.4703C85.0678 27.4703 85.5043 27.5835 85.8895 27.8125C86.2748 28.0415 86.5793 28.3594 86.8002 28.769C87.0211 29.1785 87.1316 29.6419 87.1316 30.1619L87.1208 30.3047L87.1262 30.3074ZM83.5725 28.1735C83.2707 28.3406 83.031 28.575 82.8504 28.8794C82.6699 29.1839 82.5648 29.526 82.5379 29.9086H86.6331C86.6116 29.526 86.5092 29.1839 86.326 28.8848C86.1428 28.5858 85.9003 28.3487 85.5986 28.1789C85.2995 28.0092 84.96 27.923 84.5855 27.923C84.211 27.923 83.8716 28.0065 83.5725 28.1735Z" fill="white" stroke="white" stroke-width="0.269424" stroke-miterlimit="10"/>
<path d="M91.8978 32.5489C91.4882 32.3172 91.1676 31.9939 90.9359 31.5817C90.7042 31.1695 90.5884 30.7034 90.5884 30.1834C90.5884 29.6634 90.7042 29.1892 90.9359 28.777C91.1676 28.3648 91.4882 28.0441 91.8978 27.8151C92.3073 27.5861 92.7707 27.473 93.2907 27.473C93.7218 27.473 94.1124 27.5565 94.4627 27.7235C94.8129 27.8906 95.0985 28.1357 95.3168 28.4564L94.9369 28.7339C94.7456 28.4671 94.5085 28.2678 94.2256 28.1357C93.9427 28.0037 93.6302 27.9364 93.288 27.9364C92.8704 27.9364 92.4986 28.0307 92.1672 28.2166C91.8358 28.4052 91.5772 28.6692 91.3886 29.0087C91.2 29.3508 91.1084 29.7415 91.1084 30.1861C91.1084 30.6306 91.2027 31.0213 91.3886 31.3634C91.5772 31.7056 91.8358 31.9696 92.1672 32.1555C92.4986 32.3441 92.8731 32.4357 93.288 32.4357C93.6302 32.4357 93.9427 32.3684 94.2256 32.2364C94.5085 32.1044 94.7456 31.9023 94.9369 31.6383L95.3168 31.9158C95.0985 32.2364 94.8129 32.4815 94.4627 32.6486C94.1124 32.8156 93.7218 32.8992 93.2907 32.8992C92.7707 32.8992 92.3073 32.7833 91.8978 32.5516V32.5489Z" fill="white" stroke="white" stroke-width="0.269424" stroke-miterlimit="10"/>
<path d="M101.069 27.5109V32.8562H100.557V27.9716H96.9117V32.8562H96.3998V27.5109H101.069Z" fill="white" stroke="white" stroke-width="0.269424" stroke-miterlimit="10"/>
<path d="M106.164 27.9769C106.519 28.3136 106.697 28.8121 106.697 29.4668V32.8561H106.207V31.9051C106.037 32.2203 105.786 32.4628 105.46 32.6379C105.132 32.813 104.741 32.8992 104.283 32.8992C103.69 32.8992 103.219 32.7591 102.877 32.4789C102.532 32.1987 102.359 31.8296 102.359 31.3743C102.359 30.919 102.518 30.5714 102.836 30.2939C103.154 30.0164 103.661 29.879 104.356 29.879H106.188V29.4479C106.188 28.9495 106.053 28.5723 105.784 28.3109C105.514 28.0523 105.121 27.923 104.601 27.923C104.245 27.923 103.906 27.9849 103.583 28.1062C103.259 28.2301 102.984 28.3918 102.758 28.5965L102.502 28.2274C102.769 27.9876 103.09 27.8017 103.464 27.6697C103.839 27.5377 104.232 27.4703 104.641 27.4703C105.304 27.4703 105.811 27.6401 106.166 27.9769H106.164ZM105.482 32.1691C105.792 31.9643 106.026 31.668 106.182 31.2773V30.275H104.361C103.836 30.275 103.456 30.372 103.219 30.5606C102.982 30.7492 102.866 31.0133 102.866 31.35C102.866 31.6868 102.995 31.9724 103.254 32.1745C103.513 32.3765 103.879 32.4762 104.35 32.4762C104.795 32.4762 105.172 32.3738 105.482 32.1691Z" fill="white" stroke="white" stroke-width="0.269424" stroke-miterlimit="10"/>
<path d="M109.219 32.5489C108.809 32.3172 108.489 31.9939 108.257 31.5817C108.025 31.1695 107.91 30.7034 107.91 30.1834C107.91 29.6634 108.025 29.1892 108.257 28.777C108.489 28.3648 108.809 28.0441 109.219 27.8151C109.628 27.5861 110.092 27.473 110.612 27.473C111.043 27.473 111.434 27.5565 111.784 27.7235C112.134 27.8906 112.42 28.1357 112.638 28.4564L112.258 28.7339C112.067 28.4671 111.83 28.2678 111.547 28.1357C111.264 28.0037 110.951 27.9364 110.609 27.9364C110.192 27.9364 109.82 28.0307 109.488 28.2166C109.157 28.4052 108.898 28.6692 108.71 29.0087C108.521 29.3508 108.43 29.7415 108.43 30.1861C108.43 30.6306 108.524 31.0213 108.71 31.3634C108.898 31.7056 109.157 31.9696 109.488 32.1555C109.82 32.3441 110.194 32.4357 110.609 32.4357C110.951 32.4357 111.264 32.3684 111.547 32.2364C111.83 32.1044 112.067 31.9023 112.258 31.6383L112.638 31.9158C112.42 32.2364 112.134 32.4815 111.784 32.6486C111.434 32.8156 111.043 32.8992 110.612 32.8992C110.092 32.8992 109.628 32.7833 109.219 32.5516V32.5489Z" fill="white" stroke="white" stroke-width="0.269424" stroke-miterlimit="10"/>
<path d="M113.721 27.5109H114.233V32.0668L118.043 27.5109H118.493V32.8562H117.981V28.3003L114.171 32.8562H113.721V27.5109Z" fill="white" stroke="white" stroke-width="0.269424" stroke-miterlimit="10"/>
<path d="M124.115 27.9256C124.501 28.1465 124.803 28.4563 125.021 28.8524C125.239 29.2484 125.349 29.7065 125.349 30.2238C125.349 30.741 125.239 31.2045 125.018 31.6113C124.797 32.0181 124.485 32.336 124.086 32.5623C123.687 32.7914 123.232 32.9045 122.72 32.9045C122.133 32.9045 121.631 32.7617 121.219 32.4734C120.807 32.1878 120.492 31.781 120.276 31.2556C120.061 30.7303 119.953 30.116 119.953 29.4128C119.953 28.6153 120.05 27.9525 120.244 27.4271C120.438 26.9018 120.732 26.4868 121.125 26.1824C121.518 25.8779 122.022 25.6516 122.636 25.5008L125.002 24.9269L125.083 25.4091L122.83 25.9426C122.278 26.0719 121.828 26.2632 121.483 26.5111C121.138 26.7617 120.88 27.1011 120.71 27.5295C120.54 27.9606 120.451 28.5075 120.443 29.1784C120.621 28.688 120.917 28.3001 121.335 28.0172C121.75 27.7343 122.235 27.5915 122.79 27.5915C123.288 27.5915 123.73 27.7019 124.115 27.9256ZM123.814 32.1798C124.134 31.9885 124.385 31.7244 124.56 31.385C124.738 31.0482 124.827 30.6629 124.827 30.2318C124.827 29.8008 124.738 29.4209 124.56 29.0895C124.382 28.7581 124.134 28.5021 123.819 28.3216C123.501 28.1411 123.137 28.0495 122.728 28.0495C122.318 28.0495 121.952 28.1411 121.631 28.3216C121.311 28.5021 121.06 28.7581 120.885 29.0895C120.707 29.4209 120.618 29.8008 120.618 30.2318C120.618 30.6629 120.707 31.0455 120.885 31.385C121.063 31.7217 121.311 31.9885 121.631 32.1798C121.952 32.3711 122.318 32.4654 122.728 32.4654C123.137 32.4654 123.493 32.3684 123.814 32.1798Z" fill="white" stroke="white" stroke-width="0.269424" stroke-miterlimit="10"/>
<path d="M127.529 32.549C127.122 32.3173 126.804 31.994 126.573 31.5817C126.341 31.1695 126.225 30.7034 126.225 30.1834C126.225 29.6634 126.341 29.2 126.573 28.7851C126.804 28.3729 127.125 28.0496 127.529 27.8179C127.936 27.5862 128.391 27.4703 128.895 27.4703C129.399 27.4703 129.857 27.5862 130.261 27.8179C130.668 28.0496 130.986 28.3729 131.217 28.7851C131.449 29.1973 131.565 29.6634 131.565 30.1834C131.565 30.7034 131.449 31.1668 131.217 31.5817C130.986 31.9967 130.665 32.3173 130.261 32.549C129.854 32.7807 129.399 32.8965 128.895 32.8965C128.391 32.8965 127.933 32.7807 127.529 32.549ZM129.997 32.1502C130.32 31.9589 130.576 31.6922 130.765 31.3527C130.953 31.0106 131.045 30.6226 131.045 30.1861C131.045 29.7497 130.951 29.3617 130.765 29.0195C130.576 28.6774 130.32 28.4133 129.997 28.222C129.674 28.0307 129.307 27.9364 128.898 27.9364C128.488 27.9364 128.122 28.0307 127.798 28.222C127.475 28.4133 127.219 28.68 127.031 29.0195C126.842 29.3617 126.75 29.7497 126.75 30.1861C126.75 30.6226 126.845 31.0133 127.031 31.3527C127.219 31.6949 127.475 31.9589 127.798 32.1502C128.122 32.3415 128.491 32.4358 128.898 32.4358C129.304 32.4358 129.674 32.3415 129.997 32.1502Z" fill="white" stroke="white" stroke-width="0.269424" stroke-miterlimit="10"/>
<path d="M15.7775 31.5549C24.4911 31.5549 31.5549 24.4911 31.5549 15.7775C31.5549 7.06381 24.4911 0 15.7775 0C7.06381 0 0 7.06381 0 15.7775C0 24.4911 7.06381 31.5549 15.7775 31.5549Z" fill="white"/>
<path d="M12.1887 13.5679L13.1263 11.822C13.6975 10.7578 13.3903 9.48612 12.2938 8.89608C10.7958 8.0932 9.30587 9.3541 9.30587 9.3541C7.59503 10.8979 6.51733 13.1314 6.51733 15.6182C6.51733 20.2738 10.2947 23.841 14.9449 24.0458C21.4865 24.3341 25.7677 19.118 25.7677 19.118" stroke="#F15929" stroke-width="2.46792" stroke-linecap="square" stroke-linejoin="round"/>
<path d="M17.2808 14.5999L18.2184 12.854C18.7896 11.7898 18.4824 10.5181 17.3859 9.92807C15.8879 9.12518 14.398 10.3861 14.398 10.3861C13.4334 11.2536 12.8192 12.4283 12.1914 13.5707" stroke="#F15929" stroke-width="2.46792" stroke-linecap="square" stroke-linejoin="round"/>
<path d="M22.373 15.6289L23.3106 13.8831C23.8818 12.8188 23.5746 11.5472 22.4781 10.9571C20.9801 10.1542 19.4901 11.4151 19.4901 11.4151C18.5256 12.2827 17.8655 13.4035 17.2836 14.5997" stroke="#F15929" stroke-width="2.46792" stroke-linecap="square" stroke-linejoin="round"/>
<path d="M44.8294 9.86363H40.33V21.3087H37.8271V9.86363H33.3466V7.7298H44.8294V9.86363Z" fill="white"/>
<path d="M47.257 7.7298H49.741V17.3698L57.0343 7.7298H59.381V21.3087H56.8996V11.6876L49.6063 21.3087H47.2597V7.7298H47.257Z" fill="white"/>
<path d="M75.7269 21.3087L75.7081 12.3073L71.2464 19.7569H70.1202L65.6586 12.4232V21.3087H63.2715V7.7298H65.346L70.7184 16.7124L76.0341 7.7298H78.0898L78.1275 21.3087H75.7215H75.7269Z" fill="white"/>
<path d="M95.7344 18.7305C94.4923 19.765 92.7276 20.3281 90.4375 20.4171V21.8531H88.1097V20.4171C85.8196 20.3012 84.0522 19.7327 82.8047 18.7089C81.5573 17.6878 80.9323 16.2841 80.9323 14.5005C80.9323 12.7169 81.5573 11.3105 82.8047 10.2813C84.0522 9.25214 85.8223 8.68096 88.1097 8.56511V7.18835H90.4375V8.56511C92.7276 8.68096 94.4923 9.25483 95.7344 10.2813C96.9764 11.3105 97.5961 12.7169 97.5961 14.5005C97.5961 16.2841 96.9764 17.6959 95.7344 18.7305ZM84.6099 17.2567C85.4182 17.9168 86.5848 18.3102 88.1124 18.4395V10.5642C84.9709 10.7959 83.3975 12.1107 83.3975 14.5032C83.3975 15.6806 83.8016 16.5993 84.6099 17.2567ZM93.9697 17.2675C94.7725 16.602 95.1713 15.6725 95.1713 14.4843C95.1713 13.2962 94.7671 12.3694 93.9589 11.7093C93.1506 11.0492 91.9759 10.6693 90.4375 10.5642V18.4395C91.9894 18.3236 93.1668 17.933 93.967 17.2648L93.9697 17.2675Z" fill="white"/>
<path d="M103.351 20.6028C102.238 20.002 101.365 19.1668 100.732 18.0999C100.099 17.0329 99.7811 15.8394 99.7811 14.5219C99.7811 13.2044 100.099 12.0109 100.732 10.944C101.365 9.87705 102.238 9.04184 103.351 8.44102C104.464 7.84021 105.711 7.53845 107.093 7.53845C108.475 7.53845 109.726 7.84021 110.838 8.44102C111.951 9.04184 112.824 9.87436 113.457 10.9332C114.09 11.9947 114.408 13.191 114.408 14.5219C114.408 15.8529 114.09 17.0491 113.457 18.1106C112.824 19.1722 111.951 20.002 110.838 20.6028C109.726 21.2036 108.478 21.5054 107.093 21.5054C105.708 21.5054 104.461 21.2036 103.351 20.6028ZM109.54 18.6818C110.264 18.275 110.833 17.7065 111.248 16.9737C111.663 16.2435 111.867 15.4245 111.867 14.5192C111.867 13.614 111.66 12.7949 111.248 12.0648C110.833 11.3346 110.264 10.7661 109.54 10.3566C108.815 9.94979 108.001 9.74503 107.096 9.74503C106.191 9.74503 105.377 9.94979 104.652 10.3566C103.928 10.7635 103.359 11.3319 102.944 12.0648C102.529 12.7949 102.324 13.614 102.324 14.5192C102.324 15.4245 102.532 16.2435 102.944 16.9737C103.359 17.7038 103.928 18.2723 104.652 18.6818C105.377 19.0886 106.191 19.2934 107.096 19.2934C108.001 19.2934 108.815 19.0886 109.54 18.6818Z" fill="white"/>
<path d="M126.061 8.31175C126.934 8.69972 127.602 9.25474 128.068 9.97949C128.534 10.7042 128.766 11.5637 128.766 12.5606C128.766 13.5574 128.534 14.4007 128.068 15.1309C127.602 15.861 126.934 16.4214 126.061 16.8094C125.188 17.1973 124.164 17.3913 122.987 17.3913H119.92V21.3087H117.399V7.7298H122.987C124.164 7.7298 125.188 7.92378 126.061 8.31175ZM125.371 14.557C125.939 14.0909 126.225 13.4254 126.225 12.5579C126.225 11.6903 125.939 11.0248 125.371 10.5587C124.802 10.0926 123.967 9.86094 122.868 9.86094H119.918V15.2548H122.868C123.967 15.2548 124.8 15.0231 125.371 14.557Z" fill="white"/>
<path d="M134.424 20.6028C133.316 20.002 132.451 19.1695 131.824 18.1106C131.196 17.0491 130.883 15.8529 130.883 14.5219C130.883 13.191 131.201 11.9947 131.834 10.9332C132.468 9.87166 133.338 9.04184 134.445 8.44102C135.55 7.84021 136.789 7.53845 138.16 7.53845C139.273 7.53845 140.286 7.73244 141.205 8.12041C142.124 8.50838 142.9 9.07147 143.533 9.807L141.903 11.34C140.919 10.2785 139.71 9.75042 138.276 9.75042C137.344 9.75042 136.512 9.95518 135.773 10.362C135.035 10.7688 134.461 11.3346 134.046 12.0594C133.631 12.7841 133.427 13.6059 133.427 14.5219C133.427 15.438 133.634 16.2624 134.046 16.9844C134.461 17.7092 135.035 18.275 135.773 18.6818C136.512 19.0886 137.344 19.2934 138.276 19.2934C139.712 19.2934 140.922 18.7573 141.903 17.6823L143.533 19.2341C142.9 19.9724 142.121 20.5328 141.194 20.9207C140.27 21.3087 139.252 21.5027 138.139 21.5027C136.768 21.5027 135.531 21.2009 134.424 20.6001V20.6028Z" fill="white"/>
<path d="M150.085 8.67244C150.487 9.07119 150.686 9.56693 150.686 10.165C150.686 10.615 150.565 11.0218 150.32 11.3909C150.074 11.76 149.708 12.051 149.215 12.2692C148.722 12.4875 148.124 12.5953 147.415 12.5953C146.825 12.5953 146.257 12.5171 145.71 12.3582C145.163 12.1992 144.697 11.981 144.311 11.7008L144.971 10.5854C145.271 10.8224 145.634 11.0083 146.063 11.1431C146.491 11.2805 146.936 11.3478 147.391 11.3478C147.935 11.3478 148.361 11.2427 148.671 11.0326C148.981 10.8224 149.137 10.5369 149.137 10.1758C149.137 9.8148 148.989 9.5346 148.695 9.32984C148.401 9.12777 147.949 9.02539 147.342 9.02539H146.588V8.04199L148.466 5.95396H144.71V4.74963H150.341V5.71148L148.334 7.9423C149.096 8.03121 149.681 8.27369 150.082 8.67244H150.085Z" fill="white"/>
<path d="M156.91 8.00437C157.343 8.19836 157.68 8.47856 157.925 8.83959C158.171 9.20062 158.292 9.61553 158.292 10.087C158.292 10.5881 158.157 11.0273 157.89 11.4072C157.624 11.7871 157.26 12.0781 156.805 12.2855C156.347 12.4903 155.837 12.5954 155.269 12.5954C154.135 12.5954 153.256 12.264 152.631 11.6012C152.006 10.9384 151.694 9.98733 151.694 8.75068C151.694 7.88313 151.863 7.13953 152.2 6.52524C152.54 5.91095 153.014 5.44216 153.623 5.12154C154.232 4.80093 154.94 4.64197 155.743 4.64197C156.169 4.64197 156.567 4.68508 156.942 4.7686C157.316 4.85212 157.64 4.97605 157.915 5.13771L157.349 6.22079C156.939 5.97023 156.417 5.84629 155.778 5.84629C154.983 5.84629 154.361 6.0753 153.914 6.53063C153.464 6.98865 153.24 7.64604 153.24 8.5082V8.51897C153.485 8.25494 153.795 8.05287 154.172 7.91547C154.549 7.78075 154.975 7.7107 155.447 7.7107C155.991 7.7107 156.479 7.8077 156.91 8.00437ZM156.355 11.1081C156.654 10.8683 156.805 10.5504 156.805 10.1517C156.805 9.75293 156.654 9.42693 156.355 9.18984C156.056 8.95544 155.654 8.83689 155.15 8.83689C154.646 8.83689 154.25 8.96083 153.941 9.21139C153.631 9.46196 153.474 9.77988 153.474 10.1625C153.474 10.545 153.625 10.8495 153.93 11.0947C154.232 11.3425 154.652 11.4638 155.188 11.4638C155.668 11.4638 156.058 11.3452 156.357 11.1054L156.355 11.1081Z" fill="white"/>
<path d="M160.77 12.1238C160.25 11.8113 159.841 11.3532 159.542 10.7551C159.243 10.157 159.092 9.44303 159.092 8.61859C159.092 7.79415 159.24 7.08018 159.542 6.48206C159.841 5.88125 160.25 5.42592 160.77 5.11339C161.29 4.80086 161.88 4.64459 162.541 4.64459C163.201 4.64459 163.793 4.80086 164.316 5.11339C164.839 5.42592 165.251 5.88394 165.55 6.48206C165.849 7.08288 166 7.79415 166 8.61859C166 9.44303 165.849 10.157 165.55 10.7551C165.251 11.3559 164.839 11.8113 164.316 12.1238C163.793 12.4363 163.201 12.5926 162.541 12.5926C161.88 12.5926 161.288 12.4363 160.77 12.1238ZM163.942 10.6608C164.284 10.2055 164.456 9.52385 164.456 8.61859C164.456 7.71333 164.284 7.03169 163.942 6.57636C163.599 6.12103 163.133 5.89202 162.543 5.89202C161.953 5.89202 161.498 6.12103 161.156 6.57636C160.814 7.03438 160.641 7.71333 160.641 8.61859C160.641 9.52385 160.814 10.2055 161.156 10.6608C161.498 11.1188 161.961 11.3452 162.543 11.3452C163.125 11.3452 163.599 11.1161 163.942 10.6608Z" fill="white"/>
</g>
<defs>
<clipPath id="clip0_14921_74561">
<rect width="166" height="34.9766" fill="white"/>
</clipPath>
</defs>
</svg>
