<svg width="20" height="20" viewBox="0 0 20 20" fill="none" xmlns="http://www.w3.org/2000/svg">
<path d="M16.875 5.625H14.1344C14.1648 5.59922 14.1961 5.57422 14.2258 5.54688C14.4631 5.33608 14.6543 5.07859 14.7875 4.79051C14.9207 4.50243 14.9931 4.18997 15 3.87266C15.0103 3.52553 14.9495 3.17996 14.8213 2.85718C14.6932 2.53439 14.5005 2.2412 14.255 1.9956C14.0094 1.75 13.7163 1.55717 13.3936 1.42895C13.0708 1.30074 12.7253 1.23984 12.3781 1.25C12.0607 1.25684 11.7481 1.32913 11.4598 1.46235C11.1716 1.59557 10.914 1.78685 10.7031 2.02422C10.4113 2.36242 10.1741 2.7441 10 3.15547C9.82592 2.7441 9.58869 2.36242 9.29688 2.02422C9.08599 1.78685 8.82837 1.59557 8.54015 1.46235C8.25193 1.32913 7.93932 1.25684 7.62187 1.25C7.27474 1.23984 6.9292 1.30074 6.60645 1.42895C6.2837 1.55717 5.99057 1.75 5.74504 1.9956C5.49951 2.2412 5.30677 2.53439 5.17865 2.85718C5.05053 3.17996 4.98974 3.52553 5 3.87266C5.00694 4.18997 5.07929 4.50243 5.2125 4.79051C5.34572 5.07859 5.53695 5.33608 5.77422 5.54688C5.80391 5.57266 5.83516 5.59766 5.86563 5.625H3.125C2.79348 5.625 2.47554 5.7567 2.24112 5.99112C2.0067 6.22554 1.875 6.54348 1.875 6.875V9.375C1.875 9.70652 2.0067 10.0245 2.24112 10.2589C2.47554 10.4933 2.79348 10.625 3.125 10.625V15.625C3.125 15.9565 3.2567 16.2745 3.49112 16.5089C3.72554 16.7433 4.04348 16.875 4.375 16.875H15.625C15.9565 16.875 16.2745 16.7433 16.5089 16.5089C16.7433 16.2745 16.875 15.9565 16.875 15.625V10.625C17.2065 10.625 17.5245 10.4933 17.7589 10.2589C17.9933 10.0245 18.125 9.70652 18.125 9.375V6.875C18.125 6.54348 17.9933 6.22554 17.7589 5.99112C17.5245 5.7567 17.2065 5.625 16.875 5.625ZM11.6406 2.85234C11.7396 2.74306 11.8601 2.65542 11.9945 2.59492C12.129 2.53442 12.2745 2.50237 12.4219 2.50078H12.4602C12.6329 2.50186 12.8038 2.53742 12.9626 2.60537C13.1215 2.67332 13.2652 2.77229 13.3854 2.8965C13.5055 3.0207 13.5996 3.16763 13.6622 3.32868C13.7248 3.48972 13.7547 3.66165 13.75 3.83437C13.7484 3.9818 13.7164 4.12729 13.6559 4.26174C13.5954 4.39618 13.5077 4.51667 13.3984 4.61562C12.657 5.27187 11.4266 5.50313 10.6641 5.58437C10.7578 4.75703 11.0156 3.55469 11.6406 2.85234ZM6.63359 2.88047C6.87574 2.63835 7.20367 2.50162 7.54609 2.5H7.58438C7.7318 2.50159 7.87729 2.53364 8.01174 2.59414C8.14618 2.65464 8.26667 2.74228 8.36563 2.85156C9.02109 3.59219 9.25234 4.82031 9.33359 5.57969C8.57422 5.50156 7.34609 5.26719 6.60547 4.61172C6.49619 4.51276 6.40855 4.39228 6.34805 4.25783C6.28755 4.12339 6.2555 3.97789 6.25391 3.83047C6.24906 3.65487 6.27994 3.48012 6.34467 3.31681C6.4094 3.15351 6.50663 3.00506 6.63047 2.88047H6.63359ZM3.125 6.875H9.375V9.375H3.125V6.875ZM4.375 10.625H9.375V15.625H4.375V10.625ZM15.625 15.625H10.625V10.625H15.625V15.625ZM16.875 9.375H10.625V6.875H16.875V9.375Z" fill="#F15929"/>
</svg>
