<svg width="24" height="24" viewBox="0 0 24 24" fill="none" xmlns="http://www.w3.org/2000/svg">
<path d="M22.5 18H21.75V9.25031C21.75 9.00346 21.6891 8.76041 21.5726 8.54274C21.4562 8.32507 21.2878 8.13951 21.0825 8.0025L12.8325 2.50219C12.5861 2.33793 12.2966 2.25028 12.0005 2.25028C11.7043 2.25028 11.4148 2.33793 11.1684 2.50219L2.91844 8.0025C2.71292 8.1394 2.54437 8.32492 2.42777 8.5426C2.31116 8.76027 2.2501 9.00337 2.25 9.25031V18H1.5C1.30109 18 1.11032 18.079 0.96967 18.2197C0.829018 18.3603 0.75 18.5511 0.75 18.75C0.75 18.9489 0.829018 19.1397 0.96967 19.2803C1.11032 19.421 1.30109 19.5 1.5 19.5H22.5C22.6989 19.5 22.8897 19.421 23.0303 19.2803C23.171 19.1397 23.25 18.9489 23.25 18.75C23.25 18.5511 23.171 18.3603 23.0303 18.2197C22.8897 18.079 22.6989 18 22.5 18ZM3.75 9.25031L12 3.75L20.25 9.24938V18H18V12.75C18 12.5511 17.921 12.3603 17.7803 12.2197C17.6397 12.079 17.4489 12 17.25 12H6.75C6.55109 12 6.36032 12.079 6.21967 12.2197C6.07902 12.3603 6 12.5511 6 12.75V18H3.75V9.25031ZM16.5 13.5V15H12.75V13.5H16.5ZM11.25 15H7.5V13.5H11.25V15ZM7.5 16.5H11.25V18H7.5V16.5ZM12.75 16.5H16.5V18H12.75V16.5Z" fill="#212121"/>
</svg>
