<svg width="318" height="212" viewBox="0 0 318 212" fill="none" xmlns="http://www.w3.org/2000/svg">
<rect width="318" height="212" rx="20" fill="#FFF0D9"/>
<path d="M176.013 58.5523C173.644 58.9498 167.076 60.0956 171.482 56.3909C173.106 55.0267 173.496 52.4795 170.684 52.9046L166.354 53.5629C165.765 53.6901 165.158 53.7045 164.564 53.6053C163.313 53.3095 163.168 52.4032 163.875 51.4916C164.475 50.8895 165.152 50.3692 165.889 49.944C169.776 47.0205 163.043 46.8032 161.37 47.0481C155.34 47.929 149.552 50.4995 143.633 51.7057C143.185 51.7948 142.72 51.711 142.331 51.4712C141.943 51.2314 141.659 50.8533 141.538 50.413C141.417 49.9727 141.467 49.5028 141.678 49.0978C141.889 48.6928 142.245 48.3828 142.676 48.23L142.748 48.2056L152.889 44.7574C155.105 44.0027 157.447 43.1674 158.917 41.3464C156.956 39.5062 153.654 40.1549 151.224 39.9228C150.255 39.8306 148.582 39.7945 147.868 38.9879C146.437 37.3703 148.773 36.8053 150.269 36.0676C157.11 32.6893 164.718 31.5933 172.171 30.2959C171.711 29.7383 171.235 29.1945 170.742 28.6645C165.465 22.9747 158.541 19.0753 150.94 17.5109C143.338 15.9465 135.438 16.7953 128.342 19.9386C129.157 20.4844 129.808 21.2419 130.224 22.1296C130.395 22.47 130.463 22.8524 130.422 23.231C130.305 23.6933 130.037 24.1036 129.661 24.397C128.127 25.7887 126.071 26.411 124.164 27.2197C122.897 27.7582 120.916 28.8097 120.182 30.0139C118.592 32.6014 121.424 31.4375 121.984 33.4451C122.954 36.9209 114.438 38.7313 109.059 39.6101C105.737 47.4082 105.21 56.1143 107.568 64.2561C111.283 63.6594 114.988 62.9587 118.709 62.4329C122.387 61.7556 126.113 61.3759 129.852 61.2977C132.184 61.3496 133.743 62.4308 131.088 64.2233C130.226 64.8052 129.218 65.1593 128.406 65.808C127.974 66.0991 127.644 66.518 127.462 67.0062C127.28 67.4943 127.255 68.0271 127.391 68.5301C127.653 68.9846 128.046 69.3497 128.519 69.5777C128.991 69.8057 129.522 69.8861 130.041 69.8084C134.114 69.5964 138.03 68.105 142.134 68.0912C143.922 68.0912 146.245 68.2449 147.695 69.448C150.473 71.7525 145.519 73.0234 143.392 73.4665C139.229 74.3346 134.44 73.4368 130.894 76.3285C130.168 76.921 129.522 77.9619 130.046 78.7389C130.231 78.9479 130.455 79.118 130.706 79.2394C130.957 79.3608 131.23 79.431 131.509 79.4459C134.337 79.9141 137.228 79.8533 140.034 79.2668C140.502 79.1074 141.012 79.1274 141.465 79.323C144.115 80.9543 137.597 82.7733 137.132 83.2026C134.107 85.9989 142.814 86.5522 138.061 88.9266C135.206 90.2021 132.188 91.0747 129.093 91.5193C129.819 92.4044 130.524 93.3086 131.182 94.2467C134.716 99.3035 137.161 105.039 138.363 111.09L168.911 105.325C167.863 99.5347 167.98 93.5936 169.257 87.8496C169.303 87.6376 169.496 86.814 169.547 86.6094C170.011 84.7511 170.597 82.9254 171.301 81.1441C172.025 79.3147 172.87 77.5357 173.83 75.8186C175.174 73.6855 176.392 71.4763 177.48 69.2021C179.116 65.523 180.144 61.6026 180.523 57.594C179.033 57.9749 177.529 58.2946 176.013 58.5523ZM138.457 29.2772C137.911 29.4681 137.331 29.5404 136.756 29.4892C136.684 29.4755 136.616 29.4472 136.556 29.4061C136.496 29.3649 136.445 29.3118 136.406 29.25C136.367 29.1882 136.342 29.1191 136.331 29.047C136.32 28.9749 136.324 28.9013 136.343 28.8309C136.482 28.3105 137.047 27.9363 137.468 27.6586C138.322 27.1194 139.226 26.6626 140.167 26.2944C140.691 26.0824 140.918 26.9304 140.401 27.1424C139.481 27.5179 138.598 27.9793 137.765 28.5204C138.972 28.281 140.164 27.9666 141.333 27.5791C140.892 26.578 140.839 25.4489 141.184 24.4109C141.528 23.3728 142.246 22.4998 143.198 21.9611C144.323 21.3592 145.638 21.2187 146.865 21.5693C148.091 21.9199 149.133 22.734 149.77 23.8394C149.881 24.053 149.974 24.2757 150.047 24.5051C150.447 24.3387 150.844 24.1669 151.236 23.9846C151.826 23.7496 152.374 23.4226 152.861 23.0158C151.965 23.0204 151.073 23.1488 150.211 23.3974C150.102 23.4195 149.988 23.3993 149.893 23.3409C149.798 23.2825 149.729 23.1902 149.699 23.0826C149.669 22.975 149.681 22.8602 149.733 22.7612C149.785 22.6622 149.872 22.5865 149.977 22.5494C150.046 22.5314 150.116 22.5144 150.189 22.4985C151.078 22.2309 152.005 22.1113 152.932 22.1445C153.356 22.19 153.846 22.3893 153.845 22.8949C153.826 23.0765 153.769 23.2521 153.677 23.4102C153.586 23.5683 153.463 23.7055 153.315 23.8129C152.744 24.2363 152.12 24.5834 151.459 24.8453C151.051 25.029 150.639 25.2057 150.225 25.3753C150.236 25.4972 150.245 25.6191 150.244 25.7389C150.191 30.3605 144.055 31.2986 141.786 28.3486C141.612 28.4016 141.439 28.4631 141.265 28.5151C140.344 28.7917 139.404 29.0599 138.457 29.2772ZM145.008 59.1204C144.856 59.1397 144.704 59.1538 144.551 59.1628C144.531 59.5483 144.466 59.9301 144.357 60.3002C144.237 60.1093 144.13 59.9114 144.034 59.7077C143.966 59.5627 143.905 59.4149 143.85 59.2646C143.687 59.2858 142.922 59.3971 142.709 59.4321C142.847 59.268 142.995 59.112 143.151 58.9646C143.283 58.8385 143.414 58.7282 143.536 58.6286C143.383 58.2758 143.213 57.9309 143.026 57.5951C143.204 57.7011 143.393 57.8071 143.596 57.9131C143.75 57.993 143.899 58.0664 144.044 58.1336C144.154 57.9934 144.272 57.8603 144.398 57.735C144.545 57.5879 144.702 57.4515 144.869 57.3269L144.671 58.4632C144.799 58.5131 144.934 58.5692 145.073 58.6403C145.287 58.7462 145.494 58.8658 145.693 58.9985C145.466 59.0505 145.238 59.0912 145.008 59.1204ZM145.205 102.888C144.986 102.915 144.767 102.936 144.547 102.949C144.532 103.24 144.499 103.529 144.448 103.815C144.402 104.076 144.342 104.334 144.268 104.588C144.095 104.314 143.94 104.029 143.803 103.735C143.704 103.527 143.616 103.315 143.536 103.099C143.301 103.13 142.198 103.291 141.891 103.34C142.091 103.105 142.304 102.88 142.527 102.667C142.718 102.486 142.906 102.326 143.085 102.184C142.863 101.675 142.617 101.178 142.346 100.694C142.603 100.848 142.877 101.002 143.17 101.155C143.39 101.269 143.606 101.375 143.815 101.473C144.16 101.034 144.559 100.642 145.005 100.307L144.718 101.946C144.904 102.016 145.097 102.101 145.299 102.201C145.608 102.353 145.905 102.525 146.191 102.717C145.889 102.783 145.558 102.842 145.202 102.888H145.205ZM161.177 80.3226C160.834 80.366 160.503 80.3957 160.188 80.4148C160.146 81.2489 160.006 82.0751 159.769 82.8761C159.51 82.4638 159.277 82.0358 159.071 81.5946C158.924 81.2804 158.79 80.96 158.671 80.6342C158.318 80.6798 156.657 80.9215 156.201 80.9967C156.501 80.6423 156.819 80.3044 157.155 79.9844C157.442 79.7131 157.722 79.4724 157.991 79.2594C157.885 79.0018 157.761 78.7389 157.634 78.4729C157.389 77.9563 157.137 77.4726 156.88 77.0217C157.595 77.4484 158.331 77.8387 159.086 78.1909C159.324 77.8879 159.58 77.5995 159.852 77.327C160.171 77.0091 160.511 76.7144 160.872 76.4451C160.73 77.2655 160.587 78.0853 160.441 78.9043C160.719 79.0103 161.011 79.1407 161.313 79.2891C161.777 79.5168 162.225 79.7757 162.654 80.0639C162.204 80.1646 161.708 80.2558 161.174 80.3226H161.177Z" fill="#7D4AB4"/>
<path d="M150.229 25.3743C149.625 25.6245 149.017 25.8658 148.406 26.0983C146.227 26.9227 144.021 27.6729 141.791 28.3476C144.059 31.2976 150.195 30.3616 150.248 25.7379C150.248 25.6165 150.242 25.4951 150.229 25.3743ZM150.047 24.5051C149.974 24.2758 149.881 24.0531 149.77 23.8394C149.134 22.7338 148.092 21.9195 146.865 21.5689C145.638 21.2183 144.323 21.359 143.198 21.9611C142.247 22.4998 141.529 23.3728 141.184 24.4109C140.839 25.4489 140.892 26.578 141.333 27.5791L142.134 27.3268C145.42 26.3029 148.247 25.2588 150.047 24.5051Z" fill="#F55555"/>
<path d="M180.912 46.923C179.842 41.2437 177.492 35.8831 174.039 31.2488C168.93 24.3774 161.657 19.4248 153.392 17.1881C145.127 14.9514 136.349 15.5607 128.472 18.9178C123.29 21.1262 118.663 24.4569 114.924 28.6698C111.232 32.8315 108.484 37.7424 106.868 43.0657C104.652 50.4199 104.711 58.2721 107.036 65.5926C109.361 72.913 113.844 79.3598 119.897 84.0877C127.295 89.853 133.282 96.4388 136.518 107.252C136.954 108.709 137.314 110.188 137.596 111.683C138.055 116.687 139.288 121.59 141.25 126.216C141.664 127.248 142.236 128.208 142.946 129.063C144.223 130.258 145.867 130.984 147.61 131.124C149.757 131.375 151.927 131.339 154.064 131.018C154.371 130.979 154.674 130.928 154.979 130.883C155.413 131.773 156.071 132.534 156.889 133.091C157.707 133.648 158.657 133.981 159.643 134.058C160.651 134.119 161.655 133.895 162.541 133.411C163.427 132.927 164.159 132.203 164.652 131.322C165.19 130.407 165.451 129.354 165.402 128.293C165.7 128.187 165.997 128.089 166.292 127.983C166.898 127.77 167.496 127.534 168.084 127.275C168.873 126.891 169.518 126.264 169.925 125.486C170.424 124.526 170.749 123.485 170.886 122.412C171.535 118.22 170.798 112.425 170.222 108.244C170.098 107.344 169.969 106.446 169.835 105.547C168.804 100.045 168.836 94.3958 169.929 88.9054C169.971 88.6987 170.141 87.8719 170.192 87.6652C170.622 85.7837 171.177 83.9331 171.853 82.1256C172.556 80.2545 173.39 78.4352 174.349 76.6814C175.261 75.0077 176.327 73.4251 177.217 71.7376C177.243 71.6846 177.275 71.6316 177.302 71.5818C177.37 71.4514 177.432 71.3168 177.498 71.1853C177.598 70.9882 177.695 70.79 177.792 70.5907C181.35 63.2403 182.442 54.9384 180.907 46.9177L180.912 46.923ZM162.413 132.477C161.703 132.931 160.879 133.177 160.036 133.187C159.192 133.196 158.363 132.968 157.643 132.53C156.913 132.103 156.313 131.486 155.909 130.744C157.573 130.457 159.223 130.098 160.855 129.667C162.09 129.344 163.315 128.984 164.53 128.589C164.514 129.359 164.313 130.114 163.945 130.79C163.577 131.467 163.051 132.045 162.413 132.477ZM169.679 123.812C169.464 124.643 169.032 125.401 168.427 126.01C167.947 126.405 167.39 126.696 166.791 126.864C165.22 127.469 163.611 127.982 161.993 128.442C157.861 129.773 153.542 130.431 149.201 130.392C147.468 130.408 145.765 129.946 144.277 129.056C143.629 128.573 143.104 127.943 142.745 127.218C142.388 126.577 142.065 125.919 141.775 125.245C149.417 124.803 157.015 123.788 164.505 122.207C166.42 121.798 168.323 121.346 170.216 120.851C170.144 121.853 169.964 122.844 169.679 123.808V123.812ZM170.176 116.023C170.254 117.295 170.319 118.618 170.271 119.929C162.92 121.838 155.43 123.162 147.87 123.887C145.723 124.099 143.573 124.266 141.421 124.388C141.32 124.136 141.224 123.883 141.13 123.629C140.907 123.016 140.706 122.394 140.507 121.769C148.317 120.355 156.09 118.757 163.827 116.973C165.934 116.486 168.038 115.986 170.138 115.471C170.146 115.656 170.166 115.839 170.176 116.023ZM170.064 114.583C162.253 116.491 154.4 118.214 146.503 119.753C144.422 120.158 142.337 120.546 140.249 120.919C139.804 119.384 139.433 117.827 139.14 116.255C147.203 115.343 155.203 113.941 163.096 112.057C165.282 111.522 167.457 110.94 169.619 110.312C169.799 111.734 169.948 113.159 170.064 114.586V114.583ZM169.504 109.432C161.674 111.674 153.699 113.374 145.635 114.52C143.424 114.842 141.208 115.133 138.988 115.394C138.792 114.25 138.63 113.101 138.504 111.948C141.924 111.302 167.925 106.394 169.049 106.183C169.204 107.267 169.356 108.35 169.504 109.432ZM180.528 57.5887C180.149 61.5973 179.121 65.5177 177.485 69.1968C176.397 71.4709 175.179 73.6801 173.836 75.8133C172.875 77.5303 172.03 79.3094 171.306 81.1387C170.602 82.9201 170.016 84.7458 169.552 86.6041C169.501 86.8087 169.308 87.6355 169.263 87.8443C167.986 93.5883 167.868 99.5294 168.916 105.319L138.364 111.088C137.162 105.037 134.717 99.3013 131.183 94.2446C130.522 93.3094 129.825 92.3996 129.094 91.5172C127.831 89.9701 126.466 88.51 125.007 87.1468C122.7 85.0056 120.063 83.2757 117.776 81.1133C113.224 76.8054 109.834 71.4181 107.918 65.4507C107.793 65.0564 107.689 64.6568 107.576 64.2593C105.216 56.117 105.742 47.4096 109.063 39.6101C110.063 37.2282 111.305 34.955 112.768 32.8261C115.897 28.3041 119.983 24.5271 124.737 21.7639C125.904 21.0892 127.108 20.4791 128.341 19.9365C135.437 16.7943 143.337 15.9461 150.939 17.5104C158.54 19.0748 165.463 22.9735 170.741 28.6624C171.234 29.1924 171.71 29.7372 172.17 30.2937C175.277 34.0524 177.614 38.3856 179.048 43.0466C179.461 44.3972 179.799 45.7695 180.062 47.1573C180.701 50.596 180.856 54.107 180.524 57.5887H180.528Z" fill="black"/>
<path d="M172.867 67.3439C172.657 66.978 172.312 66.7085 171.907 66.5925C171.501 66.4765 171.066 66.5232 170.694 66.7227C170.474 66.8497 170.29 67.0312 170.16 67.2496C170.03 67.4681 169.959 67.7163 169.952 67.9704C169.952 69.8879 173.003 69.8455 173.026 67.9704C173.027 67.7515 172.972 67.5359 172.867 67.3439Z" fill="#F55555"/>
<path d="M197.285 81.1536C196.283 80.9662 195.318 80.6229 194.423 80.136C194.14 81.902 194.069 83.6955 194.211 85.4784C194.239 85.9417 194.346 86.3967 194.529 86.8235C194.728 87.168 195.053 87.4215 195.436 87.5305C197.91 88.4527 202.547 87.5581 204.022 86.3094C205.203 85.3088 205.173 84.6887 206.999 77.5252C205.85 78.941 204.344 80.024 202.636 80.662C200.928 81.2999 199.08 81.4697 197.285 81.1536Z" fill="#A76C6C"/>
<path d="M211.461 71.9411C211.357 71.5359 211.129 71.173 210.809 70.9031C210.49 70.6332 210.094 70.4695 209.677 70.4349C209.441 70.3968 209.201 70.389 208.963 70.4115C208.847 70.4099 208.736 70.3629 208.654 70.2805C208.572 70.1981 208.525 70.0869 208.524 69.9706C208.492 69.5122 208.43 69.0565 208.338 68.6064C207.983 66.8433 207.146 65.2133 205.92 63.898C204.693 62.5826 203.126 61.6336 201.392 61.1567C199.66 60.733 197.842 60.8157 196.156 61.395C194.469 61.9744 192.985 63.0259 191.878 64.4247C191.772 64.5519 191.681 64.6854 191.586 64.8179C190.577 66.2482 189.955 67.9147 189.779 69.6561C189.604 71.3974 189.88 73.1546 190.583 74.7575C191.295 76.3775 192.443 77.7673 193.9 78.7714C195.357 79.7754 197.065 80.354 198.832 80.4423C206.068 80.667 207.272 74.0632 208.273 74.3484C209.762 74.7713 211.852 73.7018 211.461 71.9411ZM159.611 88.9202C158.991 88.569 158.28 88.4114 157.569 88.4676C156.37 88.6853 155.225 89.1378 154.201 89.7989C153.294 90.3076 152.49 90.9801 151.829 91.7822C151.715 91.9273 151.617 92.0844 151.537 92.2507C151.509 92.3111 151.454 92.5051 151.455 92.4935C151.454 92.5129 151.454 92.5324 151.455 92.5518V92.5889C151.455 92.6238 151.462 92.5995 151.462 92.5995C151.541 92.6491 151.627 92.6849 151.718 92.7055C152.526 92.748 153.331 92.5746 154.05 92.203C154.517 92.0178 154.972 91.8055 155.414 91.567C155.515 91.5148 155.631 91.5031 155.74 91.5345C155.849 91.5658 155.941 91.6377 155.998 91.7353C156.056 91.8329 156.073 91.9488 156.047 92.0589C156.021 92.1691 155.954 92.265 155.86 92.327C155.459 92.5956 155.08 92.8966 154.729 93.227C154.172 93.6682 153.744 94.2501 153.488 94.9124C153.45 95.0409 153.442 95.1764 153.463 95.3087C153.485 95.441 153.536 95.5667 153.613 95.6764C153.69 95.786 153.791 95.8769 153.908 95.9421C154.026 96.0073 154.156 96.0452 154.29 96.0529C155.019 96.0289 155.721 95.7685 156.29 95.3109C156.642 95.0824 156.974 94.825 157.283 94.5414C157.634 94.217 158.288 94.6643 157.975 95.0714C157.633 95.5223 157.333 96.0046 157.082 96.5119C156.891 96.8684 156.754 97.2509 156.675 97.6472C156.634 97.8804 156.657 98.2927 156.753 98.3542C156.828 98.3922 156.914 98.4037 156.997 98.3871C157.135 98.3711 157.272 98.3395 157.403 98.2927C157.715 98.1851 158.015 98.0462 158.3 97.8783C158.705 97.651 159.095 97.3963 159.466 97.1161C159.55 97.0692 159.647 97.0506 159.742 97.063C159.838 97.0754 159.926 97.1182 159.996 97.185C160.167 97.3355 160.335 97.4935 160.505 97.6472C161.011 96.7617 161.599 95.9252 162.261 95.1488C162.898 94.391 163.608 93.6979 164.381 93.0796C164.155 92.8199 163.936 92.5592 163.7 92.3027C162.551 90.9393 161.166 89.7936 159.611 88.9202Z" fill="#A76C6C"/>
<path d="M181.661 98.0373C182.022 98.2274 182.387 98.415 182.756 98.6001C183.081 97.7162 183.428 96.8411 183.799 95.9756C185.129 92.7146 186.994 89.6987 189.317 87.0525C186.632 85.482 184.234 83.4636 182.229 81.0847C179.941 78.3445 178.238 75.1655 177.223 71.7429C176.334 73.4304 175.267 75.013 174.354 76.6868C173.396 78.4407 172.562 80.2599 171.859 82.1309C171.183 83.9383 170.628 85.789 170.198 87.6705C171.332 89.5104 172.673 91.215 174.193 92.7511C176.401 94.8808 178.919 96.6631 181.661 98.0373Z" fill="#F15929"/>
<path d="M213.359 93.8471C212.244 90.7522 210.412 87.9653 208.013 85.7148C207.437 85.2196 206.815 84.7816 206.154 84.4067C206.139 84.4587 206.127 84.5127 206.113 84.5626C205.904 85.3564 205.494 86.083 204.923 86.6723C204.352 87.2617 203.638 87.6938 202.851 87.927C201.277 88.5073 199.609 88.7947 197.932 88.775C196.628 88.8818 195.326 88.5522 194.23 87.838C193.414 87.1543 193.335 85.8356 193.287 84.8519V84.8032C188.601 87.8252 185.585 93.4761 183.649 98.6987C185.991 98.64 188.314 98.2733 190.56 97.608C196.02 95.9513 200.864 92.7111 204.48 88.298C204.841 87.8602 205.461 88.4856 205.102 88.9192C205.075 88.9541 205.045 88.9859 205.018 89.0199C202.91 91.5541 200.402 93.7256 197.591 95.4477C193.289 98.0774 188.364 99.5118 183.323 99.6029H182.389C176.283 99.4445 170.419 97.1809 165.791 93.1952C163.733 94.5758 162.068 96.468 160.962 98.686C160.892 98.8206 160.823 98.9574 160.757 99.0941C160.145 100.381 159.697 101.739 159.424 103.138C160.065 103.679 160.677 104.252 161.332 104.777C162.711 105.873 164.154 106.886 165.653 107.812C174.623 113.362 183.428 114.978 193.233 111.657C194.783 111.136 196.307 110.543 197.802 109.88C201.778 108.268 205.335 105.772 208.203 102.58C209.081 101.564 209.763 100.395 210.217 99.1312C210.229 99.0723 210.254 99.0169 210.291 98.9693C210.328 98.9217 210.375 98.8832 210.429 98.8567C210.506 98.8218 210.591 98.809 210.674 98.8194C210.758 98.8299 210.837 98.8633 210.903 98.916C210.969 98.9687 211.019 99.0386 211.047 99.1179C211.076 99.1972 211.082 99.2829 211.065 99.3655C211.057 99.3994 211.046 99.4333 211.037 99.4662C210.779 100.271 210.403 101.033 209.921 101.727C208.884 103.277 207.621 104.663 206.173 105.838C203.778 107.781 201.129 109.389 198.299 110.617C194.56 112.409 190.563 113.601 186.454 114.151C184.289 114.374 182.105 114.342 179.948 114.058C179.906 114.37 179.861 114.682 179.822 114.994C179.191 120.043 179.014 125.138 179.292 130.219C185.196 131.795 191.254 132.725 197.359 132.99C204.064 133.266 210.96 132.691 217.26 130.251C217.366 128.677 217.429 127.098 217.472 125.522C217.701 115.76 216.995 102.946 213.359 93.8471Z" fill="#F15929"/>
<path d="M218.913 185.019C218.861 184.138 216.051 133.372 216.021 132.655C215.998 132.091 215.117 132.088 215.141 132.655C215.192 133.868 215.252 135.082 215.312 136.296C215.261 136.253 215.2 136.225 215.134 136.215C215.069 136.204 215.002 136.213 214.941 136.239C213.601 136.735 212.142 136.809 210.759 136.451C210.19 136.368 209.655 136.126 209.217 135.753C208.779 135.379 208.456 134.89 208.285 134.34C208.185 133.784 207.331 134.022 207.437 134.574C207.626 135.233 207.991 135.829 208.492 136.296C208.993 136.764 209.612 137.087 210.282 137.231C211.886 137.708 213.602 137.657 215.175 137.086C215.238 137.063 215.296 137.027 215.344 136.98C215.45 139.1 216.524 158.891 216.563 159.573H216.539L212.627 160.872C212.516 160.905 212.421 160.98 212.364 161.081C212.307 161.182 212.29 161.301 212.318 161.414C212.351 161.526 212.426 161.62 212.527 161.678C212.628 161.735 212.748 161.751 212.861 161.721L216.12 160.639C215.579 162.178 214.818 163.63 213.862 164.952C213.804 165.053 213.788 165.172 213.817 165.285C213.847 165.397 213.919 165.494 214.02 165.553C214.121 165.61 214.24 165.625 214.353 165.595C214.465 165.566 214.561 165.494 214.622 165.395C215.458 164.241 216.15 162.989 216.682 161.667C218.208 188.499 218.702 188.013 217.044 190.428C216.521 191.179 215.835 191.802 215.037 192.251C214.239 192.699 213.35 192.961 212.437 193.017C211.523 193.073 210.609 192.922 209.762 192.575C208.915 192.227 208.158 191.693 207.547 191.011C205.725 188.997 204.347 180.825 202.678 171.279C201.923 166.966 198.037 141.611 198.025 141.525C197.954 141.021 197.169 141.162 197.16 141.641C197.133 143.387 196.842 161.821 196.819 163.159L193.495 163.458C193.379 163.462 193.269 163.509 193.187 163.591C193.105 163.673 193.057 163.783 193.054 163.899C193.055 164.016 193.102 164.127 193.184 164.21C193.267 164.292 193.378 164.338 193.495 164.339L196.486 164.07C195.868 165.042 195.148 165.944 194.339 166.763C194.263 166.847 194.222 166.957 194.225 167.07C194.228 167.183 194.274 167.29 194.354 167.37C194.434 167.45 194.541 167.496 194.654 167.5C194.767 167.503 194.877 167.462 194.961 167.387C195.63 166.708 196.24 165.975 196.787 165.195C196.743 167.937 196.427 188.115 196.42 188.295C196.39 188.893 196.192 189.469 195.851 189.961C195.509 190.452 195.037 190.838 194.488 191.075C193.585 191.351 192.633 191.431 191.696 191.311C189.015 191.241 187.069 191.211 186.061 190.365C183.188 187.949 182.477 174.571 182.295 170.818C182.034 165.479 181.986 160.129 182.034 154.785C182.076 150.107 182.193 145.43 182.383 140.756C182.48 138.265 182.751 133.06 182.757 132.946C182.791 132.381 181.909 132.382 181.876 132.946C181.846 133.426 181.444 142.214 181.379 144.168C181.302 146.574 181.132 156.689 181.141 159.341C181.15 162.076 181.191 164.811 181.281 167.545C181.366 170.147 181.493 172.748 181.697 175.345C181.877 177.671 182.116 179.995 182.474 182.302C182.898 185.068 183.786 190.112 186.049 191.425C187.208 192.097 189.843 192.15 191.907 192.196C195.736 192.281 197.207 190.581 197.3 188.319C197.322 187.807 197.316 187.292 197.325 186.78L197.689 163.789L197.697 163.777C197.732 163.71 197.75 163.635 197.75 163.56C197.75 163.484 197.732 163.409 197.697 163.342C197.697 163.216 197.94 147.921 197.954 147.116C198.387 150.064 200.643 164.593 201.378 168.903C203.61 181.997 204.586 197.586 214.694 193.396C218.502 191.829 219.129 188.652 218.913 185.019ZM121.988 33.4451C121.428 31.4375 118.596 32.5971 120.186 30.0139C120.921 28.814 122.902 27.7582 124.169 27.2197C126.077 26.411 128.132 25.7887 129.666 24.397C130.042 24.1032 130.309 23.6931 130.427 23.231C130.468 22.8524 130.4 22.47 130.229 22.1296C129.812 21.2419 129.162 20.4844 128.347 19.9386C122.054 22.7024 116.657 27.1684 112.765 32.8335C111.302 34.9624 110.06 37.2356 109.061 39.6175C114.443 38.7313 122.96 36.9219 121.988 33.4451ZM179.049 43.0466C177.615 38.3858 175.278 34.0526 172.172 30.2937C164.724 31.588 157.11 32.6872 150.269 36.0654C148.773 36.8074 146.437 37.3682 147.868 38.9857C148.583 39.7924 150.255 39.8284 151.224 39.9207C153.655 40.1528 156.957 39.5041 158.918 41.3442C157.444 43.1643 155.102 44.0006 152.889 44.7553L142.676 48.23C142.24 48.3788 141.877 48.6886 141.662 49.0961C141.447 49.5035 141.395 49.9779 141.518 50.4221C141.641 50.8663 141.928 51.2468 142.323 51.4858C142.717 51.7248 143.187 51.8042 143.638 51.7079C149.557 50.5016 155.344 47.9311 161.375 47.0502C163.047 46.8054 169.78 47.0227 165.893 49.9461C165.157 50.3713 164.48 50.8916 163.879 51.4937C163.172 52.4053 163.318 53.3116 164.568 53.6074C165.163 53.7066 165.77 53.6922 166.359 53.565L170.689 52.9067C173.496 52.4827 173.111 55.0267 171.487 56.3931C167.081 60.1031 173.648 58.9519 176.018 58.5544C177.534 58.3 179.039 57.9714 180.529 57.5909C180.861 54.1092 180.706 50.5982 180.068 47.1594C179.804 45.7708 179.464 44.3978 179.049 43.0466ZM147.694 69.448C146.244 68.246 143.922 68.0859 142.134 68.0912C138.029 68.1039 134.115 69.5901 130.04 69.8084C129.521 69.8858 128.991 69.8053 128.518 69.5773C128.046 69.3493 127.652 68.9844 127.39 68.5301C127.254 68.0271 127.279 67.4942 127.461 67.0061C127.643 66.5179 127.973 66.099 128.406 65.808C129.216 65.1582 130.226 64.8052 131.087 64.2233C133.743 62.4298 132.185 61.3496 129.851 61.2977C126.114 61.3765 122.39 61.7566 118.714 62.434C114.987 62.964 111.288 63.6604 107.572 64.2572C107.685 64.6547 107.784 65.0543 107.915 65.4486C109.83 71.4161 113.221 76.8034 117.773 81.1112C120.059 83.2736 122.696 85.0025 125.003 87.1447C126.463 88.5074 127.828 89.9675 129.09 91.5151C132.185 91.0706 135.203 90.198 138.058 88.9223C142.811 86.5511 134.104 85.9989 137.129 83.1983C137.595 82.769 144.117 80.9501 141.463 79.3187C141.009 79.1236 140.499 79.1036 140.032 79.2626C137.225 79.8486 134.335 79.9093 131.506 79.4417C131.228 79.4262 130.955 79.3557 130.704 79.2344C130.453 79.113 130.228 78.9432 130.043 78.7347C129.513 77.9577 130.162 76.9168 130.891 76.3242C134.437 73.4336 139.226 74.3314 143.39 73.4622C145.518 73.0234 150.474 71.7525 147.694 69.448Z" fill="url(#paint0_linear_21294_20912)"/>
<path d="M184.499 6.33349C184.327 6.05411 184.088 5.8208 183.806 5.65354C183.523 5.48629 183.204 5.39007 182.876 5.37313C181.849 5.25942 180.812 5.29513 179.796 5.47913C176.883 5.96535 174.013 6.6853 171.216 7.63199C165.961 9.27923 159.121 11.8497 154.628 13.7132C154.111 13.9252 154.337 14.7732 154.861 14.5612C156.019 14.08 157.185 13.6189 158.359 13.162C161.044 12.1105 163.745 11.1049 166.461 10.1453C169.512 9.07571 172.59 8.06235 175.719 7.24827C177.037 6.89338 178.371 6.6047 179.717 6.38331C180.672 6.20413 181.647 6.15068 182.616 6.22431C182.674 6.22704 182.733 6.23556 182.79 6.24975C182.878 6.26671 182.967 6.28473 183.054 6.30805C183.141 6.33137 183.194 6.34939 183.266 6.37271C183.399 6.41723 183.254 6.34833 183.397 6.43101C183.59 6.53701 183.513 6.46493 183.634 6.60061L183.663 6.63029L183.682 6.65891C183.743 6.74371 183.746 6.78823 183.73 6.74371C183.739 6.77021 183.756 6.84123 183.764 6.87197C183.771 6.90271 183.771 6.99599 183.771 7.02567C183.771 7.18149 183.783 7.03627 183.759 7.15499C183.742 7.2405 183.72 7.3253 183.695 7.40939C183.556 7.79842 183.364 8.16624 183.124 8.50225C180.383 12.5992 169.945 19.4839 165.353 22.5006C155.105 29.22 138.555 38.8903 134.694 41.0856C125.04 46.5764 113.542 52.806 103.611 57.558C98.9363 59.8843 94.1131 61.8988 89.1726 63.5883C87.9533 64.0764 86.6459 64.306 85.3333 64.2625C85.1365 64.2521 84.9494 64.1742 84.8033 64.042L84.7884 64.0166C84.7884 64.0028 84.763 63.9445 84.7757 63.9922C84.7786 64.0009 84.7829 64.0092 84.7884 64.0166C84.6878 63.2521 84.8046 62.4747 85.1255 61.7736C86.3063 58.5565 90.1478 55.2016 92.8434 53.1166C95.7068 50.9232 98.7172 48.9285 101.853 47.1467C102.368 46.8485 102.887 46.5587 103.412 46.2775C103.912 46.0114 103.468 45.2503 102.967 45.5164C100.953 46.587 99.003 47.789 97.094 49.0335C93.4544 51.27 90.1207 53.9698 87.1766 57.0651C85.9048 58.385 84.9052 59.9425 84.2351 61.6485C82.5084 66.5807 86.8554 65.4338 91.8406 63.6159C97.4118 61.449 102.871 59.0044 108.197 56.2913C117.829 51.5054 136.255 41.4831 151.543 32.2081C154.929 30.1545 158.292 28.0646 161.632 25.9382C166.738 22.6776 177.652 15.5629 181.924 11.2561C182.762 10.4512 183.496 9.54376 184.107 8.55525C184.345 8.24326 184.505 7.87868 184.574 7.4921C184.642 7.10551 184.616 6.7082 184.499 6.33349Z" fill="#B26EE6"/>
<path d="M99.2698 30.5725C98.7431 30.1857 98.1929 29.8317 97.6226 29.5125C97.8049 29.0779 97.983 28.6158 98.1526 28.1239C98.4155 27.3639 98.6211 26.6399 98.7886 25.9658C98.1191 26.3506 97.4763 26.7801 96.8647 27.2515C96.4661 27.5589 96.1026 27.8663 95.774 28.1663L92.7551 25.97C92.9843 27.1982 93.3746 28.3907 93.9158 29.5168C93.5116 29.8418 93.0847 30.1704 92.6353 30.5026C92.0396 30.9403 91.4555 31.34 90.8916 31.7035C91.6665 31.6622 92.4816 31.6431 93.3296 31.6558C93.7706 31.6608 94.2006 31.6739 94.6196 31.6951C94.7256 32.1964 94.8655 32.7328 95.0436 33.2967C95.2491 33.9597 95.4912 34.6109 95.7687 35.2471C95.9722 34.5814 96.7428 32.1996 96.9135 31.6951C97.3936 31.747 97.912 31.7841 98.4664 31.7947C99.194 31.8093 99.9218 31.7788 100.646 31.7035C100.208 31.3014 99.749 30.9238 99.2698 30.5725Z" fill="#FFD35C"/>
<path d="M102.481 78.7304C102.029 78.5078 101.592 78.3181 101.179 78.1548C101.391 76.9295 101.605 75.7041 101.82 74.4788C101.282 74.8815 100.773 75.3222 100.297 75.7974C99.8893 76.204 99.5067 76.6348 99.151 77.0874C98.6803 76.8705 98.197 76.633 97.7009 76.3751C97.0749 76.0491 96.4588 75.7044 95.8533 75.3416C96.2317 76.0179 96.6091 76.7408 96.9759 77.5104C97.1652 77.9089 97.3419 78.3008 97.5059 78.6859C97.1052 79.0039 96.6854 79.3643 96.2561 79.7703C95.7521 80.2479 95.2747 80.7529 94.8262 81.2829C95.5141 81.1705 97.9913 80.8101 98.5182 80.7412C98.6835 81.1939 98.8807 81.6751 99.1149 82.1765C99.4238 82.8361 99.7729 83.4761 100.16 84.093C100.512 82.8948 100.722 81.6596 100.787 80.4126C102.03 80.3362 103.266 80.1608 104.482 79.8879C103.841 79.4581 103.173 79.0714 102.481 78.7304Z" fill="#76D3DE"/>
<path d="M183.297 30.0266C182.995 29.8782 182.703 29.751 182.425 29.6418C182.567 28.8221 182.71 28.0024 182.855 27.1826C182.495 27.4528 182.155 27.7475 181.836 28.0645C181.563 28.3367 181.307 28.6252 181.07 28.9284C180.752 28.7822 180.434 28.6232 180.1 28.4514C179.661 28.2225 179.252 27.9903 178.864 27.7593C179.117 28.2119 179.369 28.6963 179.615 29.2104C179.741 29.4775 179.86 29.7397 179.971 29.9969C179.682 30.2266 179.403 30.4685 179.135 30.722C178.799 31.0419 178.481 31.3798 178.181 31.7343C178.641 31.659 180.301 31.4163 180.651 31.3717C180.757 31.6749 180.893 31.9971 181.05 32.3321C181.257 32.7729 181.49 33.2009 181.749 33.6136C181.861 33.2321 181.952 32.8446 182.022 32.4529C182.096 32.0227 182.145 31.5884 182.168 31.1523C183 31.0997 183.828 30.982 184.642 30.8004C184.211 30.5131 183.762 30.2546 183.297 30.0266ZM117.236 96.4663C116.613 94.4832 115.242 92.8206 113.414 91.8302C111.586 90.8399 109.445 90.5995 107.443 91.16C106.248 91.5364 105.169 92.2142 104.312 93.1281C103.454 94.0421 102.847 95.1614 102.547 96.3783C100.501 105.607 115.227 108.658 117.331 99.658C117.57 98.6032 117.537 97.5052 117.236 96.4663Z" fill="#FFD35C"/>
<path d="M119.452 98.4083C120.564 98.2232 121.651 97.908 122.689 97.4692C122.934 97.3707 123.157 97.2235 123.343 97.0366C123.53 96.8496 123.677 96.6268 123.775 96.3816C123.962 95.6947 123.296 95.3046 122.745 95.1297C121.326 94.7768 119.859 94.6502 118.399 94.7545L118.072 94.7619C117.507 94.781 117.504 95.6618 118.072 95.6428C119.185 95.5962 120.3 95.6342 121.408 95.7562C121.736 95.7931 122.061 95.8541 122.381 95.9385C122.904 96.0837 123.201 96.1675 122.439 96.6105C122.123 96.7743 121.791 96.9061 121.448 97.0038C120.9 97.1696 120.346 97.3138 119.787 97.4363C118.26 97.7818 116.713 98.0437 115.163 98.2843C112.738 98.6585 110.301 98.9616 107.859 99.2213C106.501 98.7535 105.148 98.2726 103.799 97.7787C102.264 97.2165 100.742 96.621 99.2336 95.9926C98.2357 95.5994 97.2657 95.1391 96.3302 94.6146C96.2942 94.5934 96.2613 94.569 96.2242 94.5478C96.3426 94.5255 96.4623 94.511 96.5825 94.5043C98.3454 94.4989 100.099 94.7598 101.784 95.2781C101.913 95.311 102.043 95.3439 102.172 95.3788C102.281 95.401 102.395 95.3808 102.49 95.3224C102.585 95.2639 102.655 95.1716 102.684 95.064C102.714 94.9565 102.702 94.8416 102.65 94.7426C102.599 94.6437 102.511 94.568 102.406 94.5308C100.881 94.0968 99.3203 93.8027 97.7422 93.6521C96.9097 93.4812 96.044 93.5962 95.2851 93.9786C95.21 94.0327 95.1485 94.1035 95.1055 94.1855C95.0625 94.2674 95.0392 94.3583 95.0373 94.4508C95.0355 94.5433 95.0552 94.635 95.0948 94.7187C95.1345 94.8023 95.1931 94.8755 95.266 94.9326C95.9487 95.4882 96.7222 95.9217 97.5524 96.2141C98.481 96.6381 99.4233 97.0229 100.371 97.4003C99.0472 97.6374 97.7458 97.9859 96.4808 98.4422C95.6486 98.6442 94.9066 99.1156 94.3703 99.7831C94.3243 99.8664 94.2986 99.9594 94.2953 100.055C94.292 100.15 94.3112 100.244 94.3514 100.331C94.3916 100.417 94.4516 100.492 94.5266 100.551C94.6015 100.61 94.6892 100.65 94.7826 100.668C95.6426 100.875 96.5309 100.938 97.4114 100.854C99.0014 100.835 100.583 100.737 102.166 100.622C104.025 100.484 105.884 100.317 107.741 100.118C109.6 100.754 111.467 101.357 113.344 101.926C115.012 102.433 116.69 102.915 118.386 103.318C119.5 103.631 120.645 103.822 121.801 103.889C122.329 103.928 122.853 103.772 123.274 103.451C123.804 102.964 123.486 102.31 123.062 101.886C122.477 101.356 121.821 100.911 121.113 100.562C120.5 100.227 119.873 99.9262 119.237 99.6358C119.131 99.5881 119.025 99.5404 118.919 99.4948C118.404 99.2743 117.955 100.032 118.475 100.255C119.54 100.699 120.568 101.227 121.549 101.836C121.828 102.006 122.093 102.199 122.339 102.414C122.846 102.873 122.727 102.86 122.127 102.996C122.089 102.996 122.051 103.003 122.013 103.004C121.639 103.011 121.266 102.985 120.897 102.927C120.325 102.839 119.756 102.73 119.192 102.602C117.656 102.259 116.138 101.836 114.634 101.392C113.021 100.915 111.415 100.411 109.818 99.8817C111.309 99.7077 112.798 99.5141 114.285 99.3008C116.009 99.0475 117.739 98.7708 119.452 98.4083ZM103.764 99.6135C102.118 99.7513 100.468 99.869 98.817 99.9315C97.7226 100.002 96.6247 99.9967 95.531 99.9156L95.461 99.9082C95.5914 99.8168 95.7274 99.7336 95.8681 99.6591C96.7046 99.2547 97.5834 98.9443 98.4884 98.7337C99.2739 98.5217 100.067 98.3468 100.865 98.1942C100.992 98.1695 101.119 98.1461 101.247 98.1242C101.318 98.1163 101.385 98.0862 101.438 98.0383C101.492 97.9905 101.529 97.9271 101.544 97.8571C101.697 97.9154 101.846 97.9769 101.998 98.0352C103.254 98.5154 104.519 98.9754 105.785 99.4259C105.109 99.4927 104.435 99.5563 103.762 99.6135H103.764Z" fill="#B26EE6"/>
<path d="M212.154 27.8229C211.933 26.8726 211.474 25.994 210.821 25.2693C209.531 23.9054 207.76 23.0968 205.885 23.0147C204.009 22.9326 202.175 23.5834 200.771 24.8294C199.949 25.6076 199.342 26.584 199.007 27.6648C198.672 28.7456 198.62 29.8944 198.857 31.0008C200.843 39.2995 214.002 35.9605 212.154 27.8229Z" fill="#76D3DE"/>
<path d="M197.411 23.956C198.415 24.6333 199.44 25.2792 200.485 25.8926C203.161 27.4847 205.893 28.9804 208.681 30.3796C209.884 30.9838 211.098 31.57 212.337 32.0968C213.136 32.4828 213.976 32.7755 214.842 32.9692C215.264 33.0718 215.71 33.014 216.092 32.807C216.587 32.4816 216.457 31.8911 216.163 31.4777C215.342 30.499 214.354 29.6736 213.244 29.0397C212.767 28.7313 212.325 29.4934 212.8 29.7998C213.518 30.2542 214.197 30.7661 214.832 31.3304C215.099 31.5501 215.331 31.8097 215.519 32.1C214.638 32.0654 213.776 31.8343 212.995 31.4237C211.9 30.9628 210.821 30.4653 209.759 29.9323C207.161 28.6461 204.606 27.2733 202.099 25.8163C200.337 24.8263 198.631 23.741 196.987 22.5653H197.008C198.406 22.8149 199.757 23.2749 201.017 23.9295C201.526 24.168 201.971 23.409 201.46 23.1695C200.353 22.6326 199.198 22.1987 198.011 21.8731C197.365 21.6181 196.651 21.5967 195.991 21.8127C195.921 21.8499 195.86 21.9017 195.812 21.9644C195.765 22.0272 195.731 22.0995 195.713 22.1764C195.696 22.2534 195.695 22.3332 195.711 22.4105C195.726 22.4878 195.759 22.5608 195.805 22.6246C196.248 23.1692 196.794 23.6216 197.411 23.956Z" fill="#B26EE6"/>
<path d="M216.403 35.5005C215.465 34.3526 214.337 33.3748 213.067 32.6098C212.597 32.2918 212.156 33.054 212.623 33.3709C213.463 33.9289 214.256 34.5546 214.994 35.2418C215.328 35.5232 215.606 35.8648 215.814 36.2488C215.635 36.2868 215.453 36.3039 215.27 36.2997C213.087 35.6186 210.981 34.7102 208.987 33.5893C205.953 32.0083 202.973 30.3255 200.053 28.5437C197.91 27.3607 195.874 25.9923 193.97 24.4542C194.895 24.5636 195.799 24.8112 196.65 25.1888C197.317 25.4453 197.972 25.7294 198.617 26.0368L198.935 26.1894C199.441 26.4396 199.889 25.6806 199.378 25.4294C198.092 24.7729 196.748 24.2367 195.363 23.8277C194.633 23.5205 193.818 23.4804 193.061 23.7143C192.988 23.754 192.925 23.809 192.875 23.8755C192.825 23.942 192.791 24.0185 192.773 24.0996C192.756 24.1808 192.756 24.2647 192.775 24.3456C192.793 24.4266 192.828 24.5027 192.878 24.5687C193.059 24.8256 193.279 25.0518 193.531 25.2386C193.914 25.5566 194.317 25.8576 194.723 26.147C195.889 26.9781 197.092 27.7487 198.305 28.5045C201.379 30.4188 204.519 32.224 207.727 33.92C209.129 34.662 210.544 35.3839 211.991 36.04C212.918 36.5089 213.894 36.8726 214.901 37.1244C215.374 37.2511 215.876 37.2013 216.315 36.9845C216.884 36.6304 216.724 35.9647 216.403 35.5005ZM104.128 17.826C101.607 19.861 99.224 22.0599 96.993 24.4086C96.6029 24.8188 97.2241 25.4432 97.6152 25.0308C99.8462 22.6822 102.23 20.4832 104.75 18.4482C105.191 18.0931 104.565 17.4741 104.128 17.826ZM112.572 14.4404C109.011 17.1139 105.604 19.9872 102.368 23.0465C101.956 23.4366 102.58 24.0588 102.99 23.6687C106.17 20.6584 109.517 17.831 113.017 15.2004C113.468 14.8644 113.03 14.098 112.572 14.4404ZM111.545 20.0764C109.887 21.4897 108.226 22.8995 106.563 24.3058C106.481 24.389 106.436 24.5006 106.436 24.6169C106.436 24.7332 106.481 24.8448 106.563 24.928C106.647 25.0081 106.758 25.0528 106.874 25.0528C106.99 25.0528 107.102 25.0081 107.186 24.928L112.168 20.6986C112.25 20.6157 112.296 20.504 112.296 20.3875C112.296 20.2711 112.25 20.1593 112.168 20.0764C112.084 19.9956 111.973 19.9504 111.856 19.9504C111.74 19.9504 111.628 19.9956 111.545 20.0764ZM213.858 43.8554C212.684 45.6722 211.444 47.4421 210.137 49.1649C210.08 49.2661 210.064 49.386 210.093 49.4988C210.123 49.6115 210.195 49.7082 210.295 49.7681C210.397 49.8241 210.516 49.8389 210.628 49.8095C210.741 49.7801 210.837 49.7087 210.898 49.6101C212.203 47.8866 213.443 46.1167 214.618 44.3006C214.926 43.8225 214.164 43.3816 213.858 43.8554ZM225.132 46.3156C225.072 46.2156 224.976 46.143 224.863 46.1135C224.75 46.0839 224.63 46.0998 224.529 46.1577C222.205 47.9533 219.88 49.7479 217.553 51.5414C217.455 51.6031 217.385 51.6995 217.355 51.8113C217.326 51.9231 217.34 52.0418 217.395 52.1435C217.455 52.2437 217.551 52.3165 217.664 52.346C217.777 52.3756 217.896 52.3596 217.997 52.3015L224.974 46.9188C225.072 46.8569 225.143 46.7603 225.172 46.6483C225.201 46.5364 225.187 46.4175 225.132 46.3156ZM223.252 57.0768L218.981 58.423C218.443 58.5936 218.674 59.4437 219.215 59.271L223.486 57.9237C224.024 57.7552 223.794 56.905 223.252 57.0768Z" fill="#B26EE6"/>
<path d="M168.303 201.331L157.742 201.64C157.625 201.64 157.513 201.686 157.431 201.768C157.348 201.851 157.302 201.963 157.302 202.079C157.302 202.196 157.348 202.308 157.431 202.391C157.513 202.473 157.625 202.519 157.742 202.519L168.303 202.212C168.417 202.206 168.523 202.158 168.601 202.076C168.679 201.994 168.723 201.885 168.723 201.772C168.723 201.658 168.679 201.549 168.601 201.467C168.523 201.385 168.417 201.337 168.303 201.331ZM174.019 205.285C172.121 204.743 170.129 204.622 168.179 204.93C168.067 204.962 167.972 205.036 167.915 205.138C167.857 205.239 167.842 205.359 167.872 205.471C167.905 205.583 167.98 205.676 168.081 205.734C168.181 205.791 168.3 205.807 168.413 205.779C170.208 205.506 172.041 205.627 173.785 206.134C173.895 206.158 174.011 206.14 174.108 206.081C174.205 206.023 174.275 205.93 174.305 205.821C174.335 205.712 174.323 205.595 174.269 205.496C174.216 205.396 174.126 205.32 174.019 205.285ZM199.995 205.576C197.222 205.656 194.45 205.736 191.679 205.819C191.114 205.836 191.112 206.717 191.679 206.699L199.995 206.457C200.559 206.44 200.562 205.561 199.995 205.576ZM233.718 201.066C230.871 201.187 228.022 201.208 225.171 201.129C225.055 201.129 224.943 201.175 224.86 201.258C224.778 201.34 224.732 201.452 224.732 201.569C224.732 201.685 224.778 201.797 224.86 201.88C224.943 201.962 225.055 202.008 225.171 202.008C228.02 202.088 230.869 202.067 233.718 201.946C234.282 201.923 234.285 201.042 233.718 201.066Z" fill="#76D3DE"/>
<path d="M179.085 113.931C178.499 118.219 178.234 122.544 178.29 126.871C178.306 128.102 178.352 129.332 178.428 130.56C178.431 130.625 178.448 130.689 178.478 130.747C178.502 130.805 178.54 130.857 178.587 130.898C178.634 130.939 178.691 130.969 178.752 130.985C189.67 134.204 206.329 135.549 217.795 130.985C217.885 130.956 217.963 130.899 218.02 130.823C218.077 130.747 218.109 130.656 218.113 130.561C218.887 120.755 218.296 105.624 214.943 95.6364C213.926 92.2759 212.245 89.1537 209.999 86.4547C208.968 85.2742 207.745 84.2768 206.38 83.5047C206.674 82.3652 208.065 76.8871 208.473 75.2907C210.544 75.5897 212.752 73.9668 212.304 71.709C212.189 71.2621 211.968 70.8499 211.658 70.5082C211.348 70.1664 210.96 69.9055 210.526 69.748C211.741 68.7077 212.63 67.3396 213.088 65.8072C213.546 64.2748 213.552 62.643 213.107 61.1069C211.388 54.3791 205.715 55.4825 205.687 55.4889C206.07 55.4136 205.765 53.3509 205.705 53.0106C205.527 51.9418 204.954 50.979 204.099 50.3129C201.351 48.2215 198.818 50.226 198.339 53.1696C197.158 51.763 195.255 51.1556 193.775 52.4923C193.136 53.0397 192.732 53.8125 192.649 54.6499C192.565 55.4872 192.807 56.3246 193.326 56.9877C193.326 56.9877 190.928 56.6125 190.103 60.508C190.005 61.1371 190.037 61.7796 190.197 62.396C190.356 63.0123 190.64 63.5895 191.032 64.0918C190.021 65.452 189.336 67.0261 189.03 68.6928C188.723 70.3595 188.804 72.0743 189.265 73.705C189.97 76.1356 191.508 78.2402 193.611 79.6495C193.398 81.0175 193.283 82.399 193.268 83.7835C192.478 84.2461 191.731 84.7782 191.035 85.3735C190.649 85.7021 190.281 86.0466 189.924 86.4027C185.155 83.6614 181.373 79.4838 179.119 74.4661C178.571 73.216 178.126 71.9226 177.791 70.5992C177.695 70.7985 177.367 71.4599 177.302 71.5903C177.275 71.6422 177.243 71.6963 177.217 71.7461C178.231 75.1687 179.935 78.3477 182.223 81.0879C184.228 83.467 186.625 85.4854 189.311 87.0557C186.988 89.7019 185.122 92.7177 183.793 95.9788C183.422 96.8443 183.075 97.7195 182.75 98.6033C182.382 98.4175 182.017 98.2298 181.655 98.0405C178.913 96.6663 176.395 94.8839 174.187 92.7542C172.667 91.2179 171.327 89.5134 170.192 87.6737C170.145 87.8857 169.971 88.7072 169.929 88.9139C171.016 90.5557 172.268 92.0829 173.664 93.4719C175.81 95.5304 178.243 97.2667 180.887 98.6266C178.7 98.4537 176.545 97.9962 174.476 97.2656C171.412 96.1632 168.584 94.4915 166.142 92.3387C166.072 92.2731 165.983 92.2312 165.888 92.219C165.793 92.2068 165.696 92.225 165.612 92.2709C165.44 92.3635 165.272 92.4625 165.108 92.5677C164.909 92.3355 164.714 92.0992 164.51 91.8744C163.241 90.3309 161.685 89.048 159.927 88.0966C159.186 87.7027 158.348 87.5287 157.511 87.5952C156.157 87.8179 154.863 88.3185 153.711 89.0654C152.701 89.6455 151.809 90.4111 151.083 91.3222C150.682 91.8596 150.285 92.7108 150.888 93.2609C151.252 93.4824 151.665 93.6103 152.091 93.6333C152.516 93.6562 152.941 93.5734 153.326 93.3924C153.015 93.7715 152.782 94.2085 152.64 94.6781C152.517 95.1015 152.558 95.5555 152.754 95.9501C152.95 96.3448 153.288 96.6512 153.7 96.8087C154.113 96.9204 154.546 96.9427 154.969 96.8742C155.392 96.8056 155.795 96.6478 156.152 96.4112C155.896 96.9179 155.764 97.4788 155.77 98.0468C155.762 98.2007 155.786 98.3546 155.838 98.4995C155.89 98.6444 155.971 98.7775 156.075 98.8911C156.179 99.0046 156.305 99.0964 156.445 99.1611C156.585 99.2258 156.736 99.2621 156.89 99.2679C157.54 99.2247 158.168 99.0132 158.711 98.6542C159.036 98.4711 159.351 98.2712 159.655 98.0553C159.798 98.1846 159.941 98.3139 160.079 98.4454C159.993 98.6182 159.901 98.7878 159.82 98.9627C159.44 99.7946 159.126 100.655 158.881 101.536C158.748 102.018 158.637 102.505 158.545 102.996C158.507 103.098 158.495 103.208 158.511 103.316C158.528 103.424 158.571 103.525 158.637 103.612C158.858 103.843 159.094 104.058 159.344 104.257C159.897 104.743 160.468 105.211 161.049 105.664C162.952 107.156 164.97 108.494 167.084 109.668C169.848 111.217 172.791 112.422 175.848 113.255C176.915 113.536 177.995 113.762 179.085 113.931ZM204.023 86.3094C202.539 87.5666 197.897 88.4464 195.437 87.5306C195.054 87.4215 194.729 87.168 194.53 86.8235C194.348 86.3966 194.24 85.9417 194.212 85.4784C194.07 83.6955 194.141 81.902 194.424 80.136C195.319 80.6227 196.284 80.9661 197.286 81.1536C199.081 81.4699 200.929 81.3002 202.637 80.6623C204.345 80.0243 205.852 78.9412 207.001 77.5252C205.261 84.3431 205.26 85.2611 204.023 86.3094ZM190.582 74.7554C189.879 73.1525 189.602 71.3953 189.778 69.6539C189.954 67.9125 190.576 66.246 191.585 64.8158C191.68 64.6833 191.775 64.5508 191.878 64.4226C192.984 63.0238 194.468 61.9723 196.155 61.3929C197.841 60.8136 199.659 60.7309 201.391 61.1546C203.125 61.6316 204.692 62.5807 205.919 63.896C207.145 65.2113 207.982 66.8412 208.337 68.6043C208.429 69.0544 208.491 69.5101 208.523 69.9685C208.524 70.085 208.57 70.1965 208.652 70.279C208.735 70.3615 208.846 70.4083 208.963 70.4094C209.2 70.388 209.44 70.3958 209.676 70.4328C210.092 70.4714 210.485 70.6366 210.804 70.9059C211.123 71.1752 211.352 71.5357 211.46 71.939C211.812 73.7082 209.764 74.7692 208.273 74.3463C207.277 74.0622 206.037 80.6639 198.831 80.4402C197.064 80.3524 195.356 79.7743 193.899 78.7706C192.443 77.7669 191.294 76.3773 190.582 74.7576V74.7554ZM160 97.184C159.931 97.1171 159.842 97.0743 159.747 97.0619C159.651 97.0495 159.554 97.0681 159.47 97.1151C159.099 97.3953 158.71 97.6499 158.304 97.8772C158.02 98.0452 157.72 98.184 157.407 98.2917C157.276 98.3383 157.14 98.37 157.001 98.386C156.919 98.4028 156.833 98.3912 156.758 98.3532C156.661 98.2917 156.639 97.8793 156.679 97.6461C156.759 97.25 156.896 96.8676 157.086 96.5109C157.338 96.0038 157.638 95.5215 157.98 95.0703C158.298 94.6591 157.637 94.2117 157.288 94.5403C156.978 94.8239 156.646 95.0813 156.294 95.3099C155.725 95.7667 155.024 96.027 154.294 96.0519C154.16 96.0449 154.029 96.0076 153.912 95.9427C153.794 95.8779 153.692 95.7873 153.615 95.6776C153.537 95.568 153.485 95.4421 153.463 95.3096C153.441 95.1771 153.45 95.0413 153.488 94.9124C153.746 94.2503 154.178 93.6698 154.737 93.2312C155.089 92.9011 155.468 92.6001 155.868 92.3313C155.963 92.2693 156.03 92.1733 156.056 92.0632C156.082 91.953 156.064 91.8372 156.007 91.7396C155.95 91.6419 155.857 91.57 155.749 91.5387C155.64 91.5074 155.523 91.5191 155.423 91.5713C154.981 91.8099 154.526 92.0223 154.059 92.2073C153.34 92.5796 152.535 92.7531 151.727 92.7097C151.472 92.662 151.373 92.6143 151.541 92.2507C151.622 92.0844 151.72 91.9273 151.834 91.7822C152.494 90.9796 153.298 90.307 154.205 89.799C155.228 89.1382 156.371 88.6857 157.569 88.4676C158.279 88.4109 158.99 88.5686 159.61 88.9202C161.168 89.7921 162.556 90.9375 163.708 92.3016C163.943 92.5581 164.163 92.8189 164.389 93.0786C163.616 93.6969 162.905 94.3899 162.269 95.1477C161.607 95.9242 161.019 96.7606 160.512 97.6461C160.339 97.4924 160.172 97.3345 160 97.184ZM165.651 107.806C164.152 106.881 162.709 105.868 161.329 104.771C160.672 104.247 160.057 103.673 159.421 103.133C159.696 101.734 160.146 100.375 160.759 99.0877C160.825 98.951 160.895 98.8153 160.964 98.6796C162.07 96.4612 163.734 94.5689 165.793 93.1888C170.421 97.1747 176.285 99.4384 182.391 99.5965H183.324C188.366 99.5059 193.291 98.0714 197.593 95.4413C200.403 93.7193 202.912 91.5478 205.019 89.0135C205.047 88.9796 205.077 88.9478 205.104 88.9128C205.463 88.4803 204.842 87.8528 204.482 88.2916C200.867 92.7084 196.022 95.952 190.561 97.6112C188.315 98.2763 185.991 98.643 183.65 98.7019C185.585 93.4772 188.602 87.8274 193.287 84.8064V84.8551C193.336 85.8377 193.414 87.1574 194.231 87.8411C195.327 88.5549 196.629 88.8845 197.932 88.7782C199.61 88.798 201.277 88.5106 202.852 87.9302C203.639 87.6969 204.352 87.2647 204.923 86.6754C205.495 86.0861 205.905 85.3595 206.113 84.5657L206.155 84.4099C206.815 84.7845 207.438 85.2226 208.014 85.718C210.413 87.9685 212.245 90.7554 213.36 93.8503C216.995 102.948 217.706 115.769 217.467 125.525C217.434 127.103 217.363 128.68 217.255 130.254C210.954 132.692 204.059 133.27 197.355 132.993C191.25 132.728 185.192 131.799 179.288 130.222C179.008 125.141 179.186 120.046 179.818 114.997C179.856 114.686 179.902 114.374 179.943 114.061C182.101 114.346 184.284 114.377 186.449 114.155C190.556 113.602 194.55 112.408 198.286 110.615C201.116 109.387 203.764 107.779 206.16 105.836C207.608 104.66 208.871 103.275 209.908 101.725C210.391 101.031 210.767 100.269 211.024 99.464C211.034 99.4312 211.044 99.3973 211.052 99.3633C211.069 99.2808 211.063 99.1951 211.034 99.1158C211.006 99.0364 210.956 98.9666 210.89 98.9139C210.824 98.8612 210.745 98.8278 210.661 98.8173C210.578 98.8068 210.493 98.8197 210.416 98.8545C210.362 98.881 210.315 98.9196 210.278 98.9672C210.241 99.0148 210.216 99.0701 210.204 99.1291C209.75 100.393 209.067 101.562 208.19 102.578C205.323 105.77 201.766 108.266 197.789 109.877C196.295 110.541 194.77 111.135 193.22 111.655C183.405 114.981 174.595 113.343 165.651 107.802V107.806ZM218.402 197.068C217.807 196.454 217.064 196.004 216.243 195.762C215.423 195.521 214.555 195.496 213.722 195.69C209.569 196.499 205.488 197.646 201.521 199.119C200.753 199.368 200.066 199.821 199.536 200.431C199.289 200.751 199.17 201.151 199.203 201.554C199.237 201.957 199.42 202.332 199.717 202.606C200.167 202.873 200.692 202.985 201.211 202.924L218.171 202.735C218.426 202.811 218.696 202.827 218.959 202.78C219.221 202.733 219.469 202.625 219.682 202.464C219.894 202.303 220.066 202.095 220.183 201.855C220.301 201.616 220.36 201.352 220.356 201.085C220.371 200.309 220.203 199.539 219.863 198.841C219.523 198.143 219.023 197.535 218.402 197.068ZM194.502 198.244C193.817 197.472 193.049 196.778 192.211 196.173C190.197 194.779 187.111 195.924 184.913 196.432C182.055 197.094 179.257 197.994 176.548 199.122C175.779 199.37 175.092 199.824 174.561 200.434C174.314 200.754 174.195 201.154 174.229 201.557C174.262 201.96 174.446 202.335 174.743 202.609C175.192 202.876 175.717 202.987 176.236 202.927L193.196 202.738C195.008 202.966 195.889 201.086 195.365 199.52C195.17 199.039 194.876 198.604 194.502 198.244Z" fill="black"/>
<path d="M193.996 71.0794C193.745 72.7542 193.771 75.5314 196.7 75.5314C199.598 75.5314 200.137 73.1919 200.193 71.744C200.204 71.4184 200.097 71.0997 199.891 70.8475C199.685 70.5953 199.394 70.4268 199.072 70.3734C198.012 70.1932 196.498 70.0374 195.456 69.9399C195.113 69.9081 194.771 70.0083 194.5 70.22C194.228 70.4318 194.048 70.7392 193.996 71.0794Z" fill="black"/>
<path d="M201.908 69.5551C201.908 69.7688 201.993 69.9737 202.144 70.1248C202.295 70.2758 202.5 70.3607 202.714 70.3607C202.927 70.3607 203.132 70.2758 203.283 70.1248C203.435 69.9737 203.519 69.7688 203.519 69.5551C203.519 69.3414 203.435 69.1365 203.283 68.9855C203.132 68.8344 202.927 68.7495 202.714 68.7495C202.5 68.7495 202.295 68.8344 202.144 68.9855C201.993 69.1365 201.908 69.3414 201.908 69.5551Z" fill="black"/>
<path d="M194.604 66.6337C194.604 66.4741 194.557 66.3181 194.468 66.1853C194.38 66.0525 194.254 65.9489 194.106 65.8877C193.959 65.8265 193.797 65.8104 193.64 65.8414C193.484 65.8724 193.34 65.9491 193.227 66.0619C193.114 66.1747 193.037 66.3184 193.006 66.4749C192.975 66.6314 192.991 66.7937 193.052 66.9411C193.113 67.0886 193.216 67.2146 193.349 67.3033C193.481 67.392 193.637 67.4393 193.797 67.4393C194.011 67.4393 194.216 67.3545 194.367 67.2034C194.518 67.0524 194.603 66.8475 194.604 66.6337ZM204.66 66.6072C205.039 67.2803 204.839 67.9789 205.392 67.9534C205.604 67.945 205.864 67.7584 205.832 67.5135C205.775 66.781 205.464 66.0913 204.952 65.5642C204.632 65.2614 204.237 65.0489 203.808 64.9483C203.7 64.9235 203.591 64.9075 203.481 64.9006C203.365 64.9017 203.253 64.9486 203.171 65.0311C203.089 65.1136 203.042 65.2251 203.041 65.3416C203.067 65.9076 204.126 65.6649 204.66 66.6072ZM193.264 64.2922C193.794 64.6007 193.762 63.8746 194.719 63.67C195.207 63.5984 195.705 63.6897 196.135 63.9297C196.237 63.9853 196.355 63.9999 196.467 63.9705C196.579 63.9411 196.675 63.87 196.736 63.7717C196.794 63.6705 196.81 63.5507 196.781 63.4379C196.751 63.3251 196.678 63.2284 196.578 63.1686C196.199 62.9514 195.776 62.8204 195.34 62.7848C194.905 62.7493 194.466 62.8101 194.057 62.9629C193.681 63.1174 193.352 63.3678 193.103 63.6891C193.045 63.7906 193.029 63.9108 193.059 64.0237C193.089 64.1366 193.163 64.2331 193.264 64.2922Z" fill="black"/>
<defs>
<linearGradient id="paint0_linear_21294_20912" x1="135.417" y1="194.091" x2="241.046" y2="58.9821" gradientUnits="userSpaceOnUse">
<stop stop-color="#53389E"/>
<stop offset="1" stop-color="#6941C6"/>
</linearGradient>
</defs>
</svg>
