<svg width="226" height="214" viewBox="0 0 226 214" fill="none" xmlns="http://www.w3.org/2000/svg">
<path d="M37.7562 227.669C30.7459 232.174 23.5974 233.075 16.5871 227.87C9.64579 222.697 9.02419 215.623 11.6833 206.947C2.60093 208.849 -5.58356 208.782 -10.9363 200.973C-15.5293 194.266 -14.4242 187.725 -9.90026 181.385C-9.34772 180.851 -8.76063 180.317 -8.20809 179.783C-4.96192 177.514 -1.19779 175.345 2.60091 176.079C9.50764 177.414 8.22992 174.311 8.60979 169.639C9.12779 163.132 8.40257 160.495 0.874229 161.53C-1.85393 161.897 -4.99648 159.561 -7.96638 158.426C-8.76065 157.659 -9.55494 156.891 -10.3492 156.124C-14.3551 149.65 -15.5638 143.076 -10.7291 136.536C-5.37637 129.294 2.22108 128.66 11.5452 131.063C9.19688 122.187 9.54222 114.411 17.5886 109.239C24.4953 104.834 31.2639 105.935 37.7907 110.307C38.3433 110.841 38.8958 111.408 39.4483 111.942C40.7951 115.079 43.6269 118.482 43.1435 121.352C41.7966 129.027 45.5953 127.659 51.1207 128.093C57.7512 128.627 58.3383 126.858 58.1311 121.386C58.0275 118.282 60.5484 115.112 61.8952 111.942C62.4823 111.375 63.0694 110.774 63.6565 110.207C70.5977 105.468 77.7807 104.667 84.7565 109.806C91.7323 114.912 92.5611 121.953 89.833 130.562C98.6736 129.094 106.962 128.727 112.383 136.602C116.976 143.31 115.94 149.85 111.555 156.224C110.898 156.858 110.208 157.525 109.552 158.159C106.236 159.394 102.783 161.964 99.675 161.63C92.941 160.896 93.0101 163.198 93.0792 168.738C93.1482 174.077 92.8374 176.646 99.675 175.946C102.783 175.612 106.236 178.181 109.552 179.45C110.242 180.117 110.933 180.751 111.589 181.418C116.251 188.159 117.149 195.067 111.831 201.774C106.547 208.415 99.3642 209.483 90.3855 206.646C92.2158 215.589 91.905 223.765 83.3406 228.904C76.7792 232.842 70.2524 231.774 64.0018 227.903C63.173 227.069 62.3096 226.268 61.4808 225.434C58.1656 220.695 57.3368 215.423 58.2346 209.916C48.8415 208.882 41.0024 209.149 41.9693 221.196C42.0729 222.631 40.4153 224.232 39.5865 225.734C38.9994 226.435 38.3778 227.069 37.7562 227.669ZM82.8227 199.939C77.4354 196.769 88.7624 186.824 76.7102 186.791C70.5632 186.758 69.1473 188.793 69.1818 194.299C69.2854 205.779 79.4038 194.867 82.8227 199.939ZM18.9354 200.039C22.2506 195.668 34.2683 206.012 32.1963 191.83C30.5387 180.551 23.1139 189.427 19.0044 186.524C20.6966 191.229 18.9008 195.167 18.9354 200.039ZM83.237 138.137C68.9746 139.572 69.32 139.606 68.9401 142.809C67.5588 153.921 76.2267 150.117 82.9608 151.852C80.9233 146.747 82.4773 142.542 83.237 138.137ZM18.7972 137.537C19.5915 142.542 20.075 146.847 19.3152 151.686C23.2521 148.282 31.1257 156.691 32.438 145.512C34.0956 131.697 22.0088 142.676 18.7972 137.537ZM45.25 168.07C45.4917 171.007 43.178 175.212 49.4286 174.044C52.5711 173.443 56.6461 175.612 56.1281 169.272C55.7828 164.967 55.541 163.298 50.4301 163.599C46.5968 163.866 43.8341 163.499 45.25 168.07Z" fill="url(#paint0_linear_99_17045)" fill-opacity="0.2"/>
<path d="M39.449 112.008C38.8965 111.474 38.344 110.906 37.7914 110.373C37.7224 109.672 37.7914 108.938 37.5152 108.304C33.8891 100.595 33.751 93.287 41.1757 87.6475C47.2191 83.0424 54.0223 83.0424 60.1002 87.5808C67.5595 93.187 67.4559 100.495 63.9335 108.237C63.6572 108.838 63.7262 109.605 63.6226 110.272C63.0355 110.84 62.4485 111.44 61.8614 112.008C54.4367 114.978 46.9429 114.911 39.449 112.008Z" fill="url(#paint1_linear_99_17045)" fill-opacity="0.2"/>
<path d="M111.622 181.553C110.931 180.885 110.24 180.251 109.584 179.584C106.442 172.509 106.476 165.402 109.584 158.327C110.24 157.693 110.931 157.026 111.587 156.392C113.97 155.691 116.318 154.79 118.736 154.323C125.677 153.055 131.651 154.69 135.623 160.63C139.249 166.069 139.249 171.809 135.657 177.248C131.686 183.221 125.711 184.856 118.805 183.588C116.353 183.154 114.005 182.22 111.622 181.553Z" fill="url(#paint2_linear_99_17045)" fill-opacity="0.2"/>
<path d="M137.593 214.992C137.766 222.834 130.479 229.908 122.329 229.742C114.628 229.608 107.756 222.967 107.584 215.526C107.411 207.651 114.697 200.609 122.813 200.776C130.583 200.91 137.455 207.517 137.593 214.992Z" fill="url(#paint3_linear_99_17045)" fill-opacity="0.2"/>
<path d="M121.777 137.069C113.627 136.568 106.893 129.027 107.722 121.318C108.516 113.843 115.837 107.736 123.434 108.204C131.55 108.704 138.318 116.246 137.49 123.954C136.695 131.429 129.374 137.536 121.777 137.069Z" fill="url(#paint4_linear_99_17045)" fill-opacity="0.2"/>
<path d="M113.593 99.5657C113.558 107.408 106.099 114.315 98.0528 113.948C90.3518 113.614 83.6868 106.874 83.7213 99.4322C83.7559 91.5902 91.2151 84.6826 99.2615 85.0496C106.962 85.3833 113.627 92.1241 113.593 99.5657Z" fill="url(#paint5_linear_99_17045)" fill-opacity="0.2"/>
<path d="M2.8758 85.1144C10.9221 85.1478 18.0361 92.3224 17.6562 100.064C17.3109 107.472 10.3351 113.879 2.73769 113.846C-5.30865 113.813 -12.4226 106.638 -12.0773 98.8963C-11.6974 91.5215 -4.75614 85.081 2.8758 85.1144Z" fill="url(#paint6_linear_99_17045)" fill-opacity="0.2"/>
<path d="M146.536 205.581C138.11 204.847 133.172 200.609 132.757 192.333C132.377 184.458 138.973 178.184 147.123 178.785C155.619 179.385 160.453 184.191 160.315 192.4C160.177 200.675 154.962 204.88 146.536 205.581Z" fill="url(#paint7_linear_99_17045)" fill-opacity="0.2"/>
<path d="M146.332 159.26C137.871 158.392 133.036 154.054 132.76 145.778C132.518 137.903 139.253 131.729 147.403 132.463C155.898 133.231 160.629 138.136 160.318 146.345C160.007 154.588 154.689 158.692 146.332 159.26Z" fill="url(#paint8_linear_99_17045)" fill-opacity="0.2"/>
<path d="M40.6224 76.0042C39.7246 84.7138 35.2352 89.5858 26.5672 89.4523C17.9338 89.3189 13.03 84.4468 13.1681 76.1376C13.2717 67.7951 18.3482 63.1233 26.9471 63.1567C35.6841 63.2234 39.8282 68.4292 40.6224 76.0042Z" fill="url(#paint9_linear_99_17045)" fill-opacity="0.2"/>
<path d="M88.5567 76.4738C87.7624 84.6161 83.3421 89.2879 74.7778 89.5883C66.6278 89.8552 60.3082 83.5149 60.9643 75.6396C61.655 67.4305 66.6623 62.8922 75.1231 63.1258C83.6874 63.3594 87.9351 68.3983 88.5567 76.4738Z" fill="url(#paint10_linear_99_17045)" fill-opacity="0.2"/>
<path d="M171.437 156.759C178.137 157.794 182.695 161.698 183.11 168.973C183.49 175.547 176.41 181.987 169.745 181.086C162.389 180.118 158.073 175.713 158.004 168.405C157.9 162.198 164.427 156.592 171.437 156.759Z" fill="url(#paint11_linear_99_17045)" fill-opacity="0.2"/>
<path d="M50.5316 41.002C57.8873 41.8362 62.9292 45.6738 63.0328 52.9485C63.1709 60.2232 58.4053 64.9283 50.9115 65.0952C43.3831 65.262 38.5139 60.657 38.3412 53.4156C38.2031 46.1076 43.1069 42.1365 50.5316 41.002Z" fill="url(#paint12_linear_99_17045)" fill-opacity="0.2"/>
<path d="M122.398 64.0977C129.822 64.9319 134.864 68.7695 135.003 76.1109C135.141 83.419 130.375 88.1908 122.847 88.3577C115.284 88.5246 110.38 83.8861 110.173 76.6115C110 69.2367 114.938 65.2656 122.398 64.0977Z" fill="url(#paint13_linear_99_17045)" fill-opacity="0.2"/>
<path d="M146.742 111.743C139.352 110.876 134.276 107.038 134.138 99.7299C134 92.4219 138.8 87.6833 146.293 87.5164C153.856 87.3496 158.76 91.9881 158.933 99.2628C159.175 106.604 154.236 110.575 146.742 111.743Z" fill="url(#paint14_linear_99_17045)" fill-opacity="0.2"/>
<path d="M170.851 226.504C163.184 225.836 158.971 222.166 159.109 215.091C159.213 208.05 163.46 204.112 170.713 204.213C177.999 204.313 182.04 208.417 182.005 215.425C181.971 222.566 177.447 225.87 170.851 226.504Z" fill="url(#paint15_linear_99_17045)" fill-opacity="0.2"/>
<path d="M98.639 42.1003C105.891 42.6343 110.104 46.305 109.966 53.4462C109.793 60.5874 105.442 64.3582 98.121 64.1246C91.3179 63.9244 87.4501 60.0535 87.312 53.4796C87.2084 46.305 91.3524 42.6343 98.639 42.1003Z" fill="url(#paint16_linear_99_17045)" fill-opacity="0.2"/>
<path d="M14.2027 53.6137C13.3739 60.6214 9.36797 64.4257 2.08137 64.0252C-5.30884 63.6248 -8.93488 59.1532 -8.45141 52.2122C-8.00247 45.6716 -3.78937 42.1677 2.97923 42.2678C10.404 42.4347 13.8573 46.6393 14.2027 53.6137Z" fill="url(#paint17_linear_99_17045)" fill-opacity="0.2"/>
<path d="M194.434 202.147C187.872 200.912 183.832 197.441 184.384 191.334C184.937 185.395 189.15 181.724 195.539 182.325C201.237 182.892 204.863 186.696 204.656 192.302C204.448 198.476 200.097 201.446 194.434 202.147Z" fill="url(#paint18_linear_99_17045)" fill-opacity="0.2"/>
<path d="M74.3609 20.245C79.9554 20.6121 84.0304 23.3818 84.5829 29.0214C85.17 35.1948 81.4749 39.2994 75.1897 39.6331C68.8701 39.9668 64.7951 36.1626 64.726 30.0225C64.657 24.3496 68.4211 21.146 74.3609 20.245Z" fill="url(#paint19_linear_99_17045)" fill-opacity="0.2"/>
<path d="M204.866 145.447C204.279 151.354 201.033 155.459 194.714 155.559C188.428 155.659 184.423 151.788 184.353 145.714C184.284 140.108 188.083 136.371 193.747 136.004C200.101 135.603 203.658 139.407 204.866 145.447Z" fill="url(#paint20_linear_99_17045)" fill-opacity="0.2"/>
<path d="M36.894 29.8582C36.4451 35.3309 33.4406 39.2019 27.6389 39.6357C21.2847 40.1029 17.0717 36.4655 16.8299 30.3588C16.5882 24.2187 20.5941 20.3812 26.9828 20.4145C32.7845 20.4145 36.0652 24.1186 36.894 29.8582Z" fill="url(#paint21_linear_99_17045)" fill-opacity="0.2"/>
<path d="M169.711 67.4283C176.134 67.7287 179.656 70.5651 179.587 76.505C179.553 81.8442 176.41 84.9811 170.885 85.0812C164.841 85.2147 161.457 82.0444 161.457 76.1713C161.457 70.7653 164.841 68.0957 169.711 67.4283Z" fill="url(#paint22_linear_99_17045)" fill-opacity="0.2"/>
<path d="M131.172 29.7216C130.723 34.4935 128.133 37.8305 123.195 38.0641C117.704 38.3311 114.216 35.0942 114.285 29.7883C114.354 25.0164 117.635 21.9797 122.608 21.9463C127.615 21.9129 130.309 25.0498 131.172 29.7216Z" fill="url(#paint23_linear_99_17045)" fill-opacity="0.2"/>
<path d="M226 168.774C225.517 173.479 222.996 176.182 218.368 176.149C213.741 176.115 210.978 173.346 211.013 168.907C211.047 164.436 213.913 161.766 218.506 161.8C223.203 161.8 225.551 164.636 226 168.774Z" fill="url(#paint24_linear_99_17045)" fill-opacity="0.2"/>
<path d="M9.23411 6.92832C8.7161 10.4989 6.74773 12.935 3.01809 12.935C-1.26408 12.9684 -3.78508 10.3988 -3.43974 6.29428C-3.16347 2.79042 -0.642502 0.588009 3.1562 0.788229C6.88584 0.98845 8.8197 3.35772 9.23411 6.92832Z" fill="url(#paint25_linear_99_17045)" fill-opacity="0.2"/>
<path d="M57.9247 6.8951C57.3377 11.9006 54.4368 14.1364 49.8093 13.7026C45.5962 13.3022 43.3861 10.5658 43.6278 6.49467C43.9386 1.78949 47.0121 -0.379546 51.6396 0.0542656C55.8873 0.421337 57.7866 3.22439 57.9247 6.8951Z" fill="url(#paint26_linear_99_17045)" fill-opacity="0.2"/>
<path d="M105.235 6.62863C104.475 11.0669 102.093 13.4362 97.8794 13.0023C94.2879 12.6353 92.0087 10.266 92.2504 6.62863C92.5267 2.55748 95.2203 0.321685 99.3989 0.688756C103.094 1.05583 104.752 3.65869 105.235 6.62863Z" fill="url(#paint27_linear_99_17045)" fill-opacity="0.2"/>
<path d="M225.102 121.988C224.791 126.526 222.684 128.929 218.368 128.962C214.638 128.962 212.255 126.927 211.944 123.356C211.599 119.318 213.671 116.682 217.988 116.382C222.373 116.048 224.445 118.551 225.102 121.988Z" fill="url(#paint28_linear_99_17045)" fill-opacity="0.2"/>
<path d="M225.067 215.124C224.791 219.162 222.684 221.564 218.368 221.564C214.638 221.564 212.255 219.529 211.944 215.958C211.599 211.92 213.671 209.251 217.988 208.984C222.27 208.717 224.584 210.986 225.067 215.124Z" fill="url(#paint29_linear_99_17045)" fill-opacity="0.2"/>
<defs>
<linearGradient id="paint0_linear_99_17045" x1="-23.123" y1="231.423" x2="103.476" y2="122.295" gradientUnits="userSpaceOnUse">
<stop stop-color="white"/>
<stop offset="1" stop-color="white" stop-opacity="0"/>
</linearGradient>
<linearGradient id="paint1_linear_99_17045" x1="32.8681" y1="114.21" x2="63.2623" y2="87.9038" gradientUnits="userSpaceOnUse">
<stop stop-color="white"/>
<stop offset="1" stop-color="white" stop-opacity="0"/>
</linearGradient>
<linearGradient id="paint2_linear_99_17045" x1="105.018" y1="183.99" x2="135.443" y2="157.743" gradientUnits="userSpaceOnUse">
<stop stop-color="white"/>
<stop offset="1" stop-color="white" stop-opacity="0"/>
</linearGradient>
<linearGradient id="paint3_linear_99_17045" x1="105.437" y1="229.744" x2="134.757" y2="204.413" gradientUnits="userSpaceOnUse">
<stop stop-color="white"/>
<stop offset="1" stop-color="white" stop-opacity="0"/>
</linearGradient>
<linearGradient id="paint4_linear_99_17045" x1="105.516" y1="137.094" x2="134.772" y2="111.861" gradientUnits="userSpaceOnUse">
<stop stop-color="white"/>
<stop offset="1" stop-color="white" stop-opacity="0"/>
</linearGradient>
<linearGradient id="paint5_linear_99_17045" x1="81.5875" y1="113.962" x2="110.848" y2="88.7638" gradientUnits="userSpaceOnUse">
<stop stop-color="white"/>
<stop offset="1" stop-color="white" stop-opacity="0"/>
</linearGradient>
<linearGradient id="paint6_linear_99_17045" x1="-14.2151" y1="113.846" x2="14.8619" y2="88.7311" gradientUnits="userSpaceOnUse">
<stop stop-color="white"/>
<stop offset="1" stop-color="white" stop-opacity="0"/>
</linearGradient>
<linearGradient id="paint7_linear_99_17045" x1="130.772" y1="205.581" x2="157.898" y2="182.336" gradientUnits="userSpaceOnUse">
<stop stop-color="white"/>
<stop offset="1" stop-color="white" stop-opacity="0"/>
</linearGradient>
<linearGradient id="paint8_linear_99_17045" x1="130.784" y1="159.26" x2="157.927" y2="136.015" gradientUnits="userSpaceOnUse">
<stop stop-color="white"/>
<stop offset="1" stop-color="white" stop-opacity="0"/>
</linearGradient>
<linearGradient id="paint9_linear_99_17045" x1="11.2041" y1="89.455" x2="37.8483" y2="66.2573" gradientUnits="userSpaceOnUse">
<stop stop-color="white"/>
<stop offset="1" stop-color="white" stop-opacity="0"/>
</linearGradient>
<linearGradient id="paint10_linear_99_17045" x1="58.9433" y1="89.5964" x2="85.7697" y2="66.2456" gradientUnits="userSpaceOnUse">
<stop stop-color="white"/>
<stop offset="1" stop-color="white" stop-opacity="0"/>
</linearGradient>
<linearGradient id="paint11_linear_99_17045" x1="156.208" y1="181.171" x2="180.892" y2="159.991" gradientUnits="userSpaceOnUse">
<stop stop-color="white"/>
<stop offset="1" stop-color="white" stop-opacity="0"/>
</linearGradient>
<linearGradient id="paint12_linear_99_17045" x1="36.5743" y1="65.0996" x2="60.9224" y2="44.2902" gradientUnits="userSpaceOnUse">
<stop stop-color="white"/>
<stop offset="1" stop-color="white" stop-opacity="0"/>
</linearGradient>
<linearGradient id="paint13_linear_99_17045" x1="108.394" y1="88.3621" x2="132.906" y2="67.4391" gradientUnits="userSpaceOnUse">
<stop stop-color="white"/>
<stop offset="1" stop-color="white" stop-opacity="0"/>
</linearGradient>
<linearGradient id="paint14_linear_99_17045" x1="132.363" y1="111.743" x2="156.842" y2="90.8454" gradientUnits="userSpaceOnUse">
<stop stop-color="white"/>
<stop offset="1" stop-color="white" stop-opacity="0"/>
</linearGradient>
<linearGradient id="paint15_linear_99_17045" x1="157.47" y1="226.504" x2="180.003" y2="207.203" gradientUnits="userSpaceOnUse">
<stop stop-color="white"/>
<stop offset="1" stop-color="white" stop-opacity="0"/>
</linearGradient>
<linearGradient id="paint16_linear_99_17045" x1="85.6915" y1="64.1349" x2="107.967" y2="45.0327" gradientUnits="userSpaceOnUse">
<stop stop-color="white"/>
<stop offset="1" stop-color="white" stop-opacity="0"/>
</linearGradient>
<linearGradient id="paint17_linear_99_17045" x1="-10.1153" y1="64.0539" x2="11.9524" y2="44.8841" gradientUnits="userSpaceOnUse">
<stop stop-color="white"/>
<stop offset="1" stop-color="white" stop-opacity="0"/>
</linearGradient>
<linearGradient id="paint18_linear_99_17045" x1="182.882" y1="202.147" x2="202.967" y2="185.024" gradientUnits="userSpaceOnUse">
<stop stop-color="white"/>
<stop offset="1" stop-color="white" stop-opacity="0"/>
</linearGradient>
<linearGradient id="paint19_linear_99_17045" x1="63.3023" y1="39.6534" x2="82.9167" y2="22.8668" gradientUnits="userSpaceOnUse">
<stop stop-color="white"/>
<stop offset="1" stop-color="white" stop-opacity="0"/>
</linearGradient>
<linearGradient id="paint20_linear_99_17045" x1="182.887" y1="155.561" x2="202.739" y2="138.221" gradientUnits="userSpaceOnUse">
<stop stop-color="white"/>
<stop offset="1" stop-color="white" stop-opacity="0"/>
</linearGradient>
<linearGradient id="paint21_linear_99_17045" x1="15.3857" y1="39.6759" x2="34.8957" y2="22.7198" gradientUnits="userSpaceOnUse">
<stop stop-color="white"/>
<stop offset="1" stop-color="white" stop-opacity="0"/>
</linearGradient>
<linearGradient id="paint22_linear_99_17045" x1="160.162" y1="85.0852" x2="178.008" y2="69.8038" gradientUnits="userSpaceOnUse">
<stop stop-color="white"/>
<stop offset="1" stop-color="white" stop-opacity="0"/>
</linearGradient>
<linearGradient id="paint23_linear_99_17045" x1="113.078" y1="38.0795" x2="129.429" y2="23.8063" gradientUnits="userSpaceOnUse">
<stop stop-color="white"/>
<stop offset="1" stop-color="white" stop-opacity="0"/>
</linearGradient>
<linearGradient id="paint24_linear_99_17045" x1="209.942" y1="176.149" x2="224.481" y2="163.485" gradientUnits="userSpaceOnUse">
<stop stop-color="white"/>
<stop offset="1" stop-color="white" stop-opacity="0"/>
</linearGradient>
<linearGradient id="paint25_linear_99_17045" x1="-4.37871" y1="12.9353" x2="7.94215" y2="2.19984" gradientUnits="userSpaceOnUse">
<stop stop-color="white"/>
<stop offset="1" stop-color="white" stop-opacity="0"/>
</linearGradient>
<linearGradient id="paint26_linear_99_17045" x1="42.5874" y1="13.7555" x2="56.5174" y2="1.66671" gradientUnits="userSpaceOnUse">
<stop stop-color="white"/>
<stop offset="1" stop-color="white" stop-opacity="0"/>
</linearGradient>
<linearGradient id="paint27_linear_99_17045" x1="91.3042" y1="13.053" x2="103.878" y2="2.06188" gradientUnits="userSpaceOnUse">
<stop stop-color="white"/>
<stop offset="1" stop-color="white" stop-opacity="0"/>
</linearGradient>
<linearGradient id="paint28_linear_99_17045" x1="210.965" y1="128.962" x2="223.745" y2="117.812" gradientUnits="userSpaceOnUse">
<stop stop-color="white"/>
<stop offset="1" stop-color="white" stop-opacity="0"/>
</linearGradient>
<linearGradient id="paint29_linear_99_17045" x1="210.967" y1="221.564" x2="223.735" y2="210.446" gradientUnits="userSpaceOnUse">
<stop stop-color="white"/>
<stop offset="1" stop-color="white" stop-opacity="0"/>
</linearGradient>
</defs>
</svg>
