<svg width="81" height="79" viewBox="0 0 81 79" fill="none" xmlns="http://www.w3.org/2000/svg">
<path d="M53.6663 19.6599L54.8973 18.3497C55.6474 17.5509 55.6771 16.3642 54.8555 15.5898C53.7322 14.5346 52.1314 15.2901 52.1314 15.2901C50.2707 16.2418 48.8024 17.9466 48.2183 20.1262C47.125 24.2068 49.595 28.2197 53.6191 29.4903C59.2798 31.2779 64.2538 27.7107 64.2538 27.7107" stroke="white" stroke-opacity="0.2" stroke-width="2" stroke-linecap="square" stroke-linejoin="round"/>
<path d="M57.8827 21.7578L59.1138 20.4476C59.8639 19.6489 59.8936 18.4622 59.0719 17.6877C57.9487 16.6325 56.3479 17.3881 56.3479 17.3881C55.2995 17.9222 54.4857 18.8076 53.6677 19.6616" stroke="white" stroke-opacity="0.2" stroke-width="2" stroke-linecap="square" stroke-linejoin="round"/>
<path d="M62.1002 23.8561L63.3313 22.5459C64.0814 21.7471 64.1111 20.5605 63.2894 19.786C62.1662 18.7308 60.5654 19.4864 60.5654 19.4864C59.517 20.0204 58.6757 20.8479 57.8852 21.7598" stroke="white" stroke-opacity="0.2" stroke-width="2" stroke-linecap="square" stroke-linejoin="round"/>
<path d="M64.1799 37.6794L65.411 36.3692C66.1611 35.5704 66.1908 34.3838 65.3691 33.6093C64.2459 32.5541 62.6451 33.3097 62.6451 33.3097C60.7843 34.2614 59.316 35.9661 58.732 38.1458C57.6386 42.2264 60.1086 46.2392 64.1327 47.5099C69.7935 49.2975 74.7675 45.7302 74.7675 45.7302" stroke="white" stroke-opacity="0.2" stroke-width="2" stroke-linecap="square" stroke-linejoin="round"/>
<path d="M68.3964 39.7774L69.6275 38.4671C70.3776 37.6684 70.4073 36.4817 69.5856 35.7073C68.4624 34.6521 66.8615 35.4076 66.8615 35.4076C65.8131 35.9417 64.9993 36.8271 64.1813 37.6811" stroke="white" stroke-opacity="0.2" stroke-width="2" stroke-linecap="square" stroke-linejoin="round"/>
<path d="M72.6139 41.8756L73.845 40.5654C74.5951 39.7667 74.6248 38.58 73.8031 37.8055C72.6799 36.7503 71.0791 37.5059 71.0791 37.5059C70.0307 38.04 69.1894 38.8674 68.3989 39.7794" stroke="white" stroke-opacity="0.2" stroke-width="2" stroke-linecap="square" stroke-linejoin="round"/>
<path d="M74.1799 22.6794L75.411 21.3692C76.1611 20.5704 76.1908 19.3838 75.3691 18.6093C74.2459 17.5541 72.6451 18.3097 72.6451 18.3097C70.7843 19.2614 69.316 20.9661 68.732 23.1458C67.6386 27.2264 70.1086 31.2392 74.1327 32.5099C79.7935 34.2975 84.7675 30.7302 84.7675 30.7302" stroke="white" stroke-opacity="0.2" stroke-width="2" stroke-linecap="square" stroke-linejoin="round"/>
<path d="M78.3964 24.7774L79.6275 23.4671C80.3776 22.6684 80.4073 21.4817 79.5856 20.7073C78.4624 19.6521 76.8615 20.4076 76.8615 20.4076C75.8131 20.9417 74.9993 21.8271 74.1813 22.6811" stroke="white" stroke-opacity="0.2" stroke-width="2" stroke-linecap="square" stroke-linejoin="round"/>
<path d="M82.6139 26.8756L83.845 25.5654C84.5951 24.7667 84.6248 23.58 83.8031 22.8055C82.6799 21.7503 81.0791 22.5059 81.0791 22.5059C80.0307 23.04 79.1894 23.8674 78.3989 24.7794" stroke="white" stroke-opacity="0.2" stroke-width="2" stroke-linecap="square" stroke-linejoin="round"/>
<path d="M43.1799 34.6794L44.411 33.3692C45.1611 32.5704 45.1908 31.3838 44.3691 30.6093C43.2459 29.5541 41.6451 30.3097 41.6451 30.3097C39.7843 31.2614 38.316 32.9661 37.732 35.1458C36.6386 39.2264 39.1086 43.2392 43.1327 44.5099C48.7935 46.2975 53.7675 42.7302 53.7675 42.7302" stroke="white" stroke-opacity="0.2" stroke-width="2" stroke-linecap="square" stroke-linejoin="round"/>
<path d="M47.3964 36.7774L48.6275 35.4671C49.3776 34.6684 49.4073 33.4817 48.5856 32.7073C47.4624 31.6521 45.8615 32.4076 45.8615 32.4076C44.8131 32.9417 43.9993 33.8271 43.1813 34.6811" stroke="white" stroke-opacity="0.2" stroke-width="2" stroke-linecap="square" stroke-linejoin="round"/>
<path d="M51.6139 38.8756L52.845 37.5654C53.5951 36.7667 53.6248 35.58 52.8031 34.8055C51.6799 33.7503 50.0791 34.5059 50.0791 34.5059C49.0307 35.04 48.1894 35.8674 47.3989 36.7794" stroke="white" stroke-opacity="0.2" stroke-width="2" stroke-linecap="square" stroke-linejoin="round"/>
<path d="M53.1799 53.6794L54.411 52.3692C55.1611 51.5704 55.1908 50.3838 54.3691 49.6093C53.2459 48.5541 51.6451 49.3097 51.6451 49.3097C49.7843 50.2614 48.316 51.9661 47.732 54.1458C46.6386 58.2264 49.1086 62.2392 53.1327 63.5099C58.7935 65.2975 63.7675 61.7302 63.7675 61.7302" stroke="white" stroke-opacity="0.2" stroke-width="2" stroke-linecap="square" stroke-linejoin="round"/>
<path d="M57.3964 55.7774L58.6275 54.4671C59.3776 53.6684 59.4073 52.4817 58.5856 51.7073C57.4624 50.6521 55.8615 51.4076 55.8615 51.4076C54.8131 51.9417 53.9993 52.8271 53.1813 53.6811" stroke="white" stroke-opacity="0.2" stroke-width="2" stroke-linecap="square" stroke-linejoin="round"/>
<path d="M61.6139 57.8756L62.845 56.5654C63.5951 55.7667 63.6248 54.58 62.8031 53.8055C61.6799 52.7503 60.0791 53.5059 60.0791 53.5059C59.0307 54.04 58.1894 54.8674 57.3989 55.7794" stroke="white" stroke-opacity="0.2" stroke-width="2" stroke-linecap="square" stroke-linejoin="round"/>
<path d="M41.1799 68.6794L42.411 67.3692C43.1611 66.5704 43.1908 65.3838 42.3691 64.6093C41.2459 63.5541 39.6451 64.3097 39.6451 64.3097C37.7843 65.2614 36.316 66.9661 35.732 69.1458C34.6386 73.2264 37.1086 77.2392 41.1327 78.5099C46.7935 80.2975 51.7675 76.7302 51.7675 76.7302" stroke="white" stroke-opacity="0.2" stroke-width="2" stroke-linecap="square" stroke-linejoin="round"/>
<path d="M45.3964 70.7773L46.6275 69.467C47.3776 68.6683 47.4073 67.4816 46.5856 66.7071C45.4624 65.6519 43.8615 66.4075 43.8615 66.4075C42.8131 66.9416 41.9993 67.827 41.1813 68.681" stroke="white" stroke-opacity="0.2" stroke-width="2" stroke-linecap="square" stroke-linejoin="round"/>
<path d="M49.6139 72.8756L50.845 71.5654C51.5951 70.7667 51.6248 69.58 50.8031 68.8055C49.6799 67.7503 48.0791 68.5059 48.0791 68.5059C47.0307 69.04 46.1894 69.8674 45.3989 70.7794" stroke="white" stroke-opacity="0.2" stroke-width="2" stroke-linecap="square" stroke-linejoin="round"/>
<path d="M33.1799 49.6794L34.411 48.3692C35.1611 47.5704 35.1908 46.3838 34.3691 45.6093C33.2459 44.5541 31.6451 45.3097 31.6451 45.3097C29.7843 46.2614 28.316 47.9661 27.732 50.1458C26.6386 54.2264 29.1086 58.2392 33.1327 59.5099C38.7935 61.2975 43.7675 57.7302 43.7675 57.7302" stroke="white" stroke-opacity="0.2" stroke-width="2" stroke-linecap="square" stroke-linejoin="round"/>
<path d="M37.3964 51.7774L38.6275 50.4671C39.3776 49.6684 39.4073 48.4817 38.5856 47.7073C37.4624 46.6521 35.8615 47.4076 35.8615 47.4076C34.8131 47.9417 33.9993 48.8271 33.1813 49.6811" stroke="white" stroke-opacity="0.2" stroke-width="2" stroke-linecap="square" stroke-linejoin="round"/>
<path d="M41.6139 53.8756L42.845 52.5654C43.5951 51.7667 43.6248 50.58 42.8031 49.8055C41.6799 48.7503 40.0791 49.5059 40.0791 49.5059C39.0307 50.04 38.1894 50.8674 37.3989 51.7794" stroke="white" stroke-opacity="0.2" stroke-width="2" stroke-linecap="square" stroke-linejoin="round"/>
<path d="M63.1794 67.6599L64.4105 66.3497C65.1606 65.5509 65.1903 64.3642 64.3686 63.5898C63.2454 62.5346 61.6446 63.2901 61.6446 63.2901C59.7838 64.2418 58.3156 65.9466 57.7315 68.1262C56.6381 72.2068 59.1082 76.2197 63.1323 77.4903C68.793 79.2779 73.767 75.7107 73.767 75.7107" stroke="white" stroke-opacity="0.2" stroke-width="2" stroke-linecap="square" stroke-linejoin="round"/>
<path d="M67.3959 69.7577L68.627 68.4475C69.3771 67.6487 69.4068 66.4621 68.5851 65.6876C67.4619 64.6324 65.861 65.388 65.861 65.388C64.8127 65.922 63.9988 66.8075 63.1808 67.6615" stroke="white" stroke-opacity="0.2" stroke-width="2" stroke-linecap="square" stroke-linejoin="round"/>
<path d="M71.6134 71.8561L72.8445 70.5459C73.5946 69.7471 73.6243 68.5605 72.8026 67.786C71.6794 66.7308 70.0786 67.4864 70.0786 67.4864C69.0302 68.0204 68.1889 68.8479 67.3984 69.7598" stroke="white" stroke-opacity="0.2" stroke-width="2" stroke-linecap="square" stroke-linejoin="round"/>
<path d="M76.1794 54.6599L77.4105 53.3497C78.1606 52.5509 78.1903 51.3642 77.3686 50.5898C76.2454 49.5346 74.6446 50.2901 74.6446 50.2901C72.7838 51.2418 71.3156 52.9466 70.7315 55.1262C69.6381 59.2068 72.1082 63.2197 76.1323 64.4903C81.793 66.2779 86.767 62.7107 86.767 62.7107" stroke="white" stroke-opacity="0.2" stroke-width="2" stroke-linecap="square" stroke-linejoin="round"/>
<path d="M80.3959 56.7578L81.627 55.4476C82.3771 54.6489 82.4068 53.4622 81.5851 52.6877C80.4619 51.6325 78.861 52.3881 78.861 52.3881C77.8127 52.9222 76.9988 53.8076 76.1808 54.6616" stroke="white" stroke-opacity="0.2" stroke-width="2" stroke-linecap="square" stroke-linejoin="round"/>
<path d="M84.6134 58.8561L85.8445 57.5459C86.5946 56.7471 86.6243 55.5605 85.8026 54.786C84.6794 53.7308 83.0786 54.4864 83.0786 54.4864C82.0302 55.0204 81.1889 55.8479 80.3984 56.7598" stroke="white" stroke-opacity="0.2" stroke-width="2" stroke-linecap="square" stroke-linejoin="round"/>
<path d="M18.1792 72.6599L19.4103 71.3497C20.1604 70.5509 20.1901 69.3642 19.3684 68.5898C18.2452 67.5346 16.6443 68.2901 16.6443 68.2901C14.7836 69.2418 13.3153 70.9466 12.7313 73.1262C11.6379 77.2068 14.1079 81.2197 18.132 82.4903C23.7928 84.2779 28.7667 80.7107 28.7667 80.7107" stroke="white" stroke-opacity="0.2" stroke-width="2" stroke-linecap="square" stroke-linejoin="round"/>
<path d="M22.3957 74.7577L23.6267 73.4475C24.3768 72.6487 24.4065 71.4621 23.5849 70.6876C22.4616 69.6324 20.8608 70.388 20.8608 70.388C19.8124 70.922 18.9986 71.8075 18.1806 72.6615" stroke="white" stroke-opacity="0.2" stroke-width="2" stroke-linecap="square" stroke-linejoin="round"/>
<path d="M26.6132 76.8561L27.8442 75.5459C28.5944 74.7471 28.6241 73.5605 27.8024 72.786C26.6792 71.7308 25.0783 72.4864 25.0783 72.4864C24.0299 73.0204 23.1887 73.8479 22.3981 74.7598" stroke="white" stroke-opacity="0.2" stroke-width="2" stroke-linecap="square" stroke-linejoin="round"/>
<path d="M61.1797 10.6599L62.4107 9.34967C63.1609 8.55092 63.1906 7.36424 62.3689 6.58978C61.2457 5.53458 59.6448 6.29015 59.6448 6.29015C57.7841 7.24183 56.3158 8.9466 55.7318 11.1262C54.6384 15.2068 57.1084 19.2197 61.1325 20.4903C66.7932 22.2779 71.7672 18.7107 71.7672 18.7107" stroke="white" stroke-opacity="0.2" stroke-width="2" stroke-linecap="square" stroke-linejoin="round"/>
<path d="M65.3961 12.7578L66.6272 11.4476C67.3773 10.6489 67.407 9.46219 66.5853 8.68773C65.4621 7.63253 63.8613 8.38809 63.8613 8.38809C62.8129 8.92216 61.9991 9.80762 61.1811 10.6616" stroke="white" stroke-opacity="0.2" stroke-width="2" stroke-linecap="square" stroke-linejoin="round"/>
<path d="M69.6137 14.8561L70.8447 13.5459C71.5948 12.7471 71.6245 11.5605 70.8029 10.786C69.6796 9.73079 68.0788 10.4864 68.0788 10.4864C67.0304 11.0204 66.1892 11.8479 65.3986 12.7598" stroke="white" stroke-opacity="0.2" stroke-width="2" stroke-linecap="square" stroke-linejoin="round"/>
<path d="M44.1797 2.6599L45.4107 1.34967C46.1609 0.550917 46.1906 -0.635759 45.3689 -1.41022C44.2457 -2.46542 42.6448 -1.70985 42.6448 -1.70985C40.7841 -0.758174 39.3158 0.946601 38.7318 3.12623C37.6384 7.20682 40.1084 11.2197 44.1325 12.4903C49.7932 14.2779 54.7672 10.7107 54.7672 10.7107" stroke="white" stroke-opacity="0.2" stroke-width="2" stroke-linecap="square" stroke-linejoin="round"/>
<path d="M48.3961 4.75784L49.6272 3.44762C50.3773 2.64886 50.407 1.46219 49.5853 0.687731C48.4621 -0.367475 46.8613 0.388091 46.8613 0.388091C45.8129 0.92216 44.9991 1.80762 44.1811 2.66158" stroke="white" stroke-opacity="0.2" stroke-width="2" stroke-linecap="square" stroke-linejoin="round"/>
<path d="M52.6137 6.85611L53.8447 5.54588C54.5948 4.74713 54.6245 3.56045 53.8029 2.786C52.6796 1.73079 51.0788 2.48636 51.0788 2.48636C50.0304 3.02043 49.1892 3.84791 48.3986 4.75984" stroke="white" stroke-opacity="0.2" stroke-width="2" stroke-linecap="square" stroke-linejoin="round"/>
<path d="M21.1797 -2.3401L22.4107 -3.65033C23.1609 -4.44908 23.1906 -5.63576 22.3689 -6.41022C21.2457 -7.46542 19.6448 -6.70985 19.6448 -6.70985C17.7841 -5.75817 16.3158 -4.0534 15.7318 -1.87377C14.6384 2.20682 17.1084 6.21971 21.1325 7.49032C26.7932 9.27793 31.7672 5.71068 31.7672 5.71068" stroke="white" stroke-opacity="0.2" stroke-width="2" stroke-linecap="square" stroke-linejoin="round"/>
<path d="M25.3961 -0.242159L26.6272 -1.55238C27.3773 -2.35114 27.407 -3.53781 26.5853 -4.31227C25.4621 -5.36747 23.8613 -4.61191 23.8613 -4.61191C22.8129 -4.07784 21.9991 -3.19238 21.1811 -2.33842" stroke="white" stroke-opacity="0.2" stroke-width="2" stroke-linecap="square" stroke-linejoin="round"/>
<path d="M29.6137 1.85611L30.8447 0.545882C31.5948 -0.252871 31.6245 -1.43955 30.8029 -2.214C29.6796 -3.26921 28.0788 -2.51364 28.0788 -2.51364C27.0304 -1.97957 26.1892 -1.15209 25.3986 -0.240156" stroke="white" stroke-opacity="0.2" stroke-width="2" stroke-linecap="square" stroke-linejoin="round"/>
<path d="M10.6665 12.6404L11.8976 11.3301C12.6477 10.5314 12.6774 9.34471 11.8557 8.57025C10.7325 7.51505 9.13164 8.27061 9.13164 8.27061C7.2709 9.22229 5.80262 10.9271 5.21859 13.1067C4.1252 17.1873 6.59521 21.2002 10.6193 22.4708C16.2801 24.2584 21.254 20.6911 21.254 20.6911" stroke="white" stroke-opacity="0.2" stroke-width="2" stroke-linecap="square" stroke-linejoin="round"/>
<path d="M14.883 14.7383L16.114 13.4281C16.8641 12.6293 16.8938 11.4427 16.0722 10.6682C14.9489 9.61299 13.3481 10.3686 13.3481 10.3686C12.2997 10.9026 11.4859 11.7881 10.6679 12.642" stroke="white" stroke-opacity="0.2" stroke-width="2" stroke-linecap="square" stroke-linejoin="round"/>
<path d="M19.1005 16.8366L20.3316 15.5264C21.0817 14.7276 21.1114 13.5409 20.2897 12.7665C19.1665 11.7113 17.5656 12.4668 17.5656 12.4668C16.5172 13.0009 15.676 13.8284 14.8854 14.7403" stroke="white" stroke-opacity="0.2" stroke-width="2" stroke-linecap="square" stroke-linejoin="round"/>
<path d="M21.1802 30.6599L22.4112 29.3497C23.1614 28.5509 23.191 27.3642 22.3694 26.5898C21.2461 25.5346 19.6453 26.2901 19.6453 26.2901C17.7846 27.2418 16.3163 28.9466 15.7323 31.1262C14.6389 35.2068 17.1089 39.2197 21.133 40.4903C26.7937 42.2779 31.7677 38.7107 31.7677 38.7107" stroke="white" stroke-opacity="0.2" stroke-width="2" stroke-linecap="square" stroke-linejoin="round"/>
<path d="M25.3966 32.7578L26.6277 31.4476C27.3778 30.6489 27.4075 29.4622 26.5858 28.6877C25.4626 27.6325 23.8618 28.3881 23.8618 28.3881C22.8134 28.9222 21.9996 29.8076 21.1816 30.6616" stroke="white" stroke-opacity="0.2" stroke-width="2" stroke-linecap="square" stroke-linejoin="round"/>
<path d="M29.6142 34.8561L30.8452 33.5459C31.5953 32.7471 31.625 31.5605 30.8034 30.786C29.6801 29.7308 28.0793 30.4864 28.0793 30.4864C27.0309 31.0204 26.1897 31.8479 25.3991 32.7598" stroke="white" stroke-opacity="0.2" stroke-width="2" stroke-linecap="square" stroke-linejoin="round"/>
<path d="M31.1802 15.6599L32.4112 14.3497C33.1614 13.5509 33.191 12.3642 32.3694 11.5898C31.2461 10.5346 29.6453 11.2901 29.6453 11.2901C27.7846 12.2418 26.3163 13.9466 25.7323 16.1262C24.6389 20.2068 27.1089 24.2197 31.133 25.4903C36.7937 27.2779 41.7677 23.7107 41.7677 23.7107" stroke="white" stroke-opacity="0.2" stroke-width="2" stroke-linecap="square" stroke-linejoin="round"/>
<path d="M35.3966 17.7578L36.6277 16.4476C37.3778 15.6489 37.4075 14.4622 36.5858 13.6877C35.4626 12.6325 33.8618 13.3881 33.8618 13.3881C32.8134 13.9222 31.9996 14.8076 31.1816 15.6616" stroke="white" stroke-opacity="0.2" stroke-width="2" stroke-linecap="square" stroke-linejoin="round"/>
<path d="M39.6142 19.8561L40.8452 18.5459C41.5953 17.7471 41.625 16.5605 40.8034 15.786C39.6801 14.7308 38.0793 15.4864 38.0793 15.4864C37.0309 16.0204 36.1897 16.8479 35.3991 17.7598" stroke="white" stroke-opacity="0.2" stroke-width="2" stroke-linecap="square" stroke-linejoin="round"/>
<path d="M0.180169 27.6599L1.41124 26.3497C2.16135 25.5509 2.19105 24.3642 1.36937 23.5898C0.246145 22.5346 -1.35469 23.2901 -1.35469 23.2901C-3.21543 24.2418 -4.68371 25.9466 -5.26774 28.1262C-6.36113 32.2068 -3.89112 36.2197 0.132994 37.4903C5.79374 39.2779 10.7677 35.7107 10.7677 35.7107" stroke="white" stroke-opacity="0.2" stroke-width="2" stroke-linecap="square" stroke-linejoin="round"/>
<path d="M4.39663 29.7578L5.6277 28.4476C6.37781 27.6489 6.4075 26.4622 5.58583 25.6877C4.4626 24.6325 2.86177 25.3881 2.86177 25.3881C1.81338 25.9222 0.999579 26.8076 0.18157 27.6616" stroke="white" stroke-opacity="0.2" stroke-width="2" stroke-linecap="square" stroke-linejoin="round"/>
<path d="M8.61416 31.8561L9.84522 30.5459C10.5953 29.7471 10.625 28.5605 9.80336 27.786C8.68013 26.7308 7.0793 27.4864 7.0793 27.4864C6.03091 28.0204 5.18966 28.8479 4.3991 29.7598" stroke="white" stroke-opacity="0.2" stroke-width="2" stroke-linecap="square" stroke-linejoin="round"/>
<path d="M10.1802 46.6599L11.4112 45.3497C12.1614 44.5509 12.191 43.3642 11.3694 42.5898C10.2461 41.5346 8.64531 42.2901 8.64531 42.2901C6.78457 43.2418 5.31629 44.9466 4.73226 47.1262C3.63887 51.2068 6.10888 55.2197 10.133 56.4903C15.7937 58.2779 20.7677 54.7107 20.7677 54.7107" stroke="white" stroke-opacity="0.2" stroke-width="2" stroke-linecap="square" stroke-linejoin="round"/>
<path d="M14.3966 48.7578L15.6277 47.4476C16.3778 46.6489 16.4075 45.4622 15.5858 44.6877C14.4626 43.6325 12.8618 44.3881 12.8618 44.3881C11.8134 44.9222 10.9996 45.8076 10.1816 46.6616" stroke="white" stroke-opacity="0.2" stroke-width="2" stroke-linecap="square" stroke-linejoin="round"/>
<path d="M18.6142 50.8561L19.8452 49.5459C20.5953 48.7471 20.625 47.5605 19.8034 46.786C18.6801 45.7308 17.0793 46.4864 17.0793 46.4864C16.0309 47.0204 15.1897 47.8479 14.3991 48.7598" stroke="white" stroke-opacity="0.2" stroke-width="2" stroke-linecap="square" stroke-linejoin="round"/>
<path d="M-1.81983 61.6599L-0.588764 60.3497C0.16135 59.5509 0.191045 58.3642 -0.630629 57.5898C-1.75385 56.5346 -3.35469 57.2901 -3.35469 57.2901C-5.21543 58.2418 -6.68371 59.9466 -7.26774 62.1262C-8.36113 66.2068 -5.89112 70.2197 -1.86701 71.4903C3.79374 73.2779 8.76771 69.7107 8.76771 69.7107" stroke="white" stroke-opacity="0.2" stroke-width="2" stroke-linecap="square" stroke-linejoin="round"/>
<path d="M2.39663 63.7578L3.6277 62.4476C4.37781 61.6489 4.4075 60.4622 3.58583 59.6877C2.4626 58.6325 0.861769 59.3881 0.861769 59.3881C-0.186615 59.9222 -1.00042 60.8076 -1.81843 61.6616" stroke="white" stroke-opacity="0.2" stroke-width="2" stroke-linecap="square" stroke-linejoin="round"/>
<path d="M6.61416 65.8561L7.84522 64.5459C8.59534 63.7471 8.62503 62.5605 7.80336 61.786C6.68013 60.7308 5.0793 61.4864 5.0793 61.4864C4.03091 62.0204 3.18966 62.8479 2.3991 63.7598" stroke="white" stroke-opacity="0.2" stroke-width="2" stroke-linecap="square" stroke-linejoin="round"/>
<path d="M-9.81983 42.6599L-8.58876 41.3497C-7.83865 40.5509 -7.80895 39.3642 -8.63063 38.5898C-9.75385 37.5346 -11.3547 38.2901 -11.3547 38.2901C-13.2154 39.2418 -14.6837 40.9466 -15.2677 43.1262C-16.3611 47.2068 -13.8911 51.2197 -9.86701 52.4903C-4.20626 54.2779 0.76771 50.7107 0.76771 50.7107" stroke="white" stroke-opacity="0.2" stroke-width="2" stroke-linecap="square" stroke-linejoin="round"/>
<path d="M-1.38584 46.8561L-0.154776 45.5459C0.595338 44.7471 0.625034 43.5605 -0.19664 42.786C-1.31987 41.7308 -2.9207 42.4864 -2.9207 42.4864C-3.96909 43.0204 -4.81034 43.8479 -5.6009 44.7598" stroke="white" stroke-opacity="0.2" stroke-width="2" stroke-linecap="square" stroke-linejoin="round"/>
</svg>
