<svg width="24" height="24" viewBox="0 0 24 24" fill="none" xmlns="http://www.w3.org/2000/svg">
<g style="mix-blend-mode:luminosity">
<path fill-rule="evenodd" clip-rule="evenodd" d="M0.00254258 0.926399C0.00254258 0.415199 0.442747 0 0.984731 0H14.0153C14.5572 0 15 0.415199 15 0.926399V23.0736C15 23.1955 14.9745 23.3161 14.925 23.4287C14.8755 23.5412 14.8029 23.6435 14.7114 23.7295C14.62 23.8156 14.5114 23.8838 14.3919 23.9302C14.2725 23.9766 14.1445 24.0003 14.0153 24H10.3257C10.0652 24 9.81538 23.9024 9.63119 23.7287C9.44699 23.5549 9.34351 23.3193 9.34351 23.0736V5.544C9.34385 5.42214 9.31868 5.30142 9.26947 5.18874C9.22026 5.07607 9.14797 4.97366 9.05673 4.88738C8.9655 4.80111 8.85711 4.73265 8.73778 4.68595C8.61845 4.63924 8.49052 4.6152 8.36132 4.6152H0.982187C0.721694 4.6152 0.471871 4.5176 0.287675 4.34386C0.103479 4.17013 0 3.9345 0 3.6888L0.00254258 0.926399Z" fill="#F15929"/>
<path d="M23.0011 10H17.9989C17.4477 10 17 10.4498 17 11.0062V13.9964C17 14.2625 17.1052 14.5178 17.2926 14.706C17.4799 14.8943 17.734 15 17.9989 15H23.0011C23.1325 15 23.2626 14.974 23.384 14.9234C23.5053 14.8728 23.6156 14.7986 23.7083 14.7051C23.8011 14.6117 23.8747 14.5007 23.9247 14.3786C23.9748 14.2566 24.0003 14.1258 24 13.9938V11.0036C24 10.4498 23.5523 10 23.0011 10Z" fill="#F15929"/>
<path d="M23.0011 19H17.9989C17.4477 19 17 19.4498 17 20.0062V22.9964C17 23.2625 17.1052 23.5178 17.2926 23.706C17.4799 23.8943 17.734 24 17.9989 24H23.0011C23.1325 24 23.2626 23.974 23.384 23.9234C23.5053 23.8728 23.6156 23.7986 23.7083 23.7051C23.8011 23.6116 23.8747 23.5007 23.9247 23.3786C23.9748 23.2566 24.0003 23.1258 24 22.9938V20.0036C24 19.4498 23.5523 19 23.0011 19Z" fill="#F15929"/>
<path d="M23.0011 0H17.9989C17.4477 0 17 0.449817 17 1.00624V3.99636C17 4.26254 17.1052 4.51782 17.2926 4.70604C17.4799 4.89426 17.734 5 17.9989 5H23.0011C23.1325 5 23.2626 4.97395 23.384 4.92335C23.5053 4.87275 23.6156 4.79859 23.7083 4.70512C23.8011 4.61165 23.8747 4.5007 23.9247 4.37863C23.9748 4.25657 24.0003 4.12578 24 3.99376V1.00364C24 0.449817 23.5523 0 23.0011 0Z" fill="#F15929"/>
</g>
</svg>
