<svg width="105" height="105" viewBox="0 0 105 105" fill="none" xmlns="http://www.w3.org/2000/svg">
<path fill-rule="evenodd" clip-rule="evenodd" d="M51.4284 96.4289C75.0977 96.4289 94.2854 77.2412 94.2854 53.5719C94.2854 29.9027 75.0977 10.715 51.4284 10.715C27.7591 10.715 8.5714 29.9027 8.5714 53.5719C8.5714 77.2412 27.7591 96.4289 51.4284 96.4289ZM51.4284 105C79.8315 105 102.857 81.9751 102.857 53.5719C102.857 25.1688 79.8315 2.14355 51.4284 2.14355C23.0253 2.14355 0 25.1688 0 53.5719C0 81.9751 23.0253 105 51.4284 105Z" fill="#F15929"/>
<path fill-rule="evenodd" clip-rule="evenodd" d="M53.569 94.2854C77.2383 94.2854 96.426 75.0977 96.426 51.4284C96.426 27.7591 77.2383 8.5714 53.569 8.5714C29.8997 8.5714 10.712 27.7591 10.712 51.4284C10.712 75.0977 29.8997 94.2854 53.569 94.2854ZM53.569 102.857C81.9721 102.857 104.997 79.8315 104.997 51.4284C104.997 23.0253 81.9721 0 53.569 0C25.1659 0 2.14062 23.0253 2.14062 51.4284C2.14062 79.8315 25.1659 102.857 53.569 102.857Z" fill="#F15929"/>
<mask id="mask0_7204_34971" style="mask-type:alpha" maskUnits="userSpaceOnUse" x="2" y="0" width="103" height="103">
<path fill-rule="evenodd" clip-rule="evenodd" d="M53.569 94.2854C77.2383 94.2854 96.426 75.0977 96.426 51.4284C96.426 27.7591 77.2383 8.5714 53.569 8.5714C29.8997 8.5714 10.712 27.7591 10.712 51.4284C10.712 75.0977 29.8997 94.2854 53.569 94.2854ZM53.569 102.857C81.9721 102.857 104.997 79.8315 104.997 51.4284C104.997 23.0253 81.9721 0 53.569 0C25.1659 0 2.14062 23.0253 2.14062 51.4284C2.14062 79.8315 25.1659 102.857 53.569 102.857Z" fill="white" fill-opacity="0.5"/>
</mask>
<g mask="url(#mask0_7204_34971)">
<path d="M-53.5723 126.48L122.194 -49.2854L145.969 -25.5102L-29.7971 150.256L-53.5723 126.48Z" fill="#FFF0D9"/>
<path d="M-17.3257 143.439L158.44 -32.3264L162.117 -28.6497L-13.649 147.116L-17.3257 143.439Z" fill="#FFF0D9"/>
</g>
<path fill-rule="evenodd" clip-rule="evenodd" d="M44.999 32.1406H36.4276V40.712V49.2834H29.999L32.1419 57.8548H36.4276V66.4262V74.9976H44.999H52.4989C63.7418 74.9976 72.856 65.8834 72.856 54.6405V52.4977C72.856 41.2548 63.7418 32.1406 52.4989 32.1406H44.999ZM44.999 57.8548V66.4262H52.4989C52.8601 66.4262 53.2175 66.41 53.5704 66.3782C59.5773 65.8369 64.2846 60.7884 64.2846 54.6405V52.4977C64.2846 46.3498 59.5773 41.3014 53.5704 40.7601C53.2175 40.7283 52.8601 40.712 52.4989 40.712H44.999V49.2834H49.2847L51.4275 57.8548H44.999Z" fill="#FFF0D9"/>
<path fill-rule="evenodd" clip-rule="evenodd" d="M47.1425 29.999H38.5711V38.5704V47.1418H32.1426L34.2854 55.7132H38.5711V64.2846V72.856H47.1425H54.6425C65.8854 72.856 74.9996 63.7418 74.9996 52.4989V50.3561C74.9996 39.1132 65.8854 29.999 54.6425 29.999H47.1425ZM47.1425 55.7132V64.2846H54.6425C55.0037 64.2846 55.361 64.2684 55.7139 64.2366C61.7209 63.6953 66.4282 58.6468 66.4282 52.4989V50.3561C66.4282 44.2082 61.7209 39.1598 55.7139 38.6185C55.361 38.5867 55.0037 38.5704 54.6425 38.5704H47.1425V47.1418H51.4282L53.5711 55.7132H47.1425Z" fill="#F15929"/>
</svg>
