<svg width="429" height="99" viewBox="0 0 429 99" fill="none" xmlns="http://www.w3.org/2000/svg">
<path d="M11.3315 94V81.718H14.2065V91.562H20.0715V81.718H22.9465V94H11.3315ZM22.1185 96.737V93.931L22.7855 94H20.0715V91.562H24.8095V96.737H22.1185Z" fill="#CECECE"/>
<path d="M27.3687 94V81.718H30.2437V89.814L37.0287 81.718H39.6507V94H36.7757V85.904L30.0137 94H27.3687Z" fill="#CECECE"/>
<path d="M51.3151 94.23C51.2997 94.23 51.2307 94.23 51.1081 94.23C51.0007 94.23 50.8934 94.23 50.7861 94.23C50.6941 94.23 50.6327 94.23 50.6021 94.23C48.0107 94.1993 46.0021 93.6396 44.5761 92.551C43.1501 91.447 42.4371 89.8753 42.4371 87.836C42.4371 85.812 43.1501 84.2633 44.5761 83.19C46.0021 82.1166 48.0337 81.5646 50.6711 81.534C50.7017 81.534 50.7631 81.534 50.8551 81.534C50.9624 81.534 51.0621 81.534 51.1541 81.534C51.2614 81.534 51.3227 81.534 51.3381 81.534C53.9907 81.534 56.0531 82.0783 57.5251 83.167C59.0124 84.2403 59.7561 85.7966 59.7561 87.836C59.7561 89.8906 59.0124 91.47 57.5251 92.574C56.0531 93.678 53.9831 94.23 51.3151 94.23ZM51.2231 91.838C52.5264 91.838 53.5997 91.6923 54.4431 91.401C55.2864 91.0943 55.9151 90.6496 56.3291 90.067C56.7431 89.469 56.9501 88.7253 56.9501 87.836C56.9501 86.962 56.7431 86.2413 56.3291 85.674C55.9151 85.0913 55.2864 84.662 54.4431 84.386C53.5997 84.0946 52.5264 83.949 51.2231 83.949C51.1924 83.949 51.1157 83.949 50.9931 83.949C50.8857 83.949 50.8167 83.949 50.7861 83.949C49.5134 83.949 48.4707 84.1023 47.6581 84.409C46.8454 84.7003 46.2397 85.1296 45.8411 85.697C45.4577 86.2643 45.2661 86.9773 45.2661 87.836C45.2661 88.71 45.4577 89.4383 45.8411 90.021C46.2397 90.6036 46.8454 91.0483 47.6581 91.355C48.4861 91.6616 49.5287 91.8226 50.7861 91.838C50.8167 91.838 50.8857 91.838 50.9931 91.838C51.1157 91.838 51.1924 91.838 51.2231 91.838ZM49.7281 98.462V76.934H52.4421V98.462H49.7281Z" fill="#CECECE"/>
<path d="M69.3505 94.161C68.3538 94.161 67.4415 93.931 66.6135 93.471C65.8008 93.011 65.1491 92.321 64.6585 91.401C64.1831 90.4656 63.9455 89.285 63.9455 87.859C63.9455 86.4176 64.1755 85.237 64.6355 84.317C65.1108 83.397 65.7548 82.7146 66.5675 82.27C67.3801 81.81 68.3078 81.58 69.3505 81.58C70.5618 81.58 71.6275 81.8406 72.5475 82.362C73.4828 82.8833 74.2188 83.6116 74.7555 84.547C75.3075 85.4823 75.5835 86.5863 75.5835 87.859C75.5835 89.1316 75.3075 90.2433 74.7555 91.194C74.2188 92.1293 73.4828 92.8576 72.5475 93.379C71.6275 93.9003 70.5618 94.161 69.3505 94.161ZM62.5425 98.462V81.718H65.2795V84.616L65.1875 87.882L65.4175 91.148V98.462H62.5425ZM69.0285 91.7C69.7185 91.7 70.3318 91.5466 70.8685 91.24C71.4205 90.9333 71.8575 90.4886 72.1795 89.906C72.5015 89.3233 72.6625 88.641 72.6625 87.859C72.6625 87.0616 72.5015 86.3793 72.1795 85.812C71.8575 85.2293 71.4205 84.7846 70.8685 84.478C70.3318 84.1713 69.7185 84.018 69.0285 84.018C68.3385 84.018 67.7175 84.1713 67.1655 84.478C66.6135 84.7846 66.1765 85.2293 65.8545 85.812C65.5325 86.3793 65.3715 87.0616 65.3715 87.859C65.3715 88.641 65.5325 89.3233 65.8545 89.906C66.1765 90.4886 66.6135 90.9333 67.1655 91.24C67.7175 91.5466 68.3385 91.7 69.0285 91.7Z" fill="#CECECE"/>
<path d="M83.9188 94.161C82.6615 94.161 81.5422 93.8926 80.5608 93.356C79.5795 92.804 78.8052 92.0526 78.2378 91.102C77.6705 90.1513 77.3868 89.0703 77.3868 87.859C77.3868 86.6323 77.6705 85.5513 78.2378 84.616C78.8052 83.6653 79.5795 82.9216 80.5608 82.385C81.5422 81.8483 82.6615 81.58 83.9188 81.58C85.1915 81.58 86.3185 81.8483 87.2998 82.385C88.2965 82.9216 89.0708 83.6576 89.6228 84.593C90.1902 85.5283 90.4738 86.617 90.4738 87.859C90.4738 89.0703 90.1902 90.1513 89.6228 91.102C89.0708 92.0526 88.2965 92.804 87.2998 93.356C86.3185 93.8926 85.1915 94.161 83.9188 94.161ZM83.9188 91.7C84.6242 91.7 85.2528 91.5466 85.8048 91.24C86.3568 90.9333 86.7862 90.4886 87.0928 89.906C87.4148 89.3233 87.5758 88.641 87.5758 87.859C87.5758 87.0616 87.4148 86.3793 87.0928 85.812C86.7862 85.2293 86.3568 84.7846 85.8048 84.478C85.2528 84.1713 84.6318 84.018 83.9418 84.018C83.2365 84.018 82.6078 84.1713 82.0558 84.478C81.5192 84.7846 81.0898 85.2293 80.7678 85.812C80.4458 86.3793 80.2848 87.0616 80.2848 87.859C80.2848 88.641 80.4458 89.3233 80.7678 89.906C81.0898 90.4886 81.5192 90.9333 82.0558 91.24C82.6078 91.5466 83.2288 91.7 83.9188 91.7Z" fill="#CECECE"/>
<path d="M93.314 94V81.718H99.317C100.804 81.718 101.97 81.994 102.813 82.546C103.672 83.098 104.101 83.88 104.101 84.892C104.101 85.8886 103.702 86.6706 102.905 87.238C102.108 87.79 101.05 88.066 99.731 88.066L100.076 87.353C101.563 87.353 102.667 87.629 103.388 88.181C104.124 88.7176 104.492 89.5073 104.492 90.55C104.492 91.6386 104.086 92.4896 103.273 93.103C102.46 93.701 101.226 94 99.57 94H93.314ZM96.051 91.907H99.34C100.122 91.907 100.712 91.7843 101.111 91.539C101.51 91.2783 101.709 90.8873 101.709 90.366C101.709 89.814 101.525 89.4076 101.157 89.147C100.789 88.8863 100.214 88.756 99.432 88.756H96.051V91.907ZM96.051 86.847H99.064C99.8 86.847 100.352 86.7166 100.72 86.456C101.103 86.18 101.295 85.7966 101.295 85.306C101.295 84.8 101.103 84.4243 100.72 84.179C100.352 83.9336 99.8 83.811 99.064 83.811H96.051V86.847Z" fill="#CECECE"/>
<path d="M113.028 94.161C111.771 94.161 110.652 93.8926 109.67 93.356C108.689 92.804 107.915 92.0526 107.347 91.102C106.78 90.1513 106.496 89.0703 106.496 87.859C106.496 86.6323 106.78 85.5513 107.347 84.616C107.915 83.6653 108.689 82.9216 109.67 82.385C110.652 81.8483 111.771 81.58 113.028 81.58C114.301 81.58 115.428 81.8483 116.409 82.385C117.406 82.9216 118.18 83.6576 118.732 84.593C119.3 85.5283 119.583 86.617 119.583 87.859C119.583 89.0703 119.3 90.1513 118.732 91.102C118.18 92.0526 117.406 92.804 116.409 93.356C115.428 93.8926 114.301 94.161 113.028 94.161ZM113.028 91.7C113.734 91.7 114.362 91.5466 114.914 91.24C115.466 90.9333 115.896 90.4886 116.202 89.906C116.524 89.3233 116.685 88.641 116.685 87.859C116.685 87.0616 116.524 86.3793 116.202 85.812C115.896 85.2293 115.466 84.7846 114.914 84.478C114.362 84.1713 113.741 84.018 113.051 84.018C112.346 84.018 111.717 84.1713 111.165 84.478C110.629 84.7846 110.199 85.2293 109.877 85.812C109.555 86.3793 109.394 87.0616 109.394 87.859C109.394 88.641 109.555 89.3233 109.877 89.906C110.199 90.4886 110.629 90.9333 111.165 91.24C111.717 91.5466 112.338 91.7 113.028 91.7Z" fill="#CECECE"/>
<path d="M128.15 94.161C126.786 94.161 125.59 93.8926 124.562 93.356C123.55 92.804 122.761 92.0526 122.193 91.102C121.641 90.1513 121.365 89.0703 121.365 87.859C121.365 86.6323 121.634 85.5513 122.17 84.616C122.722 83.6653 123.474 82.9216 124.424 82.385C125.39 81.8483 126.487 81.58 127.713 81.58C128.909 81.58 129.975 81.8406 130.91 82.362C131.846 82.8833 132.582 83.6193 133.118 84.57C133.655 85.5206 133.923 86.64 133.923 87.928C133.923 88.0506 133.916 88.1886 133.9 88.342C133.9 88.4953 133.893 88.641 133.877 88.779H123.642V86.87H132.359L131.232 87.468C131.248 86.7626 131.102 86.1416 130.795 85.605C130.489 85.0683 130.067 84.6466 129.53 84.34C129.009 84.0333 128.403 83.88 127.713 83.88C127.008 83.88 126.387 84.0333 125.85 84.34C125.329 84.6466 124.915 85.076 124.608 85.628C124.317 86.1646 124.171 86.801 124.171 87.537V87.997C124.171 88.733 124.34 89.3846 124.677 89.952C125.015 90.5193 125.49 90.9563 126.103 91.263C126.717 91.5696 127.422 91.723 128.219 91.723C128.909 91.723 129.53 91.6156 130.082 91.401C130.634 91.1863 131.125 90.849 131.554 90.389L133.095 92.16C132.543 92.804 131.846 93.3023 131.002 93.655C130.174 93.9923 129.224 94.161 128.15 94.161Z" fill="#CECECE"/>
<path d="M149.013 94.161C147.725 94.161 146.575 93.8926 145.563 93.356C144.567 92.804 143.785 92.0526 143.217 91.102C142.65 90.1513 142.366 89.0703 142.366 87.859C142.366 86.6323 142.65 85.5513 143.217 84.616C143.785 83.6653 144.567 82.9216 145.563 82.385C146.575 81.8483 147.725 81.58 149.013 81.58C150.209 81.58 151.26 81.8253 152.164 82.316C153.084 82.7913 153.782 83.4966 154.257 84.432L152.049 85.72C151.681 85.1373 151.229 84.708 150.692 84.432C150.171 84.156 149.604 84.018 148.99 84.018C148.285 84.018 147.649 84.1713 147.081 84.478C146.514 84.7846 146.069 85.2293 145.747 85.812C145.425 86.3793 145.264 87.0616 145.264 87.859C145.264 88.6563 145.425 89.3463 145.747 89.929C146.069 90.4963 146.514 90.9333 147.081 91.24C147.649 91.5466 148.285 91.7 148.99 91.7C149.604 91.7 150.171 91.562 150.692 91.286C151.229 91.01 151.681 90.5806 152.049 89.998L154.257 91.286C153.782 92.206 153.084 92.919 152.164 93.425C151.26 93.9156 150.209 94.161 149.013 94.161Z" fill="#CECECE"/>
<path d="M156.789 94V81.718H168.565V94H165.713V83.489L166.38 84.156H158.997L159.664 83.489V94H156.789Z" fill="#CECECE"/>
<path d="M179.896 94V91.516L179.735 90.987V86.64C179.735 85.7966 179.482 85.145 178.976 84.685C178.47 84.2096 177.703 83.972 176.676 83.972C175.986 83.972 175.304 84.0793 174.629 84.294C173.97 84.5086 173.41 84.8076 172.95 85.191L171.823 83.098C172.482 82.592 173.264 82.2163 174.169 81.971C175.089 81.7103 176.04 81.58 177.021 81.58C178.8 81.58 180.172 82.0093 181.138 82.868C182.119 83.7113 182.61 85.0223 182.61 86.801V94H179.896ZM176.032 94.161C175.112 94.161 174.307 94.0076 173.617 93.701C172.927 93.379 172.39 92.942 172.007 92.39C171.639 91.8226 171.455 91.1863 171.455 90.481C171.455 89.791 171.616 89.17 171.938 88.618C172.275 88.066 172.82 87.629 173.571 87.307C174.322 86.985 175.319 86.824 176.561 86.824H180.126V88.733H176.768C175.787 88.733 175.127 88.894 174.79 89.216C174.453 89.5226 174.284 89.906 174.284 90.366C174.284 90.8873 174.491 91.3013 174.905 91.608C175.319 91.9146 175.894 92.068 176.63 92.068C177.335 92.068 177.964 91.907 178.516 91.585C179.083 91.263 179.49 90.7876 179.735 90.159L180.218 91.884C179.942 92.6046 179.444 93.1643 178.723 93.563C178.018 93.9616 177.121 94.161 176.032 94.161Z" fill="#CECECE"/>
<path d="M191.756 94.161C190.468 94.161 189.318 93.8926 188.306 93.356C187.31 92.804 186.528 92.0526 185.96 91.102C185.393 90.1513 185.109 89.0703 185.109 87.859C185.109 86.6323 185.393 85.5513 185.96 84.616C186.528 83.6653 187.31 82.9216 188.306 82.385C189.318 81.8483 190.468 81.58 191.756 81.58C192.952 81.58 194.003 81.8253 194.907 82.316C195.827 82.7913 196.525 83.4966 197 84.432L194.792 85.72C194.424 85.1373 193.972 84.708 193.435 84.432C192.914 84.156 192.347 84.018 191.733 84.018C191.028 84.018 190.392 84.1713 189.824 84.478C189.257 84.7846 188.812 85.2293 188.49 85.812C188.168 86.3793 188.007 87.0616 188.007 87.859C188.007 88.6563 188.168 89.3463 188.49 89.929C188.812 90.4963 189.257 90.9333 189.824 91.24C190.392 91.5466 191.028 91.7 191.733 91.7C192.347 91.7 192.914 91.562 193.435 91.286C193.972 91.01 194.424 90.5806 194.792 89.998L197 91.286C196.525 92.206 195.827 92.919 194.907 93.425C194.003 93.9156 192.952 94.161 191.756 94.161Z" fill="#CECECE"/>
<path d="M199.532 94V81.718H202.407V89.814L209.192 81.718H211.814V94H208.939V85.904L202.177 94H199.532Z" fill="#CECECE"/>
<path d="M221.546 94.23C220.534 94.23 219.629 94.0766 218.832 93.77C218.035 93.4633 217.345 92.9956 216.762 92.367C216.195 91.723 215.758 90.9103 215.451 89.929C215.144 88.9476 214.991 87.7823 214.991 86.433C214.991 85.4516 215.075 84.5546 215.244 83.742C215.413 82.9293 215.666 82.201 216.003 81.557C216.34 80.8976 216.762 80.315 217.268 79.809C217.789 79.303 218.395 78.8813 219.085 78.544C219.775 78.2066 220.557 77.946 221.431 77.762L227.135 76.543L227.549 79.119L222.374 80.177C222.083 80.2383 221.73 80.3303 221.316 80.453C220.917 80.5603 220.503 80.729 220.074 80.959C219.66 81.1736 219.269 81.488 218.901 81.902C218.548 82.3006 218.257 82.822 218.027 83.466C217.812 84.0946 217.705 84.8843 217.705 85.835C217.705 86.1263 217.713 86.3486 217.728 86.502C217.759 86.64 217.782 86.7933 217.797 86.962C217.828 87.1153 217.843 87.3453 217.843 87.652L216.762 86.525C217.069 85.743 217.49 85.076 218.027 84.524C218.579 83.9566 219.215 83.5273 219.936 83.236C220.672 82.9293 221.469 82.776 222.328 82.776C223.478 82.776 224.498 83.0136 225.387 83.489C226.276 83.9643 226.974 84.6313 227.48 85.49C227.986 86.3486 228.239 87.3223 228.239 88.411C228.239 89.5456 227.963 90.55 227.411 91.424C226.859 92.298 226.077 92.988 225.065 93.494C224.068 93.9846 222.895 94.23 221.546 94.23ZM221.776 91.907C222.466 91.907 223.072 91.7613 223.593 91.47C224.13 91.1633 224.544 90.7493 224.835 90.228C225.142 89.7066 225.295 89.124 225.295 88.48C225.295 87.836 225.142 87.2763 224.835 86.801C224.544 86.3103 224.13 85.9193 223.593 85.628C223.072 85.3366 222.451 85.191 221.73 85.191C221.04 85.191 220.419 85.329 219.867 85.605C219.33 85.881 218.909 86.2643 218.602 86.755C218.311 87.2303 218.165 87.7823 218.165 88.411C218.165 89.055 218.318 89.6453 218.625 90.182C218.932 90.7186 219.353 91.1403 219.89 91.447C220.442 91.7536 221.071 91.907 221.776 91.907Z" fill="#CECECE"/>
<path d="M236.496 94.161C235.239 94.161 234.119 93.8926 233.138 93.356C232.157 92.804 231.382 92.0526 230.815 91.102C230.248 90.1513 229.964 89.0703 229.964 87.859C229.964 86.6323 230.248 85.5513 230.815 84.616C231.382 83.6653 232.157 82.9216 233.138 82.385C234.119 81.8483 235.239 81.58 236.496 81.58C237.769 81.58 238.896 81.8483 239.877 82.385C240.874 82.9216 241.648 83.6576 242.2 84.593C242.767 85.5283 243.051 86.617 243.051 87.859C243.051 89.0703 242.767 90.1513 242.2 91.102C241.648 92.0526 240.874 92.804 239.877 93.356C238.896 93.8926 237.769 94.161 236.496 94.161ZM236.496 91.7C237.201 91.7 237.83 91.5466 238.382 91.24C238.934 90.9333 239.363 90.4886 239.67 89.906C239.992 89.3233 240.153 88.641 240.153 87.859C240.153 87.0616 239.992 86.3793 239.67 85.812C239.363 85.2293 238.934 84.7846 238.382 84.478C237.83 84.1713 237.209 84.018 236.519 84.018C235.814 84.018 235.185 84.1713 234.633 84.478C234.096 84.7846 233.667 85.2293 233.345 85.812C233.023 86.3793 232.862 87.0616 232.862 87.859C232.862 88.641 233.023 89.3233 233.345 89.906C233.667 90.4886 234.096 90.9333 234.633 91.24C235.185 91.5466 235.806 91.7 236.496 91.7Z" fill="#CECECE"/>
<path d="M15.995 60V17.9619L18.0902 20.1246H0.382812V12.6902H40.3933V20.1246H22.686L24.7135 17.9619V60H15.995Z" fill="#F15929"/>
<path d="M43.9833 60V12.6902H52.6342V46.2802L78.0463 12.6902H86.2241V60H77.5732V26.4776L52.1611 60H43.9833Z" fill="#F15929"/>
<path d="M95.5012 60V12.6902H102.665L123.414 47.2263H119.562L139.972 12.6902H147.136L147.272 60H138.891L138.823 25.7342H140.581L123.279 54.5931H119.359L101.787 25.7342H103.814V60H95.5012Z" fill="#F15929"/>
<path d="M180.516 56.9586C174.569 56.9586 169.5 56.1476 165.309 54.5256C161.164 52.9035 157.988 50.5606 155.78 47.4967C153.572 44.3878 152.468 40.648 152.468 36.2775C152.468 31.8169 153.572 28.0546 155.78 24.9908C157.988 21.9269 161.164 19.5839 165.309 17.9619C169.5 16.3398 174.569 15.5288 180.516 15.5288C180.606 15.5288 180.809 15.5288 181.124 15.5288C181.485 15.5288 181.823 15.5288 182.138 15.5288C182.499 15.5288 182.701 15.5288 182.747 15.5288C188.649 15.5288 193.673 16.3398 197.818 17.9619C201.963 19.5839 205.117 21.9494 207.28 25.0584C209.443 28.1222 210.524 31.8619 210.524 36.2775C210.524 40.603 209.443 44.3202 207.28 47.4291C205.162 50.538 202.053 52.9035 197.953 54.5256C193.898 56.1476 188.942 56.9586 183.084 56.9586C182.994 56.9586 182.746 56.9586 182.341 56.9586C181.981 56.9586 181.598 56.9586 181.192 56.9586C180.832 56.9586 180.606 56.9586 180.516 56.9586ZM181.395 50.1325C181.485 50.1325 181.62 50.1325 181.8 50.1325C181.981 50.1325 182.093 50.1325 182.138 50.1325C186.509 50.0875 190.158 49.5468 193.087 48.5105C196.061 47.4742 198.291 45.9422 199.778 43.9147C201.31 41.842 202.076 39.2738 202.076 36.2099C202.076 33.1461 201.31 30.6004 199.778 28.5728C198.246 26.5452 196.016 25.0133 193.087 23.977C190.158 22.9407 186.554 22.4225 182.273 22.4225C182.228 22.4225 182.093 22.4225 181.868 22.4225C181.643 22.4225 181.485 22.4225 181.395 22.4225C176.934 22.4225 173.172 22.9407 170.108 23.977C167.089 24.9682 164.814 26.5002 163.282 28.5728C161.795 30.6004 161.052 33.1686 161.052 36.2775C161.052 39.3864 161.84 41.9772 163.417 44.0498C165.039 46.0774 167.36 47.6093 170.378 48.6456C173.397 49.6369 177.069 50.1325 181.395 50.1325ZM177.475 61.8924V10.7979H185.585V61.8924H177.475Z" fill="#F15929"/>
<path d="M237.661 60.6758C233.966 60.6758 230.565 60.0676 227.456 58.851C224.347 57.6345 221.643 55.9449 219.346 53.7821C217.048 51.5743 215.268 49.0061 214.006 46.0774C212.745 43.1036 212.114 39.8595 212.114 36.3451C212.114 32.8307 212.745 29.6091 214.006 26.6804C215.268 23.7067 217.048 21.1384 219.346 18.9757C221.643 16.7679 224.347 15.0557 227.456 13.8392C230.565 12.6227 233.944 12.0144 237.594 12.0144C241.288 12.0144 244.668 12.6227 247.731 13.8392C250.84 15.0557 253.544 16.7679 255.842 18.9757C258.14 21.1384 259.919 23.7067 261.181 26.6804C262.442 29.6091 263.073 32.8307 263.073 36.3451C263.073 39.8595 262.442 43.1036 261.181 46.0774C259.919 49.0511 258.14 51.6194 255.842 53.7821C253.544 55.9449 250.84 57.6345 247.731 58.851C244.668 60.0676 241.311 60.6758 237.661 60.6758ZM237.594 52.9711C239.982 52.9711 242.189 52.5656 244.217 51.7546C246.245 50.9435 248.002 49.7946 249.489 48.3077C250.975 46.7758 252.124 45.0186 252.935 43.0361C253.792 41.0085 254.22 38.7782 254.22 36.3451C254.22 33.912 253.792 31.7042 252.935 29.7217C252.124 27.6942 250.975 25.937 249.489 24.4501C248.002 22.9182 246.245 21.7467 244.217 20.9357C242.189 20.1246 239.982 19.7191 237.594 19.7191C235.206 19.7191 232.998 20.1246 230.97 20.9357C228.988 21.7467 227.23 22.9182 225.699 24.4501C224.212 25.937 223.04 27.6942 222.184 29.7217C221.373 31.7042 220.968 33.912 220.968 36.3451C220.968 38.7331 221.373 40.9409 222.184 42.9685C223.04 44.996 224.212 46.7758 225.699 48.3077C227.185 49.7946 228.943 50.9435 230.97 51.7546C232.998 52.5656 235.206 52.9711 237.594 52.9711Z" fill="#F15929"/>
<path d="M268.732 60V12.6902H288.197C292.387 12.6902 295.969 13.3661 298.943 14.7178C301.961 16.0695 304.282 18.007 305.904 20.5301C307.526 23.0533 308.337 26.0496 308.337 29.519C308.337 32.9884 307.526 35.9847 305.904 38.5078C304.282 41.031 301.961 42.9685 298.943 44.3202C295.969 45.6719 292.387 46.3477 288.197 46.3477H273.598L277.518 42.225V60H268.732ZM277.518 43.1712L273.598 38.9134H287.791C291.666 38.9134 294.572 38.1023 296.51 36.4803C298.492 34.8132 299.483 32.4927 299.483 29.519C299.483 26.5002 298.492 24.1797 296.51 22.5577C294.572 20.9357 291.666 20.1246 287.791 20.1246H273.598L277.518 15.7992V43.1712Z" fill="#F15929"/>
<path d="M335.016 60.6758C331.412 60.6758 328.055 60.0901 324.946 58.9186C321.882 57.7021 319.201 56.0124 316.903 53.8497C314.651 51.6419 312.893 49.0511 311.632 46.0774C310.37 43.1036 309.739 39.8595 309.739 36.3451C309.739 32.8307 310.37 29.5866 311.632 26.6128C312.893 23.6391 314.673 21.0708 316.971 18.9081C319.269 16.7003 321.95 15.0107 325.014 13.8392C328.077 12.6227 331.434 12.0144 335.084 12.0144C338.959 12.0144 342.496 12.6902 345.695 14.0419C348.894 15.3486 351.597 17.3086 353.805 19.9219L348.128 25.2611C346.416 23.4138 344.501 22.0395 342.383 21.1384C340.265 20.1922 337.967 19.7191 335.489 19.7191C333.011 19.7191 330.736 20.1246 328.663 20.9357C326.636 21.7467 324.856 22.8956 323.324 24.3825C321.837 25.8694 320.666 27.6266 319.81 29.6542C318.999 31.6817 318.593 33.912 318.593 36.3451C318.593 38.7782 318.999 41.0085 319.81 43.0361C320.666 45.0636 321.837 46.8208 323.324 48.3077C324.856 49.7946 326.636 50.9435 328.663 51.7546C330.736 52.5656 333.011 52.9711 335.489 52.9711C337.967 52.9711 340.265 52.5205 342.383 51.6194C344.501 50.6732 346.416 49.2539 348.128 47.3615L353.805 52.7683C351.597 55.3366 348.894 57.2966 345.695 58.6483C342.496 60 338.936 60.6758 335.016 60.6758Z" fill="#F15929"/>
<path d="M365.022 29.373C362.589 29.373 360.268 29.0576 358.06 28.4268C355.853 27.796 354.14 27.0075 352.924 26.0613L355.289 21.5331C356.461 22.3892 357.903 23.065 359.615 23.5607C361.327 24.0563 363.129 24.3041 365.022 24.3041C367.274 24.3041 368.942 23.9662 370.023 23.2903C371.104 22.5694 371.645 21.6232 371.645 20.4517C371.645 19.2352 371.127 18.289 370.091 17.6132C369.099 16.9373 367.522 16.5994 365.36 16.5994H361.845V12.6794L370.766 3.42024L371.645 5.65056H354.005V0.852001H376.241V4.63678L367.32 13.8284L364.549 12.1388H366.508C370.158 12.1388 372.929 12.9047 374.821 14.4367C376.759 15.9686 377.728 17.9736 377.728 20.4517C377.728 22.0287 377.255 23.4931 376.308 24.8448C375.362 26.1965 373.943 27.3004 372.05 28.1565C370.203 28.9675 367.86 29.373 365.022 29.373Z" fill="#F15929"/>
<path d="M392.17 29.373C387.844 29.373 384.488 28.1565 382.1 25.7234C379.712 23.2903 378.518 19.8885 378.518 15.518C378.518 12.4091 379.171 9.72821 380.478 7.47536C381.784 5.22252 383.632 3.48783 386.02 2.2713C388.408 1.0097 391.224 0.378906 394.468 0.378906C395.955 0.378906 397.396 0.536605 398.793 0.852001C400.235 1.1674 401.474 1.59544 402.51 2.13612L400.348 6.73193C399.492 6.28136 398.545 5.94343 397.509 5.71815C396.518 5.49286 395.481 5.38022 394.4 5.38022C391.336 5.38022 388.926 6.21377 387.168 7.88088C385.411 9.50292 384.533 11.6882 384.533 14.4367C384.533 15.0224 384.555 15.6532 384.6 16.329C384.69 16.9598 384.803 17.5906 384.938 18.2214L383.451 16.0587C383.992 14.7521 385.096 13.6707 386.763 12.8146C388.475 11.9135 390.548 11.4629 392.981 11.4629C395.008 11.4629 396.811 11.8234 398.388 12.5443C400.01 13.2652 401.294 14.279 402.24 15.5856C403.186 16.8923 403.659 18.4017 403.659 20.1138C403.659 21.9161 403.164 23.5156 402.172 24.9124C401.181 26.3091 399.829 27.413 398.117 28.2241C396.405 28.99 394.423 29.373 392.17 29.373ZM391.899 24.8448C393.702 24.8448 395.098 24.4393 396.09 23.6283C397.126 22.8172 397.644 21.7359 397.644 20.3842C397.644 19.0325 397.126 17.9511 396.09 17.1401C395.098 16.284 393.657 15.8559 391.764 15.8559C389.917 15.8559 388.408 16.284 387.236 17.1401C386.11 17.9511 385.546 19.0325 385.546 20.3842C385.546 21.1501 385.772 21.871 386.222 22.5469C386.673 23.2227 387.371 23.786 388.317 24.2365C389.264 24.642 390.458 24.8448 391.899 24.8448Z" fill="#F15929"/>
<path d="M415.939 29.373C412.109 29.373 409 28.0889 406.612 25.5206C404.224 22.9524 403.03 19.3929 403.03 14.8422C403.03 10.3365 404.224 6.79951 406.612 4.23127C409 1.66303 412.109 0.378906 415.939 0.378906C419.769 0.378906 422.877 1.66303 425.265 4.23127C427.653 6.79951 428.847 10.3365 428.847 14.8422C428.847 19.3929 427.653 22.9524 425.265 25.5206C422.877 28.0889 419.769 29.373 415.939 29.373ZM415.939 24.3041C417.966 24.3041 419.611 23.5381 420.872 22.0062C422.179 20.4292 422.832 18.0412 422.832 14.8422C422.832 11.6431 422.179 9.27764 420.872 7.7457C419.611 6.21377 417.966 5.4478 415.939 5.4478C413.911 5.4478 412.244 6.21377 410.937 7.7457C409.676 9.27764 409.045 11.6431 409.045 14.8422C409.045 18.0412 409.676 20.4292 410.937 22.0062C412.244 23.5381 413.911 24.3041 415.939 24.3041Z" fill="#F15929"/>
</svg>
