<svg width="244" height="246" viewBox="0 0 244 246" fill="none" xmlns="http://www.w3.org/2000/svg">
<g clip-path="url(#clip0_15441_75525)">
<path d="M188.077 180.251C187.789 179.648 187.179 179.288 186.511 179.254C177.736 178.813 164.247 178.489 159.162 178.213C158.292 178.166 157.583 177.538 157.397 176.686C155.687 168.87 153.2 157.611 152.166 152.108C152.159 152.07 152.177 152.033 152.208 152.009C158.815 147.743 164.754 136.216 155.894 119.955C155.549 119.322 154.873 118.933 154.152 118.948C142.128 119.209 131.035 121.941 120.764 127.984C120.097 128.377 119.732 129.129 119.816 129.899C119.95 131.118 120.068 132.217 120.162 133.146C120.248 133.993 119.761 134.805 118.986 135.157C89.1414 148.697 83.3212 152.806 82.1926 159.651C80.8725 167.703 87.8294 179.174 108.158 212.731C108.437 213.192 108.895 213.538 109.425 213.63C116.964 214.931 127.646 210.898 130.846 204.461C131.095 203.958 131.063 203.377 130.814 202.874C127.567 196.32 118.826 178.729 114.727 171.047C114.146 169.959 114.654 168.602 115.81 168.174C120.798 166.33 126.127 164.278 131.309 162.123C133.409 161.251 135.495 164.274 133.923 165.917C132.358 167.552 130.929 169.083 129.887 170.26C129.428 170.779 129.291 171.501 129.507 172.159C133.263 183.604 137.619 196.451 142.327 198.628C147.955 201.23 150.57 202.003 186.769 202.013C187.262 202.014 187.765 201.842 188.078 201.462C191.504 197.3 190.797 185.938 188.077 180.251Z" fill="#F15929"/>
<path d="M72.5918 37.3902C71.6233 36.8662 70.4122 37.2231 69.9007 38.1983C69.2445 39.4494 68.6312 40.6698 68.0527 41.8438C61.3573 55.6577 60.0381 64.7923 60.0617 71.6122C60.0866 74.9723 60.4102 77.76 60.5857 80.2988C60.5857 80.3142 60.5939 80.3285 60.6073 80.3362C60.7846 80.4391 60.9582 80.542 61.1352 80.6477C61.6473 80.9536 62.2676 80.7417 62.7471 80.387C63.5225 79.8132 64.4416 80.2049 66.3104 81.1202C69.6706 82.7629 69.9941 82.9123 70.2404 85.2768C70.2751 85.6926 70.7191 85.9098 71.0846 85.7085C73.2407 84.5212 75.6604 83.2812 78.3794 81.5381C84.129 77.8295 91.0485 71.7563 98.9386 58.5895C99.6205 57.4473 100.314 56.2719 101.011 55.0356C101.553 54.0749 101.19 52.863 100.22 52.3382L72.5918 37.3902ZM82.2658 63.4881C81.4418 63.6139 80.7822 64.2375 80.6105 65.0532L80.4855 65.6467C80.0952 67.5008 77.5854 67.8233 76.739 66.128L76.4735 65.5962C76.0982 64.8444 75.2931 64.4074 74.4583 64.5023L73.9131 64.5643C72.0275 64.7785 70.9315 62.4919 72.2797 61.1562L72.6968 60.7429C73.2905 60.1548 73.4559 59.2594 73.1115 58.4979L72.8639 57.9506C72.0831 56.2242 73.9172 54.4809 75.6017 55.3482L76.1348 55.6227C76.8765 56.0046 77.7774 55.8859 78.395 55.325L78.8286 54.9311C80.2301 53.6581 82.4517 54.8644 82.1473 56.7331L82.0473 57.347C81.9128 58.1732 82.307 58.9958 83.0353 59.4085L83.5211 59.6838C85.1727 60.6197 84.7134 63.1146 82.8368 63.401L82.2658 63.4881Z" fill="#F15929"/>
<path d="M200.804 26.4531C200.096 26.1408 199.508 26.8061 199.504 27.5802C199.499 28.6678 200.612 29.443 201.483 28.7911C201.836 28.527 202.029 28.2532 202.086 27.9795C202.222 27.3382 201.532 26.7739 200.804 26.4531Z" fill="#FFF0D9"/>
<path d="M191.37 181.717C191.124 181.476 190.796 181.344 190.451 181.347C189.525 181.356 188.963 182.314 189.228 183.202C190.689 188.106 190.761 194.553 189.527 198.63C189.323 199.302 189.401 200.043 189.868 200.567C192.8 203.859 198.99 208.13 204.579 210.29C205.841 210.777 207.094 209.767 206.837 208.439C204.931 198.576 195.745 185.993 191.37 181.717Z" fill="#FFF0D9"/>
<path d="M185.33 27.7589C185.13 27.094 184.444 26.7109 183.804 26.9793C183.285 27.1969 182.792 27.5799 182.792 28.2044C182.792 28.532 183.005 28.8804 183.484 29.2058C184.439 29.8553 185.668 28.9977 185.365 27.8827C185.354 27.8413 185.342 27.8 185.33 27.7589Z" fill="#FFF0D9"/>
<path d="M157.596 95.5391C156.92 95.9152 156.522 96.6589 156.577 97.4308C156.741 99.743 160.694 100.176 161.343 97.9513C161.408 97.7315 161.471 97.5141 161.534 97.2993C162.038 95.5753 160.193 94.0952 158.623 94.9681L157.596 95.5391Z" fill="#FFF0D9"/>
<path d="M148.398 45.4567C147.638 45.5064 146.335 45.1582 145.618 44.9016C144.834 44.6215 142.118 44.5356 141.296 44.6662C141.265 44.6712 141.233 44.6769 141.201 44.6833C140.383 44.848 138.176 44.9453 137.354 45.0912C137.292 45.1022 137.23 45.1153 137.168 45.1305C136.29 45.3455 133.583 45.9307 132.896 46.5178C132.422 46.9223 132.019 47.5425 131.871 48.3375C131.646 49.5379 131.433 50.6818 131.243 51.7691C130.992 53.2014 132.338 54.3764 133.764 54.0939C135.189 53.8117 136.63 53.6201 138.079 53.5204C139.383 53.4306 140.334 54.6827 140.291 55.9888C140.234 57.7266 140.622 58.878 141.404 57.2232C142.524 54.8089 145.386 56.6258 143.369 59.7869C143.044 60.4412 142.91 61.1746 142.985 61.9016C143.064 62.6569 143.937 62.4826 144.096 61.7399C145.118 56.9614 148.289 51.5808 149.367 49.2086C150.54 46.6406 149.671 45.3734 148.398 45.4567Z" fill="#FFF0D9"/>
<path d="M128.564 163.252C127.573 163.648 127.061 164.748 127.398 165.76C127.607 166.386 127.818 167.024 128.032 167.673C128.523 169.164 130.49 169.572 131.571 168.434C132.147 167.827 132.772 167.181 133.426 166.514C135.049 164.859 132.794 161.527 130.649 162.406C129.953 162.692 129.257 162.974 128.564 163.252Z" fill="#FFF0D9"/>
<path d="M136.848 68.3701C136.411 68.5274 136.106 68.935 136.081 69.3982C136.03 70.3658 137.096 70.983 137.734 70.2536C137.871 70.0966 138.004 69.9357 138.132 69.7712C138.774 68.9481 137.829 68.0161 136.848 68.3701Z" fill="#FFF0D9"/>
<path d="M128.686 207.496C129.485 206.673 130.8 206.456 131.633 207.246C131.913 207.512 132.187 207.786 132.452 208.068C132.968 208.614 133.086 209.418 132.777 210.102C127.876 220.956 118.999 230.314 113.364 234.949C112.107 235.983 110.395 234.998 110.57 233.38C111.251 227.073 112.657 220.862 114.763 214.871C115.009 214.17 115.632 213.68 116.362 213.547C120.888 212.72 125.678 210.594 128.686 207.496Z" fill="#FFF0D9"/>
<path d="M117.391 109.343C117.189 107.591 114.939 106.893 113.731 108.178C113.093 108.856 112.399 109.577 111.66 110.322C110.02 111.974 112.067 115.515 114.194 114.57C114.97 114.226 115.743 113.874 116.513 113.516C117.289 113.154 117.74 112.333 117.64 111.482C117.555 110.759 117.472 110.044 117.391 109.343Z" fill="#FFF0D9"/>
<path d="M73.7283 88.8353C73.3836 88.6316 72.8812 88.7139 72.3824 89.0573C71.7659 89.4817 71.7455 90.3712 72.2607 90.9141C73.0875 91.7856 74.4817 91.0735 74.2948 89.8868C74.2088 89.3406 74.0032 88.9974 73.7283 88.8353Z" fill="#FFF0D9"/>
<path d="M66.2579 103.86C67.0172 104.315 67.177 105.381 66.4417 105.874C65.8876 106.246 65.436 106.339 65.093 106.233C64.6208 106.087 64.3937 105.503 64.385 104.726C64.3746 103.792 65.457 103.379 66.2579 103.86Z" fill="#FFF0D9"/>
<path d="M48.8382 197.28C52.9758 197.28 56.3301 193.925 56.3301 189.788C56.3301 185.65 52.9758 182.296 48.8382 182.296C44.7006 182.296 41.3463 185.65 41.3463 189.788C41.3463 193.925 44.7006 197.28 48.8382 197.28Z" fill="#FFF0D9"/>
<path d="M60.5853 100.557C60.6313 98.4641 61.549 96.2432 63.0788 93.3249C63.325 92.8552 63.3702 92.3095 63.2666 91.7894C63.0737 90.8206 63.0489 89.8236 63.1953 88.8425C63.3827 87.5877 63.8455 86.3899 64.5507 85.3352C64.259 85.7862 63.9359 86.2156 63.5841 86.6204C63.2491 87.0058 63.1818 87.5562 63.2149 88.0657C63.2964 89.3208 62.3622 90.6224 60.8473 90.1769C60.7066 90.1356 60.5622 90.3 60.6406 90.424C60.6533 90.4441 60.6717 90.4613 60.6923 90.4732C63.0757 91.8551 61.796 94.8009 59.3964 94.2263C59.2832 94.1992 59.1717 94.3782 59.2581 94.4562C59.2643 94.4618 59.2715 94.4667 59.2788 94.4707C61.8512 95.8433 60.234 99.1421 57.4505 97.9243C56.6303 97.5561 55.9114 97.2553 55.2787 96.9919C54.7456 96.7699 54.2576 96.7795 53.7733 97.094C52.307 98.0461 51.2947 101.434 52.8322 102.267L56.4321 104.216C58.0196 105.076 60.5317 102.362 60.5853 100.557Z" fill="#FFF0D9"/>
<path d="M46.041 98.5995C45.1753 98.1305 44.097 98.3613 43.4991 99.1436L41.2779 102.05C40.5322 103.026 40.8339 104.437 41.9135 105.023L60.4295 115.065C61.5085 115.65 62.8552 115.134 63.267 113.978L64.497 110.524C64.8278 109.596 64.4325 108.564 63.5657 108.095L46.041 98.5995Z" fill="#FFF0D9"/>
<path d="M67.6807 104.74C65.3227 103.197 62.6031 101.828 60.5621 100.509" stroke="black" stroke-linecap="round" stroke-linejoin="round"/>
<path d="M130.651 55.6324L126.757 14.7829C126.557 12.6937 123.685 12.2825 122.908 14.2319L89.7816 97.2983" stroke="black" stroke-linecap="round" stroke-linejoin="round"/>
<path d="M132.866 79.0765L131.87 68.3987" stroke="black" stroke-linecap="round" stroke-linejoin="round"/>
<path d="M185.208 179.186L217.903 97.1975C218.484 95.742 217.241 94.2146 215.698 94.4871L159.472 104.416" stroke="black" stroke-linecap="round" stroke-linejoin="round"/>
<path d="M149.617 200.89L154.034 247.216C154.233 249.305 157.105 249.716 157.882 247.767L176.15 201.96" stroke="black" stroke-linecap="round" stroke-linejoin="round"/>
<path d="M82.2142 116.263L62.8605 164.799C62.28 166.255 63.5231 167.782 65.0662 167.51L82.2391 164.475" stroke="black" stroke-linecap="round" stroke-linejoin="round"/>
<path d="M68.077 41.8923L56.8923 35.8483C55.9211 35.3234 54.7035 35.6829 54.2215 36.6761C45.3723 54.9078 54.4209 68.5984 60.0873 71.6607" stroke="black" stroke-linecap="round" stroke-linejoin="round"/>
<path d="M76.4938 65.6059C76.1175 64.8613 75.3186 64.4286 74.4894 64.5201L73.9043 64.5847C72.0213 64.7926 70.9315 62.5096 72.2771 61.1761L72.6905 60.7665C73.2841 60.1783 73.4494 59.2831 73.105 58.5217L72.8562 57.9717C72.0755 56.2456 73.9089 54.5023 75.5935 55.369L76.1253 55.6426C76.8685 56.025 77.7711 55.9049 78.3885 55.3414L78.8114 54.9554C80.2121 53.6771 82.4393 54.8837 82.1335 56.7552L82.0409 57.3216C81.9062 58.1461 82.2982 58.9675 83.0239 59.3814L83.5488 59.6809C85.1949 60.6198 84.7338 63.1083 82.8606 63.3951L82.2743 63.4849C81.4461 63.6117 80.7847 64.2412 80.6173 65.0622L80.5024 65.6256C80.1235 67.4835 77.6131 67.8203 76.7577 66.128L76.4938 65.6059Z" stroke="black" stroke-linecap="round" stroke-linejoin="round"/>
<path d="M99.0288 58.623L110.131 64.6603C111.1 65.1874 111.464 66.4031 110.896 67.349C100.458 84.7268 84.0521 84.6312 78.4083 81.5689" stroke="black" stroke-linecap="round" stroke-linejoin="round"/>
<path d="M59.1252 218.292C67.2348 218.292 73.809 211.718 73.809 203.608C73.809 195.498 67.2348 188.924 59.1252 188.924C51.0155 188.924 44.4414 195.498 44.4414 203.608C44.4414 211.718 51.0155 218.292 59.1252 218.292Z" stroke="black" stroke-linecap="round" stroke-linejoin="round"/>
<path d="M219.284 57.7977C221.786 57.7977 223.814 55.7696 223.814 53.2678C223.814 50.7659 221.786 48.7378 219.284 48.7378C216.782 48.7378 214.754 50.7659 214.754 53.2678C214.754 55.7696 216.782 57.7977 219.284 57.7977Z" stroke="black" stroke-linecap="round" stroke-linejoin="round"/>
<path d="M43.3612 133.239C44.6396 133.239 45.6759 132.203 45.6759 130.925C45.6759 129.646 44.6396 128.61 43.3612 128.61C42.0827 128.61 41.0464 129.646 41.0464 130.925C41.0464 132.203 42.0827 133.239 43.3612 133.239Z" stroke="black" stroke-linecap="round" stroke-linejoin="round"/>
<path d="M161.738 19.5405L160.172 25.8067C159.82 27.2126 161.034 28.514 162.461 28.261L163.405 28.0937C164.832 27.8407 166.046 29.1421 165.694 30.5481L164.128 36.8142" stroke="black" stroke-linecap="round" stroke-linejoin="round"/>
<path d="M58.7213 93.9628C61.5378 95.299 63.2735 91.9257 60.6378 90.4258C58.6728 89.3083 57.2528 88.6075 55.6598 87.7874C55.1852 87.5134 54.6232 87.4329 54.0908 87.5629C53.5584 87.6929 53.0965 88.023 52.8015 88.4849C52.5065 88.9467 52.4009 89.5045 52.5068 90.0422C52.6126 90.58 52.9218 91.056 53.3699 91.3716C54.638 92.172 56.1366 92.7366 58.7213 93.9628Z" stroke="black" stroke-linecap="round" stroke-linejoin="round"/>
<path d="M62.0794 81.2195C61.0838 80.6221 60.3646 80.2187 59.3912 79.6475C58.932 79.3475 58.374 79.2381 57.8355 79.3425C57.2971 79.4468 56.8204 79.7568 56.5065 80.2066C56.1926 80.6565 56.0661 81.2107 56.154 81.7523C56.2417 82.2937 56.5369 82.7796 56.9769 83.1072C58.0414 83.8176 59.1561 84.4498 60.3122 84.9989" stroke="black" stroke-linecap="round" stroke-linejoin="round"/>
<path d="M57.4737 97.9209C60.2365 99.1405 61.853 95.834 59.2658 94.4611C57.3479 93.4433 55.9266 92.8014 54.3873 92.0717C53.9229 91.8107 53.3754 91.7403 52.8599 91.8749C52.3444 92.0096 51.9013 92.3391 51.624 92.7938C51.3466 93.2486 51.2564 93.7933 51.3726 94.3132C51.4888 94.8332 51.8022 95.2877 52.2468 95.5812C53.4913 96.3017 54.9349 96.8008 57.4737 97.9209Z" stroke="black" stroke-linecap="round" stroke-linejoin="round"/>
<path d="M60.26 85.1011C59.2395 84.5535 58.3383 84.1409 57.3479 83.6077C56.8726 83.3127 56.3012 83.2141 55.7545 83.3327C55.2079 83.4513 54.7287 83.7779 54.4183 84.2433C54.1081 84.7088 53.991 85.2766 54.0918 85.8268C54.1925 86.3772 54.5034 86.8666 54.9585 87.1919C56.2514 88.0407 57.7265 88.6499 60.3295 89.9547C62.4988 91.0406 63.7145 88.735 62.9678 87.2168" stroke="black" stroke-linecap="round" stroke-linejoin="round"/>
<path d="M71.5137 89.9311C72.2356 88.9106 73.1761 88.5215 73.729 88.8359C74.7154 89.3992 74.7979 92.2708 71.7378 98.319C68.4759 104.766 66.186 106.588 65.0672 106.234C64.2943 105.989 64.1712 104.467 64.6441 102.924" stroke="black" stroke-linecap="round" stroke-linejoin="round"/>
<path d="M74.1463 92.1464C72.4538 91.4495 70.7403 90.2063 70.2634 85.2768C70.0316 82.9188 69.6923 82.7603 66.3334 81.1202C62.4034 79.201 62.6248 79.548 59.6629 86.5211C58.9346 88.2359 61.6043 90.0058 64.6907 85.0277C62.2764 88.8359 62.7257 92.6258 64.9396 95.0335" stroke="black" stroke-linecap="round" stroke-linejoin="round"/>
<path d="M194.666 16.6795C194.42 19.7907 190.646 19.8903 190.659 16.8786C190.668 14.6385 190.764 13.0455 190.858 11.2534C191.015 8.26659 194.999 8.29148 195.089 10.7556C195.147 12.249 194.895 13.8171 194.666 16.6795Z" stroke="black" stroke-linecap="round" stroke-linejoin="round"/>
<path d="M181.997 14.3922C181.973 13.2971 181.99 12.4979 181.973 11.4525C181.927 8.61508 185.969 8.4867 186.154 10.8552C186.239 12.065 186.239 13.2793 186.154 14.4892" stroke="black" stroke-linecap="round" stroke-linejoin="round"/>
<path d="M198.95 17.4031C198.638 20.441 194.979 20.4397 195.092 17.5027C195.176 15.3373 195.312 13.7941 195.44 12.0767C195.656 9.19469 199.522 9.31389 199.522 11.6837C199.522 13.1221 199.234 14.6417 198.95 17.4031Z" stroke="black" stroke-linecap="round" stroke-linejoin="round"/>
<path d="M186.255 14.464C186.28 13.2941 186.378 12.2985 186.404 11.1784C186.475 8.14185 190.529 8.09207 190.685 10.5811C190.781 12.0994 190.561 13.6924 190.411 16.6071C190.42 17.0418 190.291 17.4681 190.039 17.8227C189.786 18.1773 189.427 18.4413 189.014 18.5754C188.601 18.7096 188.154 18.7067 187.743 18.5674C187.33 18.428 186.975 18.1595 186.728 17.8019" stroke="black" stroke-linecap="round" stroke-linejoin="round"/>
<path d="M184.862 26.7355C183.617 26.9347 182.821 27.532 182.821 28.1543C182.821 29.2743 185.235 30.6145 191.98 30.4939C199.149 30.3629 201.864 29.1001 202.111 27.9552C202.288 27.1338 201.24 26.3832 199.671 26.1382" stroke="black" stroke-linecap="round" stroke-linejoin="round"/>
<path d="M185.483 29.9709C185.707 28.1539 185.474 26.1012 181.476 23.5244C179.555 22.2864 179.583 21.9065 179.833 18.1979C180.129 13.8173 180.307 14.1867 187.798 14.564C189.64 14.657 189.839 17.8246 184.015 18.4219C188.495 17.9241 191.556 19.9651 192.53 22.9768" stroke="black" stroke-linecap="round" stroke-linejoin="round"/>
<path d="M199.547 29.6449C199.398 24.5176 199.94 16.2541 199.547 12.2717" stroke="black" stroke-linecap="round" stroke-linejoin="round"/>
<path d="M182.821 28.1804C182.868 34.1371 182.825 48.9893 182.45 56.7759C182.419 57.4076 182.086 57.9753 181.534 58.2841C177.666 60.4487 164.317 67.096 158.279 69.8961C152.262 72.6877 147.175 72.11 144.806 68.3162C141.531 63.0762 147.123 54.2638 149.391 49.2125C150.537 46.6638 149.696 45.3965 148.444 45.4589C147.674 45.4973 146.344 45.1563 145.615 44.9069V44.9069C144.825 44.6369 142.173 44.5485 141.347 44.6631C141.309 44.6683 141.272 44.6745 141.234 44.6816C140.401 44.839 138.175 44.9628 137.342 45.1182C137.29 45.128 137.238 45.1392 137.185 45.152C136.304 45.3663 133.614 45.9494 132.924 46.5367C132.451 46.9385 132.047 47.5533 131.893 48.3413C128.766 64.2613 129.603 69.6682 134.725 68.9386C136.548 68.6788 138.017 70.203 136.613 71.3954C136.36 71.6098 136.098 71.8133 135.826 72.0052" stroke="black" stroke-linecap="round" stroke-linejoin="round"/>
<path d="M202.113 27.979C202.113 63.049 202.494 64.7704 200.644 68.2261C198.216 72.7636 193.451 75.6088 157.625 95.5214C156.945 95.8995 156.525 96.6487 156.583 97.4249C156.944 102.29 157.385 107.798 157.385 111.709" stroke="black" stroke-linecap="round" stroke-linejoin="round"/>
<path d="M73.728 88.8354C81.048 93.2274 90.7006 97.738 93.7011 99.1256C94.2056 99.359 94.7714 99.3728 95.2844 99.1586C102.307 96.2257 121.622 87.4438 129.725 82.1151C134.652 78.8768 136.072 72.184 136.097 68.5999" stroke="black" stroke-linecap="round" stroke-linejoin="round"/>
<path d="M129.73 82.1355C132.991 85.5703 145.61 83.1835 148.87 71.3582" stroke="black" stroke-linecap="round" stroke-linejoin="round"/>
<path d="M130.75 54.8361C133.142 54.1368 135.6 53.6979 138.081 53.5254C139.384 53.4348 140.337 54.6838 140.292 55.9892C140.23 57.7519 140.619 58.9219 141.403 57.2256C142.543 54.7615 145.397 56.661 143.368 59.7893C143.038 60.4424 142.902 61.1767 142.978 61.9046C143.053 62.6327 143.336 63.3239 143.791 63.8961" stroke="black" stroke-linecap="round" stroke-linejoin="round"/>
<path d="M109.795 170.351C121.045 166.319 139.469 159.507 151.685 152.355C158.507 148.362 165.082 136.525 155.764 119.672C155.502 119.199 155.426 118.638 155.574 118.118C157.511 111.32 161.118 98.6175 162.942 92.5696" stroke="black" stroke-linecap="round" stroke-linejoin="round"/>
<path d="M132.517 129.056C90.8011 147.624 83.4926 151.857 82.1892 159.646C81.0834 166.255 83.8742 172.886 108.174 212.792C108.44 213.229 108.87 213.569 109.372 213.668C116.133 214.995 127.574 211.221 130.855 204.458C131.097 203.96 131.059 203.381 130.815 202.885C123.517 188.078 116.022 173.325 113.6 168.991" stroke="black" stroke-linecap="round" stroke-linejoin="round"/>
<path d="M126.817 163.954C131.098 176.449 136.45 195.888 142.349 198.626C148.21 201.346 150.508 201.904 186.847 202.009C187.288 202.01 187.744 201.878 188.036 201.548C191.099 198.091 191.197 186.347 188.051 180.185C187.756 179.607 187.159 179.264 186.511 179.231C177.651 178.771 164.325 178.472 159.184 178.191C158.312 178.143 157.6 177.512 157.416 176.658C155.695 168.699 153.21 157.325 152.223 151.982" stroke="black" stroke-linecap="round" stroke-linejoin="round"/>
<path d="M130.027 205.868C131.505 207.094 132.87 208.448 134.107 209.914C134.551 210.44 134.671 211.162 134.409 211.799C131.214 219.547 121.658 232.416 112.95 239.047C111.767 239.948 110.176 239.141 110.221 237.654C110.433 230.722 112.552 220.272 115.142 213.734" stroke="black" stroke-linecap="round" stroke-linejoin="round"/>
<path d="M179.833 178.963C183.119 182.646 184.737 195.216 179.336 201.986" stroke="black" stroke-linecap="round" stroke-linejoin="round"/>
<path d="M104.118 206.119C111.684 207.786 123.637 204.75 127.464 196.113" stroke="black" stroke-linecap="round" stroke-linejoin="round"/>
<path d="M110.191 237.254C115.02 234.217 127.465 222.668 133.239 208.958" stroke="black" stroke-linecap="round" stroke-linejoin="round"/>
<path d="M188.62 181.452C189.924 181.3 191.24 181.281 192.548 181.394C192.925 181.426 193.282 181.576 193.567 181.825C197.812 185.541 207.731 197.701 209.078 209.258C209.219 210.471 208.142 211.418 206.966 211.09C200.39 209.258 192.034 203.519 189.142 199.672" stroke="black" stroke-linecap="round" stroke-linejoin="round"/>
<path d="M190.985 181.353C195.57 185.584 206.666 200.741 207.163 211.146" stroke="black" stroke-linecap="round" stroke-linejoin="round"/>
<path d="M116.339 99.489C116.987 107.23 119.745 128.212 120.269 134.534" stroke="black" stroke-linecap="round" stroke-linejoin="round"/>
<path d="M155.344 118.926C141.256 119.026 129.658 122.51 119.677 128.633" stroke="black" stroke-linecap="round" stroke-linejoin="round"/>
<path d="M119.152 204.151C114.207 194.557 104.426 173.76 100.902 166.34C100.435 165.356 100.829 164.188 101.809 163.712C114.02 157.772 140.148 146.856 144.838 143.942C149.767 140.881 151.708 136.948 146.481 119.475" stroke="black" stroke-linecap="round" stroke-linejoin="round"/>
<path d="M65.0896 106.241C88.6604 120.496 92.445 122.042 98.3426 120.422C105.02 118.437 111.528 115.923 117.807 112.905" stroke="black" stroke-linecap="round" stroke-linejoin="round"/>
<path d="M100.51 119.799C107.159 115.393 114.3 107.727 116.863 104.668" stroke="black" stroke-linecap="round" stroke-linejoin="round"/>
<path d="M129.182 171.097C132.119 167.612 140.607 159.399 143.668 156.611" stroke="black" stroke-linecap="round" stroke-linejoin="round"/>
<path d="M34.5004 61.7556L35.3637 66.6354" stroke="black" stroke-linecap="round" stroke-linejoin="round"/>
<path d="M45.6754 69.5718L40.7957 70.4351" stroke="black" stroke-linecap="round" stroke-linejoin="round"/>
<path d="M37.8583 80.7467L36.995 75.8669" stroke="black" stroke-linecap="round" stroke-linejoin="round"/>
<path d="M26.6842 72.9282L31.5666 72.0649" stroke="black" stroke-linecap="round" stroke-linejoin="round"/>
<path d="M40.7955 70.436C40.1896 70.5433 39.5685 70.5301 38.9677 70.397C38.3671 70.264 37.7984 70.014 37.2945 69.6609C36.7905 69.308 36.3611 68.8591 36.0309 68.3401C35.7005 67.8209 35.4757 67.2419 35.3694 66.6357C35.4776 67.242 35.4651 67.8635 35.3326 68.4649C35.2001 69.0662 34.9502 69.6354 34.5973 70.14C34.2444 70.6446 33.7953 71.0745 33.2759 71.4052C32.7565 71.7358 32.177 71.9608 31.5704 72.067C32.1764 71.9591 32.7978 71.9718 33.3988 72.1043C34 72.2369 34.5689 72.4869 35.0732 72.8398C35.5776 73.1927 36.0073 73.6418 36.3378 74.161C36.6682 74.6803 36.893 75.2597 36.9991 75.866C36.8913 75.2601 36.904 74.6391 37.0364 74.038C37.1688 73.4371 37.4185 72.8682 37.7712 72.3638C38.1238 71.8595 38.5724 71.4296 39.0914 71.0988C39.6103 70.768 40.1893 70.5428 40.7955 70.436Z" stroke="black" stroke-linecap="round" stroke-linejoin="round"/>
<path d="M219.26 135.627L220.497 142.625" stroke="black" stroke-linecap="round" stroke-linejoin="round"/>
<path d="M235.281 146.838L228.283 148.075" stroke="black" stroke-linecap="round" stroke-linejoin="round"/>
<path d="M224.074 162.862L222.836 155.864" stroke="black" stroke-linecap="round" stroke-linejoin="round"/>
<path d="M208.049 151.651L215.051 150.414" stroke="black" stroke-linecap="round" stroke-linejoin="round"/>
<path d="M228.285 148.074C227.415 148.229 226.525 148.211 225.663 148.021C224.801 147.831 223.984 147.472 223.261 146.966C222.537 146.46 221.921 145.816 221.447 145.072C220.973 144.326 220.649 143.496 220.497 142.626C220.652 143.495 220.635 144.385 220.445 145.249C220.255 146.111 219.897 146.927 219.392 147.65C218.886 148.373 218.241 148.99 217.497 149.464C216.753 149.938 215.923 150.261 215.053 150.414C215.921 150.259 216.813 150.278 217.674 150.468C218.536 150.658 219.352 151.017 220.075 151.522C220.799 152.028 221.416 152.672 221.888 153.416C222.363 154.162 222.685 154.992 222.837 155.862C222.682 154.992 222.701 154.102 222.891 153.24C223.081 152.378 223.439 151.561 223.945 150.838C224.451 150.114 225.095 149.498 225.839 149.024C226.585 148.55 227.415 148.226 228.285 148.074Z" stroke="black" stroke-linecap="round" stroke-linejoin="round"/>
<path d="M72.5918 37.3902C71.6233 36.8662 70.4122 37.2231 69.9007 38.1983C69.2445 39.4494 68.6312 40.6698 68.0527 41.8438C61.3573 55.6577 60.0381 64.7923 60.0617 71.6122C60.0866 74.9723 60.4102 77.76 60.5857 80.2988V80.2988C60.5857 80.3142 60.5939 80.3285 60.6073 80.3362C60.7846 80.4391 60.9582 80.542 61.1352 80.6477C61.6473 80.9536 62.2676 80.7417 62.7471 80.387C63.5225 79.8132 64.4416 80.2049 66.3104 81.1202C69.6706 82.7629 69.9941 82.9123 70.2404 85.2768V85.2768C70.2751 85.6926 70.7191 85.9098 71.0846 85.7085C73.2407 84.5212 75.6604 83.2812 78.3794 81.5381C84.129 77.8295 91.0485 71.7563 98.9386 58.5895C99.6205 57.4473 100.314 56.2719 101.011 55.0356C101.553 54.0749 101.19 52.863 100.22 52.3382L72.5918 37.3902ZM82.2658 63.4881C81.4418 63.6139 80.7822 64.2375 80.6105 65.0532L80.4855 65.6467C80.0952 67.5008 77.5854 67.8233 76.739 66.128L76.4735 65.5962C76.0982 64.8444 75.2931 64.4074 74.4583 64.5023L73.9131 64.5643C72.0275 64.7785 70.9315 62.4919 72.2797 61.1562L72.6968 60.7429C73.2905 60.1548 73.4559 59.2594 73.1115 58.4979L72.8639 57.9506C72.0831 56.2242 73.9172 54.4809 75.6017 55.3482L76.1348 55.6227C76.8765 56.0046 77.7774 55.8859 78.395 55.325L78.8286 54.9311C80.2301 53.6581 82.4517 54.8644 82.1473 56.7331L82.0473 57.347C81.9128 58.1732 82.307 58.9958 83.0353 59.4085L83.5211 59.6838C85.1727 60.6197 84.7134 63.1146 82.8368 63.401L82.2658 63.4881Z" stroke="black" stroke-linejoin="round"/>
<path d="M60.585 100.557C60.6311 98.4641 61.5487 96.2432 63.0785 93.3249C63.3247 92.8552 63.37 92.3095 63.2664 91.7894C63.0735 90.8206 63.0486 89.8236 63.1951 88.8425C63.3824 87.5877 63.8452 86.3899 64.5504 85.3352C64.2587 85.7862 63.9357 86.2156 63.5839 86.6204C63.2489 87.0058 63.1816 87.5562 63.2147 88.0657C63.2962 89.3208 62.3619 90.6224 60.8471 90.1769C60.7064 90.1356 60.562 90.3 60.6403 90.424V90.424C60.6531 90.4441 60.6714 90.4613 60.692 90.4732C63.0755 91.8551 61.7958 94.8009 59.3962 94.2263C59.283 94.1992 59.1714 94.3782 59.2579 94.4562V94.4562C59.2641 94.4618 59.2712 94.4667 59.2786 94.4707C61.851 95.8433 60.2338 99.1421 57.4502 97.9243C56.63 97.5561 55.9111 97.2553 55.2784 96.9919C54.7454 96.7699 54.2574 96.7795 53.7731 97.094V97.094C52.3067 98.0461 51.2945 101.434 52.832 102.267L56.4318 104.216C58.0194 105.076 60.5314 102.362 60.585 100.557V100.557Z" stroke="black" stroke-linejoin="round"/>
<path d="M46.0594 98.5995C45.1937 98.1305 44.1154 98.3613 43.5176 99.1436L41.2963 102.05C40.5506 103.026 40.8523 104.437 41.9319 105.023L60.4479 115.065C61.5269 115.65 62.8736 115.134 63.2855 113.978L64.5155 110.524C64.8462 109.596 64.451 108.564 63.5842 108.095L46.0594 98.5995Z" stroke="black" stroke-linejoin="round"/>
</g>
<defs>
<clipPath id="clip0_15441_75525">
<rect width="243" height="246" fill="white" transform="translate(0.5)"/>
</clipPath>
</defs>
</svg>
