<svg width="156" height="125" viewBox="0 0 156 125" fill="none" xmlns="http://www.w3.org/2000/svg">
<path d="M91.4764 133.376C87.5119 136.015 83.4693 136.543 79.5048 133.493C75.5794 130.463 75.2279 126.319 76.7316 121.236C71.5954 122.35 66.9669 122.311 63.9398 117.736C61.3424 113.807 61.9673 109.975 64.5257 106.261C64.8382 105.948 65.1702 105.635 65.4826 105.323C67.3184 103.993 69.4471 102.723 71.5954 103.153C75.5013 103.935 74.7787 102.116 74.9935 99.3796C75.2864 95.5675 74.8763 94.0231 70.6189 94.6291C69.0761 94.8442 67.2989 93.4757 65.6193 92.811C65.1702 92.3614 64.721 91.9118 64.2718 91.4621C62.0064 87.6696 61.3228 83.8184 64.057 79.9867C67.084 75.7445 71.3806 75.3731 76.6535 76.7807C75.3255 71.5806 75.5208 67.0256 80.0712 63.9955C83.9771 61.415 87.8049 62.0601 91.4959 64.621C91.8084 64.9338 92.1209 65.2662 92.4333 65.5789C93.195 67.4166 94.7964 69.4106 94.523 71.0918C93.7614 75.5882 95.9096 74.7866 99.0343 75.0408C102.784 75.3536 103.116 74.3175 102.999 71.1114C102.94 69.2933 104.366 67.4361 105.128 65.5789C105.46 65.2466 105.792 64.8947 106.124 64.5624C110.049 61.7864 114.111 61.3172 118.056 64.3278C122.001 67.3189 122.47 71.4438 120.927 76.4875C125.926 75.6273 130.614 75.4122 133.68 80.0259C136.277 83.9553 135.691 87.7869 133.211 91.5208C132.84 91.8922 132.449 92.2832 132.078 92.6546C130.203 93.3779 128.25 94.8833 126.493 94.6878C122.685 94.2577 122.724 95.6066 122.763 98.8518C122.802 101.98 122.626 103.485 126.493 103.074C128.25 102.879 130.203 104.384 132.078 105.127C132.469 105.518 132.859 105.89 133.23 106.281C135.867 110.229 136.375 114.276 133.367 118.206C130.379 122.096 126.317 122.721 121.239 121.06C122.274 126.299 122.099 131.088 117.255 134.099C113.545 136.406 109.854 135.78 106.319 133.513C105.85 133.024 105.362 132.555 104.893 132.066C103.018 129.29 102.55 126.201 103.057 122.976C97.7454 122.37 93.3122 122.526 93.859 129.583C93.9176 130.424 92.9802 131.362 92.5115 132.242C92.1795 132.652 91.8279 133.024 91.4764 133.376ZM116.962 117.13C113.916 115.273 120.321 109.447 113.506 109.428C110.029 109.408 109.229 110.601 109.248 113.826C109.307 120.551 115.029 114.159 116.962 117.13ZM80.8328 117.189C82.7077 114.628 89.5039 120.688 88.3322 112.38C87.3947 105.772 83.1959 110.972 80.8719 109.271C81.8288 112.028 80.8133 114.335 80.8328 117.189ZM117.197 80.9251C109.131 81.7657 109.326 81.7853 109.112 83.662C108.33 90.1719 113.232 87.9433 117.041 88.9598C115.888 85.9688 116.767 83.5056 117.197 80.9251ZM80.7547 80.5732C81.2039 83.5056 81.4773 86.0275 81.0477 88.8621C83.274 86.8681 87.7267 91.7945 88.4689 85.2455C89.4063 77.1521 82.5709 83.5838 80.7547 80.5732ZM95.7143 98.4608C95.851 100.181 94.5425 102.644 98.0774 101.96C99.8546 101.608 102.159 102.879 101.866 99.1646C101.671 96.6427 101.534 95.6652 98.6437 95.8412C96.476 95.9975 94.9136 95.7826 95.7143 98.4608Z" fill="white" fill-opacity="0.5"/>
<path d="M92.4338 65.6175C92.1213 65.3047 91.8089 64.9724 91.4964 64.6596C91.4573 64.249 91.4964 63.819 91.3401 63.4475C89.2895 58.9317 89.2114 54.6504 93.4103 51.3465C96.8279 48.6487 100.675 48.6488 104.112 51.3075C108.331 54.5917 108.272 58.873 106.28 63.4085C106.124 63.7603 106.163 64.2099 106.104 64.6009C105.772 64.9333 105.44 65.2851 105.108 65.6175C100.91 67.3574 96.6717 67.3183 92.4338 65.6175Z" fill="white" fill-opacity="0.5"/>
<path d="M133.249 106.359C132.858 105.968 132.468 105.597 132.097 105.206C130.32 101.061 130.339 96.8974 132.097 92.7529C132.468 92.3815 132.858 91.9905 133.229 91.619C134.577 91.2085 135.905 90.6807 137.272 90.407C141.197 89.6641 144.576 90.6221 146.822 94.1018C148.873 97.2884 148.873 100.651 146.841 103.837C144.596 107.337 141.217 108.295 137.311 107.552C135.925 107.298 134.597 106.75 133.249 106.359Z" fill="white" fill-opacity="0.5"/>
<path d="M65.5025 105.342C65.1901 105.654 64.8581 105.967 64.5456 106.28C59.6046 107.864 54.6051 109.291 50.914 103.954C48.7657 100.845 48.7072 97.4437 50.7773 94.2572C54.2926 88.8029 59.2922 90.0151 64.2917 91.5008C64.7409 91.9504 65.1901 92.4001 65.6393 92.8497C67.2797 97.0332 67.1235 101.197 65.5025 105.342Z" fill="white" fill-opacity="0.5"/>
<path d="M147.937 125.949C148.034 130.543 143.914 134.688 139.305 134.59C134.949 134.512 131.063 130.621 130.965 126.262C130.868 121.648 134.989 117.523 139.578 117.621C143.972 117.699 147.858 121.57 147.937 125.949Z" fill="white" fill-opacity="0.5"/>
<path d="M58.2368 134.509C53.6864 134.548 49.6243 130.404 49.761 125.868C49.8977 121.548 53.7646 117.736 58.0806 117.677C62.6309 117.638 66.6931 121.783 66.5564 126.318C66.4197 130.658 62.5528 134.47 58.2368 134.509Z" fill="white" fill-opacity="0.5"/>
<path d="M138.992 80.2991C134.383 80.0059 130.575 75.5877 131.043 71.0719C131.492 66.6928 135.633 63.1153 139.929 63.389C144.519 63.6822 148.346 68.1004 147.878 72.6163C147.428 76.9953 143.288 80.5728 138.992 80.2991Z" fill="white" fill-opacity="0.5"/>
<path d="M57.866 63.4311C62.143 63.2552 66.2051 66.9109 66.5566 71.2508C66.9277 75.7472 63.0413 80.0871 58.4714 80.2631C53.9406 80.439 49.7613 76.3923 49.7808 71.8373C49.7613 67.517 53.5305 63.6071 57.866 63.4311Z" fill="white" fill-opacity="0.5"/>
<path d="M134.364 58.3286C134.344 62.9227 130.126 66.9694 125.575 66.7544C121.22 66.5589 117.451 62.6099 117.471 58.2504C117.49 53.6563 121.709 49.6096 126.259 49.8247C130.614 50.0202 134.383 53.9691 134.364 58.3286Z" fill="white" fill-opacity="0.5"/>
<path d="M71.7509 49.8627C76.3013 49.8823 80.3243 54.0854 80.1095 58.6208C79.9142 62.9607 75.9693 66.7142 71.6728 66.6946C67.1224 66.6751 63.0993 62.472 63.2946 57.9366C63.5094 53.6162 67.4349 49.8432 71.7509 49.8627Z" fill="white" fill-opacity="0.5"/>
<path d="M152.994 120.436C148.229 120.006 145.436 117.523 145.202 112.675C144.987 108.061 148.717 104.386 153.326 104.738C158.13 105.089 160.864 107.904 160.786 112.714C160.708 117.562 157.759 120.025 152.994 120.436Z" fill="white" fill-opacity="0.5"/>
<path d="M52.3775 112.458C52.0064 117.247 49.5848 120.18 44.6829 120.219C39.8396 120.258 36.9882 117.502 36.9297 112.634C36.8711 107.786 39.6248 104.951 44.4876 104.873C49.3895 104.794 51.9088 107.649 52.3775 112.458Z" fill="white" fill-opacity="0.5"/>
<path d="M152.878 93.2992C148.094 92.7909 145.359 90.2495 145.203 85.4013C145.067 80.7877 148.875 77.1711 153.484 77.6011C158.288 78.0508 160.964 80.9245 160.788 85.7336C160.612 90.5623 157.604 92.9669 152.878 93.2992Z" fill="white" fill-opacity="0.5"/>
<path d="M44.9171 77.624C49.6823 78.2105 52.4555 80.8497 52.2602 85.6979C52.0649 90.5657 49.1354 93.2243 44.2921 93.0679C39.4293 92.892 36.7733 89.9401 36.9295 85.1114C37.1053 80.2045 40.1324 77.8782 44.9171 77.624Z" fill="white" fill-opacity="0.5"/>
<path d="M93.0974 44.5257C92.5897 49.628 90.0508 52.4822 85.1489 52.404C80.2665 52.3258 77.4933 49.4716 77.5714 44.6038C77.63 39.7165 80.5009 36.9796 85.3637 36.9992C90.3047 37.0383 92.6483 40.088 93.0974 44.5257Z" fill="white" fill-opacity="0.5"/>
<path d="M120.205 44.8008C119.756 49.5708 117.256 52.3077 112.413 52.4836C107.804 52.64 104.23 48.9257 104.601 44.312C104.992 39.5029 107.824 36.8442 112.608 36.9811C117.452 37.1179 119.854 40.0698 120.205 44.8008Z" fill="white" fill-opacity="0.5"/>
<path d="M38.1614 98.9101C37.4779 103.289 35.1538 106.026 30.8964 105.928C26.678 105.811 24.0025 103.055 24.1197 98.8124C24.2173 94.5898 26.9905 91.9311 31.2284 92.0093C35.4858 92.107 37.6146 95.0003 38.1614 98.9101Z" fill="white" fill-opacity="0.5"/>
<path d="M98.7013 24.0202C102.861 24.509 105.712 26.7572 105.771 31.0189C105.849 35.2806 103.154 38.0371 98.9161 38.1348C94.6587 38.2325 91.905 35.5347 91.8074 31.2926C91.7292 27.0113 94.5024 24.6849 98.7013 24.0202Z" fill="white" fill-opacity="0.5"/>
<path d="M65.2471 44.6038C64.7784 48.7482 62.552 51.5829 58.3141 51.6611C54.0762 51.7588 51.3226 49.0806 51.2249 44.8579C51.1273 40.6157 53.8028 37.8593 58.0212 37.7615C62.2591 37.6442 64.5831 40.4007 65.2471 44.6038Z" fill="white" fill-opacity="0.5"/>
<path d="M139.343 37.5504C143.542 38.0391 146.393 40.2873 146.471 44.5881C146.55 48.8694 143.855 51.6649 139.597 51.7626C135.32 51.8604 132.547 49.1431 132.43 44.8813C132.332 40.5609 135.125 38.2346 139.343 37.5504Z" fill="white" fill-opacity="0.5"/>
<path d="M153.11 65.4626C148.931 64.9544 146.06 62.7062 145.982 58.4249C145.904 54.1436 148.619 51.3676 152.856 51.2699C157.133 51.1721 159.907 53.8895 160.004 58.1512C160.141 62.4521 157.348 64.7784 153.11 65.4626Z" fill="white" fill-opacity="0.5"/>
<path d="M51.7146 58.0731C51.2264 62.3348 49 65.1499 44.7621 65.2281C40.5242 65.3063 37.7705 62.6476 37.6729 58.4249C37.5752 54.1827 40.2508 51.4458 44.4691 51.3285C48.7266 51.2113 51.0115 53.9873 51.7146 58.0731Z" fill="white" fill-opacity="0.5"/>
<path d="M30.7991 132.558C26.6979 132.088 24.4716 129.821 24.7059 125.696C24.9403 121.512 27.5572 119.46 31.6194 119.733C35.4471 119.987 37.4978 122.372 37.4392 126.204C37.3415 130.407 34.8808 132.382 30.7991 132.558Z" fill="white" fill-opacity="0.5"/>
<path d="M125.907 24.6638C130.008 24.9765 132.391 27.127 132.313 31.3105C132.215 35.494 129.754 37.7031 125.614 37.5663C121.767 37.449 119.579 35.1813 119.501 31.3301C119.443 27.127 121.786 24.9765 125.907 24.6638Z" fill="white" fill-opacity="0.5"/>
<path d="M31.4821 78.3274C27.1466 78.0732 24.6858 76.0401 24.7054 71.8566C24.7249 67.6926 27.088 65.4249 31.2087 65.4836C35.0365 65.5227 37.2629 67.7121 37.4386 71.5438C37.6144 75.7273 35.2513 77.8387 31.4821 78.3274Z" fill="white" fill-opacity="0.5"/>
<path d="M78.1565 31.4086C77.6878 35.5139 75.4224 37.7426 71.3017 37.508C67.1223 37.2734 65.0717 34.6538 65.3451 30.5875C65.599 26.7559 67.9816 24.7032 71.8094 24.7618C76.0083 24.8596 77.9612 27.3228 78.1565 31.4086Z" fill="white" fill-opacity="0.5"/>
<path d="M17.5167 118.208C14.06 117.856 11.8337 115.94 11.9118 112.343C11.9899 109.078 14.0991 106.967 17.38 106.947C20.9539 106.928 23.1413 109.137 23.0631 112.714C23.0241 115.998 20.8953 117.817 17.5167 118.208Z" fill="white" fill-opacity="0.5"/>
<path d="M112.177 11.8602C115.341 12.0752 117.645 13.6978 117.958 17.0016C118.29 20.6183 116.2 23.0229 112.646 23.2184C109.072 23.4138 106.767 21.1852 106.728 17.5882C106.689 14.2648 108.818 12.388 112.177 11.8602Z" fill="white" fill-opacity="0.5"/>
<path d="M17.3419 79.7368C20.4666 79.9323 22.732 81.5354 23.0445 84.8197C23.3765 88.4167 21.3259 90.7822 17.7911 90.9777C14.2367 91.1731 11.9713 88.9837 11.9322 85.3866C11.8932 82.1219 13.9633 80.2451 17.3419 79.7368Z" fill="white" fill-opacity="0.5"/>
<path d="M90.989 17.4919C90.7351 20.698 89.036 22.9657 85.7551 23.2199C82.1617 23.4936 79.7791 21.3626 79.6424 17.7851C79.5057 14.1881 81.7711 11.9399 85.384 11.9595C88.665 11.9595 90.5203 14.1294 90.989 17.4919Z" fill="white" fill-opacity="0.5"/>
<path d="M152.526 25.9739C156.158 26.1498 158.131 27.792 158.111 31.2522C158.092 34.3605 156.334 36.1786 153.229 36.2372C149.831 36.3154 147.937 34.4778 147.937 31.0567C147.917 27.9092 149.811 26.3844 152.526 25.9739Z" fill="white" fill-opacity="0.5"/>
<path d="M49.7022 31.2709C49.3897 34.3401 47.7883 36.1972 44.644 36.1777C41.1873 36.1581 39.3906 34.125 39.6054 30.743C39.8007 27.6347 41.7732 25.9925 44.8784 26.1294C48.0031 26.2662 49.5069 28.1821 49.7022 31.2709Z" fill="white" fill-opacity="0.5"/>
<path d="M144.305 17.4118C144.051 20.2073 142.586 22.1622 139.794 22.2991C136.689 22.4555 134.716 20.5592 134.755 17.4509C134.794 14.6553 136.649 12.8763 139.462 12.8568C142.293 12.8372 143.817 14.6749 144.305 17.4118Z" fill="white" fill-opacity="0.5"/>
<path d="M62.9645 17.6057C62.5544 20.3426 61.0702 22.2585 58.297 22.278C55.2308 22.2976 53.317 20.3427 53.4927 17.2734C53.649 14.5561 55.5433 12.7771 58.336 12.8944C61.1288 12.9921 62.5739 14.8689 62.9645 17.6057Z" fill="white" fill-opacity="0.5"/>
<path d="M31.2472 49.8428C27.8491 49.4909 26.0133 47.8683 26.0328 44.7209C26.0719 41.2607 28.103 39.4817 31.4816 39.6967C34.5868 39.8922 36.2077 41.8862 36.071 44.9946C35.9343 48.1811 33.9033 49.5495 31.2472 49.8428Z" fill="white" fill-opacity="0.5"/>
<path d="M22.2632 58.4041C21.736 61.1801 20.1931 63.0373 17.3418 62.92C14.5491 62.8027 12.7524 60.9455 12.85 58.1108C12.9672 55.3153 14.8225 53.5168 17.6543 53.6145C20.4861 53.7318 21.9508 55.6477 22.2632 58.4041Z" fill="white" fill-opacity="0.5"/>
<path d="M75.3466 4.05883C75.0537 6.1506 73.9405 7.57773 71.8313 7.57773C69.4097 7.59728 67.984 6.09194 68.1793 3.68739C68.3355 1.63471 69.7612 0.344474 71.9094 0.46177C74.0186 0.579065 75.1123 1.96706 75.3466 4.05883Z" fill="white" fill-opacity="0.5"/>
<path d="M102.882 4.03936C102.55 6.97175 100.91 8.28157 98.2929 8.02743C95.9103 7.79284 94.6604 6.18979 94.7971 3.80478C94.9729 1.04834 96.711 -0.22235 99.328 0.0317905C101.73 0.246832 102.804 1.88895 102.882 4.03936Z" fill="white" fill-opacity="0.5"/>
<path d="M129.637 3.88326C129.208 6.48331 127.86 7.87131 125.477 7.61717C123.446 7.40213 122.157 6.01412 122.294 3.88326C122.45 1.49825 123.974 0.188448 126.337 0.40349C128.426 0.618532 129.364 2.14337 129.637 3.88326Z" fill="white" fill-opacity="0.5"/>
<path d="M7.59627 71.8365C7.34238 73.9283 6.2292 75.3554 4.12002 75.3944C1.69836 75.4335 0.253158 73.9478 0.409394 71.5432C0.5461 69.471 1.95222 68.1808 4.10047 68.2786C6.22919 68.3763 7.32285 69.7643 7.59627 71.8365Z" fill="white" fill-opacity="0.5"/>
<path d="M7.94868 98.988C7.77291 101.529 6.40584 103.015 3.7303 102.917C1.36723 102.839 0.000185506 101.412 0.000185506 99.0466C-0.019344 96.3683 1.50396 94.9217 4.1795 94.9999C6.54257 95.0976 7.77291 96.5443 7.94868 98.988Z" fill="white" fill-opacity="0.5"/>
<path d="M7.59748 126.202C7.28501 128.274 6.13277 129.681 4.02358 129.662C1.60192 129.642 0.195773 128.117 0.430127 125.713C0.625422 123.66 2.07061 122.37 4.21886 122.546C6.30851 122.702 7.40219 124.09 7.59748 126.202Z" fill="white" fill-opacity="0.5"/>
</svg>
