<svg width="21" height="20" viewBox="0 0 21 20" fill="none" xmlns="http://www.w3.org/2000/svg">
<path d="M8.25033 4.16602H6.58366C6.14163 4.16602 5.71771 4.34161 5.40515 4.65417C5.09259 4.96673 4.91699 5.39065 4.91699 5.83268V15.8327C4.91699 16.2747 5.09259 16.6986 5.40515 17.0112C5.71771 17.3238 6.14163 17.4993 6.58366 17.4993H14.917C15.359 17.4993 15.7829 17.3238 16.0955 17.0112C16.4081 16.6986 16.5837 16.2747 16.5837 15.8327V5.83268C16.5837 5.39065 16.4081 4.96673 16.0955 4.65417C15.7829 4.34161 15.359 4.16602 14.917 4.16602H13.2503" stroke="#212121" stroke-width="1.66667" stroke-linecap="round" stroke-linejoin="round"/>
<path d="M8.25098 10H13.251M8.25098 13.3333H13.251M8.25098 4.16667C8.25098 3.72464 8.42657 3.30072 8.73913 2.98816C9.05169 2.67559 9.47562 2.5 9.91764 2.5H11.5843C12.0263 2.5 12.4503 2.67559 12.7628 2.98816C13.0754 3.30072 13.251 3.72464 13.251 4.16667C13.251 4.60869 13.0754 5.03262 12.7628 5.34518C12.4503 5.65774 12.0263 5.83333 11.5843 5.83333H9.91764C9.47562 5.83333 9.05169 5.65774 8.73913 5.34518C8.42657 5.03262 8.25098 4.60869 8.25098 4.16667Z" stroke="#212121" stroke-width="1.66667" stroke-linecap="round" stroke-linejoin="round"/>
</svg>
