<svg width="24" height="24" viewBox="0 0 24 24" fill="none" xmlns="http://www.w3.org/2000/svg">
<path d="M3 15.961C7 13.843 7 11.843 4 8.84296M21 15.961C17 13.843 17 11.843 20 8.84296M16.882 7.84196C16.882 6.54717 16.3676 5.30542 15.4521 4.38987C14.5365 3.47431 13.2948 2.95996 12 2.95996C10.7052 2.95996 9.46346 3.47431 8.5479 4.38987C7.63235 5.30542 7.118 6.54717 7.118 7.84196C7.118 12.115 6.905 14.251 3 15.96C5 16.842 5 16.842 6 18.96C9 18.96 10 20.96 12 20.96C14 20.96 15 18.96 18 18.96C19 16.842 19 16.842 21 15.96C17.094 14.251 16.882 12.115 16.882 7.84196V7.84196Z" stroke="#212121" stroke-width="2" stroke-linecap="round" stroke-linejoin="round"/>
</svg>
