<svg width="316" height="307" viewBox="0 0 316 307" fill="none" xmlns="http://www.w3.org/2000/svg">
<path d="M136.547 193.652C136.36 192.77 136.365 191.855 136.564 190.976C138.108 183.756 137.874 173.102 139.417 164.44C140.96 155.778 146.045 156.753 151.667 154.677C155.256 153.347 158.615 151.303 162.438 149.427C164.714 148.278 167.072 147.315 169.488 146.546C176.646 144.319 194.615 152.322 203.317 153.794C205.373 154.138 207.4 154.66 209.377 155.351L209.416 155.225C209.416 155.225 249.104 126.49 259.481 118.62C269.857 110.751 291.157 94.7732 291.157 94.7732L315.417 153.792C315.417 153.792 267.785 187.047 260.737 193.603C253.688 200.16 238.185 208.493 238.185 208.493L238.059 208.461C237.113 213.04 233.965 218.263 225.285 223.44L224.762 223.632C223.325 220.141 221.509 216.84 219.35 213.792C210.694 196.972 175.39 172.049 172.338 172.584C169.286 173.12 160.857 174.293 160.857 174.293C160.237 176.26 157.646 177.361 157.646 177.361H157.423C157.466 183.312 155.531 189.089 151.955 193.687C146.308 201.213 137.709 199.078 136.547 193.652Z" fill="#FFE8BB"/>
<path d="M136.547 193.652C137.707 199.078 146.308 201.208 151.947 193.689C155.522 189.091 157.457 183.313 157.415 177.363H157.637C157.637 177.363 160.229 176.262 160.848 174.294C160.848 174.294 169.271 173.122 172.329 172.586C175.388 172.051 210.685 196.974 219.342 213.794C221.501 216.841 223.317 220.142 224.753 223.634C225.693 226.198 226.051 228.64 224.919 230.054C221.017 234.955 216.245 233.513 212.896 229.44C212.73 229.242 212.564 229.03 212.399 228.815C209.032 224.273 200.392 213.185 200.392 213.185L193.183 208.459C194.865 210.122 196.444 211.895 197.91 213.771C199.84 216.551 207.433 224.738 210.843 230.352C211.719 231.566 212.296 232.993 212.518 234.501C212.447 235.604 212.127 236.675 211.585 237.622C211.045 238.569 210.298 239.365 209.408 239.948C208.516 240.529 207.507 240.878 206.463 240.965C205.42 241.054 204.371 240.878 203.405 240.452C203.285 240.4 203.169 240.335 203.062 240.26C200.175 238.371 185.966 224.908 183.761 222.713C183.32 221.849 182.714 221.089 181.98 220.487C181.536 220.109 181.063 219.771 180.566 219.477L180.545 219.458C176.808 217.214 172.719 218.058 169.188 220.974C165.292 224.205 167.001 222.297 165.315 224.15C165.171 222.692 164.581 221.325 163.635 220.253C160.144 216.113 155.412 215.908 150.958 218.441C147.52 220.527 144.203 222.831 141.026 225.335L128.063 226.646L127.95 226.624C128.268 224.187 127.768 221.711 126.537 219.622C123.72 215.135 119.493 215.597 117.266 215.737C116.901 215.763 116.54 215.831 116.189 215.942L116.161 215.737C114.435 214.839 112.763 213.831 111.155 212.716C109.048 211.326 106.759 209.727 104.93 208.428C102.915 206.996 101.469 205.937 101.469 205.937C101.605 188.58 102.801 171.252 105.049 154.058L107.972 155.255C112.71 157.198 121.662 160.856 122.807 161.283C123.355 161.587 123.965 161.747 124.584 161.747C125.204 161.747 125.814 161.587 126.361 161.283C127.984 160.634 147.062 150.022 150.918 149.054C154.774 148.086 162.427 149.42 162.427 149.42C158.6 151.303 155.241 153.347 151.657 154.67C146.041 156.746 140.945 155.764 139.407 164.433C137.869 173.102 138.098 183.749 136.554 190.969C136.358 191.851 136.355 192.768 136.547 193.652Z" fill="#FFE8BB"/>
<path d="M212.417 228.813C212.583 229.028 212.748 229.24 212.914 229.438C212.914 229.438 210.909 230.418 210.869 230.353C207.459 224.74 199.867 216.552 197.937 213.773C196.47 211.898 194.891 210.124 193.209 208.461L200.419 213.187C200.419 213.187 209.05 224.271 212.417 228.813Z" fill="#FFE8BB"/>
<path d="M203.082 240.26L202.689 240.867C202.541 241.684 202.215 242.453 201.738 243.113C201.259 243.774 200.641 244.306 199.933 244.67C198.928 245.337 197.802 245.777 196.628 245.962C195.453 246.146 194.255 246.071 193.11 245.74C192.083 245.215 191.092 244.613 190.144 243.942L188.628 243.767C189.393 243.02 190.071 242.176 190.644 241.257C192.798 237.421 192.724 235.044 190.348 233.047C189.455 232.154 188.356 231.526 187.161 231.223C185.965 230.92 184.716 230.954 183.537 231.321L183.286 231.158C183.413 230.934 183.524 230.7 183.617 230.458C184.184 229.261 184.494 227.947 184.522 226.609C184.55 225.272 184.298 223.944 183.783 222.722C185.987 224.908 200.189 238.371 203.082 240.26Z" fill="#FFE8BB"/>
<path d="M193.11 245.74C191.093 248.379 188.336 250.275 185.234 251.155C184.581 251.404 183.885 251.498 183.194 251.435C182.502 251.37 181.832 251.148 181.231 250.782L180.455 250.77C183.319 248.624 186.049 246.286 188.628 243.769L190.144 243.944C191.092 244.614 192.082 245.215 193.11 245.74Z" fill="#FFE8BB"/>
<path d="M190.348 233.033C192.724 235.03 192.792 237.408 190.644 241.243C190.071 242.162 189.393 243.006 188.628 243.753C186.049 246.27 183.319 248.608 180.456 250.754C179.504 251.482 178.896 251.927 178.896 251.927C169.521 257.745 165.364 259.036 162.01 257.37C160.971 256.933 160.04 256.25 159.284 255.378C158.53 254.505 157.972 253.462 157.654 252.329L157.488 251.932C161.251 250.191 164.898 248.18 168.401 245.911C168.401 245.911 180.663 235.835 183.281 231.137L183.533 231.3C184.712 230.933 185.963 230.899 187.16 231.204C188.356 231.508 189.455 232.138 190.348 233.033Z" fill="#FFE8BB"/>
<path d="M183.784 222.706C184.3 223.928 184.551 225.256 184.523 226.594C184.495 227.933 184.185 229.245 183.619 230.442C183.526 230.684 183.415 230.919 183.287 231.143C180.667 235.84 168.407 245.917 168.407 245.917C164.905 248.185 161.258 250.196 157.495 251.937C149.707 255.361 147.894 253.338 145.097 251.95C142.432 250.464 140.43 247.924 139.528 244.887V244.803C141.844 244.62 144.104 243.967 146.186 242.878C146.186 242.878 161.38 234.302 163.663 230.348C164.853 228.529 165.443 226.349 165.344 224.14C167.029 222.286 165.32 224.194 169.216 220.963C172.747 218.045 176.838 217.204 180.573 219.447L180.595 219.467C181.092 219.761 181.564 220.098 182.008 220.477C182.74 221.08 183.347 221.84 183.784 222.706Z" fill="#FFE8BB"/>
<path d="M141.034 225.332C144.216 222.827 147.536 220.526 150.976 218.438C155.43 215.905 160.162 216.11 163.653 220.249C164.6 221.322 165.189 222.689 165.334 224.147C165.433 226.354 164.843 228.537 163.653 230.355C161.37 234.307 146.176 242.885 146.176 242.885C144.094 243.974 141.834 244.627 139.518 244.81C135.115 244.964 130.72 244.313 126.527 242.885C121.955 241.634 119.773 232.599 119.773 232.599C121.523 232.298 123.228 231.752 124.842 230.975C125.667 230.584 126.385 229.981 126.931 229.219C127.476 228.458 127.832 227.565 127.964 226.62L128.076 226.643L141.034 225.332Z" fill="#FFE8BB"/>
<path d="M160.325 5.74097L161.4 11.2403L97.3146 25.1898L114.69 114.264L109.479 115.395L108.403 109.89L91.033 20.8229L155.114 6.87338L160.325 5.74097Z" fill="#F9E49C"/>
<path d="M155.113 6.87345L91.0326 20.823L108.403 109.89L103.192 111.028L84.7444 16.4491L154.043 1.3689L155.113 6.87345Z" fill="#F9E49B"/>
<path d="M116.204 215.94C116.555 215.83 116.916 215.761 117.281 215.735C119.508 215.602 123.727 215.133 126.552 219.621C127.783 221.709 128.283 224.185 127.966 226.622C127.834 227.567 127.478 228.459 126.933 229.221C126.387 229.982 125.669 230.586 124.844 230.976C123.23 231.753 121.525 232.3 119.775 232.601C115.886 233.292 111.842 232.919 110.065 231.073C107.083 227.962 103.875 220.816 110.841 213.267L111.172 212.712C112.78 213.827 114.452 214.835 116.178 215.733L116.204 215.94Z" fill="#FFE8BB"/>
<path d="M106.99 151.037L106.927 151.091C106.865 151.004 106.786 150.932 106.695 150.881C106.604 150.831 106.504 150.801 106.401 150.796C106.298 150.791 106.196 150.81 106.101 150.852C106.005 150.893 105.92 150.956 105.851 151.037C105.414 151.983 105.147 153.007 105.064 154.056C102.816 171.251 101.619 188.578 101.483 205.935C101.556 209.935 101.858 212.571 102.468 212.926C102.848 213.204 103.317 213.311 103.772 213.225L103.795 213.304C102.098 214.496 97.5696 215.096 96.3385 211.314C96.0344 208.248 96.0117 205.157 96.2705 202.085C96.8571 187.208 99.152 159.204 100.413 151.53C100.48 150.863 100.638 150.209 100.88 149.588C102.241 147.704 106.83 148.788 106.99 151.037Z" fill="#F15929"/>
<path d="M100.106 151.471L100.42 151.532C99.1554 159.214 96.8605 187.216 96.2772 202.087H96.1115C96.1115 202.087 86.2939 197.431 81.3047 196.804C74.0719 195.903 0.5896 159.856 0.5896 159.856L28.7053 102.01L95.5365 149.07L100.106 151.471Z" fill="#FFE8BB"/>
<path d="M291.15 94.7732L315.41 153.792" stroke="#FFE8BB" stroke-linecap="round" stroke-linejoin="round"/>
<path d="M0.583008 159.849L28.7054 102.01" stroke="#FFE8BB" stroke-linecap="round" stroke-linejoin="round"/>
<path d="M233.214 284.566C215.643 296.823 195.337 304 174.321 305.385C153.305 306.768 132.313 302.308 113.438 292.451C94.5622 282.593 78.4626 267.681 66.7441 249.202C55.0255 230.721 48.0975 209.32 46.6506 187.131" stroke="#313553" stroke-linecap="round" stroke-linejoin="round"/>
<path d="M287.18 182.246C286.681 200.401 282.499 218.233 274.918 234.535C267.336 250.838 256.531 265.232 243.232 276.745" stroke="#313553" stroke-linecap="round" stroke-linejoin="round"/>
<path d="M219.774 264.299C206.659 273.45 191.618 279.061 175.971 280.64C160.325 282.22 144.55 279.719 130.032 273.359C115.513 266.997 102.694 256.971 92.699 244.157C82.7041 231.344 75.8385 216.134 72.7048 199.865" stroke="#313553" stroke-linecap="round" stroke-linejoin="round"/>
<path d="M261.189 198.553C256.998 221.915 245.167 242.979 227.764 258.061" stroke="#313553" stroke-linecap="round" stroke-linejoin="round"/>
<path d="M231.386 104.963C237.071 110.382 242.123 116.496 246.438 123.178" stroke="#313553" stroke-linecap="round" stroke-linejoin="round"/>
<path d="M81.0381 134.572C85.4687 125.172 91.2493 116.552 98.1746 109.019" stroke="#313553" stroke-linecap="round" stroke-linejoin="round"/>
<path d="M225.714 67.4443C240.871 76.4513 254.014 88.8004 264.248 103.652" stroke="#313553" stroke-linecap="round" stroke-linejoin="round"/>
<path d="M60.3652 118.86C68.0691 103.549 78.6424 90.054 91.442 79.1975" stroke="#313553" stroke-linecap="round" stroke-linejoin="round"/>
<path d="M209.421 155.224C209.421 155.224 249.109 126.488 259.485 118.619C269.861 110.75 291.157 94.7732 291.157 94.7732" stroke="#313553" stroke-linecap="round" stroke-linejoin="round"/>
<path d="M238.182 208.493C238.182 208.493 253.683 200.154 260.733 193.603C267.784 187.052 315.414 153.792 315.414 153.792" stroke="#313553" stroke-linecap="round" stroke-linejoin="round"/>
<path d="M0.583008 159.849C0.583008 159.849 74.067 195.905 81.2997 196.797C86.2889 197.424 96.1066 202.08 96.1066 202.08" stroke="#313553" stroke-linecap="round" stroke-linejoin="round"/>
<path d="M100.11 151.469L95.5363 149.07L28.7051 102.01" stroke="#313553" stroke-linecap="round" stroke-linejoin="round"/>
<path d="M108.044 155.097C107.946 153.693 107.565 152.327 106.927 151.091C106.865 151.004 106.786 150.932 106.695 150.881C106.604 150.83 106.504 150.801 106.401 150.796C106.299 150.791 106.196 150.81 106.101 150.851C106.006 150.893 105.921 150.956 105.851 151.037C105.414 151.983 105.147 153.007 105.064 154.056C102.816 171.251 101.62 188.578 101.484 205.935C101.557 209.935 101.858 212.571 102.468 212.926C102.848 213.204 103.317 213.311 103.772 213.225C105.263 212.817 104.781 208.937 104.781 208.937" stroke="#313553" stroke-linecap="round" stroke-linejoin="round"/>
<path d="M106.99 151.037C106.824 148.788 102.241 147.711 100.89 149.588C100.648 150.208 100.49 150.863 100.423 151.53C99.1587 159.212 96.8638 187.215 96.2805 202.085C96.0217 205.156 96.0444 208.247 96.3485 211.314C97.573 215.096 102.102 214.496 103.805 213.304" stroke="#F15929" stroke-linecap="round" stroke-linejoin="round"/>
<path d="M105.064 154.056L107.987 155.253C112.724 157.196 121.677 160.854 122.822 161.281C123.37 161.586 123.98 161.745 124.599 161.745C125.218 161.745 125.828 161.586 126.376 161.281C127.998 160.632 147.077 150.02 150.933 149.052C154.788 148.084 162.442 149.418 162.442 149.418" stroke="#313553" stroke-linecap="round" stroke-linejoin="round"/>
<path d="M101.484 205.935C101.484 205.935 102.93 206.994 104.945 208.426C106.768 209.725 109.063 211.324 111.17 212.714C112.778 213.829 114.45 214.837 116.176 215.735" stroke="#313553" stroke-linecap="round" stroke-linejoin="round"/>
<path d="M237.612 197.02C237.612 199.559 239.052 203.65 238.056 208.461C237.11 213.04 233.961 218.262 225.282 223.441" stroke="#313553" stroke-linecap="round" stroke-linejoin="round"/>
<path d="M217.217 159.296C214.798 157.592 212.159 156.261 209.381 155.35C207.405 154.658 205.378 154.138 203.322 153.792C194.619 152.323 176.644 144.318 169.493 146.544C167.077 147.313 164.719 148.276 162.442 149.425C158.615 151.308 155.256 153.352 151.672 154.676C146.056 156.751 140.96 155.77 139.422 164.439C137.884 173.108 138.113 183.754 136.569 190.974C136.37 191.853 136.365 192.768 136.552 193.65C137.712 199.076 146.313 201.206 151.952 193.687C155.527 189.089 157.462 183.312 157.42 177.361C157.409 175.682 157.229 174.011 156.885 172.373" stroke="#313553" stroke-linecap="round" stroke-linejoin="round"/>
<path d="M157.642 177.361C157.642 177.361 160.233 176.26 160.853 174.292C160.853 174.292 169.276 173.12 172.334 172.584C175.393 172.049 210.69 196.972 219.346 213.792" stroke="#313553" stroke-linecap="round" stroke-linejoin="round"/>
<path d="M219.347 213.792C221.506 216.839 223.322 220.14 224.758 223.632C225.698 226.196 226.056 228.638 224.924 230.052C221.022 234.953 216.25 233.511 212.901 229.438C212.735 229.24 212.569 229.028 212.404 228.813C209.037 224.271 200.397 213.183 200.397 213.183L193.188 208.458" stroke="#313553" stroke-linecap="round" stroke-linejoin="round"/>
<path d="M180.586 192.317C180.734 193.937 181.118 195.523 181.726 197.02C182.199 197.597 188.497 203.595 193.201 208.461C194.883 210.124 196.462 211.897 197.928 213.773C199.859 216.552 207.451 224.74 210.861 230.353C211.738 231.568 212.314 232.994 212.536 234.503C212.465 235.606 212.145 236.677 211.604 237.624C211.063 238.571 210.316 239.367 209.426 239.95C208.535 240.531 207.526 240.879 206.482 240.967C205.438 241.056 204.389 240.879 203.423 240.454C203.304 240.401 203.188 240.337 203.08 240.261C200.194 238.373 185.985 224.91 183.779 222.715L183.77 222.703" stroke="#313553" stroke-linecap="round" stroke-linejoin="round"/>
<path d="M202.689 240.867C202.541 241.684 202.215 242.453 201.737 243.113C201.259 243.774 200.641 244.306 199.933 244.67C198.927 245.337 197.802 245.776 196.627 245.962C195.453 246.146 194.255 246.07 193.11 245.74C192.082 245.215 191.091 244.612 190.144 243.942" stroke="#313553" stroke-linecap="round" stroke-linejoin="round"/>
<path d="M193.11 245.74C191.093 248.379 188.336 250.275 185.234 251.155C184.581 251.404 183.885 251.498 183.194 251.435C182.502 251.37 181.832 251.148 181.231 250.782" stroke="#313553" stroke-linecap="round" stroke-linejoin="round"/>
<path d="M172.334 172.584C172.334 172.584 174.909 169.889 174.909 168.356" stroke="#313553" stroke-linecap="round" stroke-linejoin="round"/>
<path d="M160.853 174.293C161.082 173.029 161.082 171.73 160.853 170.467" stroke="#313553" stroke-linecap="round" stroke-linejoin="round"/>
<path d="M136.416 193.092C136.415 193.29 136.46 193.482 136.547 193.657C137.578 195.859 144.805 195.148 147.123 191.48C149.622 187.516 146.57 182.246 146.57 182.246" stroke="#313553" stroke-linecap="round" stroke-linejoin="round"/>
<path d="M137.954 180.814C137.954 180.814 139.809 180.663 142.262 180.362" stroke="#313553" stroke-linecap="round" stroke-linejoin="round"/>
<path d="M218.521 230.353C220.216 229.825 221.774 228.89 223.071 227.621" stroke="#313553" stroke-linecap="round" stroke-linejoin="round"/>
<path d="M212.906 229.438C212.906 229.438 210.901 230.418 210.861 230.353" stroke="#313553" stroke-linecap="round" stroke-linejoin="round"/>
<path d="M112.252 218.156C113.449 217.2 114.783 216.454 116.204 215.949C116.555 215.838 116.916 215.77 117.281 215.744C119.508 215.611 123.727 215.142 126.552 219.629C127.783 221.717 128.283 224.194 127.966 226.63C127.834 227.575 127.478 228.468 126.933 229.229C126.387 229.991 125.669 230.595 124.844 230.985C123.23 231.762 121.525 232.308 119.775 232.609C115.886 233.301 111.842 232.928 110.065 231.081C107.083 227.971 103.875 220.825 110.841 213.276" stroke="#313553" stroke-linecap="round" stroke-linejoin="round"/>
<path d="M141.034 225.332C139.718 226.343 138.625 227.203 137.947 227.733" stroke="#313553" stroke-linecap="round" stroke-linejoin="round"/>
<path d="M119.775 232.602C119.775 232.602 121.957 241.637 126.529 242.889C130.721 244.317 135.117 244.968 139.52 244.814C141.836 244.63 144.096 243.977 146.177 242.889C146.177 242.889 161.372 234.312 163.655 230.358C164.845 228.54 165.435 226.357 165.335 224.15C165.191 222.692 164.601 221.325 163.655 220.253C160.164 216.113 155.432 215.908 150.978 218.441C147.54 220.527 144.223 222.831 141.046 225.335" stroke="#313553" stroke-linecap="round" stroke-linejoin="round"/>
<path d="M141.046 225.335H141.041L128.078 226.646" stroke="#313553" stroke-linecap="round" stroke-linejoin="round"/>
<path d="M151.286 224.614C150.207 225.962 149.619 227.672 149.629 229.438C149.709 230.18 149.961 230.891 150.363 231.507C150.764 232.123 151.302 232.625 151.931 232.97C152.559 233.315 153.257 233.492 153.965 233.485C154.673 233.478 155.369 233.285 155.99 232.928C158.935 231.207 163.65 227.724 162.353 224.614" stroke="#313553" stroke-linecap="round" stroke-linejoin="round"/>
<path d="M153.307 222.706C154.336 221.742 155.591 221.087 156.941 220.811C157.891 220.767 158.82 221.105 159.544 221.756" stroke="#313553" stroke-linecap="round" stroke-linejoin="round"/>
<path d="M180.565 219.458C176.828 217.214 172.739 218.058 169.208 220.974C165.312 224.205 167.02 222.297 165.335 224.15C165.3 224.187 165.267 224.229 165.228 224.271" stroke="#313553" stroke-linecap="round" stroke-linejoin="round"/>
<path d="M139.526 244.898C140.429 247.935 142.43 250.474 145.095 251.96C147.892 253.35 149.714 255.371 157.493 251.948C161.256 250.206 164.903 248.195 168.406 245.927C168.406 245.927 180.668 235.851 183.286 231.153C183.413 230.929 183.524 230.695 183.617 230.453C184.184 229.256 184.494 227.943 184.522 226.604C184.55 225.267 184.298 223.939 183.783 222.717C183.342 221.852 182.736 221.093 182.002 220.491C181.557 220.113 181.085 219.775 180.588 219.481" stroke="#313553" stroke-linecap="round" stroke-linejoin="round"/>
<path d="M170.5 227.001C169.658 228.526 169.357 230.316 169.652 232.054C169.851 232.772 170.213 233.427 170.707 233.96C171.203 234.496 171.814 234.893 172.489 235.121C173.161 235.347 173.879 235.396 174.575 235.263C175.271 235.128 175.925 234.816 176.48 234.352C179.111 232.128 183.194 227.85 181.418 225.017" stroke="#313553" stroke-linecap="round" stroke-linejoin="round"/>
<path d="M172.185 224.752C173.044 223.62 174.175 222.752 175.46 222.237C176.389 222.024 177.362 222.19 178.182 222.701" stroke="#313553" stroke-linecap="round" stroke-linejoin="round"/>
<path d="M157.654 252.345C157.972 253.478 158.53 254.521 159.284 255.392C160.04 256.266 160.971 256.947 162.01 257.386C165.364 259.052 169.521 257.759 178.896 251.943C178.896 251.943 179.504 251.498 180.455 250.77C183.319 248.624 186.049 246.286 188.628 243.769C189.393 243.022 190.071 242.178 190.644 241.259C192.798 237.422 192.724 235.046 190.348 233.049C189.454 232.156 188.356 231.528 187.161 231.225C185.965 230.922 184.715 230.955 183.537 231.323" stroke="#313553" stroke-linecap="round" stroke-linejoin="round"/>
<path d="M180.986 237.162C180.334 238.34 180.102 239.724 180.331 241.067C180.484 241.621 180.765 242.129 181.146 242.544C181.529 242.959 182.003 243.267 182.525 243.443C183.047 243.619 183.602 243.657 184.141 243.552C184.679 243.449 185.186 243.205 185.615 242.847C187.648 241.126 190.81 237.818 189.426 235.622" stroke="#313553" stroke-linecap="round" stroke-linejoin="round"/>
<path d="M182.293 235.419C182.959 234.542 183.837 233.87 184.833 233.474C185.552 233.308 186.303 233.437 186.934 233.836" stroke="#313553" stroke-linecap="round" stroke-linejoin="round"/>
<path d="M174.909 211.837L176.816 215.681L180.564 219.458L180.586 219.477" stroke="#313553" stroke-linecap="round" stroke-linejoin="round"/>
<path d="M124.844 230.978C123.189 230.176 121.68 229.076 120.385 227.724C119.505 226.513 118.895 225.109 118.602 223.615C118.54 223.277 118.395 222.962 118.183 222.701C117.971 222.44 117.698 222.243 117.391 222.127C117.084 222.01 116.754 221.982 116.433 222.041C116.113 222.101 115.812 222.248 115.561 222.467C114.764 223.09 114.206 223.995 113.989 225.017C113.738 226.191 113.867 227.42 114.357 228.505C114.846 229.592 115.667 230.474 116.688 231.008" stroke="#313553" stroke-linecap="round" stroke-linejoin="round"/>
<path d="M173.514 107.195L115.76 119.761L114.69 114.264L97.3145 25.1898L161.4 11.2403L166.606 10.1096L182.734 92.7637" stroke="#313553" stroke-linecap="round" stroke-linejoin="round"/>
<path d="M114.69 114.264L109.479 115.395L108.403 109.89L91.033 20.8229L155.114 6.87338L160.325 5.74097L161.4 11.2403V11.2455" stroke="#313553" stroke-linecap="round" stroke-linejoin="round"/>
<path d="M108.403 109.89L103.192 111.028L84.7444 16.4491L154.043 1.3689L155.113 6.87345" stroke="#313553" stroke-linecap="round" stroke-linejoin="round"/>
<path d="M110.794 35.3748L158.04 25.0938" stroke="#313553" stroke-linecap="round" stroke-linejoin="round"/>
<path d="M115.543 45.8185L162.79 35.5305" stroke="#313553" stroke-linecap="round" stroke-linejoin="round"/>
<path d="M111.409 52.4536L163.866 41.0349" stroke="#313553" stroke-linecap="round" stroke-linejoin="round"/>
<path d="M112.479 57.9565L164.936 46.5396" stroke="#313553" stroke-linecap="round" stroke-linejoin="round"/>
<path d="M113.556 63.461L150.381 55.4431" stroke="#313553" stroke-linecap="round" stroke-linejoin="round"/>
<path d="M119.838 67.8296L167.084 57.5486" stroke="#313553" stroke-linecap="round" stroke-linejoin="round"/>
<path d="M115.704 74.4649L168.161 63.0532" stroke="#313553" stroke-linecap="round" stroke-linejoin="round"/>
<path d="M116.774 79.9677L169.231 68.5508" stroke="#313553" stroke-linecap="round" stroke-linejoin="round"/>
<path d="M123.056 84.3417L170.308 74.0554" stroke="#313553" stroke-linecap="round" stroke-linejoin="round"/>
<path d="M118.921 90.977L171.378 79.5601" stroke="#313553" stroke-linecap="round" stroke-linejoin="round"/>
<path d="M119.997 96.4814L172.454 85.0645" stroke="#313553" stroke-linecap="round" stroke-linejoin="round"/>
<path d="M136.746 107.177L142.094 106.017L148.449 104.632L161.65 101.757L164.157 101.209L168.366 100.295" stroke="#313553" stroke-linecap="round" stroke-linejoin="round"/>
<path d="M152.302 98.6884C152.136 99.3273 151.11 103.346 152.524 103.388C154.05 103.435 157.529 94.1658 157.529 94.1658C157.529 94.1658 155.826 101.692 157.887 101.848C159.949 102.003 159.649 96.4936 161.437 95.9825C162.694 95.6202 161.652 99.5548 161.652 101.758C161.652 102.704 161.846 103.334 162.49 103.159C163.292 102.949 163.776 102.149 164.159 101.209C164.785 99.6336 165.143 97.6715 166.26 97.3775" stroke="#313553" stroke-linecap="round" stroke-linejoin="round"/>
<path d="M145.674 101.396C146.403 103.267 147.496 104.722 148.418 104.494C150.514 103.959 152.075 99.3693 152.297 98.6884C152.301 98.6683 152.306 98.6483 152.313 98.6289V98.6116" stroke="#313553" stroke-linecap="round" stroke-linejoin="round"/>
<path d="M145.674 101.396C147.364 98.0268 148.298 94.0747 146.277 94.6225C144.315 95.1581 144.628 98.7006 145.674 101.396Z" stroke="#313553" stroke-linecap="round" stroke-linejoin="round"/>
<path d="M142.055 105.817C143.188 105.493 144.588 103.568 145.677 101.396" stroke="#313553" stroke-linecap="round" stroke-linejoin="round"/>
<path d="M133.478 100.626L130.858 104.83L128.239 109.029" stroke="#313553" stroke-linecap="round" stroke-linejoin="round"/>
<path d="M126.877 102.063L130.859 104.83L134.834 107.592" stroke="#313553" stroke-linecap="round" stroke-linejoin="round"/>
<g filter="url(#filter0_i_15441_76763)">
<path fill-rule="evenodd" clip-rule="evenodd" d="M195.601 25.6075L179.524 22.8901L176.931 40.0056L174.338 57.1211L162.28 55.083L163.707 72.8779L171.746 74.2366L169.153 91.3521L166.56 108.468L182.638 111.185L196.706 113.563C217.795 117.127 237.648 101.817 241.049 79.3671L241.697 75.0883C245.098 52.6383 230.758 31.5495 209.67 27.9852L195.601 25.6075ZM187.823 76.954L185.231 94.0695L199.299 96.4472C199.976 96.5617 200.652 96.6425 201.323 96.6909C212.754 97.5144 223.111 88.9259 224.971 76.6498L225.619 72.3709C227.479 60.0947 220.176 48.5216 209.072 45.5363C208.42 45.3609 207.754 45.2152 207.077 45.1007L193.009 42.723L190.416 59.8385L198.455 61.1972L199.882 78.992L187.823 76.954Z" fill="#F15929"/>
</g>
<path d="M179.599 22.3957L179.106 22.3124L179.031 22.8068L176.438 39.9223L173.92 56.5434L162.355 54.5887L161.732 54.4835L161.783 55.1153L163.21 72.9101L163.241 73.3063L163.632 73.3722L171.178 74.6476L168.66 91.2688L166.067 108.384L165.992 108.879L166.485 108.962L182.563 111.679L196.631 114.057C218.02 117.672 238.104 102.145 241.542 79.4505L242.19 75.1716C245.628 52.4769 231.133 31.1058 209.744 27.4908L195.676 25.1131L179.599 22.3957ZM198.53 60.7028L190.984 59.4274L193.427 43.3007L207.002 45.595C207.664 45.7069 208.314 45.8492 208.951 46.0205C219.784 48.9331 226.95 60.2442 225.126 72.2876L224.478 76.5664C222.653 88.6098 212.504 96.9943 201.351 96.1909C200.695 96.1436 200.036 96.0647 199.374 95.9528L185.799 93.6584L188.242 77.5316L199.807 79.4864L200.43 79.5916L200.379 78.9598L198.952 61.1649L198.92 60.7688L198.53 60.7028Z" stroke="#F15929"/>
<defs>
<filter id="filter0_i_15441_76763" x="161.185" y="21.7346" width="82.0081" height="97.3467" filterUnits="userSpaceOnUse" color-interpolation-filters="sRGB">
<feFlood flood-opacity="0" result="BackgroundImageFix"/>
<feBlend mode="normal" in="SourceGraphic" in2="BackgroundImageFix" result="shape"/>
<feColorMatrix in="SourceAlpha" type="matrix" values="0 0 0 0 0 0 0 0 0 0 0 0 0 0 0 0 0 0 127 0" result="hardAlpha"/>
<feOffset dy="4"/>
<feGaussianBlur stdDeviation="2"/>
<feComposite in2="hardAlpha" operator="arithmetic" k2="-1" k3="1"/>
<feColorMatrix type="matrix" values="0 0 0 0 1 0 0 0 0 0.955667 0 0 0 0 0.941667 0 0 0 1 0"/>
<feBlend mode="normal" in2="shape" result="effect1_innerShadow_15441_76763"/>
</filter>
</defs>
</svg>
