<svg width="24" height="24" viewBox="0 0 24 24" fill="none" xmlns="http://www.w3.org/2000/svg">
<path fill-rule="evenodd" clip-rule="evenodd" d="M17.0902 18.4999L15.6702 17.0899C15.4802 17.2599 15.2802 17.4199 15.0702 17.5799L12.0002 19.7699L8.93019 17.5799C8.02322 16.9318 7.28417 16.0764 6.77453 15.085C6.2649 14.0935 5.99942 12.9947 6.00019 11.8799V7.40994L4.00019 5.40994V11.8799C4.00089 13.312 4.34331 14.7232 4.99901 15.9963C5.6547 17.2695 6.60474 18.3678 7.77019 19.1999L11.4202 21.8099C11.5895 21.9305 11.7923 21.9953 12.0002 21.9953C12.2081 21.9953 12.4108 21.9305 12.5802 21.8099L16.2302 19.1999C16.5323 18.9863 16.8196 18.7524 17.0902 18.4999Z" fill="black"/>
<path d="M12.0003 4.19031C11.3894 4.55024 10.7426 4.84519 10.0703 5.07031L10.0803 5.08031C9.8283 5.16518 9.55295 5.14648 9.31478 5.02833C9.19685 4.96983 9.0916 4.88868 9.00503 4.7895C8.91847 4.69032 8.85228 4.57506 8.81026 4.45031C8.76824 4.32555 8.7512 4.19374 8.76012 4.0624C8.76903 3.93106 8.80373 3.80276 8.86223 3.68483C8.92074 3.5669 9.00189 3.46165 9.10107 3.37508C9.20025 3.28852 9.3155 3.22233 9.44026 3.18031C10.1505 2.94225 10.8237 2.60563 11.4403 2.18031C11.6077 2.06418 11.8065 2.00195 12.0103 2.00195C12.214 2.00195 12.4129 2.06418 12.5803 2.18031C13.4738 2.81257 14.4891 3.25199 15.5617 3.47064C16.6342 3.68928 17.7405 3.68236 18.8103 3.45031C18.9555 3.42168 19.1053 3.42568 19.2489 3.46199C19.3924 3.49831 19.5261 3.56604 19.6403 3.66031C19.755 3.75336 19.8476 3.87067 19.9116 4.00381C19.9756 4.13695 20.0093 4.2826 20.0103 4.43031V11.8703C20.0089 12.3726 19.9688 12.8741 19.8903 13.3703C19.8519 13.6069 19.7299 13.8219 19.5463 13.9761C19.3628 14.1303 19.1299 14.2134 18.8903 14.2103H18.7303C18.6001 14.1897 18.4753 14.1435 18.363 14.0744C18.2508 14.0053 18.1533 13.9148 18.0761 13.8079C17.999 13.701 17.9437 13.58 17.9136 13.4517C17.8834 13.3234 17.8789 13.1904 17.9003 13.0603C17.9674 12.6706 18.0009 12.2758 18.0003 11.8803V5.58031C15.903 5.77237 13.7995 5.28506 12.0003 4.19031Z" fill="black"/>
</svg>
