<svg width="243" height="246" viewBox="0 0 243 246" fill="none" xmlns="http://www.w3.org/2000/svg">
<path d="M82.0999 186.132C84.1252 185.406 86.2003 184.83 88.3085 184.41L88.5637 185.357C88.5922 185.469 88.6595 185.566 88.7532 185.632C88.8469 185.697 88.9608 185.727 89.074 185.714L97.421 184.73C99.7174 179.429 103.933 171.397 103.994 171.274C103.933 169.269 103.994 167.584 103.994 165.665C99.2192 167.461 90.3862 170.868 85.7692 173.045C85.6648 173.113 85.584 173.213 85.5383 173.33C85.4925 173.446 85.4841 173.575 85.514 173.697C85.514 173.697 85.5991 174.004 85.7084 174.447C83.4485 174.447 76.681 174.115 75.0529 175.677C74.7997 176.034 74.6753 176.468 74.7005 176.907C74.6033 178.605 75.4417 191.79 76.7782 195.665C77.4707 197.694 78.9287 197.473 79.925 195.529C81.0781 192.603 81.8184 189.526 82.1242 186.391C82.1242 186.231 82.0877 186.243 82.0999 186.132ZM80.7026 175.124C82.1849 175.001 82.6466 175.025 85.8299 174.927C86.401 177.116 87.5795 181.618 88.187 183.918C86.0434 184.254 83.9274 184.752 81.8569 185.407C81.2117 182.014 80.8258 178.576 80.7026 175.124Z" fill="#212121"/>
<path fill-rule="evenodd" clip-rule="evenodd" d="M193.515 66.0596C193.843 66.4901 194.232 67.0436 193.928 67.4741C188.084 75.7766 177.903 86.576 173.188 90.4136C169.134 93.6217 160.514 92.6595 155.297 92.0772L155.048 92.0495C155.225 93.0324 155.52 94.4857 155.873 96.2207C157.407 103.778 160.027 116.68 158.693 119.331C157.928 120.856 155.571 122.517 152.995 123.931L145 126.453C148.014 125.407 156.361 121.766 157.794 118.876C158.968 116.535 156.243 103.184 154.769 95.9626C154.229 93.3173 153.857 91.4944 153.906 91.3361C153.831 91.1379 153.725 90.8596 153.596 90.5223C152.738 88.2646 150.874 83.3616 150.261 82.0988C150.238 82.055 150.233 82.004 150.245 81.9561C150.258 81.9082 150.288 81.8669 150.33 81.8405C150.371 81.8141 150.421 81.8045 150.469 81.8136C150.517 81.8227 150.56 81.8499 150.589 81.8897C152.501 84.6217 153.833 87.725 154.502 91.004C154.752 91.0143 155.218 91.0723 155.85 91.1508C158.259 91.4503 163.069 92.0484 167.429 91.4345C169.241 91.2877 170.985 90.6737 172.496 89.651C177.186 85.9487 187.307 75.2477 193.066 67.1051C192.41 65.7275 186.772 60.746 185.46 60.9551C183.917 61.1865 179.287 64.3187 174.943 67.2574C170.972 69.9435 167.24 72.4679 166.324 72.4679C165.941 72.4644 164.346 71.8043 161.942 70.8098C156.022 68.3605 145.198 63.8822 135.511 62.1851C135.851 65.088 136.033 68.0074 136.058 70.9304L141.513 73.2551C141.596 73.2898 141.667 73.3475 141.719 73.4216C141.77 73.4956 141.8 73.5829 141.805 73.6733C141.826 74.7153 141.854 75.9951 141.885 77.4388C142.089 86.782 142.442 102.991 142.084 106.059C143.431 112.797 144.405 119.605 145 126.453L137.103 128.765C137.103 128.765 137.176 128.556 137.103 128.679C137.083 128.712 137.069 128.748 137.058 128.746C137.03 128.743 137.03 128.479 137.03 127.215C136.742 120.781 135.99 114.376 134.782 108.052C134.78 108.052 134.777 108.052 134.775 108.052C134.664 108.053 134.551 107.795 116.096 80.9918C116.06 80.9301 116.042 80.8601 116.042 80.7889C116.042 80.7176 116.06 80.6476 116.096 80.5859L118.416 75.9242C115.439 73.3904 111.515 70.0202 108.696 67.3142C108.191 66.9742 107.716 66.5915 107.275 66.1703C105.999 66.8591 104.832 67.511 104.152 67.9292C95.2826 73.3781 69.6461 108.999 67.532 113.329C68.6255 115.038 75.3444 120.463 77.1305 120.598C78.3154 120.138 84.9008 113.823 86.8302 111.973C87.0176 111.793 87.1611 111.656 87.2514 111.57C97.1317 101.991 100.26 98.5268 101.391 97.2737C102.033 96.5636 102.033 96.5636 102.257 96.5636C102.322 96.562 102.386 96.5735 102.446 96.5975C102.507 96.6215 102.562 96.6575 102.608 96.7033C102.655 96.7492 102.692 96.804 102.717 96.8645C102.742 96.925 102.755 96.99 102.755 97.0556C102.772 97.3694 102.492 99.8306 102.095 103.321C101.076 112.28 99.285 128.02 99.7659 131.631C99.8024 131.852 99.9968 132.012 100.264 132.184C101.847 133.126 106.076 133.427 111.137 133.292L106.133 134.165C106.133 134.165 99.207 133.759 98.9276 131.705C98.4229 127.934 100.325 111.191 101.311 102.515C101.511 100.748 101.674 99.3162 101.771 98.3963C100.179 100.106 79.2567 121.483 77.252 121.483C76.114 121.222 75.0424 120.723 74.1051 120.02C73.5479 120.424 73.02 120.868 72.5256 121.348C72.4859 121.618 72.6086 122.103 72.7471 122.651C73.0321 123.778 73.3842 125.17 72.5256 125.493C71.3356 125.931 70.5038 124.677 69.8691 123.72C69.7198 123.495 69.5813 123.286 69.4517 123.119C68.9134 123.506 68.2199 124.272 67.486 125.083C65.934 126.797 64.2016 128.71 63.3767 127.658C63.1575 127.315 63.0409 126.916 63.0409 126.508C63.0409 126.1 63.1575 125.7 63.3767 125.358C63.0024 125.602 62.5924 125.785 62.1617 125.899C61.3962 126.022 60.7887 125.629 60.9467 124.952C61.3303 124.166 61.8629 123.464 62.514 122.886L62.4465 122.923C60.1436 124.202 60.0805 124.237 59.7195 124.116C59.5461 124.054 59.3917 123.947 59.2714 123.807C59.1511 123.666 59.0691 123.496 59.0335 123.313C58.998 123.131 59.01 122.942 59.0685 122.766C59.127 122.589 59.23 122.431 59.3672 122.308C61.2827 120.212 64.8178 117.868 67.2455 116.259L67.3983 116.158C67.6325 115.89 67.8362 115.597 68.0058 115.284C67.4555 114.784 66.977 114.209 66.5843 113.575C66.5534 113.474 66.5534 113.367 66.5843 113.267C66.8637 111.52 94.262 73.3289 103.909 67.5356C104.602 67.1174 105.817 66.4655 107.105 65.7767C107.133 65.6518 107.207 65.5422 107.311 65.4692C108.639 64.7104 110.015 64.0406 111.43 63.4643L112.511 62.8739C112.469 62.5982 112.415 62.2415 112.352 61.8285C112.125 60.344 111.788 58.1325 111.503 56.3426C111.4 56.337 111.301 56.3075 111.211 56.2565C110.88 56.058 110.581 55.8091 110.324 55.5185C109.514 54.6285 109.008 53.499 108.878 52.2959C108.524 52.0821 108.214 51.7992 107.968 51.4635C107.722 51.1278 107.544 50.746 107.445 50.3402C107.335 49.9268 107.335 49.8103 107.285 49.7246C107.251 49.6676 107.194 49.6243 107.068 49.5161C106.931 49.3986 106.837 49.3391 106.733 49.2731C106.598 49.1871 106.445 49.0901 106.157 48.8396C104.959 47.8054 104.731 47.3087 104.451 46.6972C104.324 46.4214 104.187 46.1223 103.946 45.74C103.837 45.5608 103.727 45.3916 103.62 45.2269C103.462 44.9845 103.31 44.7516 103.18 44.51C101.321 41.1029 103.642 36.7241 105.464 36.9947H105.598C105.578 36.6465 105.578 36.2974 105.598 35.9492C106.303 33.6399 107.873 31.7017 109.972 30.5495C110.525 30.2447 111.135 30.0599 111.762 30.007C112.39 29.954 113.022 30.0341 113.617 30.242C113.749 29.9187 113.943 29.6256 114.19 29.3804C114.436 29.1352 114.729 28.943 115.051 28.8152C115.6 28.4775 116.23 28.2989 116.873 28.2989C117.516 28.2989 118.146 28.4775 118.696 28.8152C118.824 28.7245 118.938 28.6133 119.053 28.5014C119.157 28.4009 119.261 28.2998 119.376 28.2125C120.293 27.671 121.384 27.5164 122.414 27.782C123.095 27.9852 123.687 28.4195 124.09 29.012H124.649C125.353 29.1805 125.992 29.5573 126.484 30.0944C127.541 31.5177 127.307 32.0556 127.132 32.4594C127.118 32.4918 127.104 32.5234 127.091 32.5544C127.439 33.1163 127.736 33.7092 127.978 34.3256C128.44 36.0476 127.103 37.3514 126.459 37.1546C126.444 37.4389 126.378 37.718 126.265 37.9787C126.173 38.1933 126.116 38.2345 126.113 38.2795C126.108 38.3531 126.248 38.4367 126.617 39.3071C127.213 39.0857 127.905 38.8643 128.233 39.0857C128.817 39.4793 129.193 41.066 129.315 41.7671C129.631 43.5014 129.594 45.1988 128.221 46.2566C128.525 48.6674 128.574 52.4312 127.48 54.596C127.08 55.3819 126.432 55.8061 125.799 56.2205C125.491 56.4222 125.187 56.6216 124.916 56.8592C124.995 57.0791 125.109 57.3863 125.241 57.739C125.638 58.8068 126.192 60.2923 126.374 61.0412H127.395C127.439 60.9808 127.495 60.9307 127.561 60.8946C127.626 60.8585 127.698 60.8372 127.772 60.8321C130.213 60.7844 132.654 60.9697 135.062 61.3856C135.148 61.3976 135.229 61.434 135.296 61.4906C135.362 61.5471 135.412 61.6216 135.438 61.7054C145.537 63.3433 156.793 67.931 162.545 70.2753C164.655 71.135 166.024 71.693 166.324 71.693C166.967 71.693 170.126 69.5351 173.727 67.0763C178.29 63.9598 183.562 60.3597 185.314 60.0572C185.787 60.0305 186.258 60.1369 186.675 60.3647L189.433 58.4336C188.655 56.9945 187.477 54.35 188.996 53.7596C190.514 53.1692 191.729 55.0388 192.495 56.6624C193.741 55.2094 195.085 53.845 196.516 52.5788C197.245 51.9269 198.509 50.9306 199.372 51.3488C200.441 51.8654 200.295 52.9355 199.663 53.9564C201.401 53.243 202.203 54.0179 201.862 54.9773C201.588 55.5897 201.215 56.1511 200.757 56.6378C201.814 56.1827 202.591 56.2319 203.029 57.0191C203.466 57.8063 202.3 59.147 201.68 59.7989C200.188 61.2949 198.469 62.5405 196.589 63.4889C195.475 64.23 194.444 65.092 193.515 66.0596ZM190.106 58.6008C190.088 58.674 190.042 58.7374 189.98 58.778L187.185 60.5615C189.403 61.9436 191.419 63.6327 193.175 65.5799C195.459 63.2262 196.161 62.8359 196.974 62.3844C197.597 62.0384 198.284 61.6566 199.797 60.3278C200.404 59.7866 202.822 57.4988 202.008 57.1913C201.406 56.964 199.961 58.0343 198.703 58.9657C198.26 59.294 197.84 59.605 197.488 59.8358C197.393 59.9163 197.27 59.9556 197.146 59.9454C197.023 59.9351 196.908 59.8761 196.827 59.781C196.745 59.6859 196.704 59.5623 196.712 59.4368C196.72 59.3114 196.776 59.1941 196.869 59.1101C196.933 59.0347 197.145 58.8283 197.442 58.5401C198.5 57.5121 200.63 55.4429 200.915 54.5591C200.188 54.6466 199.494 54.9172 198.898 55.3463C197.729 56.1361 196.613 57.0031 195.557 57.9416C195.119 58.2737 194.864 57.917 194.864 57.5972C194.829 57.5489 194.811 57.4908 194.811 57.4312C194.811 57.3715 194.829 57.3134 194.864 57.2651C195.492 56.6702 196.149 56.1078 196.832 55.58C199.809 52.8248 199.517 51.644 198.302 52.2836C196.699 53.12 193.856 56.2319 192.641 57.5972C192.594 57.6565 192.532 57.7018 192.462 57.7282C192.392 57.7547 192.316 57.7613 192.242 57.7474C192.168 57.7335 192.1 57.6996 192.044 57.6493C191.988 57.599 191.946 57.5343 191.924 57.4619C191.622 56.5723 191.174 55.7406 190.599 55.0019C190.223 54.5714 189.773 54.2516 189.263 54.4484C188.376 54.7682 189.652 57.5849 190.077 58.3844C190.113 58.4502 190.124 58.5276 190.106 58.6008ZM136.41 112.172C136.726 114.079 136.981 115.912 137.188 117.609L142.983 116.404C142.194 110.77 141.161 105.1 139.861 99.3311C140.092 103.279 139.363 108.31 136.933 111.471L136.41 112.172ZM107.797 65.8874C110.786 68.7902 115.925 73.0337 119.121 75.4937C119.179 75.5464 119.22 75.6161 119.237 75.6933C119.255 75.7704 119.248 75.8511 119.218 75.9242L116.958 80.672L134.284 105.481C132.124 95.8414 128.661 86.5493 123.993 77.8676C120.94 72.5136 117.12 67.6474 112.657 63.4274L107.797 65.8874ZM129.521 66.65C128.246 63.4889 127.407 61.6808 127.334 61.5455L126.387 61.4594C126.302 62.5541 125.099 67.4126 124.831 68.4827C126.168 69.4933 127.63 70.3204 129.181 70.9427C129.29 69.8603 129.521 66.7853 129.521 66.65ZM123.288 73.8947C123.191 74.2391 123.106 74.5343 123.021 74.7557H123.033C123.072 74.8183 123.112 74.881 123.151 74.9439C123.772 75.932 124.415 76.957 124.941 77.9168C124.929 77.6543 124.896 77.4028 124.864 77.1624C124.828 76.896 124.795 76.6432 124.795 76.4039C124.534 74.6931 124.511 74.4376 124.412 74.4033C124.355 74.3834 124.272 74.4383 124.102 74.3252L123.288 73.8947ZM114.54 64.5959C117.432 67.3694 120.045 70.4266 122.341 73.7225H122.353C122.551 73.0267 122.756 72.1667 122.953 71.3398C123.227 70.1936 123.485 69.1111 123.689 68.618L114.54 64.5959ZM130.021 75.7438C130.478 77.2716 131.042 79.1559 131.684 80.9303H131.696C132.471 83.1845 132.679 83.5422 133.311 84.6281C134.075 85.9419 135.459 88.3217 139.217 96.416C136.869 86.9947 133.918 77.7379 130.384 68.7041C130.36 69.1592 130.202 71.2133 130.104 71.6192C130.087 71.7365 130.028 71.8435 129.939 71.9203C129.849 71.9972 129.736 72.0388 129.618 72.0374C129.431 72.0221 129.248 71.9807 129.072 71.9144C129.099 72.2213 129.099 72.5301 129.072 72.8369C129.289 73.3009 129.613 74.3804 130.021 75.7438ZM128.549 61.7792C134.09 74.2022 138.962 90.9671 141.732 104.411H141.744C141.763 103.165 141.534 95.1854 141.319 87.7088C141.122 80.8666 140.938 74.4457 140.967 73.9931C140.863 73.9499 140.66 73.8663 140.39 73.7554C139.049 73.2038 136.064 71.9757 135.487 71.6684C135.178 71.504 135.179 71.4764 135.182 70.6697C135.187 69.6656 135.197 67.4547 134.624 62.2712C132.615 61.9449 130.584 61.7804 128.549 61.7792ZM128.391 44.3501C128.604 42.8261 128.381 41.2722 127.747 39.8729C127.188 40.0082 123.689 40.8692 123.361 41.2997C123.645 42.6377 124.082 43.9379 124.661 45.1742C124.911 45.4851 125.241 45.7198 125.614 45.8522C125.988 45.9846 126.39 46.0094 126.777 45.924C127.163 45.8386 127.519 45.6462 127.804 45.3684C128.089 45.0905 128.292 44.738 128.391 44.3501ZM109.668 51.6317C110.131 51.7877 110.585 51.9684 111.029 52.1729V52.1114C111.734 52.4312 111.794 52.5419 111.77 53.0216C112.122 54.3869 113.228 61.8038 113.435 63.1937C119.219 65.4723 122.555 67.1518 123.544 67.6497C123.697 67.7269 123.794 67.7757 123.835 67.7939C124.473 65.823 124.972 63.809 125.33 61.7669C125.395 61.3259 125.382 61.2901 124.408 58.5505C124.295 58.2336 124.169 57.8805 124.029 57.4865C124.015 57.4238 123.997 57.3618 123.98 57.301C123.901 57.0161 123.829 56.7566 124.029 56.564C124.36 56.2339 124.765 55.9749 125.166 55.7189C125.765 55.3358 126.353 54.9596 126.666 54.3623C127.687 52.4435 127.723 48.9257 127.529 46.7609C127.163 46.937 126.765 47.0364 126.36 47.0534C125.955 47.0703 125.551 47.0043 125.172 46.8593C123.898 46.334 123.643 45.2987 123.318 43.9785C123.308 43.9386 123.298 43.8985 123.288 43.8581C123.208 43.9008 123.119 43.9546 123.03 44.0082C122.838 44.1242 122.647 44.2394 122.547 44.2394C123.288 45.1127 125.172 48.0278 124.831 48.8027C124.693 49.0754 124.459 49.286 124.175 49.3931C123.701 49.597 123.203 49.7376 122.693 49.8113C122.643 49.8194 122.593 49.8088 122.55 49.7817C122.508 49.7545 122.476 49.7126 122.462 49.6637C122.434 49.5197 122.484 49.4937 122.704 49.3809C122.86 49.3011 123.101 49.1777 123.458 48.938C123.624 48.8264 123.819 48.664 123.954 48.5522C123.968 48.5409 123.981 48.53 123.993 48.5198C123.542 47.5664 123.248 47.0316 122.978 46.5417C122.667 45.976 122.389 45.4701 121.94 44.4485C121.92 44.4544 121.877 44.4691 121.817 44.4896C121.499 44.5975 120.705 44.8667 120.409 44.8667C120.598 45.7253 120.598 46.6157 120.409 47.4743C119.643 50.0327 115.549 50.6723 114.152 48.4829C113.787 47.9048 112.608 44.387 113.022 43.9319C113.495 43.28 117.42 42.0869 118.513 41.9147C118.703 41.8558 118.907 41.8558 119.097 41.9147C119.728 42.2468 120.129 43.4399 120.312 44.0795C121.213 43.5833 122.198 43.2621 123.215 43.1324C123.143 42.8003 122.839 41.3981 123.045 41.1398C123.988 40.4401 125.039 39.9039 126.156 39.5531C126.046 39.2825 125.925 39.0242 125.791 38.7659C125.242 39.3662 124.518 39.7725 123.724 39.9252C122.93 40.078 122.109 39.9691 121.381 39.6146C121.059 39.4155 120.722 39.2428 120.372 39.098C119.94 39.5409 119.449 39.9217 118.914 40.2296C118.134 40.6329 117.791 40.5312 117.33 40.3948C117.116 40.3316 116.877 40.2608 116.557 40.2296C116.393 40.4055 116.244 40.5887 116.095 40.7709C115.456 41.5573 114.831 42.3245 113.046 42.3944C112.645 42.4147 112.247 42.3255 111.892 42.1361C111.867 42.2591 111.892 46.0229 112.037 46.8716C112.161 47.6528 112.132 48.451 111.952 49.2209C111.936 49.2765 111.909 49.3279 111.872 49.3719C111.835 49.4158 111.789 49.4512 111.737 49.4756C111.685 49.5001 111.629 49.513 111.572 49.5137C111.514 49.5143 111.458 49.5026 111.406 49.4792C111.266 49.4227 111.24 49.3733 111.056 49.0156C110.999 48.9065 110.928 48.7689 110.835 48.5936C110.203 47.6219 109.51 47.585 108.745 48.2369C108.543 48.5089 108.406 48.8239 108.344 49.1579C108.281 49.4919 108.295 49.8359 108.384 50.1636C108.473 50.4913 108.635 50.794 108.858 51.0485C109.08 51.303 109.358 51.5025 109.668 51.6317ZM115.998 48.7043C117.311 49.0733 119.145 48.4952 119.534 47.1545V47.093C119.775 45.5741 119.487 44.0177 118.72 42.6896C118.173 42.7757 113.787 43.6859 113.386 44.1287C113.49 44.7984 113.691 45.449 113.981 46.0598C114.059 46.2589 114.127 46.4437 114.191 46.6154C114.641 47.8225 114.849 48.3813 115.998 48.7043ZM72.015 122.835C71.8442 122.015 71.6943 121.296 71.991 121.004C72.4886 120.561 73.0164 120.154 73.5705 119.786C71.7719 118.532 70.0663 117.147 68.4675 115.641C68.2957 115.994 68.0702 116.318 67.7993 116.6C67.6231 116.725 67.4385 116.855 67.2469 116.991C64.9279 118.628 61.5935 120.982 60.0111 122.947C60.0048 122.962 59.9982 122.978 59.9917 122.993C59.9352 123.125 59.8805 123.253 60.0111 123.341C60.823 122.953 62.9569 121.726 64.2681 120.972C64.7033 120.722 65.0479 120.524 65.2235 120.426C65.7216 120.167 65.9768 120.819 65.9768 120.819C65.9549 120.912 65.9087 120.997 65.8431 121.065C64.5142 122.269 63.2604 123.554 62.0888 124.915C63.381 124.258 64.5653 123.404 65.6001 122.381C65.6743 122.314 65.7393 122.252 65.7978 122.197C66.0074 121.997 66.1338 121.877 66.3048 121.877C66.3957 121.871 66.4866 121.89 66.5675 121.932C66.6485 121.974 66.7165 122.038 66.7641 122.117C66.8117 122.195 66.8371 122.286 66.8375 122.378C66.838 122.47 66.8134 122.561 66.7665 122.64C66.7496 122.666 66.6589 122.763 66.5198 122.91C65.7588 123.719 63.5481 126.066 64.0206 126.982C64.5856 126.78 65.598 125.693 66.6151 124.6C67.5884 123.554 68.5659 122.504 69.1601 122.221C69.6757 122.03 70.0273 122.631 70.3569 123.196C70.4078 123.283 70.4583 123.369 70.5087 123.451L70.5165 123.464C70.8938 124.08 71.5096 125.086 72.1733 124.866C72.2462 124.829 72.2462 124.349 72.2462 124.239C72.2114 123.777 72.11 123.291 72.015 122.835Z" fill="#212121"/>
<path fill-rule="evenodd" clip-rule="evenodd" d="M106.133 134.165C106.133 134.165 105.1 171.286 104.99 171.52L104.585 172.403C101.695 178.71 100.849 180.554 99.8145 182.59C97.8462 186.403 89.5599 200.474 88.6244 203.672C88.4907 204.176 88.4786 204.373 89.001 205.308C87.4353 206.974 85.9821 208.745 84.6513 210.609C83.9831 211.839 86.8505 223.303 88.8795 227.362C89.3412 228.272 90.0945 229.674 91.103 229.637C94.1405 229.527 94.1283 218.481 94.0433 215.394C94.0428 215.299 94.0082 215.207 93.9461 215.136C94.4967 214.304 95.0972 213.507 95.7443 212.749C96.1305 213.019 96.5367 213.257 96.9593 213.463C97.3724 213.647 97.8341 213.328 98.1743 213.045C102.22 209.822 124.042 182.295 128.719 169.306C130.846 163.377 133.677 155.185 134.478 149.38C134.969 145.709 135.014 141.992 134.612 138.31C134.612 138.258 134.633 138.208 134.669 138.171C134.706 138.134 134.755 138.113 134.807 138.113C134.858 138.113 134.908 138.134 134.944 138.171C134.98 138.208 135.001 138.258 135.001 138.31C135.609 142.013 135.728 145.781 135.353 149.515C134.454 157.572 128.173 174.361 124.819 180.536C127.711 179.995 133.592 178.814 136.435 177.953C145.912 175.038 154.66 166.342 155.425 156.575C155.673 151.974 155.673 147.363 155.425 142.762C155.343 136.411 154.528 130.091 152.995 123.931L145 126.453L137.103 128.765C135.265 130.795 123.209 132.738 113.254 133.213C112.536 133.247 111.829 133.274 111.137 133.292L106.133 134.165ZM87.6767 207.694C88.1384 210.191 91.2002 213.377 93.3872 214.717C93.9661 213.926 94.5909 213.171 95.2583 212.454C92.8829 210.592 90.8299 208.344 89.1833 205.8C88.6973 206.464 88.1748 207.055 87.6767 207.694Z" fill="#212121"/>
<path fill-rule="evenodd" clip-rule="evenodd" d="M193.515 66.0596C193.843 66.4901 194.232 67.0436 193.928 67.4741C188.084 75.7766 177.903 86.576 173.188 90.4136C169.134 93.6217 160.514 92.6595 155.297 92.0772L155.048 92.0495C155.225 93.0324 155.52 94.4857 155.873 96.2207C157.407 103.778 160.027 116.68 158.693 119.331C157.928 120.856 155.571 122.517 152.995 123.931L145 126.453C148.014 125.407 156.361 121.766 157.794 118.876C158.968 116.535 156.243 103.184 154.769 95.9626C154.229 93.3173 153.857 91.4944 153.906 91.3361C153.831 91.1379 153.725 90.8596 153.596 90.5223C152.738 88.2646 150.874 83.3616 150.261 82.0988C150.238 82.055 150.233 82.004 150.245 81.9561C150.258 81.9082 150.288 81.8669 150.33 81.8405C150.371 81.8141 150.421 81.8045 150.469 81.8136C150.517 81.8227 150.56 81.8499 150.589 81.8897C152.501 84.6217 153.833 87.725 154.502 91.004C154.752 91.0143 155.218 91.0723 155.85 91.1508C158.259 91.4503 163.069 92.0484 167.429 91.4345C169.241 91.2877 170.985 90.6737 172.496 89.651C177.186 85.9487 187.307 75.2477 193.066 67.1051C192.41 65.7275 186.772 60.746 185.46 60.9551C183.917 61.1865 179.287 64.3187 174.943 67.2574C170.972 69.9435 167.24 72.4679 166.324 72.4679C165.941 72.4644 164.346 71.8043 161.942 70.8098C156.022 68.3605 145.198 63.8822 135.511 62.1851C135.851 65.088 136.033 68.0074 136.058 70.9304L141.513 73.2551C141.596 73.2898 141.667 73.3475 141.719 73.4216C141.77 73.4956 141.8 73.5829 141.805 73.6733C141.826 74.7153 141.854 75.9951 141.885 77.4388C142.089 86.782 142.442 102.991 142.084 106.059C143.431 112.797 144.405 119.605 145 126.453L137.103 128.765C137.103 128.765 137.176 128.556 137.103 128.679C137.083 128.712 137.069 128.748 137.058 128.746C137.03 128.743 137.03 128.479 137.03 127.215C136.742 120.781 135.99 114.376 134.782 108.052C134.78 108.052 134.777 108.052 134.775 108.052C134.664 108.053 134.551 107.795 116.096 80.9918C116.06 80.9301 116.042 80.8601 116.042 80.7889C116.042 80.7176 116.06 80.6476 116.096 80.5859L118.416 75.9242C115.439 73.3904 111.515 70.0202 108.696 67.3142C108.191 66.9742 107.716 66.5915 107.275 66.1703C105.999 66.8591 104.832 67.511 104.152 67.9292C95.2826 73.3781 69.6461 108.999 67.532 113.329C68.6255 115.038 75.3444 120.463 77.1305 120.598C78.3154 120.138 84.9008 113.823 86.8302 111.973C87.0176 111.793 87.1611 111.656 87.2514 111.57C97.1317 101.991 100.26 98.5268 101.391 97.2737C102.033 96.5636 102.033 96.5636 102.257 96.5636C102.322 96.562 102.386 96.5735 102.446 96.5975C102.507 96.6215 102.562 96.6575 102.608 96.7033C102.655 96.7492 102.692 96.804 102.717 96.8645C102.742 96.925 102.755 96.99 102.755 97.0556C102.772 97.3694 102.492 99.8306 102.095 103.321C101.076 112.28 99.285 128.02 99.7659 131.631C99.8024 131.852 99.9968 132.012 100.264 132.184C101.847 133.126 106.076 133.427 111.137 133.292L106.133 134.165C106.133 134.165 99.207 133.759 98.9276 131.705C98.4229 127.934 100.325 111.191 101.311 102.515C101.511 100.748 101.674 99.3162 101.771 98.3963C100.179 100.106 79.2567 121.483 77.252 121.483C76.114 121.222 75.0424 120.723 74.1051 120.02C73.5479 120.424 73.02 120.868 72.5256 121.348C72.4859 121.618 72.6086 122.103 72.7471 122.651C73.0321 123.778 73.3842 125.17 72.5256 125.493C71.3356 125.931 70.5038 124.677 69.8691 123.72C69.7198 123.495 69.5813 123.286 69.4517 123.119C68.9134 123.506 68.2199 124.272 67.486 125.083C65.934 126.797 64.2016 128.71 63.3767 127.658C63.1575 127.315 63.0409 126.916 63.0409 126.508C63.0409 126.1 63.1575 125.7 63.3767 125.358C63.0024 125.602 62.5924 125.785 62.1617 125.899C61.3962 126.022 60.7887 125.629 60.9467 124.952C61.3303 124.166 61.8629 123.464 62.514 122.886L62.4465 122.923C60.1436 124.202 60.0805 124.237 59.7195 124.116C59.5461 124.054 59.3917 123.947 59.2714 123.807C59.1511 123.666 59.0691 123.496 59.0335 123.313C58.998 123.131 59.01 122.942 59.0685 122.766C59.127 122.589 59.23 122.431 59.3672 122.308C61.2827 120.212 64.8178 117.868 67.2455 116.259L67.3983 116.158C67.6325 115.89 67.8362 115.597 68.0058 115.284C67.4555 114.784 66.977 114.209 66.5843 113.575C66.5534 113.474 66.5534 113.367 66.5843 113.267C66.8637 111.52 94.262 73.3289 103.909 67.5356C104.602 67.1174 105.817 66.4655 107.105 65.7767C107.133 65.6518 107.207 65.5422 107.311 65.4692C108.639 64.7104 110.015 64.0406 111.43 63.4643L112.511 62.8739C112.469 62.5982 112.415 62.2415 112.352 61.8285C112.125 60.344 111.788 58.1325 111.503 56.3426C111.4 56.337 111.301 56.3075 111.211 56.2565C110.88 56.058 110.581 55.8091 110.324 55.5185C109.514 54.6285 109.008 53.499 108.878 52.2959C108.524 52.0821 108.214 51.7992 107.968 51.4635C107.722 51.1278 107.544 50.746 107.445 50.3402C107.335 49.9268 107.335 49.8103 107.285 49.7246C107.251 49.6676 107.194 49.6243 107.068 49.5161C106.931 49.3986 106.837 49.3391 106.733 49.2731C106.598 49.1871 106.445 49.0901 106.157 48.8396C104.959 47.8054 104.731 47.3087 104.451 46.6972C104.324 46.4214 104.187 46.1223 103.946 45.74C103.837 45.5608 103.727 45.3916 103.62 45.2269C103.462 44.9845 103.31 44.7516 103.18 44.51C101.321 41.1029 103.642 36.7241 105.464 36.9947H105.598C105.578 36.6465 105.578 36.2974 105.598 35.9492C106.303 33.6399 107.873 31.7017 109.972 30.5495C110.525 30.2447 111.135 30.0599 111.762 30.007C112.39 29.954 113.022 30.0341 113.617 30.242C113.749 29.9187 113.943 29.6256 114.19 29.3804C114.436 29.1352 114.729 28.943 115.051 28.8152C115.6 28.4775 116.23 28.2989 116.873 28.2989C117.516 28.2989 118.146 28.4775 118.696 28.8152C118.824 28.7245 118.938 28.6133 119.053 28.5014C119.157 28.4009 119.261 28.2998 119.376 28.2125C120.293 27.671 121.384 27.5164 122.414 27.782C123.095 27.9852 123.687 28.4195 124.09 29.012H124.649C125.353 29.1805 125.992 29.5573 126.484 30.0944C127.541 31.5177 127.307 32.0556 127.132 32.4594C127.118 32.4918 127.104 32.5234 127.091 32.5544C127.439 33.1163 127.736 33.7092 127.978 34.3256C128.44 36.0476 127.103 37.3514 126.459 37.1546C126.444 37.4389 126.378 37.718 126.265 37.9787C126.173 38.1933 126.116 38.2345 126.113 38.2795C126.108 38.3531 126.248 38.4367 126.617 39.3071C127.213 39.0857 127.905 38.8643 128.233 39.0857C128.817 39.4793 129.193 41.066 129.315 41.7671C129.631 43.5014 129.594 45.1988 128.221 46.2566C128.525 48.6674 128.574 52.4312 127.48 54.596C127.08 55.3819 126.432 55.8061 125.799 56.2205C125.491 56.4222 125.187 56.6216 124.916 56.8592C124.995 57.0791 125.109 57.3863 125.241 57.739C125.638 58.8068 126.192 60.2923 126.374 61.0412H127.395C127.439 60.9808 127.495 60.9307 127.561 60.8946C127.626 60.8585 127.698 60.8372 127.772 60.8321C130.213 60.7844 132.654 60.9697 135.062 61.3856C135.148 61.3976 135.229 61.434 135.296 61.4906C135.362 61.5471 135.412 61.6216 135.438 61.7054C145.537 63.3433 156.793 67.931 162.545 70.2753C164.655 71.135 166.024 71.693 166.324 71.693C166.967 71.693 170.126 69.5351 173.727 67.0763C178.29 63.9598 183.562 60.3597 185.314 60.0572C185.787 60.0305 186.258 60.1369 186.675 60.3647L189.433 58.4336C188.655 56.9945 187.477 54.35 188.996 53.7596C190.514 53.1692 191.729 55.0388 192.495 56.6624C193.741 55.2094 195.085 53.845 196.516 52.5788C197.245 51.9269 198.509 50.9306 199.372 51.3488C200.441 51.8654 200.295 52.9355 199.663 53.9564C201.401 53.243 202.203 54.0179 201.862 54.9773C201.588 55.5897 201.215 56.1511 200.757 56.6378C201.814 56.1827 202.591 56.2319 203.029 57.0191C203.466 57.8063 202.3 59.147 201.68 59.7989C200.188 61.2949 198.469 62.5405 196.589 63.4889C195.475 64.23 194.444 65.092 193.515 66.0596ZM190.106 58.6008C190.088 58.674 190.042 58.7374 189.98 58.778L187.185 60.5615C189.403 61.9436 191.419 63.6327 193.175 65.5799C195.459 63.2262 196.161 62.8359 196.974 62.3844C197.597 62.0384 198.284 61.6566 199.797 60.3278C200.404 59.7866 202.822 57.4988 202.008 57.1913C201.406 56.964 199.961 58.0343 198.703 58.9657C198.26 59.294 197.84 59.605 197.488 59.8358C197.393 59.9163 197.27 59.9556 197.146 59.9454C197.023 59.9351 196.908 59.8761 196.827 59.781C196.745 59.6859 196.704 59.5623 196.712 59.4368C196.72 59.3114 196.776 59.1941 196.869 59.1101C196.933 59.0347 197.145 58.8283 197.442 58.5401C198.5 57.5121 200.63 55.4429 200.915 54.5591C200.188 54.6466 199.494 54.9172 198.898 55.3463C197.729 56.1361 196.613 57.0031 195.557 57.9416C195.119 58.2737 194.864 57.917 194.864 57.5972C194.829 57.5489 194.811 57.4908 194.811 57.4312C194.811 57.3715 194.829 57.3134 194.864 57.2651C195.492 56.6702 196.149 56.1078 196.832 55.58C199.809 52.8248 199.517 51.644 198.302 52.2836C196.699 53.12 193.856 56.2319 192.641 57.5972C192.594 57.6565 192.532 57.7018 192.462 57.7282C192.392 57.7547 192.316 57.7613 192.242 57.7474C192.168 57.7335 192.1 57.6996 192.044 57.6493C191.988 57.599 191.946 57.5343 191.924 57.4619C191.622 56.5723 191.174 55.7406 190.599 55.0019C190.223 54.5714 189.773 54.2516 189.263 54.4484C188.376 54.7682 189.652 57.5849 190.077 58.3844C190.113 58.4502 190.124 58.5276 190.106 58.6008ZM136.41 112.172C136.726 114.079 136.981 115.912 137.188 117.609L142.983 116.404C142.194 110.77 141.161 105.1 139.861 99.3311C140.092 103.279 139.363 108.31 136.933 111.471L136.41 112.172ZM107.797 65.8874C110.786 68.7902 115.925 73.0337 119.121 75.4937C119.179 75.5464 119.22 75.6161 119.237 75.6933C119.255 75.7704 119.248 75.8511 119.218 75.9242L116.958 80.672L134.284 105.481C132.124 95.8414 128.661 86.5493 123.993 77.8676C120.94 72.5136 117.12 67.6474 112.657 63.4274L107.797 65.8874ZM129.521 66.65C128.246 63.4889 127.407 61.6808 127.334 61.5455L126.387 61.4594C126.302 62.5541 125.099 67.4126 124.831 68.4827C126.168 69.4933 127.63 70.3204 129.181 70.9427C129.29 69.8603 129.521 66.7853 129.521 66.65ZM123.288 73.8947C123.191 74.2391 123.106 74.5343 123.021 74.7557H123.033C123.072 74.8183 123.112 74.881 123.151 74.9439C123.772 75.932 124.415 76.957 124.941 77.9168C124.929 77.6543 124.896 77.4028 124.864 77.1624C124.828 76.896 124.795 76.6432 124.795 76.4039C124.534 74.6931 124.511 74.4376 124.412 74.4033C124.355 74.3834 124.272 74.4383 124.102 74.3252L123.288 73.8947ZM114.54 64.5959C117.432 67.3694 120.045 70.4266 122.341 73.7225H122.353C122.551 73.0267 122.756 72.1667 122.953 71.3398C123.227 70.1936 123.485 69.1111 123.689 68.618L114.54 64.5959ZM130.021 75.7438C130.478 77.2716 131.042 79.1559 131.684 80.9303H131.696C132.471 83.1845 132.679 83.5422 133.311 84.6281C134.075 85.9419 135.459 88.3217 139.217 96.416C136.869 86.9947 133.918 77.7379 130.384 68.7041C130.36 69.1592 130.202 71.2133 130.104 71.6192C130.087 71.7365 130.028 71.8435 129.939 71.9203C129.849 71.9972 129.736 72.0388 129.618 72.0374C129.431 72.0221 129.248 71.9807 129.072 71.9144C129.099 72.2213 129.099 72.5301 129.072 72.8369C129.289 73.3009 129.613 74.3804 130.021 75.7438ZM128.549 61.7792C134.09 74.2022 138.962 90.9671 141.732 104.411H141.744C141.763 103.165 141.534 95.1854 141.319 87.7088C141.122 80.8666 140.938 74.4457 140.967 73.9931C140.863 73.9499 140.66 73.8663 140.39 73.7554C139.049 73.2038 136.064 71.9757 135.487 71.6684C135.178 71.504 135.179 71.4764 135.182 70.6697C135.187 69.6656 135.197 67.4547 134.624 62.2712C132.615 61.9449 130.584 61.7804 128.549 61.7792ZM128.391 44.3501C128.604 42.8261 128.381 41.2722 127.747 39.8729C127.188 40.0082 123.689 40.8692 123.361 41.2997C123.645 42.6377 124.082 43.9379 124.661 45.1742C124.911 45.4851 125.241 45.7198 125.614 45.8522C125.988 45.9846 126.39 46.0094 126.777 45.924C127.163 45.8386 127.519 45.6462 127.804 45.3684C128.089 45.0905 128.292 44.738 128.391 44.3501ZM109.668 51.6317C110.131 51.7877 110.585 51.9684 111.029 52.1729V52.1114C111.734 52.4312 111.794 52.5419 111.77 53.0216C112.122 54.3869 113.228 61.8038 113.435 63.1937C119.219 65.4723 122.555 67.1518 123.544 67.6497C123.697 67.7269 123.794 67.7757 123.835 67.7939C124.473 65.823 124.972 63.809 125.33 61.7669C125.395 61.3259 125.382 61.2901 124.408 58.5505C124.295 58.2336 124.169 57.8805 124.029 57.4865C124.015 57.4238 123.997 57.3618 123.98 57.301C123.901 57.0161 123.829 56.7566 124.029 56.564C124.36 56.2339 124.765 55.9749 125.166 55.7189C125.765 55.3358 126.353 54.9596 126.666 54.3623C127.687 52.4435 127.723 48.9257 127.529 46.7609C127.163 46.937 126.765 47.0364 126.36 47.0534C125.955 47.0703 125.551 47.0043 125.172 46.8593C123.898 46.334 123.643 45.2987 123.318 43.9785C123.308 43.9386 123.298 43.8985 123.288 43.8581C123.208 43.9008 123.119 43.9546 123.03 44.0082C122.838 44.1242 122.647 44.2394 122.547 44.2394C123.288 45.1127 125.172 48.0278 124.831 48.8027C124.693 49.0754 124.459 49.286 124.175 49.3931C123.701 49.597 123.203 49.7376 122.693 49.8113C122.643 49.8194 122.593 49.8088 122.55 49.7817C122.508 49.7545 122.476 49.7126 122.462 49.6637C122.434 49.5197 122.484 49.4937 122.704 49.3809C122.86 49.3011 123.101 49.1777 123.458 48.938C123.624 48.8264 123.819 48.664 123.954 48.5522C123.968 48.5409 123.981 48.53 123.993 48.5198C123.542 47.5664 123.248 47.0316 122.978 46.5417C122.667 45.976 122.389 45.4701 121.94 44.4485C121.92 44.4544 121.877 44.4691 121.817 44.4896C121.499 44.5975 120.705 44.8667 120.409 44.8667C120.598 45.7253 120.598 46.6157 120.409 47.4743C119.643 50.0327 115.549 50.6723 114.152 48.4829C113.787 47.9048 112.608 44.387 113.022 43.9319C113.495 43.28 117.42 42.0869 118.513 41.9147C118.703 41.8558 118.907 41.8558 119.097 41.9147C119.728 42.2468 120.129 43.4399 120.312 44.0795C121.213 43.5833 122.198 43.2621 123.215 43.1324C123.143 42.8003 122.839 41.3981 123.045 41.1398C123.988 40.4401 125.039 39.9039 126.156 39.5531C126.046 39.2825 125.925 39.0242 125.791 38.7659C125.242 39.3662 124.518 39.7725 123.724 39.9252C122.93 40.078 122.109 39.9691 121.381 39.6146C121.059 39.4155 120.722 39.2428 120.372 39.098C119.94 39.5409 119.449 39.9217 118.914 40.2296C118.134 40.6329 117.791 40.5312 117.33 40.3948C117.116 40.3316 116.877 40.2608 116.557 40.2296C116.393 40.4055 116.244 40.5887 116.095 40.7709C115.456 41.5573 114.831 42.3245 113.046 42.3944C112.645 42.4147 112.247 42.3255 111.892 42.1361C111.867 42.2591 111.892 46.0229 112.037 46.8716C112.161 47.6528 112.132 48.451 111.952 49.2209C111.936 49.2765 111.909 49.3279 111.872 49.3719C111.835 49.4158 111.789 49.4512 111.737 49.4756C111.685 49.5001 111.629 49.513 111.572 49.5137C111.514 49.5143 111.458 49.5026 111.406 49.4792C111.266 49.4227 111.24 49.3733 111.056 49.0156C110.999 48.9065 110.928 48.7689 110.835 48.5936C110.203 47.6219 109.51 47.585 108.745 48.2369C108.543 48.5089 108.406 48.8239 108.344 49.1579C108.281 49.4919 108.295 49.8359 108.384 50.1636C108.473 50.4913 108.635 50.794 108.858 51.0485C109.08 51.303 109.358 51.5025 109.668 51.6317ZM115.998 48.7043C117.311 49.0733 119.145 48.4952 119.534 47.1545V47.093C119.775 45.5741 119.487 44.0177 118.72 42.6896C118.173 42.7757 113.787 43.6859 113.386 44.1287C113.49 44.7984 113.691 45.449 113.981 46.0598C114.059 46.2589 114.127 46.4437 114.191 46.6154C114.641 47.8225 114.849 48.3813 115.998 48.7043ZM72.015 122.835C71.8442 122.015 71.6943 121.296 71.991 121.004C72.4886 120.561 73.0164 120.154 73.5705 119.786C71.7719 118.532 70.0663 117.147 68.4675 115.641C68.2957 115.994 68.0702 116.318 67.7993 116.6C67.6231 116.725 67.4385 116.855 67.2469 116.991C64.9279 118.628 61.5935 120.982 60.0111 122.947C60.0048 122.962 59.9982 122.978 59.9917 122.993C59.9352 123.125 59.8805 123.253 60.0111 123.341C60.823 122.953 62.9569 121.726 64.2681 120.972C64.7033 120.722 65.0479 120.524 65.2235 120.426C65.7216 120.167 65.9768 120.819 65.9768 120.819C65.9549 120.912 65.9087 120.997 65.8431 121.065C64.5142 122.269 63.2604 123.554 62.0888 124.915C63.381 124.258 64.5653 123.404 65.6001 122.381C65.6743 122.314 65.7393 122.252 65.7978 122.197C66.0074 121.997 66.1338 121.877 66.3048 121.877C66.3957 121.871 66.4866 121.89 66.5675 121.932C66.6485 121.974 66.7165 122.038 66.7641 122.117C66.8117 122.195 66.8371 122.286 66.8375 122.378C66.838 122.47 66.8134 122.561 66.7665 122.64C66.7496 122.666 66.6589 122.763 66.5198 122.91C65.7588 123.719 63.5481 126.066 64.0206 126.982C64.5856 126.78 65.598 125.693 66.6151 124.6C67.5884 123.554 68.5659 122.504 69.1601 122.221C69.6757 122.03 70.0273 122.631 70.3569 123.196C70.4078 123.283 70.4583 123.369 70.5087 123.451L70.5165 123.464C70.8938 124.08 71.5096 125.086 72.1733 124.866C72.2462 124.829 72.2462 124.349 72.2462 124.239C72.2114 123.777 72.11 123.291 72.015 122.835Z" fill="black"/>
<path d="M122 52.8371C122.79 53.0708 123.543 52.6895 123.519 52.4927C123.495 52.2959 123.519 52.3943 122.45 51.9884C121.733 51.7178 120.943 50.7584 120.664 50.906C120.384 51.0536 120.81 51.8408 120.907 51.9884C121.167 52.3877 121.552 52.6866 122 52.8371ZM144.223 41.1521C142.631 47.9048 141.465 53.6366 141.27 54.7805C141.141 55.2782 141.116 55.7977 141.197 56.3057C141.841 57.6956 150.164 60.4385 151.221 59.8973C152.278 59.3561 155.024 53.0954 158.22 46.6379C160.177 46.7012 162.136 46.5569 164.064 46.2074C166.094 45.8304 168.069 45.1982 169.944 44.3255C174.051 42.4067 178.547 34.1903 179.154 30.0575C179.61 25.5705 178.671 21.0514 176.469 17.1302C166.275 -0.766291 136.374 8.86461 138.804 28.7414C139.498 33.2896 141.367 37.5712 144.223 41.1521ZM151.634 55.8014C151.634 55.9982 151.416 55.9736 150.419 55.8014C148.381 55.5422 146.408 54.9042 144.599 53.9195C143.749 53.4521 143.518 53.3537 143.603 53.1446C143.688 52.9355 143.87 53.0093 145.183 53.3783C145.304 53.3783 149.071 54.6083 150.152 54.9896C151.549 55.6292 151.634 55.6292 151.634 55.8014ZM151.416 35.7893C152.713 35.8574 154.006 35.5863 155.17 35.0021C156.252 35.5327 157.422 35.8539 158.621 35.9492C156.579 39.7991 152.436 47.6465 151.1 51.8285L145.948 50.3894C147.163 47.3636 149.848 40.2788 151.391 35.7893H151.416ZM150.99 34.7684C150.083 34.6297 149.246 34.1936 148.608 33.5271C147.969 32.8606 147.564 32.0004 147.455 31.0784C147.114 28.6184 148.67 25.8632 151.015 26.5151C152.485 26.921 152.667 28.1018 152.412 29.5901C152.193 30.6725 151.403 33.3908 150.966 34.7192L150.99 34.7684ZM154.295 31.8164C154.425 31.0116 154.723 30.2441 155.17 29.5655C155.383 29.1956 155.693 28.8935 156.067 28.6934C156.441 28.4934 156.862 28.4035 157.284 28.4339C158.183 28.7045 158.572 30.4265 157.831 31.5089C157.118 32.4658 156.232 33.2758 155.219 33.8951C154.87 33.688 154.592 33.3778 154.423 33.0062C154.253 32.6346 154.2 32.2194 154.271 31.8164H154.295ZM143.129 16.1831C148.572 9.55341 158.815 6.92121 166.214 9.65181C170.234 11.0486 173.615 13.8769 175.728 17.6099C177.823 21.3412 178.719 25.6399 178.291 29.9099C177.732 33.7352 173.431 41.681 169.653 43.4399C166.198 45.0352 162.428 45.8094 158.633 45.7031C158.22 45.7031 157.782 45.7031 157.624 45.9983C156.907 47.4743 155.595 50.3279 154.307 53.0093C153.418 52.5746 152.496 52.2126 151.549 51.9269C152.959 47.8433 157.406 39.8237 159.52 35.9369C161.351 36.0958 163.193 35.7738 164.866 35.0021C165.318 34.7612 165.692 34.3949 165.946 33.946C166.199 33.4971 166.321 32.9842 166.297 32.4677C166.273 31.9512 166.104 31.4524 165.809 31.0298C165.515 30.6073 165.107 30.2785 164.635 30.0821C162.752 29.1473 161.063 31.3859 160.079 33.2678C159.811 33.7598 159.507 34.3379 159.167 34.9898C158.185 34.9244 157.216 34.7216 156.288 34.3871C157.212 33.7297 158.031 32.9333 158.718 32.0255C159.102 31.4374 159.297 30.7429 159.276 30.0379C159.254 29.3329 159.016 28.6521 158.596 28.0895C158.266 27.7015 157.808 27.4486 157.307 27.3784C156.806 27.3082 156.296 27.4255 155.875 27.7082C155.024 28.2375 154.342 29.0042 153.911 29.9162C153.48 30.8282 153.318 31.8468 153.445 32.8496C153.577 33.4157 153.878 33.9268 154.307 34.3133C153.51 34.6475 152.655 34.8148 151.792 34.8053C152.278 33.3539 153.068 30.734 153.275 29.6639C153.404 29.0538 153.433 28.4262 153.36 27.8066C153.266 27.2747 153.022 26.7816 152.658 26.3867C152.293 25.9917 151.824 25.7117 151.306 25.5803C148.354 24.7316 146.179 28.0403 146.604 31.1276C146.724 32.234 147.193 33.2717 147.942 34.087C148.69 34.9023 149.678 35.4518 150.759 35.654C149.204 40.082 146.774 47.2283 145.559 50.2787L142.886 49.5776C144.599 40.8692 144.806 41.0783 144.563 40.9676C141.802 37.4043 140.036 33.1568 139.448 28.6676C139.161 26.4416 139.341 24.1795 139.976 22.0286C140.61 19.8776 141.684 17.8859 143.129 16.1831ZM159.993 35.0636C160.844 33.5015 162.545 30.0821 164.197 30.9185C164.528 31.0533 164.816 31.2769 165.03 31.5652C165.244 31.8535 165.376 32.1956 165.412 32.5544C165.388 34.7192 162.059 35.1005 159.945 35.0636H159.993ZM206.504 40.4879C207.968 39.6162 209.697 39.3186 211.364 39.6515C213.194 39.6847 214.943 40.4256 216.251 41.7224C217.559 43.0192 218.327 44.7736 218.399 46.6256C217.298 45.979 216.011 45.7358 214.754 45.9368C211.704 46.2074 207.719 47.8802 208.253 50.8568C208.691 53.3168 211.898 52.9847 214.328 52.3205C216.758 51.6563 218.69 50.4509 219.188 48.077C222.141 50.2541 222.833 54.0671 222.955 57.794C222.955 57.8462 222.975 57.8963 223.012 57.9332C223.048 57.9701 223.098 57.9908 223.149 57.9908C223.201 57.9908 223.25 57.9701 223.287 57.9332C223.323 57.8963 223.344 57.8462 223.344 57.794C223.429 53.6243 222.688 49.5407 219.322 47.1668C219.357 46.0989 219.177 45.035 218.793 44.0395C218.41 43.044 217.831 42.1376 217.092 41.3752C216.352 40.6128 215.468 40.0102 214.491 39.604C213.515 39.1978 212.468 38.9964 211.412 39.0119C209.726 38.7626 208.006 39.1195 206.552 40.0205C206.103 40.2419 206.309 40.574 206.504 40.4879ZM217.584 49.307C216.212 51.1274 212.324 52.0745 210.525 51.767C209.857 51.6563 209.31 51.3734 209.165 50.6723C208.727 48.2123 212.919 46.8716 215.422 46.7855C216.441 46.7064 217.458 46.9702 218.313 47.5358C218.222 48.1789 217.971 48.7881 217.584 49.307ZM200.939 26.1092C202.239 24.4856 201.364 21.6566 197.731 21.6443C196.322 21.6443 195.642 23.0957 195.739 24.4856C195.957 27.7943 199.639 27.6959 200.939 26.1092ZM196.589 24.4241C196.589 23.6123 196.966 22.5545 197.804 22.5668C199.76 22.5668 200.66 23.4893 200.66 24.5102C200.611 26.8349 196.431 28.0403 196.589 24.4241ZM196.091 163.869C185.411 159.552 180.454 180.45 171.73 198.408C171.675 199.162 171.7 199.921 171.803 200.671C171.803 202.553 172.01 215.013 173.091 216.427C173.383 216.993 174.61 216.427 175.181 216.07C180.031 213.031 184.602 209.557 188.838 205.689C188.874 205.647 188.901 205.599 188.918 205.546C188.934 205.493 188.94 205.437 188.935 205.382C191.195 202.122 199.663 185.148 201.717 176.637C203.15 170.61 201.729 166.12 196.091 163.869ZM199.906 179.49C194.189 178.749 188.661 176.921 183.613 174.103C186.456 168.654 189.968 162.442 195.763 164.779C202.215 167.375 202.081 172.75 199.906 179.453V179.49ZM179.689 211.47C179.316 211.154 178.908 210.881 178.474 210.658C176.832 209.813 174.935 209.629 173.164 210.142C173.043 208.678 172.35 199.158 172.35 199.072C181.45 202.442 178.644 200.978 187.659 205.517C186.711 206.427 183.151 208.949 179.689 211.446V211.47ZM185.958 175.874C187.143 176.529 188.36 177.125 189.603 177.658C186.818 182.086 184.357 186.715 182.24 191.507C180.199 195.825 180.272 195.8 178.194 200.511C176.979 200.117 175.764 199.748 174.549 199.379C175.861 196.735 185.193 177.399 185.958 175.849V175.874ZM178.668 200.634C182.617 193.463 186.638 184.546 190.089 177.817C191.304 178.334 192.519 178.752 193.734 179.121C193.09 180.351 191.207 183.623 190.709 184.57C190.211 185.517 185.217 195.48 184.865 196.243C184.306 197.473 182.775 200.905 182.301 201.999C181.062 201.446 179.871 201.027 178.619 200.609L178.668 200.634ZM182.738 202.159C183.479 200.794 186.529 195.062 186.906 194.324C187.477 193.18 193.843 180.007 194.196 179.244C195.314 179.564 196.492 179.835 197.245 179.982C195.022 186.132 188.619 197.977 186.31 203.82C184.208 202.823 183.735 202.577 182.69 202.135L182.738 202.159ZM183.479 174.46L185.654 175.689C181.271 183.245 177.454 191.123 174.233 199.256L172.411 198.691C179.47 183.463 179.798 181.471 183.431 174.435L183.479 174.46ZM188.485 204.89L186.651 204.004C188.631 200.068 194.828 189.97 197.658 180.068C198.339 180.191 199.007 180.302 199.651 180.388C196.529 188.822 192.78 197.004 188.437 204.865L188.485 204.89ZM150.419 212.872C150.904 212.467 151.25 211.917 151.409 211.301C151.568 210.685 151.532 210.035 151.306 209.441C151.203 208.584 150.815 207.788 150.205 207.184C149.596 206.58 148.802 206.204 147.953 206.118C147.104 206.032 146.252 206.241 145.537 206.711C144.821 207.181 144.285 207.883 144.016 208.703C142.461 207.682 140.772 206.599 139.156 205.566C140.371 203.93 143.943 204.656 144.308 205.997C144.316 206.049 144.344 206.096 144.386 206.127C144.428 206.158 144.481 206.171 144.533 206.163C144.584 206.155 144.63 206.126 144.661 206.083C144.692 206.041 144.705 205.987 144.697 205.935C144.514 203.795 140.116 202.54 138.342 205.062C136.775 204.09 134.831 202.909 133.203 202.012C134.6 200.781 137.723 201.47 138.063 202.75C138.079 202.793 138.11 202.83 138.15 202.853C138.19 202.876 138.237 202.883 138.282 202.874C138.327 202.866 138.368 202.841 138.397 202.804C138.426 202.768 138.441 202.722 138.439 202.676C138.281 200.683 134.211 199.342 132.364 201.532C131.591 201.093 130.777 200.73 129.934 200.449C129.78 200.385 129.611 200.367 129.448 200.397C129.284 200.428 129.132 200.506 129.011 200.622C125.937 204.496 115.573 214.558 110.786 215.726C110.666 215.744 110.552 215.794 110.457 215.871C110.362 215.948 110.289 216.049 110.244 216.164C110.2 216.279 110.186 216.403 110.204 216.525C110.223 216.647 110.273 216.761 110.349 216.858C111.4 217.938 112.604 218.854 113.921 219.576C112.706 220.806 111.758 221.913 111.053 222.712C110.689 223.106 110.494 230.634 110.81 232.294C110.857 232.457 110.961 232.596 111.102 232.688C112.633 233.745 132.352 242.38 134.369 241.224C135.718 240.449 151.817 223.487 152.072 222.971C152.46 222.159 152.327 216.747 152.303 214.582C152.205 213.93 151.003 213.229 150.419 212.872ZM111.539 229.121V226.378C116.582 228.838 128.124 233.856 132.498 235.258C133.616 235.627 133.713 235.578 134.296 235.258C137.638 233.094 149.435 219.637 151.598 217.583V220.179C145.037 226.833 133.895 238.493 133.689 237.829C132.486 237.755 112.584 229.613 111.539 229.121ZM150.116 208.727C150.552 209.472 150.787 210.321 150.796 211.187C150.792 211.463 150.725 211.734 150.601 211.979C150.476 212.225 150.298 212.438 150.079 212.602C149.059 211.913 147.127 210.634 144.842 209.133C146.094 206.636 148.876 206.599 150.067 208.727H150.116ZM111.236 216.599C116.411 215.049 126.241 205.455 129.546 201.298C130.341 201.522 131.108 201.84 131.83 202.245C130.615 204.533 131.915 207.042 132.377 206.686C132.632 206.489 132.17 206.415 132.097 205.21C132.066 204.329 132.263 203.455 132.668 202.676C134.345 203.561 136.313 204.717 137.978 205.689C136.957 207.989 138.184 210.265 138.609 209.933C139.035 209.601 138.415 209.674 138.342 208.469C138.313 207.679 138.462 206.892 138.78 206.169C140.493 207.19 142.242 208.248 143.846 209.244C143.599 209.857 143.501 210.521 143.56 211.18C143.619 211.839 143.834 212.475 144.186 213.032C144.202 213.053 144.222 213.071 144.245 213.084C144.268 213.097 144.293 213.106 144.319 213.109C144.344 213.113 144.371 213.111 144.396 213.104C144.421 213.097 144.445 213.085 144.466 213.069C144.487 213.053 144.504 213.033 144.517 213.01C144.53 212.987 144.539 212.962 144.542 212.935C144.545 212.909 144.544 212.882 144.537 212.857C144.53 212.831 144.518 212.807 144.502 212.786C144.284 212.298 144.176 211.766 144.187 211.23C144.197 210.693 144.326 210.166 144.563 209.687C147.394 211.433 149.678 212.897 150.383 213.377C150.249 213.5 137.577 224.914 133.263 228.309C130.433 227.559 115.573 220.092 111.236 216.599ZM111.697 223.45C117.201 225.91 129.704 231.618 132.583 232.171C133.081 232.27 133.276 232.306 134.223 231.544C138.269 228.26 151.428 214.324 151.549 214.471C151.555 214.508 151.555 214.545 151.549 214.582V217.042C148.84 219.244 133.774 235.258 133.531 234.496C132.316 234.496 112.572 226.341 111.564 225.886C111.539 225.369 111.649 223.992 111.697 223.45ZM133.822 240.4C132.607 241.101 114.103 233.487 111.624 231.937C111.531 231.154 111.487 230.365 111.491 229.576C116.812 232.233 132.291 238.85 133.713 238.789C135.791 238.678 150.48 221.938 151.525 220.769C151.537 221.397 151.476 222.025 151.343 222.639C151.136 223.045 134.624 239.945 133.822 240.4ZM33.1596 171.065C33.2447 172.381 33.3054 173.525 33.3054 174.595C33.3054 174.758 33.3694 174.914 33.4834 175.03C33.5973 175.145 33.7518 175.21 33.9129 175.21C34.0741 175.21 34.2286 175.145 34.3425 175.03C34.4564 174.914 34.5204 174.758 34.5204 174.595C34.5204 173.451 34.4597 172.319 34.3746 170.979C34.3634 170.815 34.2885 170.664 34.1666 170.556C34.0447 170.449 33.8857 170.395 33.7246 170.407C33.5635 170.418 33.4135 170.494 33.3075 170.617C33.2016 170.741 33.1484 170.902 33.1596 171.065ZM218.289 146.403C218.21 146.408 218.132 146.429 218.061 146.464C217.99 146.5 217.926 146.549 217.874 146.61C217.822 146.671 217.782 146.741 217.758 146.818C217.733 146.894 217.724 146.975 217.73 147.055C217.803 148.187 217.876 149.404 217.876 150.585C217.876 150.748 217.94 150.905 218.054 151.02C218.168 151.135 218.322 151.2 218.484 151.2C218.645 151.2 218.799 151.135 218.913 151.02C219.027 150.905 219.091 150.748 219.091 150.585C219.091 149.355 219.018 148.125 218.933 146.969C218.929 146.889 218.908 146.81 218.873 146.738C218.838 146.666 218.789 146.601 218.729 146.549C218.669 146.496 218.599 146.456 218.524 146.431C218.448 146.406 218.368 146.397 218.289 146.403ZM30.0128 168.002C30.1739 168.002 30.3284 167.937 30.4424 167.822C30.5563 167.707 30.6203 167.55 30.6203 167.387C30.6203 167.224 30.5563 167.067 30.4424 166.952C30.3284 166.837 30.1739 166.772 30.0128 166.772C28.5426 166.772 27.3155 166.883 26.1005 166.858C25.9382 166.858 25.7824 166.922 25.6666 167.037C25.5507 167.152 25.484 167.309 25.4808 167.473C25.4808 167.636 25.5448 167.793 25.6588 167.908C25.7727 168.023 25.9272 168.088 26.0883 168.088C27.3398 168.113 28.7127 168.064 30.0128 168.002ZM214.523 142.762C213.065 142.762 211.838 142.849 210.61 142.861C210.449 142.861 210.295 142.926 210.181 143.041C210.067 143.156 210.003 143.313 210.003 143.476C210.003 143.639 210.067 143.795 210.181 143.911C210.295 144.026 210.449 144.091 210.61 144.091C211.923 144.091 213.283 144.091 214.596 143.992C214.757 143.983 214.907 143.908 215.014 143.786C215.122 143.664 215.176 143.504 215.167 143.341C215.157 143.177 215.084 143.025 214.963 142.916C214.842 142.808 214.684 142.753 214.523 142.762ZM32.8316 160.401C32.9045 161.532 32.9774 162.75 32.9774 163.931C32.9805 164.093 33.0455 164.247 33.1588 164.362C33.272 164.477 33.4247 164.543 33.5849 164.546C33.746 164.546 33.9005 164.481 34.0145 164.366C34.1284 164.25 34.1924 164.094 34.1924 163.931C34.1924 162.701 34.1195 161.471 34.0466 160.315C34.0353 160.151 33.9605 160 33.8386 159.892C33.7167 159.785 33.5577 159.731 33.3966 159.743C33.2354 159.754 33.0854 159.83 32.9795 159.953C32.8735 160.077 32.8203 160.238 32.8316 160.401ZM218.763 139.921C218.763 138.691 218.69 137.461 218.605 136.305C218.594 136.142 218.519 135.99 218.397 135.883C218.275 135.775 218.116 135.722 217.955 135.733C217.794 135.744 217.644 135.82 217.538 135.944C217.432 136.067 217.379 136.228 217.39 136.391C217.463 137.523 217.536 138.74 217.536 139.921C217.536 140.084 217.6 140.241 217.714 140.356C217.828 140.471 217.982 140.536 218.143 140.536C218.306 140.536 218.461 140.472 218.577 140.357C218.693 140.242 218.76 140.085 218.763 139.921ZM41.7983 167.842C41.8781 167.839 41.9565 167.82 42.029 167.786C42.1015 167.752 42.1667 167.704 42.2209 167.645C42.2751 167.585 42.3171 167.516 42.3447 167.44C42.3722 167.364 42.3848 167.283 42.3815 167.203C42.3692 167.042 42.2973 166.891 42.1801 166.782C42.0629 166.672 41.9092 166.612 41.7497 166.612C40.2795 166.674 39.0524 166.723 37.8252 166.698C37.6641 166.698 37.5096 166.763 37.3957 166.878C37.2817 166.994 37.2177 167.15 37.2177 167.313C37.2177 167.476 37.2817 167.633 37.3957 167.748C37.5096 167.863 37.6641 167.928 37.8252 167.928C39.1253 167.953 40.4861 167.904 41.7983 167.842ZM226.308 142.603C225.093 142.664 223.745 142.701 222.396 142.701C222.316 142.698 222.236 142.711 222.161 142.74C222.086 142.768 222.017 142.812 221.959 142.868C221.901 142.925 221.855 142.992 221.824 143.067C221.792 143.142 221.776 143.222 221.776 143.304C221.776 143.468 221.84 143.626 221.953 143.743C222.067 143.86 222.222 143.928 222.384 143.931C223.769 143.931 224.887 143.931 226.357 143.833C226.437 143.829 226.515 143.81 226.587 143.776C226.66 143.743 226.725 143.695 226.779 143.635C226.834 143.576 226.876 143.506 226.903 143.43C226.931 143.354 226.943 143.274 226.94 143.193C226.925 143.033 226.852 142.884 226.736 142.775C226.619 142.666 226.467 142.605 226.308 142.603ZM13.8776 131.397C14.0355 131.52 48.2985 126.379 49.7687 125.469C49.8501 125.408 49.9151 125.328 49.9576 125.236C50.0001 125.143 50.0187 125.041 50.0117 124.94C50.0117 123.353 47.9583 108.458 46.9742 104.743C46.8527 104.288 46.7312 103.833 46.4517 103.673C44.5928 102.541 11.8364 108.79 9.88024 110.069C9.82723 110.101 9.78142 110.143 9.74583 110.194C9.71023 110.245 9.68565 110.303 9.67369 110.364C9.26059 111.853 12.8205 130.659 13.8776 131.397ZM10.4148 110.659C12.7476 109.589 42.4787 104.079 45.8807 104.509C46.7069 106.662 48.9182 122.431 49.064 124.743C47.3751 125.247 14.3393 130.991 14.2178 131.016C14.0963 131.041 14.0841 131.188 13.829 130.413C12.7598 127.166 10.3541 113.439 10.4148 110.659Z" fill="#F15929"/>
<path d="M118.192 44.468C118.237 44.5367 118.267 44.6137 118.283 44.6945C118.307 44.8052 118.416 45.3833 118.453 45.5801C118.493 45.6738 118.51 45.7763 118.501 45.8782C118.493 45.9802 118.459 46.0783 118.404 46.1638C118.348 46.2493 118.272 46.3194 118.183 46.3678C118.094 46.4162 117.995 46.4414 117.894 46.4411C117.359 46.4411 117.311 46.1582 117.068 44.9282C117.052 44.8474 117.053 44.7644 117.07 44.6839C117.086 44.6034 117.118 44.527 117.164 44.4591C117.21 44.3911 117.268 44.3329 117.336 44.2878C117.404 44.2427 117.48 44.2117 117.56 44.1963C117.639 44.181 117.721 44.1817 117.801 44.1984C117.88 44.2151 117.956 44.2475 118.023 44.2938C118.09 44.3401 118.148 44.3993 118.192 44.468Z" fill="#F15929"/>
<path d="M52.4417 126.563C52.5078 126.439 52.5373 126.298 52.5267 126.157C52.5267 124.202 49.7565 102.492 48.7724 100.758C48.6952 100.63 48.586 100.525 48.4559 100.454C48.3257 100.382 48.1792 100.347 48.0312 100.352C43.961 99.8476 9.6251 106.637 7.3652 108.224C7.0493 108.445 7.0979 108.999 7.13435 109.589C7.32875 112.824 10.7793 134.103 11.9943 133.98C12.128 133.98 12.0794 133.882 11.7635 134.534C9.8681 138.482 6.2717 151.126 6.3446 153.672C6.3446 154.742 6.5876 156.132 7.6325 156.059C15.129 155.124 51.8828 149.22 62.4533 147.018C62.8664 146.932 63.1337 146.551 63.1216 145.923C62.9968 144.878 62.6838 143.865 62.1981 142.934C60.7158 140.118 54.568 128.962 52.4417 126.563ZM12.0672 133.599C11.1195 132.369 7.6325 111.176 7.8998 108.827C10.5728 107.424 44.447 100.795 47.9948 101.336C48.9668 104.042 51.4818 123.587 51.6398 125.936C47.3387 127.436 17.559 132.307 12.0672 133.599ZM12.6018 133.968C13.6224 133.709 48.3836 127.818 51.5669 126.969C53.3043 128.605 61.1532 142.738 61.6636 143.943C54.6894 145.173 13.3187 152.172 7.23155 153.107C7.3166 149.38 11.0952 136.354 12.6018 133.968Z" fill="#F15929"/>
<path d="M17.1702 146.723C18.2273 146.563 40.6562 143.833 48.7602 141.606C48.8102 141.593 48.853 141.561 48.8792 141.516C48.9054 141.471 48.9128 141.417 48.8999 141.366C48.8871 141.316 48.8549 141.273 48.8104 141.246C48.766 141.22 48.713 141.212 48.663 141.225C47.0714 141.557 27.6557 144.177 17.1459 146.342C17.1169 146.336 17.0871 146.338 17.0587 146.346C17.0303 146.354 17.0041 146.369 16.9821 146.389C16.9601 146.409 16.9428 146.433 16.9316 146.461C16.9204 146.488 16.9156 146.518 16.9175 146.548C16.9194 146.578 16.928 146.607 16.9426 146.633C16.9572 146.659 16.9774 146.681 17.0018 146.698C17.0261 146.715 17.054 146.726 17.0831 146.73C17.1123 146.735 17.1421 146.732 17.1702 146.723ZM33.5606 61.1397C33.1067 62.1774 32.7251 63.246 32.4185 64.3377C32.4004 64.5128 32.4481 64.6885 32.5521 64.8297C33.7793 66.6993 46.3545 81.0534 49.635 83.0706C50.0846 83.3535 50.6192 83.5503 50.9472 83.1444C53.3303 80.1425 56.4403 77.8162 59.9747 76.3917C62.8513 75.3613 65.8674 74.7847 68.9171 74.682C71.3471 74.4606 71.7723 74.2146 72.7079 72.6033C73.8115 70.4827 75.2757 68.5758 77.0333 66.9699C79.2744 64.9862 81.7619 63.3073 84.4326 61.9761C84.5528 61.9071 84.6468 61.7994 84.6997 61.6702C84.7525 61.5409 84.7612 61.3975 84.7242 61.2627C84.3135 60.2046 83.7704 59.2043 83.1083 58.2861C83.5457 58.1385 84.0317 58.0032 84.0317 57.5604C84.0317 56.3304 73.4369 40.8078 70.4966 37.8804C70.1928 37.5729 69.7554 37.167 69.3545 37.1916C63.2795 37.536 57.3624 43.3416 53.9361 48.4092C50.0117 48.2616 47.4723 47.9049 43.0011 49.8114C39.8447 51.1678 36.9988 53.1693 34.6419 55.6908C34.2774 56.0721 31.7988 58.7289 31.7624 58.938C31.7259 59.1471 31.7988 59.1471 33.5606 61.1397ZM82.1606 60.7953C77.094 61.6686 73.8621 65.9367 71.4807 70.5738C70.4237 72.6402 70.5209 72.7386 69.4031 72.714C67.4484 72.6019 65.4877 72.676 63.5468 72.9354C62.1232 73.1508 60.7234 73.505 59.3672 73.9932C56.2811 75.1002 52.7454 78.6426 50.8622 81.2748C50.8222 81.3289 50.7713 81.3739 50.7129 81.4067C50.6546 81.4396 50.59 81.4596 50.5234 81.4654C50.4569 81.4712 50.3899 81.4627 50.3268 81.4404C50.2638 81.4182 50.206 81.3827 50.1575 81.3363C46.2087 77.2158 39.2225 69.9834 35.7111 65.826C35.541 65.6415 35.8326 65.3709 36.0027 65.5677C38.2748 68.0277 44.1432 73.9194 50.4369 80.3277C52.5632 77.5848 55.8437 74.2638 59.0877 73.1076C60.8567 72.4688 62.6975 72.0556 64.5674 71.8776C66.3185 71.7429 68.0772 71.7429 69.8283 71.8776C70.5452 71.0412 74.093 61.5456 82.1363 60.4878C82.1598 60.5053 82.1792 60.5279 82.1929 60.554C82.2066 60.5801 82.2143 60.609 82.2155 60.6386C82.2167 60.6681 82.2112 60.6975 82.1996 60.7247C82.188 60.7518 82.1705 60.7759 82.1484 60.7953H82.1606ZM69.3423 38.1879C71.7723 39.9099 81.6624 54.7314 82.9503 57.3267C80.7156 58.0435 78.5581 58.9872 76.5108 60.1434C74.5721 61.1272 72.8747 62.5365 71.5421 64.2686C70.2095 66.0006 69.2753 68.0118 68.8077 70.1556C64.4459 62.9724 58.3587 55.0635 54.3128 49.2456C54.5558 49.0857 61.3841 38.6676 69.3423 38.1879ZM43.2684 50.4879C47.7032 48.6798 50.1575 49.098 53.8268 49.2579C57.4718 55.5555 64.0206 64.4361 68.3339 70.254C64.3529 69.3003 60.1637 69.8836 56.5848 71.8899C54.4343 73.1199 51.8099 76.0719 50.1939 77.9046C47.8611 76.0104 34.3989 61.4964 32.2362 59.0364C35.5653 55.2234 38.6393 52.3575 43.2684 50.4387V50.4879ZM21.0339 81.7668C20.7336 81.5534 20.3786 81.4329 20.012 81.4198C19.6453 81.4067 19.2828 81.5016 18.9684 81.693C18.7395 81.7964 18.5329 81.9444 18.3604 82.1286C18.1879 82.3128 18.053 82.5296 17.9633 82.7666C17.8736 83.0036 17.8309 83.2561 17.8376 83.5098C17.8444 83.7635 17.9004 84.0134 18.0025 84.2452C18.1046 84.477 18.2508 84.6862 18.4328 84.8608C18.6148 85.0353 18.8289 85.1719 19.063 85.2627C19.2971 85.3535 19.5466 85.3968 19.7972 85.39C20.0478 85.3832 20.2947 85.3264 20.5236 85.2231C20.8894 85.1421 21.2222 84.9505 21.478 84.6737C21.7337 84.3969 21.9003 84.0479 21.9556 83.673C22.011 83.2981 21.9525 82.9151 21.7879 82.5746C21.6233 82.2342 21.3603 81.9525 21.0339 81.7668ZM20.232 84.2268C19.3815 84.4974 18.8712 84.2268 18.6647 83.8086C18.2759 82.9353 18.7619 81.5946 20.0255 81.9882C20.9124 82.3203 21.6293 83.8332 20.232 84.2883V84.2268ZM82.8167 25.482C83.169 26.2077 84.8093 25.9371 85.5261 25.7034C85.9028 25.5804 86.1458 25.4451 86.1822 25.0761C86.2916 24.1536 86.4131 16.1586 86 15.3837C85.9573 15.3024 85.8919 15.2357 85.8119 15.192C85.7319 15.1482 85.641 15.1293 85.5504 15.1377C84.2541 15.134 82.9643 15.3247 81.7232 15.7035C81.225 16.011 82.3793 24.6702 82.8167 25.482ZM81.9783 15.9987C83.1007 15.8361 84.2358 15.7826 85.3682 15.8388C85.4411 16.749 85.2467 24.6333 85.2345 24.7563C84.7212 24.9425 84.1731 25.0097 83.6307 24.9531C83.5457 24.6702 83.3999 23.9076 83.2176 22.9482C82.6823 20.6557 82.2686 18.3359 81.9783 15.9987ZM19.8554 71.3856C19.972 71.446 20.1011 71.4775 20.232 71.4775C20.363 71.4775 20.4921 71.446 20.6087 71.3856C21.0781 71.0925 21.4504 70.6642 21.6779 70.1556C21.7088 70.0742 21.7183 69.9861 21.7055 69.8998C21.6928 69.8136 21.6581 69.7322 21.605 69.6636C21.0218 68.9625 14.6552 61.4964 13.8776 61.9638C12.9228 62.5895 12.017 63.2885 11.1681 64.0548C11.1339 64.0858 11.1065 64.1236 11.0877 64.166C11.0688 64.2084 11.059 64.2543 11.0588 64.3008C11.0345 64.9404 18.1058 70.6722 19.8554 71.3856ZM14.0234 62.2836C14.9103 62.9355 17.8992 66.6747 20.6694 69.9834C20.5503 70.1733 20.4027 70.3435 20.232 70.4877C17.3195 68.6006 14.5387 66.5128 11.9093 64.2393C12.5684 63.5386 13.2748 62.8852 14.0234 62.2836ZM33.111 35.1498C33.3783 30.3774 36.1242 28.1634 38.9916 27.5976C38.1776 30.6234 38.3112 34.5594 41.2637 35.0637C42.6731 35.2974 43.3656 34.5594 44.3862 33.6984C48.7481 30.0084 45.2246 26.3184 40.3038 26.5767C42.1385 21.4845 46.3788 17.3394 52.0043 17.2041C52.0558 17.2041 52.1053 17.1833 52.1417 17.1464C52.1782 17.1095 52.1987 17.0595 52.1987 17.0073C52.1987 16.9551 52.1782 16.905 52.1417 16.8681C52.1053 16.8312 52.0558 16.8105 52.0043 16.8105C45.9293 16.6875 41.1543 21.1155 39.2711 26.6505C36.027 27.2163 32.8073 29.6763 32.7222 35.076C32.7174 35.1018 32.7177 35.1284 32.7231 35.1541C32.7284 35.1798 32.7387 35.2042 32.7534 35.2259C32.7681 35.2476 32.7868 35.2662 32.8086 35.2806C32.8303 35.2949 32.8546 35.3048 32.8802 35.3097C32.9057 35.3145 32.9319 35.3142 32.9573 35.3088C32.9828 35.3034 33.0069 35.293 33.0283 35.2781C33.0497 35.2633 33.0681 35.2443 33.0823 35.2223C33.0965 35.2003 33.1062 35.1756 33.111 35.1498ZM40.0244 27.45C41.8347 27.327 44.532 27.8928 45.2732 29.5533C45.6984 30.5004 45.2732 31.6689 43.7666 32.9481C43.3576 33.3629 42.8909 33.7151 42.3815 33.9936C40.559 34.7808 38.5421 32.5053 40.0244 27.45ZM43.4993 201.409C42.3254 201.091 41.1005 201.013 39.8967 201.181C38.6928 201.349 37.5344 201.759 36.4894 202.387C35.4445 203.016 34.5342 203.849 33.8121 204.838C33.09 205.828 32.5707 206.954 32.2848 208.149C31.7451 210.633 32.2022 213.233 33.5557 215.376C34.9092 217.519 37.0481 219.03 39.5019 219.576C41.9558 220.122 44.5235 219.66 46.6403 218.289C48.7571 216.919 50.2495 214.754 50.7893 212.27C51.0198 211.072 51.0139 209.839 50.7717 208.643C50.5295 207.448 50.056 206.312 49.3783 205.303C48.7006 204.293 47.8322 203.429 46.8232 202.761C45.8142 202.093 44.6845 201.633 43.4993 201.409ZM47.2536 211.433C46.7661 213.402 45.599 215.129 43.9634 216.302C42.3278 217.475 40.3315 218.017 38.3355 217.829C36.5033 217.105 34.9822 215.749 34.04 214.001C33.0977 212.253 32.7946 210.224 33.1839 208.272C33.6386 206.256 34.7948 204.473 36.4412 203.249C38.0877 202.025 40.1143 201.442 42.1506 201.606C44.0009 202.38 45.5223 203.789 46.4468 205.587C47.3714 207.385 47.6399 209.455 47.205 211.433H47.2536Z" fill="#F15929"/>
<path d="M59.6831 204.914C58.6254 204.545 57.4918 204.456 56.3904 204.656C55.934 203.597 55.3722 202.587 54.7137 201.643C55.5035 200.917 57.6662 198.9 57.1437 197.953C55.2844 195.701 53.0769 193.769 50.607 192.233C49.5757 191.648 48.4401 191.276 47.2658 191.138C46.4882 191.249 44.6414 194.312 44.2283 195.001C43.961 195.001 43.0133 194.693 42.9404 194.656C42.9404 193.771 42.6852 190.573 41.8955 190.204C41.0124 189.874 40.0953 189.647 39.1617 189.527C38.2991 189.392 30.5352 190.831 29.9642 191.889C29.5875 192.602 30.4623 195.296 30.7175 196.046C30.0622 196.411 29.4329 196.822 28.8342 197.276C27.6192 198.149 27.9473 198.112 27.7286 198.014C27.4643 197.886 27.1811 197.803 26.8902 197.768C25.9197 197.192 24.7817 196.975 23.6705 197.153C22.5527 197.522 19.9161 203.598 19.4909 205.16C19.3517 205.554 19.3141 205.978 19.3815 206.39C19.6731 207.202 21.6171 207.854 22.4312 208.112C22.2064 209.695 22.2064 211.302 22.4312 212.885C21.362 213.18 19.1385 213.844 19.26 214.951C19.3815 216.058 22.2246 223.364 23.4032 223.942C24.0488 224.308 24.7627 224.533 25.4992 224.603C26.2357 224.673 26.9785 224.586 27.68 224.348C28.0751 224.149 28.4566 223.923 28.8221 223.672C29.3081 224.041 29.8184 224.373 30.3408 224.693C29.9642 225.64 29.1258 227.755 29.3931 228.715C29.5268 229.219 29.9277 229.379 30.4866 229.588C32.0297 230.154 40.3403 232.171 41.6039 231.95C42.0777 231.876 42.3329 231.372 42.4787 230.892C42.7486 229.8 42.9074 228.683 42.9525 227.559C43.5765 227.496 44.197 227.402 44.8115 227.276C45.1868 227.944 45.6669 228.547 46.233 229.059C46.8527 229.502 47.3751 229.281 48.0798 228.826C48.42 229.268 48.9303 229.883 49.4771 229.945C50.85 230.105 56.5241 224.693 57.1073 223.586C57.5933 222.663 55.8194 221.015 55.0296 220.289C55.884 218.988 56.5546 217.572 57.0222 216.083C57.8986 216.216 58.7854 216.266 59.6709 216.23C60.0719 216.23 60.5336 216.083 60.7037 215.701C61.4448 213.992 61.2261 207.51 60.7037 205.861C60.6308 205.382 60.084 205.062 59.6831 204.914ZM59.9747 206.046C60.3878 207.645 60.5214 213.684 59.9139 215.246C58.8634 215.351 57.8035 215.301 56.7671 215.099C56.6564 215.08 56.5427 215.103 56.4483 215.165C56.3538 215.226 56.2855 215.321 56.2568 215.431C55.7729 217.094 55.0217 218.665 54.0333 220.08C53.9629 220.174 53.9312 220.292 53.9448 220.409C53.9584 220.526 54.0163 220.633 54.1062 220.708C54.9587 221.391 55.683 222.225 56.2446 223.168C55.6371 224.176 50.8865 228.58 49.5743 228.949C49.3799 228.949 48.8453 228.211 48.7116 228.014C48.2628 227.331 47.857 226.62 47.4966 225.886C47.444 225.779 47.3538 225.695 47.2437 225.652C47.1336 225.609 47.0114 225.609 46.9013 225.652C43.3778 226.993 42.0413 226.206 42.0413 227.091C42.0429 228.417 41.8294 229.734 41.4095 230.99C38.5542 230.676 35.7423 230.041 33.026 229.096C33.1572 227.783 33.5193 226.504 34.0952 225.32C34.4597 224.496 33.0017 224.73 30.2801 221.925C30.1925 221.843 30.0775 221.798 29.9581 221.798C29.8387 221.798 29.7237 221.843 29.6361 221.925C28.4211 222.934 26.8416 223.918 26.5257 223.758C25.9061 223.45 23.0508 216.895 22.8807 215.566C23.7449 214.957 24.7259 214.537 25.7603 214.336C25.8706 214.305 25.9659 214.234 26.0284 214.136C26.091 214.039 26.1166 213.922 26.1005 213.807C25.8027 212.065 25.8027 210.285 26.1005 208.543C26.1191 208.436 26.0968 208.325 26.0382 208.234C25.9796 208.143 25.8889 208.077 25.7846 208.051C24.8686 207.808 23.9868 207.448 23.1602 206.981C22.8929 206.784 22.9172 206.796 22.9415 206.587C23.7279 203.716 24.9891 201 26.6715 198.555C27.3276 198.371 29.1015 199.687 29.709 200.154C29.7725 200.217 29.8575 200.252 29.946 200.252C30.0344 200.252 30.1194 200.217 30.1829 200.154C30.7412 199.568 31.3423 199.025 31.9811 198.531C33.8279 197.116 34.326 197.301 34.1681 196.809C33.6095 195.575 33.2958 194.241 33.2447 192.885C33.433 192.726 33.6467 192.602 33.8765 192.516C35.0108 192.062 36.1762 191.692 37.3635 191.409C38.8027 191.003 40.2819 190.76 41.774 190.683C42.0291 190.794 42.26 191.913 42.3207 192.258C42.7703 194.718 42.4665 195.222 42.8189 195.259C46.2816 195.603 46.9863 196.575 47.2293 196.144C47.9031 194.952 48.6883 193.827 49.5743 192.787C49.8294 192.528 49.8173 192.405 50.5827 192.848C52.8695 194.361 54.9176 196.214 56.6577 198.346C56.84 198.666 55.2605 200.363 54.1062 201.36C53.7053 201.716 54.2763 201.876 55.3212 203.893C56.3661 205.911 56.1231 206.476 56.682 206.353C57.7595 206.092 58.8683 205.989 59.9747 206.046ZM228.605 103.267C226.058 102.214 223.387 101.499 220.658 101.139C218.666 100.819 216.321 100.5 214.34 100.241C216.248 97.5107 221.898 90.5981 222.845 88.913C223.113 88.4579 222.602 87.8183 222.226 87.437C220.112 85.1492 216.029 84.2882 212.895 83.7962C211.096 83.501 203.588 82.5662 202.312 83.1812C200.781 83.9192 189.457 101.139 189.117 103.759C189.117 104.202 189.263 104.374 189.688 104.534C191.474 105.198 199.53 106.231 201.328 106.662C198.898 110.967 188.096 125.518 187.039 127.572C186.784 128.089 186.942 128.396 187.246 128.494C188.339 128.934 189.465 129.287 190.611 129.552C191.049 129.688 192.009 129.085 193.406 128.224C199.675 124.411 226.576 106.428 228.641 104.104C228.698 104.049 228.743 103.983 228.772 103.909C228.802 103.835 228.815 103.756 228.812 103.677C228.808 103.598 228.788 103.52 228.752 103.449C228.716 103.378 228.666 103.316 228.605 103.267ZM202.494 118.027C192.167 124.927 188.68 126.945 188.558 127.031C190.223 124.46 200.562 110.118 202.336 106.687C202.367 106.62 202.383 106.548 202.383 106.475C202.382 106.401 202.366 106.329 202.334 106.263C202.303 106.197 202.257 106.139 202.201 106.093C202.145 106.047 202.079 106.015 202.008 105.998C200.793 105.555 191.948 104.596 189.858 103.845C190.126 101.557 201.158 84.2636 202.494 83.5748C203.831 82.886 216.795 84.4481 219.225 86.207C217.949 88.7285 210.902 97.5599 209.76 99.614C209.529 100.032 209.456 100.438 209.906 100.549C210.355 100.66 221.776 102.013 224.267 102.837C221.23 105.407 205.896 115.715 202.494 117.978V118.027ZM124.552 42.8249C124.552 42.9356 124.625 43.0709 124.807 43.7843C124.855 43.9391 124.96 44.0691 125.101 44.1471C125.241 44.225 125.406 44.2449 125.56 44.2025C125.715 44.1569 125.845 44.0509 125.923 43.9079C126 43.7648 126.019 43.5965 125.973 43.4399C125.852 42.9602 125.743 42.5543 125.67 42.3575C125.599 42.2225 125.481 42.1189 125.339 42.0671C125.197 42.0153 125.041 42.019 124.901 42.0773C124.762 42.1357 124.648 42.2446 124.584 42.3828C124.519 42.5211 124.508 42.6787 124.552 42.8249Z" fill="#F15929"/>
</svg>
