<svg width="16" height="16" viewBox="0 0 16 16" fill="none" xmlns="http://www.w3.org/2000/svg">
<path d="M6.00016 7.33333C7.47292 7.33333 8.66683 6.13943 8.66683 4.66667C8.66683 3.19391 7.47292 2 6.00016 2C4.5274 2 3.3335 3.19391 3.3335 4.66667C3.3335 6.13943 4.5274 7.33333 6.00016 7.33333Z" stroke="black" stroke-linecap="round" stroke-linejoin="round"/>
<path d="M2 14V12.6667C2 11.9594 2.28095 11.2811 2.78105 10.781C3.28115 10.281 3.95942 10 4.66667 10H7.33333C8.04058 10 8.71885 10.281 9.21895 10.781C9.71905 11.2811 10 11.9594 10 12.6667V14M10.6667 7.33333L12 8.66667L14.6667 6" stroke="black" stroke-linecap="round" stroke-linejoin="round"/>
</svg>
