<svg width="24" height="24" viewBox="0 0 24 24" fill="none" xmlns="http://www.w3.org/2000/svg">
<path d="M13.0003 19.0002L12.0003 20.0002L4.5003 12.5722C4.00561 12.0908 3.61594 11.5122 3.35585 10.8728C3.09575 10.2334 2.97086 9.54713 2.98904 8.85711C3.00721 8.16709 3.16806 7.48831 3.46146 6.86351C3.75485 6.23871 4.17444 5.68143 4.69379 5.22676C5.21314 4.77208 5.82101 4.42987 6.47911 4.22166C7.13722 4.01345 7.83131 3.94376 8.51767 4.01698C9.20403 4.0902 9.8678 4.30473 10.4672 4.64708C11.0666 4.98943 11.5885 5.45218 12.0003 6.00618C12.7954 4.94491 13.9796 4.24298 15.2922 4.05478C16.6049 3.86659 17.9385 4.20756 18.9998 5.00268C20.0611 5.7978 20.763 6.98193 20.9512 8.29459C21.1394 9.60726 20.7984 10.9409 20.0033 12.0022M14.0003 16.0002H20.0003M17.0003 13.0002V19.0002" stroke="#212121" stroke-width="2" stroke-linecap="round" stroke-linejoin="round"/>
</svg>
