<svg width="24" height="25" viewBox="0 0 24 25" fill="none" xmlns="http://www.w3.org/2000/svg">
<path d="M12.75 3.5V6.5C12.75 6.69891 12.671 6.88968 12.5303 7.03033C12.3897 7.17098 12.1989 7.25 12 7.25C11.8011 7.25 11.6103 7.17098 11.4697 7.03033C11.329 6.88968 11.25 6.69891 11.25 6.5V3.5C11.25 3.30109 11.329 3.11032 11.4697 2.96967C11.6103 2.82902 11.8011 2.75 12 2.75C12.1989 2.75 12.3897 2.82902 12.5303 2.96967C12.671 3.11032 12.75 3.30109 12.75 3.5ZM21 11.75H18C17.8011 11.75 17.6103 11.829 17.4697 11.9697C17.329 12.1103 17.25 12.3011 17.25 12.5C17.25 12.6989 17.329 12.8897 17.4697 13.0303C17.6103 13.171 17.8011 13.25 18 13.25H21C21.1989 13.25 21.3897 13.171 21.5303 13.0303C21.671 12.8897 21.75 12.6989 21.75 12.5C21.75 12.3011 21.671 12.1103 21.5303 11.9697C21.3897 11.829 21.1989 11.75 21 11.75ZM16.7728 16.2125C16.631 16.0778 16.4422 16.0038 16.2466 16.0063C16.0511 16.0088 15.8642 16.0876 15.7259 16.2259C15.5876 16.3642 15.5088 16.5511 15.5063 16.7466C15.5038 16.9422 15.5778 17.131 15.7125 17.2728L17.8331 19.3944C17.9739 19.5351 18.1647 19.6142 18.3638 19.6142C18.5628 19.6142 18.7536 19.5351 18.8944 19.3944C19.0351 19.2536 19.1142 19.0628 19.1142 18.8638C19.1142 18.6647 19.0351 18.4739 18.8944 18.3331L16.7728 16.2125ZM12 17.75C11.8011 17.75 11.6103 17.829 11.4697 17.9697C11.329 18.1103 11.25 18.3011 11.25 18.5V21.5C11.25 21.6989 11.329 21.8897 11.4697 22.0303C11.6103 22.171 11.8011 22.25 12 22.25C12.1989 22.25 12.3897 22.171 12.5303 22.0303C12.671 21.8897 12.75 21.6989 12.75 21.5V18.5C12.75 18.3011 12.671 18.1103 12.5303 17.9697C12.3897 17.829 12.1989 17.75 12 17.75ZM7.22719 16.2125L5.10562 18.3331C4.96489 18.4739 4.88583 18.6647 4.88583 18.8638C4.88583 19.0628 4.96489 19.2536 5.10562 19.3944C5.24636 19.5351 5.43723 19.6142 5.63625 19.6142C5.83527 19.6142 6.02614 19.5351 6.16687 19.3944L8.2875 17.2728C8.42221 17.131 8.49621 16.9422 8.4937 16.7466C8.4912 16.5511 8.4124 16.3642 8.2741 16.2259C8.1358 16.0876 7.94894 16.0088 7.75337 16.0063C7.5578 16.0038 7.36898 16.0778 7.22719 16.2125ZM6.75 12.5C6.75 12.3011 6.67098 12.1103 6.53033 11.9697C6.38968 11.829 6.19891 11.75 6 11.75H3C2.80109 11.75 2.61032 11.829 2.46967 11.9697C2.32902 12.1103 2.25 12.3011 2.25 12.5C2.25 12.6989 2.32902 12.8897 2.46967 13.0303C2.61032 13.171 2.80109 13.25 3 13.25H6C6.19891 13.25 6.38968 13.171 6.53033 13.0303C6.67098 12.8897 6.75 12.6989 6.75 12.5ZM6.16687 5.60562C6.02614 5.46489 5.83527 5.38583 5.63625 5.38583C5.43723 5.38583 5.24636 5.46489 5.10562 5.60562C4.96489 5.74636 4.88583 5.93723 4.88583 6.13625C4.88583 6.33527 4.96489 6.52614 5.10562 6.66687L7.22719 8.7875C7.36898 8.92221 7.5578 8.99621 7.75337 8.9937C7.94894 8.9912 8.1358 8.9124 8.2741 8.7741C8.4124 8.6358 8.4912 8.44894 8.4937 8.25337C8.49621 8.0578 8.42221 7.86898 8.2875 7.72719L6.16687 5.60562Z" fill="#343330"/>
</svg>
