<svg width="318" height="212" viewBox="0 0 318 212" fill="none" xmlns="http://www.w3.org/2000/svg">
<rect width="318" height="212" rx="20" fill="#FFF0D9"/>
<path d="M155.751 75.6671C158.613 75.8981 161.619 76.8246 163.394 79.2181C164.976 81.2628 165.489 83.9244 165.797 86.4854C165.834 79.4979 165.569 73.8576 165.092 66.6337C164.95 64.4713 164.475 61.7705 162.468 61.0751C161.845 60.9231 161.193 60.9435 160.58 61.1339C159.968 61.3244 159.42 61.6778 158.993 62.1563C158.304 62.9303 157.756 63.8185 157.372 64.7808C158.067 62.6195 156.601 59.7628 154.361 59.4544C152.2 59.148 150.192 61.462 150.192 63.706C149.076 57.6767 144.703 57.7838 142.78 63.5512C140.69 70.1985 140.911 79.8063 142.674 86.7165C144.054 78.6107 147.721 75.154 155.751 75.6671ZM143.789 163.547C145.973 163.876 148.058 164.233 149.575 164.529C149.237 165.317 148.506 169.032 148.262 170.01C145.047 169.551 143.97 169.862 134.906 166.613C133.715 166.189 131.994 165.61 131.858 164.234C113.605 165.601 95.4777 168.305 77.6211 172.326C104.874 182.44 133.589 191.549 162.082 197.571C188.563 184.601 210.565 176.495 239.903 172.866C208.453 165.31 176.105 162.174 143.789 163.547Z" fill="#F0B211"/>
<path d="M97.7704 93.1146C96.1084 94.852 94.5279 96.7441 92.9072 98.5206C92.8767 98.5511 92.8526 98.5872 92.8362 98.6269C92.8197 98.6667 92.8112 98.7092 92.8112 98.7523C92.8112 98.7953 92.8197 98.8379 92.8362 98.8776C92.8526 98.9173 92.8767 98.9534 92.9072 98.9839C92.9376 99.0143 92.9737 99.0384 93.0134 99.0549C93.0532 99.0713 93.0957 99.0798 93.1388 99.0798C93.1818 99.0798 93.2244 99.0713 93.2641 99.0549C93.3039 99.0384 93.34 99.0143 93.3704 98.9839C94.9911 97.2084 96.6129 95.3555 98.2337 93.5779C98.2951 93.5164 98.3296 93.4331 98.3296 93.3463C98.3296 93.2594 98.2951 93.1761 98.2337 93.1146C98.1722 93.0532 98.0889 93.0187 98.002 93.0187C97.9152 93.0187 97.8319 93.0532 97.7704 93.1146ZM96.5355 90.6438C94.2194 90.4127 91.9033 90.1042 89.5872 89.8721C89.2014 89.7947 89.2014 90.4911 89.5872 90.5675C91.9033 90.7985 94.2194 91.1081 96.5355 91.3391C96.9214 91.3391 96.9214 90.6438 96.5355 90.6438ZM94.4463 82.9238C94.2099 82.6196 93.752 83.0786 93.9831 83.3881C95.5275 85.3947 97.0719 87.3249 98.6153 89.3326C98.8474 89.641 99.3106 89.1778 99.0785 88.8683C97.5394 86.8617 95.9653 84.8774 94.4463 82.9238ZM117.86 127.254C117.78 127.218 117.697 127.187 117.613 127.162C108.122 125.054 108.432 116.423 109.506 106.935C110.222 100.967 110.469 100.064 110.124 100.064C110.128 100.022 110.123 99.9803 110.109 99.9408C110.094 99.9014 110.072 99.8656 110.042 99.836C110.013 99.8064 109.977 99.7837 109.937 99.7696C109.898 99.7555 109.856 99.7504 109.814 99.7545C108.219 100.058 106.568 99.8413 105.105 99.1376C103.437 98.1836 102.958 96.1696 103.639 95.7456C104.333 95.3597 105.028 96.3625 105.491 96.672C105.787 96.8982 106.126 97.062 106.487 97.1537C106.848 97.2453 107.224 97.2628 107.592 97.2051C107.96 97.1475 108.312 97.0159 108.628 96.8182C108.943 96.6205 109.216 96.3609 109.428 96.0551C109.704 95.5965 109.827 95.0622 109.78 94.5291C109.733 93.996 109.519 93.4916 109.167 93.0883C108.815 92.6849 108.345 92.4035 107.823 92.2845C107.301 92.1654 106.755 92.2148 106.263 92.4256C105.938 92.5765 105.628 92.7579 105.337 92.9673C105.073 93.2209 104.79 93.4527 104.489 93.6605C104.346 93.7494 104.185 93.8041 104.018 93.8204C103.851 93.8367 103.682 93.8141 103.525 93.7543C103.368 93.6946 103.227 93.5994 103.113 93.4761C102.998 93.3528 102.914 93.2048 102.867 93.0436C102.767 92.6847 102.757 92.3069 102.838 91.9433C102.919 91.5797 103.088 91.2415 103.33 90.9586C104.104 90.0064 105.205 89.3762 106.418 89.1906C107.631 89.0051 108.869 89.2775 109.893 89.9548C110.382 90.6636 110.981 91.2895 111.668 91.8087C111.978 92.0398 112.286 91.654 112.131 91.3444C111.685 90.6027 111.078 89.9701 110.356 89.4926C109.423 88.1258 108.913 86.5149 108.889 84.8604C108.857 84.6436 108.884 84.4224 108.965 84.2191C109.046 84.0157 109.18 83.8373 109.352 83.7018C109.523 83.619 109.713 83.5825 109.903 83.5961C110.093 83.6096 110.276 83.6728 110.433 83.7792C111.101 84.2255 111.93 86.4292 112.209 87.1712C112.655 88.5017 113.394 89.7151 114.371 90.7222C114.429 90.7736 114.502 90.8038 114.579 90.8079C114.657 90.8119 114.733 90.7896 114.796 90.7446C114.858 90.6996 114.904 90.6345 114.925 90.5601C114.946 90.4857 114.941 90.4065 114.911 90.3353C114.024 88.4369 115.043 83.6965 115.914 83.6965C116.026 83.6823 116.139 83.7047 116.236 83.7604C116.334 83.816 116.411 83.9019 116.455 84.005C116.558 84.3558 116.584 84.7244 116.532 85.0862C116.532 95.188 115.729 98.5047 115.606 103.538C115.53 104.689 115.696 111.064 115.837 111.488C116.193 114.862 116.941 117.442 120.006 118.975C120.393 119.129 120.701 118.59 120.316 118.435C116.055 116.304 116.459 111.341 116.224 106.622C115.999 103.042 117.669 90.1477 117.227 84.8509C117.278 84.5426 117.24 84.226 117.117 83.9386C116.994 83.6513 116.791 83.4054 116.532 83.2301C114.911 82.4574 114.371 85.083 114.216 86.1632C113.986 87.1755 113.908 88.2166 113.984 89.252C112.563 87.0165 111.97 83.74 110.592 83.1528C110.37 83.0703 110.133 83.0353 109.896 83.0498C109.659 83.0643 109.428 83.128 109.217 83.237C109.006 83.3459 108.821 83.4977 108.672 83.6825C108.523 83.8673 108.415 84.0811 108.353 84.3103C108.265 84.979 108.29 85.6579 108.43 86.3179C108.528 87.0066 108.71 87.6807 108.97 88.3256C109.052 88.6037 109.183 88.8651 109.356 89.0972C105.636 87.6132 101.798 90.5166 102.177 93.0351C102.234 93.3655 102.369 93.6775 102.57 93.9457C102.772 94.214 103.033 94.4308 103.334 94.5785C103.642 94.7011 103.977 94.7372 104.304 94.6828C104.63 94.6285 104.936 94.4857 105.187 94.27C105.883 93.7294 106.423 93.1115 107.35 93.1115C107.615 93.1069 107.878 93.1594 108.121 93.2655C108.364 93.3715 108.582 93.5287 108.758 93.7262C108.935 93.9238 109.068 94.1571 109.147 94.4103C109.226 94.6635 109.249 94.9308 109.215 95.1939C109.182 95.457 109.092 95.7097 108.952 95.9351C108.812 96.1604 108.625 96.353 108.405 96.4997C108.184 96.6465 107.934 96.744 107.672 96.7856C107.41 96.8272 107.142 96.812 106.886 96.7409C106.127 96.459 105.441 96.0102 104.879 95.4276C104.605 95.2617 104.285 95.1874 103.966 95.2152C103.647 95.243 103.345 95.3716 103.103 95.5823C102.043 96.7897 103.409 101.412 109.588 100.6C108.931 109.47 104.243 125.577 117.618 128.085C118.052 128.154 118.142 127.502 117.86 127.254ZM162.776 127.008C161.677 124.26 157.271 111.336 156.986 108.479C156.99 108.438 156.985 108.396 156.971 108.356C156.957 108.317 156.934 108.281 156.905 108.251C156.875 108.222 156.839 108.199 156.8 108.185C156.76 108.171 156.718 108.166 156.677 108.17C156.637 108.148 156.592 108.137 156.547 108.138C156.501 108.139 156.457 108.152 156.418 108.175C156.379 108.198 156.346 108.231 156.324 108.271C156.302 108.311 156.291 108.355 156.291 108.401C154.654 112.489 152.095 127.2 151.813 128.472C151.813 128.847 151.65 128.492 154.515 131.098C156.073 132.445 157.402 134.035 158.452 135.806C158.491 135.855 158.542 135.894 158.6 135.918C158.658 135.942 158.721 135.95 158.783 135.942C158.845 135.935 158.904 135.911 158.954 135.874C159.005 135.837 159.045 135.787 159.07 135.73C159.924 133.152 161.007 130.657 162.306 128.273C162.631 127.677 162.853 127.316 162.776 127.008ZM148.571 87.0165C148.577 87.1858 148.541 87.3539 148.466 87.506C148.392 87.6581 148.281 87.7896 148.144 87.8888C148.006 87.988 147.847 88.0518 147.679 88.0748C147.511 88.0977 147.34 88.079 147.181 88.0203C146.92 87.8914 146.719 87.6672 146.618 87.3941C146.518 87.1209 146.526 86.8196 146.641 86.5522C146.872 86.1663 146.255 85.8579 146.1 86.2448C145.972 86.4696 145.899 86.7212 145.886 86.9794C145.873 87.2377 145.921 87.4953 146.026 87.7317C146.131 87.9681 146.289 88.1767 146.489 88.3408C146.689 88.5048 146.924 88.6198 147.177 88.6764C147.429 88.733 147.691 88.7297 147.942 88.6668C148.192 88.6039 148.425 88.4831 148.621 88.3141C148.816 88.145 148.97 87.9325 149.068 87.6936C149.167 87.4546 149.208 87.1958 149.189 86.938C149.189 86.5522 148.571 86.5522 148.571 87.0165ZM162.545 86.1663C162.397 85.7784 161.772 85.9353 161.927 86.3211C162.082 86.7843 162.313 88.0966 161.386 87.7108C160.846 87.4786 160.692 86.7069 160.383 86.3211C160.151 86.0126 159.688 86.4759 159.919 86.7843C160.46 87.4023 160.692 88.4803 161.696 88.4051C162.853 88.3287 162.867 87.0112 162.545 86.1663ZM158.221 91.8024C157.886 92.3583 157.414 92.8194 156.85 93.142C156.286 93.4646 155.65 93.6381 155 93.6459C154.351 93.6538 153.71 93.4958 153.139 93.1869C152.568 92.878 152.085 92.4285 151.736 91.8808C151.505 91.4939 150.964 91.8808 151.195 92.1882C151.584 92.8462 152.137 93.3916 152.8 93.7704C153.464 94.1493 154.215 94.3486 154.979 94.3486C155.743 94.3486 156.493 94.1493 157.157 93.7704C157.82 93.3916 158.374 92.8462 158.762 92.1882C158.806 92.1164 158.821 92.0304 158.805 91.9477C158.788 91.8649 158.741 91.7916 158.672 91.7426C158.603 91.6936 158.518 91.6725 158.435 91.6836C158.351 91.6947 158.275 91.7371 158.221 91.8024ZM148.571 81.9984C148.957 81.92 148.802 81.3031 148.416 81.3794C147.169 81.6366 146.051 82.3189 145.251 83.3096C145.019 83.6192 145.482 84.0813 145.714 83.7739C146.413 82.8483 147.431 82.2155 148.571 81.9984ZM162.468 82.7701C161.561 82.0846 160.435 81.755 159.302 81.8437C158.917 81.8437 158.917 82.538 159.302 82.538C160.327 82.4704 161.342 82.7712 162.164 83.386C162.468 83.6192 162.776 82.998 162.468 82.7701Z" fill="black"/>
<path d="M192.191 136.195C191.223 134.296 190.646 132.222 190.495 130.096C190.726 129.865 190.417 129.479 190.185 129.555C190.028 129.555 186.867 132.523 186.248 133.106C181.603 126.072 176.414 119.413 170.73 113.188C168.513 110.723 165.934 108.609 163.081 106.919C163.014 103.917 163.081 100.983 163.01 97.979C163.161 97.979 166.28 96.813 166.736 91.9624C167.016 92.2553 167.37 92.467 167.761 92.5748C168.151 92.6827 168.564 92.6828 168.955 92.5751C170.885 92.1119 170.807 89.1004 170.885 87.557C170.807 86.2437 170.807 83.5418 169.032 82.8475C168.955 82.8475 168.877 82.7701 168.8 82.7701C168.305 80.5693 167.27 78.5262 165.789 76.8245C163.78 74.5636 161.204 72.8785 158.328 71.9424C155.451 71.0063 152.377 70.8529 149.422 71.498C143.508 72.8495 139.771 76.4981 139.231 82.6153C137.545 83.2513 137.301 85.3787 137.301 87.1733C137.22 88.4281 137.378 89.6868 137.764 90.8833C137.837 91.1849 137.969 91.4689 138.153 91.7184C138.337 91.968 138.57 92.178 138.837 92.3362C139.103 92.4943 139.399 92.5973 139.707 92.639C140.014 92.6808 140.327 92.6605 140.626 92.5793C140.93 92.4994 141.211 92.3494 141.447 92.1414C141.682 91.9334 141.866 91.6732 141.983 91.3815C142.75 94.1163 145.022 96.6455 148.809 97.9058C149.04 101.055 149.118 104.019 149.347 107.167C147.196 108.38 145.307 110.008 143.791 111.957C138.285 115.079 127.372 120.331 121.325 118.52C121.325 118.289 121.093 118.21 120.939 118.21C120.907 118.206 120.875 118.209 120.845 118.219C120.815 118.229 120.787 118.246 120.765 118.268C120.743 118.291 120.726 118.318 120.716 118.349C120.706 118.379 120.703 118.411 120.708 118.442C118.741 124.69 117.7 131.193 117.62 137.743C117.625 137.823 117.659 137.899 117.716 137.955C117.773 138.012 117.848 138.047 117.928 138.052H123.255C123.41 138.052 123.641 137.897 123.564 137.743C123.255 134.809 122.869 131.876 122.56 128.945C127.837 129.514 133.173 129.122 138.31 127.787C138.001 130.72 137.847 133.732 137.616 136.742C136.792 149.902 136.652 148.269 136.457 150.408V150.562C136.457 150.716 136.612 150.871 136.766 150.793C140.876 150.793 121.79 150.55 177.298 150.099C177.378 150.093 177.453 150.059 177.51 150.002C177.566 149.945 177.601 149.87 177.606 149.79C177.606 147.32 177.375 144.849 177.143 142.378C182.085 140.448 186.948 138.519 191.889 136.588C192.191 136.658 192.343 136.428 192.191 136.195ZM139.92 82.4606C140.061 80.2537 140.839 78.1351 142.16 76.3613C148.569 68.458 164.836 70.7083 168.1 82.5379C167.614 82.5688 167.15 82.7547 166.776 83.0682C166.403 83.3818 166.139 83.8066 166.025 84.2806C165.766 81.7768 164.643 79.4412 162.85 77.6747C159.799 74.9367 154.563 74.4289 150.498 75.3575C148.488 75.8097 146.676 76.8919 145.325 78.4463C143.778 80.3946 142.77 82.7149 142.4 85.1752C142.146 83.6997 141.421 82.4606 139.92 82.4606ZM147.564 96.743C144.393 95.3025 142.526 92.609 142.305 90.3321C142.472 89.385 142.553 88.4245 142.546 87.4627C142.837 84.9559 143.597 82.526 144.784 80.2992C147.168 76.3253 151.103 75.367 155.747 75.667C158.609 75.8981 161.615 76.8245 163.391 79.218C164.718 81.1999 165.508 83.492 165.684 85.8706C165.5 87.5606 165.644 89.2702 166.108 90.9056C166.042 96.8416 162.632 98.3733 156.91 98.2111C153.821 98.1337 150.424 98.1337 147.567 96.743H147.564ZM149.494 98.1337C150.985 98.5213 152.513 98.7539 154.052 98.828C156.647 98.952 159.868 99.1598 162.313 98.2874C162.387 101.097 162.319 103.737 162.381 106.532C160.454 105.56 158.318 105.077 156.16 105.125C154.003 105.173 151.89 105.751 150.008 106.808C149.799 103.869 149.719 101.087 149.497 98.1337H149.494ZM123.016 137.43H118.384C118.257 129.268 120.689 122.053 121.009 120.291C121.704 126.004 122.324 131.717 123.016 137.43ZM122.708 128.32C122.372 128.32 122.721 129.025 121.472 119.287C127.047 121.003 137.908 116.13 142.935 113.266C140.464 117.048 139.241 121.618 138.457 126.004C138.387 126.392 138.38 126.777 138.303 127.163C133.946 128.613 127.233 128.796 122.708 128.32ZM137.221 150.245C139.455 134.957 136.691 118.445 146.949 109.714C152.384 105.103 159.66 104.244 165.016 109.096C169.6 113.252 172.131 120.707 173.739 126.699C174.91 130.886 175.772 135.154 176.318 139.467C176.689 142.171 176.91 144.894 176.982 147.622C176.996 148.238 177.058 148.856 177.058 149.552C176.344 149.596 139.301 150.142 137.221 150.245ZM171.963 118.975C170.914 116.208 169.513 113.587 167.794 111.177C168.567 111.872 169.261 112.644 169.956 113.339C175.356 118.845 181.361 127.076 185.706 133.489C182.844 136.115 180.07 138.817 177.136 141.518C176.207 134.106 174.532 125.563 171.963 118.979V118.975ZM178.599 141.086C182.459 137.535 185.937 134.188 189.875 130.713C189.934 132.478 190.374 134.21 191.167 135.788C186.843 137.487 183 139.39 178.599 141.086ZM77.2349 174.334C74.8773 175.019 72.6382 176.06 70.595 177.422C70.2855 177.653 70.595 178.193 70.9035 177.962C72.8741 176.59 75.0685 175.571 77.3886 174.951C77.8518 174.794 77.6981 174.189 77.2349 174.334ZM85.5718 177.808C83.5114 178.328 81.6054 179.334 80.0131 180.742C79.9517 180.803 79.9172 180.886 79.9172 180.973C79.9172 181.06 79.9517 181.143 80.0131 181.205C80.0746 181.266 80.1579 181.301 80.2447 181.301C80.3316 181.301 80.4149 181.266 80.4763 181.205C81.9845 179.88 83.7829 178.928 85.7265 178.426C86.1124 178.348 85.9587 177.73 85.5718 177.808ZM94.9909 181.048C92.4663 181.852 90.219 183.35 88.5058 185.372C88.4444 185.433 88.4099 185.516 88.4099 185.603C88.4099 185.69 88.4444 185.774 88.5058 185.835C88.5673 185.896 88.6506 185.931 88.7375 185.931C88.8243 185.931 88.9076 185.896 88.9691 185.835C90.613 183.877 92.7832 182.43 95.2231 181.666C95.6121 181.591 95.4563 180.903 94.9909 181.048ZM103.252 184.215C100.78 185.564 98.4743 187.197 96.3806 189.08C96.3192 189.141 96.2847 189.224 96.2847 189.311C96.2847 189.398 96.3192 189.481 96.3806 189.543C96.442 189.604 96.5253 189.639 96.6122 189.639C96.6991 189.639 96.7824 189.604 96.8438 189.543C98.884 187.707 101.14 186.125 103.561 184.833C103.947 184.525 103.644 183.994 103.252 184.215ZM113.674 189.62C111.667 190.932 109.737 192.245 107.73 193.558C107.343 193.789 107.73 194.33 108.038 194.098C110.046 192.785 111.975 191.473 113.983 190.16C114.374 189.929 113.983 189.388 113.674 189.62ZM125.255 194.02C123.34 194.933 121.731 196.381 120.623 198.189C120.592 198.225 120.569 198.267 120.556 198.312C120.543 198.357 120.54 198.405 120.547 198.452C120.555 198.498 120.573 198.542 120.6 198.581C120.627 198.62 120.662 198.652 120.703 198.676C120.744 198.699 120.79 198.713 120.837 198.717C120.884 198.72 120.931 198.713 120.975 198.696C121.019 198.68 121.059 198.653 121.092 198.619C121.124 198.585 121.149 198.544 121.163 198.499C122.22 196.808 123.75 195.466 125.563 194.638C125.642 194.595 125.701 194.524 125.728 194.438C125.755 194.353 125.747 194.261 125.707 194.18C125.667 194.1 125.598 194.039 125.514 194.009C125.429 193.979 125.336 193.983 125.255 194.02ZM138.611 195.951C136.06 196.78 133.823 198.37 132.203 200.509C131.972 200.818 132.512 201.204 132.744 200.818C134.272 198.823 136.373 197.341 138.766 196.572C139.229 196.418 139.072 195.796 138.611 195.951ZM150.887 198.267C148.616 199.434 146.657 201.128 145.173 203.207C144.942 203.517 145.482 203.903 145.714 203.517C147.138 201.531 149.018 199.916 151.195 198.807C151.58 198.652 151.273 198.036 150.887 198.267ZM159.147 200.814C157.437 202.383 155.979 204.206 154.825 206.22C154.593 206.606 155.211 206.914 155.364 206.528C156.468 204.525 157.904 202.724 159.611 201.202C159.92 201.046 159.457 200.583 159.147 200.814ZM222.145 162.753C219.732 163.061 217.37 163.684 215.12 164.606C214.734 164.76 214.889 165.378 215.274 165.223C217.475 164.311 219.785 163.688 222.145 163.37C222.223 163.364 222.295 163.329 222.348 163.272C222.4 163.214 222.429 163.14 222.429 163.062C222.429 162.984 222.4 162.909 222.348 162.852C222.295 162.795 222.223 162.76 222.145 162.753ZM228.014 164.837C225.896 165.174 223.84 165.825 221.914 166.768C221.528 166.922 221.837 167.539 222.223 167.308C224.082 166.401 226.056 165.752 228.091 165.378C228.63 165.455 228.399 164.76 228.014 164.837ZM237.664 166.613C235.283 167.085 232.973 167.863 230.793 168.929C230.407 169.084 230.715 169.702 231.101 169.47C233.244 168.46 235.499 167.708 237.819 167.231C238.282 167.154 238.05 166.538 237.664 166.613ZM247.086 169.706C244.684 170.478 242.194 170.945 239.675 171.096C239.289 171.096 239.289 171.79 239.675 171.79C242.268 171.634 244.834 171.167 247.317 170.4C247.7 170.165 247.546 169.549 247.086 169.706Z" fill="black"/>
<path d="M186.242 149.629C184.811 148.703 183.535 147.558 182.459 146.237C181.478 145.21 180.624 144.069 179.915 142.839C179.761 142.453 179.143 142.763 179.374 143.149C180.117 144.425 180.997 145.616 182 146.7C183.101 148.098 184.432 149.299 185.937 150.251C185.978 150.271 186.022 150.283 186.068 150.286C186.113 150.288 186.158 150.282 186.202 150.268C186.245 150.253 186.284 150.23 186.319 150.2C186.353 150.17 186.381 150.133 186.401 150.092C186.421 150.051 186.432 150.007 186.435 149.962C186.438 149.916 186.432 149.871 186.417 149.828C186.403 149.785 186.38 149.745 186.35 149.711C186.319 149.677 186.283 149.649 186.242 149.629ZM219.443 154.569C219.224 154.231 218.928 153.95 218.579 153.749C218.23 153.547 217.838 153.432 217.436 153.412C215.985 153.252 214.527 153.637 213.344 154.492C213.432 153.62 213.302 152.74 212.965 151.932C212.628 151.123 212.095 150.411 211.414 149.86C209.908 148.809 208.06 148.368 206.242 148.625C205.902 148.719 205.609 148.938 205.423 149.239C205.237 149.539 205.171 149.899 205.238 150.245C205.018 150.274 204.807 150.352 204.62 150.472C204.433 150.592 204.275 150.752 204.157 150.941C203.972 151.241 203.89 151.594 203.925 151.945C203.661 151.96 203.404 152.038 203.176 152.172C202.948 152.306 202.755 152.493 202.613 152.716C195.723 148.38 194.083 145.426 189.952 138.665C189.72 138.279 189.179 138.665 189.412 138.974C193.629 146.418 195.899 149.163 202.459 153.412C202.459 155.214 203.987 154.879 204.851 155.419C205.179 155.599 205.448 155.869 205.626 156.198C205.804 156.527 205.884 156.9 205.855 157.272C205.778 157.658 206.473 157.658 206.551 157.272C206.586 156.68 206.423 156.093 206.088 155.603C205.752 155.114 205.263 154.75 204.698 154.569C204.08 154.416 203.231 154.338 203.153 153.643C203.076 153.103 203.462 152.795 203.925 152.64C204.201 152.64 204.215 152.562 204.388 152.562C205.39 152.601 206.344 152.996 207.08 153.676C207.816 154.356 208.285 155.276 208.404 156.272C208.481 156.657 209.098 156.503 209.022 156.117C208.85 155.047 208.336 154.062 207.556 153.31C206.776 152.558 205.773 152.08 204.698 151.948C204.698 151.287 204.704 151.035 205.933 150.79C208.883 151.082 210.153 152.634 210.256 154.5C210.256 154.886 210.951 154.886 210.951 154.5C210.692 151.78 208.743 150.329 206.01 150.099C205.624 149.792 206.01 149.328 206.396 149.174C206.747 149.071 207.115 149.045 207.477 149.096C211.657 149.447 213.298 152.488 212.495 155.196C212.479 155.264 212.485 155.335 212.513 155.4C212.541 155.464 212.589 155.517 212.65 155.552C212.711 155.587 212.781 155.601 212.851 155.592C212.92 155.584 212.985 155.553 213.036 155.504C214.045 154.512 215.404 153.957 216.819 153.961C217.513 153.961 218.515 154.038 218.825 154.809C219.212 155.735 217.899 156.044 217.282 156.044C216.567 156.087 215.863 156.243 215.197 156.507C213.683 157.075 211.959 158.839 209.485 159.363C207.715 159.607 205.919 159.582 204.157 159.286C203.771 159.209 203.771 159.903 204.157 159.982C207.105 160.366 209.457 160.459 211.955 159.209C213.895 158.131 214.728 157.175 216.278 156.893C217.129 156.878 217.969 156.695 218.749 156.353C218.918 156.29 219.072 156.191 219.201 156.065C219.33 155.938 219.43 155.785 219.495 155.617C219.561 155.448 219.59 155.268 219.581 155.087C219.572 154.907 219.525 154.73 219.443 154.569Z" fill="black"/>
<path d="M193.117 65.402C170.539 27.136 132 28.8129 111.204 63.4728C111.096 63.6599 111.027 63.8666 110.999 64.0809C110.972 64.2951 110.988 64.5126 111.045 64.7207C111.103 64.9289 111.201 65.1235 111.334 65.2934C111.468 65.4633 111.633 65.6051 111.822 65.7104C112.201 65.923 112.649 65.9774 113.068 65.8619C113.487 65.7464 113.844 65.4703 114.06 65.0935C134.208 31.5148 169.286 31.906 190.261 66.869C190.477 67.246 190.834 67.5223 191.253 67.6378C191.672 67.7533 192.12 67.6987 192.499 67.4859C192.684 67.3978 192.849 67.2718 192.982 67.116C193.115 66.9602 193.214 66.7782 193.273 66.5816C193.331 66.3851 193.347 66.1785 193.32 65.9753C193.294 65.7721 193.225 65.5767 193.117 65.402Z" fill="#F0B211"/>
<path d="M203.694 61.692C175.43 16.0336 128.023 17.5483 100.859 58.3C100.752 58.4875 100.684 58.6942 100.657 58.9081C100.63 59.1221 100.646 59.3393 100.704 59.5471C100.761 59.755 100.858 59.9496 100.991 60.1197C101.123 60.2899 101.288 60.4322 101.476 60.5387C101.663 60.6452 101.87 60.7137 102.084 60.7404C102.298 60.767 102.515 60.7512 102.723 60.6939C102.931 60.6366 103.125 60.539 103.295 60.4065C103.466 60.274 103.608 60.1093 103.714 59.9218C132.758 16.3494 176.883 26.801 201.3 63.3954C201.517 63.7726 201.873 64.0492 202.293 64.1651C202.712 64.281 203.16 64.2269 203.54 64.0145C203.775 63.6784 203.914 63.2842 203.941 62.8747C203.968 62.4653 203.883 62.0562 203.694 61.692Z" fill="#FF9F48"/>
<path d="M214.348 55.2854C185.215 7.84401 128.852 0.00531387 92.2892 51.198C92.1753 51.3837 92.1008 51.5909 92.0703 51.8066C92.0398 52.0224 92.054 52.242 92.112 52.4521C92.1699 52.6621 92.2704 52.858 92.4072 53.0275C92.544 53.1971 92.7142 53.3367 92.9072 53.4378C93.0946 53.5453 93.3014 53.6147 93.5157 53.6417C93.73 53.6688 93.9476 53.6531 94.1558 53.5955C94.364 53.538 94.5587 53.4397 94.7287 53.3063C94.8986 53.173 95.0404 53.0073 95.1459 52.8187C122.058 13.568 172.734 0.923275 211.415 56.7524C211.632 57.1292 211.989 57.4053 212.408 57.5208C212.827 57.6363 213.275 57.5819 213.654 57.3693C213.851 57.2954 214.029 57.1783 214.175 57.0267C214.321 56.8751 214.432 56.6927 214.498 56.493C214.565 56.2932 214.586 56.0811 214.56 55.8722C214.534 55.6633 214.462 55.4628 214.348 55.2854Z" fill="#F55555"/>
<path d="M225.157 47.7964C214.211 30.4644 195.123 14.3545 173.276 8.11427C152.251 2.12845 131.088 5.92219 112.44 17.1465C101.381 23.9747 91.7574 32.8905 84.1059 43.3964C83.9923 43.582 83.918 43.7889 83.8876 44.0043C83.8573 44.2198 83.8714 44.4392 83.9293 44.6489C83.9871 44.8587 84.0874 45.0543 84.2238 45.2238C84.3603 45.3932 84.5302 45.5329 84.7228 45.634C85.1021 45.8469 85.5501 45.9015 85.9695 45.786C86.3889 45.6705 86.7457 45.3942 86.9626 45.0171C122.466 -3.43125 183.813 -4.11389 219.83 45.7888C220.678 46.9474 221.451 48.1049 222.3 49.2635C222.517 49.6405 222.874 49.9167 223.293 50.0323C223.712 50.1478 224.16 50.0932 224.539 49.8804C224.729 49.7982 224.899 49.6752 225.037 49.5201C225.174 49.3651 225.276 49.1817 225.335 48.9829C225.394 48.7841 225.409 48.5749 225.378 48.3699C225.347 48.1648 225.272 47.9691 225.157 47.7964Z" fill="#42AB44"/>
<path d="M225.157 47.7964C214.211 30.4644 195.123 14.3545 173.276 8.11427C152.251 2.12845 131.088 5.92219 112.44 17.1465C101.381 23.9747 91.7574 32.8905 84.1059 43.3964C83.9923 43.582 83.918 43.7889 83.8876 44.0043C83.8573 44.2198 83.8714 44.4392 83.9293 44.6489C83.9871 44.8587 84.0874 45.0543 84.2238 45.2238C84.3603 45.3932 84.5302 45.5329 84.7228 45.634C85.1021 45.8469 85.5501 45.9015 85.9695 45.786C86.3889 45.6705 86.7457 45.3942 86.9626 45.0171C122.466 -3.43125 183.813 -4.11389 219.83 45.7888C220.678 46.9474 221.451 48.1049 222.3 49.2635C222.517 49.6405 222.874 49.9167 223.293 50.0323C223.712 50.1478 224.16 50.0932 224.539 49.8804C224.729 49.7982 224.899 49.6752 225.037 49.5201C225.174 49.3651 225.276 49.1817 225.335 48.9829C225.394 48.7841 225.409 48.5749 225.378 48.3699C225.347 48.1648 225.272 47.9691 225.157 47.7964Z" fill="black" fill-opacity="0.2"/>
<path d="M225.157 47.7964C214.211 30.4644 195.123 14.3545 173.276 8.11427C152.251 2.12845 131.088 5.92219 112.44 17.1465C101.381 23.9747 91.7574 32.8905 84.1059 43.3964C83.9923 43.582 83.918 43.7889 83.8876 44.0043C83.8573 44.2198 83.8714 44.4392 83.9293 44.6489C83.9871 44.8587 84.0874 45.0543 84.2238 45.2238C84.3603 45.3932 84.5302 45.5329 84.7228 45.634C85.1021 45.8469 85.5501 45.9015 85.9695 45.786C86.3889 45.6705 86.7457 45.3942 86.9626 45.0171C122.466 -3.43125 183.813 -4.11389 219.83 45.7888C220.678 46.9474 221.451 48.1049 222.3 49.2635C222.517 49.6405 222.874 49.9167 223.293 50.0323C223.712 50.1478 224.16 50.0932 224.539 49.8804C224.729 49.7982 224.899 49.6752 225.037 49.5201C225.174 49.3651 225.276 49.1817 225.335 48.9829C225.394 48.7841 225.409 48.5749 225.378 48.3699C225.347 48.1648 225.272 47.9691 225.157 47.7964Z" fill="black" fill-opacity="0.2"/>
<path d="M144.556 91.4939C144.556 91.9853 144.816 92.4566 145.279 92.8041C145.743 93.1515 146.371 93.3468 147.027 93.3468C147.682 93.3468 148.31 93.1515 148.774 92.8041C149.237 92.4566 149.497 91.9853 149.497 91.4939C149.497 91.0025 149.237 90.5312 148.774 90.1837C148.31 89.8362 147.682 89.641 147.027 89.641C146.371 89.641 145.743 89.8362 145.279 90.1837C144.816 90.5312 144.556 91.0025 144.556 91.4939Z" fill="#F55555"/>
<path d="M159.919 91.2618C159.919 91.7532 160.179 92.2245 160.643 92.5719C161.106 92.9194 161.734 93.1146 162.39 93.1146C163.045 93.1146 163.674 92.9194 164.137 92.5719C164.6 92.2245 164.861 91.7532 164.861 91.2618C164.861 90.7703 164.6 90.2991 164.137 89.9516C163.674 89.6041 163.045 89.4089 162.39 89.4089C161.734 89.4089 161.106 89.6041 160.643 89.9516C160.179 90.2991 159.919 90.7703 159.919 91.2618Z" fill="#F55555"/>
<path d="M208.481 165.918C194.716 152.775 176.323 145.59 157.294 145.923C139.074 146.386 120.082 154.106 106.881 167C106.215 167.655 105.75 168.485 105.538 169.394C105.326 170.304 105.377 171.254 105.684 172.136C105.991 173.017 106.542 173.794 107.273 174.374C108.005 174.955 108.885 175.316 109.814 175.415C127.957 177.344 135.368 178.04 148.339 174.488C174.588 177.88 185.397 180.356 206.55 174.102C207.364 173.854 208.099 173.396 208.681 172.776C209.262 172.155 209.672 171.392 209.867 170.564C210.062 169.736 210.037 168.871 209.794 168.056C209.55 167.241 209.098 166.503 208.481 165.918ZM148.261 170.01C145.046 169.551 143.969 169.862 134.905 166.613C133.893 166.25 132.589 165.841 132.043 164.837C131.426 163.68 132.352 162.752 133.433 162.599C135.936 162.281 145.156 163.669 149.569 164.529C149.236 165.317 148.506 169.032 148.261 170.01ZM171.423 160.59C171.285 160.707 171.125 160.795 170.953 160.848C170.78 160.901 170.599 160.918 170.419 160.898C170.313 160.898 163.143 161.131 162.698 161.131C162.68 161.113 161.811 159.743 161.541 159.2C163.794 158.575 168.612 157.965 170.339 158.352C170.682 158.404 171.006 158.545 171.277 158.762C171.548 158.979 171.757 159.263 171.883 159.587C171.904 159.78 171.873 159.976 171.792 160.152C171.711 160.329 171.583 160.48 171.423 160.59Z" fill="#FCAFB7"/>
<path d="M194.352 161.827C192.962 162.213 191.573 162.599 190.26 162.985C190.2 162.988 190.143 163.014 190.101 163.056C190.058 163.099 190.033 163.155 190.029 163.216C181.912 161.371 184.364 162.954 190.415 161.441C191.279 161.337 192.116 161.075 192.885 160.668C193.059 160.559 193.204 160.409 193.307 160.231C193.409 160.052 193.467 159.852 193.475 159.646C193.482 159.441 193.44 159.237 193.35 159.051C193.261 158.866 193.128 158.705 192.962 158.583C191.99 157.982 190.955 157.491 189.874 157.117C184.569 154.839 177.736 154.847 171.96 155.032C169.953 155.109 167.174 155.032 166.092 157.039C165.947 157.242 165.867 157.485 165.861 157.734C164.163 157.886 162.483 158.197 160.842 158.661C160.658 158.411 160.411 158.215 160.126 158.093C159.841 157.971 159.529 157.927 159.221 157.966C152.437 157.346 145.906 158.954 138.763 160.668C138.686 160.668 138.686 160.746 138.609 160.746C137.655 160.111 136.575 159.69 135.443 159.511C134.595 159.355 133.823 159.201 132.973 159.124C126.809 158.594 120.676 160.447 115.836 164.3C115.219 164.763 114.678 165.226 114.06 165.767C113.729 166.007 113.485 166.348 113.365 166.738C113.245 167.129 113.256 167.548 113.395 167.932C113.535 168.316 113.796 168.644 114.139 168.867C114.482 169.089 114.888 169.194 115.296 169.164C115.925 169.094 114.883 169.264 135.06 167.311C135.523 167.465 135.908 167.62 136.295 167.775C140.096 169.133 144.029 170.09 148.03 170.631C147.875 171.789 147.721 173.025 147.644 174.182C147.644 174.568 148.262 174.568 148.338 174.182C148.416 172.869 148.571 171.558 148.725 170.246C150.044 164.641 149.084 167.861 150.501 163.605C157.859 162.074 165.374 161.425 172.886 161.671C175.125 161.827 177.363 162.057 179.602 162.135C184.114 162.592 188.581 163.419 192.958 164.606C193.344 164.684 193.576 164.066 193.113 163.987C189.959 163.045 189.731 163.957 194.27 162.444C194.893 162.368 194.738 161.671 194.352 161.827ZM148.261 170.01C145.046 169.551 144.041 169.654 134.905 166.613C133.901 166.227 132.589 165.841 132.043 164.837C131.426 163.68 132.352 162.752 133.433 162.599C135.936 162.281 145.156 163.669 149.569 164.529C149.236 165.317 148.506 169.032 148.261 170.01ZM150.423 162.985C150.344 162.983 150.266 163.004 150.197 163.045C150.129 163.086 150.074 163.145 150.038 163.216L149.805 163.911C146.594 163.219 143.346 162.703 140.078 162.368C139.876 161.947 139.616 161.557 139.306 161.209C145.405 159.741 151.581 158.198 157.912 158.507C158.614 158.495 159.314 158.573 159.996 158.738C160.688 159.085 161.854 161.176 161.927 161.282C158.062 161.622 154.221 162.19 150.423 162.985ZM171.423 160.59C171.285 160.707 171.126 160.795 170.953 160.848C170.78 160.901 170.599 160.918 170.419 160.898C170.319 160.898 163.143 161.131 162.698 161.131C162.68 161.113 161.811 159.741 161.541 159.2C163.794 158.575 168.612 157.965 170.339 158.352C170.682 158.404 171.006 158.545 171.277 158.762C171.548 158.979 171.757 159.263 171.883 159.587C171.905 159.78 171.874 159.976 171.792 160.153C171.711 160.329 171.584 160.481 171.423 160.59Z" fill="black"/>
<path d="M122.708 128.32C122.372 128.32 122.72 129.025 121.472 119.287C127.047 121.003 137.908 116.13 142.935 113.266C140.464 117.048 139.24 121.618 138.457 126.004C138.387 126.392 138.38 126.777 138.302 127.163C133.946 128.613 127.233 128.796 122.708 128.32ZM171.963 118.979C170.914 116.211 169.513 113.59 167.794 111.18C168.566 111.876 169.261 112.647 169.956 113.343C175.356 118.848 181.361 127.079 185.706 133.492C182.844 136.118 180.07 138.82 177.135 141.522C176.207 134.106 174.532 125.563 171.963 118.979Z" fill="#42AB44"/>
<path d="M122.708 128.32C122.372 128.32 122.72 129.025 121.472 119.287C127.047 121.003 137.908 116.13 142.935 113.266C140.464 117.048 139.24 121.618 138.457 126.004C138.387 126.392 138.38 126.777 138.302 127.163C133.946 128.613 127.233 128.796 122.708 128.32ZM171.963 118.979C170.914 116.211 169.513 113.59 167.794 111.18C168.566 111.876 169.261 112.647 169.956 113.343C175.356 118.848 181.361 127.079 185.706 133.492C182.844 136.118 180.07 138.82 177.135 141.522C176.207 134.106 174.532 125.563 171.963 118.979Z" fill="black" fill-opacity="0.2"/>
<path d="M122.708 128.32C122.372 128.32 122.72 129.025 121.472 119.287C127.047 121.003 137.908 116.13 142.935 113.266C140.464 117.048 139.24 121.618 138.457 126.004C138.387 126.392 138.38 126.777 138.302 127.163C133.946 128.613 127.233 128.796 122.708 128.32ZM171.963 118.979C170.914 116.211 169.513 113.59 167.794 111.18C168.566 111.876 169.261 112.647 169.956 113.343C175.356 118.848 181.361 127.079 185.706 133.492C182.844 136.118 180.07 138.82 177.135 141.522C176.207 134.106 174.532 125.563 171.963 118.979Z" fill="black" fill-opacity="0.2"/>
<path d="M137.222 150.245C139.455 134.957 136.692 118.445 146.949 109.714C152.384 105.103 159.661 104.244 165.016 109.096C169.6 113.253 172.132 120.707 173.74 126.699C174.91 130.886 175.772 135.154 176.319 139.467C176.689 142.171 176.911 144.894 176.982 147.622C176.996 148.238 177.059 148.856 177.059 149.552C176.344 149.596 139.301 150.142 137.222 150.245Z" fill="#42AB44"/>
<path d="M137.222 150.245C139.455 134.957 136.692 118.445 146.949 109.714C152.384 105.103 159.661 104.244 165.016 109.096C169.6 113.253 172.132 120.707 173.74 126.699C174.91 130.886 175.772 135.154 176.319 139.467C176.689 142.171 176.911 144.894 176.982 147.622C176.996 148.238 177.059 148.856 177.059 149.552C176.344 149.596 139.301 150.142 137.222 150.245Z" fill="black" fill-opacity="0.2"/>
<path d="M137.222 150.245C139.455 134.957 136.692 118.445 146.949 109.714C152.384 105.103 159.661 104.244 165.016 109.096C169.6 113.253 172.132 120.707 173.74 126.699C174.91 130.886 175.772 135.154 176.319 139.467C176.689 142.171 176.911 144.894 176.982 147.622C176.996 148.238 177.059 148.856 177.059 149.552C176.344 149.596 139.301 150.142 137.222 150.245Z" fill="black" fill-opacity="0.2"/>
</svg>
