<svg width="20" height="22" viewBox="0 0 20 22" fill="none" xmlns="http://www.w3.org/2000/svg">
<path d="M14.8009 9.42901C14.8009 9.22077 14.7166 9.02107 14.5665 8.87382C14.4165 8.72657 14.2129 8.64385 14.0007 8.64385H4.72704L6.56738 6.84584C6.71805 6.69799 6.80269 6.49746 6.80269 6.28837C6.80269 6.07928 6.71805 5.87876 6.56738 5.73091C6.41671 5.58306 6.21235 5.5 5.99927 5.5C5.78619 5.5 5.58184 5.58306 5.43117 5.73091L2.23059 8.87155C2.11956 8.98196 2.04435 9.12217 2.01445 9.27448C1.98454 9.42679 2.00129 9.58439 2.06256 9.72737C2.12259 9.87076 2.22452 9.9935 2.35552 10.0801C2.48652 10.1668 2.64073 10.2134 2.79869 10.2142H14.0007C14.2129 10.2142 14.4165 10.1314 14.5665 9.9842C14.7166 9.83696 14.8009 9.63725 14.8009 9.42901ZM17.9374 12.2713C17.8774 12.1279 17.7755 12.0052 17.6445 11.9185C17.5135 11.8319 17.3593 11.7853 17.2013 11.7845H5.99927C5.78706 11.7845 5.58354 11.8672 5.43349 12.0145C5.28343 12.1617 5.19913 12.3614 5.19913 12.5696C5.19913 12.7779 5.28343 12.9776 5.43349 13.1248C5.58354 13.2721 5.78706 13.3548 5.99927 13.3548H15.273L13.4326 15.1528C13.3576 15.2258 13.2981 15.3127 13.2575 15.4083C13.2169 15.504 13.1959 15.6066 13.1959 15.7103C13.1959 15.8139 13.2169 15.9166 13.2575 16.0122C13.2981 16.1079 13.3576 16.1948 13.4326 16.2678C13.507 16.3413 13.5955 16.3998 13.693 16.4396C13.7905 16.4795 13.8951 16.5 14.0007 16.5C14.1064 16.5 14.2109 16.4795 14.3084 16.4396C14.4059 16.3998 14.4944 16.3413 14.5688 16.2678L17.7694 13.1271C17.8804 13.0167 17.9556 12.8765 17.9856 12.7242C18.0155 12.5719 17.9987 12.4143 17.9374 12.2713Z" fill="#212121"/>
</svg>
