<svg width="24" height="23" viewBox="0 0 24 23" fill="none" xmlns="http://www.w3.org/2000/svg">
<path d="M6.00049 21.083C5.45049 21.083 4.97949 20.8952 4.58749 20.5195C4.19549 20.1438 3.99982 19.6928 4.00049 19.1663V9.58301C4.00049 9.05593 4.19649 8.60455 4.58849 8.22888C4.98049 7.85322 5.45116 7.6657 6.00049 7.66634H7.00049V5.74967C7.00049 4.42398 7.48816 3.29379 8.46349 2.35909C9.43882 1.4244 10.6178 0.95737 12.0005 0.958008C13.3838 0.958008 14.5632 1.42536 15.5385 2.36005C16.5138 3.29474 17.0012 4.42462 17.0005 5.74967V7.66634H18.0005C18.5505 7.66634 19.0215 7.85418 19.4135 8.22984C19.8055 8.60551 20.0012 9.05656 20.0005 9.58301V19.1663C20.0005 19.6934 19.8045 20.1448 19.4125 20.5205C19.0205 20.8961 18.5498 21.0836 18.0005 21.083H6.00049ZM6.00049 19.1663H18.0005V9.58301H6.00049V19.1663ZM12.0005 16.2913C12.5505 16.2913 13.0215 16.1035 13.4135 15.7278C13.8055 15.3522 14.0012 14.9011 14.0005 14.3747C14.0005 13.8476 13.8045 13.3962 13.4125 13.0205C13.0205 12.6449 12.5498 12.4574 12.0005 12.458C11.4505 12.458 10.9795 12.6458 10.5875 13.0215C10.1955 13.3972 9.99982 13.8482 10.0005 14.3747C10.0005 14.9018 10.1965 15.3531 10.5885 15.7288C10.9805 16.1045 11.4512 16.292 12.0005 16.2913ZM9.00049 7.66634H15.0005V5.74967C15.0005 4.95106 14.7088 4.27224 14.1255 3.71322C13.5422 3.15419 12.8338 2.87468 12.0005 2.87468C11.1672 2.87468 10.4588 3.15419 9.87549 3.71322C9.29216 4.27224 9.00049 4.95106 9.00049 5.74967V7.66634Z" fill="#F8F9FD"/>
</svg>
