<svg width="20" height="21" viewBox="0 0 20 21" fill="none" xmlns="http://www.w3.org/2000/svg">
<path d="M14.2806 7.71937C14.3504 7.78903 14.4057 7.87175 14.4434 7.96279C14.4812 8.05384 14.5006 8.15144 14.5006 8.25C14.5006 8.34856 14.4812 8.44616 14.4434 8.53721C14.4057 8.62825 14.3504 8.71097 14.2806 8.78063L9.03063 14.0306C8.96097 14.1004 8.87826 14.1557 8.78721 14.1934C8.69616 14.2312 8.59857 14.2506 8.5 14.2506C8.40144 14.2506 8.30385 14.2312 8.2128 14.1934C8.12175 14.1557 8.03903 14.1004 7.96938 14.0306L5.71938 11.7806C5.57865 11.6399 5.49959 11.449 5.49959 11.25C5.49959 11.051 5.57865 10.8601 5.71938 10.7194C5.86011 10.5786 6.05098 10.4996 6.25 10.4996C6.44903 10.4996 6.6399 10.5786 6.78063 10.7194L8.5 12.4397L13.2194 7.71937C13.289 7.64964 13.3718 7.59432 13.4628 7.55658C13.5538 7.51884 13.6514 7.49941 13.75 7.49941C13.8486 7.49941 13.9462 7.51884 14.0372 7.55658C14.1283 7.59432 14.211 7.64964 14.2806 7.71937ZM19.75 10.5C19.75 12.4284 19.1782 14.3134 18.1068 15.9168C17.0355 17.5202 15.5127 18.7699 13.7312 19.5078C11.9496 20.2458 9.98919 20.4389 8.09787 20.0627C6.20656 19.6865 4.46928 18.7579 3.10571 17.3943C1.74215 16.0307 0.813554 14.2934 0.437348 12.4021C0.061142 10.5108 0.254225 8.55042 0.992179 6.76884C1.73013 4.98726 2.97982 3.46451 4.58319 2.39317C6.18657 1.32183 8.07164 0.75 10 0.75C12.585 0.75273 15.0634 1.78084 16.8913 3.60872C18.7192 5.43661 19.7473 7.91498 19.75 10.5ZM18.25 10.5C18.25 8.8683 17.7661 7.27325 16.8596 5.91655C15.9531 4.55984 14.6646 3.50242 13.1571 2.87799C11.6497 2.25357 9.99085 2.09019 8.39051 2.40852C6.79017 2.72685 5.32016 3.51259 4.16637 4.66637C3.01259 5.82015 2.22685 7.29016 1.90853 8.8905C1.5902 10.4908 1.75358 12.1496 2.378 13.6571C3.00242 15.1646 4.05984 16.4531 5.41655 17.3596C6.77326 18.2661 8.36831 18.75 10 18.75C12.1873 18.7475 14.2843 17.8775 15.8309 16.3309C17.3775 14.7843 18.2475 12.6873 18.25 10.5Z" fill="#F15929"/>
</svg>
