<svg width="228" height="48" viewBox="0 0 228 48" fill="none" xmlns="http://www.w3.org/2000/svg">
<g clip-path="url(#clip0_3_177)">
<path d="M21.6521 43.3043C33.6103 43.3043 43.3043 33.6103 43.3043 21.6521C43.3043 9.69399 33.6103 0 21.6521 0C9.69399 0 0 9.69399 0 21.6521C0 33.6103 9.69399 43.3043 21.6521 43.3043Z" fill="#F15929"/>
<path d="M16.7271 18.6199L18.0138 16.2239C18.7977 14.7634 18.3762 13.0182 16.8713 12.2085C14.8156 11.1067 12.7709 12.8371 12.7709 12.8371C10.423 14.9557 8.94405 18.0209 8.94405 21.4336C8.94405 27.8227 14.1278 32.7181 20.5096 32.9991C29.487 33.3948 35.3622 26.2366 35.3622 26.2366" stroke="white" stroke-width="3" stroke-linecap="square" stroke-linejoin="round"/>
<path d="M23.7153 20.0361L25.002 17.6402C25.7858 16.1797 25.3643 14.4345 23.8595 13.6248C21.8037 12.5229 19.759 14.2533 19.759 14.2533C18.4353 15.4439 17.5923 17.056 16.7308 18.6237" stroke="white" stroke-width="3" stroke-linecap="square" stroke-linejoin="round"/>
<path d="M30.7035 21.4483L31.9902 19.0524C32.7741 17.5919 32.3525 15.8467 30.8477 15.037C28.7919 13.9351 26.7472 15.6655 26.7472 15.6655C25.4236 16.8561 24.5177 18.3942 23.7191 20.0359" stroke="white" stroke-width="3" stroke-linecap="square" stroke-linejoin="round"/>
<path d="M62.4182 17.8863H56.2435V33.5929H52.8086V17.8863H46.6598V14.9579H62.4182V17.8863Z" fill="#1F1F1F"/>
<path d="M65.7496 14.9579H69.1586V28.1873L79.1676 14.9579H82.388V33.5929H78.9827V20.3894L68.9738 33.5929H65.7533V14.9579H65.7496Z" fill="#1F1F1F"/>
<path d="M104.82 33.5929L104.794 21.2398L98.6715 31.4632H97.126L91.003 21.3988V33.5929H87.7271V14.9579H90.5741L97.9468 27.2851L105.242 14.9579H108.063L108.115 33.5929H104.813H104.82Z" fill="#1F1F1F"/>
<path d="M132.277 30.0546C130.573 31.4744 128.151 32.2472 125.008 32.3692V34.34H121.814V32.3692C118.671 32.2102 116.245 31.4301 114.534 30.0251C112.822 28.6237 111.964 26.6974 111.964 24.2497C111.964 21.802 112.822 19.8719 114.534 18.4595C116.245 17.0471 118.675 16.2632 121.814 16.1042V14.2149H125.008V16.1042C128.151 16.2632 130.573 17.0508 132.277 18.4595C133.982 19.8719 134.832 21.802 134.832 24.2497C134.832 26.6974 133.982 28.6348 132.277 30.0546ZM117.011 28.0321C118.12 28.938 119.721 29.4778 121.817 29.6553V18.8477C117.506 19.1657 115.347 20.9701 115.347 24.2534C115.347 25.8691 115.902 27.13 117.011 28.0321ZM129.856 28.0469C130.957 27.1337 131.505 25.8581 131.505 24.2275C131.505 22.5969 130.95 21.325 129.841 20.4191C128.732 19.5133 127.12 18.9919 125.008 18.8477V29.6553C127.138 29.4963 128.754 28.9602 129.852 28.0432L129.856 28.0469Z" fill="#1F1F1F"/>
<path d="M142.73 32.6242C141.203 31.7997 140.005 30.6535 139.136 29.1893C138.267 27.7251 137.831 26.0872 137.831 24.2791C137.831 22.4711 138.267 20.8331 139.136 19.3689C140.005 17.9048 141.203 16.7586 142.73 15.934C144.257 15.1095 145.969 14.6954 147.866 14.6954C149.763 14.6954 151.478 15.1095 153.005 15.934C154.532 16.7586 155.73 17.9011 156.599 19.3541C157.468 20.8109 157.904 22.4526 157.904 24.2791C157.904 26.1056 157.468 27.7473 156.599 29.2041C155.73 30.6609 154.532 31.7997 153.005 32.6242C151.478 33.4487 149.766 33.8629 147.866 33.8629C145.965 33.8629 144.253 33.4487 142.73 32.6242ZM151.223 29.9879C152.218 29.4296 152.998 28.6495 153.567 27.6438C154.137 26.6418 154.418 25.5178 154.418 24.2754C154.418 23.0331 154.133 21.9091 153.567 20.9071C152.998 19.9051 152.218 19.1249 151.223 18.5629C150.228 18.0046 149.112 17.7236 147.87 17.7236C146.627 17.7236 145.511 18.0046 144.516 18.5629C143.521 19.1212 142.741 19.9014 142.172 20.9071C141.602 21.9091 141.321 23.0331 141.321 24.2754C141.321 25.5178 141.606 26.6418 142.172 27.6438C142.741 28.6458 143.521 29.4259 144.516 29.9879C145.511 30.5463 146.627 30.8273 147.87 30.8273C149.112 30.8273 150.228 30.5463 151.223 29.9879Z" fill="#1F1F1F"/>
<path d="M173.896 15.7565C175.094 16.289 176.011 17.0506 176.65 18.0453C177.29 19.0399 177.608 20.2193 177.608 21.5874C177.608 22.9554 177.29 24.1127 176.65 25.1147C176.011 26.1167 175.094 26.8858 173.896 27.4182C172.698 27.9507 171.293 28.2169 169.677 28.2169H165.469V33.5929H162.008V14.9579H169.677C171.293 14.9579 172.698 15.2241 173.896 15.7565ZM172.949 24.3272C173.729 23.6875 174.121 22.7743 174.121 21.5837C174.121 20.3931 173.729 19.4799 172.949 18.8402C172.169 18.2005 171.023 17.8826 169.514 17.8826H165.465V25.2848H169.514C171.023 25.2848 172.165 24.9668 172.949 24.3272Z" fill="#1F1F1F"/>
<path d="M185.372 32.6242C183.853 31.7997 182.666 30.6572 181.804 29.2041C180.943 27.7473 180.514 26.1057 180.514 24.2791C180.514 22.4526 180.95 20.8109 181.819 19.3541C182.688 17.8974 183.882 16.7586 185.402 15.934C186.918 15.1095 188.619 14.6954 190.501 14.6954C192.028 14.6954 193.418 14.9616 194.679 15.494C195.94 16.0265 197.005 16.7992 197.873 17.8086L195.637 19.9125C194.287 18.4557 192.627 17.731 190.66 17.731C189.38 17.731 188.238 18.012 187.225 18.5703C186.212 19.1286 185.424 19.9051 184.855 20.8997C184.285 21.8943 184.004 23.022 184.004 24.2791C184.004 25.5362 184.289 26.6677 184.855 27.6586C185.424 28.6532 186.212 29.4296 187.225 29.9879C188.238 30.5463 189.38 30.8273 190.66 30.8273C192.63 30.8273 194.291 30.0915 195.637 28.6162L197.873 30.7459C197.005 31.759 195.936 32.5281 194.664 33.0605C193.396 33.5929 191.998 33.8592 190.471 33.8592C188.589 33.8592 186.892 33.445 185.372 32.6205V32.6242Z" fill="#1F1F1F"/>
<path d="M205.969 5.53112C206.52 6.07834 206.793 6.75867 206.793 7.57949C206.793 8.19697 206.627 8.75528 206.291 9.26182C205.954 9.76837 205.451 10.1677 204.775 10.4672C204.098 10.7667 203.277 10.9146 202.305 10.9146C201.495 10.9146 200.715 10.8073 199.964 10.5892C199.214 10.3711 198.574 10.0716 198.045 9.68703L198.951 8.15629C199.362 8.48167 199.861 8.73679 200.449 8.92166C201.036 9.11023 201.647 9.20266 202.271 9.20266C203.018 9.20266 203.603 9.05847 204.028 8.77007C204.453 8.48167 204.667 8.08974 204.667 7.59428C204.667 7.09883 204.464 6.7143 204.061 6.43329C203.658 6.15599 203.037 6.01548 202.205 6.01548H201.17V4.66592L203.747 1.80042H198.592V0.147667H206.32V1.46765L203.566 4.52912C204.612 4.65113 205.414 4.9839 205.965 5.53112H205.969Z" fill="#F15929"/>
<path d="M215.334 4.61434C215.93 4.88055 216.392 5.26508 216.728 5.76054C217.065 6.25599 217.231 6.8254 217.231 7.47245C217.231 8.16017 217.046 8.76285 216.68 9.28419C216.314 9.80552 215.815 10.2048 215.19 10.4895C214.562 10.7706 213.863 10.9148 213.083 10.9148C211.526 10.9148 210.321 10.46 209.463 9.5504C208.605 8.64083 208.176 7.33564 208.176 5.63852C208.176 4.44795 208.409 3.42746 208.871 2.58445C209.337 1.74144 209.988 1.09808 210.824 0.65809C211.659 0.218096 212.632 -5.24521e-05 213.733 -5.24521e-05C214.318 -5.24521e-05 214.865 0.0591068 215.379 0.173727C215.893 0.288347 216.336 0.458429 216.714 0.680274L215.937 2.16664C215.375 1.82278 214.658 1.6527 213.782 1.6527C212.691 1.6527 211.837 1.96698 211.223 2.59184C210.605 3.22041 210.299 4.12258 210.299 5.30576V5.32055C210.635 4.9582 211.06 4.68089 211.578 4.49232C212.095 4.30745 212.68 4.21132 213.327 4.21132C214.074 4.21132 214.743 4.34442 215.334 4.61434ZM214.573 8.87377C214.983 8.5447 215.19 8.10841 215.19 7.56119C215.19 7.01397 214.983 6.56658 214.573 6.2412C214.162 5.91953 213.611 5.75684 212.92 5.75684C212.229 5.75684 211.685 5.92692 211.26 6.27078C210.835 6.61464 210.62 7.05094 210.62 7.57598C210.62 8.10101 210.827 8.51882 211.245 8.85529C211.659 9.19545 212.236 9.36183 212.972 9.36183C213.63 9.36183 214.166 9.19915 214.576 8.87008L214.573 8.87377Z" fill="#F15929"/>
<path d="M220.633 10.2676C219.919 9.83866 219.357 9.2101 218.947 8.38927C218.536 7.56844 218.329 6.58862 218.329 5.45721C218.329 4.3258 218.533 3.34598 218.947 2.52515C219.357 1.70063 219.919 1.07576 220.633 0.646859C221.346 0.217957 222.156 0.00350666 223.062 0.00350666C223.968 0.00350666 224.781 0.217957 225.499 0.646859C226.216 1.07576 226.782 1.70432 227.192 2.52515C227.602 3.34968 227.81 4.3258 227.81 5.45721C227.81 6.58862 227.602 7.56844 227.192 8.38927C226.782 9.2138 226.216 9.83866 225.499 10.2676C224.781 10.6965 223.968 10.9109 223.062 10.9109C222.156 10.9109 221.343 10.6965 220.633 10.2676ZM224.985 8.25986C225.454 7.635 225.691 6.69955 225.691 5.45721C225.691 4.21488 225.454 3.27943 224.985 2.65456C224.515 2.0297 223.875 1.71542 223.066 1.71542C222.256 1.71542 221.631 2.0297 221.162 2.65456C220.692 3.28312 220.455 4.21488 220.455 5.45721C220.455 6.69955 220.692 7.635 221.162 8.25986C221.631 8.88842 222.267 9.19901 223.066 9.19901C223.864 9.19901 224.515 8.88473 224.985 8.25986Z" fill="#F15929"/>
</g>
<defs>
<clipPath id="clip0_3_177">
<rect width="227.81" height="48" fill="white"/>
</clipPath>
</defs>
</svg>
